<?xml version="1.0" encoding="UTF-8"?><svg version="1.1" width="53px" height="53px" viewBox="0 0 53.0 53.0" xmlns="http://www.w3.org/2000/svg" xmlns:xlink="http://www.w3.org/1999/xlink"><defs><clipPath id="i0"><path d="M1440,0 L1440,1341 L0,1341 L0,0 L1440,0 Z"></path></clipPath><clipPath id="i1"><path d="M26.5,0 C41.1355459,0 53,11.8644541 53,26.5 C53,41.1355459 41.1355459,53 26.5,53 C11.8644541,53 0,41.1355459 0,26.5 C0,11.8644541 11.8644541,0 26.5,0 Z"></path></clipPath><clipPath id="i2"><path d="M21.273698,0 C21.690193,0 22.0897266,0.161174385 22.3841418,0.448228006 L24.0015409,2.02406465 C24.614871,2.62163399 24.614871,3.59051646 24.0015409,4.1880858 L10.8267741,17.0242995 C10.5202137,17.3229821 10.1181673,17.4725275 9.71633032,17.4725275 C9.31449334,17.4725275 8.91244695,17.3231861 8.60588659,17.0242995 L0.46004995,9.08778711 C0.165425335,8.80093751 0,8.41167077 0,8.00587855 C0,7.60008633 0.165634734,7.21081959 0.46004995,6.92396998 L2.07744904,5.34813334 C2.69077918,4.75076802 3.68521578,4.750564 4.29833651,5.34813334 L9.71633032,10.6269005 L20.1632543,0.448228006 C20.4576695,0.161174385 20.8572031,0 21.273698,0 Z"></path></clipPath></defs><g transform="translate(-163.0 -187.0)"><g clip-path="url(#i0)"><g transform="translate(163.0 187.0)"><g clip-path="url(#i1)"><polygon points="0,0 53,0 53,53 0,53 0,0" stroke="none" fill="#BAE474"></polygon></g><g transform="translate(14.26923076923076 18.34615384615371)"><g clip-path="url(#i2)"><polygon points="0,0 24.4615385,0 24.4615385,17.4725275 0,17.4725275 0,0" stroke="none" fill="#000000"></polygon></g></g></g></g></g></svg>