<?xml version="1.0" encoding="UTF-8"?>
<svg width="24px" height="24px" viewBox="0 0 24 24" version="1.1" xmlns="http://www.w3.org/2000/svg" xmlns:xlink="http://www.w3.org/1999/xlink">
    <title>noun-lock-1198142</title>
    <g id="Page-1" stroke="none" stroke-width="1" fill="none" fill-rule="evenodd">
        <g id="5" transform="translate(-49.000000, -564.000000)" fill="#303C48" fill-rule="nonzero">
            <g id="noun-lock-1198142" transform="translate(49.000000, 564.000000)">
                <path d="M10.7521286,14.1671571 C10.7521286,14.6292 11.0040814,15.0316714 11.3775857,15.2476286 L11.3775857,16.6349571 L12.6226286,16.6349571 L12.6226286,15.2476286 C12.99612,15.0318343 13.2480857,14.6293714 13.2480857,14.1671571 C13.2479183,13.4777571 12.6891,12.9192857 12.0000429,12.9192857 C11.3109429,12.9192857 10.7521286,13.4779286 10.7521286,14.1671571 Z" id="Path"></path>
                <path d="M10.0984714,8.76981429 L10.0984714,10.7953286 L13.9023857,10.7953286 L13.9023857,8.76981429 C13.9022183,7.72131429 13.0491,6.86785714 12.0004286,6.86785714 C10.9515857,6.86785714 10.0984714,7.72114286 10.0984714,8.76981429 Z" id="Path"></path>
                <path d="M12,0 C5.37257143,0 0,5.373 0,12 C0,18.627 5.37257143,24 12,24 C18.6274286,24 24,18.627 24,12 C24,5.373 18.627,0 12,0 Z M15.6872143,18.1697143 L8.31321429,18.1697143 C7.53441429,18.1697143 6.90312857,17.5384286 6.90312857,16.7594571 L6.90312857,12.2058857 C6.90312857,11.5265143 7.38377143,10.9593429 8.02345714,10.8259286 L8.02345714,8.77011429 C8.02345714,6.57737143 9.80755714,4.7931 12.0004714,4.7931 C14.1932143,4.7931 15.9773143,6.5772 15.9773143,8.77011429 L15.9773143,10.8259286 C16.6168286,10.95969 17.0973,11.5267286 17.0973,12.2058857 L17.0973,16.7594571 L17.0974674,16.7594571 C17.0973,17.5382571 16.4660103,18.1697143 15.6872103,18.1697143 L15.6872143,18.1697143 Z" id="Shape"></path>
            </g>
        </g>
    </g>
</svg>