<?xml version="1.0" encoding="UTF-8"?>
<svg width="73px" height="13px" viewBox="0 0 73 13" version="1.1" xmlns="http://www.w3.org/2000/svg" xmlns:xlink="http://www.w3.org/1999/xlink">
    <title>rating stars</title>
    <g id="Page-1" stroke="none" stroke-width="1" fill="none" fill-rule="evenodd">
        <g id="8" transform="translate(-894.000000, -686.000000)" fill="#FFC33A">
            <g id="rating-stars" transform="translate(894.000000, 686.000000)">
                <polygon id="Fill-1" points="8.2911855 4.20838462 6.3255277 0.000437189344 4.35665266 4.20838462 0 4.9188173 3.16437248 8.23192558 2.35554736 13 6.32555245 10.7662248 10.2923403 13 9.48674068 8.23192558 12.6478959 4.9188173"></polygon>
                <polygon id="Fill-1" points="23.3795505 4.20838462 21.4143927 0.000437189344 19.4460185 4.20838462 15.090474 4.9188173 18.2540416 8.23192558 17.4454222 13 21.4144174 10.7662248 25.3801963 13 24.5748016 8.23192558 27.7351527 4.9188173"></polygon>
                <polygon id="Fill-1" points="38.4668019 4.20838462 36.5016453 0.000437189344 34.5332724 4.20838462 30.1777308 4.9188173 33.3412963 8.23192558 32.5326774 13 36.5016701 10.7662248 40.4674463 13 39.6620521 8.23192558 42.8224012 4.9188173"></polygon>
                <polygon id="Fill-1" points="53.554064 4.20838462 51.5889062 0.000437189344 49.620532 4.20838462 45.2649876 4.9188173 48.4285551 8.23192558 47.6199357 13 51.588931 10.7662248 55.5547098 13 54.7493151 8.23192558 57.9096662 4.9188173"></polygon>
                <polygon id="Fill-1" points="68.6433095 4.20794743 66.6776607 0 64.7087946 4.20794743 60.3521618 4.91838011 63.5165199 8.23148839 62.7076984 12.9995628 66.6776854 10.7657876 70.6444551 12.9995628 69.8388592 8.23148839 73 4.91838011"></polygon>
            </g>
        </g>
    </g>
</svg>