<?xml version="1.0" encoding="utf-8"?>
<svg width="16px" height="24px" viewBox="0 0 16 24" version="1.1" xmlns:xlink="http://www.w3.org/1999/xlink" xmlns="http://www.w3.org/2000/svg">
  <path d="M3.97216 23.9685C4.20659 24.0931 4.45389 23.8232 4.31036 23.5998C3.5313 22.3873 2.79357 20.347 3.96894 17.7194C5.92902 13.3375 7.12173 11.068 7.12173 11.068C7.12173 11.068 7.75612 13.7165 9.47581 16.0714C11.1309 18.3377 12.0368 21.1881 10.5764 23.5627C10.4393 23.7856 10.681 24.0485 10.9139 23.9293C12.7217 23.0045 14.7494 21.1495 14.9782 17.4581C15.0625 16.3301 14.936 14.7508 14.3035 12.758C13.4901 10.2323 12.4902 9.05375 11.9116 8.54763C11.7386 8.39622 11.4694 8.53042 11.4836 8.75991C11.6522 11.4852 10.6269 12.1767 10.0434 10.6182C9.81032 9.99567 9.67439 8.91897 9.67439 7.60775C9.67439 5.42481 9.04106 3.17767 7.64479 1.35163C7.28169 0.87677 6.85683 0.433045 6.36937 0.0546527C6.1929 -0.0823669 5.9371 0.0553585 5.95326 0.278182C6.06047 1.75802 5.96334 5.99916 2.24251 11.066C-1.13117 15.766 0.176121 19.3756 0.640003 20.3533C1.52691 22.2262 2.764 23.3261 3.97216 23.9685Z" id="Path" fill="#FFFFFF" stroke="none" />
</svg>