<?xml version="1.0"?>
<svg xmlns="http://www.w3.org/2000/svg" xmlns:xlink="http://www.w3.org/1999/xlink" xmlns:svgjs="http://svgjs.com/svgjs" version="1.1" width="512" height="512" x="0" y="0" viewBox="0 0 512.242 512.242" style="enable-background:new 0 0 512 512" xml:space="preserve" class=""><g><g xmlns="http://www.w3.org/2000/svg"><path d="m442.779 63.389h-25.177c-56.488 0-109.373-20.599-152.937-59.569-5.589-4.998-14.013-5.104-19.724-.242l-4.713 4.013c-41.652 35.461-98.007 55.799-154.617 55.799h-16.148c-8.284 0-15 6.716-15 15v215.015c0 52.007 20.341 106.146 55.808 148.535 17.945 21.448 38.541 38.459 61.213 50.559 24.55 13.102 50.317 19.745 76.583 19.745h16.106c26.267 0 52.033-6.644 76.583-19.745 22.673-12.1 43.268-29.11 61.214-50.559 35.466-42.389 55.808-96.528 55.808-148.535v-215.016c.001-8.284-6.714-15-14.999-15zm-15 230.015c0 44.42-18.249 92.751-48.816 129.284-32.133 38.404-72.899 59.555-114.789 59.555h-16.106c-41.89 0-82.656-21.15-114.789-59.555-30.567-36.533-48.816-84.864-48.816-129.284v-200.015h1.148c61.354 0 122.541-21.338 168.969-58.737 47.186 38.479 103.277 58.737 163.022 58.737h10.177z" fill="#00237e" data-original="#000000" style="" class=""/><path d="m266.728 95.804c-5.857-5.857-15.355-5.857-21.213 0l-64.198 64.197c-46.715 46.716-46.715 122.727 0 169.442l59.804 59.805v34.498c0 8.284 6.716 15 15 15s15-6.716 15-15v-34.498l59.804-59.805c46.715-46.716 46.715-122.727 0-169.442zm42.984 212.427-38.591 38.592v-69.491l19.597-19.596c5.858-5.857 5.858-15.355 0-21.213-5.348-5.349-13.721-5.798-19.598-1.38v-42.457c0-8.284-6.716-15-15-15s-15 6.716-15 15v42.218l-12.597-12.596c-5.857-5.857-15.355-5.857-21.213 0s-5.858 15.355 0 21.213l33.81 33.809v69.495l-38.591-38.592c-35.018-35.019-35.018-91.998 0-127.017l53.591-53.591 53.591 53.591c35.02 35.017 35.02 91.996.001 127.015z" fill="#00237e" data-original="#000000" style="" class=""/></g></g></svg>
