<?xml version="1.0" encoding="UTF-8"?><svg version="1.1" width="26px" height="26px" viewBox="0 0 26.0 26.0" xmlns="http://www.w3.org/2000/svg" xmlns:xlink="http://www.w3.org/1999/xlink"><defs><clipPath id="i0"><path d="M1440,0 L1440,2384 L0,2384 L0,0 L1440,0 Z"></path></clipPath><clipPath id="i1"><path d="M13.8447073,0.53938261 C14.542993,1.23608515 15.263804,1.41587935 16.119767,0.898971017 C16.2999698,0.78659964 16.5252232,0.764125365 16.7279513,0.674228263 C16.9982554,0.561856886 17.2009835,0.629279712 17.3136102,0.876496742 C17.8992692,2.22495327 18.9129096,2.7418616 20.377057,2.4721703 C20.6473611,2.42722175 20.8050385,2.58454167 20.8726145,2.85423298 C20.9852412,3.30371849 21.1429186,3.73072972 21.23302,4.15774095 C21.3231214,4.53980364 21.5483748,4.74207212 21.9313057,4.83196922 C22.2917111,4.92186632 22.6295913,5.05671197 22.9899968,5.1241348 C23.5080797,5.19155762 23.6657571,5.48372321 23.5756557,5.93320871 C23.3053516,7.23671669 23.8009092,8.11321343 24.9947524,8.63012177 C25.4452592,8.83239024 25.5128353,9.16950438 25.2875818,9.57404133 C24.6568722,10.6528066 24.7019229,11.5967261 25.693038,12.4507486 C26.0984942,12.7878627 26.1210195,13.2373482 25.6479873,13.5969366 C24.6568722,14.4509591 24.6118215,15.3948787 25.2425311,16.4736439 C25.4677846,16.8781808 25.3551579,17.1703464 24.9497017,17.4400377 C23.1701995,18.6536486 23.530605,18.0243689 23.530605,20.1144765 C23.530605,20.5864363 23.395453,20.9010762 22.9224208,20.9235504 C21.6159508,20.9909733 20.9852412,21.7550986 20.8500892,23.013658 C20.8050385,23.4631435 20.5347344,23.6429378 20.1292782,23.5530407 C18.820663,23.2961918 17.9411019,23.7935816 17.3933039,24.9093114 L17.2734505,25.1675919 C17.1287535,25.4362363 16.8774377,25.5123888 16.5702739,25.3285084 C15.4214814,24.6318059 14.3627902,24.6767544 13.4392512,25.7555196 C13.168947,26.0701595 12.8085415,26.0926338 12.5157121,25.7555196 C11.592173,24.6992287 10.5560072,24.6318059 9.38468932,25.3060341 C9.04680917,25.5083026 8.77650505,25.373457 8.61882764,25.0363428 C8.0782194,23.7553091 7.10962963,23.2608751 5.73558367,23.5305664 C5.37517818,23.5979892 5.14992474,23.418195 5.10487406,23.0361323 C4.99224734,21.7326243 4.29396169,20.9909733 2.94244108,20.8786019 C2.5369849,20.8336533 2.35678215,20.5864363 2.42435818,20.1818993 C2.6946623,18.8334428 2.1765794,17.9119975 0.937685509,17.3501406 C0.554754669,17.1928207 0.464653295,16.9006551 0.667381387,16.5410667 C1.32061635,15.4173529 1.298091,14.4060106 0.261925204,13.5070395 C-0.0759549487,13.214874 -0.0984802922,12.810337 0.261925204,12.4956971 C1.27556566,11.6192004 1.36566704,10.607858 0.68990673,9.48414423 C0.487178639,9.1470301 0.554754669,8.85486452 0.937685509,8.67507032 C2.22163009,8.13568771 2.71718765,7.16929386 2.44688352,5.79836306 C2.37930749,5.43877465 2.55951024,5.2140319 2.94244108,5.16908335 C4.27143635,5.05671197 5.01477268,4.33753516 5.1273994,3.01155291 C5.14992474,2.60701595 5.39770352,2.44969602 5.80315971,2.49464457 C6.02841314,2.51711885 6.27619192,2.49464457 6.63659741,2.49464457 C7.53761115,2.80928443 7.94306734,2.11258189 8.39357421,1.41587935 C8.97923314,0.494434059 8.82155573,0.427011233 9.88024688,0.921445293 C10.803786,1.32598225 11.4795463,1.25855942 12.2454079,0.53938261 C12.9887443,-0.179794203 13.101371,-0.179794203 13.8447073,0.53938261 Z M13.2844801,7 L13.1021551,7 C12.9619051,7 12.8356801,7.1122 12.8356801,7.266475 L12.8356801,7.715275 C10.9142551,7.86955 10.0306801,9.04765 10.0306801,10.380025 C10.0306801,12.231325 11.5173301,12.97465 12.8216551,13.493575 C12.8216551,14.4052 12.8076301,15.27475 12.8076301,16.186375 C11.9661301,15.976 11.1246301,15.3589 11.0685301,15.316825 C10.6758301,15.0223 10.3392301,15.849775 10.0727551,16.28455 C9.93250514,16.494925 10.0166551,16.579075 10.1428801,16.7053 C10.3953301,16.943725 11.2929301,17.673025 12.8076301,17.785225 L12.8076301,19.243825 C12.8076301,19.48225 13.0741051,19.496275 13.2424051,19.496275 C13.3966801,19.496275 13.5229051,19.3981 13.5229051,19.243825 L13.5229051,17.785225 C15.4022551,17.673025 16.4401051,16.551025 16.4401051,15.0223 C16.4401051,13.185025 14.7711301,12.343525 13.5509551,11.838625 L13.5509551,9.314125 C14.2381801,9.5245 14.9674801,10.0294 15.0656551,10.071475 C15.3882301,10.295875 15.7949551,9.5245 16.0754551,9.10375 C16.1736301,8.949475 16.1315551,8.725075 15.9913051,8.640925 C15.7388551,8.4586 14.7991801,7.827475 13.5509551,7.7293 L13.5509551,7.266475 C13.5509551,7.1122 13.4247301,7 13.2844801,7 Z M13.5509551,13.81615 C14.2522051,14.222875 14.6028301,14.671675 14.6028301,15.21865 C14.6028301,15.765625 14.1540301,16.17235 13.5509551,16.270525 L13.5509551,13.81615 Z M12.7936051,9.27205 L12.7936051,11.530075 C12.0783301,11.1514 11.7417301,10.744675 11.7417301,10.183675 C11.7417301,9.762925 12.0923551,9.3562 12.7936051,9.27205 Z"></path></clipPath></defs><g transform="translate(-843.0 -540.0)"><g clip-path="url(#i0)"><g transform="translate(843.0 540.0)"><g clip-path="url(#i1)"><polygon points="-5.55111512e-17,0 26,0 26,26 -5.55111512e-17,26 -5.55111512e-17,0" stroke="none" fill="#3F6211"></polygon></g></g></g></g></svg>