<?xml version="1.0" encoding="utf-8"?>
<!-- Generator: Adobe Illustrator 23.1.0, SVG Export Plug-In . SVG Version: 6.00 Build 0)  -->
<svg version="1.1" id="Шар_1" xmlns="http://www.w3.org/2000/svg" xmlns:xlink="http://www.w3.org/1999/xlink" x="0px" y="0px"
	 viewBox="0 0 512 512" style="enable-background:new 0 0 512 512;" xml:space="preserve">
<style type="text/css">
	.st0{fill:#00237E;}
</style>
<g>
	<g>
		<path class="st0" d="M333.9,288c0-5.3-4.5-9.6-9.9-9.2c-4.8,0.4-8.5,4.6-8.5,9.5c-0.1,30.3-24.8,54.9-55.1,55.1
			c-4.9,0-9.1,3.7-9.5,8.5c-0.4,5.4,3.9,9.9,9.2,9.9C300.8,361.8,333.9,328.7,333.9,288z"/>
		<path class="st0" d="M167.8,277.2c1,6.3-4.3,11.7-10.7,10.7c-3.8-0.6-6.9-3.7-7.5-7.5c-1-6.3,4.3-11.7,10.7-10.7
			C164.1,270.3,167.2,273.4,167.8,277.2z"/>
		<path class="st0" d="M267.9,68.2c-1.7-2.7-4.6-4.3-7.8-4.3s-6.1,1.6-7.8,4.3c-2.7,4.2-65.3,102.7-91.5,172.1
			c-1.8,4.8,0.6,10.1,5.4,11.9c4.8,1.8,10.1-0.6,11.9-5.4c20.2-53.5,64.2-127.2,82-156.2c31.5,51,92.2,157.4,92.2,197.5
			c0,50.9-41.4,92.2-92.2,92.2c-41.1,0-77.6-27.6-88.8-67.1c-1.2-4.1-4.8-7-9.1-6.9c-6.3,0.2-10.3,6.1-8.7,11.7
			c13.3,47.5,57.2,80.7,106.6,80.7c61,0,110.7-49.6,110.7-110.7C370.8,237.2,294.2,109.3,267.9,68.2z"/>
	</g>
	<path class="st0" d="M453.2,135.8c-4.1-7.4-8.7-14.7-13.7-21.6c-7.6-10.6-16.2-20.6-25.8-29.9C373.1,44.9,318.5,22.8,262,22.8
		c-58.2,0-113,22.7-154.1,63.9c-2.5,2.5-4.9,5-7.2,7.5c-3.8,4.1-3,10.6,1.5,13.8c0.2,0.1,0.3,0.2,0.5,0.3c3.9,2.9,9.2,2.4,12.5-1.1
		c36.4-39.9,88.7-65,146.9-65c63.6,0,120.2,30,156.6,76.6v0c6.7,8.5,12.6,17.6,17.9,27.1c4,7.4,7.6,15,10.7,22.9v0
		c1.8,0.4,3.7,0.7,5.5,1c0.5,0.1,1.1,0.1,1.6,0.1c3.7,0,7.1-2.1,8.7-5.5c0.6-1.3,1.3-2.7,1.9-4C461.5,152,457.6,143.8,453.2,135.8z
		 M462.5,185.3c-0.1,0-0.2,0-0.2,0.1c-4.8,1.4-7.6,6.4-6.5,11.3c3.2,14.2,4.9,29,4.9,44.1c0,95.3-67.4,175.1-157.1,194.3
		c-9.8,2.1-19.8,3.5-30,4c-3.8,0.2-7.6,0.3-11.5,0.3c-4.4,0-8.7-0.1-13-0.4h0c-1.5,2.2-3,4.4-4.4,6.6c-2.3,3.6-1.8,8.3,1,11.5
		c0.3,0.4,0.7,0.7,1,1.1c5.1,0.4,10.3,0.5,15.4,0.5c4.3,0,8.7-0.1,13-0.4h0c9.1-0.5,18.1-1.6,26.9-3.2c43.5-8,83.4-29,115.2-61.2
		c40.6-41.1,63.3-96.9,62.9-154.6c-0.1-16.1-1.9-31.9-5.4-47.2C473.4,186.9,467.8,183.7,462.5,185.3z M63.4,240.8
		c0-18.7,2.6-36.9,7.5-54.1c3.3-11.5,7.5-22.6,12.7-33.1c4-8.1,8.4-15.8,13.4-23.2c-0.4-1.2-0.9-2.5-1.4-3.7c-1.6-4-5.6-6.4-9.9-6.1
		c-2,0.2-4.1,0.4-6.1,0.7c-4.7,7.2-9,14.6-12.8,22.3c-3.5,7.1-6.7,14.4-9.4,21.8c-8.6,23.3-13.1,48.1-13.3,73.7
		c-0.4,58.3,22.6,114.6,63.8,155.9c29.7,29.7,66.5,49.8,106.6,58.7c5.3,1.2,10.7-2.2,11.6-7.5c0-0.1,0-0.1,0-0.2
		c0.9-5.1-2.2-10.1-7.3-11.2C130,415,63.4,335.5,63.4,240.8z"/>
	<path class="st0" d="M105.5,175.8c0.1,5.3-4.1,9.8-9.5,9.9c-0.1,0-0.1,0-0.2,0c-5.3,0-9.6-4.2-9.7-9.5c-0.1-7.4-1-14.8-2.5-22.1
		c0-0.2-0.1-0.3-0.1-0.5c-0.9-4.3-2.1-8.6-3.4-12.8c-4.5,0.7-9,1.6-13.4,2.8c0,0-0.1,0-0.1,0c-7.1,1.9-14.1,4.6-20.8,7.8
		c-4.8,2.3-10.6,0.3-12.9-4.5c-2.3-4.8-0.3-10.6,4.5-12.9c7.7-3.7,15.8-6.8,24.1-9c5.9-1.6,12-2.8,18-3.7c2-0.3,4.1-0.5,6.1-0.7
		c4.3-0.4,8.3,2.1,9.9,6.1c0.5,1.2,1,2.4,1.4,3.7c2.4,6.4,4.3,13.1,5.7,19.8C104.4,158.6,105.3,167.2,105.5,175.8z"/>
	<path class="st0" d="M476.4,116.3c-0.8,8.5-2.4,17.1-4.7,25.3c-1.8,6.4-4.1,12.8-6.9,18.9c-0.6,1.4-1.2,2.7-1.9,4
		c-1.6,3.4-5,5.5-8.7,5.5c-0.5,0-1,0-1.6-0.1c-1.8-0.3-3.7-0.6-5.5-1v0c-6.2-1.3-12.3-3-18.3-5c-8.1-2.8-16-6.4-23.4-10.7
		c-4.6-2.7-6.2-8.6-3.6-13.2c2.7-4.6,8.6-6.2,13.2-3.6c6.4,3.7,13.2,6.8,20.2,9.2c0.4,0.1,0.8,0.3,1.2,0.4c3.9,1.3,8,2.5,12,3.4
		c1.7-4.3,3.3-8.6,4.5-13c0-0.2,0.1-0.3,0.1-0.5c1.9-7,3.3-14.1,3.9-21.3c0.5-5.3,5.2-9.2,10.5-8.8
		C473,106.2,476.9,110.9,476.4,116.3z"/>
	<path class="st0" d="M298.1,484c-1.7,3.3-5.1,5.2-8.6,5.2c-1.5,0-3.1-0.4-4.5-1.1c-7.6-4-14.9-8.7-21.6-14
		c-6-4.8-11.7-10-16.9-15.7c-0.3-0.4-0.7-0.7-1-1.1c-2.8-3.2-3.3-7.9-1-11.5c1.4-2.3,2.8-4.5,4.4-6.6h0c3.2-4.5,6.6-8.9,10.3-13
		c5.7-6.4,12.1-12.3,18.9-17.5c4.2-3.3,10.3-2.5,13.6,1.8c3.3,4.2,2.5,10.3-1.8,13.6c-5.8,4.5-11.3,9.6-16.2,15.1
		c-0.1,0.1-0.1,0.1-0.2,0.2c-3,3.3-5.8,6.9-8.4,10.6c3.1,3.1,6.4,6,9.8,8.8h0c0.2,0.1,0.3,0.2,0.5,0.4c5.8,4.6,12.1,8.6,18.6,12.1
		C298.8,473.4,300.6,479.3,298.1,484z"/>
</g>
</svg>
