<?xml version="1.0" encoding="utf-8"?>
<!-- Generator: Adobe Illustrator 24.1.1, SVG Export Plug-In . SVG Version: 6.00 Build 0)  -->
<svg version="1.1"
	 id="svg5230" xmlns:cc="http://creativecommons.org/ns#" xmlns:dc="http://purl.org/dc/elements/1.1/" xmlns:rdf="http://www.w3.org/1999/02/22-rdf-syntax-ns#" xmlns:svg="http://www.w3.org/2000/svg"
	 xmlns="http://www.w3.org/2000/svg" xmlns:xlink="http://www.w3.org/1999/xlink" x="0px" y="0px" viewBox="0 0 1234.3 363.7"
	 style="enable-background:new 0 0 1234.3 363.7;" xml:space="preserve">
<style type="text/css">
	.st0{fill:#00237E;}
	.st1{fill-rule:evenodd;clip-rule:evenodd;fill:#00237E;}
</style>
<g>
	<path id="path3140" class="st0" d="M342.9,268.4c-1.1-0.5-3.1-1.7-4.5-2.5c-4.1-2.5-5.2-3-7.8-3.3c-2.9-0.3-3.9-1-6.3-4.1
		c-0.9-1.1-2.6-2.8-3.7-3.7c-4.6-3.6-5.6-5.6-6-12.3c-0.2-2.4-0.5-6-0.7-8l-0.4-3.7l1.1-2.8c2.5-6.7,5.3-11.2,9.1-14.8
		c3.2-3,6-4.5,7.8-4.2c1.1,0.2,1.4,0.1,2.8-1.3c2.2-2.1,3-2.4,7.7-3.1c2.3-0.4,5.4-1,6.8-1.5s3.6-0.9,4.9-1c1.2-0.1,3-0.5,3.9-0.8
		c1.1-0.4,2.5-0.6,4.3-0.6c3.2,0,5.2-0.7,10-3.5l3.2-1.8l3.1,0.1c3.6,0.1,4.6-0.2,5.2-1.4c1.2-2.4,2.1-11,1.5-14.5
		c-0.4-2.4-1.6-5.3-2.4-6c-0.3-0.2-2.2-0.6-4.2-0.9c-2.6-0.3-4.1-0.7-5.3-1.3c-2-1-3.4-1-6.7-0.1c-3.1,0.9-3.7,0.8-5.4-0.3
		c-1.2-0.8-1.7-1-3.4-1c-1.1,0-2.8-0.2-3.9-0.5c-2.5-0.7-4.3-0.6-6.6,0.2c-2.4,0.8-3.9,2.2-3.9,3.6c0,0.5,0.6,2.1,1.5,3.5l1.5,2.6
		l-0.2,3.2c-0.2,3.8-1.4,7.9-2.8,9.7c-2.3,2.9-4.5,3.6-8.5,2.7c-2.1-0.5-2.9-0.5-4.4-0.2c-1.6,0.3-2.1,0.3-3.4-0.2
		c-2.2-0.8-5-2.8-6.3-4.4c-1.9-2.4-3.2-7.8-3.2-13.3c0-7.9,2.7-12.9,8.5-16.1c1.6-0.9,3.3-2.3,5.6-4.6c1.8-1.8,3.9-3.7,4.7-4.2
		c0.8-0.5,2.3-1.5,3.4-2.3l2-1.4l5.1,0.1c4.1,0.1,5.4,0,7-0.5c1.1-0.3,3.9-0.8,6.4-1c4.2-0.4,4.5-0.5,6.4-1.6
		c2.2-1.3,2.9-1.4,5.5-0.7c1,0.3,3.7,0.7,5.9,1c5,0.6,5.7,0.8,8,2.2c1,0.6,3.2,1.7,4.9,2.3c3,1.2,3.2,1.3,6.5,4.7
		c4.3,4.3,6.4,7.1,8.2,10.9c2,4.2,2.8,6.8,3.3,12.2c0.2,2.6,0.7,5.4,1,6.3c0.4,1.3,0.5,1.8,0.2,3c-0.5,1.8-0.5,3.5,0,6.3
		c0.3,1.8,0.3,3-0.2,6.7c-0.3,2.5-0.7,7.4-0.9,10.8s-0.5,6.9-0.7,7.6c-0.6,2.3-0.7,5.2-0.1,7.1c0.7,2.5,0.6,3.9-0.4,6.7
		c-0.6,1.4-1,3.1-1,4c0,2.3,2.6,8.7,3.7,9.1c0.3,0.1,1.1,0.2,1.8,0.2c1.2,0,1.4-0.1,2.9-2.2c1.8-2.5,3.1-3.3,5.3-3.3
		c2.6,0,13.9,1.3,17.7,2c4.1,0.8,4.4,0.7,5.3-1.1c0.9-1.7,1.2-3.6,2.4-14c1.4-12.3,1.5-12.9,0.5-14.2c-0.7-1-0.7-1.2-0.5-5.3
		c0.1-2.3,0.4-6.4,0.6-8.9c0.4-5.1,0.2-10-0.5-15.1c-0.7-4.7-0.6-7.7,0.2-10.8c1.1-4.2,1-4.7-0.9-7.8c-2.1-3.3-2.1-4.4-0.7-8.6
		c1.1-3.1,1.1-3.6,0.1-7l-0.6-2.2l0.8-1.6c1-2.1,0.8-3.1-1.2-7.7c-0.9-2-1.8-4.4-2.2-5.3c-1-3-1.7-3.5-4.1-2.3
		c-1.7,0.9-3.1,0.8-5.5-0.3c-2.4-1.1-2.9-1.2-3.9-0.4c-1.1,0.8-3,1.1-4.2,0.8c-0.5-0.2-1.7-0.9-2.6-1.6c-0.9-0.7-3-2-4.7-3
		c-3.7-2.1-6-4.3-7.4-7.1c-2-4.1-1.1-9,2.6-14.4c2.5-3.7,5-6.2,7.2-7.4c2.6-1.3,4.1-1.3,7.7,0c4.7,1.7,7.1,2,16.4,2.6
		c3.2,0.2,6.9,0.6,8.1,0.8c3,0.6,3.4,0.6,6-0.2l2.2-0.7l2.4,1.2c3.5,1.7,4.1,2.5,4.7,5.8c0.9,5.4,3.7,14.7,5.3,17.7
		c1.4,2.5,1.3,4.9-0.2,9c-1.8,4.9-1.8,4.7-2.1,10.9c-0.3,5.4-0.4,5.9-1.4,8.3l-1.1,2.5v13.1v13.1l1.4,3.5l1.4,3.5l-1.2,3.6
		c-0.7,2-1.2,4.2-1.2,4.8c0,0.7,0.5,2.7,1,4.5c1,3.3,1,3.3,0.6,6.5c-0.5,4.2-0.5,5.2,0.3,7.7c0.8,2.7,0.8,3.7,0,7.7
		c-0.5,2.4-0.7,4.5-0.7,8.4c0,5.7,0.3,8.2,1.6,10.6c0.9,1.7,1,1.8,6.2,3.1c3.3,0.8,3.8,0.9,5.2,0.5c0.9-0.2,2.7-1.2,4.1-2.1
		c4.9-3.2,4.4-3.1,14.6-2.6c5.5,0.3,12.7,0.5,14,0.4c1-0.1,2.4-5.9,3.3-13.7c0.4-3.1,1.1-7.5,1.5-9.7c0.9-4.2,0.9-4.4-0.6-6.2
		c-0.7-0.9-0.7-0.9-0.3-6.3c0.6-7.8,0.5-18.1-0.1-23.9l-0.5-4.9l0.9-3.9c1.2-5.3,1.1-5.7-0.7-8.6c-1.9-3.1-2.1-4.5-1.1-7.7
		c0.9-2.6,1-5.5,0.3-8.4c-0.4-1.9-0.4-2.1,0.2-3.2c1-1.7,0.9-3-0.6-6.6c-0.7-1.7-1.8-4.5-2.4-6.1c-1.4-3.6-1.9-4.4-2.8-4.4
		c-0.4,0-1.3,0.4-1.9,0.8l-1.2,0.8l-2.6-0.5c-1.4-0.3-3.4-0.5-4.4-0.5c-1.7,0-1.8,0-2.7-1.4c-1.3-2-1.5-2.1-4.2-2.4
		c-1.7-0.2-2.7-0.6-3.8-1.3c-1.9-1.3-3.7-3.4-4.7-5.5c-1.2-2.4-1.2-6.8-0.1-10.4c1.1-3.4,3.4-7.7,5.1-9.5c1.5-1.5,4.2-3.1,5.5-3.1
		c0.4,0,2.2,0.6,4.1,1.3c1.9,0.7,4.3,1.4,5.3,1.5c1,0.1,2.8,0.5,3.9,0.9c1.7,0.6,2.5,0.7,6.8,0.6c4.6-0.1,5,0,7.1,0.7l2.2,0.8
		l2.9-0.8l2.9-0.8l2,1c2.5,1.2,3,1.6,3.5,2.8c0.2,0.5,1.2,4.4,2.3,8.7c1.6,6.5,2.2,8.3,3.6,11.2c1.5,3.1,1.7,3.5,1.5,5.1
		c-0.1,0.9-0.8,3.3-1.5,5.2c-1.3,3.4-1.4,3.8-1.8,9.4c-0.4,5.2-0.5,6.2-1.4,8.6c-1.2,3.3-1.6,6.8-1.6,14.9c0,8.2,0.4,12.5,1.6,16.2
		c1.6,4.9,1.6,6.3,0.2,10.2l-1.2,3.2l1.2,3.4l1.2,3.4l-0.2,4.9c-0.2,4.8-0.2,5,0.6,7.4l0.9,2.5l-1,5.3c-1.4,7.4-1.7,9.1-1.7,12
		c0,2.4,0.1,2.7,1.3,5.1c1.6,3,1.9,3.2,6.6,4.4c4,1,5.1,0.9,9.5-0.3c3.6-1,9.2-1.7,11.5-1.3c3,0.4,5.2,1.9,6.8,4.8
		c1.5,2.7,2.1,5.6,1.6,7.6c-0.9,3.5-4,8.4-6,9.6c-0.4,0.2-2.1,0.4-4.4,0.4c-2.9,0-4.4,0.2-7,0.9l-3.3,0.9l-2.6-0.6
		c-3.6-0.9-6.7-1.1-9.5-0.7c-1.8,0.3-3.7,0.3-7.8,0c-8.7-0.6-11.5-0.6-14.8,0.4c-3.1,0.9-3.2,0.8-7.2-0.6c-1.8-0.7-2.1-0.7-4.5-0.3
		l-2.6,0.4l-2-1c-1.1-0.6-2.4-1-2.9-1c-0.5,0-1.6,0.5-2.5,1.2l-1.7,1.2l-3.2-0.1c-2.5-0.1-3.8,0.1-6.6,0.8c-3.3,0.8-3.6,0.8-6.2,0.4
		c-1.7-0.2-6.2-0.4-11.4-0.4c-4.7,0-10.1-0.1-12-0.3c-3.3-0.3-3.5-0.2-6.2,0.7l-2.8,1l-2.4-1c-2.3-1-2.5-1-6-0.9
		c-3.6,0.1-3.7,0.1-6-1.1c-1.9-1-2.6-1.1-3.6-1c-2,0.3-5.8,1.4-7.4,2.1c-1.1,0.5-2.1,0.6-4.7,0.6c-1.8,0-4.4,0.2-5.8,0.4
		c-5.5,0.8-9.8-0.8-13.6-5c-2.6-2.8-4.6-4.3-6.4-4.6c-1.3-0.2-2.1,0.1-4.1,1.7c-0.7,0.6-3.2,2-5.6,3.2c-2.3,1.1-4.8,2.5-5.5,3
		c-0.7,0.5-1.6,1.1-2,1.3c-0.9,0.5-8.5,1-14.2,1c-6,0-8.9,0.4-12.4,1.8c-1.6,0.6-3.5,1.2-4.1,1.2C345.3,269.3,344,268.9,342.9,268.4
		L342.9,268.4L342.9,268.4z M353.7,248.8c2.5-1.3,3.6-1.5,9.2-1.8c4.7-0.3,5.5-0.4,5.9-0.9c0.3-0.3,1.4-1.9,2.5-3.5
		c2.9-4,3.5-4.6,9.5-8.7c4.4-2.9,5.4-3.7,5.8-4.7c0.6-1.4,1-10.9,0.5-12.7c-0.2-0.6-0.7-1.4-1.2-1.7c-0.9-0.6-0.9-0.6-3.7,0.1
		c-1.6,0.4-4.6,1.2-6.7,1.8c-3.3,1-4.6,1.2-9.1,1.5c-9.1,0.5-11.9,1.2-17.1,3.7c-1.5,0.8-4.4,2.1-6.3,2.9c-1.9,0.8-3.9,1.8-4.3,2.2
		c-1.1,1-2.5,4.2-3,6.6c-1.2,6.2,1.7,11.4,7.3,13c1.4,0.4,3.5,1.2,4.8,1.8C350.8,249.8,351.7,249.8,353.7,248.8L353.7,248.8
		L353.7,248.8z"/>
	<path id="path3142" class="st0" d="M669,265.8c-1.8-0.5-4.5-1.1-6.2-1.3c-2.3-0.3-4-0.8-7.8-2.3c-6.3-2.5-6.3-2.5-7.4-4.1
		c-0.5-0.8-1.3-1.8-1.7-2.3l-0.8-0.9l-1.4,0.7c-0.7,0.4-4.6,2.8-8.5,5.5l-7.1,4.8l-8.8,0.4l-8.8,0.4l-2-0.9
		c-1.7-0.8-2.2-0.8-3.5-0.6c-0.8,0.1-2.8,0.3-4.3,0.3c-2.4,0-3-0.1-4.6-0.9c-6.4-3.2-16.3-17.7-20.7-30.6c-2.3-6.9-2.3-6.8-2.5-28
		c-0.1-10.4-0.3-21.1-0.5-23.7c-0.4-4.6-1.2-9.6-1.9-11.5c-0.4-0.9-0.4-0.9-2.4-0.7c-2.5,0.3-6-0.3-7.6-1.2c-3.7-2.1-7.1-5.7-8-8.5
		c-0.6-1.8-0.7-6.1-0.2-10.4c0.4-3.5,1.1-4.6,3.8-6.8c3.8-3,7.6-3.5,12.4-1.8c2.9,1.1,4.8,1.3,5.1,0.5c0.2-0.5,1.5-1,3.5-1.3
		c6.2-1,16.5,5.5,19.7,12.3c0.7,1.4,0.7,2.1,0.7,5.7c0,3.8-0.1,4.3-1.3,7.8c-1.2,3.4-1.3,4-1.2,7.3c0,4,0.4,5.3,2.7,9.3
		c1.9,3.1,1.9,4,0.6,6.5c-0.6,1.1-1.3,2.5-1.5,3c-0.6,1.2-1.6,5.1-1.9,7.4c-0.2,1.7-0.1,2,1,4.1l1.3,2.2l0.2,13l0.2,13l1.3,1.6
		c3.4,4.2,7,7.5,9.2,8.4c0.8,0.3,2.8,0.6,6.4,0.7l5.2,0.2l2.4-2.6c4-4.3,12.7-15.7,15.5-20.4c1.5-2.4,3.8-8.4,4.7-11.7l0.7-2.8
		l-0.8-2.8c-1.1-3.9-1.1-5.3-0.5-9.8c0.6-4.4,0.6-4.5-1-9.5c-0.7-2.3-1.1-3.8-0.9-4.4c0.1-0.5,0.9-1.7,1.8-2.7
		c1.9-2.2,2.4-3.4,1.8-4.8c-0.7-1.6-1.4-2.1-4-2.7c-1.3-0.3-3.8-1.1-5.5-1.8c-2.9-1.2-3.2-1.3-5.7-1.1c-5.3,0.3-9.1-1-12.4-4.2
		c-3.3-3.2-3.6-5-1.8-8.6c2-3.9,9.2-11.7,12.1-13.2c1.7-0.8,2.5-0.8,6.3,0c4.3,1,6.5,1,8.6,0l1.7-0.8l2.2,0.8
		c2.7,1,3.3,1.1,10.2,1.7c6.4,0.6,8.5,1.2,10.5,3.2c1.5,1.5,1.8,2.3,2.3,6.7c0.2,1.5,0.6,4,0.9,5.5c0.7,3.4,0.8,17.7,0.2,25.9
		c-0.4,5.4-0.9,7.8-2.5,12.1c-0.8,2.2-0.9,2.9-0.9,6.3c0,3,0.2,4.5,0.7,6.5c0.6,2.2,0.7,3.8,0.9,11.2c0.1,5.2,0,10.5-0.2,13.5
		c-0.3,4.7-0.3,5,0.3,6c0.8,1.4,2.7,2.1,7.4,2.7c5.8,0.8,9.6,2.3,11.2,4.6c1.6,2.2,2.1,8.9,0.8,11.1c-0.3,0.5-2.1,1.9-4,3.2
		c-1.9,1.2-4.7,3.3-6.3,4.6c-1.6,1.3-3.1,2.3-3.4,2.3C672.5,266.7,670.8,266.3,669,265.8L669,265.8L669,265.8z"/>
	<path id="path3144" class="st0" d="M696.7,263.9c-4.3-3.1-6.6-8.1-5.7-12.2c1.1-5.2,4.3-8,9.3-8c1.3,0,3.4,0.2,4.7,0.4
		c2.1,0.4,2.6,0.4,4.1-0.1c2.2-0.8,5.1-2.7,5.8-4c0.8-1.4,2.2-8.1,2.2-10.8c0-1.2-0.2-3.4-0.4-5c-0.3-2.2-0.2-5.9,0.2-15.9
		c0.7-17.4,0.6-37.5-0.3-39.9c-0.8-2.1-2.5-3.7-6.3-5.9c-4.9-2.8-4.3-2.7-7.8-1.1c-3.4,1.5-4.9,1.7-7.1,0.8c-5.2-2-10-7.1-11.8-12.2
		c-0.4-1.1-0.4-1.8-0.2-2.8c1.1-4.8,4.8-8.4,10.3-10.1c2.2-0.7,2.8-0.7,12.8-0.6c10.1,0.1,10.5,0.1,11.8,0.8c1.7,0.9,2.4,0.9,4.8,0
		c3.8-1.4,8.8-0.8,11.8,1.4c1.6,1.1,2.2,2.4,3.8,7.7c1.3,4.3,2.4,6.5,3.5,6.7c1.6,0.4,3-0.4,8.7-5.4c3-2.7,5.4-3.9,7.4-3.9
		c1.4,0,1.7-0.2,4-2.1c4.1-3.4,8.1-5,12.8-5c1.6,0,3.1,0.2,4.4,0.6c1,0.4,2.2,0.6,2.7,0.6c0.4,0,1.3-0.3,2-0.6
		c2.1-1.1,2.8-0.9,4.8,1.2c1,1,3.9,5,6.5,8.8l4.7,7l0.2,3.1c0.4,5.5,0.8,9.5,1.5,13.3c1.1,5.9,0.3,8.8-2.9,11.7
		c-2.1,1.9-8.4,6.1-11.1,7.6l-1.8,1l-2.9-1.3c-1.6-0.7-3.5-1.6-4.3-1.9c-3.4-1.4-7.5-5.7-9.6-10c-1.4-2.8-1.4-4.7-0.3-9.2
		c0.9-3.5,1-4.6,0.4-5.7c-0.5-1.1-1.1-1.3-3-0.7c-1.2,0.4-2.4,1.1-4.2,2.7c-1.4,1.2-4,3.4-5.8,4.9c-3.7,3-4.8,4.2-6.3,7
		c-2.6,5-3.8,6.7-7.1,10.1c-2.8,2.9-3.7,4.2-4.8,6.4l-1.4,2.7l0.5,3.7c0.6,4.5,0.7,7.7,0.1,17c-0.3,3.9-0.6,9.8-0.7,13l-0.2,5.8
		l2.1,1.8c2.7,2.4,4.9,3.9,7.4,5.2l2.1,1.1H758h10.1l1.7,1.5c4.5,3.9,4.8,8.5,0.8,13.8c-2,2.6-4.2,3.5-10.8,4.5
		c-4.5,0.7-8.2,0.6-11.5-0.1c-2.4-0.6-2.8-0.6-3.5-0.2c-3,1.7-2.6,1.6-11.2,1.6l-8.1,0l-1.9-0.9c-2.3-1.1-3.2-1.1-6-0.2
		c-2.6,0.8-5.8,0.8-9.1,0.1c-2.4-0.5-2.5-0.5-5.2,0.2C699,265,698.2,265,696.7,263.9L696.7,263.9L696.7,263.9z"/>
	<path id="path3146" class="st0" d="M858.5,266.5c-6.3-0.4-9-1.4-12.3-4.7c-2.6-2.6-3.2-2.9-5.5-2.9c-5.4,0-11.1-2.6-17.1-7.7
		c-2.7-2.3-3.4-3.5-4.4-7c-1.1-3.9-1.9-5.8-5.9-12.7c-6.1-10.7-6.7-12.1-8.4-20.7c-1.6-8-1.7-9.2-0.8-12.3c0.6-2.3,0.7-3,0.5-7
		c-0.3-5.3-0.2-5.9,3.1-13.4c1.2-2.9,2.5-6.4,2.9-7.8c1.7-6.5,3.4-10.4,6.2-14.1c1.8-2.5,3.1-3.5,5.6-4.6c1.6-0.7,1.9-1,2.5-2.3
		c0.8-1.9,2.3-3.1,9.8-8.2l6.3-4.3l2.1,0c4.2,0,8.8-0.6,9.2-1.1c0.2-0.3,1.2-0.8,2.1-1.2c1.6-0.7,2.4-0.7,10.7-0.8l8.9-0.1l3.5,1.8
		c1.9,1,5.4,2.5,7.8,3.4c7.6,2.7,13.3,5.9,16.4,9.2c1.2,1.2,3.2,2.9,4.6,3.9c3,2,3.6,3,6.7,9.7c3.3,7.5,4.6,11.5,4.7,14.9
		c0.1,2.5,0.2,3.1,1.5,5.8c1.9,4.2,2,5.8,0.7,9.6c-0.6,1.6-1.5,4.2-2,5.7c-0.5,1.5-1.4,3.3-1.9,4.1c-1.9,2.7-4.8,4.9-8,6
		c-2.1,0.7-3.3,0.8-6.9,0.1c-3.1-0.5-5-0.4-9.5,0.5c-3.6,0.8-5.4,0.8-13.4,0c-3.6-0.4-8.2-0.7-10.2-0.7c-3.4,0-4,0-7,1.1l-3.3,1.1
		l-3-0.6c-2.9-0.6-3.2-0.6-6.3-0.1c-2.3,0.4-4.2,0.5-6.8,0.3c-3.4-0.2-3.7-0.2-5.6,0.7c-1.1,0.5-2.4,1.3-2.9,1.8l-0.9,0.9l0.6,3.2
		c1.3,6.7,3,12.6,4.5,15.3c1.9,3.3,3.7,4.6,8.1,5.9c2.7,0.7,3.5,1.1,5.7,3c2.1,1.7,3.2,2.2,6.2,2.8c3.1,0.6,5.2,1.2,7.8,2.3l1.8,0.8
		l4.3-1.2c2.4-0.6,5.2-1.3,6.3-1.5c3.2-0.6,4.1-1,6.5-2.9c2.7-2.2,5.8-5.7,9.5-10.7c3.7-5,5.8-7.4,7-8.1c0.8-0.5,1.9-0.6,6-0.6
		c5.8,0,6.8,0.2,8.7,2.2c3.9,3.9,3.3,11.9-1.4,21.4c-1.8,3.6-3.3,5.7-4.8,6.8c-0.6,0.4-2.5,1.4-4.3,2.2c-1.8,0.7-5.3,2.5-7.8,3.9
		c-5.9,3.3-10.9,5.8-14.7,7.3c-2.6,1-3.3,1.2-4.7,1c-5.4-0.6-7.5-0.6-10.9,0.1C862.8,266.5,860.7,266.7,858.5,266.5L858.5,266.5
		L858.5,266.5z M877.3,187c2.8-0.7,5.7-1.5,6.3-1.7c1.5-0.4,3.9-2.8,5-5c1.7-3.5,1.4-9.5-0.6-11.5c-2.3-2.4-9.2-6.2-12.8-7
		c-1.2-0.3-3.3-1.1-4.6-1.9c-2.3-1.3-2.5-1.4-5.2-1.3c-2,0-3.5,0.3-5.7,0.9c-6.4,2-10,3.9-11.7,6.4c-2.3,3.2-2.3,3.2-5.3,3.7
		c-4.9,0.8-6.7,2.2-9,6.9c-1,1.9-1.3,3-1.4,4.6c-0.3,4.8,1.9,5.8,10.1,4.8c2.8-0.3,3.3-0.3,5.8,0.3c3.1,0.8,4.7,0.9,7.5,0.4
		c2-0.4,2.8-0.3,7.7,1.2C867.4,189,870.6,188.8,877.3,187L877.3,187z"/>
</g>
</svg>
