<?xml version="1.0"?>
<svg xmlns="http://www.w3.org/2000/svg" xmlns:xlink="http://www.w3.org/1999/xlink" xmlns:svgjs="http://svgjs.com/svgjs" version="1.1" width="512" height="512" x="0" y="0" viewBox="0 0 512.00042 512" style="enable-background:new 0 0 512 512" xml:space="preserve" class=""><g><path xmlns="http://www.w3.org/2000/svg" d="m235 219.878906c5.519531 0 10-4.480468 10-10 0-5.519531-4.480469-10-10-10s-10 4.480469-10 10c0 5.519532 4.480469 10 10 10zm0 0" fill="#00237e" data-original="#000000" style="" class=""/><path xmlns="http://www.w3.org/2000/svg" d="m10 99.878906h82.105469c3.957031 16.582032 60.121093 251.964844 63.761719 267.214844 2.152343 11.765625 9.289062 21.515625 19.003906 27.246094-9.175782 9.070312-14.871094 21.648437-14.871094 35.539062 0 27.570313 22.429688 50 50 50s50-22.429687 50-50c0-11.246094-3.734375-21.644531-10.027344-30.007812h80.054688c-6.292969 8.363281-10.027344 18.761718-10.027344 30.007812 0 27.570313 22.429688 50 50 50s50-22.429687 50-50c0-11.246094-3.734375-21.636718-10.027344-30h20.027344c5.523438 0 10-4.476562 10-10 0-5.523437-4.476562-10-10-10h-234.789062c-9.738282 0-18.023438-6.960937-19.699219-16.550781-.035157-.199219-.078125-.398437-.125-.597656l-5.453125-22.851563h257.644531c12.941406 0 24.382813-8.246094 28.46875-20.515625l15.492187-46.484375c.007813-.011718.011719-.023437.015626-.035156l19.984374-59.964844c.007813-.011718.011719-.023437.015626-.035156l19.933593-59.800781c1.015625-3.050781.503907-6.402344-1.375-9.007813-1.878906-2.609375-4.898437-4.15625-8.113281-4.15625h-51.140625c9.773437-14.644531 15.140625-31.976562 15.140625-49.878906 0-49.625-40.375-90-90-90s-90 40.375-90 90c0 17.90625 5.371094 35.238281 15.136719 49.878906h-178.925781l-12.484376-52.320312c-1.074218-4.5-5.097656-7.679688-9.726562-7.679688h-90c-5.523438 0-10 4.476563-10 10 0 5.523438 4.476562 10 10 10zm230 330c0 16.542969-13.457031 30-30 30s-30-13.457031-30-30c0-16.539062 13.457031-30 30-30s30 13.460938 30 30zm160 0c0 16.542969-13.457031 30-30 30s-30-13.457031-30-30c0-16.539062 13.457031-30 30-30s30 13.460938 30 30zm-244.382812-150h78.765624l4.445313 40h-73.664063zm103.332031 40-4.441407-40h96.988282l-4.445313 40zm168.628906 0h-60.40625l4.445313-40h76.507812l-11.054688 33.164063c-1.359374 4.089843-5.175781 6.835937-9.492187 6.835937zm27.214844-60h-80.953125l4.445312-40h89.839844zm20-60h-94.285157l2.238282-20.152344c18.25-1.371093 35.648437-8.265624 49.898437-19.847656h55.484375zm-98.792969-179.878906c38.597656 0 70 31.402344 70 70 0 38.339844-31.214844 70-70 70-.613281 0-1.222656-.007812-1.828125-.03125-.042969-.003906-.085937-.003906-.128906-.003906-37.738281-1.03125-68.042969-32.128906-68.042969-69.964844 0-38.597656 31.402344-70 70-70zm-154.949219 139.878906 1.238281 11.195313c.570313 5.113281 4.898438 8.898437 9.929688 8.898437.367188 0 .742188-.023437 1.113281-.0625 5.488281-.609375 9.445313-5.554687 8.835938-11.042968l-.996094-8.988282h78.179687c12.503907 10.15625 27.515626 16.734375 43.355469 19.109375l-2.324219 20.890625h-85.382812c-5.523438 0-10 4.476563-10 10 0 5.523438 4.476562 10 10 10h83.160156l-4.441406 40h-101.433594l-1.285156-11.5625c-.609375-5.488281-5.550781-9.4375-11.042969-8.835937-5.488281.609375-9.445312 5.554687-8.835937 11.042969l1.039062 9.355468h-81.3125l-9.546875-40h53.699219c5.523438 0 10-4.476562 10-10 0-5.523437-4.476562-10-10-10h-58.472656l-9.542969-40zm0 0" fill="#00237e" data-original="#000000" style="" class=""/><path xmlns="http://www.w3.org/2000/svg" d="m336 99.859375h30v30.140625c0 5.523438 4.476562 10 10 10s10-4.476562 10-10v-30.140625h30c5.523438 0 10-4.335937 10-9.859375s-4.476562-10-10-10h-30v-30c0-5.523438-4.476562-10-10-10s-10 4.476562-10 10v30h-30c-5.523438 0-10 4.476562-10 10s4.476562 9.859375 10 9.859375zm0 0" fill="#00237e" data-original="#000000" style="" class=""/></g></svg>
