<?xml version="1.0" encoding="UTF-8"?><svg version="1.1" width="112px" height="112px" viewBox="0 0 112.0 112.0" xmlns="http://www.w3.org/2000/svg" xmlns:xlink="http://www.w3.org/1999/xlink"><defs><clipPath id="i0"><path d="M56,0 C86.927946,0 112,25.072054 112,56 C112,86.927946 86.927946,112 56,112 C25.072054,112 0,86.927946 0,56 C0,25.072054 25.072054,0 56,0 Z"></path></clipPath><clipPath id="i1"><path d="M7.5537,0 C10.9494,0 16.80525,1.3167 16.80525,6.3063 C16.80525,9.87525 13.6521,12.474 9.1476,12.71655 C13.75605,12.9591 16.9785,15.55785 16.9785,19.23075 C16.9785,24.3936 11.0187,25.74495 7.51905,25.74495 C4.5045,25.74495 1.69785,24.84405 0,24.1857 L1.2474,18.018 L1.42065,17.98335 C3.2571,21.37905 4.88565,24.3243 7.5537,24.3243 C9.87525,24.3243 11.05335,22.2453 11.05335,19.5426 C11.05335,16.38945 8.9397,13.75605 5.30145,12.92445 L5.30145,12.57795 C8.83575,11.67705 10.98405,9.25155 10.98405,6.06375 C10.98405,3.63825 9.80595,1.42065 7.58835,1.42065 C5.16285,1.42065 3.43035,4.12335 1.5246,7.5537 L1.35135,7.5537 L0.17325,1.5246 C1.83645,0.9009 4.5738,0 7.5537,0 Z"></path></clipPath><clipPath id="i2"><path d="M4.3875,0 C6.463125,0 8.1675,1.6875 8.1675,3.729375 C8.1675,5.821875 6.463125,7.52625 4.404375,7.52625 L2.6325,7.52625 L2.6325,11.491875 C2.6325,11.660625 2.480625,11.8125 2.311875,11.8125 L0.320625,11.8125 C0.135,11.8125 0,11.660625 0,11.491875 L0,0.320625 C0,0.151875 0.135,0 0.320625,0 Z M4.235625,2.480625 L2.6325,2.480625 L2.6325,5.0625 L4.235625,5.0625 C4.96125,5.0625 5.56875,4.48875 5.56875,3.729375 C5.56875,3.020625 4.96125,2.480625 4.235625,2.480625 Z"></path></clipPath><clipPath id="i3"><path d="M5.77131181,0 C5.88943681,0 6.00756181,0.084375 6.05818681,0.185625 L11.3400618,11.5425 C11.4413118,11.761875 11.3063118,11.98125 11.0531868,11.98125 L9.18006181,11.98125 C8.87631181,11.98125 8.74131181,11.88 8.58943681,11.559375 L7.98193681,10.22625 L3.39193681,10.22625 L2.78443681,11.57625 C2.70006181,11.77875 2.51443681,11.98125 2.17693681,11.98125 L0.320686812,11.98125 C0.0675618117,11.98125 -0.0674381883,11.761875 0.0338118117,11.5425 L5.31568681,0.185625 C5.36631181,0.084375 5.48443681,0 5.60256181,0 Z M5.68693681,5.146875 L5.67006181,5.146875 L4.40443681,7.93125 L6.96943681,7.93125 L5.68693681,5.146875 Z"></path></clipPath><clipPath id="i4"><path d="M6.091875,0 C7.779375,0 9.028125,0.523125 10.175625,1.569375 C10.3275,1.704375 10.3275,1.906875 10.1925,2.041875 L8.87625,3.40875 C8.758125,3.526875 8.5725,3.526875 8.454375,3.40875 C7.83,2.851875 7.003125,2.548125 6.17625,2.548125 C4.269375,2.548125 2.86875,4.134375 2.86875,6.024375 C2.86875,7.8975 4.28625,9.45 6.193125,9.45 C6.98625,9.45 7.846875,9.163125 8.454375,8.64 C8.5725,8.53875 8.791875,8.53875 8.893125,8.656875 L10.209375,10.0575 C10.3275,10.175625 10.310625,10.395 10.1925,10.513125 C9.045,11.626875 7.59375,12.15 6.091875,12.15 C2.716875,12.15 0,9.466875 0,6.091875 C0,2.716875 2.716875,0 6.091875,0 Z"></path></clipPath><clipPath id="i5"><path d="M2.379375,0 C2.59875,0 2.784375,0.185625 2.784375,0.405 L2.784375,4.843125 L6.530625,0.16875 C6.598125,0.084375 6.75,0 6.85125,0 L8.9775,0 C9.298125,0 9.466875,0.37125 9.28125,0.624375 L5.3325,5.56875 L9.635625,11.17125 C9.82125,11.424375 9.635625,11.795625 9.315,11.795625 L6.98625,11.795625 C6.868125,11.795625 6.71625,11.728125 6.6825,11.6775 L2.784375,6.37875 L2.784375,11.4075 C2.784375,11.626875 2.59875,11.8125 2.379375,11.8125 L0.405,11.8125 C0.16875,11.8125 0,11.626875 0,11.4075 L0,0.405 C0,0.185625 0.16875,0 0.405,0 Z"></path></clipPath><clipPath id="i6"><path d="M5.886,0 C6.021,0 6.1425,0.108 6.1425,0.2565 L6.156,5.7915 L7.2225,5.7915 C7.371,5.7915 7.479,5.8995 7.479,6.0345 L7.479,7.155 C7.479,7.29 7.371,7.4115 7.2225,7.4115 L6.156,7.4115 L6.1695,9.072 C6.1695,9.207 6.048,9.3285 5.913,9.3285 L4.4685,9.3285 C4.3335,9.3285 4.212,9.207 4.212,9.072 L4.212,7.425 L0.2565,7.425 C0.108,7.425 0,7.3035 0,7.1685 L0,5.7375 L4.7115,0.081 C4.752,0.0405 4.7925,0 4.914,0 Z M4.266,3.24 L2.1195,5.751 L4.266,5.751 L4.266,3.24 Z"></path></clipPath><clipPath id="i7"><path d="M4.89251776,0 C5.04101776,0 5.14901776,0.1215 5.14901776,0.2565 L5.14901776,1.4445 C5.14901776,1.5795 5.04101776,1.701 4.89251776,1.701 L2.11151776,1.701 L2.11151776,3.1455 L3.07001776,3.1455 C4.93301776,3.1455 6.14801776,4.455 6.14801776,6.2235 C6.14801776,7.911 4.70351776,9.315 2.81351776,9.315 C1.40951776,9.315 0.478017761,8.5995 0.140517761,8.1945 C-0.0349822388,7.992 -0.0484822388,7.8975 0.113517761,7.7355 L0.964017761,6.8985 C1.04501776,6.8175 1.18001776,6.7905 1.28801776,6.858 C1.28801776,6.858 2.24651776,7.506 2.89451776,7.506 C3.62351776,7.506 4.17701776,6.966 4.17701776,6.2235 C4.17701776,5.4945 3.66401776,4.914 2.78651776,4.914 L0.707517761,4.914 C0.437517761,4.914 0.289017761,4.6575 0.289017761,4.4415 L0.289017761,0.2565 C0.289017761,0.1215 0.397017761,0 0.545517761,0 Z"></path></clipPath><clipPath id="i8"><path d="M3.1185,0 C4.5225,0 5.6025,0.7155 6.0075,1.0125 C6.1695,1.107 6.1425,1.35 6.0885,1.4445 L5.4,2.484 C5.3055,2.6325 5.0625,2.754 4.941,2.6595 C4.8195,2.592 3.834,1.8495 3.0105,1.8495 C2.5245,1.8495 2.16,2.1735 2.16,2.538 C2.16,3.0375 2.565,3.4155 3.6315,3.8475 C4.6845,4.266 6.3585,5.0895 6.3585,6.9255 C6.3585,8.316 5.157,9.72 3.1725,9.72 C1.4175,9.72 0.4455,8.991 0.135,8.6805 C0,8.5455 -0.0405,8.4915 0.0675,8.3025 L0.702,7.182 C0.81,7.0065 1.0665,7.0335 1.161,7.101 C1.215,7.128 2.187,7.8435 3.078,7.8435 C3.618,7.8435 4.0095,7.506 4.0095,7.0335 C4.0095,6.4665 3.537,6.0345 2.619,5.67 C1.458,5.211 0,4.3065 0,2.6865 C0,1.35 1.0395,0 3.1185,0 Z"></path></clipPath><clipPath id="i9"><path d="M2.295,0 C2.43,0 2.538,0.1215 2.538,0.2565 L2.538,1.755 L3.537,1.755 C3.6855,1.755 3.7935,1.863 3.7935,2.0115 L3.7935,3.213 C3.7935,3.348 3.6855,3.4695 3.537,3.4695 L2.538,3.4695 L2.538,5.157 C2.538,5.454 2.7405,5.481 2.9025,5.481 C3.0915,5.481 3.294,5.4135 3.429,5.3865 C3.564,5.3595 3.6855,5.4135 3.726,5.562 L4.023,6.6825 C4.05,6.804 3.9825,6.9525 3.8475,6.993 C3.8475,6.993 2.889,7.29 2.214,7.29 C1.188,7.29 0.594,6.642 0.594,5.4135 L0.594,3.4695 L0.243,3.4695 C0.108,3.4695 0,3.348 0,3.213 L0,2.0115 C0,1.863 0.108,1.755 0.243,1.755 L0.594,1.755 L0.594,0.2565 C0.594,0.1215 0.7155,0 0.8505,0 Z"></path></clipPath><clipPath id="i10"><path d="M2.7945,0 C4.1715,0 5.3595,1.053 5.3595,2.538 C5.3595,2.6325 5.346,2.808 5.3325,2.9025 C5.319,3.0375 5.1975,3.132 5.076,3.132 L1.836,3.132 C1.8765,3.4965 2.1735,4.023 2.8755,4.023 C3.213,4.023 3.6045,3.861 3.8205,3.699 C3.942,3.6045 4.077,3.6045 4.158,3.699 L4.833,4.509 C4.914,4.617 4.941,4.779 4.8195,4.9005 C4.347,5.373 3.672,5.67 2.8215,5.67 C1.215,5.67 0,4.3875 0,2.835 C0,1.3095 1.2015,0 2.7945,0 Z M2.7405,1.4445 C2.376,1.4445 2.0655,1.728 2.0115,2.079 L3.456,2.079 C3.429,1.728 3.0915,1.4445 2.7405,1.4445 Z"></path></clipPath><clipPath id="i11"><path d="M2.4975,0 C4.1715,0 4.779,0.702 4.779,2.295 L4.779,5.2785 C4.779,5.4135 4.6575,5.535 4.5225,5.535 L3.9285,5.535 C3.8475,5.535 3.753,5.508 3.6855,5.3595 L3.4965,4.995 C3.186,5.2785 2.7135,5.67 1.863,5.67 C0.7965,5.67 0,4.9545 0,3.888 C0,2.8485 0.756,2.079 1.9845,2.079 C2.592,2.079 3.024,2.295 3.024,2.295 C3.024,1.7685 2.943,1.4985 2.295,1.4985 C1.9305,1.4985 1.296,1.593 0.945,1.701 C0.7425,1.7685 0.648,1.62 0.621,1.4175 L0.4995,0.567 C0.459,0.3375 0.5805,0.243 0.702,0.2025 C0.8235,0.162 1.7685,0 2.4975,0 Z M2.3355,3.186 C2.0115,3.186 1.755,3.4425 1.755,3.753 C1.755,4.077 2.0115,4.347 2.3355,4.347 C2.6595,4.347 2.9295,4.077 2.9295,3.753 C2.916,3.4425 2.6595,3.186 2.3355,3.186 Z"></path></clipPath><clipPath id="i12"><path d="M6.7905,0 C8.4645,0 9.288,1.296 9.288,2.835 L9.288,5.2785 C9.288,5.4135 9.18,5.535 9.0315,5.535 L7.6005,5.535 C7.452,5.535 7.344,5.4135 7.344,5.2785 L7.344,2.754 C7.344,2.214 7.0605,1.7415 6.4395,1.7415 C5.967,1.7415 5.535,2.133 5.535,2.6595 L5.535,5.2785 C5.535,5.4135 5.427,5.535 5.2785,5.535 L3.9825,5.535 C3.834,5.535 3.726,5.4135 3.726,5.2785 L3.726,2.754 C3.726,2.214 3.483,1.7415 2.8755,1.7415 C2.3355,1.7415 1.9305,2.133 1.9305,2.6865 L1.9305,5.2785 C1.9305,5.4135 1.809,5.535 1.674,5.535 L0.2565,5.535 C0.108,5.535 0,5.4135 0,5.2785 L0,0.3915 C0,0.243 0.108,0.135 0.2565,0.135 L0.8775,0.135 C0.972,0.135 1.0665,0.2025 1.107,0.2835 L1.3365,0.837 C1.674,0.486 2.295,0 3.159,0 C3.915,0 4.4415,0.2835 4.9275,0.8235 C5.238,0.513 5.8725,0 6.7905,0 Z"></path></clipPath><clipPath id="i13"><path d="M2.7945,0 C4.1715,0 5.3595,1.053 5.3595,2.538 C5.3595,2.6325 5.346,2.808 5.3325,2.9025 C5.319,3.0375 5.1975,3.132 5.076,3.132 L1.836,3.132 C1.8765,3.4965 2.1735,4.023 2.8755,4.023 C3.213,4.023 3.6045,3.861 3.8205,3.699 C3.942,3.6045 4.077,3.6045 4.158,3.699 L4.833,4.509 C4.914,4.617 4.941,4.779 4.8195,4.9005 C4.347,5.373 3.672,5.67 2.8215,5.67 C1.215,5.67 0,4.3875 0,2.835 C0,1.3095 1.2015,0 2.7945,0 Z M2.7405,1.4445 C2.376,1.4445 2.0655,1.728 2.0115,2.079 L3.456,2.079 C3.429,1.728 3.0915,1.4445 2.7405,1.4445 Z"></path></clipPath><clipPath id="i14"><path d="M2.8485,0 C3.591,0 4.1175,0.27 3.9285,0.5805 L3.267,1.6605 C3.213,1.755 3.1185,1.836 2.97,1.782 C2.9025,1.755 2.7675,1.7145 2.646,1.7145 C2.241,1.7145 1.9305,2.025 1.9305,2.484 L1.9305,5.2785 C1.9305,5.4405 1.8495,5.535 1.6335,5.535 L0.2565,5.535 C0.1215,5.535 0,5.4135 0,5.2785 L0,0.3915 C0,0.243 0.1215,0.135 0.2565,0.135 L0.891,0.135 C1.0395,0.135 1.0935,0.216 1.134,0.297 L1.377,0.891 C1.647,0.4995 2.1465,0 2.8485,0 Z"></path></clipPath><clipPath id="i15"><path d="M2.106,0 C2.9565,0 3.6045,0.2295 3.9015,0.4185 C4.023,0.4995 4.1175,0.621 4.0365,0.756 L3.537,1.674 C3.4965,1.755 3.3615,1.7955 3.2535,1.755 C3.2535,1.755 2.6325,1.4445 2.106,1.4445 C1.9305,1.4445 1.809,1.485 1.809,1.6335 C1.809,1.7685 1.9575,1.9035 2.4165,2.0655 C3.51,2.4435 4.266,2.8755 4.266,3.9555 C4.266,4.9005 3.51,5.67 1.9845,5.67 C1.0935,5.67 0.4185,5.4405 0.1485,5.2245 C0.054,5.1435 -0.0135,5.0625 0.054,4.941 L0.5265,4.0095 C0.567,3.9285 0.702,3.8475 0.81,3.9015 C0.81,3.9015 0.813754438,3.90357692 0.820949932,3.90741124 L0.902908512,3.9489497 C1.09997041,4.04480769 1.57846154,4.2525 2.025,4.2525 C2.16,4.2525 2.2815,4.1715 2.2815,4.0095 C2.2815,3.8745 2.2005,3.6855 1.512,3.4425 C0.459,3.078 0,2.4705 0,1.6335 C0,0.729 0.648,0 2.106,0 Z"></path></clipPath></defs><g clip-path="url(#i0)"><polygon points="0,0 112,0 112,112 0,112 0,0" stroke="none" fill="#000000"></polygon></g><g transform="translate(18.591250000000002 22.420849999999977)"><g transform="translate(16.960937499999996 0.0)"><g transform="translate(13.57983749999767 0.0)"><g clip-path="url(#i1)"><polygon points="0,0 16.9785,0 16.9785,25.74495 0,25.74495 0,0" stroke="none" fill="#FFFFFF"></polygon></g></g><g transform="translate(0.0 32.26665000000003)"><g clip-path="url(#i2)"><polygon points="0,0 8.1675,0 8.1675,11.8125 0,11.8125 0,0" stroke="none" fill="#FFFFFF"></polygon></g></g><g transform="translate(8.649313188263477 32.09790000000021)"><g clip-path="url(#i3)"><polygon points="2.65759637e-15,0 11.3738736,0 11.3738736,11.98125 2.65759637e-15,11.98125 2.65759637e-15,0" stroke="none" fill="#FFFFFF"></polygon></g></g><g transform="translate(21.34874999999738 32.09790000000021)"><g clip-path="url(#i4)"><polygon points="0,0 10.2917337,0 10.2917337,12.15 0,12.15 0,0" stroke="none" fill="#FFFFFF"></polygon></g></g><g transform="translate(34.50374999999985 32.26665000000003)"><g clip-path="url(#i5)"><polygon points="0,0 9.70945273,0 9.70945273,11.8125 0,11.8125 0,0" stroke="none" fill="#FFFFFF"></polygon></g></g></g><g transform="translate(0.0 49.99414999999999)"><g transform="translate(0.0 0.25649999999996)"><g clip-path="url(#i6)"><polygon points="0,0 7.479,0 7.479,9.3285 0,9.3285 0,0" stroke="none" fill="#FFFFFF"></polygon></g></g><g transform="translate(9.22248223884526 0.4050000000002001)"><g clip-path="url(#i7)"><polygon points="-8.8817842e-16,0 6.14801776,0 6.14801776,9.315 -8.8817842e-16,9.315 -8.8817842e-16,0" stroke="none" fill="#FFFFFF"></polygon></g></g><g transform="translate(20.8125 0.0)"><g clip-path="url(#i8)"><polygon points="0,0 6.3585,0 6.3585,9.72 0,9.72 0,0" stroke="none" fill="#FFFFFF"></polygon></g></g><g transform="translate(28.54199999999764 2.4299999999998363)"><g clip-path="url(#i9)"><polygon points="0,0 4.02886694,0 4.02886694,7.29 0,7.29 0,0" stroke="none" fill="#FFFFFF"></polygon></g></g><g transform="translate(33.90899999999965 4.050000000000182)"><g clip-path="url(#i10)"><polygon points="0,0 5.3595,0 5.3595,5.67 0,5.67 0,0" stroke="none" fill="#FFFFFF"></polygon></g></g><g transform="translate(40.6260000000002 4.050000000000182)"><g clip-path="url(#i11)"><polygon points="0,0 4.779,0 4.779,5.67 0,5.67 0,0" stroke="none" fill="#FFFFFF"></polygon></g></g><g transform="translate(47.53199999999924 4.050000000000182)"><g clip-path="url(#i12)"><polygon points="0,0 9.288,0 9.288,5.535 0,5.535 0,0" stroke="none" fill="#FFFFFF"></polygon></g></g><g transform="translate(58.48799999999756 4.050000000000182)"><g clip-path="url(#i13)"><polygon points="0,0 5.3595,0 5.3595,5.67 0,5.67 0,0" stroke="none" fill="#FFFFFF"></polygon></g></g><g transform="translate(65.56949999999779 4.050000000000182)"><g clip-path="url(#i14)"><polygon points="0,0 3.96718202,0 3.96718202,5.535 0,5.535 0,0" stroke="none" fill="#FFFFFF"></polygon></g></g><g transform="translate(70.6394999999975 4.050000000000182)"><g clip-path="url(#i15)"><polygon points="0,0 4.266,0 4.266,5.67 0,5.67 0,0" stroke="none" fill="#FFFFFF"></polygon></g></g></g></g></svg>