<?xml version="1.0" encoding="UTF-8"?><svg version="1.1" width="45px" height="45px" viewBox="0 0 45.0 45.0" xmlns="http://www.w3.org/2000/svg" xmlns:xlink="http://www.w3.org/1999/xlink"><defs><clipPath id="i0"><path d="M8.61344509,4.53972912 L8.72218586,4.75824163 C9.31347598,6.04783879 9.47307395,8.15477649 8.98902048,9.2745098 C9.03714688,8.8105731 8.35807201,5.24059341 6.6150532,4.23157317 C5.88230982,3.8068871 5.12185587,3.44614685 4.2484754,3.28455546 C3.3751423,3.12484483 2.44439858,3.07786914 1.48963903,3.06471825 C0.656995477,3.05341445 -0.0109667365,2.35820687 0.000136440704,1.51268283 C0.011268039,0.667158794 0.695885018,-0.0111363852 1.52852857,0.000138551359 C1.64694983,0.00201931082 1.76166687,0.0170509562 1.87268917,0.0452334874 L1.89119131,0.0508709557 C2.90146674,0.312060825 3.93580538,0.612688922 4.95347031,1.06739499 C5.4604554,1.29476967 5.96374575,1.56533929 6.43743078,1.89603548 C7.38854296,2.55930383 8.1601143,3.45745065 8.61344509,4.53972912 Z"></path></clipPath><clipPath id="i1"><path d="M19.6218322,0.0304390169 C20.4103751,-0.13468936 21.1826307,0.388478371 21.3450232,1.20101257 C21.8412172,3.684872 21.3070996,5.1596769 20.0801488,7.16881006 L20.0584986,7.20220617 L10.2842803,22.2769975 L7.87181292,25.9983937 L6.74948692,27.7292259 C5.32040936,29.9886399 5.35469303,31.8159752 5.77691524,33.1052778 C5.86532665,33.376132 5.96998377,33.6228652 6.08365756,33.8454822 C6.34889178,34.36865 6.69171926,34.8268539 7.07244261,35.2090143 C7.87900039,36.0196963 8.84612142,36.494622 9.56787076,36.5168861 L9.60395592,36.5187383 L11.2549489,36.6133511 C11.8720734,35.0012479 13.355251,33.6154423 15.3202107,32.9012158 C16.6229625,32.4281565 18.0015153,32.3057135 19.3060686,32.5505946 C20.7910199,32.8300211 22.1389013,33.5831907 23.2034873,34.7278339 C23.7610381,35.3270832 23.7393741,36.2769157 23.1547687,36.8501396 C22.5719186,37.4233777 21.6480794,37.4011041 21.0905425,36.8000502 C19.2806492,34.8484293 16.9620438,35.4884645 16.2944315,35.7314886 C15.6160102,35.9782076 15.0205496,36.3640865 14.5875,36.8037545 L15.3561804,36.8482779 C15.4048991,36.8427119 15.4536177,36.8408597 15.5023364,36.8408597 C17.1353145,36.8408597 18.082573,37.5161431 18.5896221,38.0819583 C19.3601086,38.942744 19.7047468,40.1671256 19.5874608,41.6197025 C19.5225149,42.4025544 18.885574,42.9961997 18.1331532,42.9961997 C18.0934604,42.9961997 18.0519616,42.9943447 18.0104581,42.9906342 C17.2075033,42.9219613 16.6102736,42.1966217 16.6770348,41.3692226 C16.7239474,40.8015567 16.6355313,40.3322112 16.4406613,40.1151602 C16.2963115,39.9537599 16.0382693,39.8832634 15.7874609,39.857295 C15.7315224,39.8647132 15.6755886,39.8684223 15.6178486,39.8684223 C15.5907801,39.8684223 15.5619148,39.8684223 15.5348463,39.8665701 L9.45967996,39.5178011 C8.13346265,39.4695496 6.74590242,38.8499264 5.5748439,37.8574464 C4.47598341,39.5884211 3.20030011,41.2023755 1.75319845,42.6901931 C1.55831457,42.8905461 1.30210626,43 1.02784613,43 C0.753585997,43 0.495562338,42.8905461 0.302493811,42.6920453 C0.109425284,42.4916782 0.0029666785,42.2282611 0.0029666785,41.9462843 C0.0029666785,41.6643076 0.109425284,41.3990241 0.302493811,41.2005234 C1.78206842,39.6792726 3.05595024,38.0226223 4.12053629,36.2713686 C3.88775654,35.9430116 3.67845154,35.5979469 3.4944043,35.2361937 C2.6661825,33.6034317 1.66839001,30.2456314 4.30636654,26.0845577 C4.30997413,26.0808486 4.31178024,26.0752826 4.31538783,26.0715688 L8.18936878,20.094273 C8.0594308,17.4375915 7.56323678,14.7960124 6.69893906,12.258155 C5.3977116,8.43840365 3.2650289,4.85231111 0.300429031,1.80429867 C-0.10014301,1.39245131 -0.10014301,0.724619338 0.300429031,0.312776722 C0.495312902,0.114275981 0.751521216,0.00482203482 1.02578135,0.00482203482 C1.30004148,0.00482203482 1.55806514,0.114275981 1.75113366,0.312776722 C4.1059073,2.73342481 6.01132557,5.49401793 7.43135874,8.53642636 C7.68938702,9.09112853 7.93296646,9.65509157 8.15851255,10.2283155 C9.05888619,12.510288 9.67598766,14.8716665 10.0079924,17.2888952 L17.6171936,5.55134032 C18.6059925,3.92997628 18.7665789,3.22686278 18.4832928,1.80211406 C18.3226834,0.99138454 18.831534,0.197400571 19.6218322,0.0304390169 Z"></path></clipPath><clipPath id="i2"><path d="M1.10041101,0 C1.39462465,0 1.67142055,0.106016494 1.87853558,0.298283226 C4.28822926,2.53572942 6.1541822,5.14283264 7.42396773,8.04838469 C8.65123712,10.8549445 9.2745098,13.8195607 9.2745098,16.8634811 C9.2745098,19.9036295 8.65316968,22.8685217 7.42594983,25.6752655 C6.15438041,28.5810935 4.28842747,31.1900828 1.87853558,33.427207 C1.66947314,33.6194737 1.39462465,33.7254902 1.10041101,33.7254902 C0.806197364,33.7254902 0.529401461,33.6194737 0.322286434,33.427207 C-0.107428811,33.0282939 -0.107428811,32.3814355 0.322286434,31.982527 C9.30171418,23.6450039 9.30171418,10.0804863 0.322286434,1.74296323 C0.115171406,1.54888869 0.000967514634,1.29374438 0.000967514634,1.02062323 C0.000967514634,0.74750207 0.115171406,0.490549958 0.322286434,0.298283226 C0.531348879,0.106016494 0.806197364,0 1.10041101,0 Z"></path></clipPath><clipPath id="i3"><path d="M1.27478309,0.00655985814 C1.53137604,0.0326910862 1.76789035,0.136242158 1.95261295,0.305526984 C5.58622299,3.60451059 7.58823529,7.98765996 7.58823529,12.6471056 C7.58823529,17.3065045 5.58813075,21.6897943 1.95467539,24.9905569 C1.73713934,25.1862254 1.45115084,25.2941176 1.14501228,25.2941176 C0.838873729,25.2941176 0.550858882,25.1862254 0.335349177,24.9905569 C-0.109767022,24.5845857 -0.109767022,23.9262824 0.335349177,23.5203159 C6.93774114,17.5243769 6.93774114,7.7683363 0.335349177,1.77380174 C-0.111783059,1.3678306 -0.111783059,0.709527249 0.335349177,0.303560796 C0.552885231,0.107892259 0.838868573,0 1.14501228,0 L1.145,0 Z"></path></clipPath></defs><g transform="translate(1.0 1.0)"><g transform="translate(33.72549019607843 25.294117647058805)"><g clip-path="url(#i0)"><polygon points="-6.97114892e-15,3.49468176e-15 9.2745098,3.49468176e-15 9.2745098,9.2745098 -6.97114892e-15,9.2745098 -6.97114892e-15,3.49468176e-15" stroke="none" fill="#FFFFFF"></polygon></g><path d="M8.61344509,4.53972912 C8.83178547,5.0601848 8.34699726,4.04558482 8.61344509,4.53972912 C8.1601143,3.45745065 7.38854296,2.55930383 6.43743078,1.89603548 C5.96374575,1.56533929 5.4604554,1.29476967 4.95347031,1.06739499 C3.93580538,0.612688922 2.90146674,0.312060825 1.89119131,0.0508709557 L1.87268917,0.0452334874 C1.76166687,0.0170509562 1.64694983,0.00201931082 1.52852857,0.000138551359 C0.695885018,-0.0111363852 0.011268039,0.667158794 0.000136440704,1.51268283 C-0.0109667365,2.35820687 0.656995477,3.05341445 1.48963903,3.06471825 C2.44439858,3.07786914 3.3751423,3.12484483 4.2484754,3.28455546 C5.12185587,3.44614685 5.88230982,3.8068871 6.6150532,4.23157317 C8.35807201,5.24059341 9.03714688,8.8105731 8.98902048,9.2745098 C9.50154769,8.08890982 9.29247259,5.79654783 8.61340246,4.53951747 L8.61344509,4.53972912 Z" stroke="#000000" stroke-width="0.5" fill="none" stroke-miterlimit="10"></path></g><g transform="translate(15.17647058823529 0.0)"><g clip-path="url(#i1)"><polygon points="3.49720253e-15,5.99520433e-15 23.6078431,5.99520433e-15 23.6078431,43 3.49720253e-15,43 3.49720253e-15,5.99520433e-15" stroke="none" fill="#FFFFFF"></polygon></g><path d="M19.3060686,32.5505946 C18.0015153,32.3057135 16.6229625,32.4281565 15.3202107,32.9012158 C13.355251,33.6154423 11.8720734,35.0012479 11.2549489,36.6133511 L9.60395592,36.5187383 C9.59132704,36.5187383 9.58049964,36.5168861 9.56787076,36.5168861 C8.84612142,36.494622 7.87900039,36.0196963 7.07244261,35.2090143 C6.69171926,34.8268539 6.34889178,34.36865 6.08365756,33.8454822 C5.96998377,33.6228652 5.86532665,33.376132 5.77691524,33.1052778 C5.35469303,31.8159752 5.32040936,29.9886399 6.74948692,27.7292259 L7.87181292,25.9983937 L10.2842803,22.2769975 L20.0584986,7.20220617 C20.0657138,7.19107413 20.0729336,7.1799421 20.0801488,7.16881006 C21.3070996,5.1596769 21.8412172,3.684872 21.3450232,1.20101257 C21.1826307,0.388478371 20.4103751,-0.13468936 19.6218322,0.0304390169 C18.831534,0.197400571 18.3226834,0.99138454 18.4832928,1.80211406 C18.7665789,3.22686278 18.6059925,3.92997628 17.6171936,5.55134032 L10.0079924,17.2888952 C9.67598766,14.8716665 9.05888619,12.510288 8.15851255,10.2283155 C7.93296646,9.65509157 7.68938702,9.09112853 7.43135874,8.53642636 C6.01132557,5.49401793 4.1059073,2.73342481 1.75113366,0.312776722 C1.55806514,0.114275981 1.30004148,0.00482203482 1.02578135,0.00482203482 C0.751521216,0.00482203482 0.495312902,0.114275981 0.300429031,0.312776722 C-0.10014301,0.724619338 -0.10014301,1.39245131 0.300429031,1.80429867 C3.2650289,4.85231111 5.3977116,8.43840365 6.69893906,12.258155 C7.56323678,14.7960124 8.0594308,17.4375915 8.18936878,20.094273 L4.31538783,26.0715688 C4.31178024,26.0752826 4.30997413,26.0808486 4.30636654,26.0845577 C1.66839001,30.2456314 2.6661825,33.6034317 3.4944043,35.2361937 C3.67845154,35.5979469 3.88775654,35.9430116 4.12053629,36.2713686 C3.05595024,38.0226223 1.78206842,39.6792726 0.302493811,41.2005234 C0.109425284,41.3990241 0.0029666785,41.6643076 0.0029666785,41.9462843 C0.0029666785,42.2282611 0.109425284,42.4916782 0.302493811,42.6920453 C0.495562338,42.8905461 0.753585997,43 1.02784613,43 C1.30210626,43 1.55831457,42.8905461 1.75319845,42.6901931 C3.20030011,41.2023755 4.47598341,39.5884211 5.5748439,37.8574464 C6.74590242,38.8499264 8.13346265,39.4695496 9.45967996,39.5178011 L15.5348463,39.8665701 C15.5619148,39.8684223 15.5907801,39.8684223 15.6178486,39.8684223 C15.6755886,39.8684223 15.7315224,39.8647132 15.7874609,39.857295 C16.0382693,39.8832634 16.2963115,39.9537599 16.4406613,40.1151602 C16.6355313,40.3322112 16.7239474,40.8015567 16.6770348,41.3692226 C16.6102736,42.1966217 17.2075033,42.9219613 18.0104581,42.9906342 C18.0519616,42.9943447 18.0934604,42.9961997 18.1331532,42.9961997 C18.885574,42.9961997 19.5225149,42.4025544 19.5874608,41.6197025 C19.7047468,40.1671256 19.3601086,38.942744 18.5896221,38.0819583 C18.082573,37.5161431 17.1353145,36.8408597 15.5023364,36.8408597 C15.4536177,36.8408597 15.4048991,36.8427119 15.3561804,36.8482779 L14.5875,36.8037545 C15.0205496,36.3640865 15.6160102,35.9782076 16.2944315,35.7314886 C16.9620438,35.4884645 19.2806492,34.8484293 21.0905425,36.8000502 C21.6480794,37.4011041 22.5719186,37.4233777 23.1547687,36.8501396 C23.7393741,36.2769157 23.7610381,35.3270832 23.2034873,34.7278339 C22.1389013,33.5831907 20.7910199,32.8300211 19.3060409,32.5517677 L19.3060686,32.5505946 Z" stroke="#000000" stroke-width="0.5" fill="none" stroke-miterlimit="10"></path></g><g transform="translate(7.588235294117645 4.215686274509803)"><g clip-path="url(#i2)"><polygon points="-3.49720253e-15,0 9.2745098,0 9.2745098,33.7254902 -3.49720253e-15,33.7254902 -3.49720253e-15,0" stroke="none" fill="#FFFFFF"></polygon></g><path d="M7.42396773,8.04838469 C6.1541822,5.14283264 4.28822926,2.53572942 1.87853558,0.298283226 C1.67142055,0.106016494 1.39462465,0 1.10041101,0 C0.806197364,0 0.531348879,0.106016494 0.322286434,0.298283226 C0.115171406,0.490549958 0.000967514634,0.74750207 0.000967514634,1.02062323 C0.000967514634,1.29374438 0.115171406,1.54888869 0.322286434,1.74296323 C9.30171418,10.0804863 9.30171418,23.6450039 0.322286434,31.982527 C-0.107428811,32.3814355 -0.107428811,33.0282939 0.322286434,33.427207 C0.529401461,33.6194737 0.806197364,33.7254902 1.10041101,33.7254902 C1.39462465,33.7254902 1.66947314,33.6194737 1.87853558,33.427207 C4.28842747,31.1900828 6.15438041,28.5810935 7.42594983,25.6752655 C8.65316968,22.8685217 9.2745098,19.9036295 9.2745098,16.8634811 C9.2745098,13.8195607 8.65123712,10.8549445 7.42401728,8.04801669 L7.42396773,8.04838469 Z" stroke="#000000" stroke-width="0.5" fill="none" stroke-miterlimit="10"></path></g><g transform="translate(0.0 9.274509803921562)"><g clip-path="url(#i3)"><polygon points="-4.4408921e-16,0 7.58823529,0 7.58823529,25.2941176 -4.4408921e-16,25.2941176 -4.4408921e-16,0" stroke="none" fill="#FFFFFF"></polygon></g><path d="M1.14501228,0 C0.838868573,0 0.552885231,0.107892259 0.335349177,0.303560796 C-0.111783059,0.709527249 -0.111783059,1.3678306 0.335349177,1.77380174 C6.93774114,7.7683363 6.93774114,17.5243769 0.335349177,23.5203159 C-0.109767022,23.9262824 -0.109767022,24.5845857 0.335349177,24.9905569 C0.550858882,25.1862254 0.838873729,25.2941176 1.14501228,25.2941176 C1.45115084,25.2941176 1.73713934,25.1862254 1.95467539,24.9905569 C5.58813075,21.6897943 7.58823529,17.3065045 7.58823529,12.6471056 C7.58823529,7.98765996 5.58622299,3.60451059 1.95261295,0.305526984 C1.73710325,0.10802802 1.45109928,0 1.14496021,0 L1.14501228,0 Z" stroke="#000000" stroke-width="0.5" fill="none" stroke-miterlimit="10"></path></g></g></svg>