<?xml version="1.0" encoding="UTF-8"?><svg version="1.1" width="47px" height="47px" viewBox="0 0 47.0 47.0" xmlns="http://www.w3.org/2000/svg" xmlns:xlink="http://www.w3.org/1999/xlink"><defs><clipPath id="i0"><path d="M22.9581922,0.00517138325 C28.7575583,0.129558656 34.2925412,2.48728464 38.4025353,6.59743819 C42.6206872,10.8157537 44.9932988,16.5346771 45,22.5000903 C45,28.4673093 42.6295356,34.190386 38.4099391,38.4099655 C34.1907038,42.6295451 28.4672429,45 22.5,45 C16.5327571,45 10.8096574,42.6295451 6.59006092,38.4099655 C2.37046445,34.1907472 0,28.4673093 0,22.5000903 C0,16.5328713 2.37046445,10.8097946 6.59006092,6.59021505 C10.8092962,2.37063552 16.5323959,0 22.5,0 L22.499,0 Z M22.5,1.51741024 C16.9354489,1.51741024 11.5977054,3.72823372 7.66270195,7.66304084 C3.72769846,11.597848 1.51704669,16.9357506 1.51704669,22.5002794 C1.51704669,28.0648081 3.72787904,33.4025302 7.66270195,37.3375179 C11.5975249,41.2725056 16.9348169,43.4835011 22.5,43.4835011 L22.9505988,43.4777414 C28.3501247,43.3561403 33.5029187,41.1578772 37.3301652,37.3302947 C41.2641755,33.3972934 43.4769574,28.0632732 43.4829533,22.5002794 C43.4829533,16.9357506 41.272121,11.5980285 37.3372981,7.66304084 C33.4024751,3.72805314 28.0645511,1.51741024 22.5,1.51741024 Z"></path></clipPath><clipPath id="i1"><path d="M0.75828859,0 C1.17728674,0 1.51657718,0.33964121 1.51657718,0.758285547 L1.51657718,14.449753 L11.1998244,24.1331467 C11.4872742,24.4304241 11.4833917,24.9037386 11.1906546,25.1961224 C10.8983148,25.4888548 10.4249984,25.4927372 10.1276746,25.2052922 L0.222900043,15.3014603 C0.15166151,15.2302221 0.0955808032,15.1455759 0.057489406,15.0521084 L0.0539625117,15.0411749 C0.0186926661,14.9530074 0.000352761659,14.8588357 0,14.7639597 L0,0.758285547 C0,0.33964121 0.339290444,0 0.75828859,0 Z"></path></clipPath></defs><g transform="translate(1.0 1.0)"><g clip-path="url(#i0)"><polygon points="0,0 45,0 45,45 0,45 0,0" stroke="none" fill="#FFFFFF"></polygon></g><path d="M22.5,0 C16.5323959,0 10.8092962,2.37063552 6.59006092,6.59021505 C2.37046445,10.8097946 0,16.5328713 0,22.5000903 C0,28.4673093 2.37046445,34.1907472 6.59006092,38.4099655 C10.8096574,42.6295451 16.5327571,45 22.5,45 C28.4672429,45 34.1907038,42.6295451 38.4099391,38.4099655 C42.6295356,34.190386 45,28.4673093 45,22.5000903 C44.9932988,16.5346771 42.6206872,10.8157537 38.4025353,6.59743819 C34.1843835,2.37912271 28.4652565,0.00668140723 22.4998194,0 L22.5,0 Z M22.5,43.4835011 L22.5,43.4835011 C16.9348169,43.4835011 11.5975249,41.2725056 7.66270195,37.3375179 C3.72787904,33.4025302 1.51704669,28.0648081 1.51704669,22.5002794 C1.51704669,16.9357506 3.72769846,11.597848 7.66270195,7.66304084 C11.5977054,3.72823372 16.9354489,1.51741024 22.5,1.51741024 C28.0645511,1.51741024 33.4024751,3.72805314 37.3372981,7.66304084 C41.272121,11.5980285 43.4829533,16.9357506 43.4829533,22.5002794 C43.4769574,28.0632732 41.2641755,33.3972934 37.3301652,37.3302947 C33.3966063,41.264199 28.0628356,43.4770088 22.5000903,43.4830582 L22.5,43.4835011 Z" stroke="#FFFFFF" stroke-width="0.25" fill="none" stroke-miterlimit="10"></path><g transform="translate(21.7418558736424 7.736220851608573)"><g clip-path="url(#i1)"><polygon points="0,0 11.4128371,0 11.4128371,25.4183013 0,25.4183013 0,0" stroke="none" fill="#FFFFFF"></polygon></g><path d="M1.51657718,14.449753 L1.51657718,0.758285547 C1.51657718,0.33964121 1.17728674,0 0.75828859,0 C0.339290444,0 0,0.33964121 0,0.758285547 L0,14.7639597 C0.000352761659,14.8588357 0.0186926661,14.9530074 0.0539625117,15.0411749 L0.057489406,15.0524611 L0.057489406,15.0521084 C0.0955808032,15.1455759 0.15166151,15.2302221 0.222900043,15.3014603 L10.1276746,25.2052922 C10.4249984,25.4927372 10.8983148,25.4888548 11.1906546,25.1961224 C11.4833917,24.9037386 11.4872742,24.4304241 11.1998244,24.1331467 L1.51657718,14.449753 Z" stroke="#FFFFFF" stroke-width="0.25" fill="none" stroke-miterlimit="10"></path></g></g></svg>