<?xml version="1.0" encoding="UTF-8"?><svg version="1.1" width="151px" height="34px" viewBox="0 0 151.0 34.0" xmlns="http://www.w3.org/2000/svg" xmlns:xlink="http://www.w3.org/1999/xlink"><defs><clipPath id="i0"><path d="M149,0 C150.104569,-2.02906125e-16 151,0.8954305 151,2 L151,32 C151,33.1045695 150.104569,34 149,34 L2,34 C0.8954305,34 1.91162759e-15,33.1045695 0,32 L0,2 C-1.3527075e-16,0.8954305 0.8954305,6.46995335e-16 2,0 L149,0 Z"></path></clipPath><clipPath id="i1"><path d="M112,0 L112,25.0354108 L0,25.0354108 L0,0 L112,0 Z"></path></clipPath><clipPath id="i2"><path d="M93,0 L93,11 L0,11 L0,0 L93,0 Z"></path></clipPath><clipPath id="i3"><path d="M13.1781119,0.168166748 C13.9740339,-0.220463639 14.9219975,0.0863090918 15.3371309,0.866486975 L16.3471556,2.76504881 C16.4242015,2.91178536 16.568963,3.01666675 16.7328693,3.04503772 L18.8591931,3.41665362 C19.7302961,3.56828377 20.3168074,4.37108413 20.1930617,5.24359745 L19.8918654,7.37237278 C19.8685125,7.53678463 19.9236162,7.70491728 20.0391911,7.82421514 L21.5395878,9.37108672 C22.1538593,10.0045161 22.1538593,10.9961547 21.5372529,11.6279767 L20.03686,13.1748781 C19.9196539,13.2958012 19.8661862,13.4609096 19.8895343,13.6267204 L20.1900253,15.7562102 C20.3138128,16.628783 19.728228,17.4315298 18.8561567,17.583154 L16.7307295,17.9547699 C16.5651914,17.9838398 16.4236994,18.0854623 16.3450158,18.2347588 L15.3349911,20.1333206 C15.0421688,20.6842375 14.4815925,20.9993449 13.8974183,20.9993449 C13.6557846,20.9993449 13.409692,20.9451581 13.1762112,20.8319088 L11.2380492,19.8868249 C11.0883864,19.8135697 10.9102364,19.8135697 10.7603406,19.8868249 L8.82217859,20.8319088 C8.02625664,21.2205391 7.07829303,20.9137664 6.6631596,20.1335885 L5.65313488,18.2350267 C5.57608897,18.0882901 5.43132753,17.9834088 5.26742116,17.9550378 L3.14109738,17.5834219 C2.26999439,17.4317917 1.68348312,16.6289914 1.80722878,15.7564781 L2.1084251,13.6277027 C2.13177797,13.4632909 2.0766743,13.2951582 1.96109945,13.1758604 L0.460706475,11.6287209 C-0.153568825,10.9961844 -0.153568825,10.0034148 0.460706475,9.37087835 L1.96109945,7.82397701 C2.07830547,7.7030539 2.13177318,7.53794552 2.1084251,7.37213465 L1.80793408,5.24264492 C1.68414658,4.37007207 2.2697314,3.56732529 3.14180268,3.41570109 L5.26722989,3.04408519 C5.43276803,3.01501531 5.57425995,2.91339275 5.65294361,2.76409629 L6.66553852,0.866248844 C7.08065402,0.0863031385 8.02791829,-0.220427919 8.82455751,0.167928617 L10.7622413,1.1132506 C10.9119041,1.18650576 11.0900541,1.18650576 11.2399499,1.1132506 Z M14.3749057,1.37330642 C14.2369224,1.11331817 13.92055,1.01076333 13.6553124,1.14075924 L11.7173895,2.08465244 C11.2688616,2.3039491 10.7316262,2.3039491 10.2831042,2.08558264 L8.34494221,1.14049878 C8.0797106,1.01236625 7.7633382,1.11398881 7.62534891,1.37398063 L6.61622077,3.27182808 C6.37850812,3.71764571 5.95684163,4.02368023 5.45718483,4.11112207 L3.32990469,4.48273797 C3.03944937,4.5336445 2.843791,4.80107793 2.88558467,5.09199707 L3.18607569,7.2207724 C3.25635543,7.72096733 3.09571859,8.21516135 2.74339342,8.57770445 L1.24300045,10.1237128 C1.03893337,10.3353163 1.03893337,10.665539 1.24300045,10.8771604 L2.74524635,12.4231688 C3.09663907,12.7856643 3.25727592,13.2798642 3.18699618,13.7791483 L2.88579985,15.9079236 C2.8447067,16.1995215 3.03966455,16.4662542 3.33011987,16.5171827 L5.45554708,16.8887986 C5.95494089,16.975538 6.37755177,17.2813642 6.61524051,17.7280926 L7.62526523,19.6270712 C7.76324854,19.8870595 8.07962094,19.9896143 8.34485853,19.8596184 L10.2830205,18.9152489 C10.507159,18.8061836 10.7532576,18.7510693 11.0000436,18.7510693 C11.2468297,18.7510693 11.4926892,18.8059526 11.7170667,18.9152489 L13.6552288,19.8603328 C13.9211657,19.989394 14.2368328,19.8868428 14.374822,19.6268509 L15.3839502,17.7290035 C15.6216628,17.2831859 16.0433293,16.9771513 16.5429861,16.8897095 L18.6702663,16.5180936 C18.9607216,16.4671871 19.15638,16.1997536 19.1145863,15.9088345 L18.8140953,13.7800592 C18.7438155,13.2798642 18.9044524,12.7856702 19.2567775,12.4231271 L20.7571855,10.8772006 C20.9614826,10.6655733 20.9614826,10.3353506 20.7553176,10.1228005 L19.2549246,8.57679211 C18.9035319,8.21429664 18.742895,7.72009667 18.8131748,7.22081259 L19.1143711,5.09203725 C19.1554643,4.80043944 18.9605064,4.53370672 18.6700511,4.48277816 L16.5446239,4.11116226 C16.0452301,4.02442291 15.6226192,3.71859675 15.3849304,3.27186826 Z"></path></clipPath><clipPath id="i4"><path d="M6.68643924,0.158716043 C6.89913139,-0.0529053476 7.24305264,-0.0529053476 7.45552363,0.158716043 C7.66730128,0.370325527 7.66730128,0.713800254 7.45646803,0.92472511 L0.929382032,7.42571136 C0.822916413,7.53152444 0.684221813,7.58408063 0.544367639,7.58408063 C0.404513465,7.58408063 0.265585754,7.53151908 0.159353246,7.42571136 C-0.0531177486,7.2138697 -0.0531177486,6.87132369 0.159353246,6.6597023 Z"></path></clipPath><clipPath id="i5"><path d="M2.1772494,0 C3.37710951,0 4.35378154,0.971814099 4.35378154,2.16782888 C4.35378154,3.36384366 3.37639225,4.33565776 2.17653214,4.33565776 C0.976672026,4.33565776 0,3.36289113 0,2.16782888 C0,0.972528493 0.977389288,0 2.1772494,0 Z M2.17653214,1.08343818 C1.57647058,1.08343818 1.08778789,1.57017869 1.08778789,2.16782888 C1.08778789,2.76618751 1.57648254,3.25198698 2.17653214,3.25221958 C2.77659369,3.25221958 3.26527638,2.76549098 3.26527638,2.16782888 C3.26527638,1.57016678 2.77659369,1.08343818 2.17653214,1.08343818 Z"></path></clipPath><clipPath id="i6"><path d="M2.17653214,0 C3.37663134,0 4.35306428,0.972528493 4.35306428,2.16782888 C4.35306428,3.36289113 3.37639225,4.33565776 2.17653214,4.33565776 C0.976672026,4.33565776 0,3.36289113 0,2.16782888 C0,0.972766624 0.975715676,0 2.17653214,0 Z M2.17653214,1.08415257 C1.57647058,1.08415257 1.08778789,1.57088117 1.08778789,2.16854327 C1.08778789,2.76620537 1.57648254,3.25293397 2.17653214,3.25293397 C2.77659369,3.25293397 3.26527638,2.76620537 3.26527638,2.16854327 C3.26527638,1.57088117 2.77659369,1.08415257 2.17653214,1.08415257 Z"></path></clipPath></defs><g clip-path="url(#i0)"><polygon points="0,0 151,0 151,34 0,34 0,0" stroke="none" fill="#DDFF8E"></polygon></g><g transform="translate(35.0 8.566572237960033)"><g clip-path="url(#i1)"><path d="M1.326,16.753 C1.326,16.883 1.43,17 1.573,17 L4.537,17 C6.214,17 7.371,15.947 7.371,14.491 C7.371,13.295 6.5,12.658 5.811,12.372 C6.422,12.021 7.085,11.293 7.085,10.292 C7.085,8.927 6.006,7.9 4.42,7.9 L1.573,7.9 C1.43,7.9 1.326,8.017 1.326,8.147 Z M2.301,11.982 L2.301,8.797 L4.42,8.797 C5.421,8.797 5.98,9.421 5.98,10.357 C5.98,11.267 5.421,11.982 4.42,11.982 Z M2.275,16.129 L2.275,12.879 L4.42,12.879 C5.434,12.879 6.279,13.555 6.279,14.478 C6.279,15.414 5.59,16.129 4.641,16.129 Z" stroke="none" fill="#000000"></path><path d="M8.814,14.777 C8.814,16.155 9.321,17.13 10.829,17.13 C11.908,17.13 12.519,16.441 12.519,16.441 L12.61,16.779 C12.649,16.909 12.701,17 12.844,17 L13.091,17 C13.221,17 13.338,16.883 13.338,16.753 L13.338,12.047 C13.338,11.917 13.221,11.8 13.091,11.8 L12.688,11.8 C12.558,11.8 12.441,11.917 12.441,12.047 C12.441,14.933 12.441,15.232 12.441,15.518 C12.441,15.518 11.882,16.259 10.894,16.259 C10.166,16.259 9.724,15.778 9.724,14.79 L9.724,12.047 C9.724,11.917 9.607,11.8 9.477,11.8 L9.061,11.8 C8.931,11.8 8.814,11.917 8.814,12.047 Z" stroke="none" fill="#000000"></path><path d="M16.861,16.987 L15.197,20.575 C15.106,20.757 15.21,20.9 15.405,20.9 L15.886,20.9 C15.977,20.9 16.068,20.822 16.107,20.744 L20.098,12.099 C20.189,11.93 20.098,11.8 19.903,11.8 L19.409,11.8 C19.318,11.8 19.227,11.865 19.188,11.943 L17.368,15.921 L17.355,15.921 L15.431,11.943 C15.392,11.865 15.314,11.8 15.21,11.8 L14.638,11.8 C14.443,11.8 14.365,11.917 14.443,12.086 Z" stroke="none" fill="#000000"></path><path d="M23.751,16.753 C23.751,16.883 23.855,17 23.998,17 L28.938,17 C29.068,17 29.185,16.883 29.185,16.753 L29.185,16.402 C29.185,16.272 29.068,16.155 28.938,16.155 L25.116,16.155 C25.948,15.271 26.78,14.374 27.612,13.49 C28.509,12.528 29.237,11.683 29.237,10.539 C29.237,9.213 28.288,8.03 26.429,8.03 C24.882,8.03 23.959,9.304 23.959,9.304 C23.868,9.408 23.894,9.551 23.972,9.642 L24.232,9.889 C24.336,9.993 24.479,9.993 24.583,9.889 C24.986,9.46 25.623,8.914 26.429,8.914 C27.768,8.914 28.249,9.824 28.249,10.565 C28.249,11.176 27.82,11.956 26.936,12.918 C25.87,14.062 24.817,15.219 23.751,16.363 Z" stroke="none" fill="#000000"></path><path d="M30.667,16.389 C30.667,16.792 31.005,17.13 31.408,17.13 C31.46,17.13 31.512,17.13 31.564,17.117 C31.564,18.066 30.888,18.638 30.758,18.755 C30.628,18.872 30.615,19.002 30.68,19.067 L30.862,19.249 C30.94,19.327 31.044,19.34 31.174,19.223 C31.59,18.833 32.266,17.897 32.266,16.818 C32.266,15.882 31.824,15.648 31.408,15.648 C31.005,15.648 30.667,15.973 30.667,16.389 Z" stroke="none" fill="#000000"></path><path d="M36.53,12.463 C36.53,15.063 38.623,17.13 41.223,17.13 C43.108,17.13 44.434,16.272 44.434,16.272 C44.486,16.233 44.538,16.129 44.538,16.064 L44.538,13.087 C44.538,12.957 44.434,12.84 44.304,12.84 L42.055,12.84 C41.912,12.84 41.808,12.944 41.808,13.087 L41.808,13.568 C41.808,13.698 41.912,13.802 42.055,13.802 L43.55,13.802 L43.55,15.622 C43.55,15.622 42.64,16.168 41.21,16.168 C39.156,16.168 37.596,14.413 37.596,12.411 C37.596,10.396 39.156,8.68 41.21,8.68 C42.081,8.68 43.017,9.109 43.68,9.694 C43.823,9.824 43.901,9.837 44.018,9.707 C44.122,9.59 44.265,9.46 44.382,9.343 C44.486,9.239 44.473,9.083 44.369,8.979 C43.485,8.225 42.536,7.77 41.223,7.77 C38.623,7.77 36.53,9.863 36.53,12.463 Z" stroke="none" fill="#000000"></path><path d="M45.851,14.4 C45.851,15.895 46.826,17.13 48.399,17.13 C49.296,17.13 49.998,16.779 50.31,16.532 C50.505,16.389 50.453,16.311 50.362,16.194 C50.284,16.09 50.219,15.999 50.141,15.895 C50.037,15.752 49.959,15.817 49.777,15.921 C49.478,16.103 49.036,16.311 48.49,16.311 C47.567,16.311 46.8,15.492 46.748,14.621 L50.492,14.621 C50.609,14.621 50.713,14.53 50.726,14.4 C50.739,14.309 50.752,14.14 50.752,14.049 C50.752,12.684 49.764,11.67 48.399,11.67 C46.826,11.67 45.851,12.931 45.851,14.4 Z M46.761,13.893 C46.852,13.087 47.528,12.463 48.399,12.463 C49.192,12.463 49.816,13.139 49.855,13.893 Z" stroke="none" fill="#000000"></path><path d="M52.507,15.7 C52.507,16.506 52.663,17.13 53.703,17.13 C54.314,17.13 55.016,16.805 55.198,16.688 C55.341,16.597 55.38,16.519 55.289,16.363 L55.094,16.038 C55.029,15.934 54.977,15.856 54.782,15.96 C54.613,16.051 54.158,16.246 53.833,16.246 C53.534,16.246 53.404,16.142 53.404,15.622 L53.404,12.58 L54.912,12.58 C55.055,12.58 55.159,12.463 55.159,12.333 L55.159,12.047 C55.159,11.904 55.055,11.8 54.912,11.8 L53.404,11.8 L53.404,10.331 C53.404,10.201 53.3,10.084 53.17,10.084 L52.754,10.11 C52.624,10.11 52.507,10.227 52.507,10.357 L52.507,11.8 L51.844,11.8 C51.701,11.8 51.597,11.904 51.597,12.047 L51.597,12.333 C51.597,12.463 51.701,12.58 51.844,12.58 L52.507,12.58 Z" stroke="none" fill="#000000"></path><path d="M60.411,16.753 C60.411,16.883 60.515,17 60.658,17 L61.776,17 C61.906,17 62.01,16.883 62.01,16.753 L62.01,8.407 C62.01,8.277 61.906,8.16 61.776,8.16 L60.866,8.16 L58.994,9.733 C58.942,9.785 58.916,9.863 58.929,9.967 L59.007,10.604 C59.02,10.721 59.15,10.799 59.267,10.773 L60.411,10.526 Z" stroke="none" fill="#000000"></path><path d="M67.275,16.753 C67.275,16.883 67.379,17 67.522,17 L68.718,17 C68.848,17 68.965,16.883 68.965,16.753 L68.965,13.464 L72.176,13.464 C72.306,13.464 72.423,13.347 72.423,13.217 L72.423,12.151 C72.423,12.021 72.306,11.904 72.176,11.904 L68.965,11.904 L68.965,9.46 L72.813,9.46 C72.956,9.46 73.06,9.343 73.06,9.213 L73.06,8.147 C73.06,8.017 72.956,7.9 72.813,7.9 L67.522,7.9 C67.379,7.9 67.275,8.017 67.275,8.147 Z" stroke="none" fill="#000000"></path><path d="M74.607,16.753 C74.607,16.883 74.711,17 74.854,17 L76.05,17 C76.18,17 76.297,16.883 76.297,16.753 L76.297,13.438 L77.74,13.438 L79.469,16.883 C79.495,16.935 79.56,17 79.677,17 L81.042,17 C81.263,17 81.354,16.792 81.263,16.623 L79.482,13.321 C80.613,12.866 81.406,11.891 81.406,10.695 C81.406,9.148 80.132,7.9 78.572,7.9 L74.854,7.9 C74.711,7.9 74.607,8.017 74.607,8.147 Z M76.31,12.047 L76.31,9.46 L78.429,9.46 C79.118,9.46 79.716,10.032 79.716,10.721 C79.716,11.449 79.118,12.047 78.429,12.047 Z" stroke="none" fill="#000000"></path><path d="M83.265,16.753 C83.265,16.883 83.369,17 83.512,17 L88.803,17 C88.946,17 89.05,16.883 89.05,16.753 L89.05,15.687 C89.05,15.557 88.946,15.44 88.803,15.44 L84.955,15.44 L84.955,13.165 L88.166,13.165 C88.296,13.165 88.413,13.061 88.413,12.918 L88.413,11.839 C88.413,11.709 88.296,11.592 88.166,11.592 L84.955,11.592 L84.955,9.46 L88.803,9.46 C88.946,9.46 89.05,9.343 89.05,9.213 L89.05,8.147 C89.05,8.017 88.946,7.9 88.803,7.9 L83.512,7.9 C83.369,7.9 83.265,8.017 83.265,8.147 Z" stroke="none" fill="#000000"></path><path d="M90.909,16.753 C90.909,16.883 91.013,17 91.156,17 L96.447,17 C96.59,17 96.694,16.883 96.694,16.753 L96.694,15.687 C96.694,15.557 96.59,15.44 96.447,15.44 L92.599,15.44 L92.599,13.165 L95.81,13.165 C95.94,13.165 96.057,13.061 96.057,12.918 L96.057,11.839 C96.057,11.709 95.94,11.592 95.81,11.592 L92.599,11.592 L92.599,9.46 L96.447,9.46 C96.59,9.46 96.694,9.343 96.694,9.213 L96.694,8.147 C96.694,8.017 96.59,7.9 96.447,7.9 L91.156,7.9 C91.013,7.9 90.909,8.017 90.909,8.147 Z" stroke="none" fill="#000000"></path></g></g><g transform="translate(36.0 6.0)"><g clip-path="url(#i2)"><text transform="translate(0.0 7.0)" font-family="BrandonGrotesque-Bold, Brandon Grotesque" font-size="7.0" font-weight="bold" fill="#000000" text-anchor="left" line-spacing="10.0">LIMITED TIME</text></g></g><g transform="translate(7.0 7.0)"><g clip-path="url(#i3)"><polygon points="0,0 22,0 22,21 0,21 0,0" stroke="none" fill="#000000"></polygon></g><g transform="translate(7.192963829776986 6.707853814172198)"><g clip-path="url(#i4)"><polygon points="1.69309011e-15,-4.16333634e-16 7.61447641,-4.16333634e-16 7.61447641,7.58408063 1.69309011e-15,7.58408063 1.69309011e-15,-4.16333634e-16" stroke="none" fill="#000000"></polygon></g></g><g transform="translate(6.104699254917731 5.625071987574028)"><g clip-path="url(#i5)"><polygon points="0,0 4.35378154,0 4.35378154,4.33565776 0,4.33565776 0,0" stroke="none" fill="#000000"></polygon></g></g><g transform="translate(11.54190534306789 11.03982202194652)"><g clip-path="url(#i6)"><polygon points="0,0 4.35306428,0 4.35306428,4.33565776 0,4.33565776 0,0" stroke="none" fill="#000000"></polygon></g></g></g></svg>