<?xml version="1.0" encoding="UTF-8"?><svg version="1.1" width="87px" height="87px" viewBox="0 0 87.0 87.0" xmlns="http://www.w3.org/2000/svg" xmlns:xlink="http://www.w3.org/1999/xlink"><defs><clipPath id="i0"><path d="M43.4039059,0 C45.2677397,0 46.9782102,1.16271859 48.9604571,2.51051019 C50.5321703,3.57860105 52.016769,4.58761493 53.6907244,5.03513611 C55.4392749,5.5035695 57.2811997,5.37548224 59.2446675,5.24007572 C61.5738077,5.07800613 63.5883966,4.93946277 65.1095103,5.8209122 C66.6681824,6.72536506 67.5596719,8.56616189 68.5920053,10.6976384 C69.4360252,12.4401478 70.2330971,14.0864612 71.4918239,15.3485127 C72.745856,16.6053362 74.3905993,17.4067965 76.1391498,18.2594916 C78.2632839,19.2925545 80.0968624,20.1849829 80.9982631,21.7466018 C81.8798414,23.2742383 81.7264781,25.4930233 81.5778096,27.6427979 C81.4421821,29.5912926 81.3128144,31.4326122 81.7833373,33.1918515 C82.2309078,34.8705787 83.2413321,36.3631873 84.3133104,37.9478096 C85.6518487,39.9271498 86.8072901,41.6356769 86.8072901,43.4994772 C86.8072901,45.3674599 85.6450674,47.0838291 84.2997476,49.072057 C83.2350724,50.6457004 82.2293428,52.1315125 81.7838589,53.8060573 C81.3143794,55.5626825 81.4421821,57.409753 81.5778096,59.365567 C81.7400408,61.7056427 81.8798414,63.7257617 80.9977415,65.253921 C80.0963408,66.8155399 78.2585891,67.7095367 76.1308035,68.7446908 C74.3937292,69.5895439 72.7521157,70.3878673 71.4918239,71.6509645 C70.2341404,72.9109248 69.4360252,74.557761 68.5878321,76.3086353 C67.5570637,78.4369749 66.6666175,80.2746349 65.1100319,81.1775194 C63.5810935,82.0641969 61.3635851,81.9073553 59.208674,81.7567875 C57.2728534,81.6224265 55.4439697,81.4948621 53.6875945,81.9643411 C52.0125958,82.4139535 50.5264322,83.424013 48.9500243,84.4952407 C46.974037,85.8393726 45.2677397,87 43.4039059,87 C41.5390288,87 39.8322098,85.8388498 37.8546576,84.4941951 C36.2819011,83.4245358 34.7967808,82.4139535 33.1155224,81.9632955 C32.2772406,81.7390121 31.3586256,81.6349739 30.2230067,81.6349739 C29.3471665,81.6349739 28.4457658,81.6977105 27.560536,81.7594015 C25.427534,81.9073553 23.2209801,82.0626284 21.6977798,81.1775194 C20.138586,80.2735893 19.2465749,78.4317469 18.2116333,76.2934739 C17.3681351,74.5530557 16.5715848,72.9093564 15.3154661,71.6504417 C14.057261,70.3889129 12.4109527,69.5879755 10.6629238,68.7378944 C8.54191955,67.7053542 6.70938439,66.8139715 5.80798365,65.2518298 C4.92744868,63.7268073 5.06724926,61.7030287 5.22948052,59.3545881 C5.36510795,57.404525 5.49238907,55.5626825 5.02447445,53.8076257 C4.57638231,52.1283757 3.56543635,50.6352443 2.49345804,49.0511448 C1.15491969,47.0723274 0,45.3632774 0,43.4994772 C0,41.6309717 1.15804955,39.9203533 2.49971777,37.9383991 C3.56700128,36.3621417 4.57533902,34.8737155 5.0249961,33.1892374 C5.49186742,31.4373175 5.3645863,29.5933838 5.22948052,27.6354786 C5.08029035,25.4914548 4.92640539,23.2742383 5.80954858,21.7450334 C6.71094932,20.1839373 8.55235243,19.2878493 10.6869194,18.2495583 C12.4219072,17.4047052 14.0609125,16.6063818 15.3149445,15.3485127 C16.5689765,14.092212 17.3686567,12.4432847 18.219458,10.6908419 C19.2502264,8.56197945 20.1406726,6.72431945 21.6972581,5.82143501 C23.2173286,4.94103119 25.3409411,5.08689382 27.5933996,5.24164413 C29.5344367,5.37652785 31.3674935,5.50304669 33.1186523,5.0346133 C34.7946942,4.5850009 36.283466,3.57337299 37.8640472,2.49900847 C39.8389912,1.15801334 41.5437236,0 43.4039059,0 Z"></path></clipPath><clipPath id="i1"><path d="M9.3528,0 C9.5904,0 9.7632,0.1944 9.7632,0.4104 L9.7632,2.7648 C9.7632,2.9808 9.5904,3.1752 9.3528,3.1752 L3.3696,3.1752 L3.3696,6.2856 L8.2944,6.2856 C8.5104,6.2856 8.7048,6.48 8.7048,6.696 L8.7048,9.0504 C8.7048,9.2664 8.5104,9.4608 8.2944,9.4608 L3.3696,9.4608 L3.3696,14.7096 C3.3696,14.9256 3.1752,15.12 2.9592,15.12 L0.4104,15.12 C0.1728,15.12 0,14.9256 0,14.7096 L0,0.4104 C0,0.1944 0.1728,0 0.4104,0 Z"></path></clipPath><clipPath id="i2"><path d="M6.8688,0 C9.4608,0 11.5776,2.0952 11.5776,4.6656 C11.5776,6.6528 10.26,8.2512 8.3808,9.0072 L11.34,14.4936 C11.4912,14.7744 11.34,15.12 10.9728,15.12 L8.1,15.12 C7.9272,15.12 7.7976,15.012 7.7544,14.9256 L4.8816,9.2016 L3.3912,9.2016 L3.3912,14.7096 C3.3912,14.9256 3.1968,15.12 2.9808,15.12 L0.4104,15.12 C0.1728,15.12 0,14.9256 0,14.7096 L0,0.4104 C0,0.1944 0.1728,0 0.4104,0 Z M6.588,3.0888 L3.3912,3.0888 L3.3912,6.4584 L6.588,6.4584 C7.4736,6.4584 8.2296,5.6376 8.2296,4.7304 C8.2296,3.8232 7.4736,3.0888 6.588,3.0888 Z"></path></clipPath><clipPath id="i3"><path d="M9.3528,0 C9.5904,0 9.7632,0.1944 9.7632,0.4104 L9.7632,2.7648 C9.7632,2.9808 9.5904,3.1752 9.3528,3.1752 L3.3696,3.1752 L3.3696,5.8536 L8.2944,5.8536 C8.5104,5.8536 8.7048,6.048 8.7048,6.264 L8.7048,8.6184 C8.7048,8.856 8.5104,9.0288 8.2944,9.0288 L3.3696,9.0288 L3.3696,11.9448 L9.3528,11.9448 C9.5904,11.9448 9.7632,12.1392 9.7632,12.3552 L9.7632,14.7096 C9.7632,14.9256 9.5904,15.12 9.3528,15.12 L0.4104,15.12 C0.1728,15.12 0,14.9256 0,14.7096 L0,0.4104 C0,0.1944 0.1728,0 0.4104,0 Z"></path></clipPath><clipPath id="i4"><path d="M9.3528,0 C9.5904,0 9.7632,0.1944 9.7632,0.4104 L9.7632,2.7648 C9.7632,2.9808 9.5904,3.1752 9.3528,3.1752 L3.3696,3.1752 L3.3696,5.8536 L8.2944,5.8536 C8.5104,5.8536 8.7048,6.048 8.7048,6.264 L8.7048,8.6184 C8.7048,8.856 8.5104,9.0288 8.2944,9.0288 L3.3696,9.0288 L3.3696,11.9448 L9.3528,11.9448 C9.5904,11.9448 9.7632,12.1392 9.7632,12.3552 L9.7632,14.7096 C9.7632,14.9256 9.5904,15.12 9.3528,15.12 L0.4104,15.12 C0.1728,15.12 0,14.9256 0,14.7096 L0,0.4104 C0,0.1944 0.1728,0 0.4104,0 Z"></path></clipPath></defs><g clip-path="url(#i0)"><polygon points="0,0 86.8072901,0 86.8072901,87 0,87 0,0" stroke="none" fill="#DDFF8E"></polygon></g><g transform="translate(20.050566551108197 36.3176477161087)"><g clip-path="url(#i1)"><polygon points="0,0 9.7632,0 9.7632,15.12 0,15.12 0,0" stroke="none" fill="#000000"></polygon></g><g transform="translate(13.360800017882868 0.0)"><g clip-path="url(#i2)"><polygon points="0,0 11.5776,0 11.5776,15.12 0,15.12 0,0" stroke="none" fill="#000000"></polygon></g></g><g transform="translate(29.03280003576219 0.0)"><g clip-path="url(#i3)"><polygon points="0,0 9.7632,0 9.7632,15.12 0,15.12 0,0" stroke="none" fill="#000000"></polygon></g></g><g transform="translate(42.89040005364586 0.0)"><g clip-path="url(#i4)"><polygon points="0,0 9.7632,0 9.7632,15.12 0,15.12 0,0" stroke="none" fill="#000000"></polygon></g></g></g></svg>