<?xml version="1.0" encoding="UTF-8"?><svg version="1.1" width="64px" height="36px" viewBox="0 0 64.0 36.0" xmlns="http://www.w3.org/2000/svg" xmlns:xlink="http://www.w3.org/1999/xlink"><defs><clipPath id="i0"><path d="M46.4081652,-5.68434189e-14 L46.4081652,5.45741814 L53.946526,5.4579709 C59.946369,5.4579709 63.8555206,9.87889141 64,16.653472 L64,31.6464474 L58.6269813,31.6464474 C58.2780478,34.1349814 56.1135431,36 53.531993,36 C50.9504429,36 48.7859381,34.1349814 48.4370046,31.6464474 L27.429808,31.6464474 C27.0808745,34.1349814 24.9163698,36 22.3348197,36 C19.7532696,36 17.5887648,34.1349814 17.2398313,31.6464474 L10.5391902,31.6464474 L10.5391902,22.9390657 L3.56051813,22.9390657 L3.56051813,20.6583701 L10.5391902,20.6583701 L10.5391902,16.0295421 L1.88703274,16.0295421 L1.88703274,13.7488465 L10.5391902,13.7488465 L10.5391902,9.12001843 L0,9.12001843 L0,6.83932287 L10.5391902,6.83932287 L10.5391902,-5.68434189e-14 L46.4081652,-5.68434189e-14 Z M22.2612645,28.2588461 C20.7265151,28.2588461 19.4697959,29.5031131 19.4697959,31.0226556 C19.4697959,32.542198 20.7265151,33.786465 22.2612645,33.786465 C23.7960139,33.786465 25.052733,32.542198 25.052733,31.0226556 C25.052733,29.5031131 23.7960139,28.2588461 22.2612645,28.2588461 Z M53.3868366,28.2588461 C51.8520872,28.2588461 50.5953681,29.5031131 50.5953681,31.0226556 C50.5953681,32.542198 51.8520872,33.786465 53.3868366,33.786465 C54.921586,33.786465 56.1783051,32.542198 56.1783051,31.0226556 C56.1783051,29.5031131 54.921586,28.2588461 53.3868366,28.2588461 Z M44.0343004,2.3482707 L12.7691548,2.3482707 L12.7691548,29.4329124 L17.3761945,29.4329124 C18.0740617,27.3600553 20.0286479,25.9079498 22.2612645,25.9079498 C24.5647843,25.9079498 26.4484673,27.430256 27.1463344,29.4329124 L44.0343004,29.4329124 L44.0343004,2.3482707 Z M53.8724125,7.73839008 L46.3347496,7.73839008 L46.3347496,29.4329124 L48.4992543,29.4329124 C49.1971215,27.3600553 51.0808044,25.9079498 53.3843243,25.9079498 C55.6878441,25.9079498 57.5715271,27.430256 58.2693942,29.4329124 L61.4127972,29.4329124 L61.4100755,16.7207708 C61.4100755,11.1931519 58.5475641,7.73839008 53.8724125,7.73839008 Z"></path></clipPath></defs><g clip-path="url(#i0)"><polygon points="0,-5.68434189e-14 64,-5.68434189e-14 64,36 0,36 0,-5.68434189e-14" stroke="none" fill="#000000"></polygon></g></svg>