<?xml version="1.0" encoding="UTF-8"?>
<svg width="15px" height="15px" viewBox="0 0 15 15" version="1.1" xmlns="http://www.w3.org/2000/svg" xmlns:xlink="http://www.w3.org/1999/xlink">
    <title>002-reload</title>
    <g id="design" stroke="none" stroke-width="1" fill="none" fill-rule="evenodd">
        <g id="icon_test-copy" transform="translate(-1263.000000, -453.000000)" fill="#000000" fill-rule="nonzero">
            <g id="002-reload" transform="translate(1263.124991, 453.125000)">
                <path d="M13.4986693,8.0497238 C13.5778151,7.66616727 13.9147279,7.43197522 14.2535939,7.51787726 C14.5948986,7.60296187 14.8131374,7.98351319 14.7336647,8.36865399 C13.9565552,12.1281301 10.9642092,14.75 7.45925081,14.75 C5.09052014,14.75 2.90342253,13.5311054 1.49537142,11.4510264 L1.26685768,11.1134487 L1.26685768,12.3753208 C1.26685768,12.7690322 0.980676876,13.0835472 0.633433543,13.0835472 C0.286190211,13.0835472 9.40258906e-06,12.7690322 9.40258906e-06,12.3753208 L9.40258906e-06,9.04241528 C9.40258906e-06,8.64870391 0.286190211,8.3341889 0.633433543,8.3341889 L3.66713011,8.3341889 C4.01437344,8.3341889 4.30055425,8.64870391 4.30055425,9.04241528 C4.30055425,9.43612666 4.01437344,9.75064167 3.66713011,9.75064167 L2.219981,9.75064167 L2.10937357,9.93387392 C3.22141591,12.0461082 5.23557382,13.3335472 7.45925081,13.3335472 C10.373637,13.3335472 12.8568235,11.1580695 13.4986693,8.0497238 Z M7.290768,0 C9.64167554,0 11.8495062,1.22718954 13.2549903,3.28182458 L13.4831611,3.61538073 L13.4831611,2.375 C13.4831611,1.98122637 13.7693459,1.66666667 14.1165853,1.66666667 C14.4638247,1.66666667 14.7500094,1.98122637 14.7500094,2.375 L14.7500094,5.70833333 C14.7500094,6.10210696 14.4638247,6.41666667 14.1165853,6.41666667 L11.0828887,6.41666667 C10.7356493,6.41666667 10.4494646,6.10210696 10.4494646,5.70833333 C10.4494646,5.3145597 10.7356493,5 11.0828887,5 L12.53474,5 L12.6452725,4.81662549 C11.5403578,2.72446413 9.50199334,1.41666667 7.290768,1.41666667 C4.37638947,1.41666667 1.89319706,3.59240899 1.25127711,6.70113876 C1.18411699,7.02555023 0.924737186,7.25 0.63453437,7.25 C0.587860944,7.25 0.541839249,7.24442874 0.496009351,7.232978 C0.155123762,7.14798797 -0.0631206632,6.76737798 0.0163547189,6.38217476 C0.793465972,2.62220798 3.78581373,0 7.290768,0 Z" id="Combined-Shape"></path>
            </g>
        </g>
    </g>
</svg>