<?xml version="1.0" encoding="UTF-8"?>
<svg width="22px" height="22px" viewBox="0 0 22 22" version="1.1" xmlns="http://www.w3.org/2000/svg" xmlns:xlink="http://www.w3.org/1999/xlink">
    <title>003-calendar</title>
    <g id="design" stroke="none" stroke-width="1" fill="none" fill-rule="evenodd">
        <g id="icon_test" transform="translate(-1255.000000, -448.000000)" fill="#000000" fill-rule="nonzero">
            <g id="003-calendar" transform="translate(1255.125000, 448.125000)">
                <path d="M16.375,0 C16.6856632,0 16.9375,0.25184767 16.9375,0.5625 L16.9375,1.59375 L17.0625,1.71875 L19.0390625,1.71875 C20.5337886,1.71875 21.75,2.93496137 21.75,4.4296875 L21.75,19.0390625 C21.75,20.5337886 20.5337886,21.75 19.0390625,21.75 L2.7109375,21.75 C1.21621137,21.75 0,20.5337886 0,19.0390625 L0,4.4296875 C0,2.93496137 1.21621137,1.71875 2.7109375,1.71875 L4.6875,1.71875 L4.8125,1.59375 L4.8125,0.5625 C4.8125,0.25184767 5.0643368,0 5.375,0 C5.6856632,0 5.9375,0.25184767 5.9375,0.5625 L5.9375,1.59375 L6.0625,1.71875 L15.6875,1.71875 L15.8125,1.59375 L15.8125,0.5625 C15.8125,0.25184767 16.0643368,0 16.375,0 Z M20.5,6.3125 L1.25,6.3125 L1.125,6.4375 L1.125,19.0390625 C1.125,19.9136762 1.83632378,20.625 2.7109375,20.625 L19.0390625,20.625 C19.9136762,20.625 20.625,19.9136762 20.625,19.0390625 L20.625,6.4375 L20.5,6.3125 Z M15.4621491,12.9603318 L15.5384419,12.9718659 C15.7698347,13.0295504 15.917793,13.2875513 15.8639133,13.5486637 C15.33706,16.0974611 13.3083533,17.875 10.9321131,17.875 C9.32619597,17.875 7.8434197,17.0486308 6.88880992,15.6384077 L6.73388554,15.4095415 L6.73388554,16.265048 C6.73388554,16.531971 6.53986488,16.7452015 6.30444596,16.7452015 C6.06902703,16.7452015 5.87500637,16.531971 5.87500637,16.265048 L5.87500637,14.005451 C5.87500637,13.7385281 6.06902703,13.5252976 6.30444596,13.5252976 L8.36118693,13.5252976 C8.59660585,13.5252976 8.79062651,13.7385281 8.79062651,14.005451 C8.79062651,14.272374 8.59660585,14.4856045 8.36118693,14.4856045 L7.38007007,14.4856045 L7.30508206,14.6098298 C8.05900817,16.041853 9.42453733,16.914693 10.9321131,16.914693 C12.9079658,16.914693 14.5914801,15.4397929 15.0266293,13.3324399 C15.0683633,13.1301878 15.2158147,12.9891943 15.3873818,12.96392 L15.4621491,12.9603318 Z M10.8178876,7.875 C12.4117214,7.875 13.9085539,8.70699291 14.8614233,10.0999658 L15.0161153,10.3261056 L15.0161153,9.48516949 C15.0161153,9.21820432 15.2101386,9.0049435 15.4455548,9.0049435 C15.6809711,9.0049435 15.875,9.21820432 15.875,9.48516949 L15.875,11.7450565 C15.875,12.0120217 15.6809711,12.2252825 15.4455548,12.2252825 L13.3888139,12.2252825 C13.1533976,12.2252825 12.9593743,12.0120217 12.9593743,11.7450565 C12.9593743,11.4780913 13.1533976,11.2648305 13.3888139,11.2648305 L14.3731187,11.2648305 L14.4480558,11.1405088 C13.698962,9.72209433 12.3170217,8.83545198 10.8178876,8.83545198 C8.84204016,8.83545198 7.15852189,10.3105315 6.72332245,12.4181449 C6.67779022,12.6380849 6.50193972,12.7902542 6.30519228,12.7902542 C6.27354932,12.7902542 6.2423482,12.7864771 6.21127712,12.7787139 C5.98016853,12.7210935 5.83220638,12.4630529 5.88608793,12.2018981 C6.41294239,9.65276812 8.4416503,7.875 10.8178876,7.875 Z M4.6875,2.84375 L2.7109375,2.84375 C1.83632378,2.84375 1.125,3.55507378 1.125,4.4296875 L1.125,5.0625 L1.25,5.1875 L20.5,5.1875 L20.625,5.0625 L20.625,4.4296875 C20.625,3.55507378 19.9136762,2.84375 19.0390625,2.84375 L17.0625,2.84375 L16.9375,2.96875 L16.9375,3.65625 C16.9375,3.96690233 16.6856632,4.21875 16.375,4.21875 C16.0643368,4.21875 15.8125,3.96690233 15.8125,3.65625 L15.8125,2.96875 L15.6875,2.84375 L6.0625,2.84375 L5.9375,2.96875 L5.9375,3.65625 C5.9375,3.96690233 5.6856632,4.21875 5.375,4.21875 C5.0643368,4.21875 4.8125,3.96690233 4.8125,3.65625 L4.8125,2.96875 L4.6875,2.84375 Z" id="Combined-Shape"></path>
            </g>
        </g>
    </g>
</svg>