<?xml version="1.0" encoding="UTF-8"?><svg version="1.1" width="51px" height="45px" viewBox="0 0 51.0 45.0" xmlns="http://www.w3.org/2000/svg" xmlns:xlink="http://www.w3.org/1999/xlink"><defs><clipPath id="i0"><path d="M22.6295677,0.75356285 C24.3897519,-0.251187617 26.5584818,-0.251187617 28.3190502,0.75356285 C30.0792345,1.75831332 31.1637915,3.61542108 31.1637915,5.62492202 L31.1637915,6.32480069 C31.1746438,7.69519981 30.6760914,9.02230218 29.7629814,10.0541131 C28.8498522,11.085943 27.5856081,11.7502158 26.20996,11.9215703 L30.8734687,11.9215703 C31.7427085,11.9230515 32.5886495,12.2001128 33.2864232,12.7123152 L39.6552784,17.4066894 L46.2507834,12.8520802 C46.8900123,12.4073817 47.6793485,12.2252742 48.451782,12.3450714 C49.2242156,12.4645173 49.9194154,12.8762067 50.390597,13.493005 C50.8621627,14.1097938 51.0726184,14.8831535 50.977706,15.6505314 C50.8883907,16.4535153 50.469012,17.184936 49.817375,17.6726606 L42.4434911,23.3744438 C41.7659431,23.9037181 40.9444149,24.2212001 40.0830694,24.2861063 C39.2220888,24.3510134 38.3611467,24.1600045 37.6104753,23.738298 L32.8198123,20.8768195 L32.8198123,30.412549 L41.6935304,33.7009182 C43.3367404,34.2947293 44.6313325,35.574737 45.23157,37.1992197 C45.8141748,38.7962621 45.6509871,40.5665865 44.7858961,42.0334538 C44.0610974,43.221076 42.9405261,44.121563 41.6166424,44.5799863 C40.2923746,45.0384106 38.8484434,45.0261717 37.5324349,44.545122 L25.5027163,40.1095788 L13.7207758,44.5869945 C12.4081286,45.0973455 10.9559381,45.1359138 9.61736063,44.696034 C8.27887918,44.256515 7.13913874,43.3659882 6.39634251,42.1802649 C5.81899093,41.2574554 5.51249587,40.1941214 5.51212074,39.1088542 C5.50991187,37.8852462 5.89027993,36.6909775 6.60080739,35.6891705 C7.31129644,34.6873635 8.31748645,33.9270212 9.48194707,33.5119896 L18.2990988,30.4057326 L18.2990988,20.9256433 L14.0531633,23.6260882 C13.3088689,24.0845115 12.4411656,24.3096451 11.564819,24.2721877 C10.6884723,24.2347303 9.84397187,23.9365335 9.14206862,23.4161654 L1.23766192,17.6094635 L1.22318006,17.6026927 C0.360691693,16.9777383 -0.0984851411,15.9454526 0.0178072601,14.8951266 C0.134109265,13.8443258 0.808584064,12.9349422 1.7870191,12.5091528 C2.76545413,12.0837337 3.89912497,12.2061325 4.76121959,12.8310869 L11.2077696,17.4067749 L17.1381154,13.033898 C18.1277869,12.3161974 19.3215391,11.9267628 20.5490007,11.9215703 L24.7382738,11.9215703 C23.3626256,11.7501874 22.0983623,11.0859241 21.1852524,10.0541131 C20.2721424,9.02230218 19.7739472,7.69529476 19.7848264,6.32480069 L19.7848264,5.62492202 C19.7848264,3.61542108 20.8689993,1.75831332 22.6295677,0.75356285 Z M31.9851538,31.6022364 L19.1343105,31.6022364 L9.93492753,34.8345857 C8.63995128,35.2926197 7.62437836,36.3062954 7.17345119,37.5906707 C6.72213987,38.8754258 6.88420397,40.2929197 7.6138718,41.4460754 C8.18337708,42.3535981 9.05703467,43.0349522 10.0823362,43.3713566 C11.108022,43.7073869 12.220334,43.677345 13.2253715,43.2860506 L25.7083894,38.5074566 C25.7766628,38.4829769 25.8483157,38.4685123 25.9207197,38.4655452 L29.013047,38.3116233 C29.1105927,38.3075405 29.1964987,38.2470874 29.232513,38.1577015 C29.2685272,38.070168 29.2520202,37.9703965 29.1901208,37.8988135 L28.2417457,36.7794596 C27.6336332,36.0929592 26.8308324,35.602633 25.9376023,35.3719354 C25.0443529,35.1412378 24.1019802,35.1805562 23.2316359,35.4850577 L12.6165569,39.2211115 C12.2474061,39.352407 11.8399937,39.1628887 11.7071924,38.7979237 C11.5743911,38.4325884 11.7660829,38.030166 12.1352337,37.8988705 L22.7426296,34.1977579 C23.9877622,33.7704883 25.339785,33.7582494 26.5924085,34.1628936 L26.6843197,34.1628936 L38.8139178,37.8707475 C39.2044466,37.9289798 39.4738025,38.2891214 39.4152788,38.6755923 C39.3567533,39.0620633 38.9921066,39.3279946 38.6015778,39.2701346 C38.5336789,39.2834863 38.4638996,39.2834863 38.3963734,39.2701346 L29.9045023,36.6534347 L30.2230027,37.0172793 C30.4270834,37.2513097 30.561382,37.5372771 30.610151,37.8425192 C30.6589191,38.1477613 30.6202734,38.4604284 30.4987278,38.7452754 C30.3798039,39.0245585 30.184357,39.265634 29.93413,39.4410713 C29.6842776,39.6164991 29.3894122,39.7196118 29.0836656,39.7388979 L28.5456992,39.7388979 L37.9926681,43.2371993 C38.9987621,43.6062377 40.103199,43.6166251 41.1161116,43.2668709 C42.1290243,42.9166989 42.9865955,42.2283566 43.5406867,41.3200363 C44.2031952,40.210747 44.3352474,38.8688326 43.9015783,37.6541498 C43.445175,36.4068464 42.4483967,35.4265453 41.1845368,34.9814718 L31.9851538,31.6022364 Z M30.8457034,13.3420845 L20.5494706,13.3420845 C19.6288504,13.3572858 18.7367824,13.6610562 18.0018708,14.2096051 L11.6330156,18.8621068 C11.3857946,19.038655 11.0522834,19.038655 10.8050624,18.8621068 L3.93383243,13.9648266 C3.61943286,13.745257 3.23528091,13.6458568 2.85225259,13.6859139 C2.46963725,13.7256025 2.11437352,13.9021507 1.85326543,14.1818041 C1.55372409,14.5077741 1.4074179,14.9435711 1.45056009,15.38234 C1.49370035,15.820767 1.72253967,16.2205973 2.08006029,16.4835586 L10.0057874,22.2902605 C10.480023,22.6389038 11.0494899,22.8384468 11.6399699,22.8636671 C12.2305075,22.8885153 12.8149562,22.7375654 13.3176575,22.4304623 L18.2711049,19.253762 L18.2711049,18.2044805 C18.2711049,17.8180095 18.5877325,17.5049721 18.978636,17.5049721 C19.3695394,17.5049721 19.686167,17.8180095 19.686167,18.2044805 L19.686167,30.2031874 L31.4047225,30.2031874 L31.4047225,18.2044805 C31.4047225,17.8180095 31.7213501,17.5049721 32.1122536,17.5049721 C32.503157,17.5049721 32.8201592,17.8180095 32.8201592,18.2044805 L32.8197841,19.2396146 L38.3254499,22.53501 C38.8326265,22.8131812 39.4111114,22.93669 39.989212,22.8906986 C40.5669766,22.8447052 41.1180234,22.6306997 41.5734547,22.2764924 L48.9612731,16.5814505 C49.3030339,16.3222397 49.5206166,15.9346483 49.5630087,15.5110903 C49.619287,15.0774961 49.4883584,14.6405787 49.2021171,14.3075166 C48.9451675,13.9978214 48.5798102,13.7949343 48.1787363,13.7393037 C47.7776625,13.6836731 47.3698852,13.7789924 47.0367486,14.0067181 L40.0236795,18.8343058 C39.7764585,19.0104837 39.4429474,19.0104837 39.1957264,18.8343058 L32.4164047,13.8528057 C31.9613767,13.5212248 31.4110502,13.3420845 30.8457034,13.3420845 Z M27.6191055,2.0070522 C26.2966624,1.2522835 24.6674739,1.2522835 23.3450308,2.0070522 C22.0226261,2.76218171 21.2078014,4.15717262 21.2078014,5.66667205 L21.2078014,6.36655073 C21.2078014,7.87605015 22.0225877,9.27103157 23.3450308,10.0261706 C24.6674739,10.7809393 26.2966624,10.7809393 27.6191055,10.0261706 C28.9415102,9.27104107 29.7563349,7.87605015 29.7563349,6.36655073 L29.7563349,5.66667205 C29.7563349,4.15717262 28.9415486,2.7621912 27.6191055,2.0070522 Z"></path></clipPath></defs><g clip-path="url(#i0)"><polygon points="-6.9388939e-18,-1.11022302e-16 51,-1.11022302e-16 51,45 -6.9388939e-18,45 -6.9388939e-18,-1.11022302e-16" stroke="none" fill="#FFFFFF"></polygon></g></svg>