<?xml version="1.0" encoding="UTF-8"?><svg version="1.1" width="45px" height="45px" viewBox="0 0 45.0 45.0" xmlns="http://www.w3.org/2000/svg" xmlns:xlink="http://www.w3.org/1999/xlink"><defs><clipPath id="i0"><path d="M31.1105989,1.71274852 C35.2219413,3.41557397 38.7359965,6.29963361 41.2081536,9.99986984 C43.6803108,13.7001061 45,18.0499408 45,22.5000598 C44.9934083,28.4652122 42.6207345,34.1846357 38.4025988,38.4025257 C34.1845433,42.6205765 28.4657563,44.9933304 22.5001152,45 C18.0499912,45 13.700232,43.6803926 9.99983098,41.2081579 C6.29942993,38.7359231 3.41560815,35.2219522 1.71270046,31.1106143 C0.00987312942,26.9992764 -0.435862476,22.4755512 0.432305449,18.1106096 C1.30055373,13.7459894 3.44349174,9.73670372 6.58991744,6.58996009 C9.73666457,3.44353788 13.7457136,1.30060225 18.1105797,0.432354933 C22.4752048,-0.435892385 26.9987743,0.00985879701 31.1105989,1.71274852 Z M22.5,1.8 C17.0101022,1.80057771 11.7451667,3.98152176 7.86316076,7.8633627 C3.98123514,11.745284 1.80036903,17.0102939 1.80036903,22.5002205 C1.80036903,27.9901471 3.9813155,33.2550767 7.86316076,37.1370784 C11.7450864,41.0189997 17.0101022,43.1998634 22.5000348,43.1998634 C27.9899675,43.1998634 33.254903,41.0189193 37.1369089,37.1370784 C41.0188345,33.2551571 43.1997006,27.9901471 43.1997006,22.5002205 C43.1934229,17.0121421 41.0106382,11.7509893 37.1299983,7.86979119 C33.3542405,4.09403763 28.2712739,1.92559232 22.9440322,1.80536391 L22.5,1.8 Z"></path></clipPath><clipPath id="i1"><path d="M18.6313937,0.164610079 C19.0081034,-0.10094262 19.524448,-0.039422014 19.8279773,0.307426919 C19.9971415,0.49858597 20.07687,0.752213828 20.0483058,1.00520687 C20.0194258,1.25852134 19.8844516,1.48765667 19.676972,1.63581719 C16.8528548,3.63499581 13.4867354,4.72642729 10.027001,4.76472178 C6.56726669,4.72639193 3.20114725,3.63499581 0.377030094,1.63581719 C0.169550496,1.48765667 0.0345746507,1.25851331 0.0056962548,1.00520687 C-0.0228703592,0.751892404 0.0568590203,0.498272581 0.225735521,0.307426919 C0.529321084,-0.039422014 1.04564957,-0.10094262 1.42231906,0.164610079 C3.94485956,1.9393542 6.94286744,2.91495 10.0268564,2.96485835 C13.1106847,2.91495723 16.1086122,1.9393542 18.6313937,0.164610079 Z"></path></clipPath><clipPath id="i2"><path d="M6.11068104,0.408212845 C7.2821131,0.952496637 8.1538167,1.98552211 8.4930804,3.23168401 C8.56998365,3.50382591 8.51505298,3.79637021 8.34491971,4.02269308 C8.17478966,4.24869452 7.90860988,4.38210167 7.62579639,4.38366861 C7.2161648,4.38084305 6.85958435,4.10304859 6.75666419,3.70691728 C6.55734074,2.97178782 6.04350329,2.36223883 5.35292247,2.04081456 C4.66204434,1.71970367 3.86472644,1.71970367 3.17422598,2.04112851 C2.48366123,2.36223939 1.96984789,2.97181249 1.77048426,3.7069098 C1.66753195,4.1033545 1.31094347,4.38083204 0.901352062,4.38366861 C0.618538566,4.38209114 0.352358794,4.24868649 0.182228737,4.02237166 C0.0120986808,3.79637021 -0.0428327885,3.50382591 0.0340680542,3.23168401 C0.373701389,1.98552211 1.24535677,0.952544851 2.41646741,0.408212845 C3.58789947,-0.136070948 4.93949004,-0.136070948 6.11068104,0.408212845 Z"></path></clipPath><clipPath id="i3"><path d="M6.11053481,0.408212845 C7.28196687,0.952496637 8.15367047,1.98552211 8.49293417,3.23168401 C8.56983742,3.50382591 8.51490675,3.79637021 8.34477348,4.02237166 C8.17464343,4.24868649 7.90877704,4.38209363 7.62565016,4.38366805 C7.21632393,4.38084305 6.85975152,4.10304859 6.75683135,3.70691728 C6.55719451,2.97178782 6.04335706,2.36223883 5.35276821,2.04081456 C4.66220346,1.71970367 3.8648936,1.71970367 3.17407171,2.04112851 C2.48350697,2.36223939 1.96969362,2.97181249 1.77033,3.7069098 C1.66737769,4.1033545 1.3107892,4.38083204 0.901519222,4.38366805 C0.618392337,4.38209114 0.352525954,4.24868649 0.182395898,4.02237166 C0.0119524521,3.79637021 -0.0426656281,3.50382591 0.0339218256,3.23168401 C0.373555161,1.98552211 1.24521054,0.952544851 2.41632118,0.408212845 C3.58775325,-0.136070948 4.93934381,-0.136070948 6.11053481,0.408212845 Z"></path></clipPath></defs><g clip-path="url(#i0)"><polygon points="2.22044605e-16,-1.11022302e-16 45,-1.11022302e-16 45,45 2.22044605e-16,45 2.22044605e-16,-1.11022302e-16" stroke="none" fill="#FFFFFF"></polygon></g><g transform="translate(12.47309807900945 25.42640215645259)"><g clip-path="url(#i1)"><polygon points="-4.99600361e-16,3.88578059e-16 20.0540013,3.88578059e-16 20.0540013,4.76472178 -4.99600361e-16,4.76472178 -4.99600361e-16,3.88578059e-16" stroke="none" fill="#FFFFFF"></polygon></g></g><g transform="translate(11.12240945905603 13.72517371215574)"><g clip-path="url(#i2)"><polygon points="1.38777878e-16,-6.10622664e-16 8.52715011,-6.10622664e-16 8.52715011,4.38366861 1.38777878e-16,4.38366861 1.38777878e-16,-6.10622664e-16" stroke="none" fill="#FFFFFF"></polygon></g></g><g transform="translate(25.35203208863345 13.72517371215574)"><g clip-path="url(#i3)"><polygon points="-8.32667268e-16,-6.10622664e-16 8.52700388,-6.10622664e-16 8.52700388,4.38366805 -8.32667268e-16,4.38366805 -8.32667268e-16,-6.10622664e-16" stroke="none" fill="#FFFFFF"></polygon></g></g></svg>