<?xml version="1.0" encoding="utf-8"?>
<svg width="210px" height="160px" viewBox="0 0 210 160" version="1.1" xmlns:xlink="http://www.w3.org/1999/xlink" xmlns="http://www.w3.org/2000/svg">
  <defs>
    <path d="M0 0L149.555 0L149.555 159.56L0 159.56L0 0Z" id="path_1" />
    <path d="M0 0L16 0L16 25.0006L0 25.0006L0 0Z" id="path_2" />
    <clipPath id="mask_1">
      <use xlink:href="#path_1" />
    </clipPath>
    <clipPath id="mask_2">
      <use xlink:href="#path_2" />
    </clipPath>
  </defs>
  <g id="Group-87">
    <g id="Group-3" transform="translate(30.381836 0)">
      <path d="M0 0L149.555 0L149.555 159.56L0 159.56L0 0Z" id="Clip-2" fill="none" fill-rule="evenodd" stroke="none" />
      <g clip-path="url(#mask_1)">
        <path d="M10.888 55.9008C20.537 30.0963 45.351 11.6699 74.521 11.5539C103.692 11.4389 128.638 29.6683 138.477 55.3988L149.295 55.3558C149.809 50.0067 147.041 44.7416 142.077 42.2345C137.956 40.1535 135.212 36.0784 134.832 31.4763C134.294 24.9662 129.107 19.817 122.597 19.329C117.994 18.985 113.898 16.271 111.789 12.1649C108.802 6.35875 102.039 3.58669 95.839 5.62773C91.452 7.07076 86.63 6.13174 83.11 3.14568C78.129 -1.07442 70.82 -1.04542 65.87 3.21468C62.371 6.22674 57.557 7.20477 53.16 5.79573C46.944 3.80269 40.201 6.62775 37.259 12.4579C35.177 16.582 31.105 19.328 26.502 19.709C19.997 20.2471 14.847 25.4392 14.357 31.9513C14.013 36.5574 11.299 40.6525 7.19096 42.7656C2.24696 45.3116 -0.484036 50.5997 0.0709639 55.9438L10.888 55.9008ZM74.5501 19.1485C99.3981 19.0494 120.848 34.0078 130.271 55.4313L134.037 55.4163C124.401 32.0317 101.341 15.5674 74.5341 15.6724C47.7321 15.7784 24.7941 32.4247 15.3301 55.8843L19.0931 55.8683C28.3601 34.3738 49.6991 19.2445 74.5501 19.1485L74.5501 19.1485ZM148.888 100.837L148.888 100.837C148.87 100.78 148.857 100.722 148.841 100.665L139.68 100.702C130.874 128.048 105.297 147.886 75.0228 148.007C44.7488 148.126 19.0258 128.488 10.0178 101.212L0.860757 101.25C0.843757 101.305 0.829757 101.363 0.812757 101.419C-1.18024 107.638 1.63976 114.382 7.46676 117.327C11.5878 119.408 14.3308 123.481 14.7098 128.086C15.2478 134.593 20.4358 139.745 26.9468 140.231C31.5498 140.576 35.6428 143.291 37.7548 147.397C40.7398 153.204 47.5048 155.975 53.7058 153.932C58.0918 152.489 62.9118 153.429 66.4338 156.414C71.4148 160.635 78.7228 160.606 83.6708 156.345C87.1738 153.333 91.9858 152.357 96.3818 153.764C102.598 155.758 109.341 152.933 112.285 147.104C114.366 142.98 118.44 140.234 123.041 139.853C129.546 139.315 134.697 134.123 135.184 127.61C135.533 123.006 138.245 118.909 142.35 116.795C148.155 113.805 150.929 107.04 148.888 100.837L148.888 100.837ZM75.007 143.889C102.927 143.779 126.652 125.724 135.322 100.717L131.637 100.732C123.115 123.787 100.972 140.311 74.9949 140.415C49.018 140.517 26.753 124.167 18.063 101.18L14.377 101.196C23.232 126.132 47.09 144 75.007 143.889L75.007 143.889Z" transform="translate(0 -0.0009765625)" id="Fill-1" fill="#5CE0CF" fill-rule="evenodd" stroke="none" />
      </g>
    </g>
    <path d="M5.411 0L7.065 3.43808L10.848 3.92009L8.092 6.55915L8.8 10.3072L5.442 8.50019L2.097 10.3332L2.776 6.58015L0 3.96409L3.78 3.45108L5.411 0Z" transform="translate(99.38281 44.304688)" id="Fill-4" fill="#5CE0CF" fill-rule="evenodd" stroke="none" />
    <path d="M3.838 0L5.012 2.43805L7.698 2.78206L5.741 4.6541L6.243 7.31416L3.86 6.03213L1.486 7.33116L1.97 4.6671L0 2.81306L2.683 2.44805L3.838 0Z" transform="translate(112.11426 46.754883)" id="Fill-6" fill="#5CE0CF" fill-rule="evenodd" stroke="none" />
    <path d="M3.837 0L5.011 2.43805L7.697 2.78206L5.741 4.6541L6.242 7.31416L3.859 6.03213L1.485 7.33216L1.968 4.6691L0 2.81306L2.682 2.44805L3.837 0Z" transform="translate(89.81543 46.841797)" id="Fill-8" fill="#5CE0CF" fill-rule="evenodd" stroke="none" />
    <path d="M5.438 10.3342L3.783 6.89615L0 6.41414L2.755 3.77408L2.049 0.0260006L5.407 1.83404L8.751 0L8.072 3.75408L10.849 6.37014L7.067 6.88315L5.438 10.3342Z" transform="translate(99.6084 102.649414)" id="Fill-10" fill="#5CE0CF" fill-rule="evenodd" stroke="none" />
    <path d="M3.86 7.33216L2.686 4.89411L0 4.5511L1.956 2.67906L1.454 0.0190004L3.838 1.30103L6.21 0L5.728 2.66506L7.697 4.5191L5.015 4.88511L3.86 7.33216Z" transform="translate(90.02832 103.20117)" id="Fill-12" fill="#5CE0CF" fill-rule="evenodd" stroke="none" />
    <path d="M3.858 7.33116L2.686 4.89311L0 4.5501L1.957 2.67906L1.455 0.0190004L3.837 1.30103L6.212 0L5.729 2.66306L7.697 4.5191L5.015 4.88211L3.858 7.33116Z" transform="translate(112.32715 103.11426)" id="Fill-14" fill="#5CE0CF" fill-rule="evenodd" stroke="none" />
    <path d="M5.3625 1.82771L4.8025 0.712685C4.7435 0.597683 4.8025 0.45068 4.9185 0.391678L5.6505 0.0246705C5.6955 0.00367009 5.8065 -0.0103302 5.8595 0.00967022L8.0345 1.03869L8.5705 2.10672C8.6295 2.22372 8.5705 2.36872 8.4555 2.42772L0.999497 6.1718C0.882497 6.22981 0.732497 6.1888 0.673497 6.0718L0.0264968 4.78277C-0.0375032 4.65577 0.0204968 4.51177 0.135497 4.45077L5.3625 1.82771Z" transform="translate(54.589844 100)" id="Fill-16" fill="#5CE0CF" fill-rule="evenodd" stroke="none" />
    <path d="M5.02032 4.93179C6.43532 3.98477 6.98832 3.07975 6.54732 2.42174C6.10532 1.76372 5.06032 1.93173 3.64532 2.87875C2.21932 3.83577 1.67731 4.73079 2.11831 5.3908C2.56032 6.04882 3.59432 5.88681 5.02032 4.93179M2.47932 1.14071C4.84532 -0.443325 6.93332 -0.388324 8.11332 1.37271C9.29332 3.13275 8.55132 5.08579 6.18632 6.66983C3.82032 8.25586 1.73231 8.19986 0.552315 6.43982C-0.627685 4.67979 0.114315 2.72674 2.47932 1.14071" transform="translate(57.65332 104.80469)" id="Fill-18" fill="#5CE0CF" fill-rule="evenodd" stroke="none" />
    <path d="M5.0231 5.00514C6.2721 3.84712 6.6761 2.8681 6.1371 2.28608C5.5971 1.70607 4.5921 2.03608 3.3431 3.1941C2.0841 4.36213 1.6901 5.33115 2.2291 5.91316C2.7691 6.49318 3.7651 6.17317 5.0231 5.00514M1.9191 1.66107C4.0061 -0.275971 6.0771 -0.549977 7.5191 1.00306C8.96111 2.55809 8.53411 4.60314 6.4471 6.54018C4.3601 8.47822 2.2891 8.74923 0.847103 7.19619C-0.594897 5.64216 -0.168897 3.59711 1.9191 1.66107" transform="translate(62.839844 110.981445)" id="Fill-20" fill="#5CE0CF" fill-rule="evenodd" stroke="none" />
    <path d="M5.50427 2.02098C5.64727 1.83698 5.61127 1.54597 5.42627 1.40197C5.23227 1.24996 4.94027 1.28696 4.79627 1.47197C4.64527 1.66597 4.68027 1.95898 4.87627 2.11098C5.06027 2.25299 5.35227 2.21598 5.50427 2.02098L5.50427 2.02098ZM4.71627 9.39814C4.91127 9.55015 5.20227 9.51314 5.34627 9.33014C5.49827 9.13414 5.46227 8.84313 5.26727 8.69113C5.08327 8.54612 4.79127 8.58312 4.63927 8.77913C4.49527 8.96213 4.53127 9.25514 4.71627 9.39814L4.71627 9.39814ZM3.77127 0.672951C4.37027 -0.0960657 5.45627 -0.221068 6.22627 0.375945C6.98327 0.967958 7.13827 2.05998 6.53927 2.83C5.94027 3.59701 4.83527 3.72602 4.07727 3.134C3.30827 2.53699 3.17227 1.44097 3.77127 0.672951L3.77127 0.672951ZM6.06627 7.6661C6.83527 8.26512 6.98127 9.36714 6.38227 10.1362C5.79127 10.8942 4.67827 11.0332 3.90927 10.4332C3.15027 9.84315 3.01327 8.73013 3.60427 7.97011C4.20227 7.20309 5.30727 7.07609 6.06627 7.6661L6.06627 7.6661ZM8.95727 2.833C9.05327 2.794 9.15927 2.828 9.21127 2.867L9.98927 3.47401C10.1433 3.59502 10.1243 3.81002 9.94827 3.88802L1.11727 7.92911C1.05427 7.94511 0.914271 7.93511 0.862271 7.89611L0.104271 7.3041C-0.0497288 7.18509 -0.0307288 6.97009 0.145271 6.89209L8.95727 2.833Z" transform="translate(68.09961 115.15137)" id="Fill-22" fill="#5CE0CF" fill-rule="evenodd" stroke="none" />
    <path d="M0.141411 6.26987L1.16541 5.57085C1.33341 5.46485 1.54341 5.59785 1.59641 5.69585C1.63141 5.74285 2.16641 6.77388 2.93641 7.15089C3.40341 7.38089 3.88441 7.25389 4.08541 6.84788C4.32641 6.35787 4.10141 5.78385 3.46341 5.07884C2.65441 4.18982 1.78041 2.78979 2.46741 1.38876C3.03441 0.234733 4.50641 -0.490283 6.30241 0.392736C7.51441 0.988749 8.14341 2.06477 8.36741 2.49478C8.46741 2.64479 8.34141 2.84179 8.25341 2.90079L7.21741 3.5058C7.07341 3.59581 6.81141 3.59781 6.74641 3.4648C6.67041 3.3538 6.13441 2.29278 5.42341 1.94577C5.00341 1.73877 4.55041 1.86377 4.39541 2.17778C4.18341 2.60979 4.37241 3.1078 5.11141 3.93381C5.84341 4.74283 6.94041 6.16486 6.16041 7.7499C5.57041 8.95192 3.93641 9.65494 2.22241 8.81092C0.705411 8.0689 0.175411 7.02588 0.0394114 6.62487C-0.0195886 6.45187 -0.0315886 6.38687 0.141411 6.26987" transform="translate(78.06348 121.71484)" id="Fill-24" fill="#5CE0CF" fill-rule="evenodd" stroke="none" />
    <path d="M5.99722 6.15116L5.69822 3.81111L5.68522 3.80511L4.11322 5.55915L5.99722 6.15116ZM0.0692227 7.20619L6.56922 0.0810318C6.63022 0.0180304 6.73622 -0.0189704 6.82322 0.0100303L6.94622 0.0490311C7.03422 0.0770317 7.10122 0.165034 7.11522 0.251035L8.37622 9.81324C8.39822 9.99725 8.24922 10.1282 8.06422 10.0692L6.68722 9.63724C6.46422 9.56724 6.38922 9.46223 6.35122 9.19023L6.21222 8.0712L2.84022 7.01218L2.08122 7.8642C1.97422 7.9952 1.79022 8.1002 1.54222 8.0222L0.178223 7.59419C-0.00677723 7.53619 -0.0557772 7.34219 0.0692227 7.20619L0.0692227 7.20619Z" transform="translate(84.13965 124.75)" id="Fill-26" fill="#5CE0CF" fill-rule="evenodd" stroke="none" />
    <path d="M2.03951 2.19668L0.205513 1.88767C0.0645132 1.86467 -0.0184868 1.73167 0.00351318 1.60467L0.237513 0.206637C0.259513 0.0776344 0.380513 -0.0203677 0.522513 0.00363281L6.21452 0.958654C6.35552 0.981654 6.43852 1.11466 6.41752 1.24366L6.18252 2.63969C6.16252 2.76669 6.03952 2.86669 5.89852 2.84169L4.06452 2.53469L2.91751 9.38284C2.89551 9.50884 2.76151 9.60684 2.63251 9.58384L1.09451 9.32584C0.965514 9.30383 0.870514 9.16983 0.891514 9.04283L2.03951 2.19668Z" transform="translate(93.95996 125.93848)" id="Fill-28" fill="#5CE0CF" fill-rule="evenodd" stroke="none" />
    <path d="M0.515414 0.232419C0.523414 0.101416 0.647414 -0.00758603 0.776414 0.000414143L2.33441 0.0934161C2.46441 0.101416 2.57341 0.224419 2.56641 0.355422L2.05041 8.94561C2.04241 9.07661 1.91841 9.18561 1.78941 9.17761L0.232414 9.08461C0.101414 9.07661 -0.00758587 8.9536 0.000414134 8.8226L0.515414 0.232419Z" transform="translate(100.71582 126.930664)" id="Fill-30" fill="#5CE0CF" fill-rule="evenodd" stroke="none" />
    <path d="M0.33598 8.13424L0.89198 7.02721C0.98798 6.85321 1.23498 6.86621 1.32998 6.92721C1.38298 6.95021 2.35298 7.59123 3.20898 7.55023C3.72798 7.52522 4.08898 7.18122 4.06598 6.72621C4.04098 6.18119 3.56398 5.78819 2.66398 5.48218C1.52598 5.09517 0.0799806 4.29415 0.00298061 2.73812C-0.0600194 1.45009 0.87498 0.103057 2.87498 0.00505446C4.22398 -0.0629471 5.29698 0.573067 5.70098 0.839073C5.86098 0.923075 5.84698 1.15708 5.79998 1.25108L5.18698 2.28411C5.10298 2.43111 4.87498 2.56011 4.75298 2.47411C4.63298 2.41511 3.64998 1.74909 2.85898 1.78809C2.39098 1.8121 2.05598 2.1401 2.07398 2.49111C2.09698 2.97012 2.50498 3.31613 3.54998 3.68114C4.58398 4.03215 6.23198 4.74516 6.32098 6.5112C6.38698 7.84723 5.29798 9.25526 3.38898 9.35127C1.70098 9.43327 0.73198 8.77925 0.41898 8.49525C0.282981 8.37224 0.240981 8.32124 0.33598 8.13424" transform="translate(104.55176 126.87207)" id="Fill-32" fill="#5CE0CF" fill-rule="evenodd" stroke="none" />
    <path d="M0.00446401 1.30164C-0.020536 1.17264 0.061464 1.03763 0.200464 1.01263L5.48446 0.00461174C5.62546 -0.0223888 5.74946 0.0726132 5.77446 0.199616L6.03946 1.59265C6.06346 1.71965 5.98346 1.85465 5.84346 1.87965L2.30746 2.55567L2.65746 4.39371L5.56646 3.8387C5.69546 3.81369 5.83246 3.9067 5.85646 4.0337L6.12146 5.42473C6.14646 5.55373 6.05346 5.69073 5.92646 5.71574L3.01646 6.27075L3.60646 9.37182C3.63146 9.49882 3.53746 9.63582 3.41046 9.65882L1.90346 9.94783C1.76346 9.97583 1.63946 9.87783 1.61546 9.75082L0.00446401 1.30164Z" transform="translate(111.55078 125.64453)" id="Fill-34" fill="#5CE0CF" fill-rule="evenodd" stroke="none" />
    <path d="M4.13244 5.4793L2.49544 3.77627L2.48444 3.78027L2.26744 6.12732L4.13244 5.4793ZM0.00144215 9.8604L0.972442 0.262187C0.983442 0.174185 1.04744 0.0841827 1.13444 0.053182L1.25744 0.012181C1.34144 -0.0188197 1.44844 0.012181 1.51244 0.0731824L8.22644 7.00034C8.35544 7.13334 8.31244 7.32935 8.12844 7.39135L6.76544 7.86636C6.54444 7.94236 6.42144 7.90336 6.23044 7.70835L5.45044 6.89134L2.11144 8.05136L2.01144 9.18839C1.99944 9.35639 1.91544 9.5514 1.67144 9.6354L0.320442 10.1064C0.136442 10.1704 -0.0165578 10.0434 0.00144215 9.8604L0.00144215 9.8604Z" transform="translate(119.48535 124.27539)" id="Fill-36" fill="#5CE0CF" fill-rule="evenodd" stroke="none" />
    <path d="M2.44339 0.597974C3.58439 -0.0270406 4.62139 -0.134043 5.78239 0.146963C5.93539 0.181964 6.00939 0.318967 5.96839 0.46097L5.58639 1.871C5.54939 1.99401 5.42439 2.06301 5.30039 2.02801C4.67239 1.883 4.00239 1.98301 3.44339 2.28901C2.15439 2.99403 1.79539 4.58406 2.49439 5.86209C3.18739 7.12712 4.71839 7.65313 6.00739 6.94812C6.54538 6.65311 7.01938 6.1411 7.23638 5.56309C7.27938 5.45208 7.42738 5.36908 7.53938 5.41008L8.94738 5.87109C9.07038 5.90709 9.14038 6.0611 9.10438 6.1841C8.74038 7.36213 7.95338 8.25215 6.93938 8.80916C4.65839 10.0572 1.83039 9.25017 0.580389 6.96912C-0.66761 4.69007 0.162389 1.846 2.44339 0.597974" transform="translate(126.05957 120.16406)" id="Fill-38" fill="#5CE0CF" fill-rule="evenodd" stroke="none" />
    <path d="M2.73384 3.9388L1.25484 5.06383C1.13984 5.14983 0.986839 5.12083 0.907839 5.01682L0.0498387 3.8878C-0.0281613 3.7848 -0.0161613 3.62779 0.0968387 3.54279L4.69284 0.0517149C4.80684 -0.0362871 4.96084 -0.00628642 5.03884 0.0987159L5.89584 1.22574C5.97384 1.32974 5.96284 1.48575 5.84884 1.57175L4.36884 2.69677L8.56784 8.2219C8.64584 8.3279 8.62484 8.4899 8.52084 8.5699L7.27884 9.51292C7.17584 9.59093 7.01184 9.56992 6.93284 9.46592L2.73384 3.9388Z" transform="translate(131.37695 115.6416)" id="Fill-40" fill="#5CE0CF" fill-rule="evenodd" stroke="none" />
    <path d="M0.0636304 1.48316C-0.0253696 1.38916 -0.0203696 1.22316 0.0746303 1.13516L1.20963 0.0631318C1.30263 -0.0248701 1.46863 -0.02087 1.55863 0.0751321L7.46163 6.33327C7.55063 6.42627 7.54663 6.59228 7.45163 6.68228L6.31763 7.7513C6.22263 7.84031 6.05663 7.83731 5.96863 7.7413L0.0636304 1.48316Z" transform="translate(136.91895 113.62695)" id="Fill-42" fill="#5CE0CF" fill-rule="evenodd" stroke="none" />
    <path d="M6.71315 6.30869C7.60716 5.19167 7.42416 3.54663 6.31715 2.66261C5.19915 1.76759 3.54515 1.94359 2.65215 3.05862C1.76615 4.16564 1.95915 5.81868 3.07515 6.7127C4.18415 7.59772 5.82815 7.41572 6.71315 6.30869M1.02615 1.75959C2.65115 -0.271458 5.58615 -0.587465 7.61715 1.03757C9.64816 2.66261 9.96316 5.57867 8.33815 7.60972C6.71315 9.63877 3.80715 9.96277 1.77615 8.33774C-0.254848 6.7127 -0.597848 3.79063 1.02615 1.75959" transform="translate(140.91113 107.51953)" id="Fill-44" fill="#5CE0CF" fill-rule="evenodd" stroke="none" />
    <path d="M0.121506 6.9038C0.00650577 6.8428 -0.0314942 6.69079 0.0275058 6.57579L0.178506 6.28878L7.0075 3.99573L7.0135 3.98373L2.9185 1.84668C2.8035 1.78868 2.7475 1.64168 2.8125 1.51468L3.5355 0.130647C3.5965 0.0146439 3.7525 -0.0333571 3.8685 0.0246442L11.6315 4.07373C11.7465 4.13374 11.7855 4.28674 11.7255 4.40174L11.6275 4.58575C11.6095 4.62075 11.5275 4.69275 11.4925 4.70675L4.5375 6.8728L4.5315 6.8858L8.8345 9.12885C8.9495 9.18885 9.0045 9.33585 8.9385 9.46285L8.2235 10.8359C8.1625 10.9489 8.0045 10.9999 7.8895 10.9389L0.121506 6.9038Z" transform="translate(145.2627 98.21387)" id="Fill-46" fill="#5CE0CF" fill-rule="evenodd" stroke="none" />
    <path d="M0.0689169 6.87285C-0.0280831 6.76585 -0.0170831 6.58285 0.0669169 6.48684L0.235917 6.29484C0.289917 6.23484 0.431917 6.16884 0.536917 6.19684L8.17892 7.97488L8.20092 7.95088L5.46092 0.596713C5.42092 0.497711 5.46692 0.346708 5.51992 0.286706L5.68892 0.0947021C5.77392 -0.00230008 5.95392 -0.0363008 6.07192 0.047701L15.3409 5.79083C15.5189 5.90483 15.5319 6.10684 15.4049 6.25184L14.1579 7.67087C14.0629 7.77787 13.8719 7.80187 13.7649 7.72887L9.57592 5.00381L9.55492 5.02881L11.6729 10.4719C11.7139 10.5709 11.6779 10.7319 11.6259 10.7919L11.4349 11.0079C11.3719 11.0799 11.2279 11.1229 11.1239 11.0969L5.44392 9.70392L5.42292 9.72692L8.67092 13.521C8.75692 13.618 8.76792 13.799 8.66292 13.919L7.41592 15.336C7.28892 15.481 7.08592 15.494 6.94992 15.332L0.0689169 6.87285Z" transform="translate(59.024414 38.473633)" id="Fill-48" fill="#5CE0CF" fill-rule="evenodd" stroke="none" />
    <path d="M7.54007 8.41338C8.99807 7.42936 9.38707 5.43232 8.41107 3.98629C7.42807 2.52825 5.42107 2.12624 3.96307 3.11027C2.51807 4.08529 2.13907 6.09733 3.12207 7.55536C4.09707 9.0004 6.09507 9.38841 7.54007 8.41338M2.53207 0.989219C5.18407 -0.798821 8.74407 -0.0958054 10.5321 2.55625C12.3211 5.20731 11.6221 8.74639 8.97107 10.5354C6.31807 12.3235 2.78907 11.6375 1.00107 8.9854C-0.787925 6.33334 -0.119925 2.77726 2.53207 0.989219" transform="translate(70.44629 31.03125)" id="Fill-50" fill="#5CE0CF" fill-rule="evenodd" stroke="none" />
    <path d="M0.0166587 3.34439C-0.0393413 3.19439 0.0516587 3.02538 0.202659 2.96938L0.577658 2.83238L8.68266 6.40446L8.69766 6.39846L6.74466 1.06734C6.68966 0.916335 6.75966 0.738331 6.92566 0.67733L8.72766 0.0163149C8.87766 -0.0376863 9.06266 0.0473156 9.11766 0.198319L12.8197 10.3045C12.8747 10.4555 12.7837 10.6256 12.6337 10.6806L12.3937 10.7676C12.3487 10.7846 12.2117 10.7836 12.1707 10.7646L4.05466 6.97447L4.03866 6.98047L6.09066 12.5826C6.14666 12.7326 6.07566 12.9126 5.91066 12.9726L4.12366 13.6276C3.97366 13.6826 3.78766 13.5966 3.73366 13.4466L0.0166587 3.34439Z" transform="translate(80.87305 24.293945)" id="Fill-52" fill="#5CE0CF" fill-rule="evenodd" stroke="none" />
    <path d="M0.00285363 1.27425C-0.0191464 1.11624 0.0878536 0.955238 0.261854 0.931237L6.81785 0.00321682C6.99185 -0.0217837 7.13985 0.102219 7.16185 0.261223L7.40685 1.98726C7.42985 2.14626 7.32285 2.30627 7.14885 2.33127L2.76185 2.95228L3.03885 4.91633L6.64985 4.40431C6.80885 4.38231 6.97185 4.50432 6.99285 4.66332L7.23785 6.38936C7.26385 6.56436 7.13885 6.71037 6.98085 6.73237L3.36885 7.24438L3.67185 9.38242L8.05885 8.76141C8.23185 8.73641 8.37985 8.86141 8.40185 9.01942L8.64685 10.7465C8.66885 10.9045 8.56285 11.0655 8.38785 11.0895L1.83085 12.0185C1.65685 12.0435 1.51085 11.9185 1.48685 11.7595L0.00285363 1.27425Z" transform="translate(93.799805 22.418945)" id="Fill-54" fill="#5CE0CF" fill-rule="evenodd" stroke="none" />
    <path d="M3.36739 5.92842L0.0433913 0.4533C-0.0756087 0.241295 0.0613913 -0.00971071 0.317391 0.000289508L2.39439 0.0802913C2.52239 0.0862914 2.59839 0.168293 2.64439 0.234295L4.73939 3.59737L7.08739 0.407298C7.13839 0.345297 7.20639 0.268295 7.34939 0.273296L9.42739 0.355297C9.68239 0.365298 9.80039 0.625303 9.66439 0.828308L5.87739 6.01142L5.67839 11.1085C5.67239 11.2685 5.52339 11.4065 5.36439 11.4005L3.46139 11.3265C3.28539 11.3195 3.16339 11.1705 3.16939 11.0115L3.36739 5.92842Z" transform="translate(102.56836 22.22168)" id="Fill-56" fill="#5CE0CF" fill-rule="evenodd" stroke="none" />
    <path d="M0.00393411 1.6901L0.245934 0.254066C0.274934 0.0810617 0.423934 -0.0249406 0.597934 0.00506004L4.21094 0.615074C4.38494 0.645074 4.48794 0.793077 4.45894 0.966081L4.21694 2.40211C4.19094 2.55912 4.04294 2.66412 3.86894 2.63412L0.255934 2.0241C0.0829341 1.9951 -0.0220659 1.8481 0.00393411 1.6901" transform="translate(111.33301 29.057617)" id="Fill-58" fill="#5CE0CF" fill-rule="evenodd" stroke="none" />
    <path d="M5.53017 5.39558C6.10817 5.58258 6.75417 5.25358 6.94917 4.64556C7.14717 4.03555 6.79817 3.45254 6.21917 3.26553L5.03317 2.88052L4.34417 5.01157L5.53017 5.39558ZM4.38417 9.61467C4.97717 9.80668 5.63717 9.48167 5.84017 8.85766C6.03717 8.24964 5.53017 7.58063 4.93517 7.38863L3.70417 6.99062L3.00017 9.16667L4.38417 9.61467ZM3.27417 0.210465C3.32317 0.0584615 3.48917 -0.0395407 3.65717 0.0154605L7.20217 1.16249C8.99817 1.7435 10.0762 3.45354 9.55817 5.05157C9.18017 6.2226 7.85317 6.73561 7.01517 6.88461C7.71317 7.47963 8.70516 8.62465 8.25217 10.0247C7.70117 11.7287 5.79617 12.4747 3.98317 11.8897L0.211169 10.6677C0.0421688 10.6137 -0.0338312 10.4377 0.0141688 10.2857L3.27417 0.210465Z" transform="translate(116.10156 24.11914)" id="Fill-60" fill="#5CE0CF" fill-rule="evenodd" stroke="none" />
    <path d="M7.54486 7.23347L7.77386 4.3344L7.75986 4.3264L5.42186 6.04644L7.54486 7.23347ZM0.131853 7.01246L9.76286 0.0543055C9.85186 -0.00569586 9.98786 -0.0206962 10.0859 0.033305L10.2249 0.111307C10.3229 0.166308 10.3819 0.291311 10.3769 0.398313L9.49186 12.2466C9.47586 12.4756 9.26086 12.5946 9.05286 12.4776L7.50086 11.6096C7.24986 11.4696 7.18486 11.3226 7.20786 10.9875L7.32186 9.60252L3.52185 7.47747L2.39285 8.31349C2.23085 8.44249 1.98185 8.5245 1.70285 8.36749L0.166853 7.50847C-0.0441467 7.39147 -0.0541467 7.14746 0.131853 7.01246L0.131853 7.01246Z" transform="translate(123.06738 29.40625)" id="Fill-62" fill="#5CE0CF" fill-rule="evenodd" stroke="none" />
    <path d="M9.55507 1.41334C10.7641 2.46036 11.3361 3.61139 11.5091 5.07342C11.5341 5.26442 11.4091 5.40943 11.2291 5.42243L9.43607 5.58643C9.27907 5.59843 9.14507 5.48243 9.13307 5.32442C9.03307 4.53841 8.62607 3.80639 8.03407 3.29338C6.66507 2.11035 4.67807 2.37936 3.50506 3.73439C2.34106 5.07842 2.39506 7.07146 3.76207 8.25449C4.33207 8.7465 5.12707 9.07451 5.88707 9.07651C6.03507 9.07751 6.19207 9.21351 6.19207 9.36151L6.26607 11.1836C6.27807 11.3406 6.13007 11.4876 5.97207 11.4986C4.45807 11.5856 3.09206 11.0606 2.01506 10.1285C-0.405938 8.03348 -0.689938 4.4234 1.40506 2.00235C3.49906 -0.417704 7.13407 -0.68071 9.55507 1.41334" transform="translate(133.99805 35.429688)" id="Fill-64" fill="#5CE0CF" fill-rule="evenodd" stroke="none" />
    <path d="M8.45415 0.0805411C8.62015 -0.0454617 8.85615 -0.0254613 8.99215 0.153543L10.1272 1.64258C10.2541 1.80858 10.2201 2.05459 10.0541 2.18059L6.70715 4.73064L12.3841 4.87165C12.4871 4.87365 12.6381 4.93965 12.6961 5.01565L13.9181 6.62069C14.1011 6.86269 13.9191 7.2037 13.6221 7.2087L7.62315 7.0697L5.86815 13.5358C5.78315 13.8218 5.39715 13.8938 5.21315 13.6518L3.87515 11.8948C3.80715 11.8068 3.77015 11.6528 3.78915 11.5988L5.54815 5.61366L1.75315 8.50273C1.58715 8.62873 1.34215 8.59473 1.21516 8.42973L0.0801557 6.93969C-0.0548442 6.76169 -0.0118443 6.52769 0.153156 6.40168L8.45415 0.0805411Z" transform="translate(139.69336 41.984375)" id="Fill-66" fill="#5CE0CF" fill-rule="evenodd" stroke="none" />
    <path d="M12.8419 0C15.847 0 19.1388 1.26751 21.5705 3.40335C21.8924 3.65685 21.9286 4.09159 21.6431 4.3818L18.8159 7.42382C18.5303 7.67732 18.136 7.67732 17.8504 7.45938C16.4907 6.19187 14.9167 5.72157 13.1637 5.72157C9.26459 5.72157 6.11671 9.0538 6.11671 13.0364C6.11671 16.9835 9.30085 20.2423 13.2 20.2423C14.2368 20.2423 15.3099 20.0978 16.383 19.6642L16.383 17.5628L14.1303 17.5628C13.7371 17.5628 13.4504 17.2737 13.4504 16.9101L13.4504 13.3266C13.4504 12.9286 13.7371 12.6384 14.1303 12.6384L21.3201 12.6384C21.6782 12.6384 21.9649 12.9642 21.9649 13.3266L22 23.0664C22 23.2488 21.8572 23.539 21.7144 23.6468C21.7144 23.6468 18.0295 26.0006 12.8419 26.0006C5.72351 26.0006 0 20.279 0 13.0364C0 5.79384 5.72351 0 12.8419 0" transform="translate(0 66.00195)" id="Fill-68" fill="#5CE0CF" fill-rule="evenodd" stroke="none" />
    <path d="M0 0.696009C0 0.330604 0.331425 0 0.700195 0L5.23162 0C5.63657 0 5.93181 0.330604 5.93181 0.696009L5.93181 15.528C5.93181 18.0904 7.84801 20.1425 10.4632 20.1425C13.1158 20.1425 15.0682 18.0904 15.0682 15.528L15.0682 0.696009C15.0682 0.330604 15.3634 0 15.7684 0L20.2998 0C20.6686 0 21 0.330604 21 0.696009L21 15.8203C21 21.3872 16.2842 26.0006 10.4632 26.0006C4.67847 26.0006 0 21.3872 0 15.8203L0 0.696009Z" transform="translate(27 66.00195)" id="Fill-70" fill="#5CE0CF" fill-rule="evenodd" stroke="none" />
    <path d="M14.7062 17.2111L12.0005 11.1698L11.9644 11.1698L9.2936 17.2111L14.7062 17.2111ZM0.0710183 25.0482L11.2166 0.402525C11.3238 0.182122 11.573 0 11.8223 0L12.1787 0C12.4268 0 12.6772 0.182122 12.7832 0.402525L23.9288 25.0482C24.142 25.525 23.8578 26.0006 23.3232 26.0006L19.3711 26.0006C18.7294 26.0006 18.4451 25.7813 18.1248 25.0853L16.8424 22.1922L7.15742 22.1922L5.87503 25.1213C5.69796 25.5609 5.30659 26.0006 4.59377 26.0006L0.677812 26.0006C0.143202 26.0006 -0.142149 25.525 0.0710183 25.0482L0.0710183 25.0482Z" transform="translate(50 66.00195)" id="Fill-72" fill="#5CE0CF" fill-rule="evenodd" stroke="none" />
    <path d="M10.8121 10.6788C12.2651 10.6788 13.5058 9.32119 13.5058 7.82102C13.5058 6.32085 12.2651 5.10691 10.8121 5.10691L5.56492 5.10691L5.56492 10.6788L10.8121 10.6788ZM0 0.677678C0 0.321303 0.284085 0 0.673719 0L11.2724 0C15.527 0 19 3.46419 19 7.71354C19 11.0001 16.8385 13.6429 13.754 14.8931L18.6104 23.9642C18.8596 24.4292 18.6104 25.0006 18.0085 25.0006L13.2936 25.0006C13.0095 25.0006 12.7973 24.8218 12.7266 24.6793L8.01164 15.2144L5.56492 15.2144L5.56492 24.3229C5.56492 24.6793 5.24603 25.0006 4.89232 25.0006L0.673719 25.0006C0.284085 25.0006 0 24.6793 0 24.3229L0 0.677678Z" transform="translate(77 66.00195)" id="Fill-74" fill="#5CE0CF" fill-rule="evenodd" stroke="none" />
    <path d="M14.7074 17.2111L12.0005 11.1698L11.9644 11.1698L9.29473 17.2111L14.7074 17.2111ZM0.0710183 25.0482L11.2155 0.402525C11.3238 0.182122 11.573 0 11.8212 0L12.1787 0C12.428 0 12.6761 0.182122 12.7844 0.402525L23.9288 25.0482C24.142 25.525 23.8578 26.0006 23.3232 26.0006L19.3711 26.0006C18.7294 26.0006 18.4451 25.7813 18.1237 25.0853L16.8424 22.1922L7.15742 22.1922L5.87503 25.1213C5.69796 25.5609 5.30659 26.0006 4.59377 26.0006L0.677812 26.0006C0.143202 26.0006 -0.142149 25.525 0.0710183 25.0482L0.0710183 25.0482Z" transform="translate(98 66.00195)" id="Fill-76" fill="#5CE0CF" fill-rule="evenodd" stroke="none" />
    <path d="M0 0.649729C0 0.28826 0.329896 0 0.694517 0L1.60781 0L16.1892 13.8674L16.2262 13.8674L16.2262 1.04666C16.2262 0.686333 16.5179 0.361469 16.9196 0.361469L21.3055 0.361469C21.6701 0.361469 22 0.686333 22 1.04666L22 25.3497C22 25.7123 21.6701 26.0006 21.3055 26.0006L20.7198 26.0006C20.6121 26.0006 20.3181 25.8919 20.2452 25.8198L5.8108 11.4835L5.77376 11.4835L5.77376 24.9539C5.77376 25.3142 5.48206 25.6391 5.0804 25.6391L0.730401 25.6391C0.365779 25.6391 0.0358834 25.3142 0.0358834 24.9539L0 0.649729Z" transform="translate(126 66.00195)" id="Fill-78" fill="#5CE0CF" fill-rule="evenodd" stroke="none" />
    <path d="M5.71433 5.25035L0.669186 5.25035C0.281527 5.25035 0 4.92907 0 4.57158L0 0.678779C0 0.32242 0.281527 0 0.669186 0L16.3297 0C16.7185 0 17 0.32242 17 0.678779L17 4.57158C17 4.92907 16.7185 5.25035 16.3297 5.25035L11.2868 5.25035L11.2868 24.3218C11.2868 24.6793 10.9684 25.0006 10.6154 25.0006L6.38464 25.0006C6.03049 25.0006 5.71433 24.6793 5.71433 24.3218L5.71433 5.25035Z" transform="translate(151 66.00195)" id="Fill-80" fill="#5CE0CF" fill-rule="evenodd" stroke="none" />
    <path d="M0 0.678779C0 0.32242 0.282551 0 0.67274 0L15.3273 0C15.7174 0 16 0.32242 16 0.678779L16 4.57158C16 4.92907 15.7174 5.25035 15.3273 5.25035L5.52095 5.25035L5.52095 9.67939L13.5927 9.67939C13.9459 9.67939 14.2655 10.0007 14.2655 10.3582L14.2655 14.2498C14.2655 14.6435 13.9459 14.9297 13.5927 14.9297L5.52095 14.9297L5.52095 19.7502L15.3273 19.7502C15.7174 19.7502 16 20.0726 16 20.429L16 24.3218C16 24.6793 15.7174 25.0006 15.3273 25.0006L0.67274 25.0006C0.282551 25.0006 0 24.6793 0 24.3218L0 0.678779Z" transform="translate(172 66.00195)" id="Fill-82" fill="#5CE0CF" fill-rule="evenodd" stroke="none" />
    <g id="Group-86" transform="translate(194 66.00195)">
      <path d="M0 0L16 0L16 25.0006L0 25.0006L0 0Z" id="Clip-85" fill="none" fill-rule="evenodd" stroke="none" />
      <g clip-path="url(#mask_2)">
        <path d="M0 0.678779C0 0.32242 0.284779 0 0.672707 0L15.3265 0C15.7167 0 16.0003 0.32242 16.0003 0.678779L16.0003 4.57158C16.0003 4.92907 15.7167 5.25035 15.3265 5.25035L5.52292 5.25035L5.52292 9.67939L13.592 9.67939C13.9463 9.67939 14.2648 10.0007 14.2648 10.3582L14.2648 14.2498C14.2648 14.6435 13.9463 14.9297 13.592 14.9297L5.52292 14.9297L5.52292 19.7502L15.3265 19.7502C15.7167 19.7502 16.0003 20.0726 16.0003 20.429L16.0003 24.3218C16.0003 24.6793 15.7167 25.0006 15.3265 25.0006L0.672707 25.0006C0.284779 25.0006 0 24.6793 0 24.3218L0 0.678779Z" id="Fill-84" fill="#5CE0CF" fill-rule="evenodd" stroke="none" />
      </g>
    </g>
  </g>
</svg>