<svg id="vs" xmlns="http://www.w3.org/2000/svg" width="75" height="75" viewBox="0 0 75 75">
  <circle id="Oval" cx="37.5" cy="37.5" r="37.5" fill="#fff"/>
  <path id="VS." d="M35.784,17.226A2.247,2.247,0,0,1,38,14.985a2.271,2.271,0,0,1,2.241,2.241A2.247,2.247,0,0,1,38,19.44,2.224,2.224,0,0,1,35.784,17.226Zm-15.219.108c-.243-.243-.378-.378-.135-.81L21.4,14.85a.626.626,0,0,1,.918-.189c.135.081,2.322,1.674,4.077,1.674a2.254,2.254,0,0,0,2.457-2.079c0-1.377-1.161-2.322-3.429-3.24C22.887,9.99,20.349,8.37,20.349,5.184c0-2.4,1.782-5.184,6.075-5.184a9.506,9.506,0,0,1,5.4,1.809.669.669,0,0,1,.162.891L30.96,4.239a.711.711,0,0,1-.945.324,8.883,8.883,0,0,0-3.753-1.485,2.15,2.15,0,0,0-2.376,1.89c0,1.269,1,2.133,3.186,3.024,2.619,1.053,5.643,2.619,5.643,6.1,0,2.781-2.4,5.346-6.21,5.346A8.686,8.686,0,0,1,20.565,17.334ZM8.856,19.44a.485.485,0,0,1-.459-.3L.054.972A.477.477,0,0,1,.513.27H3.267a.5.5,0,0,1,.459.3L8.91,12.177H9.1L14.283.567a.5.5,0,0,1,.459-.3H17.5a.477.477,0,0,1,.459.7L9.585,19.143a.485.485,0,0,1-.459.3Z" transform="translate(16.318 26.83)" fill="#00237e"/>
</svg>
