<?xml version="1.0" encoding="UTF-8"?><svg version="1.1" width="16px" height="16px" viewBox="0 0 16.0 16.0" xmlns="http://www.w3.org/2000/svg" xmlns:xlink="http://www.w3.org/1999/xlink"><defs><clipPath id="i0"><path d="M8,0 C12.418278,0 16,3.581722 16,8 C16,12.418278 12.418278,16 8,16 C3.581722,16 0,12.418278 0,8 C0,3.581722 3.581722,0 8,0 Z"></path></clipPath><clipPath id="i1"><path d="M7.10517502,0 C7.24888308,0 7.37114161,0.0470294118 7.47166739,0.141052941 L8.2048032,0.826252941 C8.30534786,0.920311765 8.355743,1.03454118 8.355743,1.16885294 C8.355743,1.30323529 8.30534786,1.41744706 8.2048032,1.51150588 L4.30187654,5.15922353 L3.56870298,5.84442353 C3.46806391,5.93839412 3.34584314,5.98549412 3.20213508,5.98549412 C3.05837037,5.98549412 2.9361496,5.93851765 2.83556718,5.84442353 L2.10237473,5.15922353 L0.150939724,3.33541765 C0.0503006536,3.24139412 0,3.12705882 0,2.99278235 C0,2.8584 0.0503006536,2.74417059 0.150939724,2.65012941 L0.884075527,1.96491176 C0.984714597,1.87085294 1.1068976,1.82387647 1.25070007,1.82387647 C1.39440813,1.82387647 1.51659114,1.87085294 1.61723021,1.96491176 L3.20213508,3.45123529 L6.73855047,0.141052941 C6.83907625,0.0470294118 6.96133479,0 7.10517502,0 Z"></path></clipPath></defs><g clip-path="url(#i0)"><polygon points="0,0 16,0 16,16 0,16 0,0" stroke="none" fill="#DDFF8E"></polygon></g><g transform="translate(3.333333333333333 5.333333333333335)"><g transform=""><g clip-path="url(#i1)"><polygon points="0,0 8.355743,0 8.355743,5.98549412 0,5.98549412 0,0" stroke="none" fill="#000000"></polygon></g></g></g></svg>