<?xml version="1.0" encoding="UTF-8"?>
<svg width="83px" height="32px" viewBox="0 0 83 32" version="1.1" xmlns="http://www.w3.org/2000/svg" xmlns:xlink="http://www.w3.org/1999/xlink">
    <title>l1@1x</title>
    <g id="Page-1" stroke="none" stroke-width="1" fill="none" fill-rule="evenodd">
        <g id="l1" fill="#000000" fill-rule="nonzero">
            <g id="hp_logo-copy-4">
                <path d="M32.5758554,6.3864099 C32.5758554,7.62127886 32.598692,7.79832904 33.272901,7.85659871 L33.6446587,7.89245698 C33.7139945,7.93955083 33.6910989,8.1509353 33.621055,8.18604651 C32.9594149,8.16285817 32.5640536,8.15090541 32.0993565,8.15090541 C31.6346594,8.15090541 31.2282339,8.16285817 30.4847186,8.18604651 C30.4153828,8.15090541 30.3917791,7.95072666 30.4847186,7.89245698 L30.9029459,7.85659871 C31.5653237,7.79832904 31.6235952,7.62127886 31.6235952,6.3864099 L31.6235952,1.12794494 C31.6235952,0.76338593 31.6235952,0.751433175 31.2747036,0.751433175 L30.6359295,0.751433175 C30.1365646,0.751433175 29.4977905,0.774561755 29.2071704,1.04576976 C28.9283521,1.30424807 28.8125467,1.56272639 28.6849394,1.85706297 C28.592,1.92803245 28.4289872,1.86901573 28.3825175,1.77488778 C28.5683963,1.2459784 28.7424733,0.492954858 28.8243485,0.022315147 C28.8590164,-0.00159036217 29.0094897,-0.0127661877 29.0448952,0.022315147 C29.114231,0.398826916 29.4977905,0.386874161 30.0318233,0.386874161 L34.736328,0.386874161 C35.3633003,0.386874161 35.4680415,0.362968652 35.6421185,0.0574263635 C35.7003606,0.0335208544 35.8279974,0.0454736089 35.851601,0.0925674619 C35.7232561,0.575159927 35.6421185,1.52764506 35.6767864,1.88099836 C35.6310543,1.97512631 35.4333737,1.97512631 35.3751021,1.90412694 C35.3404047,1.61053741 35.2592967,1.17500891 35.084482,1.04576976 C34.8174656,0.845561117 34.3763722,0.751433175 33.7375981,0.751433175 L32.9129452,0.751433175 C32.5640536,0.751433175 32.5758554,0.76338593 32.5758554,1.15110341 L32.5758554,6.3864099 L32.5758554,6.3864099 Z" id="path3321"></path>
                <path d="M39.841324,3.79898238 C39.2982192,3.79898238 39.2752306,3.82168846 39.2752306,4.15660311 L39.2752306,5.73183731 C39.2752306,6.90545774 39.3319549,7.06156203 39.965606,7.1289707 L40.2939114,7.16229187 C40.3614403,7.20702285 40.3391414,7.40780135 40.2709229,7.44186047 C39.6602891,7.41915439 39.2752306,7.40780135 38.8341375,7.40780135 C38.3477857,7.40780135 37.9634456,7.43050743 37.5223525,7.44186047 C37.4541052,7.40780135 37.431835,7.22970054 37.4993639,7.16229187 L37.6918931,7.1289707 C38.3255155,7.01685944 38.3477857,6.90545774 38.3477857,5.73183731 L38.3477857,1.70931359 C38.3477857,0.536402722 38.2687625,0.346239315 37.6803989,0.301536723 L37.3865762,0.279568592 C37.3183289,0.234894382 37.3413462,0.0333495528 37.4088752,0 C37.9634743,0.0113530393 38.3478144,0.0333779354 38.8341662,0.0333779354 C39.2752593,0.0333779354 39.6603178,0.0220248962 40.1466697,0 C40.214917,0.0333779354 40.2371871,0.234866 40.1696582,0.279568592 L39.9541404,0.301536723 C39.2982479,0.368945393 39.2752593,0.536402722 39.2752593,1.70931359 L39.2752593,2.99433572 C39.2752593,3.34060342 39.2982479,3.35195646 39.8413528,3.35195646 L43.0769934,3.35195646 C43.6193799,3.35195646 43.6423684,3.34060342 43.6423684,2.99433572 L43.6423684,1.70931359 C43.6423684,0.536402722 43.6193799,0.368945393 42.9519931,0.301536723 L42.7371937,0.279568592 C42.6696648,0.234894382 42.6919637,0.0333495528 42.7601822,0 C43.2802985,0.0220248962 43.665357,0.0333779354 44.1287203,0.0333779354 C44.5698134,0.0333779354 44.9548719,0.0220248962 45.4634939,0 C45.5317412,0.0333779354 45.5540114,0.234866 45.4864825,0.279568592 L45.2486945,0.301536723 C44.592802,0.368945393 44.5698134,0.536402722 44.5698134,1.70931359 L44.5698134,5.73183731 C44.5698134,6.90545774 44.592802,7.05020899 45.2486945,7.1289707 L45.5202469,7.16229187 C45.5884942,7.20702285 45.5654769,7.40780135 45.4980055,7.44186047 C44.9549006,7.41915439 44.5698421,7.40780135 44.128749,7.40780135 C43.6653857,7.40780135 43.2580571,7.41915439 42.760211,7.44186047 C42.6919637,7.40780135 42.6696935,7.22970054 42.7372224,7.16229187 L42.9520218,7.1289707 C43.6423972,7.01685944 43.6423972,6.90545774 43.6423972,5.73183731 L43.6423972,4.15660311 C43.6423972,3.82168846 43.6194086,3.79898238 43.0770221,3.79898238 L39.8413815,3.79898238 L39.841324,3.79898238 Z" id="path3325"></path>
                <path d="M48.8841839,1.70949845 C48.8841839,0.547124659 48.8618914,0.379652001 48.2147104,0.301592711 L48.0391565,0.278884554 C47.9736721,0.234149485 47.9959646,0.0333526057 48.061449,0 C48.5330761,0.021970142 48.9057799,0.0333809909 49.355811,0.0333809909 L51.4185697,0.0333809909 C52.1200888,0.0333809909 52.7679664,0.0333809909 52.8996319,0 C52.9651163,0.189471186 53.0312973,0.994191502 53.0744892,1.48596503 C53.0312973,1.55337987 52.8557434,1.5753784 52.8007086,1.50867319 C52.636301,0.982837423 52.5373777,0.591831344 51.9668274,0.446357212 C51.7362387,0.39100608 51.3851309,0.379652001 50.9030542,0.379652001 L50.1130615,0.379652001 C49.7835495,0.379652001 49.7835495,0.401622143 49.7835495,0.826718843 L49.7835495,3.06134343 C49.7835495,3.37429021 49.8169884,3.37429021 50.1458037,3.37429021 L50.7818384,3.37429021 C51.2430158,3.37429021 51.5829774,3.35232007 51.7146428,3.307585 C51.8463083,3.26284993 51.9229389,3.19546348 51.9779737,2.91657892 L52.0657507,2.458158 C52.1200888,2.39145279 52.306789,2.39145279 52.3506775,2.46951208 C52.3506775,2.73775219 52.3067612,3.17346495 52.3067612,3.59782364 C52.3067612,4.00018379 52.3506775,4.42525211 52.3506775,4.67078406 C52.3067612,4.74884335 52.1200888,4.74884335 52.0657507,4.68213814 L51.9668274,4.24642537 C51.9229111,4.04489048 51.8463083,3.87741782 51.6268658,3.82135706 C51.4729078,3.77662199 51.2095769,3.76526791 50.7818384,3.76526791 L50.1458037,3.76526791 C49.8169884,3.76526791 49.7835495,3.77662199 49.7835495,4.06757025 L49.7835495,5.64294865 C49.7835495,6.23548962 49.8169884,6.61514162 49.9925423,6.80532244 C50.1235111,6.93944249 50.3540998,7.06220846 51.3196465,7.06220846 C52.1639773,7.06220846 52.482343,7.01753017 52.7240779,6.89473581 C52.9212278,6.78261428 53.2173009,6.3916082 53.5029244,5.81042131 C53.579555,5.75507017 53.7335131,5.78845116 53.7774015,5.8884806 C53.7000742,6.2801963 53.425597,7.14026775 53.2827853,7.44186047 C52.2956427,7.41983355 51.3196465,7.40847947 50.3429535,7.40847947 L49.355811,7.40847947 C48.8841839,7.40847947 48.5114801,7.41983355 47.8642992,7.44186047 C47.7981181,7.40847947 47.7758256,7.22968112 47.8420066,7.16297591 L48.2042608,7.12891368 C48.8291492,7.07356254 48.8841839,6.90538025 48.8841839,5.73236202 L48.8841839,1.70947006 L48.8841839,1.70949845 Z" id="path3329"></path>
                <path d="M2.49592059,15.7059301 C1.95281498,15.7059301 1.93054478,15.7278981 1.93054478,16.0635482 L1.93054478,17.6387703 C1.93054478,18.8123818 1.98657948,18.9684849 2.62020269,19.0358931 L2.94850859,19.0692708 C3.01603759,19.1139446 2.99376739,19.3147784 2.92551999,19.3488372 C2.31488539,19.3261313 1.93054478,19.3147784 1.48873268,19.3147784 C1.00238017,19.3147784 0.618039569,19.3374843 0.176945864,19.3488372 C0.108698466,19.3147784 0.0864282629,19.1366789 0.153957267,19.0692708 L0.346486767,19.0358931 C0.980109971,18.9237827 1.00238017,18.8123818 1.00238017,17.6387703 L1.00238017,13.6162773 C1.00238017,12.4433754 0.923356873,12.2532134 0.334992468,12.2085112 L0.0411694626,12.1865432 C-0.0270779348,12.1418126 -0.00408933777,11.940326 0.0634396659,11.9069767 C0.618039569,11.9183297 1.00238017,11.9402977 1.48873268,11.9402977 C1.93054478,11.9402977 2.31488539,11.9289447 2.80123789,11.9069767 C2.86948529,11.9402977 2.89175549,12.141841 2.82422649,12.1865432 L2.60870839,12.2085112 C1.95281498,12.2759193 1.93054478,12.4433754 1.93054478,13.6162773 L1.93054478,14.9012896 C1.93054478,15.2475547 1.95281498,15.2589076 2.49592059,15.2589076 L5.73156561,15.2589076 C6.27395283,15.2589076 6.29694142,15.2475547 6.29694142,14.9012896 L6.29694142,13.6162773 C6.29694142,12.4433754 6.27395283,12.2759193 5.60728351,12.2085112 L5.39176542,12.1865432 C5.32423641,12.1418126 5.34650662,11.940326 5.41475401,11.9069767 C5.93487102,11.9289447 6.31993002,11.9402977 6.78329393,11.9402977 C7.22438763,11.9402977 7.60944663,11.9289447 8.11806934,11.9069767 C8.18631674,11.9402977 8.20858694,12.141841 8.14105794,12.1865432 L7.90326964,12.2085112 C7.24737623,12.2759193 7.22438763,12.4433754 7.22438763,13.6162773 L7.22438763,17.6387703 C7.22438763,18.8123818 7.24737623,18.957132 7.90326964,19.0358931 L8.17482244,19.0692708 C8.24306984,19.1139446 8.22008124,19.3147784 8.15255224,19.3488372 C7.60944663,19.3261313 7.22438763,19.3147784 6.78329393,19.3147784 C6.31993002,19.3147784 5.91260082,19.3261313 5.41475401,19.3488372 C5.34650662,19.3147784 5.32423641,19.1366789 5.39176542,19.0692708 L5.60728351,19.0358931 C6.29694142,18.9237827 6.29694142,18.8123818 6.29694142,17.6387703 L6.29694142,16.0635482 C6.29694142,15.7279265 6.27395283,15.7059301 5.73156561,15.7059301 L2.49592059,15.7059301 L2.49592059,15.7059301 Z" id="path3333"></path>
                <path d="M16.3805705,14.6908019 C16.3805705,14.0115485 16.3569395,12.7511717 16.1597683,12.4219844 C16.0785367,12.2904487 15.8688116,12.2138935 15.5785934,12.1923188 L15.2876366,12.1700482 C15.2174821,12.093493 15.2411131,11.950822 15.3105292,11.9069767 C15.752872,11.9292473 16.1826608,11.9403826 16.6360807,11.9403826 C17.124947,11.9403826 17.4387963,11.9292473 17.8575081,11.9069767 C17.9505552,11.9619295 17.9387397,12.1046283 17.8804006,12.1700482 L17.6012594,12.1923188 C17.3110412,12.2139213 17.090239,12.3127193 17.0200845,12.4553903 C16.8576213,12.8165916 16.8576213,14.0769684 16.8576213,14.6908019 L16.8576213,15.929604 C16.8576213,16.8830641 16.6944197,17.8908088 16.0430902,18.5484875 C15.5431468,19.0634951 14.6828307,19.3488372 13.8225145,19.3488372 C13.0197989,19.3488372 12.2178218,19.2061662 11.6477239,18.7461391 C11.0311024,18.2638414 10.7408842,17.4634917 10.7408842,16.1592696 L10.7408842,13.5730961 C10.7408842,12.4331197 10.7172532,12.2472994 10.0430311,12.1923188 L9.75207441,12.1700482 C9.68191987,12.1261751 9.70555088,11.9403826 9.77570541,11.9069767 C10.3568804,11.9292473 10.7519612,11.9403826 11.2171965,11.9403826 C11.6942474,11.9403826 12.0782512,11.9292473 12.6476106,11.9069767 C12.7177652,11.9403826 12.7406577,12.126203 12.6712416,12.1700482 L12.3921004,12.1923188 C11.7171399,12.2473272 11.6942474,12.4331197 11.6942474,13.5730961 L11.6942474,15.9400434 C11.6942474,17.7049885 12.2754223,18.8665395 14.0551322,18.8665395 C15.7410565,18.8665395 16.3805705,17.617298 16.3805705,15.9511787 L16.3805705,14.6908019 L16.3805705,14.6908019 Z" id="path3337"></path>
                <path d="M21.3904337,15.0914232 C21.3904337,15.392986 21.4249089,15.392986 21.7718617,15.392986 L22.5574567,15.392986 C23.0305742,15.392986 23.400266,15.371018 23.5389004,15.3262874 C23.6657985,15.2815568 23.7582215,15.22553 23.8279055,14.9346105 L23.9320646,14.487588 C23.9892789,14.4208894 24.185861,14.4208894 24.2320725,14.487588 C24.2320725,14.7558015 24.185861,15.202824 24.185861,15.6164973 C24.185861,16.0188175 24.2320725,16.4431341 24.2320725,16.7007042 C24.185861,16.7674028 24.0127513,16.7674028 23.9320646,16.7007042 L23.8161692,16.2643251 C23.7582215,16.0635198 23.6657985,15.9067071 23.4464774,15.8400085 C23.285104,15.7952779 22.996099,15.7839817 22.5574567,15.7839817 L21.7718617,15.7839817 C21.4249089,15.7839817 21.3904337,15.7953346 21.3904337,16.0862541 L21.3904337,17.6387703 C21.3904337,18.8123818 21.4139062,18.9798379 22.095342,19.0358931 L22.4877728,19.0692708 C22.5574567,19.1139446 22.5339842,19.3147784 22.4650338,19.3488372 C21.7828644,19.3261313 21.3904337,19.3147784 20.928319,19.3147784 C20.4199928,19.3147784 20.027562,19.3261313 19.4847606,19.3488372 C19.4150766,19.3147784 19.3923376,19.1366789 19.4612881,19.0692708 L19.7502932,19.0358931 C20.4199928,18.957132 20.4434653,18.8123818 20.4434653,17.6387703 L20.4434653,13.6162773 C20.4434653,12.4433754 20.4199928,12.2865627 19.7502932,12.2085112 L19.5654473,12.1865432 C19.4964968,12.1418126 19.5192358,11.940326 19.5881863,11.9069767 C20.0737735,11.9289447 20.4662042,11.9402977 20.928319,11.9402977 L23.0540467,11.9402977 C23.7934302,11.9402977 24.4631298,11.9402977 24.6135005,11.9069767 C24.6135005,12.4206979 24.6245032,12.9571249 24.6479757,13.382151 C24.6135005,13.4488496 24.4513936,13.4821989 24.3707069,13.4154719 C24.2782839,12.9123942 24.1396495,12.4994306 23.5623729,12.3539709 C23.307843,12.2865343 22.926415,12.2865343 22.4415613,12.2865343 L21.7373865,12.2865343 C21.3904337,12.2865343 21.3904337,12.3092402 21.3904337,12.7335568 L21.3904337,15.0914232 L21.3904337,15.0914232 Z" id="path3341"></path>
                <path d="M28.1126089,15.0914232 C28.1126089,15.392986 28.1470841,15.392986 28.4940369,15.392986 L29.2796319,15.392986 C29.7527494,15.392986 30.1224412,15.371018 30.2610756,15.3262874 C30.3879737,15.2815568 30.4803967,15.22553 30.5500806,14.9346105 L30.6542398,14.487588 C30.711454,14.4208894 30.9080362,14.4208894 30.9542477,14.487588 C30.9542477,14.7558015 30.9080362,15.202824 30.9080362,15.6164973 C30.9080362,16.0188175 30.9542477,16.4431341 30.9542477,16.7007042 C30.9080362,16.7674028 30.7349265,16.7674028 30.6542398,16.7007042 L30.5383444,16.2643251 C30.4803967,16.0635198 30.3879737,15.9067071 30.1686526,15.8400085 C30.0072792,15.7952779 29.7182741,15.7839817 29.2796319,15.7839817 L28.4940369,15.7839817 C28.1470841,15.7839817 28.1126089,15.7953346 28.1126089,16.0862541 L28.1126089,17.6387703 C28.1126089,18.8123818 28.1360814,18.9798379 28.8175172,19.0358931 L29.209948,19.0692708 C29.2796319,19.1139446 29.2561594,19.3147784 29.187209,19.3488372 C28.5050396,19.3261313 28.1126089,19.3147784 27.6504941,19.3147784 C27.142168,19.3147784 26.7497372,19.3261313 26.2069358,19.3488372 C26.1372518,19.3147784 26.1145128,19.1366789 26.1834633,19.0692708 L26.4724684,19.0358931 C27.142168,18.957132 27.1656404,18.8123818 27.1656404,17.6387703 L27.1656404,13.6162773 C27.1656404,12.4433754 27.142168,12.2865627 26.4724684,12.2085112 L26.2876225,12.1865432 C26.218672,12.1418126 26.241411,11.940326 26.3103615,11.9069767 C26.7959487,11.9289447 27.1883794,11.9402977 27.6504941,11.9402977 L29.7762219,11.9402977 C30.5156054,11.9402977 31.185305,11.9402977 31.3356757,11.9069767 C31.3356757,12.4206979 31.3466784,12.9571249 31.3701509,13.382151 C31.3356757,13.4488496 31.1735688,13.4821989 31.0928821,13.4154719 C31.0004591,12.9123942 30.8618247,12.4994306 30.2845481,12.3539709 C30.0300182,12.2865627 29.6485902,12.2865627 29.1637365,12.2865627 L28.4588282,12.2865627 C28.1126089,12.2865627 28.1126089,12.3092686 28.1126089,12.7335852 L28.1126089,15.0914516 L28.1126089,15.0914232 Z" id="path3345"></path>
                <path d="M34.6358191,13.6389832 C34.6358191,12.4547283 34.6125801,12.2645664 33.9379217,12.2085112 L33.6525173,12.1865432 C33.5835264,12.1418126 33.6067945,11.940326 33.6750011,11.9069767 C34.2472624,11.9296826 34.6357901,11.9402977 35.1158214,11.9402977 C35.57334,11.9402977 35.9625939,11.9296826 36.534129,11.9069767 C36.6031199,11.9402977 36.6256327,12.141841 36.5566709,12.1865432 L36.2712664,12.2085112 C35.5966081,12.264538 35.5733691,12.4547283 35.5733691,13.6389832 L35.5733691,17.616774 C35.5733691,18.8010289 35.5966081,18.957132 36.2712664,19.0358931 L36.5566709,19.0692708 C36.6256618,19.1140014 36.6031489,19.3154879 36.534129,19.3488372 C35.9625939,19.3261313 35.57334,19.3154595 35.1158214,19.3154595 C34.6357901,19.3154595 34.2472624,19.3261313 33.6750011,19.3488372 C33.6067364,19.3154595 33.5834973,19.1366789 33.6525173,19.0692708 L33.9379217,19.0358931 C34.6125801,18.957132 34.6358191,18.8010289 34.6358191,17.616774 L34.6358191,13.6389832 Z" id="path3349"></path>
                <path d="M45.3097232,17.3101906 C45.3097232,17.6394087 45.3097232,18.9430568 45.3430765,19.2284255 C45.3210872,19.2938515 45.2535851,19.3488372 45.1307119,19.3488372 C44.9964748,19.1623035 44.6718909,18.7787957 43.6988494,17.6936984 L41.1043087,14.8003376 C40.8024527,14.4606791 40.0417757,13.5614195 39.8066832,13.3205961 L39.7846371,13.3205961 C39.7399198,13.4521442 39.7285558,13.7041039 39.7285558,14.033322 L39.7285558,16.4227634 C39.7285558,16.9378192 39.7399198,18.3625749 39.9295564,18.691097 C39.99703,18.8122047 40.2207586,18.8776307 40.5005968,18.8992074 L40.8471984,18.9326164 C40.9139619,19.0203151 40.9032797,19.1518632 40.8244705,19.2061528 C40.321614,19.184604 39.9295564,19.1734677 39.5161913,19.1734677 C39.0460062,19.1734677 38.7441503,19.184604 38.3528029,19.2061528 C38.2746755,19.1518632 38.2633115,18.9980424 38.3308136,18.9326164 L38.6326696,18.8992074 C38.8897798,18.8664666 39.0687626,18.8010684 39.1248723,18.6799607 C39.2811272,18.2860126 39.2697632,16.9489555 39.2697632,16.4227634 L39.2697632,13.2544741 C39.2697632,12.9482247 39.2583992,12.7178416 39.0240169,12.4658819 C38.8670518,12.3120612 38.5992878,12.2354988 38.3308136,12.2027858 L38.1404668,12.1805131 C38.0729931,12.1150871 38.0729931,11.9508261 38.1625129,11.9069767 C38.632698,11.9396619 39.2250459,11.9396619 39.4267567,11.9396619 C39.6057395,11.9396619 39.7960863,11.9285256 39.9409772,11.9069767 C40.1647057,12.4658819 41.4843489,13.9129103 41.8536785,14.3179948 L42.9382292,15.5130635 C43.7102702,16.3566413 44.2585826,16.9705322 44.7841671,17.4967243 L44.8062132,17.4967243 C44.8509305,17.4417665 44.8509305,17.2663413 44.8509305,17.0359582 L44.8509305,14.6903662 C44.8509305,14.1753104 44.8395666,12.7505546 44.627202,12.4220326 C44.5604386,12.3231975 44.3814558,12.2577715 43.9339987,12.2027858 L43.7436519,12.1805131 C43.6655245,12.1150871 43.6768885,11.9396897 43.7663799,11.9069767 C44.2806004,11.9285256 44.661294,11.9396619 45.0860231,11.9396619 C45.5668618,11.9396619 45.858064,11.9285256 46.2380474,11.9069767 C46.3275388,11.9612664 46.3275388,12.1150871 46.2607754,12.1805131 L46.1038103,12.2027858 C45.7458447,12.2577437 45.5221161,12.3447742 45.4773704,12.4331689 C45.2870236,12.827117 45.3097516,14.1864467 45.3097516,14.6903662 L45.3097516,17.3101906 L45.3097232,17.3101906 Z" id="path3353"></path>
                <path d="M54.5557604,18.6972561 C54.5557604,19.1705249 54.6234391,19.4544861 54.8250505,19.5371203 C54.8585622,19.5724577 54.8585622,19.6437936 54.813652,19.6791009 C54.6790069,19.6791009 54.4773955,19.7264578 54.2636732,19.785023 C53.6695251,19.9510426 52.8616547,20.0930233 52.2553957,20.0930233 C50.9210559,20.0930233 49.6978518,19.70314 48.8337012,18.7798903 C48.1611882,18.0699873 47.8021347,17.1354693 47.8021347,16.0942781 C47.8021347,15.0891455 48.1163065,14.0719934 48.8116165,13.2907244 C49.5632067,12.4628797 50.6738504,11.9069767 52.3679561,11.9069767 C53.0076983,11.9069767 53.6018464,12.0369378 53.7927716,12.0842647 C54.0057816,12.1316216 54.3534366,12.2142258 54.4880816,12.190938 C54.4880816,12.5815725 54.5557604,13.1968218 54.6569223,13.9059737 C54.6234676,14.0006274 54.4211153,14.012647 54.3534366,13.9420323 C54.0399771,12.6642067 53.1979112,12.2615527 52.0537843,12.2615527 C49.8773785,12.2615527 48.9234645,13.8947054 48.9234645,15.6690875 C48.9234645,17.9400262 50.0341083,19.7264278 52.2895913,19.7264278 C52.9849012,19.7264278 53.400235,19.5724277 53.5234815,19.3711006 C53.5790493,19.2884664 53.6360419,19.0758711 53.6360419,18.6972561 L53.6360419,18.2239874 C53.6360419,17.2301231 53.6018464,17.1595084 52.9065364,17.0761229 L52.4128378,17.0175278 C52.3230744,16.9701708 52.3344729,16.7568544 52.4128378,16.721547 C52.7384081,16.745586 53.3553533,16.7568844 54.0171801,16.7568844 C54.4545985,16.7568844 54.836449,16.745586 55.2061887,16.721547 C55.2852659,16.7689039 55.295952,16.9461618 55.2175872,17.0175278 L55.0380604,17.0407855 C54.5664465,17.1001019 54.5557604,17.43142 54.5557604,18.0346499 L54.5557604,18.6972261 L54.5557604,18.6972561 Z" id="path3357"></path>
                <path d="M60.2114645,17.5492059 C60.2114645,18.7840712 60.2350682,18.9611209 60.9085102,19.0193904 L61.2802678,19.0552485 C61.3496036,19.1023423 61.326708,19.3137261 61.2566642,19.3488372 C60.595024,19.3257087 60.2004003,19.313756 59.7349656,19.313756 C59.2710062,19.313756 58.8645806,19.3257087 58.1203277,19.3488372 C58.0509919,19.313756 58.0281259,19.1135181 58.1203277,19.0552485 L58.5392927,19.0193904 C59.2009328,18.9611209 59.2592043,18.7840712 59.2592043,17.5492059 L59.2592043,12.2907566 C59.2592043,11.9261986 59.2592043,11.9142459 58.9110503,11.9142459 L58.2715386,11.9142459 C57.7721737,11.9142459 57.1333996,11.9373744 56.8427795,12.2085816 C56.5639613,12.4670592 56.4481558,12.7262838 56.3205485,13.0198724 C56.2276091,13.0908417 56.0645963,13.0318252 56.0181266,12.9376975 C56.2047431,12.4087897 56.3788201,11.6557684 56.4599576,11.1851301 C56.494596,11.1612246 56.6458365,11.1499891 56.6805044,11.1851301 C56.7498401,11.5616407 57.1333996,11.549688 57.6681701,11.549688 L62.3719372,11.549688 C62.9989094,11.549688 63.1036507,11.5257825 63.2777277,11.2202412 C63.3359697,11.1963357 63.4636065,11.2082884 63.4872102,11.2553822 C63.3588653,11.7379732 63.2777277,12.6904555 63.3123955,13.0438078 C63.2666634,13.1379354 63.0689828,13.1379354 63.0107112,13.0669363 C62.9760139,12.7733476 62.8949058,12.3378204 62.7200912,12.2085816 C62.4530748,12.0083736 62.0119813,11.9142459 61.3732073,11.9142459 L60.5485543,11.9142459 C60.2004003,11.9142459 60.2114645,11.9261986 60.2114645,12.313915 L60.2114645,17.5492059 L60.2114645,17.5492059 Z" id="path3361"></path>
                <path d="M64.9810269,16.0830098 C64.9810269,13.7174174 66.7340687,11.9069767 69.141718,11.9069767 C71.8417883,11.9069767 73.1970188,13.8826859 73.1970188,15.9650683 C73.1970188,18.3539485 71.3979615,20.0930233 69.141718,20.0930233 C66.547038,20.0930233 64.9810269,18.2127191 64.9810269,16.0830098 M72.028819,16.3316637 C72.028819,14.3792424 71.1753059,12.2735722 68.9428123,12.2735722 C67.7278549,12.2735722 66.1499688,13.1134364 66.1499688,15.7043949 C66.1499688,17.4554891 66.991607,19.7264278 69.293866,19.7264278 C70.6958541,19.7264278 72.028819,18.6619488 72.028819,16.3316637" id="path3365"></path>
                <path d="M81.1613464,17.3101906 C81.1613464,17.6394087 81.1613464,18.9430568 81.1946999,19.2284255 C81.1727105,19.2938515 81.1052079,19.3488372 80.9823341,19.3488372 C80.8480961,19.1623035 80.5235102,18.7787957 79.5504626,17.6936984 L76.9559342,14.8003376 C76.6540763,14.4606791 75.8933946,13.5614195 75.6583006,13.3205961 L75.6362544,13.3205961 C75.5915368,13.4521442 75.5801727,13.7041039 75.5801727,14.033322 L75.5801727,16.4227634 C75.5801727,16.9378192 75.5915368,18.3625749 75.7811745,18.691097 C75.8486486,18.8122047 76.0723785,18.8776307 76.3522185,18.8992074 L76.6988223,18.9326164 C76.7655862,19.0203151 76.7542221,19.1518632 76.6760942,19.2061528 C76.1732346,19.184604 75.7811745,19.1734677 75.3678069,19.1734677 C74.8976189,19.1734677 74.5957611,19.184604 74.2044113,19.2061528 C74.1262834,19.1518632 74.1149193,18.9980424 74.1824218,18.9326164 L74.4842796,18.8992074 C74.7413915,18.8664666 74.9203754,18.8010684 74.9764855,18.6799607 C75.1327413,18.2860126 75.1213772,16.9489555 75.1213772,16.4227634 L75.1213772,13.2544741 C75.1213772,12.9482247 75.1107518,12.7178416 74.8756294,12.4658819 C74.7186634,12.3120612 74.4508977,12.2354988 74.1824218,12.2027858 L73.9920738,12.1805131 C73.9245997,12.1150871 73.9245997,11.9508261 74.0140633,11.9069767 C74.4842512,11.9396619 75.0766028,11.9396619 75.2783149,11.9396619 C75.4572988,11.9396619 75.6476468,11.9285256 75.7925386,11.9069767 C76.0162685,12.4658819 77.3359199,13.9129103 77.7052518,14.3179948 L78.7905195,15.5130635 C79.561855,16.3566413 80.1101709,16.9705322 80.6357587,17.4967243 L80.6577481,17.4967243 C80.7025225,17.4417665 80.7025225,17.2663413 80.7025225,17.0359582 L80.7025225,14.6903662 C80.7025225,14.1753104 80.6918403,12.7505546 80.4787926,12.4220326 C80.4120287,12.3231975 80.2330448,12.2577715 79.785585,12.2027858 L79.595237,12.1805131 C79.5171091,12.1150871 79.5284731,11.9396897 79.6179651,11.9069767 C80.1321888,11.9285256 80.5128848,11.9396619 80.9376165,11.9396619 C81.4184582,11.9396619 81.708952,11.9285256 82.089648,11.9069767 C82.17914,11.9612664 82.17914,12.1150871 82.1123761,12.1805131 L81.9554101,12.2027858 C81.5974422,12.2577437 81.3737123,12.3447742 81.3289663,12.4331689 C81.1386183,12.827117 81.1613464,14.1864467 81.1613464,14.6903662 L81.1613464,17.3101906 L81.1613464,17.3101906 Z" id="path3369"></path>
                <path d="M28.7497644,29.546322 C28.7497644,30.7193358 28.7720505,30.8648094 29.4733672,30.9428684 L29.7700513,30.9769305 C29.8355168,31.0329626 29.8139271,31.2224615 29.7477651,31.255814 C29.1223606,31.2337871 28.7609075,31.2224331 28.3221493,31.2224331 C27.8618015,31.2224331 27.4669191,31.2337871 26.9842851,31.255814 C26.9181232,31.2224331 26.8965335,31.0436354 26.961999,30.9769305 L27.1925211,30.9428684 C27.8283723,30.854165 27.8506584,30.7193358 27.8506584,29.546322 L27.8506584,25.4226784 C27.8506584,24.4731972 27.8283723,24.2830171 27.3352916,24.2269565 L26.9404093,24.1829596 C26.8631043,24.115545 26.8742473,23.948073 26.961999,23.9033665 C27.5435277,23.8245979 28.2232546,23.8139535 29.1335037,23.8139535 C30.0437528,23.8139535 30.7241762,23.936719 31.2395429,24.260309 C31.7437666,24.5846086 32.1170593,25.1657933 32.1170593,25.9371581 C32.1170593,26.9646983 31.4916548,27.479178 31.0201638,27.7140646 C30.5375298,27.9482416 29.9560012,28.0490086 29.5067964,28.0490086 C29.4294914,28.0149465 29.4294914,27.8474745 29.4956533,27.8254761 C30.6803004,27.6019435 31.1079155,26.9199918 31.1079155,25.9478025 C31.1079155,24.8642017 30.482511,24.1602516 29.3417397,24.1602516 C28.7609075,24.1602516 28.7497644,24.2049865 28.7497644,24.5626102 L28.7497644,29.546322 L28.7497644,29.546322 Z" id="path3373"></path>
                <path d="M33.610876,27.9899866 C33.610876,25.6243942 35.3639178,23.8139535 37.7715671,23.8139535 C40.4716374,23.8139535 41.8268679,25.7896626 41.8268679,27.872045 C41.8268679,30.2609252 40.0270684,32 37.7715671,32 C35.1768871,32 33.610876,30.1196958 33.610876,27.9899866 M40.6586681,28.2386405 C40.6586681,26.2862192 39.805155,24.1805489 37.5726614,24.1805489 C36.357704,24.1805489 34.7798179,25.0211643 34.7798179,27.6113716 C34.7798179,29.3624659 35.6214561,31.6334045 37.9237151,31.6334045 C39.3257032,31.6334045 40.6586681,30.5689255 40.6586681,28.2386405" id="path3377"></path>
                <path d="M45.3918102,32 C44.4410471,32 43.8416999,31.6919697 43.6261073,31.5620086 C43.490284,31.3020864 43.3436811,30.4622222 43.3206846,29.9063193 C43.3774285,29.823685 43.5470567,29.799646 43.5923312,29.871042 C43.7619306,30.4742718 44.2261732,31.6334045 45.5391317,31.6334045 C46.4898948,31.6334045 46.9534188,30.9828479 46.9534188,30.2729448 C46.9534188,29.7523492 46.8513716,29.1724072 46.0256522,28.6165042 L44.9505641,27.8833133 C44.3842744,27.4926788 43.7281545,26.8188343 43.7281545,25.849009 C43.7281545,24.7244324 44.5653721,23.8139535 46.0371505,23.8139535 C46.3878477,23.8139535 46.7953176,23.8845682 47.0892421,23.9679536 C47.2365636,24.0153106 47.3946648,24.0385683 47.4852137,24.0385683 C47.5872608,24.3225296 47.6893079,24.9851058 47.6893079,25.4816623 C47.6440623,25.5530282 47.4629358,25.5883356 47.4061631,25.5177209 C47.2588415,24.9497984 46.9534188,24.1805489 45.8668324,24.1805489 C44.7579681,24.1805489 44.5200977,24.9497984 44.5200977,25.4936819 C44.5200977,26.1795459 45.0633909,26.6768537 45.482359,26.9487954 L46.3878477,27.5400057 C47.1007403,28.0012549 47.8021347,28.6878701 47.8021347,29.8116956 C47.8021347,31.1128089 46.8628699,32 45.3918102,32" id="path3381"></path>
                <path d="M53.4892599,29.4561773 C53.4892599,30.6910463 53.5128635,30.8680965 54.1863055,30.9263662 L54.5580631,30.9622244 C54.6273989,31.0093183 54.6045623,31.2207027 54.5352266,31.255814 C53.8728489,31.2326256 53.4774875,31.2206729 53.0127904,31.2206729 C52.548831,31.2206729 52.1416678,31.2326256 51.3988901,31.255814 C51.3288167,31.2206729 51.3059507,31.0212411 51.3988901,30.9622244 L51.8163799,30.9263662 C52.4787576,30.8680965 52.5370291,30.6910463 52.5370291,29.4561773 L52.5370291,24.1977124 C52.5370291,23.8331534 52.5370291,23.8212006 52.1881375,23.8212006 L51.5493634,23.8212006 C51.0499985,23.8212006 50.4112244,23.8443292 50.1206043,24.1155372 C49.8417861,24.3740155 49.7259806,24.6332409 49.5983733,24.9268304 C49.5054339,24.9977999 49.3424211,24.9387832 49.2959514,24.8446552 C49.4818302,24.3157458 49.6559073,23.5627223 49.7377825,23.0920826 C49.7724798,23.0681771 49.9236613,23.0570013 49.9583292,23.0920826 C50.0276649,23.4685944 50.4112244,23.4566416 50.9452572,23.4566416 L55.649762,23.4566416 C56.2774718,23.4566416 56.3814755,23.4327361 56.5562901,23.1271938 C56.613824,23.1032883 56.7421689,23.1152411 56.765035,23.1623349 C56.6374277,23.6449274 56.5562901,24.5974125 56.590958,24.9507658 C56.5445178,25.0448937 56.3468076,25.0448937 56.2885361,24.9738944 C56.2538387,24.6803049 56.1727306,24.2447764 55.9986536,24.1155372 C55.7308996,23.9153286 55.2898061,23.8212006 54.6510321,23.8212006 L53.8263791,23.8212006 C53.4774875,23.8212006 53.4892894,23.8331534 53.4892894,24.2216179 L53.4892894,29.4561773 L53.4892599,29.4561773 Z" id="path3385"></path>
            </g>
            <g id="hp_logo-copy-5">
                <path d="M32.5758554,6.3864099 C32.5758554,7.62127886 32.598692,7.79832904 33.272901,7.85659871 L33.6446587,7.89245698 C33.7139945,7.93955083 33.6910989,8.1509353 33.621055,8.18604651 C32.9594149,8.16285817 32.5640536,8.15090541 32.0993565,8.15090541 C31.6346594,8.15090541 31.2282339,8.16285817 30.4847186,8.18604651 C30.4153828,8.15090541 30.3917791,7.95072666 30.4847186,7.89245698 L30.9029459,7.85659871 C31.5653237,7.79832904 31.6235952,7.62127886 31.6235952,6.3864099 L31.6235952,1.12794494 C31.6235952,0.76338593 31.6235952,0.751433175 31.2747036,0.751433175 L30.6359295,0.751433175 C30.1365646,0.751433175 29.4977905,0.774561755 29.2071704,1.04576976 C28.9283521,1.30424807 28.8125467,1.56272639 28.6849394,1.85706297 C28.592,1.92803245 28.4289872,1.86901573 28.3825175,1.77488778 C28.5683963,1.2459784 28.7424733,0.492954858 28.8243485,0.022315147 C28.8590164,-0.00159036217 29.0094897,-0.0127661877 29.0448952,0.022315147 C29.114231,0.398826916 29.4977905,0.386874161 30.0318233,0.386874161 L34.736328,0.386874161 C35.3633003,0.386874161 35.4680415,0.362968652 35.6421185,0.0574263635 C35.7003606,0.0335208544 35.8279974,0.0454736089 35.851601,0.0925674619 C35.7232561,0.575159927 35.6421185,1.52764506 35.6767864,1.88099836 C35.6310543,1.97512631 35.4333737,1.97512631 35.3751021,1.90412694 C35.3404047,1.61053741 35.2592967,1.17500891 35.084482,1.04576976 C34.8174656,0.845561117 34.3763722,0.751433175 33.7375981,0.751433175 L32.9129452,0.751433175 C32.5640536,0.751433175 32.5758554,0.76338593 32.5758554,1.15110341 L32.5758554,6.3864099 L32.5758554,6.3864099 Z" id="path3321"></path>
                <path d="M39.841324,3.79898238 C39.2982192,3.79898238 39.2752306,3.82168846 39.2752306,4.15660311 L39.2752306,5.73183731 C39.2752306,6.90545774 39.3319549,7.06156203 39.965606,7.1289707 L40.2939114,7.16229187 C40.3614403,7.20702285 40.3391414,7.40780135 40.2709229,7.44186047 C39.6602891,7.41915439 39.2752306,7.40780135 38.8341375,7.40780135 C38.3477857,7.40780135 37.9634456,7.43050743 37.5223525,7.44186047 C37.4541052,7.40780135 37.431835,7.22970054 37.4993639,7.16229187 L37.6918931,7.1289707 C38.3255155,7.01685944 38.3477857,6.90545774 38.3477857,5.73183731 L38.3477857,1.70931359 C38.3477857,0.536402722 38.2687625,0.346239315 37.6803989,0.301536723 L37.3865762,0.279568592 C37.3183289,0.234894382 37.3413462,0.0333495528 37.4088752,0 C37.9634743,0.0113530393 38.3478144,0.0333779354 38.8341662,0.0333779354 C39.2752593,0.0333779354 39.6603178,0.0220248962 40.1466697,0 C40.214917,0.0333779354 40.2371871,0.234866 40.1696582,0.279568592 L39.9541404,0.301536723 C39.2982479,0.368945393 39.2752593,0.536402722 39.2752593,1.70931359 L39.2752593,2.99433572 C39.2752593,3.34060342 39.2982479,3.35195646 39.8413528,3.35195646 L43.0769934,3.35195646 C43.6193799,3.35195646 43.6423684,3.34060342 43.6423684,2.99433572 L43.6423684,1.70931359 C43.6423684,0.536402722 43.6193799,0.368945393 42.9519931,0.301536723 L42.7371937,0.279568592 C42.6696648,0.234894382 42.6919637,0.0333495528 42.7601822,0 C43.2802985,0.0220248962 43.665357,0.0333779354 44.1287203,0.0333779354 C44.5698134,0.0333779354 44.9548719,0.0220248962 45.4634939,0 C45.5317412,0.0333779354 45.5540114,0.234866 45.4864825,0.279568592 L45.2486945,0.301536723 C44.592802,0.368945393 44.5698134,0.536402722 44.5698134,1.70931359 L44.5698134,5.73183731 C44.5698134,6.90545774 44.592802,7.05020899 45.2486945,7.1289707 L45.5202469,7.16229187 C45.5884942,7.20702285 45.5654769,7.40780135 45.4980055,7.44186047 C44.9549006,7.41915439 44.5698421,7.40780135 44.128749,7.40780135 C43.6653857,7.40780135 43.2580571,7.41915439 42.760211,7.44186047 C42.6919637,7.40780135 42.6696935,7.22970054 42.7372224,7.16229187 L42.9520218,7.1289707 C43.6423972,7.01685944 43.6423972,6.90545774 43.6423972,5.73183731 L43.6423972,4.15660311 C43.6423972,3.82168846 43.6194086,3.79898238 43.0770221,3.79898238 L39.8413815,3.79898238 L39.841324,3.79898238 Z" id="path3325"></path>
                <path d="M48.8841839,1.70949845 C48.8841839,0.547124659 48.8618914,0.379652001 48.2147104,0.301592711 L48.0391565,0.278884554 C47.9736721,0.234149485 47.9959646,0.0333526057 48.061449,0 C48.5330761,0.021970142 48.9057799,0.0333809909 49.355811,0.0333809909 L51.4185697,0.0333809909 C52.1200888,0.0333809909 52.7679664,0.0333809909 52.8996319,0 C52.9651163,0.189471186 53.0312973,0.994191502 53.0744892,1.48596503 C53.0312973,1.55337987 52.8557434,1.5753784 52.8007086,1.50867319 C52.636301,0.982837423 52.5373777,0.591831344 51.9668274,0.446357212 C51.7362387,0.39100608 51.3851309,0.379652001 50.9030542,0.379652001 L50.1130615,0.379652001 C49.7835495,0.379652001 49.7835495,0.401622143 49.7835495,0.826718843 L49.7835495,3.06134343 C49.7835495,3.37429021 49.8169884,3.37429021 50.1458037,3.37429021 L50.7818384,3.37429021 C51.2430158,3.37429021 51.5829774,3.35232007 51.7146428,3.307585 C51.8463083,3.26284993 51.9229389,3.19546348 51.9779737,2.91657892 L52.0657507,2.458158 C52.1200888,2.39145279 52.306789,2.39145279 52.3506775,2.46951208 C52.3506775,2.73775219 52.3067612,3.17346495 52.3067612,3.59782364 C52.3067612,4.00018379 52.3506775,4.42525211 52.3506775,4.67078406 C52.3067612,4.74884335 52.1200888,4.74884335 52.0657507,4.68213814 L51.9668274,4.24642537 C51.9229111,4.04489048 51.8463083,3.87741782 51.6268658,3.82135706 C51.4729078,3.77662199 51.2095769,3.76526791 50.7818384,3.76526791 L50.1458037,3.76526791 C49.8169884,3.76526791 49.7835495,3.77662199 49.7835495,4.06757025 L49.7835495,5.64294865 C49.7835495,6.23548962 49.8169884,6.61514162 49.9925423,6.80532244 C50.1235111,6.93944249 50.3540998,7.06220846 51.3196465,7.06220846 C52.1639773,7.06220846 52.482343,7.01753017 52.7240779,6.89473581 C52.9212278,6.78261428 53.2173009,6.3916082 53.5029244,5.81042131 C53.579555,5.75507017 53.7335131,5.78845116 53.7774015,5.8884806 C53.7000742,6.2801963 53.425597,7.14026775 53.2827853,7.44186047 C52.2956427,7.41983355 51.3196465,7.40847947 50.3429535,7.40847947 L49.355811,7.40847947 C48.8841839,7.40847947 48.5114801,7.41983355 47.8642992,7.44186047 C47.7981181,7.40847947 47.7758256,7.22968112 47.8420066,7.16297591 L48.2042608,7.12891368 C48.8291492,7.07356254 48.8841839,6.90538025 48.8841839,5.73236202 L48.8841839,1.70947006 L48.8841839,1.70949845 Z" id="path3329"></path>
                <path d="M2.49592059,15.7059301 C1.95281498,15.7059301 1.93054478,15.7278981 1.93054478,16.0635482 L1.93054478,17.6387703 C1.93054478,18.8123818 1.98657948,18.9684849 2.62020269,19.0358931 L2.94850859,19.0692708 C3.01603759,19.1139446 2.99376739,19.3147784 2.92551999,19.3488372 C2.31488539,19.3261313 1.93054478,19.3147784 1.48873268,19.3147784 C1.00238017,19.3147784 0.618039569,19.3374843 0.176945864,19.3488372 C0.108698466,19.3147784 0.0864282629,19.1366789 0.153957267,19.0692708 L0.346486767,19.0358931 C0.980109971,18.9237827 1.00238017,18.8123818 1.00238017,17.6387703 L1.00238017,13.6162773 C1.00238017,12.4433754 0.923356873,12.2532134 0.334992468,12.2085112 L0.0411694626,12.1865432 C-0.0270779348,12.1418126 -0.00408933777,11.940326 0.0634396659,11.9069767 C0.618039569,11.9183297 1.00238017,11.9402977 1.48873268,11.9402977 C1.93054478,11.9402977 2.31488539,11.9289447 2.80123789,11.9069767 C2.86948529,11.9402977 2.89175549,12.141841 2.82422649,12.1865432 L2.60870839,12.2085112 C1.95281498,12.2759193 1.93054478,12.4433754 1.93054478,13.6162773 L1.93054478,14.9012896 C1.93054478,15.2475547 1.95281498,15.2589076 2.49592059,15.2589076 L5.73156561,15.2589076 C6.27395283,15.2589076 6.29694142,15.2475547 6.29694142,14.9012896 L6.29694142,13.6162773 C6.29694142,12.4433754 6.27395283,12.2759193 5.60728351,12.2085112 L5.39176542,12.1865432 C5.32423641,12.1418126 5.34650662,11.940326 5.41475401,11.9069767 C5.93487102,11.9289447 6.31993002,11.9402977 6.78329393,11.9402977 C7.22438763,11.9402977 7.60944663,11.9289447 8.11806934,11.9069767 C8.18631674,11.9402977 8.20858694,12.141841 8.14105794,12.1865432 L7.90326964,12.2085112 C7.24737623,12.2759193 7.22438763,12.4433754 7.22438763,13.6162773 L7.22438763,17.6387703 C7.22438763,18.8123818 7.24737623,18.957132 7.90326964,19.0358931 L8.17482244,19.0692708 C8.24306984,19.1139446 8.22008124,19.3147784 8.15255224,19.3488372 C7.60944663,19.3261313 7.22438763,19.3147784 6.78329393,19.3147784 C6.31993002,19.3147784 5.91260082,19.3261313 5.41475401,19.3488372 C5.34650662,19.3147784 5.32423641,19.1366789 5.39176542,19.0692708 L5.60728351,19.0358931 C6.29694142,18.9237827 6.29694142,18.8123818 6.29694142,17.6387703 L6.29694142,16.0635482 C6.29694142,15.7279265 6.27395283,15.7059301 5.73156561,15.7059301 L2.49592059,15.7059301 L2.49592059,15.7059301 Z" id="path3333"></path>
                <path d="M16.3805705,14.6908019 C16.3805705,14.0115485 16.3569395,12.7511717 16.1597683,12.4219844 C16.0785367,12.2904487 15.8688116,12.2138935 15.5785934,12.1923188 L15.2876366,12.1700482 C15.2174821,12.093493 15.2411131,11.950822 15.3105292,11.9069767 C15.752872,11.9292473 16.1826608,11.9403826 16.6360807,11.9403826 C17.124947,11.9403826 17.4387963,11.9292473 17.8575081,11.9069767 C17.9505552,11.9619295 17.9387397,12.1046283 17.8804006,12.1700482 L17.6012594,12.1923188 C17.3110412,12.2139213 17.090239,12.3127193 17.0200845,12.4553903 C16.8576213,12.8165916 16.8576213,14.0769684 16.8576213,14.6908019 L16.8576213,15.929604 C16.8576213,16.8830641 16.6944197,17.8908088 16.0430902,18.5484875 C15.5431468,19.0634951 14.6828307,19.3488372 13.8225145,19.3488372 C13.0197989,19.3488372 12.2178218,19.2061662 11.6477239,18.7461391 C11.0311024,18.2638414 10.7408842,17.4634917 10.7408842,16.1592696 L10.7408842,13.5730961 C10.7408842,12.4331197 10.7172532,12.2472994 10.0430311,12.1923188 L9.75207441,12.1700482 C9.68191987,12.1261751 9.70555088,11.9403826 9.77570541,11.9069767 C10.3568804,11.9292473 10.7519612,11.9403826 11.2171965,11.9403826 C11.6942474,11.9403826 12.0782512,11.9292473 12.6476106,11.9069767 C12.7177652,11.9403826 12.7406577,12.126203 12.6712416,12.1700482 L12.3921004,12.1923188 C11.7171399,12.2473272 11.6942474,12.4331197 11.6942474,13.5730961 L11.6942474,15.9400434 C11.6942474,17.7049885 12.2754223,18.8665395 14.0551322,18.8665395 C15.7410565,18.8665395 16.3805705,17.617298 16.3805705,15.9511787 L16.3805705,14.6908019 L16.3805705,14.6908019 Z" id="path3337"></path>
                <path d="M21.3904337,15.0914232 C21.3904337,15.392986 21.4249089,15.392986 21.7718617,15.392986 L22.5574567,15.392986 C23.0305742,15.392986 23.400266,15.371018 23.5389004,15.3262874 C23.6657985,15.2815568 23.7582215,15.22553 23.8279055,14.9346105 L23.9320646,14.487588 C23.9892789,14.4208894 24.185861,14.4208894 24.2320725,14.487588 C24.2320725,14.7558015 24.185861,15.202824 24.185861,15.6164973 C24.185861,16.0188175 24.2320725,16.4431341 24.2320725,16.7007042 C24.185861,16.7674028 24.0127513,16.7674028 23.9320646,16.7007042 L23.8161692,16.2643251 C23.7582215,16.0635198 23.6657985,15.9067071 23.4464774,15.8400085 C23.285104,15.7952779 22.996099,15.7839817 22.5574567,15.7839817 L21.7718617,15.7839817 C21.4249089,15.7839817 21.3904337,15.7953346 21.3904337,16.0862541 L21.3904337,17.6387703 C21.3904337,18.8123818 21.4139062,18.9798379 22.095342,19.0358931 L22.4877728,19.0692708 C22.5574567,19.1139446 22.5339842,19.3147784 22.4650338,19.3488372 C21.7828644,19.3261313 21.3904337,19.3147784 20.928319,19.3147784 C20.4199928,19.3147784 20.027562,19.3261313 19.4847606,19.3488372 C19.4150766,19.3147784 19.3923376,19.1366789 19.4612881,19.0692708 L19.7502932,19.0358931 C20.4199928,18.957132 20.4434653,18.8123818 20.4434653,17.6387703 L20.4434653,13.6162773 C20.4434653,12.4433754 20.4199928,12.2865627 19.7502932,12.2085112 L19.5654473,12.1865432 C19.4964968,12.1418126 19.5192358,11.940326 19.5881863,11.9069767 C20.0737735,11.9289447 20.4662042,11.9402977 20.928319,11.9402977 L23.0540467,11.9402977 C23.7934302,11.9402977 24.4631298,11.9402977 24.6135005,11.9069767 C24.6135005,12.4206979 24.6245032,12.9571249 24.6479757,13.382151 C24.6135005,13.4488496 24.4513936,13.4821989 24.3707069,13.4154719 C24.2782839,12.9123942 24.1396495,12.4994306 23.5623729,12.3539709 C23.307843,12.2865343 22.926415,12.2865343 22.4415613,12.2865343 L21.7373865,12.2865343 C21.3904337,12.2865343 21.3904337,12.3092402 21.3904337,12.7335568 L21.3904337,15.0914232 L21.3904337,15.0914232 Z" id="path3341"></path>
                <path d="M28.1126089,15.0914232 C28.1126089,15.392986 28.1470841,15.392986 28.4940369,15.392986 L29.2796319,15.392986 C29.7527494,15.392986 30.1224412,15.371018 30.2610756,15.3262874 C30.3879737,15.2815568 30.4803967,15.22553 30.5500806,14.9346105 L30.6542398,14.487588 C30.711454,14.4208894 30.9080362,14.4208894 30.9542477,14.487588 C30.9542477,14.7558015 30.9080362,15.202824 30.9080362,15.6164973 C30.9080362,16.0188175 30.9542477,16.4431341 30.9542477,16.7007042 C30.9080362,16.7674028 30.7349265,16.7674028 30.6542398,16.7007042 L30.5383444,16.2643251 C30.4803967,16.0635198 30.3879737,15.9067071 30.1686526,15.8400085 C30.0072792,15.7952779 29.7182741,15.7839817 29.2796319,15.7839817 L28.4940369,15.7839817 C28.1470841,15.7839817 28.1126089,15.7953346 28.1126089,16.0862541 L28.1126089,17.6387703 C28.1126089,18.8123818 28.1360814,18.9798379 28.8175172,19.0358931 L29.209948,19.0692708 C29.2796319,19.1139446 29.2561594,19.3147784 29.187209,19.3488372 C28.5050396,19.3261313 28.1126089,19.3147784 27.6504941,19.3147784 C27.142168,19.3147784 26.7497372,19.3261313 26.2069358,19.3488372 C26.1372518,19.3147784 26.1145128,19.1366789 26.1834633,19.0692708 L26.4724684,19.0358931 C27.142168,18.957132 27.1656404,18.8123818 27.1656404,17.6387703 L27.1656404,13.6162773 C27.1656404,12.4433754 27.142168,12.2865627 26.4724684,12.2085112 L26.2876225,12.1865432 C26.218672,12.1418126 26.241411,11.940326 26.3103615,11.9069767 C26.7959487,11.9289447 27.1883794,11.9402977 27.6504941,11.9402977 L29.7762219,11.9402977 C30.5156054,11.9402977 31.185305,11.9402977 31.3356757,11.9069767 C31.3356757,12.4206979 31.3466784,12.9571249 31.3701509,13.382151 C31.3356757,13.4488496 31.1735688,13.4821989 31.0928821,13.4154719 C31.0004591,12.9123942 30.8618247,12.4994306 30.2845481,12.3539709 C30.0300182,12.2865627 29.6485902,12.2865627 29.1637365,12.2865627 L28.4588282,12.2865627 C28.1126089,12.2865627 28.1126089,12.3092686 28.1126089,12.7335852 L28.1126089,15.0914516 L28.1126089,15.0914232 Z" id="path3345"></path>
                <path d="M34.6358191,13.6389832 C34.6358191,12.4547283 34.6125801,12.2645664 33.9379217,12.2085112 L33.6525173,12.1865432 C33.5835264,12.1418126 33.6067945,11.940326 33.6750011,11.9069767 C34.2472624,11.9296826 34.6357901,11.9402977 35.1158214,11.9402977 C35.57334,11.9402977 35.9625939,11.9296826 36.534129,11.9069767 C36.6031199,11.9402977 36.6256327,12.141841 36.5566709,12.1865432 L36.2712664,12.2085112 C35.5966081,12.264538 35.5733691,12.4547283 35.5733691,13.6389832 L35.5733691,17.616774 C35.5733691,18.8010289 35.5966081,18.957132 36.2712664,19.0358931 L36.5566709,19.0692708 C36.6256618,19.1140014 36.6031489,19.3154879 36.534129,19.3488372 C35.9625939,19.3261313 35.57334,19.3154595 35.1158214,19.3154595 C34.6357901,19.3154595 34.2472624,19.3261313 33.6750011,19.3488372 C33.6067364,19.3154595 33.5834973,19.1366789 33.6525173,19.0692708 L33.9379217,19.0358931 C34.6125801,18.957132 34.6358191,18.8010289 34.6358191,17.616774 L34.6358191,13.6389832 Z" id="path3349"></path>
                <path d="M45.3097232,17.3101906 C45.3097232,17.6394087 45.3097232,18.9430568 45.3430765,19.2284255 C45.3210872,19.2938515 45.2535851,19.3488372 45.1307119,19.3488372 C44.9964748,19.1623035 44.6718909,18.7787957 43.6988494,17.6936984 L41.1043087,14.8003376 C40.8024527,14.4606791 40.0417757,13.5614195 39.8066832,13.3205961 L39.7846371,13.3205961 C39.7399198,13.4521442 39.7285558,13.7041039 39.7285558,14.033322 L39.7285558,16.4227634 C39.7285558,16.9378192 39.7399198,18.3625749 39.9295564,18.691097 C39.99703,18.8122047 40.2207586,18.8776307 40.5005968,18.8992074 L40.8471984,18.9326164 C40.9139619,19.0203151 40.9032797,19.1518632 40.8244705,19.2061528 C40.321614,19.184604 39.9295564,19.1734677 39.5161913,19.1734677 C39.0460062,19.1734677 38.7441503,19.184604 38.3528029,19.2061528 C38.2746755,19.1518632 38.2633115,18.9980424 38.3308136,18.9326164 L38.6326696,18.8992074 C38.8897798,18.8664666 39.0687626,18.8010684 39.1248723,18.6799607 C39.2811272,18.2860126 39.2697632,16.9489555 39.2697632,16.4227634 L39.2697632,13.2544741 C39.2697632,12.9482247 39.2583992,12.7178416 39.0240169,12.4658819 C38.8670518,12.3120612 38.5992878,12.2354988 38.3308136,12.2027858 L38.1404668,12.1805131 C38.0729931,12.1150871 38.0729931,11.9508261 38.1625129,11.9069767 C38.632698,11.9396619 39.2250459,11.9396619 39.4267567,11.9396619 C39.6057395,11.9396619 39.7960863,11.9285256 39.9409772,11.9069767 C40.1647057,12.4658819 41.4843489,13.9129103 41.8536785,14.3179948 L42.9382292,15.5130635 C43.7102702,16.3566413 44.2585826,16.9705322 44.7841671,17.4967243 L44.8062132,17.4967243 C44.8509305,17.4417665 44.8509305,17.2663413 44.8509305,17.0359582 L44.8509305,14.6903662 C44.8509305,14.1753104 44.8395666,12.7505546 44.627202,12.4220326 C44.5604386,12.3231975 44.3814558,12.2577715 43.9339987,12.2027858 L43.7436519,12.1805131 C43.6655245,12.1150871 43.6768885,11.9396897 43.7663799,11.9069767 C44.2806004,11.9285256 44.661294,11.9396619 45.0860231,11.9396619 C45.5668618,11.9396619 45.858064,11.9285256 46.2380474,11.9069767 C46.3275388,11.9612664 46.3275388,12.1150871 46.2607754,12.1805131 L46.1038103,12.2027858 C45.7458447,12.2577437 45.5221161,12.3447742 45.4773704,12.4331689 C45.2870236,12.827117 45.3097516,14.1864467 45.3097516,14.6903662 L45.3097516,17.3101906 L45.3097232,17.3101906 Z" id="path3353"></path>
                <path d="M54.5557604,18.6972561 C54.5557604,19.1705249 54.6234391,19.4544861 54.8250505,19.5371203 C54.8585622,19.5724577 54.8585622,19.6437936 54.813652,19.6791009 C54.6790069,19.6791009 54.4773955,19.7264578 54.2636732,19.785023 C53.6695251,19.9510426 52.8616547,20.0930233 52.2553957,20.0930233 C50.9210559,20.0930233 49.6978518,19.70314 48.8337012,18.7798903 C48.1611882,18.0699873 47.8021347,17.1354693 47.8021347,16.0942781 C47.8021347,15.0891455 48.1163065,14.0719934 48.8116165,13.2907244 C49.5632067,12.4628797 50.6738504,11.9069767 52.3679561,11.9069767 C53.0076983,11.9069767 53.6018464,12.0369378 53.7927716,12.0842647 C54.0057816,12.1316216 54.3534366,12.2142258 54.4880816,12.190938 C54.4880816,12.5815725 54.5557604,13.1968218 54.6569223,13.9059737 C54.6234676,14.0006274 54.4211153,14.012647 54.3534366,13.9420323 C54.0399771,12.6642067 53.1979112,12.2615527 52.0537843,12.2615527 C49.8773785,12.2615527 48.9234645,13.8947054 48.9234645,15.6690875 C48.9234645,17.9400262 50.0341083,19.7264278 52.2895913,19.7264278 C52.9849012,19.7264278 53.400235,19.5724277 53.5234815,19.3711006 C53.5790493,19.2884664 53.6360419,19.0758711 53.6360419,18.6972561 L53.6360419,18.2239874 C53.6360419,17.2301231 53.6018464,17.1595084 52.9065364,17.0761229 L52.4128378,17.0175278 C52.3230744,16.9701708 52.3344729,16.7568544 52.4128378,16.721547 C52.7384081,16.745586 53.3553533,16.7568844 54.0171801,16.7568844 C54.4545985,16.7568844 54.836449,16.745586 55.2061887,16.721547 C55.2852659,16.7689039 55.295952,16.9461618 55.2175872,17.0175278 L55.0380604,17.0407855 C54.5664465,17.1001019 54.5557604,17.43142 54.5557604,18.0346499 L54.5557604,18.6972261 L54.5557604,18.6972561 Z" id="path3357"></path>
                <path d="M60.2114645,17.5492059 C60.2114645,18.7840712 60.2350682,18.9611209 60.9085102,19.0193904 L61.2802678,19.0552485 C61.3496036,19.1023423 61.326708,19.3137261 61.2566642,19.3488372 C60.595024,19.3257087 60.2004003,19.313756 59.7349656,19.313756 C59.2710062,19.313756 58.8645806,19.3257087 58.1203277,19.3488372 C58.0509919,19.313756 58.0281259,19.1135181 58.1203277,19.0552485 L58.5392927,19.0193904 C59.2009328,18.9611209 59.2592043,18.7840712 59.2592043,17.5492059 L59.2592043,12.2907566 C59.2592043,11.9261986 59.2592043,11.9142459 58.9110503,11.9142459 L58.2715386,11.9142459 C57.7721737,11.9142459 57.1333996,11.9373744 56.8427795,12.2085816 C56.5639613,12.4670592 56.4481558,12.7262838 56.3205485,13.0198724 C56.2276091,13.0908417 56.0645963,13.0318252 56.0181266,12.9376975 C56.2047431,12.4087897 56.3788201,11.6557684 56.4599576,11.1851301 C56.494596,11.1612246 56.6458365,11.1499891 56.6805044,11.1851301 C56.7498401,11.5616407 57.1333996,11.549688 57.6681701,11.549688 L62.3719372,11.549688 C62.9989094,11.549688 63.1036507,11.5257825 63.2777277,11.2202412 C63.3359697,11.1963357 63.4636065,11.2082884 63.4872102,11.2553822 C63.3588653,11.7379732 63.2777277,12.6904555 63.3123955,13.0438078 C63.2666634,13.1379354 63.0689828,13.1379354 63.0107112,13.0669363 C62.9760139,12.7733476 62.8949058,12.3378204 62.7200912,12.2085816 C62.4530748,12.0083736 62.0119813,11.9142459 61.3732073,11.9142459 L60.5485543,11.9142459 C60.2004003,11.9142459 60.2114645,11.9261986 60.2114645,12.313915 L60.2114645,17.5492059 L60.2114645,17.5492059 Z" id="path3361"></path>
                <path d="M64.9810269,16.0830098 C64.9810269,13.7174174 66.7340687,11.9069767 69.141718,11.9069767 C71.8417883,11.9069767 73.1970188,13.8826859 73.1970188,15.9650683 C73.1970188,18.3539485 71.3979615,20.0930233 69.141718,20.0930233 C66.547038,20.0930233 64.9810269,18.2127191 64.9810269,16.0830098 M72.028819,16.3316637 C72.028819,14.3792424 71.1753059,12.2735722 68.9428123,12.2735722 C67.7278549,12.2735722 66.1499688,13.1134364 66.1499688,15.7043949 C66.1499688,17.4554891 66.991607,19.7264278 69.293866,19.7264278 C70.6958541,19.7264278 72.028819,18.6619488 72.028819,16.3316637" id="path3365"></path>
                <path d="M81.1613464,17.3101906 C81.1613464,17.6394087 81.1613464,18.9430568 81.1946999,19.2284255 C81.1727105,19.2938515 81.1052079,19.3488372 80.9823341,19.3488372 C80.8480961,19.1623035 80.5235102,18.7787957 79.5504626,17.6936984 L76.9559342,14.8003376 C76.6540763,14.4606791 75.8933946,13.5614195 75.6583006,13.3205961 L75.6362544,13.3205961 C75.5915368,13.4521442 75.5801727,13.7041039 75.5801727,14.033322 L75.5801727,16.4227634 C75.5801727,16.9378192 75.5915368,18.3625749 75.7811745,18.691097 C75.8486486,18.8122047 76.0723785,18.8776307 76.3522185,18.8992074 L76.6988223,18.9326164 C76.7655862,19.0203151 76.7542221,19.1518632 76.6760942,19.2061528 C76.1732346,19.184604 75.7811745,19.1734677 75.3678069,19.1734677 C74.8976189,19.1734677 74.5957611,19.184604 74.2044113,19.2061528 C74.1262834,19.1518632 74.1149193,18.9980424 74.1824218,18.9326164 L74.4842796,18.8992074 C74.7413915,18.8664666 74.9203754,18.8010684 74.9764855,18.6799607 C75.1327413,18.2860126 75.1213772,16.9489555 75.1213772,16.4227634 L75.1213772,13.2544741 C75.1213772,12.9482247 75.1107518,12.7178416 74.8756294,12.4658819 C74.7186634,12.3120612 74.4508977,12.2354988 74.1824218,12.2027858 L73.9920738,12.1805131 C73.9245997,12.1150871 73.9245997,11.9508261 74.0140633,11.9069767 C74.4842512,11.9396619 75.0766028,11.9396619 75.2783149,11.9396619 C75.4572988,11.9396619 75.6476468,11.9285256 75.7925386,11.9069767 C76.0162685,12.4658819 77.3359199,13.9129103 77.7052518,14.3179948 L78.7905195,15.5130635 C79.561855,16.3566413 80.1101709,16.9705322 80.6357587,17.4967243 L80.6577481,17.4967243 C80.7025225,17.4417665 80.7025225,17.2663413 80.7025225,17.0359582 L80.7025225,14.6903662 C80.7025225,14.1753104 80.6918403,12.7505546 80.4787926,12.4220326 C80.4120287,12.3231975 80.2330448,12.2577715 79.785585,12.2027858 L79.595237,12.1805131 C79.5171091,12.1150871 79.5284731,11.9396897 79.6179651,11.9069767 C80.1321888,11.9285256 80.5128848,11.9396619 80.9376165,11.9396619 C81.4184582,11.9396619 81.708952,11.9285256 82.089648,11.9069767 C82.17914,11.9612664 82.17914,12.1150871 82.1123761,12.1805131 L81.9554101,12.2027858 C81.5974422,12.2577437 81.3737123,12.3447742 81.3289663,12.4331689 C81.1386183,12.827117 81.1613464,14.1864467 81.1613464,14.6903662 L81.1613464,17.3101906 L81.1613464,17.3101906 Z" id="path3369"></path>
                <path d="M28.7497644,29.546322 C28.7497644,30.7193358 28.7720505,30.8648094 29.4733672,30.9428684 L29.7700513,30.9769305 C29.8355168,31.0329626 29.8139271,31.2224615 29.7477651,31.255814 C29.1223606,31.2337871 28.7609075,31.2224331 28.3221493,31.2224331 C27.8618015,31.2224331 27.4669191,31.2337871 26.9842851,31.255814 C26.9181232,31.2224331 26.8965335,31.0436354 26.961999,30.9769305 L27.1925211,30.9428684 C27.8283723,30.854165 27.8506584,30.7193358 27.8506584,29.546322 L27.8506584,25.4226784 C27.8506584,24.4731972 27.8283723,24.2830171 27.3352916,24.2269565 L26.9404093,24.1829596 C26.8631043,24.115545 26.8742473,23.948073 26.961999,23.9033665 C27.5435277,23.8245979 28.2232546,23.8139535 29.1335037,23.8139535 C30.0437528,23.8139535 30.7241762,23.936719 31.2395429,24.260309 C31.7437666,24.5846086 32.1170593,25.1657933 32.1170593,25.9371581 C32.1170593,26.9646983 31.4916548,27.479178 31.0201638,27.7140646 C30.5375298,27.9482416 29.9560012,28.0490086 29.5067964,28.0490086 C29.4294914,28.0149465 29.4294914,27.8474745 29.4956533,27.8254761 C30.6803004,27.6019435 31.1079155,26.9199918 31.1079155,25.9478025 C31.1079155,24.8642017 30.482511,24.1602516 29.3417397,24.1602516 C28.7609075,24.1602516 28.7497644,24.2049865 28.7497644,24.5626102 L28.7497644,29.546322 L28.7497644,29.546322 Z" id="path3373"></path>
                <path d="M33.610876,27.9899866 C33.610876,25.6243942 35.3639178,23.8139535 37.7715671,23.8139535 C40.4716374,23.8139535 41.8268679,25.7896626 41.8268679,27.872045 C41.8268679,30.2609252 40.0270684,32 37.7715671,32 C35.1768871,32 33.610876,30.1196958 33.610876,27.9899866 M40.6586681,28.2386405 C40.6586681,26.2862192 39.805155,24.1805489 37.5726614,24.1805489 C36.357704,24.1805489 34.7798179,25.0211643 34.7798179,27.6113716 C34.7798179,29.3624659 35.6214561,31.6334045 37.9237151,31.6334045 C39.3257032,31.6334045 40.6586681,30.5689255 40.6586681,28.2386405" id="path3377"></path>
                <path d="M45.3918102,32 C44.4410471,32 43.8416999,31.6919697 43.6261073,31.5620086 C43.490284,31.3020864 43.3436811,30.4622222 43.3206846,29.9063193 C43.3774285,29.823685 43.5470567,29.799646 43.5923312,29.871042 C43.7619306,30.4742718 44.2261732,31.6334045 45.5391317,31.6334045 C46.4898948,31.6334045 46.9534188,30.9828479 46.9534188,30.2729448 C46.9534188,29.7523492 46.8513716,29.1724072 46.0256522,28.6165042 L44.9505641,27.8833133 C44.3842744,27.4926788 43.7281545,26.8188343 43.7281545,25.849009 C43.7281545,24.7244324 44.5653721,23.8139535 46.0371505,23.8139535 C46.3878477,23.8139535 46.7953176,23.8845682 47.0892421,23.9679536 C47.2365636,24.0153106 47.3946648,24.0385683 47.4852137,24.0385683 C47.5872608,24.3225296 47.6893079,24.9851058 47.6893079,25.4816623 C47.6440623,25.5530282 47.4629358,25.5883356 47.4061631,25.5177209 C47.2588415,24.9497984 46.9534188,24.1805489 45.8668324,24.1805489 C44.7579681,24.1805489 44.5200977,24.9497984 44.5200977,25.4936819 C44.5200977,26.1795459 45.0633909,26.6768537 45.482359,26.9487954 L46.3878477,27.5400057 C47.1007403,28.0012549 47.8021347,28.6878701 47.8021347,29.8116956 C47.8021347,31.1128089 46.8628699,32 45.3918102,32" id="path3381"></path>
                <path d="M53.4892599,29.4561773 C53.4892599,30.6910463 53.5128635,30.8680965 54.1863055,30.9263662 L54.5580631,30.9622244 C54.6273989,31.0093183 54.6045623,31.2207027 54.5352266,31.255814 C53.8728489,31.2326256 53.4774875,31.2206729 53.0127904,31.2206729 C52.548831,31.2206729 52.1416678,31.2326256 51.3988901,31.255814 C51.3288167,31.2206729 51.3059507,31.0212411 51.3988901,30.9622244 L51.8163799,30.9263662 C52.4787576,30.8680965 52.5370291,30.6910463 52.5370291,29.4561773 L52.5370291,24.1977124 C52.5370291,23.8331534 52.5370291,23.8212006 52.1881375,23.8212006 L51.5493634,23.8212006 C51.0499985,23.8212006 50.4112244,23.8443292 50.1206043,24.1155372 C49.8417861,24.3740155 49.7259806,24.6332409 49.5983733,24.9268304 C49.5054339,24.9977999 49.3424211,24.9387832 49.2959514,24.8446552 C49.4818302,24.3157458 49.6559073,23.5627223 49.7377825,23.0920826 C49.7724798,23.0681771 49.9236613,23.0570013 49.9583292,23.0920826 C50.0276649,23.4685944 50.4112244,23.4566416 50.9452572,23.4566416 L55.649762,23.4566416 C56.2774718,23.4566416 56.3814755,23.4327361 56.5562901,23.1271938 C56.613824,23.1032883 56.7421689,23.1152411 56.765035,23.1623349 C56.6374277,23.6449274 56.5562901,24.5974125 56.590958,24.9507658 C56.5445178,25.0448937 56.3468076,25.0448937 56.2885361,24.9738944 C56.2538387,24.6803049 56.1727306,24.2447764 55.9986536,24.1155372 C55.7308996,23.9153286 55.2898061,23.8212006 54.6510321,23.8212006 L53.8263791,23.8212006 C53.4774875,23.8212006 53.4892894,23.8331534 53.4892894,24.2216179 L53.4892894,29.4561773 L53.4892599,29.4561773 Z" id="path3385"></path>
            </g>
        </g>
    </g>
</svg>