<?xml version="1.0" encoding="utf-8"?>
<!-- Generator: Adobe Illustrator 25.4.1, SVG Export Plug-In . SVG Version: 6.00 Build 0)  -->
<svg version="1.1" id="Layer_1" xmlns="http://www.w3.org/2000/svg" xmlns:xlink="http://www.w3.org/1999/xlink" x="0px" y="0px"
	 viewBox="0 0 122 88" style="enable-background:new 0 0 122 88;" xml:space="preserve">
<style type="text/css">
	.st0{fill:#FFFFFF;}
	.st1{fill:none;stroke:#E0E0E0;}
	.st2{fill:#F04050;}
	.st3{fill:#F89B10;}
	.st4{fill:#00B080;}
</style>
<g id="Group_154" transform="translate(-1335 -110)">
	<g id="Rectangle_36" transform="translate(1335 110)">
		<rect class="st0" width="122" height="88"/>
		<rect x="0.5" y="0.5" class="st1" width="121" height="87"/>
	</g>
	<g id="paypal" transform="translate(1339 116)">
		<g id="Group_51" transform="translate(0 0)">
			<path id="Path_122" class="st0" d="M0,0h114.1v76.1H0V0z"/>
		</g>
		<circle id="Ellipse_8" class="st2" cx="4.6" cy="5" r="1.5"/>
		<ellipse id="Ellipse_9" class="st3" cx="8.6" cy="5" rx="1.1" ry="1.5"/>
		<circle id="Ellipse_10" class="st4" cx="11.9" cy="5" r="1.5"/>
		<path d="M36.4,28.1h-3.6c0,3-1.4,5.7-3.7,7.5l-1.4,1.1l5.5,7.5h4.6l-5.1-6.9C35,34.8,36.4,31.6,36.4,28.1z"/>
		<rect x="23.5" y="28.1" width="3.7" height="16.1"/>
		<rect x="38.8" y="28.1" width="3.5" height="16.1"/>
		<path d="M72.8,32.7c-1.3,0-2.6,0.4-3.4,1.6V33h-3.3v11.1h3.4v-5.8c0-1.7,1.1-2.5,2.5-2.5c1.5,0,2.3,0.9,2.3,2.5v5.9h3.3v-7.1
			C77.5,34.5,75.5,32.7,72.8,32.7z"/>
		<path d="M52.8,33v0.7c-0.9-0.6-2.1-1-3.3-1c-3.2,0-5.9,2.6-5.9,5.9c0,3.2,2.6,5.9,5.9,5.9c1.2,0,2.4-0.4,3.3-1v0.7h3.3V33H52.8z
			 M49.7,41.4c-1.7,0-3-1.3-3-2.9c0-1.6,1.3-2.9,3-2.9c1.7,0,3,1.3,3,2.9C52.8,40.2,51.4,41.4,49.7,41.4z"/>
		<path d="M61.2,34.5V33h-3.4v11.1h3.4V39c0-1.7,1.9-2.7,3.2-2.7c0,0,0,0,0,0V33C63.2,33,61.9,33.6,61.2,34.5z"/>
		<path d="M87.9,33v0.7c-0.9-0.6-2.1-1-3.3-1c-3.2,0-5.9,2.6-5.9,5.9c0,3.2,2.6,5.9,5.9,5.9c1.2,0,2.4-0.4,3.3-1v0.7h3.3V33H87.9z
			 M84.8,41.4c-1.7,0-3-1.3-3-2.9c0-1.6,1.3-2.9,3-2.9c1.7,0,3,1.3,3,2.9C87.9,40.2,86.5,41.4,84.8,41.4z"/>
		<g>
			<path d="M93.8,33.4c0-0.2-0.1-0.3-0.3-0.3h-0.3v0.8h0.1v-0.3h0.2l0.1,0.3h0.2l-0.1-0.3C93.7,33.5,93.8,33.5,93.8,33.4z
				 M93.5,33.5h-0.2v-0.3h0.2c0.1,0,0.1,0,0.1,0.1C93.6,33.4,93.6,33.5,93.5,33.5z"/>
			<path d="M93.4,32.7c-0.4,0-0.8,0.4-0.8,0.8c0,0.4,0.4,0.8,0.8,0.8c0.4,0,0.8-0.4,0.8-0.8S93.8,32.7,93.4,32.7z M93.4,34.2
				c-0.4,0-0.6-0.3-0.6-0.6c0-0.4,0.3-0.6,0.6-0.6c0.4,0,0.6,0.3,0.6,0.6C94,33.9,93.8,34.2,93.4,34.2z"/>
		</g>
		<path d="M94.7,40.2c-1.1,0-2.1,0.9-2.1,2.1c0,1.1,0.9,2.1,2.1,2.1s2.1-0.9,2.1-2.1C96.8,41.1,95.9,40.2,94.7,40.2z"/>
	</g>
</g>
</svg>
