<svg id="Group_27" data-name="Group 27" xmlns="http://www.w3.org/2000/svg" width="91.66" height="36.472" viewBox="0 0 91.66 36.472">
  <path id="Path_44" data-name="Path 44" d="M324.527,326.246l4.528,7.3h70.428v-7.3Z" transform="translate(-324.527 -326.246)" fill="#cc362b"/>
  <path id="Path_45" data-name="Path 45" d="M324.527,332.115l4.513,7.288h65.914v-7.288Z" transform="translate(-319.999 -324.812)" fill="#f0f5f7"/>
  <path id="Path_46" data-name="Path 46" d="M324.527,337.972l4.513,7.288h61.4v-7.288Z" transform="translate(-315.486 -323.38)" fill="#cc362b"/>
  <path id="Path_47" data-name="Path 47" d="M324.527,349.685l4.528,7.3h52.359v-7.3Z" transform="translate(-306.459 -320.517)" fill="#cc362b"/>
  <path id="Path_48" data-name="Path 48" d="M324.527,343.829l4.513,7.288h56.888v-7.288Z" transform="translate(-310.972 -321.949)" fill="#f0f5f7"/>
  <rect id="Rectangle_8" data-name="Rectangle 8" width="16.698" height="36.457" transform="translate(74.962 0.008)" fill="#11477c"/>
  <path id="Path_49" data-name="Path 49" d="M318.78,329.606l-1.413,3.924-4.169.131,3.3,2.556-1.164,4.005,3.45-2.345,3.45,2.345-1.164-4.005,3.3-2.556-4.169-.131Z" transform="translate(-235.308 -325.425)" fill="#f0f5f7"/>
  <path id="Path_50" data-name="Path 50" d="M318.78,343.663l-1.413,3.924-4.169.131,3.3,2.556-1.164,4.005,3.45-2.345,3.45,2.345-1.164-4.005,3.3-2.556-4.169-.131Z" transform="translate(-235.308 -321.989)" fill="#f0f5f7"/>
</svg>
