<svg xmlns="http://www.w3.org/2000/svg" width="91.66" height="36.472" viewBox="0 0 91.66 36.472">
  <g id="Group_26" data-name="Group 26" transform="translate(-311.104 -326.246)">
    <path id="Path_44" data-name="Path 44" d="M399.483,326.246l-4.528,7.3H324.527v-7.3Z" transform="translate(3.281)" fill="#cc362b"/>
    <path id="Path_45" data-name="Path 45" d="M394.955,332.115l-4.513,7.288H324.527v-7.288Z" transform="translate(3.281 1.434)" fill="#f0f5f7"/>
    <path id="Path_46" data-name="Path 46" d="M390.441,337.972l-4.513,7.288h-61.4v-7.288Z" transform="translate(3.281 2.866)" fill="#cc362b"/>
    <path id="Path_47" data-name="Path 47" d="M381.415,349.685l-4.528,7.3H324.527v-7.3Z" transform="translate(3.281 5.729)" fill="#cc362b"/>
    <path id="Path_48" data-name="Path 48" d="M385.928,343.829l-4.513,7.288H324.527v-7.288Z" transform="translate(3.281 4.297)" fill="#f0f5f7"/>
    <rect id="Rectangle_8" data-name="Rectangle 8" width="16.698" height="36.457" transform="translate(311.104 326.254)" fill="#11477c"/>
    <path id="Path_49" data-name="Path 49" d="M318.78,329.606l1.413,3.924,4.169.131-3.3,2.556,1.164,4.005-3.45-2.345-3.45,2.345,1.164-4.005-3.3-2.556,4.169-.131Z" transform="translate(0.512 0.821)" fill="#f0f5f7"/>
    <path id="Path_50" data-name="Path 50" d="M318.78,343.663l1.413,3.924,4.169.131-3.3,2.556,1.164,4.005-3.45-2.345-3.45,2.345,1.164-4.005-3.3-2.556,4.169-.131Z" transform="translate(0.512 4.257)" fill="#f0f5f7"/>
  </g>
</svg>
