<?xml version="1.0" encoding="utf-8"?>
<!-- Generator: Adobe Illustrator 24.3.0, SVG Export Plug-In . SVG Version: 6.00 Build 0)  -->
<svg version="1.1" id="Layer_1" xmlns="http://www.w3.org/2000/svg" xmlns:xlink="http://www.w3.org/1999/xlink" x="0px" y="0px"
	 viewBox="0 0 431.8 268.4" style="enable-background:new 0 0 431.8 268.4;" xml:space="preserve">
<style type="text/css">
	.st0{fill:#FFFFFF;}
	.st1{fill:#BF2033;}
	.st2{fill:#212F64;}
</style>
<polygon class="st0" points="431.5,14.2 262.9,98 262.9,98 0,228.7 0,228.7 64.4,228.7 431.5,46.3 "/>
<polygon class="st0" points="249.2,70.6 391.2,0 326.6,0 236.5,44.8 "/>
<polygon class="st0" points="431.5,80.5 133.3,228.7 207.3,228.7 431.5,117.3 "/>
<polygon class="st0" points="431.5,151.5 276.2,228.7 353,228.7 431.5,189.7 "/>
<polygon class="st0" points="257.7,0 214.2,0 222.8,17.4 "/>
<polygon class="st1" points="236.5,44.8 326.6,0 257.7,0 222.8,17.4 "/>
<polygon class="st1" points="262.9,98 262.9,98 262.9,98 431.5,14.2 431.5,0 391.2,0 249.2,70.6 "/>
<polygon class="st1" points="431.5,46.3 64.4,228.7 133.3,228.7 431.5,80.5 "/>
<polygon class="st1" points="431.5,117.3 207.3,228.7 276.2,228.7 431.5,151.5 "/>
<polygon class="st2" points="0,129.1 0,131.6 0.3,131.5 "/>
<path class="st2" d="M262.9,98l-13.6-27.5l-12.8-25.7l-13.6-27.4L214.2,0H133l-1.8,3.6l5.3,5.6l-7.7-1.1l-3.7,6.8l-1.3-7.7l-7.6-1.4
	l6.9-3.6L122.8,0h-19.5l3.4,3.6l-7.6-1.1l-3.7,6.8l-1.3-7.6l-7.6-1.4L87,0H0v63.5l6.3-3l-3.4,6.9l5.3,5.6l-7.6-1.1l-0.6,1v51.5
	l4.8,4.7l7-3.3l-3.4,6.9l5.3,5.6l-7.6-1.1l-3.7,6.8L1,136.5l-1-0.2v60.1l5-2.6l-1-7.7l5.5,5.4l7-3.3l-3.4,6.9l5.3,5.6l-7.6-1.1
	L7,206.5l-1.3-7.6L0,197.8v30.9L262.9,98z M182.6,8.9l5.5,5.4l7-3.3l-3.4,6.9l5.3,5.6l-7.7-1.1l-3.7,6.8l-1.3-7.6l-7.6-1.4l6.9-3.6
	L182.6,8.9z M176,44.2l7-3.3l-3.4,6.9l5.3,5.6l-7.6-1.1l-3.7,6.8l-1.3-7.6l-7.6-1.4l6.8-3.6l-1-7.7L176,44.2z M152.8,3.3l5.5,5.4
	l7-3.3l-3.5,6.9l5.3,5.6l-7.6-1.1l-3.7,6.8l-1.3-7.6l-7.6-1.4l6.9-3.6L152.8,3.3z M140.8,37.8l-1-7.7l5.5,5.4l7-3.3l-3.4,6.9
	l5.3,5.6l-7.6-1.1l-3.7,6.8l-1.3-7.6l-7.6-1.4L140.8,37.8z M127.7,60l5.5,5.4l7-3.3l-3.4,6.9l5.3,5.6l-7.7-1.1l-3.7,6.8l-1.3-7.6
	l-7.6-1.4l6.9-3.6L127.7,60z M111,32.2l-1-7.7l5.5,5.4l7-3.3l-3.4,6.9l5.3,5.6l-7.6-1.1l-3.7,6.8l-1.3-7.6l-7.6-1.4L111,32.2z
	 M98,59.1l-1-7.7l5.5,5.4l7-3.3l-3.4,6.9l5.3,5.6l-7.6-1.1l-3.7,6.8l-1.3-7.6l-7.6-1.4L98,59.1z M84.9,81.3l5.5,5.4l7-3.3L94,90.3
	l5.3,5.6l-7.7-1.1l-3.7,6.8L86.6,94L79,92.5l6.9-3.6L84.9,81.3z M79.4,15.9l5.5,5.4l7-3.3l-3.4,6.9l5.3,5.6l-7.6-1.1l-3.7,6.8
	l-1.3-7.6l-7.6-1.4l6.9-3.6L79.4,15.9z M67.3,45.8l5.5,5.4l7-3.3l-3.4,6.9l5.3,5.6L74,59.3l-3.7,6.8l-1.4-7.6L61.3,57l6.9-3.6
	L67.3,45.8z M24.5,67l5.5,5.4l7-3.3l-3.4,6.9l5.3,5.6l-7.7-1.1l-3.7,6.8l-1.3-7.6l-7.6-1.4l6.9-3.6L24.5,67z M43.1,110.2l-1-7.7
	l5.5,5.4l7-3.3l-3.4,6.9l5.3,5.6l-7.6-1.1l-3.7,6.8l-1.3-7.6l-7.6-1.4L43.1,110.2z M55.9,85.3l-7.6-1.4l6.9-3.6l-1-7.7l5.5,5.4
	l7-3.3l-3.4,6.9l5.3,5.6L61,86.2L57.3,93L55.9,85.3z M49.6,10.3l5.5,5.4l7-3.3l-3.4,6.9l5.3,5.6l-7.6-1.1l-3.7,6.8l-1.3-7.6
	l-7.6-1.4l6.8-3.6L49.6,10.3z M42.1,42.6l7-3.3l-3.4,6.9l5.3,5.6l-7.6-1.1l-3.7,6.8l-1.3-7.6l-7.6-1.4l6.8-3.6l-1-7.7L42.1,42.6z
	 M19,1.6L24.5,7l7-3.3L28,10.6l5.3,5.6l-7.6-1.1L22,21.9l-1.3-7.6l-7.6-1.4L20,9.3L19,1.6z M1,42.7l6.9-3.6l-1-7.7l5.5,5.4l7-3.3
	l-3.4,6.9l5.3,5.6L13.6,45l-3.7,6.8l-1.3-7.6L1,42.7z M13.2,106.5l-7.6-1.4l6.9-3.6l-1-7.7l5.5,5.4l7-3.3l-3.4,6.9l5.3,5.6l-7.7-1.1
	l-3.7,6.8L13.2,106.5z M23.7,172.8l-3.8,6.8l-1.3-7.6l-7.6-1.4l6.9-3.6l-1-7.7l5.5,5.4l7-3.3l-3.4,6.9l5.3,5.6L23.7,172.8z
	 M32.2,149.7l-1.3-7.5l-7.6-1.4l6.9-3.6l-1-7.7l5.5,5.4l7-3.3l-3.4,6.9l5.3,5.6l-7.6-1.1L32.2,149.7z M53.5,178.4l-3.7,6.8l-1.3-7.6
	l-7.6-1.4l6.8-3.6l-1-7.7l5.5,5.4l7-3.3l-3.4,6.9l5.3,5.6L53.5,178.4z M66.5,151.5l-3.7,6.8l-1.3-7.6l-7.6-1.4l6.8-3.6l-1-7.7
	l5.5,5.4l7-3.3l-3.4,7l5.3,5.6L66.5,151.5z M74.9,128.5l-1.3-7.6l-7.6-1.4l6.9-3.6l-1-7.6l5.5,5.4l7-3.3l-3.5,6.9l5.3,5.6l-7.7-1.1
	L74.9,128.5z M96.3,157.2l-3.7,6.8l-1.3-7.6l-7.6-1.4l6.9-3.6l-1-7.7l5.5,5.4l7-3.3l-3.4,6.9l5.3,5.6L96.3,157.2z M109.3,130.3
	l-3.7,6.8l-1.3-7.6l-7.6-1.4l6.9-3.6l-1-7.7l5.5,5.4l7-3.3l-3.4,6.9l5.3,5.6L109.3,130.3z M117.7,107.2l-1.3-7.6l-7.6-1.4l6.9-3.6
	l-1-7.7l5.5,5.4l7-3.3l-3.4,6.9l5.3,5.6l-7.7-1.1L117.7,107.2z M139,135.9l-3.7,6.8L134,135l-7.6-1.4l6.9-3.6l-1-7.7l5.5,5.4l7-3.3
	l-3.4,6.9l5.3,5.6L139,135.9z M152,109l-3.7,6.8l-1.3-7.6l-7.6-1.4l6.9-3.6l-1-7.7l5.5,5.4l7-3.3l-3.4,6.9l5.3,5.6L152,109z
	 M160.5,85.9l-1.3-7.6l-7.6-1.4l6.8-3.6l-1-7.7l5.5,5.4l7-3.3l-3.4,6.9l5.3,5.6l-7.6-1.1L160.5,85.9z M181.8,114.7l-3.7,6.8
	l-1.3-7.6l-7.6-1.4l6.9-3.6l-1-7.7l5.5,5.4l7-3.3l-3.4,6.9l5.3,5.6L181.8,114.7z M194.8,87.8l-3.7,6.8l-1.3-7.6l-7.6-1.4l6.9-3.6
	l-1-7.7l5.5,5.4l7-3.3l-3.4,6.9l5.3,5.6L194.8,87.8z M203.2,64.7l-1.3-7.6l-7.6-1.4l6.8-3.6l-1-7.7l5.5,5.4l7-3.3l-3.4,6.9l5.3,5.6
	l-7.6-1.1L203.2,64.7z M224.6,93.4l-3.7,6.8l-1.3-7.6l-7.6-1.4l6.8-3.6l-1-7.7l5.5,5.4l7-3.3l-3.4,6.9l5.3,5.6L224.6,93.4z"/>
<polygon class="st0" points="7,206.5 10.7,199.7 18.3,200.8 13.1,195.2 16.5,188.3 9.5,191.6 4,186.2 5,193.8 0,196.4 0,197.8 
	5.7,198.8 "/>
<polygon class="st0" points="59.3,167 52.3,170.3 46.8,164.9 47.7,172.6 40.9,176.1 48.5,177.6 49.8,185.2 53.5,178.4 61.1,179.6 
	55.8,173.9 "/>
<polygon class="st0" points="102.1,145.8 95.1,149.1 89.5,143.6 90.5,151.3 83.7,154.9 91.3,156.3 92.5,164 96.3,157.2 103.9,158.3 
	98.6,152.7 "/>
<polygon class="st0" points="144.8,124.5 137.8,127.8 132.3,122.4 133.3,130.1 126.4,133.6 134,135.1 135.3,142.7 139,135.9 
	146.7,137 141.4,131.4 "/>
<polygon class="st0" points="187.6,103.2 180.6,106.5 175.1,101.1 176.1,108.8 169.2,112.4 176.8,113.8 178.1,121.4 181.8,114.7 
	189.5,115.8 184.2,110.2 "/>
<polygon class="st0" points="230.4,82 223.4,85.3 217.9,79.9 218.9,87.5 212,91.1 219.6,92.6 220.9,100.2 224.6,93.4 232.2,94.5 
	227,88.9 "/>
<polygon class="st0" points="29.5,161.4 22.5,164.7 17,159.3 17.9,167 11.1,170.5 18.7,172 20,179.6 23.7,172.8 31.3,174 26,168.3 
	"/>
<polygon class="st0" points="72.3,140.2 65.3,143.4 59.8,138 60.7,145.7 53.9,149.3 61.5,150.7 62.8,158.4 66.5,151.6 74.1,152.7 
	68.8,147.1 "/>
<polygon class="st0" points="115,118.9 108,122.2 102.5,116.8 103.5,124.4 96.7,128 104.2,129.5 105.5,137.1 109.3,130.3 
	116.9,131.4 111.6,125.8 "/>
<polygon class="st0" points="157.8,97.6 150.8,100.9 145.3,95.5 146.3,103.2 139.4,106.8 147,108.2 148.3,115.8 152,109.1 
	159.7,110.2 154.4,104.6 "/>
<polygon class="st0" points="200.6,76.4 193.6,79.7 188.1,74.3 189.1,81.9 182.2,85.5 189.8,87 191.1,94.6 194.8,87.8 202.5,88.9 
	197.2,83.3 "/>
<polygon class="st0" points="38.2,138.4 41.6,131.5 34.6,134.8 29.1,129.4 30.1,137.1 23.2,140.7 30.8,142.1 32.1,149.7 35.8,142.9 
	43.5,144.1 "/>
<polygon class="st0" points="81,117.2 84.4,110.3 77.4,113.6 71.9,108.1 72.9,115.8 66,119.4 73.6,120.8 74.9,128.4 78.6,121.7 
	86.3,122.8 "/>
<polygon class="st0" points="123.7,95.9 127.2,89 120.2,92.3 114.7,86.9 115.7,94.6 108.8,98.1 116.4,99.6 117.7,107.2 121.4,100.4 
	129,101.5 "/>
<polygon class="st0" points="166.5,74.7 170,67.7 163,71 157.5,65.6 158.4,73.3 151.6,76.9 159.2,78.3 160.5,85.9 164.2,79.2 
	171.8,80.3 "/>
<polygon class="st0" points="209.3,53.4 212.7,46.5 205.8,49.8 200.2,44.4 201.2,52 194.4,55.6 202,57.1 203.2,64.7 207,57.9 
	214.6,59 "/>
<polygon class="st0" points="2.3,144.1 6.1,137.3 13.7,138.5 8.4,132.8 11.8,125.9 4.8,129.2 0,124.5 0,129.1 0.3,131.5 0,131.6 
	0,136.3 1,136.5 "/>
<polygon class="st0" points="45.1,122.8 48.8,116.1 56.5,117.2 51.2,111.6 54.6,104.7 47.6,107.9 42.1,102.5 43.1,110.2 36.2,113.8 
	43.8,115.2 "/>
<polygon class="st0" points="86.6,94 87.9,101.6 91.6,94.8 99.3,95.9 94,90.3 97.4,83.4 90.4,86.7 84.9,81.3 85.9,88.9 79,92.5 "/>
<polygon class="st0" points="129.4,72.7 130.7,80.3 134.4,73.6 142,74.7 136.7,69.1 140.2,62.1 133.2,65.4 127.7,60 128.6,67.7 
	121.8,71.3 "/>
<polygon class="st0" points="164.6,50 172.2,51.5 173.5,59.1 177.2,52.3 184.8,53.4 179.5,47.8 183,40.9 176,44.2 170.4,38.8 
	171.4,46.4 "/>
<polygon class="st0" points="18.2,107.4 25.9,108.6 20.5,102.9 24,96 17,99.3 11.5,93.9 12.5,101.6 5.6,105.1 13.2,106.6 
	14.5,114.2 "/>
<polygon class="st0" points="61,86.2 68.6,87.3 63.3,81.7 66.8,74.7 59.8,78 54.3,72.6 55.2,80.3 48.4,83.9 56,85.3 57.3,92.9 "/>
<polygon class="st0" points="98.8,64.1 100,71.7 103.8,64.9 111.4,66 106.1,60.4 109.5,53.5 102.6,56.8 97,51.4 98,59 91.2,62.6 "/>
<polygon class="st0" points="142.8,50.4 146.5,43.7 154.2,44.8 148.9,39.2 152.3,32.2 145.3,35.5 139.8,30.1 140.8,37.8 133.9,41.4 
	141.5,42.8 "/>
<polygon class="st0" points="184.3,21.6 185.6,29.2 189.3,22.4 197,23.5 191.7,17.9 195.1,11 188.1,14.3 182.6,8.9 183.6,16.5 
	176.7,20.1 "/>
<polygon class="st0" points="26.2,79.7 27.5,87.3 31.2,80.6 38.8,81.7 33.5,76.1 37,69.1 30,72.4 24.5,67 25.4,74.7 18.6,78.3 "/>
<polygon class="st0" points="69,58.5 70.3,66.1 74,59.3 81.6,60.4 76.3,54.8 79.7,47.9 72.8,51.2 67.2,45.8 68.2,53.4 61.4,57 "/>
<polygon class="st0" points="113,44.8 116.7,38 124.4,39.2 119.1,33.6 122.5,26.6 115.5,29.9 110,24.5 111,32.2 104.2,35.8 
	111.7,37.2 "/>
<polygon class="st0" points="154.5,16 155.8,23.6 159.5,16.8 167.2,17.9 161.9,12.3 165.3,5.4 158.3,8.7 152.8,3.3 153.8,10.9 
	146.9,14.5 "/>
<polygon class="st0" points="8.2,73.1 2.9,67.4 6.3,60.5 0,63.5 0,72.9 0.6,71.9 "/>
<polygon class="st0" points="30.7,48.4 38.3,49.8 39.6,57.4 43.3,50.7 51,51.8 45.7,46.2 49.1,39.2 42.1,42.5 36.6,37.1 37.6,44.8 
	"/>
<polygon class="st0" points="81.1,28.6 82.4,36.2 86.1,29.4 93.8,30.5 88.5,24.9 91.9,18 84.9,21.3 79.4,15.9 80.4,23.5 73.5,27.1 
	"/>
<polygon class="st0" points="116.3,5.9 123.9,7.3 125.2,14.9 128.9,8.2 136.5,9.3 131.3,3.7 133,0 122.9,0 123.2,2.3 "/>
<polygon class="st0" points="9.8,51.8 13.5,45.1 21.2,46.2 15.9,40.6 19.3,33.6 12.3,36.9 6.8,31.5 7.8,39.2 0.9,42.8 8.5,44.2 "/>
<polygon class="st0" points="51.3,23 52.6,30.6 56.3,23.8 64,24.9 58.7,19.3 62.1,12.4 55.1,15.7 49.6,10.3 50.6,17.9 43.7,21.5 "/>
<polygon class="st0" points="94.1,1.7 95.4,9.3 99.1,2.5 106.7,3.7 103.3,0 87,0 86.5,0.3 "/>
<polygon class="st0" points="20.7,14.3 22,21.9 25.7,15.2 33.3,16.3 28,10.7 31.5,3.7 24.5,7 19,1.6 19.9,9.3 13.1,12.9 "/>
<polygon class="st1" points="353,228.7 395.9,228.7 421.9,228.7 431.5,228.7 431.5,224 431.5,214 431.5,189.7 "/>
<g>
	<path d="M10.7,268.4c-5.5,0-9.7-2.9-9.8-7.9h5.7c0.2,2.1,1.5,3.5,4,3.5c2.5,0,4-1.3,4-3.2c0-5.7-13.6-2.3-13.6-11.8
		c0-4.8,3.9-7.6,9.3-7.6c5.4,0,9.1,2.8,9.4,7.5h-5.8c-0.1-1.7-1.5-3.1-3.8-3.1c-2.1-0.1-3.6,0.9-3.6,3.1c0,5.3,13.5,2.3,13.5,11.6
		C20.1,264.7,16.7,268.4,10.7,268.4z"/>
	<path d="M41.2,256.9H29.9v11.2h-5.3v-26.4h5.3v10.8h11.3v-10.8h5.3v26.4h-5.3V256.9z"/>
	<path d="M51.7,241.8H57v26.4h-5.3V241.8z"/>
	<path d="M71.9,258h-4.4v10.1h-5.3v-26.4h9.7c6.3,0,9.5,3.6,9.5,8.2C81.4,254,78.7,258,71.9,258z M71.7,253.8c3,0,4.3-1.5,4.3-3.8
		c0-2.4-1.3-3.9-4.3-3.9h-4.2v7.7H71.7z"/>
	<path d="M94.9,258h-4.4v10.1h-5.3v-26.4h9.7c6.3,0,9.5,3.6,9.5,8.2C104.4,254,101.6,258,94.9,258z M94.6,253.8c3,0,4.3-1.5,4.3-3.8
		c0-2.4-1.3-3.9-4.3-3.9h-4.2v7.7H94.6z"/>
	<path d="M123.4,246.1h-10v6.6h8.9v4.2h-8.9v7h10v4.3h-15.3v-26.4h15.3V246.1z"/>
	<path d="M151.3,255c0,8-5.5,13.1-13.9,13.1h-9.2v-26.4h9.2C145.8,241.8,151.3,247,151.3,255z M137.2,263.7c5.6,0,8.7-3.2,8.7-8.6
		c0-5.5-3.1-8.8-8.7-8.8h-3.7v17.4H137.2z"/>
	<path d="M164.2,241.8h16.3v4.3h-11v6.8h8.4v4.2h-8.4v11.1h-5.3V241.8z"/>
	<path d="M194.2,241.8c6.3,0,9.5,3.7,9.5,8.1c0,3.2-1.8,6.5-6,7.6l6.3,10.7h-6.1l-5.8-10.3h-2.5v10.3h-5.3v-26.4H194.2z M194,246.2
		h-4.4v7.7h4.4c2.9,0,4.3-1.5,4.3-3.9C198.2,247.7,196.9,246.2,194,246.2z"/>
	<path d="M220.7,268.4c-7.4,0-13.5-5.6-13.5-13.5c0-7.9,6.1-13.5,13.5-13.5c7.5,0,13.5,5.6,13.5,13.5
		C234.2,262.8,228.2,268.4,220.7,268.4z M220.7,263.7c4.8,0,8-3.4,8-8.8c0-5.4-3.3-8.7-8-8.7c-4.8,0-8.1,3.4-8.1,8.7
		C212.6,260.3,215.9,263.7,220.7,263.7z"/>
	<path d="M238.1,241.8h6l8.4,19.6l8.4-19.6h6v26.4h-5.3V251l-7.1,17.1h-4l-7.1-17.1v17.1h-5.3V241.8z"/>
	<path d="M279.6,241.8H299v4.3h-7v22.1h-5.3v-22.1h-7V241.8z"/>
	<path d="M319.4,256.9h-11.3v11.2h-5.3v-26.4h5.3v10.8h11.3v-10.8h5.3v26.4h-5.3V256.9z"/>
	<path d="M345.2,246.1h-10v6.6h8.9v4.2h-8.9v7h10v4.3h-15.3v-26.4h15.3V246.1z"/>
	<path d="M358.9,241.8h5.3v16.3c0,3.6,2,5.5,5.3,5.5c3.4,0,5.4-1.9,5.4-5.5v-16.3h5.3v16.3c0,6.9-5,10.3-10.8,10.3
		s-10.5-3.4-10.5-10.3V241.8z"/>
	<path d="M394.4,268.4c-5.5,0-9.7-2.9-9.8-7.9h5.7c0.2,2.1,1.5,3.5,4,3.5c2.5,0,4-1.3,4-3.2c0-5.7-13.6-2.3-13.6-11.8
		c0-4.8,3.9-7.6,9.3-7.6c5.4,0,9.1,2.8,9.4,7.5h-5.8c-0.1-1.7-1.5-3.1-3.8-3.1c-2.1-0.1-3.6,0.9-3.6,3.1c0,5.3,13.5,2.3,13.5,11.6
		C403.7,264.7,400.4,268.4,394.4,268.4z"/>
	<path d="M424.4,263.1h-10.5l-1.7,5h-5.6l9.5-26.4h6.2l9.5,26.4h-5.6L424.4,263.1z M419.2,247.9l-3.8,11h7.6L419.2,247.9z"/>
</g>
</svg>
