<?xml version="1.0" encoding="utf-8"?>
<!-- Generator: Adobe Illustrator 24.3.0, SVG Export Plug-In . SVG Version: 6.00 Build 0)  -->
<svg version="1.1" id="Layer_1" xmlns="http://www.w3.org/2000/svg" xmlns:xlink="http://www.w3.org/1999/xlink" x="0px" y="0px"
	 viewBox="0 0 72.7 7.8" style="enable-background:new 0 0 72.7 7.8;" xml:space="preserve">
<style type="text/css">
	.st0{fill:#3F3F3F;}
</style>
<desc>Created with Sketch.</desc>
<g>
	<g>
		<path class="st0" d="M5.7,3.6c0,0.7,0,1.5,0,2.2c0,0.1,0,0.1,0,0.2c-0.2,1-1.1,1.7-2.1,1.7c-0.4,0-0.9,0-1.4,0c-0.1,0-0.2,0-0.4,0
			C0.8,7.6,0,6.7,0,5.7c0-0.7,0-1.4,0-2C0,3.3,0.3,3,0.6,3c0.1,0,0.1,0,0.1-0.1c0-0.3,0-0.5,0-0.8c0-1,0.7-1.8,1.6-2.1
			C2.4,0,2.5,0,2.7,0C2.8,0,2.9,0,3,0c0.1,0,0.2,0,0.3,0C4.2,0.2,4.9,1.1,5,2c0,0.3,0,0.6,0,1C5,3,5,3,5,3C5.3,3,5.6,3.2,5.7,3.6
			C5.7,3.5,5.7,3.6,5.7,3.6z M2.8,3c0.4,0,0.9,0,1.3,0c0.1,0,0.1,0,0.1-0.1c0-0.3,0-0.5,0-0.8c0-0.2,0-0.4-0.1-0.5
			C3.9,1,3.3,0.6,2.6,0.7C1.9,0.8,1.4,1.4,1.4,2.1c0,0.3,0,0.6,0,0.8C1.4,3,1.4,3,1.5,3C1.9,3,2.4,3,2.8,3z M2.5,5.8
			c0,0.1,0,0.1,0,0.2c0,0.2,0.2,0.4,0.4,0.4S3.2,6.2,3.2,6c0-0.1,0-0.3,0-0.4s0-0.2,0.1-0.3C3.5,5.2,3.5,5,3.5,4.8
			c0-0.3-0.2-0.6-0.5-0.7C2.7,4,2.4,4.1,2.2,4.4C2.1,4.7,2.1,5,2.3,5.3c0.1,0.1,0.2,0.2,0.2,0.4C2.5,5.7,2.5,5.7,2.5,5.8z"/>
	</g>
	<g>
		<path class="st0" d="M9.4,5.5c0,0,0.1-0.1,0.1-0.1c0.1-0.1,0.1-0.1,0.2-0.1c0,0,0.5,0.5,1.1,0.5c0.5,0,0.9-0.3,0.9-0.7
			c0-0.5-0.4-0.7-1.2-1.1C9.9,3.8,9.5,3.5,9.5,2.7c0-0.5,0.4-1.2,1.4-1.2c0.7,0,1.1,0.3,1.1,0.3c0,0,0.1,0.1,0,0.2
			c0,0-0.1,0.1-0.1,0.1c-0.1,0.1-0.1,0.1-0.2,0.1c0,0-0.5-0.3-0.9-0.3c-0.7,0-0.9,0.5-0.9,0.7c0,0.4,0.3,0.7,0.9,0.9
			c0.9,0.4,1.5,0.7,1.5,1.5c0,0.7-0.7,1.2-1.4,1.2c-0.8,0-1.3-0.5-1.4-0.5C9.4,5.7,9.4,5.7,9.4,5.5z"/>
		<path class="st0" d="M13.3,1.7c0-0.1,0.1-0.1,0.1-0.1H16c0.1,0,0.1,0.1,0.1,0.1v0.2C16.2,2,16.1,2,16,2h-2.2v1.6h1.9
			c0.1,0,0.1,0.1,0.1,0.1V4c0,0.1-0.1,0.1-0.1,0.1h-1.9v1.7H16c0.1,0,0.1,0.1,0.1,0.1v0.2c0,0.1-0.1,0.1-0.1,0.1h-2.6
			c-0.1,0-0.1-0.1-0.1-0.1V1.7z"/>
		<path class="st0" d="M19.3,1.5c0.7,0,1.2,0.2,1.6,0.6c0.1,0.1,0.1,0.1,0,0.2l-0.2,0.2c-0.1,0.1-0.1,0.1-0.2,0
			C20.2,2.2,19.7,2,19.3,2c-1.1,0-1.9,0.9-1.9,1.9c0,1,0.8,1.9,1.9,1.9c0.6,0,0.9-0.2,1.3-0.5c0.1-0.1,0.1,0,0.2,0l0.2,0.2
			c0.1,0,0,0.1,0,0.2c-0.5,0.4-1,0.6-1.6,0.6c-1.3,0-2.4-1.1-2.4-2.4S18,1.5,19.3,1.5z"/>
		<path class="st0" d="M21.9,1.7c0-0.1,0.1-0.1,0.1-0.1h0.3c0.1,0,0.1,0.1,0.1,0.1v2.8c0,0.8,0.5,1.4,1.3,1.4c0.8,0,1.3-0.6,1.3-1.3
			V1.7c0-0.1,0.1-0.1,0.1-0.1h0.3c0.1,0,0.1,0.1,0.1,0.1v2.8c0,1-0.7,1.8-1.8,1.8c-1,0-1.8-0.8-1.8-1.8V1.7z"/>
		<path class="st0" d="M26.7,1.7c0-0.1,0.1-0.1,0.1-0.1h1.7C29.4,1.6,30,2.2,30,3c0,0.6-0.4,1.1-1,1.4L29.9,6c0,0.1,0,0.2-0.1,0.2
			h-0.3c-0.1,0-0.1,0-0.1-0.1l-0.9-1.8h-1.3v1.7c0,0.1-0.1,0.1-0.1,0.1h-0.3c-0.1,0-0.1-0.1-0.1-0.1V1.7z M28.5,4c0.5,0,1-0.4,1-1
			c0-0.5-0.4-0.9-1-0.9h-1.3V4H28.5z"/>
		<path class="st0" d="M31.1,1.7c0-0.1,0.1-0.1,0.1-0.1h2.6c0.1,0,0.1,0.1,0.1,0.1v0.2C34,2,33.9,2,33.9,2h-2.2v1.6h1.9
			c0.1,0,0.1,0.1,0.1,0.1V4c0,0.1-0.1,0.1-0.1,0.1h-1.9v1.7h2.2c0.1,0,0.1,0.1,0.1,0.1v0.2c0,0.1-0.1,0.1-0.1,0.1h-2.6
			c-0.1,0-0.1-0.1-0.1-0.1V1.7z"/>
		<path class="st0" d="M39.7,1.5c0.7,0,1.2,0.2,1.6,0.6c0.1,0.1,0.1,0.1,0,0.2l-0.2,0.2c-0.1,0.1-0.1,0.1-0.2,0
			C40.6,2.2,40.2,2,39.7,2c-1.1,0-1.9,0.9-1.9,1.9c0,1,0.8,1.9,1.9,1.9c0.6,0,0.9-0.2,1.3-0.5c0.1-0.1,0.1,0,0.2,0l0.2,0.2
			c0.1,0,0,0.1,0,0.2c-0.5,0.4-1,0.6-1.6,0.6c-1.3,0-2.4-1.1-2.4-2.4S38.4,1.5,39.7,1.5z"/>
		<path class="st0" d="M42.4,1.7c0-0.1,0.1-0.1,0.1-0.1h0.3c0.1,0,0.1,0.1,0.1,0.1v1.9h2.7V1.7c0-0.1,0.1-0.1,0.1-0.1H46
			c0.1,0,0.1,0.1,0.1,0.1v4.4c0,0.1-0.1,0.1-0.1,0.1h-0.3c-0.1,0-0.1-0.1-0.1-0.1v-2h-2.7v2c0,0.1-0.1,0.1-0.1,0.1h-0.3
			c-0.1,0-0.1-0.1-0.1-0.1V1.7z"/>
		<path class="st0" d="M47.5,1.7c0-0.1,0.1-0.1,0.1-0.1h2.6c0.1,0,0.1,0.1,0.1,0.1v0.2C50.3,2,50.3,2,50.2,2H48v1.6h1.9
			c0.1,0,0.1,0.1,0.1,0.1V4c0,0.1-0.1,0.1-0.1,0.1H48v1.7h2.2c0.1,0,0.1,0.1,0.1,0.1v0.2c0,0.1-0.1,0.1-0.1,0.1h-2.6
			c-0.1,0-0.1-0.1-0.1-0.1V1.7z"/>
		<path class="st0" d="M53.4,1.5c0.7,0,1.2,0.2,1.6,0.6c0.1,0.1,0.1,0.1,0,0.2l-0.2,0.2c-0.1,0.1-0.1,0.1-0.2,0
			C54.4,2.2,53.9,2,53.4,2c-1.1,0-1.9,0.9-1.9,1.9c0,1,0.8,1.9,1.9,1.9c0.6,0,0.9-0.2,1.3-0.5c0.1-0.1,0.1,0,0.2,0l0.2,0.2
			c0.1,0,0,0.1,0,0.2c-0.5,0.4-1,0.6-1.6,0.6c-1.3,0-2.4-1.1-2.4-2.4S52.1,1.5,53.4,1.5z"/>
		<path class="st0" d="M56.1,1.7c0-0.1,0.1-0.2,0.2-0.2h0.2c0.1,0,0.2,0.1,0.2,0.2v1.9l2.1-2c0,0,0.1-0.1,0.1-0.1h0.3
			c0.1,0,0.2,0.1,0.1,0.2l-2.1,2L59.3,6c0,0,0,0.2-0.1,0.2h-0.3c0,0-0.1,0-0.1,0L56.6,4v2.1c0,0.1-0.1,0.2-0.2,0.2h-0.2
			c-0.1,0-0.2-0.1-0.2-0.2V1.7z"/>
		<path class="st0" d="M62,1.5c1.3,0,2.4,1.1,2.4,2.4S63.4,6.3,62,6.3c-1.3,0-2.4-1.1-2.4-2.4S60.7,1.5,62,1.5z M62,5.8
			C63.1,5.8,64,5,64,3.9S63.1,2,62,2c-1.1,0-1.9,0.9-1.9,1.9S61,5.8,62,5.8z"/>
		<path class="st0" d="M65.4,1.7c0-0.1,0.1-0.1,0.1-0.1h0.3c0.1,0,0.1,0.1,0.1,0.1v2.8c0,0.8,0.5,1.4,1.3,1.4c0.8,0,1.3-0.6,1.3-1.3
			V1.7c0-0.1,0.1-0.1,0.1-0.1h0.3c0.1,0,0.1,0.1,0.1,0.1v2.8c0,1-0.7,1.8-1.8,1.8c-1,0-1.8-0.8-1.8-1.8V1.7z"/>
		<path class="st0" d="M70.9,2h-1.2c-0.1,0-0.1-0.1-0.1-0.1V1.7c0-0.1,0.1-0.1,0.1-0.1h2.8c0.1,0,0.1,0.1,0.1,0.1v0.2
			C72.7,2,72.6,2,72.5,2h-1.2v4.1c0,0.1-0.1,0.1-0.1,0.1H71c-0.1,0-0.1-0.1-0.1-0.1V2z"/>
	</g>
</g>
</svg>
