<svg width="40" height="40" viewBox="0 0 40 40" fill="none" xmlns="http://www.w3.org/2000/svg">
<path d="M39.5278 19.155C38.003 17.8411 37.9337 16.3889 38.904 14.7293C39.2505 14.1069 39.1466 13.5883 38.4535 13.2771C36.6168 12.4819 35.8544 11.1334 36.2702 9.12801C36.4089 8.4365 36.1663 7.98701 35.3692 7.88328C34.8148 7.77956 34.2949 7.5721 33.7405 7.4338C33.1513 7.2955 32.8048 6.98431 32.6662 6.39652C32.5276 5.73958 32.285 5.08264 32.1117 4.39113C32.0078 3.97622 31.7652 3.73419 31.3493 3.80334C29.0968 4.21825 27.5373 3.423 26.6363 1.34846C26.4631 0.968123 26.1512 0.864395 25.7353 1.03727C25.4234 1.17558 25.0769 1.21015 24.7996 1.38303C23.4828 2.17828 22.3738 1.90167 21.2995 0.829819C20.156 -0.276606 19.9827 -0.276606 18.8391 0.829819C17.6608 1.93625 16.6212 2.03997 15.2004 1.41761C13.5716 0.65694 13.8142 0.760668 12.9132 2.17828C12.2201 3.25013 11.5963 4.32198 10.2101 3.83791C9.65568 3.83791 9.27448 3.87249 8.92794 3.83791C8.30416 3.76876 7.92296 4.01079 7.88831 4.63316C7.71503 6.67313 6.57144 7.77956 4.52683 7.95244C3.93771 8.02159 3.66047 8.36735 3.76444 8.92056C4.18029 11.0297 3.41789 12.5164 1.44259 13.3463C0.853469 13.6229 0.749506 14.0724 1.06139 14.591C2.10103 16.3198 1.96241 17.8757 0.402962 19.2241C-0.151508 19.7082 -0.116854 20.3306 0.402962 20.7801C1.99706 22.1631 2.03172 23.719 1.02674 25.4478C0.714851 26.001 0.853469 26.4505 1.44259 26.6925C3.34858 27.5569 4.14563 28.9745 3.72978 31.0491C3.62582 31.6714 3.90305 32.0518 4.52683 32.1209C6.6061 32.2938 7.68038 33.4348 7.85365 35.4402C7.92296 36.028 8.2695 36.3046 8.82397 36.2009C10.9379 35.786 12.428 36.5466 13.2597 38.5175C13.5023 39.0361 13.9182 39.2435 14.438 38.9324C16.24 37.8951 17.8341 37.9988 19.2549 39.6239C19.7054 40.1425 20.2599 40.1079 20.6758 39.6239C22.0966 37.9642 23.7254 37.8951 25.4927 38.9669C26.0125 39.2781 26.4284 39.1052 26.6363 38.5866C27.468 36.6849 28.8542 35.8205 30.9681 36.2354C31.5919 36.3738 32.0078 36.0971 32.0771 35.4056C32.285 33.4694 33.2553 32.2938 35.2653 32.1901C35.993 32.1555 36.2009 31.6714 36.2009 30.9453C36.2009 27.7298 35.6465 28.6979 38.3842 26.8308C39.0079 26.4159 39.1812 25.9664 38.8347 25.3441C37.8643 23.6844 37.9337 22.2322 39.4584 20.9184C40.1862 20.3652 40.1515 19.6736 39.5278 19.155Z" fill="#77C44F"/>
<path d="M16.366 17.298C17.994 17.298 19.336 15.978 19.336 14.328C19.336 12.678 17.994 11.38 16.366 11.38C14.716 11.38 13.396 12.678 13.396 14.328C13.396 15.978 14.716 17.298 16.366 17.298ZM15.024 26.406C14.87 26.692 15.068 27 15.398 27H17.026C17.136 27 17.334 26.868 17.4 26.78L24.99 12.194C25.144 11.908 24.946 11.6 24.616 11.6H22.944C22.834 11.6 22.658 11.666 22.57 11.82L15.024 26.406ZM16.366 15.098C15.948 15.098 15.596 14.746 15.596 14.328C15.596 13.932 15.948 13.58 16.366 13.58C16.762 13.58 17.114 13.932 17.114 14.328C17.114 14.746 16.762 15.098 16.366 15.098ZM20.766 24.25C20.766 25.878 22.108 27.22 23.736 27.22C25.386 27.22 26.728 25.878 26.728 24.25C26.728 22.6 25.386 21.28 23.736 21.28C22.108 21.28 20.766 22.6 20.766 24.25ZM22.988 24.25C22.988 23.832 23.34 23.48 23.736 23.48C24.154 23.48 24.506 23.832 24.506 24.25C24.506 24.646 24.154 24.998 23.736 24.998C23.34 24.998 22.988 24.646 22.988 24.25Z" fill="white"/>
</svg>
