<?xml version="1.0" encoding="utf-8"?>
<svg width="74px" height="10px" viewBox="0 0 74 10" version="1.1" xmlns:xlink="http://www.w3.org/1999/xlink" xmlns="http://www.w3.org/2000/svg">
  <g id="Group-23">
    <g id="Size-Guide" fill="#00237E" transform="translate(27.521246 0)">
      <path d="M6.304 2.896Q5.96 2.896 5.744 2.696Q5.528 2.496 5.528 2.2Q5.528 1.904 5.744 1.704Q5.96 1.504 6.304 1.504Q6.648 1.504 6.864 1.696Q7.08 1.888 7.08 2.176Q7.08 2.488 6.864 2.692Q6.648 2.896 6.304 2.896ZM31.472 2.696Q31.688 2.896 32.032 2.896Q32.376 2.896 32.592 2.692Q32.808 2.488 32.808 2.176Q32.808 1.888 32.592 1.696Q32.376 1.504 32.032 1.504Q31.688 1.504 31.472 1.704Q31.256 1.904 31.256 2.2Q31.256 2.496 31.472 2.696ZM38.2 1.864L38.2 7.8L37.008 7.8L37.008 7.304Q36.544 7.864 35.664 7.864Q35.056 7.864 34.564 7.592Q34.072 7.32 33.792 6.816Q33.512 6.312 33.512 5.648Q33.512 4.984 33.792 4.48Q34.072 3.976 34.564 3.704Q35.056 3.432 35.664 3.432Q36.488 3.432 36.952 3.952L36.952 1.864L38.2 1.864ZM2.504 7.896Q1.84 7.896 1.22 7.716Q0.6 7.536 0.224 7.248L0.664 6.272Q1.024 6.536 1.52 6.696Q2.016 6.856 2.512 6.856Q3.064 6.856 3.328 6.692Q3.592 6.528 3.592 6.256Q3.592 6.056 3.436 5.924Q3.28 5.792 3.036 5.712Q2.792 5.632 2.376 5.536Q1.736 5.384 1.328 5.232Q0.92 5.08 0.628 4.744Q0.336 4.408 0.336 3.848Q0.336 3.36 0.6 2.964Q0.864 2.568 1.396 2.336Q1.928 2.104 2.696 2.104Q3.232 2.104 3.744 2.232Q4.256 2.36 4.64 2.6L4.24 3.584Q3.464 3.144 2.688 3.144Q2.144 3.144 1.884 3.32Q1.624 3.496 1.624 3.784Q1.624 4.072 1.924 4.212Q2.224 4.352 2.84 4.488Q3.48 4.64 3.888 4.792Q4.296 4.944 4.588 5.272Q4.88 5.6 4.88 6.16Q4.88 6.64 4.612 7.036Q4.344 7.432 3.808 7.664Q3.272 7.896 2.504 7.896ZM24.8 4.912L23.616 4.912L23.616 6.552Q23.168 6.792 22.608 6.792Q22.08 6.792 21.668 6.564Q21.256 6.336 21.024 5.928Q20.792 5.52 20.792 5Q20.792 4.472 21.024 4.064Q21.256 3.656 21.672 3.432Q22.088 3.208 22.624 3.208Q23.472 3.208 24.072 3.84L24.904 3.072Q24.496 2.6 23.896 2.352Q23.296 2.104 22.56 2.104Q21.68 2.104 20.976 2.476Q20.272 2.848 19.876 3.508Q19.48 4.168 19.48 5Q19.48 5.832 19.876 6.492Q20.272 7.152 20.968 7.524Q21.664 7.896 22.536 7.896Q23.144 7.896 23.744 7.712Q24.344 7.528 24.8 7.184L24.8 4.912ZM16.648 5.664Q16.648 5.688 16.624 6L13.368 6Q13.456 6.4 13.784 6.632Q14.112 6.864 14.6 6.864Q14.936 6.864 15.196 6.764Q15.456 6.664 15.68 6.448L16.344 7.168Q15.736 7.864 14.568 7.864Q13.84 7.864 13.28 7.58Q12.72 7.296 12.416 6.792Q12.112 6.288 12.112 5.648Q12.112 5.016 12.412 4.508Q12.712 4 13.236 3.716Q13.76 3.432 14.408 3.432Q15.04 3.432 15.552 3.704Q16.064 3.976 16.356 4.484Q16.648 4.992 16.648 5.664ZM43.544 6Q43.568 5.688 43.568 5.664Q43.568 4.992 43.276 4.484Q42.984 3.976 42.472 3.704Q41.96 3.432 41.328 3.432Q40.68 3.432 40.156 3.716Q39.632 4 39.332 4.508Q39.032 5.016 39.032 5.648Q39.032 6.288 39.336 6.792Q39.64 7.296 40.2 7.58Q40.76 7.864 41.488 7.864Q42.656 7.864 43.264 7.168L42.6 6.448Q42.376 6.664 42.116 6.764Q41.856 6.864 41.52 6.864Q41.032 6.864 40.704 6.632Q40.376 6.4 40.288 6L43.544 6ZM5.68 3.496L6.928 3.496L6.928 7.8L5.68 7.8L5.68 3.496ZM11.632 7.8L11.632 6.84L9.368 6.84L11.56 4.248L11.56 3.496L7.848 3.496L7.848 4.456L9.984 4.456L7.792 7.048L7.792 7.8L11.632 7.8ZM30.248 7.8L29.064 7.8L29.064 7.288Q28.816 7.568 28.472 7.716Q28.128 7.864 27.728 7.864Q26.88 7.864 26.384 7.376Q25.888 6.888 25.888 5.928L25.888 3.496L27.136 3.496L27.136 5.744Q27.136 6.784 28.008 6.784Q28.456 6.784 28.728 6.492Q29 6.2 29 5.624L29 3.496L30.248 3.496L30.248 7.8ZM32.656 3.496L31.408 3.496L31.408 7.8L32.656 7.8L32.656 3.496ZM14.416 4.376Q13.992 4.376 13.704 4.616Q13.416 4.856 13.352 5.272L15.472 5.272Q15.408 4.864 15.12 4.62Q14.832 4.376 14.416 4.376ZM40.624 4.616Q40.912 4.376 41.336 4.376Q41.752 4.376 42.04 4.62Q42.328 4.864 42.392 5.272L40.272 5.272Q40.336 4.856 40.624 4.616ZM35.88 6.84Q36.352 6.84 36.664 6.516Q36.976 6.192 36.976 5.648Q36.976 5.104 36.664 4.78Q36.352 4.456 35.88 4.456Q35.4 4.456 35.088 4.78Q34.776 5.104 34.776 5.648Q34.776 6.192 35.088 6.516Q35.4 6.84 35.88 6.84Z" />
    </g>
    <path d="M0.470588 0C0.224259 0 0 0.228352 0 0.479167L0 22.5208C0 22.7717 0.224264 23 0.470588 23L7.52941 23C7.77574 23 8 22.7716 8 22.5208L8 0.479167C8 0.228347 7.77574 0 7.52941 0L0.470588 0ZM0.941176 0.958333L7.05882 0.958333L7.05882 22.0417L0.941176 22.0417L0.941176 20.6042L4.23529 20.6042C4.49541 20.6042 4.70588 20.3899 4.70588 20.125C4.70588 19.8601 4.4954 19.6458 4.23529 19.6458L0.941176 19.6458L0.941176 18.4479L2.82353 18.4479C3.08365 18.4479 3.29412 18.2336 3.29412 17.9688C3.29412 17.7039 3.08364 17.4896 2.82353 17.4896L0.941176 17.4896L0.941176 16.2917L2.82353 16.2917C3.08365 16.2917 3.29412 16.0774 3.29412 15.8125C3.29412 15.5476 3.08364 15.3333 2.82353 15.3333L0.941176 15.3333L0.941176 14.1354L2.82353 14.1354C3.08365 14.1354 3.29412 13.9211 3.29412 13.6563C3.29412 13.3914 3.08364 13.1771 2.82353 13.1771L0.941176 13.1771L0.941176 11.9792L4.23529 11.9792C4.49541 11.9792 4.70588 11.7649 4.70588 11.5C4.70588 11.2351 4.4954 11.0208 4.23529 11.0208L0.941176 11.0208L0.941176 9.82292L2.82353 9.82292C3.08365 9.82292 3.29412 9.6086 3.29412 9.34375C3.29412 9.0789 3.08364 8.86458 2.82353 8.86458L0.941176 8.86458L0.941176 7.66667L2.82353 7.66667C3.08365 7.66667 3.29412 7.45235 3.29412 7.1875C3.29412 6.92265 3.08364 6.70833 2.82353 6.70833L0.941176 6.70833L0.941176 5.51042L2.82353 5.51042C3.08365 5.51042 3.29412 5.2961 3.29412 5.03125C3.29412 4.7664 3.08364 4.55208 2.82353 4.55208L0.941176 4.55208L0.941176 3.35417L4.23529 3.35417C4.49541 3.35417 4.70588 3.13985 4.70588 2.875C4.70588 2.61015 4.4954 2.39583 4.23529 2.39583L0.941176 2.39583L0.941176 0.958333Z" transform="matrix(-4.371139E-08 1 -1 -4.371139E-08 23 1.5)" id="Page-1" fill="#00237E" fill-rule="evenodd" stroke="none" />
  </g>
</svg>