<?xml version="1.0" encoding="UTF-8"?>
<svg width="30px" height="30px" viewBox="0 0 30 30" version="1.1" xmlns="http://www.w3.org/2000/svg" xmlns:xlink="http://www.w3.org/1999/xlink">
    <title>calendar</title>
    <g id="Page-1" stroke="none" stroke-width="1" fill="none" fill-rule="evenodd">
        <g id="8" transform="translate(-847.000000, -1040.000000)" fill="#000000" fill-rule="nonzero">
            <g id="calendar" transform="translate(847.000000, 1040.000000)">
                <path d="M26.875,30 L3.125,30 C1.4025,30 0,28.5975 0,26.875 L0,5.625 C0,3.9025 1.4025,2.5 3.125,2.5 L26.875,2.5 C28.5975,2.5 30,3.9025 30,5.625 L30,26.875 C30,28.5975 28.5975,30 26.875,30 Z M3.125,3.75 C2.09125,3.75 1.25,4.59125 1.25,5.625 L1.25,26.875 C1.25,27.90875 2.09125,28.75 3.125,28.75 L26.875,28.75 C27.90875,28.75 28.75,27.90875 28.75,26.875 L28.75,5.625 C28.75,4.59125 27.90875,3.75 26.875,3.75 L3.125,3.75 Z" id="Shape"></path>
                <path d="M29.375,11.25 L0.625,11.25 C0.28,11.25 0,10.97 0,10.625 C0,10.28 0.28,10 0.625,10 L29.375,10 C29.72,10 30,10.28 30,10.625 C30,10.97 29.72,11.25 29.375,11.25 Z" id="Path"></path>
                <path d="M6.875,6.25 C6.53,6.25 6.25,5.97 6.25,5.625 L6.25,0.625 C6.25,0.28 6.53,0 6.875,0 C7.22,0 7.5,0.28 7.5,0.625 L7.5,5.625 C7.5,5.97 7.22,6.25 6.875,6.25 Z" id="Path"></path>
                <path d="M23.125,6.25 C22.78,6.25 22.5,5.97 22.5,5.625 L22.5,0.625 C22.5,0.28 22.78,0 23.125,0 C23.47,0 23.75,0.28 23.75,0.625 L23.75,5.625 C23.75,5.97 23.47,6.25 23.125,6.25 Z" id="Path"></path>
            </g>
        </g>
    </g>
</svg>