<?xml version="1.0" encoding="UTF-8"?>
<svg width="26px" height="26px" viewBox="0 0 26 26" version="1.1" xmlns="http://www.w3.org/2000/svg" xmlns:xlink="http://www.w3.org/1999/xlink">
    <title>Group 12</title>
    <g id="Update" stroke="none" stroke-width="1" fill="none" fill-rule="evenodd">
        <g id="v1_popup" transform="translate(-439.000000, -470.000000)">
            <g id="Group-20" transform="translate(385.000000, 287.000000)">
                <g id="Group-12" transform="translate(54.000000, 183.000000)">
                    <circle id="Oval" fill="#DCFF8E" cx="13" cy="13" r="13"></circle>
                    <g id="010-secure" transform="translate(7.090909, 9.454545)" fill="#00237E" fill-rule="nonzero">
                        <path d="M12.3690045,2.0773608 L5.57949248,8.44433806 C5.42150902,8.59248967 5.21431759,8.66666667 5.00723407,8.66666667 C4.80015056,8.66666667 4.59295913,8.59259086 4.43497567,8.44433806 L0.237083107,4.50769482 C0.0852506394,4.36541261 0,4.17232978 0,3.97105003 C0,3.76977028 0.0853585516,3.57668745 0.237083107,3.43440524 L1.07059695,2.65276383 C1.38667179,2.35646062 1.89914684,2.35635942 2.21511377,2.65276383 L5.00723407,5.27112087 L10.3909738,0.222328608 C10.5426984,0.0799451982 10.7485949,0 10.9632322,0 C11.1778696,0 11.3837661,0.0799451982 11.5354906,0.222328608 L12.3690045,1.00397001 C12.6850793,1.30037443 12.6850793,1.78095638 12.3690045,2.0773608 Z" id="Path"></path>
                    </g>
                </g>
            </g>
        </g>
    </g>
</svg>