<?xml version="1.0" encoding="UTF-8"?><svg version="1.1" width="13px" height="13px" viewBox="0 0 13.0 13.0" xmlns="http://www.w3.org/2000/svg" xmlns:xlink="http://www.w3.org/1999/xlink"><defs><clipPath id="i0"><path d="M1440,0 L1440,2384 L0,2384 L0,0 L1440,0 Z"></path></clipPath><clipPath id="i1"><path d="M5.02734418,0 C5.24218795,0 5.43554734,0.169811321 5.43554734,0.382075472 L5.43554734,3.67216981 L8.74414137,3.67216981 C8.95898514,3.67216981 9.13086015,3.86320755 9.13086015,4.0754717 L9.13086015,4.96698113 C9.13086015,5.17924528 8.95898514,5.37028302 8.74414137,5.37028302 L5.43554734,5.37028302 L5.43554734,8.61792453 C5.43554734,8.83018868 5.24218795,9 5.02734418,9 L4.12500035,9 C3.91015658,9 3.71679719,8.83018868 3.71679719,8.61792453 L3.71679719,5.37028302 L0.40820316,5.37028302 C0.193359391,5.37028302 0,5.17924528 0,4.96698113 L0,4.0754717 C0,3.86320755 0.193359391,3.67216981 0.40820316,3.67216981 L3.71679719,3.67216981 L3.71679719,0.382075472 C3.71679719,0.169811321 3.91015658,0 4.12500035,0 Z"></path></clipPath></defs><g transform="translate(-1257.0 -384.0)"><g clip-path="url(#i0)"><g transform="translate(1263.5191640257685 384.08977291839886) rotate(44.99999999999999)"><g clip-path="url(#i1)"><polygon points="1.13686838e-13,2.27373675e-13 9.13086015,2.27373675e-13 9.13086015,9 1.13686838e-13,9 1.13686838e-13,2.27373675e-13" stroke="none" fill="#000000"></polygon></g></g></g></g></svg>