<?xml version="1.0" encoding="UTF-8"?>
<svg width="28px" height="18px" viewBox="0 0 28 18" version="1.1" xmlns="http://www.w3.org/2000/svg" xmlns:xlink="http://www.w3.org/1999/xlink">
    <title>noun-cash-4679175</title>
    <g id="Page-1" stroke="none" stroke-width="1" fill="none" fill-rule="evenodd">
        <g id="5" transform="translate(-49.000000, -529.000000)" fill="#303C48" fill-rule="nonzero">
            <g id="noun-cash-4679175" transform="translate(49.000000, 529.000000)">
                <path d="M3.72976925,0.0334633231 C3.27548953,0.0334633231 2.90717513,0.407347334 2.90717513,0.868162242 L2.90717513,2.98910188 L0.804689516,2.98910188 L0.804689516,2.99003426 C0.739200813,2.99259833 0.674635645,3.00332094 0.611676372,3.02150196 C0.601336298,3.02126888 0.590996224,3.02126888 0.58065615,3.02150196 C0.516549809,3.03921753 0.454967016,3.06462489 0.396831307,3.0972562 C0.339156189,3.13175406 0.285848161,3.17301044 0.238053701,3.22056345 C0.190029241,3.26974672 0.148211883,3.32499032 0.113741048,3.38466282 C0.0785843264,3.4461971 0.0514700149,3.51193233 0.0326287038,3.58046023 L0.0314797544,3.58046023 C0.0119484383,3.65039043 0.00137836279,3.72241514 0.000459532696,3.79514398 L0.000459532696,3.79537706 L0.000459532696,3.79584322 C0,3.79584322 0,3.79607636 0,3.79607636 L0,7.55263921 C0,7.55263921 0,7.55263921 0.000459532696,7.55287229 L0.000459532696,13.4338954 L0,13.4338954 L0,17.1382449 L0.000459532696,17.1382449 L0.000459532696,17.1389442 L0.000459532696,17.1396435 C0.00275737265,17.2070077 0.0133272717,17.2736739 0.0314797544,17.3384722 C0.0312499881,17.3489615 0.0312499881,17.3594507 0.0314797544,17.3701732 C0.048713407,17.4317075 0.0726106366,17.4909146 0.103174384,17.5468575 C0.113285045,17.5578128 0.123625119,17.5683026 0.134194606,17.5785586 C0.165214828,17.630772 0.20174803,17.6794886 0.243113032,17.7237776 C0.253223692,17.7345001 0.263563766,17.7449893 0.274363255,17.7552452 C0.317791801,17.7974355 0.36581685,17.8344963 0.417517219,17.8657348 C0.42854671,17.8766901 0.440035616,17.88718 0.451754523,17.8974359 C0.505063727,17.9268061 0.561361189,17.9501153 0.619726312,17.9669006 C0.630066385,17.9671338 0.640636461,17.9671338 0.650976535,17.9669006 C0.709800485,17.9841496 0.770230328,17.9946388 0.831354295,17.9983683 L0.831354295,18 L24.235051,18 L24.235051,17.9988345 C24.2993926,17.9958042 24.3630401,17.9850818 24.4248523,17.9671335 C24.4351924,17.9673666 24.4455325,17.9673666 24.4558726,17.9671335 C24.5156142,17.9496513 24.5730616,17.925176 24.6272914,17.8946434 C24.6378615,17.8843869 24.6482016,17.8736649 24.6583116,17.8629424 C24.7097826,17.8314747 24.7578065,17.7944145 24.8014656,17.7524528 C24.8120357,17.7421962 24.8226058,17.731707 24.8327158,17.7209851 C24.8738467,17.6776294 24.9103811,17.63008 24.9416343,17.5787974 C24.9522043,17.5685409 24.9625444,17.5580517 24.9726545,17.5473297 C25.001377,17.4941842 25.0243554,17.4380097 25.0411314,17.3799663 C25.0413612,17.3683116 25.0413612,17.356657 25.0411314,17.3452351 C25.0579057,17.2864953 25.0684752,17.2261228 25.0723817,17.1652867 C25.0733008,17.1545641 25.0739901,17.1440749 25.0744497,17.1335857 L25.0744497,15.0133621 L27.1774059,15.0133621 C27.6316856,15.013129 28,14.6394781 28,14.1786632 L28,0.834698919 C28,0.373866109 27.6316621,0.000238689997 27.1774059,0 L3.72976925,0.0334633231 Z M4.55283395,1.70309985 L26.3112248,1.70309985 L26.3112248,13.3768309 L25.0313333,13.3768309 L25.0313333,7.54479884 L25.0311035,7.54456569 C25.0317928,7.53407646 25.0322524,7.52335391 25.0324821,7.51286468 L25.0324821,3.80851527 C25.0313333,3.73602512 25.0207632,3.66376172 25.0012319,3.59383152 L25.000083,3.59383152 C24.9819305,3.52763085 24.9557351,3.4639961 24.9221884,3.4043236 C24.9224181,3.39383437 24.9224181,3.38334514 24.9221884,3.3728559 C24.8888699,3.31667962 24.8493467,3.26493222 24.8040816,3.21807738 C24.7939716,3.20735482 24.7834015,3.19686559 24.7728314,3.18660968 C24.7275646,3.14185531 24.6774719,3.10269821 24.6234715,3.0698306 C24.6131314,3.06959752 24.6027914,3.06959752 24.5922213,3.0698306 C24.5382227,3.03906226 24.4807793,3.01458699 24.4210318,2.99710176 C24.4106918,2.99686868 24.4003517,2.99686868 24.3900116,2.99710176 C24.33027,2.9796195 24.2684578,2.96889695 24.2064162,2.96563406 L24.2064162,2.96423552 L4.55098158,2.96423552 L4.55283395,1.70309985 Z M5.37036921,4.65849972 L19.2545861,4.65849972 C19.5627236,6.72370525 21.2870124,8.33349026 23.3856156,8.43887189 L23.3856156,12.5893926 C21.4655431,12.8609502 19.9306497,14.3958581 19.6420006,16.3322307 L5.75837198,16.3322307 C5.45023448,14.2670252 3.7254751,12.6572402 1.62757775,12.5520973 L1.62757775,8.40092018 C3.54670911,8.12936257 5.08189656,6.59445461 5.37048685,4.6583207 L5.37036921,4.65849972 Z M3.69571018,4.6587328 C3.44984372,5.6824742 2.65087918,6.47826665 1.6274601,6.70669297 L1.6274601,4.6587328 L3.69571018,4.6587328 Z M20.9287745,4.65896588 L23.3849097,4.65896588 L23.3849097,6.76522609 C22.1794893,6.67059147 21.2033647,5.80885494 20.9287745,4.65896588 Z M12.5057731,6.11300567 C10.1234032,6.11300567 8.17115393,8.08291421 8.17115393,10.4952347 C8.17115393,12.9075551 10.1234032,14.8774637 12.5057731,14.8774637 C14.8883784,14.8774637 16.8403924,12.9075551 16.8403924,10.4952347 C16.8403924,8.08291421 14.8883784,6.11300567 12.5057731,6.11300567 Z M12.5057731,7.78246318 C14.0023133,7.78246318 15.1944394,8.98922013 15.1944394,10.4954734 C15.1944394,12.0014879 14.0023133,13.2084835 12.5057731,13.2084835 C11.0089977,13.2084835 9.81640098,12.0017266 9.81640098,10.4954734 C9.81640098,8.98945882 11.0087624,7.78246318 12.5057731,7.78246318 L12.5057731,7.78246318 Z M1.62687186,14.2258996 C2.83205695,14.3205343 3.80818157,15.1822708 4.08277177,16.3316825 L1.62687186,16.3316825 L1.62687186,14.2258996 Z M23.3834979,14.2827747 L23.3834979,16.3307349 L21.3154832,16.3307349 C21.5613496,15.3069935 22.3603142,14.5116784 23.3834979,14.2827747 Z" id="Shape"></path>
            </g>
        </g>
    </g>
</svg>