<?xml version="1.0" encoding="utf-8"?>
<!-- Generator: Adobe Illustrator 24.1.1, SVG Export Plug-In . SVG Version: 6.00 Build 0)  -->
<svg version="1.1"
	 id="svg5230" xmlns:cc="http://creativecommons.org/ns#" xmlns:dc="http://purl.org/dc/elements/1.1/" xmlns:rdf="http://www.w3.org/1999/02/22-rdf-syntax-ns#" xmlns:svg="http://www.w3.org/2000/svg"
	 xmlns="http://www.w3.org/2000/svg" xmlns:xlink="http://www.w3.org/1999/xlink" x="0px" y="0px" viewBox="0 0 1234.3 363.7"
	 style="enable-background:new 0 0 1234.3 363.7;" xml:space="preserve">
<style type="text/css">
	.st0{fill:#00237E;}
	.st1{fill-rule:evenodd;clip-rule:evenodd;fill:#00237E;}
</style>
<g>
	<path class="st0" d="M946.4,148.8c-5.6,5.2-14,12.5-17.9,15.7l2.4,2.4l5.2-4.8l4.8,4.1v42.5c0,2-0.9,3.8-2.4,4.4v0.3
		c5.2,3.9,9.5,7,13.4,10.5c4.2-4,12.9-11,12.9-11l-6.4-4.7v-42.1l4.9-3.8c4.1,2.5,10.1,6.2,13.8,8.9v37c0,3-0.9,4.4-2.3,4.8v0.4
		c4.7,3.4,9.9,7.3,13.4,10.6c3.9-3.7,12.9-11.2,12.9-11.2l-6.4-4.7v-42.1l4.1-4.1c4.1,2.5,10.2,6.5,14,9.2v35.3c0,3-0.9,4.2-2.3,4.7
		v0.6c4.7,3.3,12.3,9.1,16,12.3c3.9-3.7,13.5-12,17.7-15.4l0,0l-2.4-2.1l-4.9,4.4l-6.2-4.4v-38.3c0-1.4,0.2-4,2.3-4.5v-0.6
		c-6.3-3.6-17.6-10.5-22.6-14.3l-15.5,12.9c0,0-15.1-9.3-20.2-12.9l-16.2,13.4v-3L946.4,148.8z"/>
	<path class="st0" d="M913.9,124.2l-17.7,15.4l2.3,2.7l5.1-4.7c3.7,4.3,6.2,5.7,10.7,5.7c6.8,0,10.2-2.6,14.4-8.3l-0.3-0.6
		C924,134.5,918.5,133.3,913.9,124.2z"/>
	<path class="st0" d="M1153.1,147.1c-0.8,0-1.4,0.5-1.4,1.6c0,1.3,1.6,1.7,1.6,2.5c0,1.4-1,3.5-5.2,3.5c-5,0-9.8-4.1-11.6-6.1
		c-8,5.5-21.9,13.1-32.9,17v0.6c1.6,0.5,2.1,2.3,2.1,3.5v10.9c0,1.5-0.8,2.8-2.1,3.1v0.6c4.4,1.9,12.3,5.2,17.7,7.9l-13.1,13.3
		c-7.5,7.6-10.7,11.5-10.7,16.1c0,2.4,2.6,4.4,4,4.4c1.1,0,1.8-0.9,1.8-1.7c0-1.8-2.5-1.6-2.5-2.8c0-2,2.6-4.1,8.6-4.1
		c6.4,0,11.3,3.2,15,6.6c7.2-6.2,21.9-14,32.1-18.4v-0.6c-0.9-0.4-2.1-1.5-2.1-3.3v-12c0-2,1.1-3.1,2.1-3.5v-0.4
		c-5-2.1-14.4-7-18.9-9.8l-4.4,4.4l-9.6-4.5v-17.1l0.3-0.1c3.3,4.4,7.4,7.9,14.4,7.9c10.6,0,18.7-9.1,18.7-16l0,0
		C1156.7,148.3,1154.4,147.1,1153.1,147.1z M1128.7,189.1c2.5,1.2,5.3,2.8,7.8,4v20.5h0l-0.3,0.1c-3.1-3.3-9.6-7.8-16-7.8
		c-6.3,0-7.5,2-10.6,3.7l-0.7-0.1L1128.7,189.1z"/>
	<path class="st0" d="M484.9,208.6l-2.4-2.3l-5.1,4.4l-6.2-4.2v-38.3c0-1.4,0.3-4,2.4-4.5v-0.6c-6.3-3.6-17.6-10.5-22.6-14.3
		l-16.3,13.4v-3l-11.9-10.5c-5.6,5.2-13.7,11.9-17.7,15.1l2.1,2.3l4.9-4.1l4.9,4.1v42.5c0,2-0.9,3.8-2.4,4.4v0.3
		c5.2,3.9,9.6,7,13.6,10.5c4.2-4,12.9-11,12.9-11l-6.5-4.7v-42.4c0.9-0.7,4.1-3.1,4.9-3.7c4.1,2.5,10.2,6.4,14,9v35.3
		c0,3-1,4.2-2.4,4.7v0.6c4.7,3.3,12.2,9.1,15.8,12.3C471.1,220.3,480.8,212,484.9,208.6L484.9,208.6z"/>
	<path class="st0" d="M892.8,167.1l5.5-4.8l4.7,4v40.7c0,2-0.8,3.8-2.3,4.4v0.4c5.2,3.9,11.9,8.9,15.8,12.3
		c4.2-4,13.2-11.9,17.8-15.7h0l-2.4-2.3l-5.1,4.5l-6.2-4.1v-39.4c0-3.8,0.6-4.9,2.3-5.4v-0.6l-14.3-12.3c-5.6,5.2-14.2,12.8-18.1,16
		L892.8,167.1z"/>
	<path class="st0" d="M635.7,136.5V136l-15.1-12.3c-5.6,5.2-13.2,12.2-17.1,15.4l2.3,2.3l5.2-4.5l4.8,4.1v66c0,2-0.8,3.8-2.3,4.4
		v0.4c5.2,3.9,11.9,8.9,15.8,12.3c4.2-4,13.4-11.9,18-15.7l-2.3-2.3l-5.2,4.7l-6.5-4.2v-64.6C633.3,138.1,634,137,635.7,136.5z"/>
	<path class="st0" d="M701.5,221.6c0,2.4,2.6,4.4,4,4.4c1.1,0,1.8-0.9,1.8-1.7c0-1.8-2.5-1.6-2.5-2.8c0-2,2.6-4.1,8.6-4.1
		c6.4,0,11.3,3.2,15,6.6c7.2-6.2,21.9-14,32.1-18.4v-0.6c-0.9-0.4-2.1-1.5-2.1-3.3v-12c0-2,1.1-3.1,2.1-3.5v-0.4
		c-5-2.1-14.4-7-18.9-9.8l-4.4,4.4l-9.6-4.5v-17.1l0.3-0.1c3.3,4.4,7.4,7.9,14.4,7.9c10.6,0,18.7-9.1,18.7-16l0,0
		c0-2.3-2.3-3.5-3.5-3.5c-0.8,0-1.4,0.5-1.4,1.6c0,1.3,1.6,1.7,1.6,2.5c0,1.4-1,3.5-5.2,3.5c-5.1,0-9.8-4.1-11.6-6.1
		c-8,5.5-21.9,13.1-32.9,17v0.6c1.6,0.5,2.1,2.3,2.1,3.5v10.9c0,1.5-0.8,2.8-2.1,3.1v0.6c4.4,1.9,12.3,5.2,17.7,7.9l-13.1,13.3
		C704.7,213.1,701.5,217,701.5,221.6z M732.8,189.1c2.5,1.2,5.3,2.8,7.8,4v20.5l-0.3,0.1c-3.1-3.3-9.5-7.8-16-7.8
		c-6.3,0-7.5,2-10.6,3.7l-0.7-0.1L732.8,189.1z"/>
	<path class="st0" d="M876.6,128.6c-15.3,0-29.8-6.9-49.5-6.9c-19.3,0-28.6,17.8-28.6,30.2c0,1.4,1.6,3.3,3.4,3.3
		c1.2,0,1.6-1,1.6-1.8c0-1.5-1.8-1.9-1.8-4.1c0-5.7,9.2-12.2,20.4-12.2c9.6,0,21.1,2.4,28.3,4c-19.7,1.1-47.9,12.6-47.9,45.4
		c0,23,19.9,40.9,43.2,40.9c31.2,0,45.8-20,45.8-34.9c0-1.9-0.5-3-1.7-3c-0.8,0-2,0.8-2,1.7c0,1.2,1.4,2,1.4,2.7
		c0,3-1.5,8.8-12.2,14.6v-63.6c8.3-1.5,15.3-6.7,15.3-17c0-3.8-0.5-6.7-0.9-7.6l-2.3-0.7C889.5,125.2,886.6,128.6,876.6,128.6z
		 M856.5,213.6c-20.9,0-35.6-12.8-35.6-32.9c0-23.4,17.6-35.9,32.8-38.6c5.1,1.4,13,3.1,17.5,3.1c0.8,0,2.2-0.1,3-0.1v64.9h0
		C869.8,212.4,863.6,213.6,856.5,213.6z"/>
	<path class="st0" d="M1045.9,165.6v0.6c1.3,0.2,2.4,1.2,2.4,4.1v35.8c0,2.8-1.3,3.5-2.4,4v0.6c6.9,2.8,21,9.1,28,13.4l20.2-19.6
		c0.5-0.5,1.4-1,1.4-2.1c0-1-0.9-2.4-1.8-2.4c-3.3,0-3.1,3.2-4.9,5.1l-6.6,6.6c-4.2-2.7-12.3-6.3-16.2-7.9v-12.9l31.1-18.8l0,0
		c-5-6.1-11.7-15.5-17-23.2C1072.3,154,1056.3,162.3,1045.9,165.6z M1065.8,187.4v-27.8l0.4-0.1c4.1,5.8,10.6,14,14.3,18.9
		L1065.8,187.4z"/>
	<path class="st0" d="M650.4,210v0.6c6.9,2.8,21,9.1,28,13.4l20.2-19.6c0.5-0.5,1.4-1,1.4-2.1c0-1-0.9-2.4-1.8-2.4
		c-3.3,0-3.1,3.2-4.9,5.1l-6.6,6.6c-4.2-2.7-12.3-6.3-16.3-7.9v-12.9l31.1-18.8l0,0c-5-6.1-11.7-15.5-17-23.2
		c-7.6,5.2-23.6,13.5-34.1,16.8v0.6c1.3,0.2,2.4,1.2,2.4,4.1v35.8C652.8,208.9,651.6,209.6,650.4,210z M670.4,159.6l0.4-0.1
		c4.1,5.8,10.6,14,14.3,18.9l-14.7,9V159.6z"/>
	<path class="st0" d="M558.2,210v0.6c6.9,2.8,21,9.1,28,13.4l20.2-19.6c0.5-0.5,1.4-1,1.4-2.1c0-1-0.9-2.4-1.8-2.4
		c-3.3,0-3.1,3.2-5,5.1l-6.6,6.6c-4.2-2.7-12.3-6.3-16.2-7.9v-12.9l31.1-18.8l0,0c-5-6.1-11.7-15.5-17-23.2
		c-7.6,5.2-23.6,13.5-34.1,16.8v0.6c1.3,0.2,2.4,1.2,2.4,4.1v35.8C560.6,208.9,559.3,209.6,558.2,210z M578.1,159.6l0.4-0.1
		c4.1,5.8,10.6,14,14.3,18.9l-14.7,9V159.6z"/>
	<path class="st0" d="M224.9,221.6c0,2.4,2.6,4.4,4,4.4c1.1,0,1.8-0.9,1.8-1.7c0-1.8-2.5-1.6-2.5-2.8c0-2,2.6-4.1,8.6-4.1
		c6.4,0,11.3,3.2,15,6.6c7.2-6.2,21.9-14,32.1-18.4v-0.6c-0.9-0.4-2.1-1.5-2.1-3.3v-12c0-2,1.1-3.1,2.1-3.5v-0.4
		c-5-2.1-14.4-7-18.9-9.8l-4.4,4.4l-9.6-4.5v-17.1l0.3-0.1c3.3,4.4,7.4,7.9,14.4,7.9c10.6,0,18.7-9.1,18.7-16l0,0
		c0-2.3-2.3-3.5-3.5-3.5c-0.8,0-1.4,0.5-1.4,1.6c0,1.3,1.6,1.7,1.6,2.5c0,1.4-1,3.5-5.2,3.5c-5,0-9.8-4.1-11.6-6.1
		c-8,5.5-21.9,13.1-32.9,17v0.6c1.6,0.5,2.1,2.3,2.1,3.5v10.9c0,1.5-0.8,2.8-2.1,3.1v0.6c4.4,1.9,12.3,5.2,17.7,7.9l-13.1,13.3
		C228.2,213.1,224.9,217,224.9,221.6z M256.3,189.1c2.5,1.2,5.3,2.8,7.8,4v20.5l-0.3,0.1c-3.1-3.3-9.6-7.8-16-7.8
		c-6.3,0-7.5,2-10.6,3.7l-0.7-0.1L256.3,189.1z"/>
	<polygon class="st0" points="551.8,218.4 551.8,218.4 551.8,218.4 	"/>
	<path class="st0" d="M112.6,122.1l-1-1.3c-13.7,6.7-22.5,15.6-22.5,31.4c0,9,2.1,12.5,4.7,18.9c2.3,5.6,5.4,14.1,5.4,21.6
		c0,17.8-9.7,25.7-15.4,30.5l0.8,0.8c6.4-3.9,18.8-7.1,36.9-7.1c9.2,0,20,2.8,26.7,7.4l12.9-23.3v0l-2.7-1.1l-4,6.8
		c-6.4-3.2-14.5-5.5-23-5.5V142c1.1,0.2,2.3,0,4,0c9.8,0,19.8-7.9,19.8-18.7c0-1.6-1.7-3.8-3.4-3.8c-0.8,0-1.7,0.4-1.7,1.7
		c0,1.4,2,1.6,2,3c0,1.9-1.7,4.4-7.3,4.4c-6.9,0-12.2-2.9-17.8-10.6l-21.9,17.8C105.6,130.9,107.8,125.9,112.6,122.1z M110.9,162.1
		c-3.2-7.2-5.8-14.6-5.8-23.6l8.3-6.5c2.9,3.3,6.7,8.8,15.3,9.8v59.5h0c-10.6,0.2-22.1,4.6-30,10.3l-0.4-0.4
		c13.2-12.1,18.8-18.2,18.8-28C117.1,177.3,113.8,168.7,110.9,162.1z"/>
	<path class="st0" d="M551.8,218.4l-1-1c-0.5,0.6-1.2,1.1-1.8,1.1c-3.8,0-4.2-3.4-4.2-8.5v-39.3c0-3.4,0.8-4.4,2.4-5.1v-0.7
		c-7.2-4-19.4-11.2-26.1-16.4c-7.7,5.9-21.9,13.2-33.1,17.1v0.6c1.5,0.3,2.3,1.8,2.3,4v36.5c0,1.5-0.9,3-2.1,3.4v0.6
		c6,2.6,18.5,8.6,26.1,13.4c3.1-2.6,10-7.9,13.1-10c1.2,7.8,8.3,12.2,14.8,12.2c3.3,0,5.5-1.2,7.2-2.3l0.1,0.3
		c-0.8,4.2-5,8.3-13.1,8.3c-12.7,0-21.5-7.5-33.5-7.5c-10.9,0-19.4,6.5-20.1,18.2l0.8,0.4c1.8-2.2,5.3-4.1,11.7-4.1
		c11,0,19.9,6.1,32.1,6.1C543,245.6,551.4,234.5,551.8,218.4z M525.1,213.3c-3.8-2.8-12.3-7.6-17.4-9.9v-44.7l0.3-0.1
		c5.6,4.7,14.1,10.3,19.2,13.1v40l0,0L525.1,213.3z"/>
	<path class="st0" d="M866.9,149c-1.4-0.7-3.8-1.4-6.4-1.4c-13,0-22.5,7.6-22.5,17.4c0,12.1,11,20.5,11,30.8c0,7.6-3.2,9.8-9.6,10.6
		l2.3,1.6c11.8-1.5,23.2-8.1,23.2-19.4c0-13.5-12-18.3-12-30.1c0-4.5,3.9-8.3,8.5-8.3c3.1,0,4.1,2.1,5.2,2.1c0.7,0,1.7-0.7,1.7-1.6
		C868.4,149.9,867.7,149.3,866.9,149z"/>
	<path class="st0" d="M163,206.9v0.4c7.2,4,18.4,11.2,26.1,16.7c7.3-6.2,24.3-14.9,33.1-18.4v-0.6c-1.4-0.4-2.4-1.2-2.4-3.5v-31.8
		c0-2.2,1-3.5,2.4-4.1v-0.6c-7.7-4.4-19.5-11.6-26.1-16.4c-9.7,6.5-21,12.6-33.1,17v0.6c1.6,0.5,2.3,1.6,2.3,4.5v32.1
		C165.3,205,164.9,206.3,163,206.9z M182.9,158.7l0.3-0.1c4.2,3.6,13.1,10,19.1,13.1v42l-0.3,0.1c-4.7-3.9-13.3-9.2-19.1-12.3V158.7
		z"/>
	<path class="st0" d="M311.8,223c-0.3,1.1,0.5,1.2,1,0.7c2.7-2.4,8.1-4.2,15.3-4.2c6.1,0,11.5,2,16.3,4.7l12.2-21.8l-2.8-1.4
		l-3.5,6.2c-3.5-1.4-7.3-2.3-14.6-2.3l4.7-13h35.2l5.1,15.5c0.2,0.8,0.4,1.5,0.4,2.3c0,1.6-0.7,3-2.1,3.5v0.7
		c6.3,3.8,10.6,6.6,15.5,10l17.8-16.1l0,0l-2-2.1l-4.8,4.4l-4.5-2.7l-26.4-74.3c-0.4-1.1-1-4-1-5.4c0-2.7,0.9-4.5,2.7-6.6l-0.8-1.4
		c-2.8,0.4-6.3,2.8-7.2,6.4c-2.9-3.8-6.7-7.4-16.1-7.4c-10.4,0-20.5,7.1-20.5,19.2c0,5.3,2.1,8.1,4.2,8.1c1.1,0,1.8-0.9,1.8-1.7
		c0-2.3-3.2-2-3.2-5.2c0-6.9,5.7-9.5,11.4-9.5c6.2,0,8.6,2.7,11.2,9.3l-24.6,66.1C321.2,205.8,314.7,213.2,311.8,223z M358.7,142
		l13.4,40.1h-28.3L358.7,142z"/>
</g>
</svg>
