<?xml version="1.0" encoding="utf-8"?>
<!-- Generator: Adobe Illustrator 24.1.1, SVG Export Plug-In . SVG Version: 6.00 Build 0)  -->
<svg version="1.1"
	 id="svg5230" xmlns:cc="http://creativecommons.org/ns#" xmlns:dc="http://purl.org/dc/elements/1.1/" xmlns:rdf="http://www.w3.org/1999/02/22-rdf-syntax-ns#" xmlns:svg="http://www.w3.org/2000/svg"
	 xmlns="http://www.w3.org/2000/svg" xmlns:xlink="http://www.w3.org/1999/xlink" x="0px" y="0px" viewBox="0 0 1234.3 363.7"
	 style="enable-background:new 0 0 1234.3 363.7;" xml:space="preserve">
<style type="text/css">
	.st0{fill:#00237E;}
	.st1{fill-rule:evenodd;clip-rule:evenodd;fill:#00237E;}
</style>
<g>
	<path class="st1" d="M337,284.8h15.4v-82.4H337V284.8z M393.6,283.6h13.8v-52l58.1,53.2v-81.1h-13.8v51.1l-58.2-52.3V283.6z
		 M497.1,263.6c7.5,5.9,16.5,9.2,26.2,9.2c9.4,0,16-3.2,16-10.4c0-6.2-4.2-8.7-11.6-11.4l-12-4.2c-11-3.9-19.4-9.6-19.4-22.8
		c0-14.1,12.7-21.7,27.9-21.7c9.3,0,17.8,2.3,24.4,6.5v13.9c-6.9-5.1-14.4-8.6-24.1-8.6c-8.3,0-14.6,3.1-14.6,9.6
		c0,5.9,3.9,8.2,10.8,10.6l13.3,4.7c12.9,4.5,18.8,11.6,18.8,23.1c0,14.6-12.8,22.6-29.6,22.6c-11,0-20.4-3.1-26.2-7
		C497.1,277.8,497.1,263.6,497.1,263.6z M588.9,284.8h15.4v-82.4h-15.4V284.8z M676.6,272.3c17.4,0,26.7-11.1,26.7-28.7
		c0-17.7-9.3-28.8-26.7-28.8h-17.2v57.6C659.4,272.3,676.6,272.3,676.6,272.3z M645.4,202.4h31.7c24.4,0,40.2,16.1,40.2,41.2
		c0,25.1-15.8,41.2-40.2,41.2h-31.7V202.4z M794.4,202.4v12.3h-37.3v19.8h33.5v12.2h-33.5v25.6h37.3v12.5H743v-82.4H794.4z
		 M849.1,239.7h15.3c9.1,0,14.2-5,14.2-12.6c0-7.6-5.1-12.6-14.2-12.6h-15.3V239.7L849.1,239.7z M849.1,251.4v33.4h-13.6v-82.4h29.2
		c16.6,0,27.4,8.6,27.4,24.7c0,13.8-6,21.7-18.7,23.7l28.9,33.9h-15.5l-28-33.4L849.1,251.4L849.1,251.4z M331.7,121.3
		c6-2.2,10.7-8.8,10.7-17.9c0-15.2-10.7-23-27.9-23h-28.8V165h31.5c17.2,0,27.9-8.4,27.9-24.3C345.1,131.7,339.4,123.9,331.7,121.3z
		 M299.2,115.9V92.7h15.2c9.5,0,14.6,3.4,14.6,11.5s-5.1,11.7-14.6,11.7C314.4,115.9,299.2,115.9,299.2,115.9z M299.2,127.8h17.7
		c9.4,0,14.5,4.7,14.5,12.4c0,7.6-5.1,12.4-14.5,12.4h-17.7L299.2,127.8L299.2,127.8z M408,166.4c19.7,0,33-11.9,33-35V80.3H427
		v49.4c0,16.3-6.7,23.9-19,23.9s-19-7.6-19-23.9V80.3H375v50.9C375,154.5,388.4,166.4,408,166.4z M473.8,158.9
		c5.8,4.1,15.2,7.5,26.2,7.5c16.8,0,29.5-8.6,29.5-24c0-12.3-5.9-19.7-18.8-24.6l-13.3-5c-6.8-2.5-10.7-5-10.7-11.2
		c0-6.9,6.2-10.2,14.5-10.2c9.7,0,17.2,3.7,24,9.1V85.8c-6.6-4.4-15-6.9-24.3-6.9c-15.2,0-27.8,8.1-27.8,23c0,13.9,8.3,20,19.3,24.1
		l11.9,4.4c7.4,2.9,11.5,5.5,11.5,12.1c0,7.6-6.6,11-16,11c-9.7,0-18.6-3.6-26.2-9.8C473.8,143.9,473.8,158.9,473.8,158.9z
		 M579.3,80.3h-13.9V165h13.9V80.3z M619.1,164.9h13.4v-55.1l56.6,56.4V80.2h-13.4v54.2l-56.6-55.5
		C619.1,78.8,619.1,164.9,619.1,164.9z M776.2,80.3V93H740v20.4h32.5v12.5H740v26.3h36.2V165h-49.9V80.3H776.2z M808.7,158.9
		c5.8,4.1,15.2,7.5,26.2,7.5c16.8,0,29.5-8.6,29.5-24c0-12.3-5.9-19.7-18.8-24.6l-13.3-5c-6.8-2.5-10.7-5-10.7-11.2
		c0-6.9,6.2-10.2,14.5-10.2c9.7,0,17.2,3.7,24,9.1V85.7c-6.6-4.4-15-6.9-24.3-6.9c-15.2,0-27.8,8.1-27.8,23c0,13.9,8.3,20,19.3,24.1
		l11.9,4.4c7.4,2.9,11.5,5.5,11.5,12.1c0,7.6-6.6,11-16,11c-9.7,0-18.6-3.6-26.1-9.8C808.7,143.8,808.7,158.9,808.7,158.9z
		 M892.9,158.9c5.8,4.1,15.2,7.5,26.2,7.5c16.8,0,29.5-8.6,29.5-24c0-12.3-5.9-19.7-18.8-24.6l-13.3-5c-6.8-2.5-10.7-5-10.7-11.2
		c0-6.9,6.2-10.2,14.5-10.2c9.7,0,17.2,3.7,24,9.1V85.7c-6.6-4.4-15-6.9-24.3-6.9c-15.2,0-27.8,8.1-27.8,23c0,13.9,8.3,20,19.3,24.1
		l11.9,4.4c7.4,2.9,11.5,5.5,11.5,12.1c0,7.6-6.6,11-16,11c-9.7,0-18.6-3.6-26.2-9.8C892.9,143.8,892.9,158.9,892.9,158.9z"/>
</g>
</svg>
