<?xml version="1.0" encoding="utf-8"?>
<!-- Generator: Adobe Illustrator 25.2.1, SVG Export Plug-In . SVG Version: 6.00 Build 0)  -->
<svg version="1.1" id="Layer_1" xmlns="http://www.w3.org/2000/svg" xmlns:xlink="http://www.w3.org/1999/xlink" x="0px" y="0px"
	 viewBox="0 0 89.8 86.9" style="enable-background:new 0 0 89.8 86.9;" xml:space="preserve">
<style type="text/css">
	.st0{fill:#FFFFFF;}
</style>
<g>
	<path class="st0" d="M83,25.9c0,0.5,0,1,0,1.5c-0.1,2.6,0.9,4.9,2.5,6.9c1.1,1.3,2.1,2.7,2.9,4.2c1.9,3.3,1.8,6.7-0.1,10
		c-0.8,1.4-1.8,2.8-2.9,4.1c-1.9,2.2-2.6,4.8-2.5,7.7c0.1,2,0.1,3.9-0.2,5.9c-0.6,3.3-2.5,5.6-5.5,7c-1.5,0.7-3.1,1.2-4.7,1.6
		c-2.9,0.7-5.1,2.3-6.6,4.8c-0.8,1.3-1.7,2.5-2.7,3.7c-2.8,3.3-6.3,4.3-10.5,3.1c-1.3-0.4-2.6-0.7-3.8-1.2c-2.7-1.1-5.4-1.1-8.2,0
		c-1.8,0.7-3.7,1.3-5.7,1.6c-2.9,0.4-5.4-0.4-7.5-2.4c-1.5-1.4-2.7-3-3.7-4.7c-1.6-2.6-3.8-4.3-6.8-5c-1.1-0.3-2.2-0.7-3.3-1.1
		c-4.6-1.6-7-4.9-7.1-9.7c0-1.3,0-2.6,0-3.9c0.2-2.7-0.6-5.2-2.3-7.3c-1.2-1.5-2.4-3.1-3.3-4.9c-1.6-3.2-1.5-6.3,0.2-9.3
		C2,37,3,35.6,4.1,34.3C6,32,6.8,29.5,6.6,26.5c-0.1-2-0.1-3.9,0.2-5.9c0.6-3.3,2.5-5.6,5.5-7c1.5-0.7,3-1.2,4.6-1.6
		c2.9-0.7,5.2-2.3,6.7-4.9c0.8-1.3,1.7-2.4,2.6-3.6c2.8-3.4,6.4-4.4,10.6-3.1c1.3,0.4,2.6,0.7,3.8,1.2c2.7,1.1,5.4,1.1,8.2,0
		c1.7-0.7,3.5-1.3,5.4-1.6c3.5-0.6,6.3,0.6,8.7,3.2c1.1,1.2,2.1,2.6,3,4c1.5,2.5,3.7,4.1,6.6,4.8c1.1,0.3,2.1,0.7,3.2,1
		c4.7,1.6,7.1,4.9,7.3,9.9C83.1,24,83,25,83,25.9L83,25.9z M80.2,26.1L80.2,26.1c0-1,0-2.1,0-3.1c-0.1-3.4-1.6-5.8-4.9-7
		c-1.7-0.6-3.4-1.2-5.1-1.7c-2-0.6-3.7-1.6-5-3.4c-0.7-1-1.5-2-2.2-3.1c-1-1.1-1.8-2.4-3-3.4c-1.5-1.3-3.3-1.8-5.3-1.4
		c-1.8,0.3-3.6,0.9-5.3,1.6c-3,1.2-6,1.2-9.1,0c-1.2-0.5-2.5-0.9-3.8-1.2C32.7,2.3,30.4,3,28,6.2c-0.9,1.2-1.7,2.3-2.5,3.5
		c-1.6,2.4-3.7,4-6.5,4.8c-1.8,0.5-3.7,1.1-5.5,1.9c-2.3,1.1-3.6,2.9-3.9,5.5c-0.3,2.4,0,4.7-0.1,7.1c-0.1,1.7-0.5,3.3-1.4,4.8
		c-1.1,1.7-2.4,3.3-3.6,5c-2.3,3.4-2.3,6.1,0.1,9.5c0.9,1.3,1.8,2.6,2.8,3.8c1.5,2,2.2,4.2,2.2,6.7c0,1.6,0,3.3,0,4.9
		c0.1,3.9,1.6,6,5.2,7.4c1.6,0.6,3.1,1.1,4.7,1.6c2.4,0.7,4.3,2.1,5.7,4.1c0.6,0.8,1.2,1.7,1.8,2.5c0.8,1.1,1.6,2.2,2.6,3.1
		c1.6,1.4,3.4,2,5.5,1.6c1.8-0.3,3.6-0.9,5.3-1.6c3.1-1.2,6.1-1.2,9.2,0c1.2,0.5,2.4,0.8,3.6,1.2c3.9,1.2,6.2,0.4,8.7-2.9
		c0.9-1.1,1.7-2.3,2.5-3.5c1.6-2.4,3.7-4,6.5-4.8c1.9-0.5,3.8-1.1,5.5-2c2.3-1.1,3.5-2.9,3.8-5.4c0.2-1.9,0.2-3.9,0.1-5.8
		c-0.1-2.9,0.8-5.4,2.6-7.7c1.1-1.4,2.2-2.9,3.2-4.5c1.3-2.3,1.4-4.7,0-7.1c-1-1.7-2.2-3.3-3.4-4.8c-1.6-2.1-2.5-4.5-2.4-7.2
		C80.2,27.3,80.2,26.7,80.2,26.1z"/>
	<path class="st0" d="M69.1,44.1c-0.5,13.6-11.7,24.1-25,23.6c-13.5-0.5-24-11.7-23.4-25c0.5-13.3,11.7-23.9,24.8-23.4
		C59,19.7,69.6,30.9,69.1,44.1z M23.5,43.4c0,11.8,9.6,21.4,21.3,21.4s21.3-9.6,21.3-21.3s-9.6-21.4-21.3-21.4
		C33.2,22.1,23.6,31.7,23.5,43.4z"/>
	<path class="st0" d="M56.8,72.8c-0.5-1.3-0.9-2.7-1.4-4c-0.2-0.5-0.2-0.8,0.4-1c1.6-0.5,1.2-0.6,1.7,0.8c0.8,2.2,1.6,4.5,2.4,6.7
		c0.2,0.5,0.1,0.8-0.4,1c-1.4,0.5-1.4,0.5-2.4-0.7c-0.8-1.1-1.6-2.1-2.5-3.1c0.5,1.4,0.9,2.8,1.5,4.2c0.4,1.1-0.5,0.9-1,1.2
		c-0.6,0.4-0.8,0.1-1-0.5c-0.8-2.4-1.7-4.8-2.6-7.2c-0.2-0.6-0.1-0.9,0.5-1c1.7-0.5,1.2-0.7,2.3,0.7c0.8,1,1.5,2,2.3,3
		C56.7,72.8,56.8,72.8,56.8,72.8z"/>
	<path class="st0" d="M39.1,74c0.7,0.6,0.8,1.3,0.5,2.1c-0.2,0.6-0.3,1.3-0.5,1.9c-0.1,0.3,0.4,1-0.5,0.8c-1.4-0.2-1.6-0.4-1.5-1.2
		c0.1-0.7,0.3-1.3,0.5-1.9c0.1-0.3,0.1-0.5,0.1-0.8c0-0.4-0.4-0.5-0.7-0.5c-0.4-0.1-0.3,0.3-0.4,0.5c-0.2,0.9-0.5,1.7-0.6,2.6
		c-0.2,0.5-0.4,0.6-1,0.5c-0.2-0.1-0.5-0.1-0.7-0.2c-0.5-0.1-0.6-0.3-0.5-0.8c0.6-2.6,1.2-5.2,1.8-7.7c0.1-0.5,0.3-0.6,0.8-0.5
		c0.8,0.2,1.6,0.4,2.5,0.6c0.9,0.3,1.8,0.6,1.9,1.7C40.8,72.5,40.3,73.4,39.1,74z M38.6,71.5c0-0.4-0.2-0.6-0.6-0.7
		c-0.5-0.1-0.5,0.2-0.6,0.5s-0.1,0.6-0.2,1c-0.1,0.4,0.1,0.5,0.4,0.6C38.2,73,38.6,72.4,38.6,71.5z"/>
	<path class="st0" d="M21.4,57.2c0,0.9-1,2.1-1.9,2.2c-0.5,0.1-0.5-0.5-0.7-0.7c-0.4-0.5-0.6-1.1,0.3-1.3c0.4-0.1,0.5-0.5,0.4-0.9
		c-0.2-0.4-0.6-0.5-0.9-0.3c-1.5,0.8-2.9,1.5-4.4,2.3c-0.4,0.2-0.4,0.6-0.2,0.9c0.2,0.3,0.5,0.4,0.9,0.2c0.4-0.3,1.2-0.2,0.9-1.1
		c-0.1-0.4,0.7-0.5,1.1-0.7s0.4,0.2,0.5,0.4c1.1,1.9,1.1,1.9-0.9,2.9c-0.6,0.3-1.2,0.6-1.8,0.9c-0.3,0.1-0.6,0.6-0.9,0.2
		c-0.3-0.4-0.8-0.9-0.6-1.4c0.2-0.4,0-0.4-0.2-0.5c-1.5-0.9-1.6-2.5-0.1-3.4c1.5-1,3.2-1.9,4.8-2.6C19.5,53.5,21.4,55.1,21.4,57.2z"
		/>
	<path class="st0" d="M17.7,66.4c0-0.7,0.2-1.3,0.7-1.8c1.5-1.5,3-2.9,4.5-4.4c0.3-0.3,0.5-0.3,0.8,0c1.1,1.1,1.1,1,0,2.1
		c-1.3,1.2-2.5,2.4-3.8,3.7c-0.3,0.3-0.7,0.6-0.3,1.1c0.5,0.5,0.8,0.1,1.1-0.2c1.4-1.4,2.8-2.7,4.2-4.1c0.5-0.5,0.8-0.5,1.2,0
		c0.2,0.2,0.4,0.4,0.6,0.6c0.3,0.2,0.3,0.4,0,0.7c-1.6,1.5-3.2,3.1-4.8,4.6c-0.7,0.7-1.7,0.8-2.6,0.3C18.4,68.4,17.7,67.6,17.7,66.4
		z"/>
	<path class="st0" d="M29.2,75.9c-0.4-0.2-0.9-0.5-1.3-0.8c-0.7-0.4-0.1-0.9,0-1.2c0.2-0.5,0-0.7-0.4-0.9c-0.4-0.2-0.8-0.5-1.1,0.1
		c-0.2,0.3-0.4,0.8-0.7,0.7c-0.5-0.1-1-0.5-1.5-0.8c-0.3-0.2,0-0.4,0.1-0.5c1.8-2.1,3.6-4.2,5.4-6.3c0.3-0.3,0.5-0.3,0.8-0.1
		c2,1,2,1,1.3,3.1c-0.7,2-1.4,4.1-2.2,6.1C29.6,75.5,29.6,75.9,29.2,75.9z M30.3,68.4c-0.1,0-0.1-0.1-0.2-0.1
		c-0.7,0.9-1.3,1.7-2,2.6c-0.3,0.3-0.2,0.5,0.2,0.7c0.3,0.2,0.5,0.2,0.7-0.2C29.4,70.4,29.8,69.4,30.3,68.4z"/>
	<path class="st0" d="M49.9,79.1c-0.4,0-0.8,0-1.1,0c-0.8,0.1-1.3,0-1.3-1c0-0.4-0.2-0.6-0.7-0.5c-0.4,0.1-0.9-0.1-1,0.6
		c0,0.3,0.1,0.9-0.2,1c-0.5,0.2-1.1,0.1-1.6,0.1c-0.4,0-0.3-0.3-0.3-0.5c0.4-2.7,0.7-5.5,1.1-8.2c0-0.2,0-0.5,0.4-0.5
		c0.7,0,1.4-0.1,2.2-0.1c0.3,0,0.4,0.2,0.4,0.5C48.5,73.3,49.2,76.1,49.9,79.1z M46.5,72c-0.1,0-0.1,0-0.2,0
		c-0.1,1.2-0.1,2.3-0.2,3.5c0,0.4,0.1,0.6,0.5,0.5c0.4,0,0.5-0.2,0.5-0.6C46.9,74.3,46.7,73.1,46.5,72z"/>
	<path class="st0" d="M74.3,31.5c-1.5-1.1-2.8-0.4-4,0.9c-0.3,0.3-0.5,0.2-0.6-0.3c0-0.1,0-0.1,0-0.2c0.2-1.7-0.4-2.8-2-3.4
		c-0.2-0.1-0.4-0.2-0.4-0.4c0-0.3,0.3-0.4,0.5-0.4c1.6-0.3,2.5-1.2,2.6-2.9c0-0.2,0.1-0.5,0.3-0.6c0.3-0.1,0.4,0.2,0.5,0.4
		c0.8,1.4,1.9,2,3.5,1.5c0.2-0.1,0.5-0.1,0.7,0.1c0.2,0.3,0,0.5-0.2,0.7c-1.1,1.1-1.2,2.4-0.4,3.7C75,31,75.3,31.5,74.3,31.5z"/>
	<path class="st0" d="M41.9,15.6C41.9,15.6,41.9,15.5,41.9,15.6c0.7-1.7,0.2-2.9-1.2-3.9c-0.5-0.3-0.4-0.7,0.2-0.8H41
		c1.6,0.1,2.7-0.6,3.1-2.2c0.1-0.2,0.1-0.5,0.4-0.5c0.4,0,0.4,0.3,0.5,0.5c0,0,0.1,0.1,0.1,0.2c0.4,1.4,1.3,2.1,2.8,2
		c0.3,0,0.7,0,0.8,0.3s-0.3,0.5-0.5,0.7c0,0,0,0-0.1,0.1c-1.3,0.8-1.5,1.9-1.1,3.2c0.1,0.3,0.2,0.6,0,0.9c-0.3,0.2-0.6,0-0.8-0.2
		c-1.2-1-2.4-0.9-3.6,0c-0.2,0.2-0.5,0.3-0.7,0.2C41.8,16,41.8,15.8,41.9,15.6z"/>
	<path class="st0" d="M14.9,25.7c1.3,0.6,1.8-0.6,2.5-1.4c0.2-0.2,0.3-0.7,0.7-0.6c0.3,0.1,0.3,0.5,0.4,0.8v0.1
		c0.1,1.4,0.8,2.2,2.2,2.5c0.3,0.1,0.7,0.1,0.8,0.5c0.1,0.4-0.4,0.5-0.7,0.6c-1.4,0.5-1.8,1.6-1.7,3.1c0,0.3,0.1,0.7-0.2,0.8
		c-0.3,0.1-0.5-0.2-0.7-0.4c-1-1.3-2.2-1.4-3.6-0.7c-0.2,0.1-0.5,0.3-0.7,0c-0.2-0.2,0-0.5,0.1-0.8c0.8-1.3,0.7-2.5-0.4-3.6
		c-0.2-0.2-0.4-0.4-0.3-0.7c0.1-0.3,0.5-0.2,0.7-0.2C14.4,25.7,14.6,25.7,14.9,25.7z"/>
	<path class="st0" d="M62.6,14.1c-0.7,1.4,0.2,2.3,1.4,3c0.2,0.2,0.6,0.3,0.5,0.7c-0.1,0.4-0.5,0.4-0.8,0.4
		c-1.5,0.1-2.4,0.9-2.6,2.4c0,0.3-0.1,0.7-0.5,0.7c-0.3,0-0.4-0.3-0.5-0.5c-0.6-1.5-1.6-2-3.2-1.9c-0.2,0-0.6,0.1-0.7-0.2
		c-0.2-0.3,0.1-0.6,0.4-0.8c1.2-1,1.4-2.1,0.8-3.5c-0.1-0.3-0.3-0.6,0-0.8s0.6,0,0.8,0.1c1.2,0.8,2.4,0.7,3.5-0.3
		c0.2-0.2,0.5-0.5,0.8-0.3C62.8,13.3,62.5,13.7,62.6,14.1z"/>
	<path class="st0" d="M31.8,13.7c-0.1,0.5-0.2,1-0.4,1.4c-0.3,0.7-0.2,1.3,0.4,1.9c0.4,0.4,1.2,0.9,0.9,1.4
		c-0.2,0.5-1.1,0.3-1.7,0.3c-0.8,0-1.4,0.3-1.7,1c-0.1,0.3-0.4,0.6-0.6,0.9c-0.1,0.2-0.2,0.5-0.5,0.4c-0.2,0-0.3-0.3-0.4-0.5v-0.1
		c-0.3-1.6-1.2-2.5-2.8-2.5c-0.3,0-0.6-0.1-0.6-0.4s0.3-0.4,0.4-0.5c0,0,0,0,0.1-0.1c1.4-0.7,1.9-1.8,1.5-3.3
		c-0.1-0.2-0.2-0.6,0.1-0.7c0.3-0.2,0.5,0.1,0.7,0.2c1.2,1.2,2.4,1.2,3.8,0.4C31.3,13.3,31.8,13.1,31.8,13.7z"/>
	<path class="st0" d="M16.1,46.5c-0.2,0-0.3-0.1-0.3-0.1c-1.5-0.5-2.8-0.2-3.7,1.2c-0.1,0.2-0.3,0.4-0.6,0.3
		c-0.2-0.1-0.2-0.4-0.3-0.6v-0.1c0-1.5-0.5-2.5-2.1-2.9c-0.3-0.1-0.7-0.2-0.7-0.5c0-0.4,0.4-0.4,0.6-0.5c0.1,0,0.1-0.1,0.2-0.1
		c1.4-0.3,2-1.3,1.9-2.7c0-0.3,0-0.7,0.3-0.8c0.4-0.2,0.5,0.3,0.8,0.5l0.1,0.1c0.7,1.1,1.7,1.4,3,1c0.3-0.1,0.8-0.3,1,0.1
		c0.2,0.3-0.1,0.7-0.3,0.9c-1,1.2-0.7,2.3,0.1,3.5C16.5,46,16.7,46.4,16.1,46.5z"/>
	<path class="st0" d="M72.9,41.5c1.5,0.8,2.7,0.1,3.7-1.2c0.4-0.5,0.7-0.3,0.7,0.3c0,1.8,0.8,2.8,2.5,3.3c0.5,0.2,0.5,0.5,0,0.7
		c-1.6,0.5-2.5,1.5-2.4,3.3c0,0.6-0.3,0.8-0.8,0.3l-0.1-0.1c-0.9-1.3-2-1.7-3.5-1.1c-0.2,0.1-0.6,0.2-0.7-0.1
		c-0.2-0.2,0-0.5,0.2-0.7c1-1.3,1-2.5,0-3.8C72.1,41.9,71.9,41.5,72.9,41.5z"/>
	<path class="st0" d="M74.4,64.4c-0.1,0.1-0.2,0.2-0.3,0.3c-0.8,0.9-1.6,1.9-2.4,2.8c-0.3,0.3-0.4,0.4-0.8,0.1
		c-2.1-1.8-4.1-3.5-6.2-5.2c-0.3-0.3-0.4-0.5-0.1-0.8c0.8-0.9,1.5-1.8,2.3-2.7c0.5-0.6,0.8-0.2,1.1,0.1c0.3,0.3,0.9,0.5,0.3,1
		c-0.2,0.2-0.4,0.5-0.6,0.8c-0.6,0.6-0.5,0.9,0.1,1.5c0.5,0.4,0.9,0.5,1.3-0.1c0.1-0.2,0.2-0.3,0.3-0.4c0.3-0.5,0.6-0.7,1.2-0.2
		c0.5,0.5,0.8,0.8,0.2,1.3c0,0,0,0-0.1,0.1c-0.8,1-0.6,1.6,0.5,2.2c0.3,0.1,0.4,0,0.5-0.2c0.3-0.3,0.5-0.6,0.8-1
		C73.1,63.3,74,63.5,74.4,64.4C74.4,64.3,74.4,64.4,74.4,64.4z"/>
	<path class="st0" d="M70.9,52.3c0.9,0,1.3,0.7,0.9,1.5c-0.1,0.2-0.2,0.4-0.3,0.6c-0.4,0.7-0.3,1,0.5,1.4c0.7,0.3,1,0.2,1.2-0.5
		c0-0.2,0.2-0.3,0.2-0.5c0.2-0.9,0.7-0.6,1.3-0.4c0.7,0.3,0.6,0.6,0.3,1.1v0.1c-0.6,1.3-0.4,1.6,1,2c0.3,0.1,0.4-0.1,0.5-0.3
		c0.2-0.4,0.4-0.9,0.6-1.3c0.2-0.6,0.5-0.6,1.1-0.4c0.8,0.3,0.8,0.6,0.5,1.3c-0.5,0.9-0.9,1.9-1.3,2.9c-0.2,0.4-0.4,0.6-0.9,0.4
		c-2.4-1.1-4.8-2.2-7.2-3.3c-0.4-0.2-0.6-0.3-0.3-0.8c0.5-1,1-2.1,1.5-3.2C70.5,52.6,70.5,52.3,70.9,52.3z"/>
	<path class="st0" d="M63.7,64.9c-0.1,0.1-0.2,0.3-0.4,0.3c-0.7,0.3-0.6,0.7-0.2,1.3c1.2,1.5,2.2,3.1,3.4,4.7c0.3,0.5,0.4,0.8-0.2,1
		c-0.2,0.1-0.4,0.2-0.5,0.4c-0.4,0.4-0.7,0.4-1.1-0.1c-1.1-1.7-2.4-3.3-3.5-4.9c-0.3-0.5-0.6-0.5-1-0.2c-0.7,0.7-0.8-0.1-1.2-0.4
		c-0.4-0.4-0.3-0.7,0.2-1c0.9-0.6,1.8-1.3,2.7-1.9c0.2-0.1,0.4-0.6,0.7-0.3C63.2,64.1,63.4,64.5,63.7,64.9z"/>
	<path class="st0" d="M30.5,49c-1,0.2-1.7,0.5-2.1-0.6c-0.1-0.3-0.4-0.2-0.6-0.2c-1.2-0.2-2-1.1-2-2.4c0-1.4,0-2.8,0-4.2
		c0-1.5,1-2.4,2.6-2.4c1.5,0,2.5,0.9,2.5,2.4c0,1.4,0,2.7,0,4.1c0,0.5,0,1-0.4,1.3C29.8,47.6,29.6,48.2,30.5,49z M28.8,43.7
		c0-0.8,0-1.6,0-2.3c0-0.3-0.2-0.6-0.5-0.6c-0.4,0-0.6,0.2-0.6,0.6c0,1.5,0,3.1,0,4.6c0,0.4,0.2,0.7,0.6,0.7s0.6-0.3,0.6-0.7
		C28.8,45.2,28.8,44.5,28.8,43.7z"/>
	<path class="st0" d="M37.1,43c0,0.9,0,1.9,0,2.8c0,1.5-1,2.4-2.6,2.4c-1.5,0-2.5-0.9-2.5-2.4c0-1.9,0-3.8,0-5.7
		c0-0.7,0.4-0.8,0.9-0.7c0.5,0,1.1-0.2,1.1,0.7c-0.1,1.7,0,3.4,0,5.1c0,0.2,0,0.4,0,0.6c0,0.4,0.1,0.7,0.6,0.7s0.6-0.3,0.6-0.7
		c0-1.8,0-3.7,0-5.5c0-0.8,0.3-1,1-0.9c0.6,0,1.1,0,1,0.9C37,41.2,37.1,42.1,37.1,43z"/>
	<path class="st0" d="M42.8,48c-0.8,0.2-1.2-0.1-1.2-1c0-0.5-0.3-0.6-0.7-0.5c-0.4,0-0.8-0.1-0.9,0.5c0,0.3,0.1,0.8-0.3,0.9
		c-0.5,0.1-1,0.1-1.4,0c-0.4,0-0.3-0.3-0.2-0.6c0.5-2.5,0.9-5.1,1.4-7.6c0.1-0.3,0.2-0.5,0.6-0.4h0.1c2.1-0.2,2.1-0.2,2.4,1.9
		c0.3,1.9,0.7,3.8,1.1,5.8C43.8,47.8,43.7,48.2,42.8,48z M40.8,41.1c-0.2,1.3-0.3,2.3-0.4,3.3c0,0.3-0.1,0.6,0.4,0.6
		c0.3,0,0.6,0,0.5-0.5C41.2,43.4,41.1,42.4,40.8,41.1z"/>
	<path class="st0" d="M61.1,42c0.2-0.8,0.3-1.3,0.4-1.9c0.1-0.6,0.3-0.7,0.9-0.7c1.3,0,1.3,0,0.9,1.2c-0.7,2.2-1.5,4.4-1.2,6.8
		c0.1,0.7-0.4,0.7-0.9,0.6c-0.4,0-1.1,0.3-1-0.5c0.3-2.5-0.7-4.8-1.3-7.1c-0.1-0.2-0.6-0.7,0-0.9c0.8-0.3,1.7,0,1.8,0.6
		C60.7,40.6,60.7,41.2,61.1,42z"/>
	<path class="st0" d="M54.3,44.5c0-0.9,0-1.8,0-2.7c0-0.5,0-0.8-0.7-0.7c-0.8,0.1-0.6-0.4-0.6-0.9s0.1-0.8,0.7-0.8
		c1.1,0,2.2,0,3.3,0c0.6,0,0.7,0.3,0.6,0.7c0,0.4,0.2,1-0.6,0.9c-0.7-0.1-0.7,0.3-0.7,0.8c0,1.8,0,3.6,0,5.4c0,0.8-0.4,0.8-0.9,0.8
		s-1.1,0.2-1.1-0.7C54.4,46.4,54.3,45.4,54.3,44.5z"/>
	<path class="st0" d="M44.8,43.7c0-1.2,0.1-2.4,0-3.5c-0.1-0.9,0.5-0.8,1-0.8s1,0,1,0.8c-0.1,1.6,0,3.2,0,4.8c0,1.4,0,1.4,1.4,1.4
		c0.6,0,0.8,0.2,0.8,0.8c0,0.7-0.2,0.9-0.9,0.9c-0.9-0.1-1.7,0-2.6,0c-0.5,0-0.7-0.2-0.7-0.7C44.8,46.1,44.8,44.9,44.8,43.7z"/>
	<path class="st0" d="M50,43.7c0-1.2,0-2.4,0-3.6c0-0.8,0.4-0.7,0.9-0.7c0.4,0,1.1-0.3,1.1,0.7c0,2.4,0,4.9,0,7.3
		c0,0.9-0.6,0.6-1.1,0.6s-1,0.1-0.9-0.7C50,46.1,50,44.9,50,43.7z"/>
</g>
</svg>
