<svg id="icon_temperature" xmlns="http://www.w3.org/2000/svg" width="55" height="54" viewBox="0 0 55 54">
  <ellipse id="Oval_3_Copy" data-name="Oval 3 Copy" cx="27.5" cy="27" rx="27.5" ry="27" fill="#fff"/>
  <g id="Page_1_Copy_3" data-name="Page 1 Copy 3" transform="translate(17 12)">
    <path id="Fill_1" data-name="Fill 1" d="M5.777,29.849h0A5.65,5.65,0,0,1,2.35,28.7a5.876,5.876,0,0,1-2.092-3,5.967,5.967,0,0,1,1.9-6.332V3.622a3.613,3.613,0,1,1,7.225.008V19.368A5.962,5.962,0,0,1,11.292,25.7a5.877,5.877,0,0,1-2.09,3A5.648,5.648,0,0,1,5.777,29.849Zm0-28.39h0A2.15,2.15,0,0,0,3.606,3.629V20.034l-.305.217A4.525,4.525,0,0,0,1.639,25.27a4.3,4.3,0,0,0,8.272,0,4.517,4.517,0,0,0-1.662-5.014l-.3-.217V3.634A2.149,2.149,0,0,0,5.778,1.461Z" transform="translate(5.227 0.116)" fill="#00237e"/>
    <path id="Fill_2" data-name="Fill 2" d="M2.887,5.823A2.912,2.912,0,0,1,2.887,0a2.912,2.912,0,0,1,0,5.823Zm0-4.367A1.435,1.435,0,0,0,1.443,2.913a1.445,1.445,0,1,0,2.889,0A1.435,1.435,0,0,0,2.887,1.456Z" transform="translate(8.115 21.229)" fill="#00237e"/>
    <path id="Fill_3" data-name="Fill 3" d="M.711,0A.724.724,0,0,0,0,.737V5.085a.73.73,0,0,0,.207.521.718.718,0,0,0,1.029,0,.731.731,0,0,0,.208-.521V.737A.733.733,0,0,0,1.232.213.72.72,0,0,0,.711,0Z" transform="translate(10.281 16.861)" fill="#00237e"/>
    <path id="Fill_5" data-name="Fill 5" d="M.732,0A.715.715,0,0,0,.215.21a.731.731,0,0,0,0,1.036.721.721,0,0,0,.517.21h3.59a.721.721,0,0,0,.517-.21.731.731,0,0,0,0-1.036A.715.715,0,0,0,4.322,0Z" transform="translate(0.173 18.316)" fill="#00237e"/>
    <path id="Fill_6" data-name="Fill 6" d="M.732,0A.713.713,0,0,0,.215.21a.731.731,0,0,0,0,1.036.719.719,0,0,0,.517.21H2.878a.721.721,0,0,0,.517-.21.731.731,0,0,0,0-1.036A.715.715,0,0,0,2.878,0Z" transform="translate(1.618 9.58)" fill="#00237e"/>
    <path id="Fill_7" data-name="Fill 7" d="M.732,0A.72.72,0,0,0,.215.209a.733.733,0,0,0,0,1.037.72.72,0,0,0,.517.209h3.59a.72.72,0,0,0,.517-.209.733.733,0,0,0,0-1.037A.72.72,0,0,0,4.322,0Z" transform="translate(0.173 6.668)" fill="#00237e"/>
    <path id="Fill_8" data-name="Fill 8" d="M.732,0A.719.719,0,0,0,.215.21a.731.731,0,0,0,0,1.036.713.713,0,0,0,.517.21H2.878a.715.715,0,0,0,.517-.21.731.731,0,0,0,0-1.036A.721.721,0,0,0,2.878,0Z" transform="translate(1.618 3.755)" fill="#00237e"/>
    <path id="Fill_9" data-name="Fill 9" d="M.732,0A.715.715,0,0,0,.215.21a.731.731,0,0,0,0,1.036.721.721,0,0,0,.517.21h3.59a.721.721,0,0,0,.517-.21.731.731,0,0,0,0-1.036A.715.715,0,0,0,4.322,0Z" transform="translate(0.173 0.843)" fill="#00237e"/>
    <path id="Fill_10" data-name="Fill 10" d="M.732,0A.718.718,0,0,0,.215.209a.733.733,0,0,0,0,1.037.718.718,0,0,0,.517.209H2.878a.72.72,0,0,0,.517-.209.733.733,0,0,0,0-1.037A.72.72,0,0,0,2.878,0Z" transform="translate(1.618 15.404)" fill="#00237e"/>
    <path id="Fill_11" data-name="Fill 11" d="M.732,0A.721.721,0,0,0,.215.21a.733.733,0,0,0,0,1.037.72.72,0,0,0,.517.209h3.59a.72.72,0,0,0,.517-.209.733.733,0,0,0,0-1.037A.721.721,0,0,0,4.322,0Z" transform="translate(0.173 12.491)" fill="#00237e"/>
  </g>
</svg>
