<svg id="icon_skin" xmlns="http://www.w3.org/2000/svg" width="55.799" height="54" viewBox="0 0 55.799 54">
  <ellipse id="Oval_3" data-name="Oval 3" cx="27.9" cy="27" rx="27.9" ry="27" transform="translate(0 0)" fill="#fff"/>
  <g id="Group_59" data-name="Group 59" transform="translate(14.386 13.286)">
    <path id="Fill_1" data-name="Fill 1" d="M21.538,28.286H8.778l-.148-3.008-.014,0a14.909,14.909,0,0,1-1.791.1,12.144,12.144,0,0,1-3.781-.551c-1.358-.463-.484-3.742-.475-3.775L1.812,20l.079-2.472L0,16.058l1.943-3.479,1.1-1.3A8.241,8.241,0,0,1,4.48,4.018,10.178,10.178,0,0,1,8.519,1.04,13.533,13.533,0,0,1,13.756,0a12.743,12.743,0,0,1,5.7,1.3c3.319,1.671,5.342,3.913,6.011,6.662,1.137,4.666-1.914,9.554-3.278,11.439-1.884,2.6-.668,8.818-.655,8.88ZM9.767,23.925h0l.063,1.295.1,1.887,10.208,0c-.1-.758-.162-1.506-.191-2.223-.112-2.772.315-4.845,1.267-6.163a20.389,20.389,0,0,0,2.414-4.359A10.137,10.137,0,0,0,24.288,8.2a7.347,7.347,0,0,0-1.6-3.038,12.117,12.117,0,0,0-3.781-2.808,11.5,11.5,0,0,0-5.152-1.173A12.3,12.3,0,0,0,9.047,2.1,9.039,9.039,0,0,0,5.494,4.663,6.693,6.693,0,0,0,4.138,7.435a7.912,7.912,0,0,0,.077,3.576l.135.568-.38.449L2.944,13.243l-1.4,2.51,1.1.853.473.367-.019.591-.067,2.082.526.739.32.449-.144.528a8.716,8.716,0,0,0-.213,1.169,3.012,3.012,0,0,0,.04,1.229,11.1,11.1,0,0,0,3.266.445,12.839,12.839,0,0,0,1.633-.094l1.312-.187Z" fill="#00237e"/>
    <path id="Fill_2" data-name="Fill 2" d="M.643,0A.635.635,0,0,0,0,.629a.635.635,0,0,0,.643.629.636.636,0,0,0,.643-.63A.635.635,0,0,0,.643,0Z" transform="translate(10.288 16.343)" fill="#00237e"/>
    <path id="Fill_3" data-name="Fill 3" d="M.644,0A.636.636,0,0,0,0,.629a.636.636,0,0,0,.644.629A.635.635,0,0,0,1.286.629.634.634,0,0,0,.644,0Z" transform="translate(7.716 18.857)" fill="#00237e"/>
    <path id="Fill_4" data-name="Fill 4" d="M.643,0A.636.636,0,0,0,0,.629a.635.635,0,0,0,.643.628A.635.635,0,0,0,1.286.629.636.636,0,0,0,.643,0Z" transform="translate(5.144 11.943)" fill="#00237e"/>
    <path id="Fill_5" data-name="Fill 5" d="M.643,0A.635.635,0,0,0,0,.629a.636.636,0,0,0,.643.628A.635.635,0,0,0,1.286.629.636.636,0,0,0,.643,0Z" transform="translate(2.572 13.829)" fill="#00237e"/>
    <path id="Fill_6" data-name="Fill 6" d="M.642,0A.635.635,0,0,0,0,.629a.635.635,0,0,0,.642.629.637.637,0,0,0,.644-.63A.637.637,0,0,0,.642,0Z" transform="translate(5.144 16.343)" fill="#00237e"/>
    <path id="Fill_7" data-name="Fill 7" d="M.644,0A.636.636,0,0,0,0,.629a.636.636,0,0,0,.644.628A.635.635,0,0,0,1.286.629.634.634,0,0,0,.644,0Z" transform="translate(7.716 13.829)" fill="#00237e"/>
    <path id="Fill_8" data-name="Fill 8" d="M.643,0A.636.636,0,0,0,0,.629a.635.635,0,0,0,.643.628A.635.635,0,0,0,1.286.629.636.636,0,0,0,.643,0Z" transform="translate(10.288 11.943)" fill="#00237e"/>
    <path id="Fill_9" data-name="Fill 9" d="M.643,0A.635.635,0,0,0,0,.629a.636.636,0,0,0,.643.628A.635.635,0,0,0,1.286.629.636.636,0,0,0,.643,0Z" transform="translate(10.288 20.743)" fill="#00237e"/>
    <path id="Fill_10" data-name="Fill 10" d="M.642,0A.635.635,0,0,0,0,.629a.636.636,0,0,0,.642.628A.636.636,0,0,0,1.286.629.637.637,0,0,0,.642,0Z" transform="translate(5.144 20.743)" fill="#00237e"/>
    <path id="Fill_11" data-name="Fill 11" d="M.642,0A.636.636,0,0,0,0,.629a.636.636,0,0,0,.642.629A.636.636,0,0,0,1.286.629.638.638,0,0,0,.642,0Z" transform="translate(12.217 18.857)" fill="#00237e"/>
    <path id="Fill_12" data-name="Fill 12" d="M.642,0A.635.635,0,0,0,0,.629a.636.636,0,0,0,.642.628A.636.636,0,0,0,1.286.629.637.637,0,0,0,.642,0Z" transform="translate(12.217 13.829)" fill="#00237e"/>
  </g>
</svg>
