<svg width="208" height="72" viewBox="0 0 208 72" fill="none" xmlns="http://www.w3.org/2000/svg">
<g filter="url(#filter0_d_11623_49434)">
<path fill-rule="evenodd" clip-rule="evenodd" d="M40.5794 38.8731C40.4193 39.2682 40.1543 39.7211 40.0273 39.9044C39.2866 40.9743 38.1611 41.7481 36.5885 42.2706C36.2453 42.3843 35.3554 42.6502 34.507 42.6502C33.7166 42.6502 33.1727 42.4237 32.892 41.9782C32.6473 41.5895 32.7384 41.0055 33.1019 40.6195C33.8058 39.876 35.3113 39.6982 36.4128 39.568L36.7118 39.5322C37.2667 39.4626 37.8326 39.3727 38.3921 39.2654C38.6755 39.2095 38.9498 39.1692 39.2424 39.1252C39.6951 39.0573 40.1249 38.9932 40.5794 38.8731ZM62.8089 27.9048C63.6619 26.2629 64.6392 25.1252 65.7977 24.4257C66.6286 23.9224 67.8185 23.5364 68.9908 23.5364C69.5963 23.5364 70.1981 23.64 70.7429 23.8829C72.0643 24.4715 73.2633 25.4855 74.0335 26.6653C74.2829 27.0476 74.1108 27.7691 73.9857 28.2963C73.9562 28.4182 73.9296 28.5328 73.9084 28.6373C73.7023 29.6476 73.4244 30.7881 73.1557 31.89C72.9624 32.6849 72.771 33.4687 72.6109 34.1911C72.5281 34.5606 72.1425 35.5974 71.9668 36.0265C70.9288 38.5751 66.9093 40.1758 64.2748 39.8027C63.0914 39.634 62.2236 39.0344 61.6991 38.0186C60.2369 35.1922 61.7009 30.0363 62.8089 27.9048ZM136.797 24.3533C136.931 24.6072 136.853 25.0262 136.559 25.6294C136.207 26.3463 135.757 27.0183 135.289 27.7013C134.087 29.4532 132.625 31.1804 131.171 32.5675C131.015 32.716 130.856 32.8627 130.695 33.0112C130.48 32.5382 130.358 32.0981 130.318 31.6471C130.127 29.5972 130.548 27.6353 131.468 26.2675C131.727 25.8824 132.031 25.5295 132.371 25.2205C133.286 24.3908 134.374 23.9526 135.49 23.9526C135.695 23.9526 135.901 23.9664 136.106 23.9966C136.466 24.0489 136.699 24.169 136.797 24.3533ZM203.481 46.3282C203.199 45.9359 202.882 45.5719 202.574 45.2199C202.019 44.5809 201.494 43.9776 201.154 43.2204C200.705 42.2239 200.365 41.1329 200.139 39.9769C199.786 38.1598 199.713 36.186 199.92 34.1141C200.304 30.3003 200.5 27.1173 199.275 23.7684C198.488 21.6139 196.416 20.1829 193.592 19.8446C191.475 19.5897 189.699 20.2278 188.092 20.9566C187.909 21.0391 187.73 21.1262 187.558 21.2252C187.493 21.261 187.431 21.2995 187.36 21.3462C187.333 21.2307 187.298 21.1262 187.253 21.0254C186.537 19.4779 184.64 19.0772 183.077 19.3688C181.113 19.7336 179.055 20.9456 177.431 22.6921C176.907 23.255 176.44 23.8664 176.012 24.4431C174.433 26.5718 172.939 28.8812 171.571 31.306C171.228 31.912 170.895 32.5253 170.562 33.1396C169.652 34.8164 168.711 36.5509 167.579 38.1167C166.563 39.5194 165.561 40.1171 164.229 40.118C163.801 40.118 163.48 40.0016 163.25 39.7633C162.896 39.3965 162.743 38.7246 162.782 37.7069C162.902 34.6413 163.976 31.6388 164.857 29.6586C165.062 29.1956 165.3 28.7308 165.554 28.2385C166.443 26.5003 167.365 24.7025 167.001 22.7324C166.828 21.7927 166.326 21.0648 165.509 20.5707C163.972 19.6392 161.557 19.7364 159.964 20.2223C159.666 20.313 159.351 20.4212 159.027 20.5322C157.919 20.9117 156.667 21.3426 155.544 21.2371C155.284 21.2124 155.282 21.1941 155.277 21.1446C155.183 20.4102 154.724 19.7831 154.078 19.5081C153.823 19.399 153.532 19.3477 153.241 19.3596C152.776 19.3761 152.131 19.6484 151.811 20.2012C151.516 20.7128 151.362 21.2931 151.214 21.8551C151.112 22.2383 151.017 22.6004 150.879 22.9396C150.713 23.3494 150.551 23.7629 150.389 24.1763C150.106 24.8996 149.813 25.6468 149.5 26.3692C149.245 26.9569 149 27.55 148.755 28.145C148.003 29.9685 147.228 31.8543 146.149 33.5145C145.92 33.8684 145.695 34.2324 145.469 34.5972C144.581 36.0329 143.662 37.5181 142.342 38.5549C140.159 40.2693 137.328 39.5891 135.569 38.4862C135.271 38.3001 133.829 37.1935 133.58 36.8241C133.633 36.77 133.699 36.7196 133.768 36.6673C133.824 36.6233 133.88 36.5793 133.931 36.5335C135.906 34.7705 137.716 32.6436 139.165 30.3801C139.642 29.6348 140.067 28.8839 140.425 28.1478C141.186 26.5883 141.534 25.1664 141.461 23.9196C141.392 22.7672 140.949 22.1512 140.21 21.4783C138.5 19.9243 135.815 19.3724 133.205 20.0417C132.749 20.1581 132.272 20.3369 131.7 20.6037C130.862 20.997 130.18 21.4104 129.614 21.8706C127.521 23.5685 126.154 26.4132 125.955 29.4826C125.882 30.6203 125.967 31.8112 126.218 33.1231C126.23 33.19 126.285 33.3908 126.355 33.6502C126.474 34.0939 126.745 35.096 126.764 35.3747C124.992 37.1587 122.991 38.907 120.381 39.6762C119.755 39.8604 119.055 39.8898 118.355 39.7623C116.358 39.3938 115.649 37.2366 116.186 33.1726C116.287 32.5868 116.405 32.0083 116.518 31.4555C116.638 30.8687 116.751 30.3095 116.834 29.7998C117.458 25.9246 118.413 22.0467 119.337 18.2952L119.504 17.6187C119.523 17.5389 119.578 17.2703 119.656 16.8852C119.888 15.7411 120.577 12.3436 120.86 11.7944C121.053 11.7871 121.242 11.7715 121.431 11.7559C121.639 11.7385 121.846 11.722 122.058 11.7156C123.618 11.6716 125.193 11.7174 126.74 11.8513C127.349 11.9044 128.244 11.9264 128.972 11.5139C129.277 11.3406 129.476 11.0848 129.564 10.7557C129.758 10.0305 129.339 9.23662 129.205 9.01018C129.06 8.76357 128.874 8.48579 128.593 8.28685C128.34 8.10716 128.05 8.02007 127.772 7.95131C126.858 7.72578 125.86 7.63594 124.536 7.64969H124.361C123.147 7.63502 122.465 7.67444 122.078 7.7212C122.136 7.47734 122.201 7.22523 122.268 6.9667C122.553 5.86657 122.877 4.61976 122.654 3.54898C122.543 3.0145 122.193 2.64596 121.695 2.54053C121.053 2.40393 120.294 2.71838 119.881 3.28861C119.413 3.93402 118.814 6.00684 118.492 7.12163L118.362 7.5681C118.325 7.69278 118.293 7.80371 118.263 7.89447C117.928 7.97698 116.585 8.0054 115.989 8.01915C115.628 8.0274 115.344 8.0329 115.25 8.04299C114.236 8.15117 113.098 8.34735 112.356 8.98176C111.87 9.39797 111.537 10.1901 111.881 10.8382C112.067 11.1884 112.437 11.4589 112.898 11.5799C113.257 11.6761 113.624 11.6798 114.016 11.6798C114.981 11.6872 116.208 11.7119 117.196 11.7632C117.152 11.8797 117.112 11.9989 117.073 12.1153C117.029 12.2491 116.986 12.3821 116.935 12.5031C116.61 13.2787 116.309 14.0249 116.01 14.7657C115.548 15.9116 115.111 16.9934 114.594 18.1678C114.371 18.6748 114.146 19.2184 113.917 19.7712C113.493 20.7971 113.055 21.8578 112.591 22.7691C112.27 23.3998 111.916 24.0681 111.562 24.7355C111.207 25.4066 110.851 26.0786 110.528 26.7149C109.716 28.3091 108.963 29.6063 108.158 30.7982C107.857 31.2428 107.559 31.6966 107.259 32.1541C106.241 33.7071 105.187 35.3142 103.933 36.6902C103.111 37.5914 100.61 40.3316 98.4751 39.8128C95.2489 39.0308 95.7863 32.4694 95.8581 31.7232C96.3467 26.6562 98.0638 21.3637 99.6346 16.8018C99.6926 16.6322 99.7524 16.4644 99.8011 16.2738C99.814 16.2692 99.8545 16.2683 99.8683 16.2673C100.16 16.2582 100.453 16.2518 100.746 16.2453C101.503 16.2297 102.285 16.2132 103.047 16.1399L103.427 16.106C104.228 16.0381 105.056 15.9676 105.798 15.5761C106.423 15.2451 106.817 14.6694 106.83 14.0726C106.846 13.264 106.17 12.6406 105.535 12.4022C104.864 12.152 104.133 12.1886 103.487 12.2216C103.444 12.2235 103.326 12.2317 103.158 12.2445C102.067 12.3289 101.366 12.3674 101.038 12.3665C101.102 12.0649 101.258 11.7119 101.388 11.4176L101.481 11.2013C101.551 11.0362 101.629 10.8749 101.706 10.7126C101.811 10.4926 101.916 10.2717 102.004 10.0452L102.052 9.92145C102.318 9.23754 102.593 8.52887 102.52 7.75145C102.483 7.34807 102.321 7.0217 102.065 6.83193C101.734 6.5844 101.321 6.48998 100.874 6.55965C100.064 6.68433 99.2858 7.30957 98.9058 7.83763C98.6297 8.22176 98.4742 8.68289 98.3242 9.13028C98.2736 9.28154 98.2239 9.43098 98.1687 9.57399L98.1208 9.70142C97.831 10.4678 97.542 11.2333 97.2301 11.9915C97.1915 12.0841 97.1565 12.1804 97.1215 12.2757L97.1003 12.3445C97.0967 12.3546 97.093 12.3674 97.0893 12.3802C97.0516 12.3811 97.0028 12.3802 96.9724 12.3793C96.9292 12.3784 96.8878 12.3766 96.8528 12.3784L96.5896 12.3912C96.043 12.4206 95.5286 12.4472 94.9931 12.4334L94.6839 12.4252C94.1897 12.4123 93.6781 12.3976 93.1711 12.4151C92.6604 12.4334 91.9932 12.4802 91.3665 12.6883C90.7601 12.8881 90.2936 13.2273 90.0184 13.6683C89.8767 13.8938 89.7773 14.1533 89.7212 14.4393C89.6715 14.7015 89.677 14.9234 89.7442 15.1186C89.8841 15.5376 90.3046 15.8475 90.9285 15.9896C91.3711 16.0904 91.8165 16.0959 92.2453 16.1014C92.4689 16.1042 92.6916 16.1069 92.9134 16.1234C93.3036 16.1518 93.8207 16.1463 94.3204 16.1399C94.6443 16.1372 94.9747 16.1326 95.2636 16.139C94.9185 16.9219 94.3949 18.2861 94.3103 18.5272C93.0809 21.9577 91.3307 25.1398 89.3384 28.6474L89.0642 29.1287C88.6593 29.8438 88.2535 30.5607 87.8366 31.2712C86.6422 33.3074 85.2656 35.2042 83.7436 36.9103C83.5926 37.0799 83.4298 37.2678 83.2586 37.4667C82.1019 38.8052 80.5182 40.6379 78.953 40.8249C78.2444 40.9111 77.7245 40.7735 77.3638 40.4096C76.5696 39.6083 76.6791 37.883 76.8917 36.3015C77.0656 35.0034 77.3766 33.7034 77.6776 32.4456C77.7549 32.1192 77.8331 31.7928 77.9094 31.4656C78.3318 29.6476 78.8186 27.8113 79.2888 26.0355L79.4149 25.5616C79.5925 24.8932 79.7747 24.202 79.6542 23.4979C79.5437 22.8543 79.0956 22.3116 78.4864 22.0769C77.9969 21.889 77.4319 21.8917 76.9736 22.0833C76.4491 22.3024 76.1611 22.7801 75.9678 23.1725C75.9089 23.2935 75.8537 23.4181 75.804 23.5465C75.5556 23.1211 75.2915 22.6893 74.9372 22.2997C73.2523 20.4478 71.2591 19.586 68.6651 19.586C66.0001 19.586 63.4245 20.4102 61.0108 22.0366C58.4572 23.7555 56.2082 25.9814 54.3457 27.9323C52.5964 29.7659 49.8376 32.177 46.5764 33.3321C46.6537 32.0688 46.6031 30.9366 46.4126 29.577C46.2176 28.1918 45.843 26.7946 45.2983 25.424C44.632 23.7931 43.4891 22.2759 41.9009 20.9126C41.1721 20.2883 40.32 19.7657 39.3666 19.3614C37.2741 18.4713 34.8337 18.1953 32.4982 18.5858C30.7231 18.882 29.1358 19.5485 27.9082 20.5147L27.8346 20.5725C27.2319 21.0455 26.861 21.3362 26.6392 21.5268C26.6024 21.4618 26.5656 21.3958 26.5288 21.3288C26.2942 20.9016 26.0503 20.4597 25.6399 20.1444C24.0875 18.9526 21.7916 19.7896 20.8769 20.2039C19.0034 21.052 17.5817 22.4427 16.206 23.7885C15.7532 24.2304 15.2995 24.675 14.8284 25.1032C13.1472 26.6296 11.5681 27.738 9.99824 28.4925C9.08172 28.9325 8.06029 29.2928 6.96432 29.5614C6.80053 29.6018 6.56863 29.6311 6.32294 29.6623C5.46807 29.7723 4.40247 29.9089 4.108 30.6616C3.93961 31.0943 3.96813 31.4646 4.19358 31.7617C4.79264 32.5519 6.63949 32.5033 7.68668 32.4043C9.16822 32.2641 10.6543 31.968 12.1064 31.5233C15.0226 30.6313 17.5881 29.2195 19.5261 27.4391C20.6073 26.4472 21.7576 25.3791 22.8609 24.279C23.148 23.9902 23.5786 23.5529 23.943 23.7033C24.1243 23.7794 24.2163 24.0324 24.2605 24.2304C24.5357 25.469 24.2255 26.978 23.9504 28.31C23.8694 28.7024 23.7903 29.0847 23.7286 29.4487C23.4286 31.1905 23.1185 32.7811 22.7781 34.3103C22.3723 36.142 21.983 38.0086 21.6048 39.8238L20.8567 43.39C20.069 47.1258 19.089 51.7748 18.3592 55.396C18.0592 56.8867 17.808 58.4076 17.5642 59.8781C17.4731 60.43 17.382 60.981 17.2881 61.532C17.162 62.2709 17.2228 63.2738 17.8099 63.6635C17.9359 63.7469 18.1071 63.8147 18.3362 63.8147C18.6077 63.8147 18.9574 63.7203 19.4018 63.4416C19.9788 63.0795 20.3947 62.5203 20.6929 62.0729C22.4229 59.4766 23.0909 56.2899 23.7369 53.2077C23.9053 52.4064 24.0792 51.5758 24.2679 50.7819C25.0988 47.2863 25.8644 43.2433 26.6043 39.3324C27.0285 37.0945 27.4288 34.9795 27.8364 32.9828C27.9929 32.2201 28.1263 31.2565 28.2699 30.2059C28.4649 28.7776 28.6674 27.3016 28.9517 26.251C29.3603 24.7447 30.2225 23.8059 31.9277 23.0148C33.596 22.2401 35.7134 22.34 37.4507 23.276C40.7497 25.0518 41.6975 28.8509 41.9699 30.9586L42.0002 31.196C42.1364 32.2338 42.3067 33.5246 42.0021 34.5212C41.9883 34.5642 41.9782 34.5927 41.9625 34.6073C41.946 34.6238 41.9165 34.6358 41.8788 34.6495C41.565 34.7641 41.2852 34.8494 40.9678 34.9282C40.0982 35.1455 39.1798 35.2298 38.3148 35.2995C37.0578 35.3985 33.8896 35.79 31.635 37.2687C30.0477 38.3111 28.5643 40.416 29.0622 42.5759C29.3529 43.8374 30.2455 44.9824 31.4482 45.6379C32.5129 46.2192 33.6301 46.2567 34.8558 46.298C37.0587 46.3686 39.2709 45.6526 41.2494 44.2215C42.3094 43.4533 43.2803 42.4833 44.1333 41.3373C44.8998 40.3078 45.4565 39.1985 45.8854 37.8435C45.9995 37.7849 46.3859 37.6409 46.7761 37.4979C46.8967 37.4539 46.9887 37.42 47.0209 37.4072C49.5671 36.3749 53.2636 34.6825 55.9616 31.912C56.3858 31.4775 56.7079 31.1612 57.33 30.6322C56.8717 31.9597 56.6251 33.069 56.4815 34.3882C56.3444 35.6589 56.5294 37.0194 56.6527 37.7161C57.0309 39.8696 58.2216 41.7187 60.0041 42.9224C61.9384 44.227 64.4201 44.6872 66.8136 44.1885C68.8233 43.7686 70.6481 42.8454 71.9483 41.5895C71.9741 41.5629 72.1186 41.4125 72.2741 41.2521C72.322 41.2017 72.3717 41.1503 72.4186 41.1027C72.4213 41.1109 72.4241 41.1192 72.4269 41.1283L72.4867 41.3016C73.3452 43.8392 76.0516 44.6451 78.3024 44.5433C81.3363 44.4113 83.5779 42.8207 86.01 40.4719C88.1863 38.3679 89.8335 35.8129 91.0831 33.5943C91.0031 34.1444 90.9543 34.6697 90.9616 35.184C91.0021 38.1846 92.3613 41.958 94.8827 43.3616C98.3518 45.295 101.924 43.6403 104.31 41.9112C107.728 39.4369 110.382 35.0905 112.265 31.4115C111.774 33.4375 111.269 36.3171 111.983 38.9895L112.022 39.1215C112.03 39.1573 112.038 39.193 112.048 39.2269C112.634 41.1604 114.575 43.5073 116.532 43.9181C121.013 44.8559 124.513 42.5181 127.897 40.2565L128.79 39.6532C128.847 39.6157 129.227 39.3168 129.482 39.1114C130.089 39.8833 132.031 41.561 132.053 41.5775C133.174 42.4329 134.347 43.0499 135.536 43.4111C139.171 44.5149 142.775 43.6779 145.961 40.9899C149.013 38.4128 151.604 34.5633 153.071 30.4259C153.599 28.9334 154.018 27.2411 154.359 25.2132C154.453 24.7291 154.499 24.576 154.846 24.565C155.123 24.5513 155.414 24.6558 155.699 24.753L155.833 24.797C156.908 25.1527 158.067 25.2196 159.183 24.9913C159.738 24.8776 160.226 24.6787 160.756 24.4614C161.18 24.2891 161.658 24.1222 161.973 24.3358C162.43 24.6457 162.367 25.2847 161.775 26.3436L161.43 26.9587C159.552 30.3068 157.609 33.7694 157.692 37.6941C157.733 39.5882 158.361 41.275 159.511 42.5722C160.862 44.095 162.959 44.1445 164.417 44.0464C166.667 43.897 168.54 42.5887 169.714 41.5161C172.405 39.0573 174.142 35.9055 175.819 32.8572C177.291 30.183 178.815 27.418 180.973 25.1472C181.481 24.6127 181.969 24.2075 182.484 23.8976C182.714 23.7583 183.256 23.4346 183.525 23.5135C183.564 23.5263 183.614 23.5502 183.655 23.6382C183.752 23.8417 183.708 24.1112 183.653 24.3487C183.553 24.7851 183.393 25.1921 183.224 25.623L183.12 25.887C182.159 28.3806 181.158 31.0338 180.396 33.6594C179.604 36.3914 178.908 39.5542 179.752 42.2935C179.897 42.7648 180.129 43.3469 180.644 43.6769C180.938 43.8649 181.256 43.9016 181.561 43.7842C182.774 43.3148 183.671 40.4811 184.386 37.7711C184.452 37.5245 184.502 37.3301 184.538 37.211C184.951 35.8404 185.298 34.4286 185.645 33.0232C185.829 32.2778 186.012 31.5316 186.208 30.7899C186.302 30.425 186.393 30.0528 186.484 29.676C186.842 28.1817 187.213 26.6369 188.009 25.3773C189.011 23.7931 190.993 22.9451 192.623 23.4081C194.354 23.9004 195.248 25.4039 195.277 27.8764C195.296 29.4367 195.225 31.0127 195.155 32.5446C195.021 35.4911 194.883 38.5375 195.384 41.507C195.71 43.4487 196.229 45.0063 196.969 46.2705C198.028 48.0738 199.411 48.9163 201.749 49.1785C202.157 49.2252 202.688 49.2527 203.167 49.052C203.773 48.798 204.065 48.2782 203.988 47.5888C203.942 47.1708 203.757 46.7115 203.481 46.3282Z" fill="white"/>
</g>
<defs>
<filter id="filter0_d_11623_49434" x="0" y="0" width="208" height="74.9062" filterUnits="userSpaceOnUse" color-interpolation-filters="sRGB">
<feFlood flood-opacity="0" result="BackgroundImageFix"/>
<feColorMatrix in="SourceAlpha" type="matrix" values="0 0 0 0 0 0 0 0 0 0 0 0 0 0 0 0 0 0 127 0" result="hardAlpha"/>
<feOffset dy="4"/>
<feGaussianBlur stdDeviation="2"/>
<feComposite in2="hardAlpha" operator="out"/>
<feColorMatrix type="matrix" values="0 0 0 0 0 0 0 0 0 0 0 0 0 0 0 0 0 0 0.25 0"/>
<feBlend mode="normal" in2="BackgroundImageFix" result="effect1_dropShadow_11623_49434"/>
<feBlend mode="normal" in="SourceGraphic" in2="effect1_dropShadow_11623_49434" result="shape"/>
</filter>
</defs>
</svg>
