<svg id="Group_22" data-name="Group 22" xmlns="http://www.w3.org/2000/svg" xmlns:xlink="http://www.w3.org/1999/xlink" width="165" height="20" viewBox="0 0 165 20">
  <defs>
    <clipPath id="clip-path">
      <path id="Clip_17" data-name="Clip 17" d="M4.39,4.183,0,3,3.277,6,0,9,4.39,7.82,5.5,12,6.611,7.82,11,9,7.725,6,11,3,6.611,4.183,5.5,0Z" fill="none"/>
    </clipPath>
  </defs>
  <g id="Group_15" data-name="Group 15" transform="translate(17)">
    <path id="Fill_1" data-name="Fill 1" d="M3.326.417A.47.47,0,0,1,3.827,0h.446a.509.509,0,0,1,.474.278l6.132,13.111h.084L17.1.278A.481.481,0,0,1,17.569,0h.446a.47.47,0,0,1,.5.417l3.289,18.667a.483.483,0,0,1-.5.639H18.768a.6.6,0,0,1-.53-.417L16.594,8.778H16.51L11.632,19.694a.474.474,0,0,1-.474.306h-.5a.5.5,0,0,1-.474-.306L5.249,8.778H5.165L3.549,19.305a.539.539,0,0,1-.5.417H.538a.509.509,0,0,1-.53-.639Z" fill="#012169"/>
    <path id="Fill_3" data-name="Fill 3" d="M0,.528A.547.547,0,0,1,.53,0H3.122a.547.547,0,0,1,.53.528V18.917a.547.547,0,0,1-.53.528H.53A.547.547,0,0,1,0,18.917Z" transform="translate(28.134 0.278)" fill="#012169"/>
    <path id="Fill_5" data-name="Fill 5" d="M13.8,19.444H10.871a.475.475,0,0,1-.446-.25L6.718,11.833H3.623v7.084a.549.549,0,0,1-.529.527H.529A.529.529,0,0,1,0,18.917V.527A.529.529,0,0,1,.529,0H8.5a6.032,6.032,0,0,1,6.077,5.972,6.125,6.125,0,0,1-4.126,5.611l3.819,7.056a.568.568,0,0,1,0,.558A.534.534,0,0,1,13.8,19.444ZM3.651,3.334V8.861H8.2a2.835,2.835,0,0,0,2.759-2.833A2.764,2.764,0,0,0,8.2,3.334Z" transform="translate(39.173 0.278)" fill="#012169"/>
    <path id="Fill_7" data-name="Fill 7" d="M18.063,19.723H15.638a.8.8,0,0,1-.808-.556l-1.366-3H5.129l-1.366,3a.847.847,0,0,1-.808.556H.53A.525.525,0,0,1,.072,19.5.508.508,0,0,1,.056,19L8.725.305A.5.5,0,0,1,9.2,0h.278a.472.472,0,0,1,.474.305L18.536,19a.509.509,0,0,1-.017.5A.524.524,0,0,1,18.063,19.723ZM9.227,6.972,6.5,13.083h5.6L9.311,6.972H9.227Z" transform="translate(57.849 0)" fill="#012169"/>
    <path id="Fill_9" data-name="Fill 9" d="M10.063,0a9.452,9.452,0,0,1,6.746,2.583.515.515,0,0,1,.028.778l-1.7,1.75a.447.447,0,0,1-.7,0,6.608,6.608,0,0,0-4.293-1.639A6.308,6.308,0,0,0,3.93,9.944a6.3,6.3,0,0,0,6.244,6.417,6.7,6.7,0,0,0,4.265-1.583.515.515,0,0,1,.7,0l1.728,1.778a.528.528,0,0,1-.028.75A9.585,9.585,0,0,1,10.063,20a10,10,0,1,1,0-20" transform="translate(79.902 0)" fill="#012169"/>
    <path id="Fill_11" data-name="Fill 11" d="M0,.528A.528.528,0,0,1,.53,0H3.094a.547.547,0,0,1,.53.528V16.111h7.108a.528.528,0,0,1,.529.528v2.278a.528.528,0,0,1-.529.528H.53A.528.528,0,0,1,0,18.917Z" transform="translate(102.871 0.278)" fill="#012169"/>
    <path id="Fill_13" data-name="Fill 13" d="M0,.528A.528.528,0,0,1,.53,0H11.874a.528.528,0,0,1,.53.528V2.806a.528.528,0,0,1-.53.528H3.624V7.889h6.885a.547.547,0,0,1,.53.528v2.306a.528.528,0,0,1-.53.528H3.624v4.861h8.251a.528.528,0,0,1,.53.528v2.278a.528.528,0,0,1-.53.528H.53A.528.528,0,0,1,0,18.917Z" transform="translate(119.596 0.278)" fill="#012169"/>
  </g>
  <g id="Group_18" data-name="Group 18" transform="translate(0 4)">
    <path id="Clip_17-2" data-name="Clip 17" d="M4.39,4.183,0,3,3.277,6,0,9,4.39,7.82,5.5,12,6.611,7.82,11,9,7.725,6,11,3,6.611,4.183,5.5,0Z" fill="none"/>
    <g id="Group_18-2" data-name="Group 18" clip-path="url(#clip-path)">
      <path id="Fill_16" data-name="Fill 16" d="M0,22.909H23.222V0H0Z" transform="translate(-6.111 -5.455)" fill="#012169"/>
    </g>
  </g>
  <g id="Group_21" data-name="Group 21" transform="translate(154 4)">
    <path id="Clip_20-2" data-name="Clip 20" d="M4.39,4.183,0,3,3.277,6,0,9,4.39,7.82,5.5,12,6.611,7.82,11,9,7.725,6,11,3,6.611,4.183,5.5,0Z" fill="none"/>
    <g id="Group_21-2" data-name="Group 21" clip-path="url(#clip-path)">
      <path id="Fill_19" data-name="Fill 19" d="M0,22.909H23.222V0H0Z" transform="translate(-6.111 -5.455)" fill="#012169"/>
    </g>
  </g>
</svg>
