<?xml version="1.0" encoding="UTF-8"?>
<svg width="34px" height="33px" viewBox="0 0 34 33" version="1.1" xmlns="http://www.w3.org/2000/svg" xmlns:xlink="http://www.w3.org/1999/xlink">
    <title>Gentle Scin</title>
    <g id="Update" stroke="none" stroke-width="1" fill="none" fill-rule="evenodd" stroke-linecap="round" stroke-linejoin="round">
        <g id="atc_d" transform="translate(-1233.000000, -287.000000)" stroke="#012169" stroke-width="0.87885">
            <g id="Group-9" transform="translate(1234.000000, 288.000000)">
                <path d="M18.527758,16.3427647 L12.6475685,16.0255588 C11.479818,15.9626622 10.5863296,17.1043311 10.869915,18.2969164 C11.0480947,19.0462302 11.6543719,19.5970521 12.3852195,19.673835 L15.5025876,20.0016598 L6.68657643,21.2173889 L2.15335297,18.5095669 C1.27359063,17.9837947 0.165923994,18.5498643 0.015973332,19.6022255 C-0.0596494542,20.1323541 0.136659011,20.6649333 0.532383728,21.0031047 L4.67014145,24.537568 C6.06942198,25.7328761 7.81237181,26.3942436 9.61514652,26.41412 L14.5036935,25.8785458 C18.6531054,25.4243832 22.8007044,26.7558311 26.0006878,29.5698422 L27.0840101,30.5222767 C28.0391363,31.3622597 29.4884004,31.057851 30.0635997,29.8968502 L31.7793564,26.4337241 C32.2261006,25.5322059 31.9764418,24.4223937 31.1932798,23.8263734 L24.0427828,18.3862241 C22.430619,17.1596039 20.515187,16.4500429 18.527758,16.3427647 Z" id="Stroke-1"></path>
                <path d="M29.1367803,5.97497842 C29.1367803,5.97497842 15.4477611,14.7707032 3.59647918,3.83050318" id="Stroke-3"></path>
                <path d="M24.5227803,8.24549194 C24.5227803,8.24549194 24.2637982,6.26166175 21.3732985,5.501729 C18.4827987,4.74206852 14.0024076,3.37467967 14.0024076,3.37467967 L16.3148592,6.71745804 C15.7945641,7.00471317 8.05876742,4.21221215 4.90488287,0.853369269 C3.13318602,-1.03325705 0.0935125861,0.431607951 0.359228266,3.0678204 C0.574183446,5.20412724 2.01619603,7.82781482 5.33712407,9.8440463 C6.36424725,10.4678392 7.46802915,10.9361603 8.6059967,11.2893072 C12.2907946,12.4323375 22.5348334,14.3924794 24.5227803,8.24549194 Z" id="Stroke-5"></path>
                <line x1="7.73599798" y1="10.8257509" x2="9.30672468" y2="9.69034439" id="Stroke-7"></line>
            </g>
        </g>
    </g>
</svg>