<svg xmlns="http://www.w3.org/2000/svg" width="71.951" height="29.243" viewBox="0 0 71.951 29.243">
  <path id="Fill_8" data-name="Fill 8" d="M1.024-8.263a22.064,22.064,0,0,0,2.1-2.228c5.258-7.32,12.82-11,21.242-12.989a22.182,22.182,0,0,1,9.16-.034A50.646,50.646,0,0,1,56.347-12.833,23.194,23.194,0,0,1,61.284-6.99c-.77-.29-1.551-.553-2.308-.875-2.227-.948-4.411-2.014-6.682-2.84a8.48,8.48,0,0,0-3.236-.3A1.545,1.545,0,0,0,47.974-10a1.476,1.476,0,0,0,.7,1.263C54.537-6.922,59.568-3.489,64.87-.585,66.729.433,67.9.151,68.689-1.66a34.258,34.258,0,0,0,2.776-14.479c0-.166-.264-.328-.659-.787-4.079,1.531-2.81,5.9-4.819,9.417a18.13,18.13,0,0,0-1.252-2.058C56.041-20.136,44.6-25.729,31.3-27.817a19.685,19.685,0,0,0-6.236.153A37.289,37.289,0,0,0,5.178-17.915,30.542,30.542,0,0,0,.763-11.8,10.115,10.115,0,0,0,0-8.815l1.024.552" transform="matrix(1, -0.017, 0.017, 1, 0.489, 29.243)" fill="#048770"/>
</svg>
