<?xml version="1.0" encoding="UTF-8"?>
<svg width="34px" height="33px" viewBox="0 0 34 33" version="1.1" xmlns="http://www.w3.org/2000/svg" xmlns:xlink="http://www.w3.org/1999/xlink">
    <title>Zero Plastic</title>
    <g id="Update" stroke="none" stroke-width="1" fill="none" fill-rule="evenodd" stroke-linecap="round" stroke-linejoin="round">
        <g id="atc_d" transform="translate(-937.000000, -287.000000)" stroke="#012169" stroke-width="0.826447453">
            <g id="Group-13" transform="translate(938.000000, 288.000000)">
                <path d="M8.7163417,29.012802 C3.4985053,29.4780613 -2.67683659,24.1135501 1.23450163,14.1456755 C6.87399636,17.4767179 10.1488925,23.4531573 8.7163417,29.012802 Z" id="Stroke-1"></path>
                <path d="M2.40140273,17.8153573 C2.40140273,17.8153573 4.08136266,30.6479946 15.2894166,31" id="Stroke-3"></path>
                <path d="M30.463926,16.3020657 C33.6006586,20.6302016 32.4449292,28.8747802 22.1768322,30.7072488 C21.9420283,24.0056273 25.1321479,17.9807233 30.463926,16.3020657 Z" id="Stroke-5"></path>
                <path d="M24.5810508,27.7476232 C24.5810508,27.7476232 34.2559591,19.5020243 28.6303054,9.491552" id="Stroke-7"></path>
                <path d="M8.80756919,4.75514084 C10.9736967,-0.166047651 18.5324042,-3.08896782 25.0312811,5.31732917 C19.4525882,8.75575869 12.7997294,8.77004297 8.80756919,4.75514084 Z" id="Stroke-9"></path>
                <path d="M21.360209,4.56694549 C21.360209,4.56694549 9.69984863,-0.215481452 3.90587766,9.69219508" id="Stroke-11"></path>
            </g>
        </g>
    </g>
</svg>