<?xml version="1.0" encoding="utf-8"?>
<svg width="45px" height="46px" viewBox="0 0 45 46" version="1.1" xmlns:xlink="http://www.w3.org/1999/xlink" xmlns="http://www.w3.org/2000/svg">
  <g id="002-calendar-copy-2">
    <path d="M32.8193 3.22807C32.4635 1.38888 30.9189 0 29.0714 0C28.6483 0 28.3063 0.360737 28.3063 0.807018C28.3063 1.2533 28.6483 1.61404 29.0714 1.61404C30.3367 1.61404 31.3665 2.70028 31.3665 4.03509C31.3665 5.36989 30.3367 6.45614 29.0714 6.45614C28.6483 6.45614 28.3063 6.81688 28.3063 7.26316C28.3063 7.70944 28.6483 8.07018 29.0714 8.07018C30.9182 8.07018 32.4635 6.6813 32.8193 4.84211L42.842 4.84211L42.842 12.1053L1.53007 12.1053L1.53007 4.84211L12.2406 4.84211L14.5357 4.84211C14.9588 4.84211 15.3007 4.48137 15.3007 4.03509C15.3007 3.58881 14.9588 3.22807 14.5357 3.22807L13.1464 3.22807C13.4631 2.29032 14.3046 1.61404 15.3007 1.61404C16.5661 1.61404 17.5958 2.70028 17.5958 4.03509C17.5958 5.36989 16.5661 6.45614 15.3007 6.45614C14.8777 6.45614 14.5357 6.81688 14.5357 7.26316C14.5357 7.70944 14.8777 8.07018 15.3007 8.07018C17.4099 8.07018 19.1259 6.26004 19.1259 4.03509C19.1259 1.81014 17.4099 0 15.3007 0C13.4539 0 11.9086 1.38888 11.5528 3.22807L0 3.22807L0 13.7193L0 46L44.3721 46L44.3721 13.7193L44.3721 3.22807L32.8193 3.22807ZM42.842 44.386L1.53007 44.386L1.53007 13.7193L42.842 13.7193L42.842 44.386Z" id="Shape" fill="#5CE0CF" stroke="none" />
    <path d="M0.697674 1.59231C1.85163 1.59231 2.7907 2.66393 2.7907 3.98077C2.7907 5.29761 1.85163 6.36923 0.697674 6.36923C0.31186 6.36923 0 6.72511 0 7.16538C0 7.60566 0.31186 7.96154 0.697674 7.96154C2.62116 7.96154 4.18605 6.17577 4.18605 3.98077C4.18605 1.78577 2.62116 0 0.697674 0C0.31186 0 0 0.355881 0 0.796154C0 1.23643 0.31186 1.59231 0.697674 1.59231Z" transform="translate(19.25586 0)" id="Shape" fill="#5CE0CF" stroke="none" />
    <path d="M0.697674 1.59231C1.85163 1.59231 2.7907 2.66393 2.7907 3.98077C2.7907 5.29761 1.85163 6.36923 0.697674 6.36923C0.31186 6.36923 0 6.72511 0 7.16538C0 7.60566 0.31186 7.96154 0.697674 7.96154C2.62116 7.96154 4.18605 6.17577 4.18605 3.98077C4.18605 1.78577 2.62116 0 0.697674 0C0.31186 0 0 0.355881 0 0.796154C0 1.23643 0.31186 1.59231 0.697674 1.59231Z" transform="translate(23.441895 0)" id="Shape" fill="#5CE0CF" stroke="none" />
    <g id="30" fill="#5CE0CF" transform="translate(8.37207 10.809082)">
      <path d="M0.888 22.9063Q0.624 23.2183 0.864 23.5063Q2.664 25.6423 5.856 25.6423Q8.328 25.6423 9.852 24.3223Q11.376 23.0023 11.376 20.9623Q11.376 19.5223 10.476 18.5143Q9.576 17.5063 8.472 17.0503L8.472 16.9783Q9.408 16.5463 10.176 15.5263Q10.944 14.5063 10.944 13.2343Q10.944 11.2663 9.468 10.0543Q7.992 8.84234 5.832 8.84234Q5.088 8.84234 4.332 9.07034Q3.576 9.29834 3.084 9.57434Q2.592 9.85034 2.136 10.2223Q1.68 10.5943 1.536 10.7263Q1.392 10.8583 1.32 10.9543Q1.14091 11.1334 1.15273 11.2989Q1.16309 11.4438 1.32 11.5783L2.496 12.6823Q2.68917 12.8498 2.86161 12.8306Q3.01054 12.8141 3.144 12.6583Q4.128 11.5063 5.568 11.5063Q6.504 11.5063 7.2 12.1303Q7.896 12.7543 7.896 13.7143Q7.896 14.6743 7.116 15.2983Q6.336 15.9223 4.92 15.9223L3.576 15.9223Q3.12 15.9223 3.12 16.4023L3.12 17.9143Q3.12 18.1666 3.24598 18.2863Q3.35968 18.3943 3.576 18.3943L4.92 18.3943Q6.48 18.3943 7.356 19.0903Q8.232 19.7863 8.232 20.7703Q8.232 21.7303 7.464 22.3783Q6.696 23.0263 5.688 23.0263Q5.04 23.0263 4.308 22.7143Q3.576 22.4023 3.192 22.1143Q2.808 21.8263 2.736 21.7303Q2.448 21.4423 2.112 21.7303L0.888 22.9063ZM20.04 25.6423Q22.92 25.6423 24.504 23.4223Q26.088 21.2023 26.088 17.2423Q26.088 13.2823 24.504 11.0623Q22.92 8.84234 20.04 8.84234Q17.16 8.84234 15.576 11.0623Q13.992 13.2823 13.992 17.2423Q13.992 21.2023 15.576 23.4223Q17.16 25.6423 20.04 25.6423ZM20.04 22.8103Q18.648 22.8103 17.892 21.3703Q17.136 19.9303 17.136 17.2423Q17.136 14.5783 17.892 13.1263Q18.648 11.6743 20.04 11.6743Q21.432 11.6743 22.188 13.1263Q22.944 14.5783 22.944 17.2423Q22.944 19.9303 22.188 21.3703Q21.432 22.8103 20.04 22.8103Z" />
    </g>
  </g>
</svg>