<?xml version="1.0" encoding="UTF-8"?><svg version="1.1" width="32px" height="22px" viewBox="0 0 32.0 22.0" xmlns="http://www.w3.org/2000/svg" xmlns:xlink="http://www.w3.org/1999/xlink"><defs><clipPath id="i0"><path d="M1440,0 L1440,1331 L0,1331 L0,0 L1440,0 Z"></path></clipPath><clipPath id="i1"><path d="M3.7680839,0.491939851 C6.26271934,-0.566436986 9.15641944,0.12100828 10.9072799,2.18797135 L19.4807911,2.18797135 C20.7814809,2.18945107 21.8355289,3.24257758 21.8370099,4.54213019 L21.8370099,6.72050768 L27.6834948,6.72050768 C27.8824009,6.720517 28.073157,6.79947062 28.2138002,6.94000021 L31.7803154,10.5035223 C31.9209833,10.6440579 32,10.8346727 32,11.0334266 L32,18.8027128 C32,19.2165587 31.664218,19.5520472 31.25001,19.5520472 L29.1829749,19.5520472 C28.8849618,20.9781895 27.6266831,22 26.1685149,22 C24.7103467,22 23.452068,20.9781895 23.1540549,19.5520472 L14.9051019,19.5520472 C14.6070888,20.9781895 13.3488101,22 11.8906419,22 C10.4324736,22 9.17419496,20.9781895 8.87618188,19.5520472 L7.31282763,19.5520472 C6.01215216,19.5505331 4.95812428,18.4974267 4.9566089,17.1978883 L4.9566089,12.2373572 C2.30042777,11.6992833 0.304177732,9.49624053 0.0315579839,6.80211738 C-0.241061764,4.10799423 1.27344847,1.55031669 3.7680839,0.491939851 Z M12.4950731,17.4658058 C11.9049323,17.2215752 11.2256508,17.3565746 10.7739766,17.8078539 C10.3223024,18.2591333 10.1871849,18.9378209 10.4316292,19.5274458 C10.6760736,20.1170706 11.2519406,20.5015163 11.8907044,20.5015163 C12.7624043,20.5005185 13.4689282,19.794668 13.4699959,18.9236054 C13.4699959,18.2854 13.0852139,17.7100365 12.4950731,17.4658058 Z M26.1686399,17.3456945 C25.2964213,17.3456945 24.5893483,18.0521493 24.5893483,18.9236054 C24.5893483,19.7950615 25.2964213,20.5015163 26.1686399,20.5015163 C27.0405302,20.5003465 27.7468641,19.7945463 27.7479314,18.9236054 C27.7479314,18.0521493 27.0408585,17.3456945 26.1686399,17.3456945 Z M19.4807286,3.68664011 L11.8480799,3.68664011 C12.6723229,5.55438857 12.5202947,7.70830891 11.4418549,9.44199677 C10.3634151,11.1756846 8.4976983,12.2654687 6.45658899,12.3539411 L6.45658899,17.1978883 C6.45710554,17.6701687 6.84013405,18.0529183 7.31282763,18.0535033 L8.93780606,18.0535033 C9.32368901,16.7452143 10.5257829,15.8470455 11.8908919,15.8470455 C13.2560008,15.8470455 14.4580947,16.7452143 14.8439777,18.0535033 L20.3369673,18.0535033 L20.3369673,4.54213019 C20.3364506,4.06987006 19.953402,3.68715634 19.4807286,3.68664011 Z M23.7545469,8.21936378 L21.8370099,8.21936378 L21.8370099,18.0536906 L23.2154916,18.0536906 C23.6013745,16.7454016 24.8034685,15.8472328 26.1685774,15.8472328 C27.5336863,15.8472328 28.7357802,16.7454016 29.1216632,18.0536906 L30.5000199,18.0535033 L30.5000199,13.4234286 L24.504537,13.4234286 C24.0903289,13.4234286 23.7545469,13.0879402 23.7545469,12.6740942 L23.7545469,8.21936378 Z M27.3728114,8.21936378 L25.254527,8.21936378 L25.254527,11.9245101 L30.5000199,11.9245101 L30.5000199,11.3437759 L27.3728114,8.21936378 Z M9.50122838,2.8675553 C8.16077044,1.5283228 6.14485794,1.12773579 4.39352204,1.85259019 C2.64218613,2.5774446 1.50040477,4.28499006 1.50040477,6.1789887 C1.50343569,8.7638953 3.60004907,10.8585919 6.18721757,10.8615168 C8.08287346,10.8615168 9.79186734,9.72058955 10.5172859,7.97075571 C11.2427045,6.22092188 10.8416863,4.20678779 9.50122838,2.8675553 Z M5.57778816,2.57893656 C5.99199622,2.57893656 6.3277782,2.91442499 6.3277782,3.32827094 L6.3277782,6.30381532 L8.17450369,6.30381532 C8.44244934,6.30381531 8.69004133,6.44663764 8.82401415,6.6784825 C8.95798698,6.91032737 8.95798698,7.19597203 8.82401415,7.4278169 C8.69004133,7.65966177 8.44244934,7.80248408 8.17450369,7.80248408 L5.57778816,7.80242164 C5.16499563,7.79902697 4.83119575,7.46551891 4.82779811,7.05308726 L4.82779811,3.32827094 C4.82779811,2.91442499 5.16358009,2.57893656 5.57778816,2.57893656 Z"></path></clipPath></defs><g transform="translate(-744.0 -637.0)"><g clip-path="url(#i0)"><g transform="translate(744.0 637.0)"><g clip-path="url(#i1)"><polygon points="-8.8817842e-16,0 32,0 32,22 -8.8817842e-16,22 -8.8817842e-16,0" stroke="none" fill="#DA522B"></polygon></g></g></g></g></svg>