<?xml version="1.0" encoding="utf-8"?>
<!-- Generator: Adobe Illustrator 16.0.0, SVG Export Plug-In . SVG Version: 6.00 Build 0)  -->
<!DOCTYPE svg PUBLIC "-//W3C//DTD SVG 1.1//EN" "http://www.w3.org/Graphics/SVG/1.1/DTD/svg11.dtd">
<svg version="1.1" id="Layer_1" xmlns="http://www.w3.org/2000/svg" xmlns:xlink="http://www.w3.org/1999/xlink" x="0px" y="0px"
	 width="181.693px" height="38.307px" viewBox="0 0 181.693 38.307" enable-background="new 0 0 181.693 38.307"
	 xml:space="preserve">
<g id="footer_logo" transform="translate(0 -0.215)">
	<g id="Group_4">
		<g id="Group_15" transform="translate(19.193)">
			<path id="Fill_1" fill="#FFFFFF" d="M3.823,0.672c0.031-0.276,0.275-0.479,0.553-0.457h0.49c0.218-0.01,0.422,0.107,0.523,0.3
				l6.756,14.366h0.092l6.756-14.366c0.096-0.198,0.304-0.317,0.523-0.3h0.49c0.276-0.021,0.521,0.181,0.553,0.457l3.625,20.453
				c0.095,0.277-0.054,0.579-0.331,0.674c-0.071,0.024-0.147,0.033-0.222,0.025h-2.795c-0.269-0.02-0.499-0.201-0.583-0.458
				L18.441,9.834h-0.092l-5.375,11.961c-0.082,0.214-0.293,0.351-0.522,0.336h-0.553c-0.227,0.004-0.433-0.129-0.522-0.336
				L5.942,9.834H5.85L4.067,21.368c-0.06,0.26-0.285,0.447-0.551,0.458H0.752c-0.308,0.023-0.576-0.208-0.6-0.517
				c-0.004-0.062,0.002-0.123,0.017-0.183L3.823,0.672z"/>
			<path id="Fill_3" fill="#FFFFFF" d="M31.152,1.098c0.012-0.316,0.267-0.569,0.583-0.578h2.856
				c0.316,0.008,0.573,0.261,0.585,0.578v20.149c-0.011,0.317-0.268,0.571-0.585,0.579h-2.856c-0.317-0.009-0.572-0.263-0.583-0.579
				V1.098z"/>
			<path id="Fill_5" fill="#FFFFFF" d="M58.513,21.827h-3.223c-0.202,0.012-0.394-0.096-0.49-0.273l-4.088-8.067h-3.407v7.761
				c-0.014,0.315-0.268,0.568-0.584,0.579h-2.825c-0.321,0-0.581-0.259-0.583-0.579V1.099c0.002-0.32,0.263-0.579,0.583-0.579h8.784
				c3.655-0.04,6.653,2.888,6.7,6.544c-0.087,2.796-1.898,5.245-4.546,6.147l4.207,7.73c0.107,0.19,0.107,0.422,0,0.612
				C58.928,21.734,58.726,21.838,58.513,21.827z M47.337,4.172v6.056h5.007c1.685-0.04,3.032-1.414,3.04-3.1
				c-0.044-1.647-1.394-2.959-3.04-2.956H47.337z"/>
			<path id="Fill_7" fill="#FFFFFF" d="M83.787,21.826h-2.669c-0.401,0.025-0.77-0.227-0.891-0.61l-1.5-3.287h-9.188l-1.507,3.287
				c-0.137,0.371-0.493,0.615-0.889,0.607H64.47c-0.199,0.009-0.388-0.086-0.5-0.25c-0.1-0.165-0.106-0.37-0.019-0.542L73.5,0.55
				c0.089-0.209,0.296-0.342,0.522-0.335h0.307c0.229-0.016,0.441,0.12,0.523,0.335l9.459,20.483
				c0.088,0.173,0.081,0.378-0.02,0.543C84.178,21.743,83.987,21.836,83.787,21.826z M74.053,7.855l-3.01,6.7h6.173l-3.07-6.7
				H74.053L74.053,7.855z"/>
			<path id="Fill_9" fill="#FFFFFF" d="M99.27,0.215c2.754-0.074,5.426,0.943,7.433,2.83c0.243,0.195,0.281,0.55,0.086,0.793
				c-0.017,0.021-0.035,0.04-0.055,0.059l-1.875,1.918c-0.178,0.212-0.493,0.239-0.704,0.062c-0.022-0.019-0.043-0.039-0.062-0.062
				c-1.312-1.145-2.989-1.783-4.73-1.8c-3.826,0.043-6.894,3.18-6.851,7.007c0,0.031,0.001,0.062,0.002,0.093
				c-0.062,3.822,2.987,6.971,6.809,7.031c0.023,0.001,0.047,0.001,0.07,0.001c1.721-0.016,3.382-0.629,4.7-1.736
				c0.217-0.197,0.549-0.197,0.766,0l1.9,1.949c0.219,0.23,0.21,0.594-0.02,0.813c-0.003,0.003-0.007,0.006-0.01,0.009
				c-2.005,1.925-4.686,2.985-7.464,2.952c-6.053-0.001-10.959-4.909-10.958-10.962S93.217,0.214,99.27,0.215"/>
			<path id="Fill_11" fill="#FFFFFF" d="M113.487,1.098c0.001-0.32,0.262-0.579,0.582-0.578h0.001h2.826
				c0.316,0.009,0.571,0.262,0.583,0.578v17.075h7.832c0.32-0.001,0.582,0.258,0.583,0.579c0,0,0,0,0,0.001v2.494
				c-0.001,0.32-0.262,0.58-0.582,0.579h-0.001H114.07c-0.321,0.002-0.582-0.258-0.583-0.578c0-0.001,0-0.001,0-0.001V1.098z"/>
			<path id="Fill_13" fill="#FFFFFF" d="M131.912,1.098c0.001-0.32,0.262-0.579,0.582-0.578c0.001,0,0.001,0,0.001,0h12.5
				c0.32-0.002,0.582,0.257,0.583,0.577v0.001v2.5c-0.001,0.32-0.262,0.579-0.582,0.578c0,0,0,0-0.001,0h-9.091v4.987h7.586
				c0.316,0.008,0.571,0.262,0.583,0.577v2.526c-0.001,0.32-0.262,0.579-0.582,0.578c0,0,0,0-0.001,0h-7.586v5.327h9.091
				c0.321-0.001,0.582,0.258,0.583,0.579c0,0,0,0,0,0.001v2.494c0,0.32-0.261,0.58-0.582,0.579c0,0,0,0-0.001,0h-12.5
				c-0.32,0.002-0.582-0.258-0.583-0.578l0,0V1.098z"/>
		</g>
		<g id="Group_18" transform="translate(0 4.054)">
			<g id="Clip_20-2" transform="translate(0 0.017)">
				<path id="Mask-2" fill="#FFFFFF" d="M4.595,4.863L0,3.489l3.432,3.486L0,10.467l4.595-1.375l1.164,4.858l1.162-4.858
					l4.595,1.375L8.088,6.975l3.428-3.486L6.921,4.863L5.759,0L4.595,4.863z"/>
				<path id="Clip_20-4" fill="#FFFFFF" d="M174.778,4.863l-4.6-1.374l3.43,3.486l-3.43,3.491l4.6-1.375l1.163,4.858l1.159-4.858
					l4.594,1.375l-3.429-3.491l3.429-3.486L177.1,4.863L175.937,0L174.778,4.863z"/>
			</g>
		</g>
	</g>
	<path id="Fill_22" fill="#FFFFFF" d="M76.778,38.521h-2.047v-4.523l-2.399,4.524h-0.977l-2.417-4.551v4.55h-2.047V30.03h2.073
		l2.878,5.388l2.877-5.388h2.059V38.521z"/>
	<path id="Fill_25" fill="#FFFFFF" d="M82.987,38.522h-2.263l3.58-8.492h2.161l3.582,8.49h-2.251l-0.601-1.547h-3.606l-0.601,1.547
		L82.987,38.522z M85.387,32.387l-1.083,2.787h2.188L85.387,32.387z"/>
	<path id="Fill_28" fill="#FFFFFF" d="M97.38,38.521h-3.389v-8.492h3.389c2.811,0,4.694,1.706,4.694,4.245
		S100.191,38.521,97.38,38.521z M96.102,31.841v4.867h1.2c1.31,0.146,2.489-0.798,2.635-2.108c0.013-0.108,0.018-0.217,0.015-0.326
		c0.033-1.317-1.007-2.412-2.324-2.446c-0.108-0.003-0.216,0.002-0.323,0.014H96.102z"/>
	<path id="Fill_31" fill="#FFFFFF" d="M113.144,38.521h-6.677V30.03h6.638v1.801h-4.526v1.6h4.155v1.7h-4.155v1.6h4.565V38.521z"/>
</g>
</svg>
