<?xml version="1.0" encoding="UTF-8"?>
<svg width="33px" height="24px" viewBox="0 0 33 24" version="1.1" xmlns="http://www.w3.org/2000/svg" xmlns:xlink="http://www.w3.org/1999/xlink">
    <title>fast-shipping</title>
    <g id="Page-1" stroke="none" stroke-width="1" fill="none" fill-rule="evenodd">
        <g id="8" transform="translate(-848.000000, -1139.000000)" fill="#000000" fill-rule="nonzero">
            <g id="fast-shipping" transform="translate(848.000000, 1139.000000)">
                <path d="M7.7000365,17.3023378 C5.88007006,17.3023378 4.40003006,18.8042754 4.40003006,20.6511689 C4.40003006,22.4980623 5.88007006,24 7.7000365,24 C9.52000294,24 11.0000429,22.4980623 11.0000429,20.6511689 C11.0000429,18.8042754 9.51993849,17.3023378 7.7000365,17.3023378 Z M7.7000365,22.8837012 C6.48670406,22.8837012 5.50005369,21.8823876 5.50005369,20.6511689 C5.50005369,19.4198848 6.48676851,18.4186366 7.7000365,18.4186366 C8.91330449,18.4186366 9.90001931,19.4199502 9.90001931,20.6511689 C9.90001931,21.8823876 8.91330449,22.8837012 7.7000365,22.8837012 Z" id="Shape"></path>
                <path d="M26.4000515,17.3023378 C24.580085,17.3023378 23.100045,18.8042754 23.100045,20.6511689 C23.100045,22.4980623 24.580085,24 26.4000515,24 C28.2200179,24 29.7000579,22.4980623 29.7000579,20.6511689 C29.7000579,18.8042754 28.2200179,17.3023378 26.4000515,17.3023378 Z M26.4000515,22.8837012 C25.186719,22.8837012 24.2000687,21.8823876 24.2000687,20.6511689 C24.2000687,19.4198848 25.1867835,18.4186366 26.4000515,18.4186366 C27.6133839,18.4186366 28.6000343,19.4199502 28.6000343,20.6511689 C28.6000343,21.8823876 27.6133839,22.8837012 26.4000515,22.8837012 Z" id="Shape"></path>
                <path d="M32.9126013,14.2097053 L27.9625916,6.39574419 C27.8614,6.23608605 27.687054,6.13954553 27.5000107,6.13954553 L21.4500418,6.13954553 C21.1458869,6.13954553 20.9000622,6.38959595 20.9000622,6.69766225 L20.9000622,20.6511035 C20.9000622,20.9597584 21.1458869,21.2092856 21.4500418,21.2092856 L23.6500246,21.2092856 L23.6500246,20.0929213 L22.0000214,20.0929213 L22.0000214,7.25584438 L27.199723,7.25584438 L31.9000407,14.6757292 L31.9000407,20.0930522 L29.1500139,20.0930522 L29.1500139,21.2092856 L32.4500203,21.2092856 C32.7541752,21.2092856 33,20.9598238 33,20.6511689 L33,14.5116233 C33,14.4050102 32.9698358,14.2995089 32.9126013,14.2097053 Z" id="Path"></path>
                <path d="M24.2000687,13.3953245 L24.2000687,9.48837666 L28.6000987,9.48837666 L28.6000987,8.37207781 L23.6500891,8.37207781 C23.3459342,8.37207781 23.1001095,8.62212823 23.1001095,8.93019453 L23.1001095,13.9534412 C23.1001095,14.2620962 23.3459342,14.5115579 23.6500891,14.5115579 L31.9001052,14.5115579 L31.9001052,13.3952591 L24.2000687,13.3952591 L24.2000687,13.3953245 Z" id="Path"></path>
                <path d="M21.4500418,2.23259769 L0.549979588,2.23259769 C0.246404777,2.23259769 0,2.48264811 0,2.79071441 L0,20.6511689 C0,20.9598238 0.246404777,21.2092856 0.549979588,21.2092856 L4.95000965,21.2092856 L4.95000965,20.0929867 L1.10002363,20.0929867 L1.10002363,3.34883112 L20.9000622,3.34883112 L20.9000622,20.0929867 L10.4499989,20.0929867 L10.4499989,21.2092856 L21.4500418,21.2092856 C21.7541967,21.2092856 22.0000214,20.9598238 22.0000214,20.6511689 L22.0000214,2.79071441 C22.0000214,2.48264811 21.7541967,2.23259769 21.4500418,2.23259769 Z" id="Path"></path>
                <rect id="Rectangle" x="0.549979588" y="17.8604545" width="3.30000644" height="1.11629884"></rect>
                <rect id="Rectangle" x="11.5500225" y="17.8604545" width="9.35003972" height="1.11629884"></rect>
                <rect id="Rectangle" x="30.2500375" y="17.8604545" width="2.19998281" height="1.11629884"></rect>
                <rect id="Rectangle" x="2.19998281" y="4.46512997" width="19.250059" height="1.11629884"></rect>
                <rect id="Rectangle" x="7.14999246" y="20.0929867" width="1.10002363" height="1.11629884"></rect>
                <rect id="Rectangle" x="25.8500719" y="20.0929867" width="1.10002363" height="1.11629884"></rect>
                <rect id="Rectangle" x="2.19998281" y="0" width="7.7000365" height="1.11629884"></rect>
                <rect id="Rectangle" x="0" y="0" width="1.10002363" height="1.11629884"></rect>
            </g>
        </g>
    </g>
</svg>