<?xml version="1.0" encoding="utf-8"?>
<!-- Generator: Adobe Illustrator 23.1.0, SVG Export Plug-In . SVG Version: 6.00 Build 0)  -->
<svg version="1.1" id="Шар_1" xmlns="http://www.w3.org/2000/svg" xmlns:xlink="http://www.w3.org/1999/xlink" x="0px" y="0px"
	 viewBox="0 0 512 512" style="enable-background:new 0 0 512 512;" xml:space="preserve">
<style type="text/css">
	.st0{fill:none;stroke:#00237E;stroke-width:21;stroke-linecap:round;stroke-linejoin:round;stroke-miterlimit:10;}
</style>
<g>
	<path class="st0" d="M464.8,255.6c0,115.4-93.5,208.8-208.8,208.8c-115.3,0-208.8-93.5-208.8-208.8c0-109,83.5-198.5,190.1-208
		c-46.4,27.6-77.5,78.3-77.5,136.2c0,87.5,70.9,158.4,158.4,158.4c65.9,0,122.4-40.2,146.3-97.5
		C464.7,248.3,464.8,251.9,464.8,255.6z"/>
	<path class="st0" d="M407.6,136.2c-22.8,1.4-40.8,20.4-40.8,43.5c0-23.1-18-42.1-40.8-43.5c22.8-1.5,40.8-20.4,40.8-43.5
		C366.8,115.8,384.8,134.7,407.6,136.2z"/>
	<path class="st0" d="M326,215.4c-34.9,2.2-62.5,31.2-62.5,66.6c0-35.4-27.6-64.4-62.5-66.6c34.9-2.2,62.5-31.2,62.5-66.6
		C263.5,184.3,291.1,213.2,326,215.4z"/>
	<circle class="st0" cx="294.3" cy="96.5" r="3.9"/>
	<g>
		<circle class="st0" cx="384.1" cy="278.1" r="3.9"/>
	</g>
</g>
</svg>
