<svg xmlns="http://www.w3.org/2000/svg" width="36.8" height="29.05" viewBox="0 0 36.8 29.05">
  <g id="Group_1" data-name="Group 1" transform="translate(-840 -4874.75)">
    <path id="Combined_Shape" data-name="Combined Shape" d="M30.781,22.841a3.055,3.055,0,0,1-2.929-2.762H15.773a3.056,3.056,0,0,1-2.93,2.762,3.055,3.055,0,0,1-2.929-2.762H6.06V14.555H2.048V13.108H6.06V10.171H1.085V8.724H6.06V5.786H0V4.34H6.06V0h4.124a7.537,7.537,0,0,0-.064.982c0,.169.006.34.017.508H7.342V18.675H9.991A3.007,3.007,0,0,1,12.8,16.439a3.031,3.031,0,0,1,2.809,2.236H25.32V1.489H22.963c.011-.164.017-.334.017-.508A7.542,7.542,0,0,0,22.916,0h3.769V3.462h4.333c3.429,0,5.7,2.789,5.782,7.1v9.513H33.71A3.056,3.056,0,0,1,30.781,22.841ZM30.7,17.93A1.76,1.76,0,1,0,32.3,19.683,1.686,1.686,0,0,0,30.7,17.93Zm-17.9,0a1.761,1.761,0,0,0,0,3.507,1.76,1.76,0,0,0,0-3.507Zm17.9-1.491a3.033,3.033,0,0,1,2.809,2.236h1.807l0-8.066c0-3.516-1.661-5.7-4.334-5.7H26.643V18.675h1.245A2.968,2.968,0,0,1,30.7,16.439Z" transform="translate(840 4880.958)" fill="#00237e"/>
    <path id="Exclusion_2" data-name="Exclusion 2" d="M726.43,3167.881a6.961,6.961,0,1,1,6.43-6.941A6.708,6.708,0,0,1,726.43,3167.881Zm-.4-11.279v4.518l2.528,2.73.569-.614-2.293-2.476V3156.6Z" transform="translate(130.12 1721)" fill="#00237e" stroke="#00237e" stroke-miterlimit="10" stroke-width="0.5"/>
  </g>
</svg>
