<?xml version="1.0" encoding="UTF-8"?>
<svg width="129px" height="28px" viewBox="0 0 129 28" version="1.1" xmlns="http://www.w3.org/2000/svg" xmlns:xlink="http://www.w3.org/1999/xlink">
    <title>logo white</title>
    <defs>
        <polygon id="path-1" points="3.2446707 3.55474221 0 2.5499598 2.42333802 5.09806575 0 7.64987939 3.2446707 6.64509698 4.06690694 10.1970584 4.88733607 6.64509698 8.13200678 7.64987939 5.71137943 5.09806575 8.13200678 2.5499598 4.88733607 3.55474221 4.06690694 0"></polygon>
        <polygon id="path-3" points="123.418563 3.55474221 120.172989 2.5499598 122.595424 5.09806575 120.172989 7.64987939 123.418563 6.64509698 124.239896 10.1970584 125.061229 6.64509698 128.304996 7.64987939 125.883465 5.09806575 128.304996 2.5499598 125.061229 3.55474221 124.239896 0"></polygon>
    </defs>
    <g id="landing-page-update" stroke="none" stroke-width="1" fill="none" fill-rule="evenodd">
        <g id="01_desktop" transform="translate(-657.000000, -4995.000000)">
            <g id="logo-white" transform="translate(657.000000, 4995.000000)">
                <g id="Group-4">
                    <g id="Group-15" transform="translate(13.665338, 0.000000)" fill="#FFFFFF">
                        <path d="M2.58720084,0.333876961 C2.60798264,0.15590812 2.7389983,0.00018538421 2.97753717,0.00018538421 L3.32359924,0.00018538421 C3.4979856,0.00018538421 3.62719416,0.0891698046 3.69315377,0.222646435 L8.46393107,10.723735 L8.52898713,10.723735 L13.2997644,0.222646435 C13.365724,0.0891698046 13.4741508,0.00018538421 13.669319,0.00018538421 L14.015381,0.00018538421 C14.2548235,0.00018538421 14.3849356,0.15590812 14.4066209,0.333876961 L16.9654924,15.2841865 C17.0305484,15.595632 16.8570656,15.7967739 16.5751561,15.7967739 L14.6017891,15.7967739 C14.4066209,15.7967739 14.2331381,15.6178781 14.1897674,15.4621554 L12.9103317,7.03088152 L12.8452756,7.03088152 L9.04943556,15.7736008 C9.00606486,15.9070775 8.87595275,16.0192349 8.68078459,16.0192349 L8.29044826,16.0192349 C8.09618366,16.0192349 7.9877569,15.9070775 7.92179729,15.7736008 L4.08349009,7.03088152 L4.01843404,7.03088152 L2.7597801,15.4621554 C2.7389983,15.6178781 2.56551549,15.7967739 2.37034733,15.7967739 L0.418665704,15.7967739 C0.135852579,15.7967739 -0.036726676,15.595632 0.00664402684,15.2841865 L2.58720084,0.333876961 Z" id="Fill-1"></path>
                        <path d="M21.8866215,0.645693201 C21.8866215,0.42323215 22.0817896,0.223017204 22.2986431,0.223017204 L24.3153808,0.223017204 C24.5322343,0.223017204 24.7283061,0.42323215 24.7283061,0.645693201 L24.7283061,15.3735417 C24.7283061,15.5960028 24.5322343,15.7971446 24.3153808,15.7971446 L22.2986431,15.7971446 C22.0817896,15.7971446 21.8866215,15.5960028 21.8866215,15.3735417 L21.8866215,0.645693201 Z" id="Fill-3"></path>
                        <path d="M36.8500561,7.31971012 C37.9993797,7.31971012 38.9969059,6.29638928 38.9969059,5.0506074 C38.9969059,3.87156383 37.9993797,2.8927352 36.8500561,2.8927352 L33.3153438,2.8927352 L33.3153438,7.31971012 L36.8500561,7.31971012 Z M30.4736592,0.645878585 C30.4736592,0.423417534 30.6480456,0.223202588 30.8856809,0.223202588 L37.0885949,0.223202588 C39.6917407,0.223202588 41.8160015,2.35882868 41.8160015,5.00611519 C41.8160015,7.05275685 40.4931951,8.72121474 38.6065695,9.49982842 L41.5774627,15.1503391 C41.7292601,15.4404654 41.5774627,15.79733 41.2088117,15.79733 L38.9318498,15.79733 C38.7366816,15.79733 38.6282549,15.6842456 38.5848842,15.5961881 L35.7007324,9.70097028 L33.2927549,9.70097028 L33.2927549,15.3728002 C33.2927549,15.5961881 33.0984903,15.79733 32.8807332,15.79733 L30.8856809,15.79733 C30.6480456,15.79733 30.4736592,15.5961881 30.4736592,15.3728002 L30.4736592,0.645878585 Z" id="Fill-5"></path>
                        <path d="M54.4146486,10.4797693 L52.247017,5.5846993 L52.1810574,5.5846993 L50.0558929,10.4797693 L54.4146486,10.4797693 Z M45.0456732,15.2172628 L51.790721,0.244707156 C51.8557771,0.111230526 51.9642039,0 52.159372,0 L52.3762255,0 C52.5930791,0 52.6798205,0.111230526 52.7448765,0.244707156 L59.4248683,15.2172628 C59.5540769,15.5073891 59.3814976,15.7965885 59.0562173,15.7965885 L57.1695918,15.7965885 C56.8434079,15.7965885 56.692514,15.6631118 56.5407166,15.3516664 L55.4781343,12.949087 L48.9933107,12.949087 L47.9298249,15.3516664 C47.8439871,15.5741274 47.6488189,15.7965885 47.3018533,15.7965885 L45.4143242,15.7965885 C45.0899475,15.7965885 44.9155611,15.5073891 45.0456732,15.2172628 L45.0456732,15.2172628 Z" id="Fill-7"></path>
                        <path d="M69.9887065,0.000278076313 C72.1798306,0.000278076313 73.7628612,0.71215344 75.2374651,2.06916585 C75.4317297,2.24713469 75.4317297,2.51408795 75.2591505,2.69205679 L73.9354405,4.09448834 C73.783643,4.27153026 73.5676931,4.27153026 73.3942103,4.09448834 C72.4834255,3.27045553 71.2681423,2.78104121 70.0537626,2.78104121 C67.2780376,2.78104121 65.2179292,5.16137446 65.2179292,7.96531062 C65.2179292,10.7460738 67.2988194,13.1050878 70.0754479,13.1050878 C71.376569,13.1050878 72.4834255,12.5925005 73.3942103,11.8361329 C73.5676931,11.6804102 73.8062319,11.7035832 73.9354405,11.8361329 L75.2799323,13.2608106 C75.4543186,13.4165333 75.4109479,13.7057327 75.2591505,13.8614554 C73.783643,15.3296983 71.9196064,16.0193276 69.9887065,16.0193276 C65.6516362,16.0193276 62.1593911,12.4821969 62.1593911,8.03204894 C62.1593911,3.581901 65.6516362,0.000278076313 69.9887065,0.000278076313" id="Fill-9"></path>
                        <path d="M80.0283917,0.645693201 C80.0283917,0.42323215 80.2018745,0.223017204 80.4404134,0.223017204 L82.4354657,0.223017204 C82.6523193,0.223017204 82.8474874,0.42323215 82.8474874,0.645693201 L82.8474874,13.1266851 L88.3781556,13.1266851 C88.6166944,13.1266851 88.7901773,13.327827 88.7901773,13.550288 L88.7901773,15.3735417 C88.7901773,15.5960028 88.6166944,15.7971446 88.3781556,15.7971446 L80.4404134,15.7971446 C80.2018745,15.7971446 80.0283917,15.5960028 80.0283917,15.3735417 L80.0283917,0.645693201 Z" id="Fill-11"></path>
                        <path d="M93.0390604,0.645693201 C93.0390604,0.42323215 93.2125433,0.223017204 93.4510821,0.223017204 L102.277924,0.223017204 C102.516463,0.223017204 102.689945,0.42323215 102.689945,0.645693201 L102.689945,2.46987382 C102.689945,2.69233487 102.516463,2.89254982 102.277924,2.89254982 L95.8581561,2.89254982 L95.8581561,6.54091105 L101.215341,6.54091105 C101.432195,6.54091105 101.627363,6.741126 101.627363,6.96358705 L101.627363,8.81001377 C101.627363,9.05564785 101.432195,9.23268977 101.215341,9.23268977 L95.8581561,9.23268977 L95.8581561,13.1266851 L102.277924,13.1266851 C102.516463,13.1266851 102.689945,13.327827 102.689945,13.550288 L102.689945,15.3735417 C102.689945,15.5960028 102.516463,15.7971446 102.277924,15.7971446 L93.4510821,15.7971446 C93.2125433,15.7971446 93.0390604,15.5960028 93.0390604,15.3735417 L93.0390604,0.645693201 Z" id="Fill-13"></path>
                    </g>
                    <g id="Clip-20" transform="translate(0.000000, 2.818860)">
                        <mask id="mask-2" fill="white">
                            <use xlink:href="#path-1"></use>
                        </mask>
                        <use id="Mask" fill="#FFFFFF" xlink:href="#path-1"></use>
                        <mask id="mask-4" fill="white">
                            <use xlink:href="#path-3"></use>
                        </mask>
                        <use fill="#FFFFFF" xlink:href="#path-3"></use>
                    </g>
                    <g id="Group-21" transform="translate(120.172989, 2.806545)"></g>
                </g>
                <polygon id="Fill-22" fill="#FFFFFF" points="54.2174841 27.9997219 52.771794 27.9997219 52.771794 24.6924676 51.0740117 27.9997219 50.3882125 27.9997219 48.6813946 24.6739292 48.6813946 27.9997219 47.2357045 27.9997219 47.2357045 21.7930586 48.6994657 21.7930586 50.7315639 25.7306192 52.763662 21.7930586 54.2174841 21.7930586"></polygon>
                <path d="M60.3005866,23.5162975 L59.5325638,25.55367 L61.0767415,25.55367 L60.3005866,23.5162975 Z M61.9983689,27.9998146 L61.5736975,26.8689709 L59.0274758,26.8689709 L58.6028043,27.9998146 L57.0044132,27.9998146 L59.5325638,21.7931513 L61.0586704,21.7931513 L63.5877245,27.9998146 L61.9983689,27.9998146 Z" id="Fill-25" fill="#FFFFFF"></path>
                <path d="M68.7123344,26.6745029 C69.8408763,26.6745029 70.5817924,25.9709698 70.5817924,24.8957414 C70.5817924,23.8214399 69.8408763,23.1169799 68.7123344,23.1169799 L67.8638951,23.1169799 L67.8638951,26.6745029 L68.7123344,26.6745029 Z M68.7665478,21.7924098 C70.7625037,21.7924098 72.0807923,23.0530224 72.0807923,24.8957414 C72.0807923,26.7393874 70.7625037,28 68.7665478,28 L66.3730271,28 L66.3730271,21.7924098 L68.7665478,21.7924098 Z" id="Fill-28" fill="#FFFFFF"></path>
                <polygon id="Fill-31" fill="#FFFFFF" points="79.8973676 27.9997219 75.1826108 27.9997219 75.1826108 21.7930586 79.8702609 21.7930586 79.8702609 23.1083596 76.6734787 23.1083596 76.6734787 24.2753532 79.6082296 24.2753532 79.6082296 25.5165004 76.6734787 25.5165004 76.6734787 26.684421 79.8973676 26.684421"></polygon>
            </g>
        </g>
    </g>
</svg>