<?xml version="1.0" encoding="UTF-8"?>
<svg width="18px" height="16px" viewBox="0 0 18 16" version="1.1" xmlns="http://www.w3.org/2000/svg" xmlns:xlink="http://www.w3.org/1999/xlink">
    <title>noun-alert-10890</title>
    <g id="landing-page-update" stroke="none" stroke-width="1" fill="none" fill-rule="evenodd">
        <g id="advertorial" transform="translate(-743.000000, -4836.000000)" fill="#012169" fill-rule="nonzero" stroke="#FFFFFF" stroke-width="0.4">
            <g id="noun-alert-10890" transform="translate(744.000000, 4837.000000)">
                <path d="M15.7859723,11.6515987 L9.38343765,0.782742189 C9.0980442,0.29841216 8.57071225,0 8.00006085,0 C7.42940945,0 6.90222369,0.298415654 6.61668405,0.782742189 L0.214149381,11.6515987 C-0.071383127,12.1362083 -0.071383127,12.7326482 0.214149381,13.2172578 C0.499542828,13.7018674 1.02687478,14 1.59752618,14 L14.4025955,14 C14.9731043,14 15.5005753,13.7017206 15.7859723,13.2172578 C16.0713658,12.7326482 16.0713658,12.1359637 15.785833,11.6515987 L15.7859723,11.6515987 Z M1.59777578,12.4344807 L8.00031045,1.5652747 L14.4028451,12.4341312 L1.59777578,12.4341312 L1.59777578,12.4344807 Z" id="Shape"></path>
                <path d="M7.16788,5.30590847 L7.16788,8.46075819 C7.16788,8.87826617 7.52616199,9.21666667 7.96788,9.21666667 C8.40974088,9.21666667 8.76788,8.87813118 8.76788,8.46075819 L8.76788,5.30590847 C8.76788,4.88840049 8.40959801,4.55 7.96788,4.55 C7.52601912,4.55 7.16788,4.88840049 7.16788,5.30590847 Z" id="Path"></path>
                <path d="M8.77108,10.8888889 C8.77108,11.3184759 8.41294088,11.6666667 7.97108,11.6666667 C7.52921912,11.6666667 7.17108,11.3184759 7.17108,10.8888889 C7.17108,10.4593019 7.52921912,10.1111111 7.97108,10.1111111 C8.41294088,10.1111111 8.77108,10.4593019 8.77108,10.8888889" id="Path"></path>
            </g>
        </g>
    </g>
</svg>