<svg id="Layer_1" data-name="Layer 1" xmlns="http://www.w3.org/2000/svg" viewBox="0 0 125.43 78.39"><title>Payment Methods</title><path d="M10.83,0H114.61a10.82,10.82,0,0,1,10.82,10.82V67.57A10.83,10.83,0,0,1,114.6,78.39H10.83A10.83,10.83,0,0,1,0,67.57V10.83A10.83,10.83,0,0,1,10.83,0Z" style="fill:#c8036f"/><path d="M54.33,52.31a3.57,3.57,0,0,1-3.53,3H32.58a3.75,3.75,0,0,1-3.7-3.64q0-9.24,0-18.49a3.65,3.65,0,0,1,3.63-3.57q9.16,0,18.32,0a3.69,3.69,0,0,1,3.61,3.54c0,4.6,0,9.2,0,13.79a1.68,1.68,0,0,1,0,.27,3.87,3.87,0,0,1-.49,0c-4.18,0-8.36,0-12.54,0a4.61,4.61,0,0,1-3.77-1.88c-.12-.16-.21-.34-.37-.6H51.4c0-1.1.08-2.16,0-3.2a9.73,9.73,0,0,0-19.23-1.18,9.94,9.94,0,0,0,7.75,11.7,13.06,13.06,0,0,0,2.25.19H54.33Z" style="fill:#fff"/><path d="M61.69,62.7c-1.51,0-2.92,0-4.34,0-.12,0-.26-.19-.34-.32s0-.22,0-.33V42.41A9.68,9.68,0,0,1,64.61,33,9.56,9.56,0,0,1,76,40.72a9.73,9.73,0,0,1-6.54,11,10.07,10.07,0,0,1-2.67.43c-1.48.07-3,0-4.43,0-.5,0-.68.14-.67.68,0,3,0,6.05,0,9.07Zm-.06-18.27h.06c0,.81,0,1.62,0,2.44,0,.37.1.55.51.54,1.53,0,3.06,0,4.59,0a4.94,4.94,0,0,0,4.74-4.81,5,5,0,0,0-4.44-5.11,4.85,4.85,0,0,0-5.25,3.92A23.64,23.64,0,0,0,61.63,44.43Z" style="fill:#fff"/><path d="M73.38,52.2A9.8,9.8,0,0,0,77,47.9a.79.79,0,0,1,.83-.49q6.13,0,12.26,0c1.12,0,1.78-.47,1.78-1.29s-.65-1.34-1.8-1.34H84.38a6,6,0,0,1,0-12h9.45v4.59h-.68c-2.87,0-5.74,0-8.62,0a1.36,1.36,0,1,0,0,2.71h6a6,6,0,0,1,6,5.43,6.12,6.12,0,0,1-4.62,6.54,5.67,5.67,0,0,1-1.23.15Z" style="fill:#fff"/><path d="M49.82,24.46v1.36c0,.44-.2.67-.65.67H46.44c-.46,0-.63-.25-.64-.67,0-.76,0-1.52,0-2.27a4.12,4.12,0,0,0-8.23,0c0,.73,0,1.47,0,2.21,0,.49-.19.75-.7.74H34.16c-.35,0-.64-.12-.64-.48A14.31,14.31,0,0,1,34,21a8.21,8.21,0,0,1,8.83-5.26,8.07,8.07,0,0,1,7,7.12c.05.53,0,1.06,0,1.59Z" style="fill:#fff"/><path d="M46.1,40H37.22a5.06,5.06,0,0,1,8.88,0Z" style="fill:#fff"/></svg>