<svg id="Layer_1" data-name="Layer 1" xmlns="http://www.w3.org/2000/svg" viewBox="0 0 125.43 78.39"><title>Payment Methods</title><path d="M10.83,0H114.61a10.82,10.82,0,0,1,10.82,10.82V67.57A10.83,10.83,0,0,1,114.6,78.39H10.83A10.83,10.83,0,0,1,0,67.57V10.83A10.83,10.83,0,0,1,10.83,0Z" style="fill:#f36717"/><path id="path24" d="M115,28H61.1a2.7,2.7,0,0,0-2.7,2.7l0,19.77h54a2.7,2.7,0,0,0,2.7-2.7L115,28" style="fill:#fff;fill-rule:evenodd"/><path id="path26" d="M31.58,33c1.89,0,1.84.84,1.84,2.83v4.91a3.31,3.31,0,0,0,0,.75l-8.81-9H19.94V33c2,0,2,1.24,2,2.38V43c0,1.94,0,2.83-1.89,2.83v.55h5v-.55c-1.89,0-1.89-.74-1.89-2.83V36.31a4.79,4.79,0,0,0-.05-.84l10.69,11h.85V35.82c0-2,.1-2.83,1.94-2.83v-.55h-5ZM10.34,33c1.39,0,2,0,2,1.83V44c0,1.74-.85,1.84-2,1.84v.55H17.4v-.55c-1.29,0-2-.1-2-1.84V34.82c0-1.78.6-1.83,2-1.83v-.55H10.34Zm36.9,6.15v.55c1.69,0,1.89.45,1.89,1.64V45a6.31,6.31,0,0,1-2.68.64c-3,0-5.23-2.53-5.23-6.21s1.84-6.21,5-6.21a5.17,5.17,0,0,1,3.73,1.44A4.8,4.8,0,0,1,51.22,37h.6l-.45-4.82h-.5c0,.35-.15.94-.5.94a6.42,6.42,0,0,1-1.44-.44,8.46,8.46,0,0,0-2.88-.5,7.91,7.91,0,0,0-8.16,7.65c0,3.88,3.13,7,8.36,7A12.7,12.7,0,0,0,52,45.25V41.68c0-1.49-.05-2,1.54-2v-.55H47.24" style="fill:#fff"/><path id="path28" d="M61.43,43.4V35.5h.74v3.39h4.67V35.5h.75v7.9h-.75V39.52H62.17V43.4h-.74" style="fill:#15356f"/><path id="path30" d="M68.89,40.55c0-1.65.87-3,2.63-3s2.63,1.33,2.63,3-1,3-2.63,3S68.89,42.54,68.89,40.55Zm2.63-2.4c-1.38,0-1.93,1.18-1.93,2.4,0,1.42.67,2.41,1.93,2.41s1.93-1.19,1.93-2.41-.54-2.4-1.93-2.4" style="fill:#15356f"/><path id="path32" d="M75.93,43.4h-.66V37.71h.66v.86h0a1.94,1.94,0,0,1,1.75-1,1.55,1.55,0,0,1,1.67,1.1,2,2,0,0,1,1.86-1.1c1.54,0,1.76,1.11,1.76,2.25V43.4h-.66V39.47c0-.81-.28-1.32-1.21-1.32a1.58,1.58,0,0,0-1.29.65,2.86,2.86,0,0,0-.37,1.54V43.4H78.8V39.47c0-.81-.28-1.32-1.22-1.32a1.58,1.58,0,0,0-1.28.65,2.86,2.86,0,0,0-.37,1.54V43.4" style="fill:#15356f"/><path id="path34" d="M84.9,40.71A2,2,0,0,0,86.81,43a1.68,1.68,0,0,0,1.72-1.31h.74a2.38,2.38,0,0,1-2.46,1.9c-1.82,0-2.61-1.3-2.61-3a2.73,2.73,0,0,1,2.61-3c1.56,0,2.51,1.11,2.5,3.15Zm3.71-.55a1.8,1.8,0,0,0-1.8-2,2,2,0,0,0-1.91,2h3.71" style="fill:#15356f"/><path id="path36" d="M91.48,36.79a1.15,1.15,0,0,1-.8,1.18v-.41a.75.75,0,0,0,.37-.72v-.38h-.37v-1h.8v1.29" style="fill:#15356f"/><path id="path38" d="M98.35,40a2.94,2.94,0,0,1-2,.58H94.76V43.4H93.12V35.48h3.37a2.73,2.73,0,0,1,1.85.61A2.38,2.38,0,0,1,99,38,2.44,2.44,0,0,1,98.35,40ZM97.08,37.1a1.25,1.25,0,0,0-.86-.27H94.76v2.36h1.46A1.06,1.06,0,0,0,97.39,38a1.1,1.1,0,0,0-.31-.89" style="fill:#15356f"/><path id="path40" d="M102.57,39.82a2.2,2.2,0,0,0,.6-.14.46.46,0,0,0,.33-.43.53.53,0,0,0-.25-.51,1.59,1.59,0,0,0-.73-.13,1,1,0,0,0-.78.26,1.2,1.2,0,0,0-.21.54h-1.48a2.18,2.18,0,0,1,.43-1.25,2.54,2.54,0,0,1,2.09-.76,3.77,3.77,0,0,1,1.71.37,1.46,1.46,0,0,1,.75,1.44v2.7c0,.19,0,.41,0,.68a.85.85,0,0,0,.09.41.58.58,0,0,0,.22.18v.22H103.7a1.73,1.73,0,0,1-.1-.33,3.09,3.09,0,0,1,0-.35,3.05,3.05,0,0,1-.74.59,2.2,2.2,0,0,1-1.12.29,1.92,1.92,0,0,1-1.31-.46,1.64,1.64,0,0,1-.52-1.3,1.68,1.68,0,0,1,.83-1.58,3.68,3.68,0,0,1,1.34-.37l.53-.07Zm.93.72a1.71,1.71,0,0,1-.7.25l-.35.07a2.37,2.37,0,0,0-.69.21.71.71,0,0,0-.36.66.66.66,0,0,0,.22.57.79.79,0,0,0,.53.18,1.59,1.59,0,0,0,.91-.29,1.28,1.28,0,0,0,.44-1.08v-.57" style="fill:#15356f"/><path id="path42" d="M106.57,44.53h.2a3.17,3.17,0,0,0,.44,0,.73.73,0,0,0,.34-.13.78.78,0,0,0,.26-.38.94.94,0,0,0,.1-.36l-2.15-6.1h1.7l1.28,4.31L110,37.55h1.62l-2,5.75a8.26,8.26,0,0,1-.92,2.05,1.78,1.78,0,0,1-1.37.4H107l-.38,0v-1.2" style="fill:#15356f"/></svg>