<svg id="Layer_1" data-name="Layer 1" xmlns="http://www.w3.org/2000/svg" viewBox="0 0 125.43 78.39"><title>Payment Methods</title><path d="M10.83,0H114.61a10.82,10.82,0,0,1,10.82,10.82V67.6A10.83,10.83,0,0,1,114.6,78.43H10.83A10.83,10.83,0,0,1,0,67.6V10.86A10.83,10.83,0,0,1,10.83,0Z" style="fill:#c51e49"/><path d="M62.7,14.54c-5.12,0-10.26,0-15.38.09-5.63,0-9.24,3.86-9.26,9.52q-.06,15.14,0,30.31c0,5.82,3.67,9.4,9.51,9.42,6.21,0,12.41,0,18.61,0,6.42,0,12.85-.06,19.26,0,1.49,0,2-.35,2-1.9-.07-12.64,0-25.26-.06-37.89,0-5.67-3.6-9.46-9.23-9.52-5.14,0-10.24-.08-15.39-.08Zm0,14.33c3.1,0,6.19,0,9.29,0,2.78,0,4,1.1,4,3.42s-1.39,3.56-4.15,3.59c-3.09,0-6.19,0-9.28,0h0c-3,0-6.06,0-9.09,0-2.62,0-4-1.27-4-3.5s1.21-3.48,3.93-3.49q4.65,0,9.3,0Zm0,13.66h9.41c2.51,0,3.89,1.39,3.85,3.67s-1.35,3.37-3.85,3.41c-3.17,0-6.35,0-9.52,0h0c-3.1,0-6.2,0-9.3,0-2.51,0-3.81-1.25-3.85-3.42s1.34-3.65,3.86-3.66Z" style="fill:#fff"/></svg>