<svg id="Layer_1" data-name="Layer 1" xmlns="http://www.w3.org/2000/svg" viewBox="0 0 125.43 78.39"><title>Payment Methods</title><path d="M10.83,0H114.61a10.82,10.82,0,0,1,10.82,10.82V67.57A10.83,10.83,0,0,1,114.6,78.39H10.83A10.83,10.83,0,0,1,0,67.57V10.83A10.83,10.83,0,0,1,10.83,0Z" style="fill:#eb6f93"/><g id="Layer_1-2" data-name="Layer 1-2"><path id="_Path_" data-name=" Path " d="M33.55,19.59a133.35,133.35,0,0,1,13.7-.77c3.21,0,5.54.1,8.72.34l1.48.11,1.43.09c1.4.1,2.59.15,3.83.15a.83.83,0,0,0,.83-.81.81.81,0,0,0-.82-.8h0c-1.18,0-2.37,0-3.72-.13l-1.41-.11-1.48-.11c-3.22-.23-5.59-.34-8.85-.34a137.49,137.49,0,0,0-14.62.84.8.8,0,0,0-.72.8v2.51a.85.85,0,0,0,.09.38,10.65,10.65,0,0,1,1.22,3.8c.21,4.16.64,6.76,2,9.38,1.9,3.78,5.3,5.95,10.47,5.95,9,0,11.68-2,13.62-8,0-.1.23-.74.29-.93l.31-.94c-.11.32,1.36-4,1.68-4.76.47-1.12.82-1.51,1.19-1.51a.81.81,0,0,0,.82-.8h0a.81.81,0,0,0-.84-.79h0c-1.18,0-2,.83-2.67,2.51-.35.83-1.85,5.25-1.71,4.87l-.33,1c-.06.19-.27.83-.29.93-.88,2.69-1.51,3.87-2.86,4.89-1.73,1.3-4.6,2-9.2,2s-7.37-1.81-9-5.05c-1.18-2.38-1.58-4.76-1.79-8.8a12.23,12.23,0,0,0-1.32-4.29Z" style="fill:#fff"/><path id="Combined-Shape" d="M45.88,36.52H45.8a7.18,7.18,0,0,1-5.27-2c-2.85-2.83-2.81-7.53-2.81-7.75a20.34,20.34,0,0,1-.09-2.2,2.5,2.5,0,0,1,.57-1.91A2.63,2.63,0,0,1,40,21.69c2-.22,5-.33,7-.35,5.12-.06,7.92.25,9.06,1,1.53,1,1.33,2.45,0,6.62l-.37.9C54.4,34.14,53.64,36.52,45.88,36.52Zm2.91-13.73L41,32.3a.78.78,0,0,0,0,1.11.39.39,0,0,0,.1.08.8.8,0,0,0,1.14-.06l.05-.06,7.78-9.51a.82.82,0,0,0-.07-1.14l-.06,0a.82.82,0,0,0-1.16.07A.1.1,0,0,0,48.79,22.79Zm-5.15-.32-4.47,5.45a.78.78,0,0,0,0,1.1.39.39,0,0,0,.1.08A.8.8,0,0,0,40.46,29l0,0L45,23.5a.78.78,0,0,0-.11-1.1v0a.82.82,0,0,0-1.16,0Z" style="fill:#fff"/><path id="_Path_2" data-name=" Path 2" d="M91.89,19.59v1.58a11.93,11.93,0,0,0-1.29,4.24c-.22,4.05-.62,6.49-1.81,8.85-1.63,3.24-4.46,5-9,5s-7.45-.67-9.21-2c-1.34-1-2-2.2-2.86-4.9,0-.1-.23-.74-.29-.93s-.23-.66-.34-1c.15.39-1.35-4.05-1.7-4.88-.71-1.66-1.46-2.47-2.69-2.47a.81.81,0,1,0-.19,1.6h.19c.35,0,.71.38,1.19,1.51.33.76,1.79,5.11,1.67,4.76.11.29.2.58.32.93s.26.83.3.93c1.94,5.94,4.61,8,13.62,8,5.16,0,8.56-2.14,10.47-5.94,1.3-2.62,1.73-5.23,2-9.44a10.3,10.3,0,0,1,1.19-3.79.85.85,0,0,0,.09-.38V18.85a.81.81,0,0,0-.71-.8,137.49,137.49,0,0,0-14.62-.84c-3.26,0-5.64.11-8.85.34l-1.47.11-1.47.11c-1.37.08-2.51.13-3.73.13a.79.79,0,0,0-.81.78v0a.81.81,0,0,0,.81.81h0a34.09,34.09,0,0,0,3.84-.15l1.43-.09,1.47-.11c3.19-.24,5.52-.34,8.73-.34A134.17,134.17,0,0,1,91.89,19.59Z" style="fill:#fff"/><path d="M79.49,36.52c-7.76,0-8.51-2.38-9.86-6.67l-.3-.94c-1.36-4.17-1.54-5.62,0-6.61,1.13-.76,3.92-1.05,9.06-1,2,0,5,.13,7,.35a2.68,2.68,0,0,1,1.81.94,2.58,2.58,0,0,1,.59,1.93,15.54,15.54,0,0,1-.1,2.26c0,.14,0,4.86-2.81,7.7a7.26,7.26,0,0,1-5.28,2h-.13ZM75,22.47l-4.46,5.45A.79.79,0,0,0,70.61,29l.07.06A.84.84,0,0,0,71.87,29h0l4.46-5.47a.77.77,0,0,0-.09-1.09l0,0a.83.83,0,0,0-1.16.05Zm5.17.32-7.83,9.53a.79.79,0,0,0,.05,1.12l.08.07a.83.83,0,0,0,1.16-.08l0,0,7.77-9.52a.79.79,0,0,0,0-1.11l-.1-.08A.81.81,0,0,0,80.18,22.79Z" style="fill:#fff"/></g><path d="M43.67,48.13H40.78a7.37,7.37,0,0,1-3,5.94l-1.15.85,4.44,6h3.65L40.65,55.4a10.18,10.18,0,0,0,3-7.27Zm-10.34,0h3V60.94h-3Zm12.26,0h2.79V60.94H45.59Zm27.26,3.7a3.24,3.24,0,0,0-2.75,1.24v-1H67.46v8.86h2.68V56.29a1.87,1.87,0,0,1,2-2c1.17,0,1.84.69,1.84,2V61h2.66V55.31a3.52,3.52,0,0,0-3.79-3.48Z" style="fill:#fff;fill-rule:evenodd"/><path d="M56.82,52.08v.57a4.62,4.62,0,0,0-2.65-.82,4.68,4.68,0,1,0,0,9.35,4.62,4.62,0,0,0,2.65-.81v.57h2.66V52.08Zm-2.43,6.7a2.28,2.28,0,1,1,2.41-2.27,2.34,2.34,0,0,1-2.41,2.27Z" style="fill:#fff"/><path d="M63.6,53.23V52.08H60.88v8.86h2.74V56.8c0-1.39,1.51-2.14,2.57-2.14h0V52.08a3.34,3.34,0,0,0-2.61,1.15Z" style="fill:#fff;fill-rule:evenodd"/><path d="M84.92,52.08v.57a4.62,4.62,0,0,0-2.65-.82,4.68,4.68,0,1,0,0,9.35,4.62,4.62,0,0,0,2.65-.81v.57h2.66V52.08Zm-2.42,6.7a2.28,2.28,0,1,1,2.41-2.27,2.35,2.35,0,0,1-2.41,2.27Z" style="fill:#fff"/><path d="M90.42,57.8a1.67,1.67,0,1,0,1.68,1.67A1.67,1.67,0,0,0,90.42,57.8Z" style="fill:#fff;fill-rule:evenodd"/></svg>