<svg id="Layer_1" data-name="Layer 1" xmlns="http://www.w3.org/2000/svg" viewBox="0 0 125.43 78.39"><title>Payment Methods</title><path d="M10.83,0H114.61a10.82,10.82,0,0,1,10.82,10.82V67.57A10.83,10.83,0,0,1,114.6,78.39H10.83A10.83,10.83,0,0,1,0,67.57V10.83A10.83,10.83,0,0,1,10.83,0Z" style="fill:#f9f9f9"/><rect x="40.79" y="42.29" width="9.04" height="15.01"/><circle cx="45.39" cy="34.79" r="5.11"/><path d="M66.94,14.61H34.52V63.78H66.94c7.08-.09,12.69-1.85,16.67-5.24,4.85-4.12,7.3-10.62,7.3-19.33A29.88,29.88,0,0,0,89,28.1a20.16,20.16,0,0,0-5.35-7.74c-4.11-3.65-9.87-5.62-16.7-5.74Zm-.61,3.27c6.28,0,11.52,1.7,15.14,4.92,4.1,3.64,6.18,9.16,6.18,16.4,0,14.34-7,21.32-21.32,21.32H37.78V17.88Z"/><path d="M65.44,57.31H54V21.85H65c9.56,0,19.74,3.78,19.74,17.78,0,14.8-10.18,17.68-19.74,17.68Z" style="fill:#cd0067"/><path d="M52,31h3.14a6.2,6.2,0,0,1,1.63.16,2.87,2.87,0,0,1,1.28.78,3.77,3.77,0,0,1,.82,1.39,6.4,6.4,0,0,1,.28,2,5.49,5.49,0,0,1-.27,1.82A3.73,3.73,0,0,1,58,38.68a3.12,3.12,0,0,1-1.21.68,5.22,5.22,0,0,1-1.52.18H52Zm1.72,1.44v5.64H55a4.36,4.36,0,0,0,1-.08,1.71,1.71,0,0,0,.7-.35,1.94,1.94,0,0,0,.45-.83,5.78,5.78,0,0,0,.17-1.55,5.34,5.34,0,0,0-.17-1.52,2,2,0,0,0-.49-.83,1.73,1.73,0,0,0-.8-.4,8.31,8.31,0,0,0-1.42-.08Z" style="fill:#fff"/><path d="M51.76,30.77v9h3.48a5.35,5.35,0,0,0,1.59-.19,3.15,3.15,0,0,0,1.3-.74,4,4,0,0,0,1-1.59,6,6,0,0,0,.27-1.9,6.67,6.67,0,0,0-.29-2.09,4.07,4.07,0,0,0-.87-1.47,3.12,3.12,0,0,0-1.39-.85,6.54,6.54,0,0,0-1.69-.17Zm3.38.47a6.07,6.07,0,0,1,1.56.15,2.59,2.59,0,0,1,1.18.73,3.61,3.61,0,0,1,.77,1.29,6.32,6.32,0,0,1,.26,1.94,5.24,5.24,0,0,1-.25,1.74,3.5,3.5,0,0,1-.85,1.42,3,3,0,0,1-1.12.63,5.14,5.14,0,0,1-1.45.16h-3V31.24Z" style="fill:#fff"/><path d="M53.48,32.22v6.11H55a4.88,4.88,0,0,0,1.1-.09,1.86,1.86,0,0,0,.79-.41,2,2,0,0,0,.52-.93,5.43,5.43,0,0,0,.19-1.62,5.09,5.09,0,0,0-.19-1.59,2.13,2.13,0,0,0-.55-.92,1.88,1.88,0,0,0-.91-.46,7.72,7.72,0,0,0-1.47-.09Zm1,.47a8.18,8.18,0,0,1,1.37.07,1.42,1.42,0,0,1,.69.35,1.73,1.73,0,0,1,.43.72,4.86,4.86,0,0,1,.16,1.45A5.35,5.35,0,0,1,57,36.77a1.6,1.6,0,0,1-.39.71,1.36,1.36,0,0,1-.6.3,4.32,4.32,0,0,1-1,.08H54V32.69Z" style="fill:#fff"/><path d="M61.09,39.54V31h6.32v1.44h-4.6v1.89h4.28v1.45H62.81v2.3h4.76v1.45Z" style="fill:#fff"/><path d="M60.86,30.77v9h7V37.86H63.05V36h4.27V34.11H63.05V32.69h4.59V30.77Zm6.32.47v1h-4.6v2.36h4.27v1H62.58v2.77h4.76v1h-6V31.24Z" style="fill:#fff"/><path d="M77.21,39.54H75.33l-.74-1.94H71.18l-.71,1.94H68.64L72,31h1.83ZM74,36.16,72.86,33l-1.15,3.16Z" style="fill:#fff"/><path d="M71.8,30.77l-3.5,9h2.34s.61-1.67.7-1.93h3.09c.09.25.74,1.93.74,1.93h2.38l-3.6-9Zm1.84.47c.11.27,3,7.48,3.22,8.07H75.49l-.74-1.94H71s-.62,1.67-.71,1.94H69c.22-.58,3-7.79,3.13-8.07Z" style="fill:#fff"/><path d="M71.37,36.39h3l-1.51-4.07Zm1.49-2.72.84,2.25H72C72.19,35.52,72.61,34.36,72.86,33.67Z" style="fill:#fff"/><path d="M78.64,39.54V31.08h1.73v7h4.28v1.45Z" style="fill:#fff"/><path d="M78.41,30.84v8.93h6.48V37.86H80.6v-7Zm1.72.47v7h4.29v1H78.88v-8Z" style="fill:#fff"/></svg>