<svg id="Layer_1" data-name="Layer 1" xmlns="http://www.w3.org/2000/svg" viewBox="0 0 125.43 78.39"><title>Payment Methods</title><path d="M10.8,0H114.58A10.82,10.82,0,0,1,125.4,10.82V67.57a10.83,10.83,0,0,1-10.83,10.83H10.8A10.83,10.83,0,0,1,0,67.57V10.83A10.83,10.83,0,0,1,10.8,0Z" style="fill:#eb6f93"/><path d="M43.65,51.47h-2.9a7.37,7.37,0,0,1-3,5.94l-1.14.85,4.44,6h3.64l-4.09-5.54a10.14,10.14,0,0,0,3-7.27Zm-10.34,0h2.95V64.28H33.31Zm12.26,0h2.79V64.28H45.57Zm27.26,3.7a3.24,3.24,0,0,0-2.75,1.24v-1H67.43v8.86h2.69V59.63a1.86,1.86,0,0,1,2-2,1.74,1.74,0,0,1,1.85,2v4.67h2.66V58.65a3.53,3.53,0,0,0-3.79-3.48Z" style="fill:#fff;fill-rule:evenodd"/><path d="M56.79,55.42V56a4.62,4.62,0,0,0-2.65-.82,4.68,4.68,0,1,0,0,9.36,4.62,4.62,0,0,0,2.65-.82v.57h2.66V55.42Zm-2.43,6.7a2.27,2.27,0,1,1,2.42-2.27,2.35,2.35,0,0,1-2.42,2.27Z" style="fill:#fff"/><path d="M63.58,56.57V55.42H60.85v8.86h2.74V60.15c0-1.4,1.52-2.15,2.57-2.15h0V55.42a3.33,3.33,0,0,0-2.61,1.15Z" style="fill:#fff;fill-rule:evenodd"/><path d="M84.9,55.42V56a4.68,4.68,0,1,0,0,7.72v.57h2.66V55.42Zm-2.43,6.7a2.27,2.27,0,1,1,2.41-2.27,2.34,2.34,0,0,1-2.41,2.27Z" style="fill:#fff"/><path d="M90.4,61.14a1.67,1.67,0,1,0,1.67,1.67A1.68,1.68,0,0,0,90.4,61.14Z" style="fill:#fff;fill-rule:evenodd"/><path d="M79.57,44.65l-21-29.11a37.13,37.13,0,0,0-14.86,23.1l35.85,6ZM42.19,39.09A38.51,38.51,0,0,1,58.34,14a.72.72,0,0,1,1,.16L81.72,45.22a.7.7,0,0,1-.7,1.09L42.77,39.89a.7.7,0,0,1-.58-.8Z" style="fill:#fff"/><path d="M60.84,18.74c-.18.18-.37.38-.63.67l-.32.35-.33.37c-1.15,1.24-2,1.82-2.76,1.83-3.57.06-5.3,2.29-5.2,5.29,0,.21,0,.39,0,.65a4,4,0,0,1,0,.67c0,.74-.58,1.61-2.73,3.89-2.63,2.78-2.7,6-1.16,8.08a.71.71,0,0,0,1,.14.68.68,0,0,0,.17-1v0c-1.16-1.53-1.1-4,1.05-6.3,2.39-2.53,3.09-3.61,3.11-4.81a5.69,5.69,0,0,0,0-.82,5.46,5.46,0,0,1,0-.57c-.08-2.29,1.11-3.82,3.81-3.86,1.31,0,2.37-.77,3.78-2.29l.34-.37s.25-.28.32-.36l.58-.61a.69.69,0,0,0,0-1h0A.73.73,0,0,0,60.84,18.74ZM59.26,42a5.65,5.65,0,0,1,5.8-3.31A5.57,5.57,0,0,1,70,43.2a5,5,0,0,1,.08.65.71.71,0,0,0,.76.65.69.69,0,0,0,.66-.74,7.46,7.46,0,0,0-.1-.81A7.08,7.08,0,0,0,58,41.5a.68.68,0,0,0,.37.91.71.71,0,0,0,.93-.37Zm-2.41-6.28a6.5,6.5,0,0,0-5.6,1.59.68.68,0,0,0,0,1h0a.72.72,0,0,0,1,0,5,5,0,0,1,4.35-1.23.72.72,0,0,0,.83-.55A.69.69,0,0,0,56.85,35.76Zm9.76-2.36a6.34,6.34,0,0,0,4.19,4,.71.71,0,0,0,.88-.47.68.68,0,0,0-.47-.86A5,5,0,0,1,68,33a.71.71,0,0,0-.9-.43A.69.69,0,0,0,66.61,33.4Z" style="fill:#fff;fill-rule:evenodd"/><path d="M60.36,34.78a5,5,0,1,1,5.15-5,5.09,5.09,0,0,1-5.15,5Zm0-1.39a3.66,3.66,0,1,0-3.73-3.65,3.69,3.69,0,0,0,3.73,3.65Z" style="fill:#fff"/></svg>