<svg id="Layer_1" data-name="Layer 1" xmlns="http://www.w3.org/2000/svg" viewBox="0 0 125.43 78.39"><title>Payment Methods</title><path d="M10.83,0H114.61a10.82,10.82,0,0,1,10.82,10.82V67.6A10.83,10.83,0,0,1,114.6,78.43H10.83A10.83,10.83,0,0,1,0,67.6V10.86A10.83,10.83,0,0,1,10.83,0Z" style="fill:#231f20"/><path d="M60,30.73h4.7s4.65-.09,4.6,4.13c0,3.15-4.51,3.62-4.51,3.62H60V30.73ZM74.09,45.9c.13.62.58,1.29,2.06,1.36a5.69,5.69,0,0,0,3.1-.7V48a19.88,19.88,0,0,1-3.19.52c-1.09,0-4.28-.23-4.28-3.19,0-2.4,2.63-3.15,4.13-3.15,2.64.1,3.9,1,3.86,3.71,0,0-4.33,0-5.68,0Zm0-1.17h3.6s0-1.36-1.74-1.36a1.64,1.64,0,0,0-1.86,1.36Zm11.4-1.47a3.65,3.65,0,0,1,2.86-1,3.09,3.09,0,0,1,3.34,3.1c0,.66-.28,3.15-3.67,3.15a3.18,3.18,0,0,1-2.53-1v.79H83.19V39.84H85.5v3.42Zm2,3.91a2,2,0,0,0,2-1.78c0-.57-.33-1.74-2.06-1.74a1.85,1.85,0,0,0-1.88,1.51v.62a1.78,1.78,0,0,0,2,1.39Zm19.87-.23,0,1.31a10.56,10.56,0,0,1-1.79.24c-.7,0-2.54-.43-2.54-2.21V43.55h-1.92V42.33h1.92V40.88h2.35v1.45h1.93v1.22h-1.93V45.9s0,1.18.94,1.18,1-.14,1-.14ZM100.2,32h2.72v6.53h2.31V32H108V30.64h-7.8V32Zm-.94.33L99.54,31a8.8,8.8,0,0,0-3.24-.51c-2,0-5.26,1.13-5.26,4.18s3.43,4,5.54,4a7.69,7.69,0,0,0,2.82-.33l-.24-1.5a9.63,9.63,0,0,1-2.53.28c-1.55,0-3.15-1.27-3.15-2.63a3.19,3.19,0,0,1,3.29-2.59,7.42,7.42,0,0,1,2.49.43ZM78.5,30.68s3.85-.18,3.85,2.07c0,1.92-2.21,2.07-2.21,2.07a1.44,1.44,0,0,1,.89.51c.24.38,1.79,3.2,1.79,3.2H80.47a7,7,0,0,1-.56-.8,11.76,11.76,0,0,0-.57-1,1.61,1.61,0,0,0-1.45-1.18l-.85,0v3H74.79V30.68ZM77,34.21h1.22s1.69-.1,1.79-1.13S78.4,32,78.4,32H77v2.26Zm9.44,1.22h3.76V34H86.48V32.18h4.09v-1.5H84.18v7.85h6.44V37.12H86.48V35.43Zm9.16,6H98v-1.6H95.64v1.6Zm0,6.86H98v-6H95.64v6ZM70.56,38.53h2.25V30.68H70.56v7.85ZM60,40.5h4.7s4.65-.09,4.6,4.13c0,3.15-4.51,3.62-4.51,3.62H60V40.5Zm2.3,6.29h1.5s3.1-.18,3.1-2.58-3.29-2.63-3.29-2.63H62.34v5.21Zm0-9.77h1.5s3.1-.23,3.1-2.58-3.29-2.63-3.29-2.63H62.34V37Z" style="fill:#fff;fill-rule:evenodd"/><path d="M39,35.4V51.12s-9.12-1.65-9.12-7.89c0-5,6.75-7.18,9.12-7.83Zm0-.29c-5.48-.4-17.9,2.17-17.9,7.79,0,3.66,6.58,9,17.28,9.16.43,0,12.59-.47,12.41-13.53-.16-11-8.37-12.89-11-13.23v-.66c10.47.66,18.7,7,18.7,14.59,0,8.08-9.21,14.66-20.53,14.66S17.43,47.31,17.43,39.23s9.16-14.65,20.48-14.65c.35,0,.69,0,1,0V35.11Z" style="fill:#fff;fill-rule:evenodd"/></svg>