<svg id="Layer_1" data-name="Layer 1" xmlns="http://www.w3.org/2000/svg" viewBox="0 0 125.43 78.39"><title>Payment Methods</title><path d="M10.83,0H114.61a10.82,10.82,0,0,1,10.82,10.82V67.57A10.83,10.83,0,0,1,114.6,78.39H10.83A10.83,10.83,0,0,1,0,67.57V10.83A10.83,10.83,0,0,1,10.83,0Z" style="fill:#1b17e8"/><path d="M64.18,34.19c-.05,3.87,3.43,6,6,7.31s3.59,2.16,3.58,3.34c0,1.8-2.14,2.59-4.13,2.63a14.46,14.46,0,0,1-7.09-1.7l-1.25,5.88A20.64,20.64,0,0,0,69,53.08c7.25,0,12-3.6,12-9.19,0-7.08-9.74-7.48-9.68-10.64,0-1,.94-2,2.93-2.25a13,13,0,0,1,6.81,1.2l1.21-5.69a18.36,18.36,0,0,0-6.46-1.2C69,25.31,64.22,29,64.18,34.19M94,25.81a3.15,3.15,0,0,0-2.94,2L80.67,52.66h7.24l1.44-4h8.86l.83,4h6.39L99.86,25.81H94m1,7.25,2.09,10.08H91.34L95,33.06M55.4,25.81,49.69,52.66h6.9L62.3,25.81H55.4m-10.21,0L38,44.08,35.1,28.54a3.22,3.22,0,0,0-3.19-2.73H20.17l-.17.77a28.72,28.72,0,0,1,6.81,2.29,2.92,2.92,0,0,1,1.64,2.36L34,52.66h7.29L52.44,25.81H45.19" style="fill:#fff;fill-rule:evenodd"/></svg>