<?xml version="1.0" encoding="utf-8"?>
<!-- Generator: Adobe Illustrator 24.1.2, SVG Export Plug-In . SVG Version: 6.00 Build 0)  -->
<svg version="1.1" id="Layer_1" xmlns="http://www.w3.org/2000/svg" xmlns:xlink="http://www.w3.org/1999/xlink" x="0px" y="0px"
	 viewBox="0 0 146 40" style="enable-background:new 0 0 146 40;" xml:space="preserve">
<style type="text/css">
	.st0{fill:#3DC583;}
</style>
<desc>Created with Sketch.</desc>
<g>
	<g>
		<g>
			<path class="st0" d="M34.3,9.3c-0.1-0.1-0.1-0.2-0.1-0.3c0-0.1,0.1-0.2,0.2-0.3L38,5.9c0.1-0.1,0.2-0.1,0.3-0.2
				c0.1-0.1,0.3-0.1,0.4-0.1h2c0.1,0,0.2,0,0.3,0.1c0.1,0.1,0.1,0.2,0.1,0.3v10.6c0,0.1,0,0.2-0.1,0.3C40.9,17,40.8,17,40.7,17h-2.1
				c-0.1,0-0.2,0-0.3-0.1c-0.1-0.1-0.1-0.2-0.1-0.3V9.4l-1.9,1.5C36.1,11,36,11,35.9,11c-0.1,0-0.2-0.1-0.3-0.2L34.3,9.3z"/>
			<path class="st0" d="M47.4,5.4c0.8,0,1.5,0.1,2.1,0.4c0.6,0.2,1.1,0.6,1.5,1c0.4,0.4,0.7,0.9,0.9,1.4c0.2,0.5,0.3,1.1,0.3,1.7
				c0,0.5,0,1,0,1.5c0,0.5,0,1,0,1.4c0,0.6-0.1,1.2-0.3,1.7c-0.2,0.5-0.5,1-0.9,1.4c-0.4,0.4-0.9,0.7-1.5,1
				c-0.6,0.2-1.3,0.4-2.1,0.4s-1.5-0.1-2.1-0.4c-0.6-0.2-1.1-0.6-1.5-1c-0.4-0.4-0.7-0.9-0.9-1.4c-0.2-0.5-0.3-1.1-0.3-1.7
				c0-0.4,0-0.9,0-1.4c0-0.5,0-1,0-1.5c0-0.6,0.1-1.2,0.3-1.7c0.2-0.5,0.5-1,0.9-1.4c0.4-0.4,0.9-0.7,1.5-1
				C45.9,5.5,46.6,5.4,47.4,5.4z M49.2,12.7c0-0.9,0-1.8,0-2.7c0-0.3-0.1-0.5-0.1-0.8s-0.2-0.4-0.3-0.6c-0.1-0.2-0.3-0.3-0.5-0.4
				C48,8.1,47.8,8,47.4,8c-0.3,0-0.6,0-0.8,0.1c-0.2,0.1-0.4,0.2-0.5,0.4C46,8.8,45.9,9,45.8,9.2c-0.1,0.2-0.1,0.5-0.1,0.8
				c-0.1,0.9-0.1,1.8,0,2.7c0,0.3,0,0.5,0.1,0.8c0.1,0.2,0.2,0.4,0.3,0.6c0.1,0.2,0.3,0.3,0.5,0.4s0.5,0.1,0.8,0.1
				c0.3,0,0.6,0,0.8-0.1c0.2-0.1,0.4-0.2,0.5-0.4c0.1-0.2,0.2-0.4,0.3-0.6C49.1,13.2,49.2,13,49.2,12.7z"/>
			<path class="st0" d="M58.3,5.4c0.8,0,1.5,0.1,2.1,0.4c0.6,0.2,1.1,0.6,1.5,1c0.4,0.4,0.7,0.9,0.9,1.4c0.2,0.5,0.3,1.1,0.3,1.7
				c0,0.5,0,1,0,1.5c0,0.5,0,1,0,1.4c0,0.6-0.1,1.2-0.3,1.7c-0.2,0.5-0.5,1-0.9,1.4c-0.4,0.4-0.9,0.7-1.5,1
				c-0.6,0.2-1.3,0.4-2.1,0.4c-0.8,0-1.5-0.1-2.1-0.4c-0.6-0.2-1.1-0.6-1.5-1c-0.4-0.4-0.7-0.9-0.9-1.4c-0.2-0.5-0.3-1.1-0.3-1.7
				c0-0.4,0-0.9,0-1.4c0-0.5,0-1,0-1.5c0-0.6,0.1-1.2,0.3-1.7c0.2-0.5,0.5-1,0.9-1.4c0.4-0.4,0.9-0.7,1.5-1
				C56.8,5.5,57.5,5.4,58.3,5.4z M60,12.7c0-0.9,0-1.8,0-2.7c0-0.3-0.1-0.5-0.1-0.8c-0.1-0.2-0.2-0.4-0.3-0.6
				c-0.1-0.2-0.3-0.3-0.5-0.4C58.9,8.1,58.6,8,58.3,8c-0.3,0-0.6,0-0.8,0.1c-0.2,0.1-0.4,0.2-0.5,0.4c-0.1,0.2-0.2,0.4-0.3,0.6
				c-0.1,0.2-0.1,0.5-0.1,0.8c-0.1,0.9-0.1,1.8,0,2.7c0,0.3,0,0.5,0.1,0.8s0.2,0.4,0.3,0.6c0.1,0.2,0.3,0.3,0.5,0.4
				c0.2,0.1,0.5,0.1,0.8,0.1c0.3,0,0.6,0,0.8-0.1c0.2-0.1,0.4-0.2,0.5-0.4c0.1-0.2,0.2-0.4,0.3-0.6S60,13,60,12.7z"/>
			<path class="st0" d="M69.2,7.8c0,0.4,0,0.9,0,1.2c0,0.3-0.1,0.6-0.2,0.9c-0.1,0.3-0.3,0.5-0.5,0.7c-0.2,0.2-0.5,0.4-0.8,0.5
				c-0.3,0.1-0.7,0.2-1.1,0.2s-0.8-0.1-1.1-0.2c-0.3-0.1-0.6-0.3-0.8-0.5c-0.2-0.2-0.4-0.5-0.5-0.7c-0.1-0.3-0.2-0.6-0.2-0.9
				c0-0.2,0-0.4,0-0.6s0-0.4,0-0.6c0-0.3,0.1-0.6,0.2-0.9c0.1-0.3,0.3-0.5,0.5-0.7s0.5-0.4,0.8-0.5c0.3-0.1,0.7-0.2,1.1-0.2
				s0.8,0.1,1.1,0.2c0.3,0.1,0.6,0.3,0.8,0.5c0.2,0.2,0.4,0.5,0.5,0.7C69.1,7.2,69.2,7.5,69.2,7.8z M73.3,5.9
				c0.1-0.1,0.2-0.2,0.2-0.2c0.1-0.1,0.2-0.1,0.4-0.1h1.3c0.1,0,0.2,0,0.3,0.1c0.1,0.1,0.1,0.1,0.1,0.2c0,0,0,0,0,0.1
				c0,0,0,0.1,0,0.1l-8.1,10.6c-0.1,0.1-0.2,0.2-0.2,0.2C67.1,17,67,17,66.9,17h-1.3c-0.1,0-0.2,0-0.3-0.1c-0.1-0.1-0.1-0.1-0.1-0.2
				c0,0,0,0,0-0.1c0,0,0-0.1,0-0.1L73.3,5.9z M66,9c0,0.3,0.1,0.5,0.2,0.6c0.1,0.1,0.3,0.2,0.5,0.2c0.2,0,0.4-0.1,0.5-0.2
				c0.1-0.1,0.1-0.4,0.2-0.6c0-0.4,0-0.7,0-1.1c0-0.3-0.1-0.5-0.2-0.6c-0.1-0.1-0.3-0.2-0.5-0.2c-0.2,0-0.4,0.1-0.5,0.2
				C66,7.4,66,7.6,66,7.9C65.9,8.3,65.9,8.6,66,9z M76.8,13.6c0,0.4,0,0.9,0,1.2c0,0.3-0.1,0.6-0.2,0.9c-0.1,0.3-0.3,0.5-0.5,0.7
				c-0.2,0.2-0.5,0.4-0.8,0.5c-0.3,0.1-0.7,0.2-1.1,0.2c-0.4,0-0.8-0.1-1.1-0.2c-0.3-0.1-0.6-0.3-0.8-0.5c-0.2-0.2-0.4-0.5-0.5-0.7
				c-0.1-0.3-0.2-0.6-0.2-0.9c0-0.2,0-0.4,0-0.6s0-0.4,0-0.6c0-0.3,0.1-0.6,0.2-0.9c0.1-0.3,0.3-0.5,0.5-0.7
				c0.2-0.2,0.5-0.4,0.8-0.5c0.3-0.1,0.7-0.2,1.1-0.2c0.4,0,0.8,0.1,1.1,0.2c0.3,0.1,0.6,0.3,0.8,0.5c0.2,0.2,0.4,0.5,0.5,0.7
				C76.7,12.9,76.8,13.2,76.8,13.6z M73.5,14.7c0,0.3,0.1,0.5,0.2,0.6c0.1,0.1,0.3,0.2,0.5,0.2c0.2,0,0.4-0.1,0.5-0.2
				c0.1-0.1,0.1-0.4,0.2-0.6c0-0.4,0-0.7,0-1.1c0-0.3-0.1-0.5-0.2-0.6c-0.1-0.1-0.3-0.2-0.5-0.2c-0.2,0-0.4,0.1-0.5,0.2
				c-0.1,0.1-0.2,0.4-0.2,0.6C73.5,14,73.5,14.4,73.5,14.7z"/>
			<path class="st0" d="M85.4,5.4c0.7,0,1.3,0.1,1.9,0.3c0.6,0.2,1.1,0.5,1.5,0.8c0.4,0.3,0.8,0.7,1,1c0.2,0.4,0.4,0.7,0.4,1.1
				c0,0.1,0,0.2-0.1,0.3C90,9,89.9,9,89.9,9h-2.1c-0.2,0-0.3,0-0.4-0.1c-0.1,0-0.2-0.1-0.3-0.2c0,0-0.1-0.1-0.2-0.2
				c-0.1-0.1-0.2-0.2-0.3-0.2c-0.1-0.1-0.3-0.2-0.5-0.2C85.9,8.1,85.7,8,85.4,8c-0.2,0-0.4,0-0.6,0c-0.2,0-0.4,0.1-0.5,0.1
				c-0.1,0.1-0.3,0.1-0.4,0.3c-0.1,0.1-0.1,0.2-0.1,0.4s0.1,0.3,0.2,0.4c0.1,0.1,0.3,0.2,0.5,0.3c0.2,0.1,0.6,0.2,1,0.3
				c0.4,0.1,0.9,0.2,1.5,0.3c0.6,0.1,1.1,0.3,1.6,0.5c0.4,0.2,0.8,0.4,1.1,0.7c0.3,0.3,0.5,0.6,0.7,1c0.1,0.4,0.2,0.8,0.2,1.3
				c0,0.6-0.1,1.1-0.4,1.5c-0.3,0.4-0.6,0.8-1.1,1.1c-0.5,0.3-1,0.5-1.6,0.7c-0.6,0.2-1.3,0.2-2,0.2c-0.7,0-1.4-0.1-2-0.3
				c-0.6-0.2-1.1-0.5-1.6-0.8s-0.8-0.7-1-1.1s-0.4-0.8-0.4-1.2c0-0.1,0-0.2,0.1-0.3c0.1-0.1,0.1-0.1,0.2-0.1h2.1
				c0.2,0,0.3,0,0.4,0.1c0.1,0,0.2,0.1,0.3,0.2c0,0,0.1,0.1,0.2,0.2c0.1,0.1,0.2,0.2,0.4,0.3c0.1,0.1,0.3,0.2,0.6,0.3
				c0.2,0.1,0.5,0.1,0.8,0.1c0.6,0,1.1-0.1,1.4-0.2c0.4-0.1,0.6-0.4,0.6-0.7c0-0.2-0.1-0.3-0.2-0.4c-0.1-0.1-0.4-0.2-0.6-0.3
				c-0.3-0.1-0.6-0.2-1.1-0.3c-0.4-0.1-1-0.2-1.6-0.3c-1.1-0.2-1.9-0.6-2.5-1.2C81,10.6,80.8,9.9,80.8,9c0-0.5,0.1-0.9,0.3-1.3
				c0.2-0.4,0.5-0.8,0.9-1.1c0.4-0.3,0.9-0.6,1.5-0.8C84,5.5,84.7,5.4,85.4,5.4z"/>
			<path class="st0" d="M99.9,14.4c0.1,0,0.2,0,0.3,0.1c0.1,0.1,0.1,0.2,0.1,0.3v1.7c0,0.1,0,0.2-0.1,0.3c-0.1,0.1-0.2,0.1-0.3,0.1
				h-7.8c-0.1,0-0.2,0-0.3-0.1c-0.1-0.1-0.1-0.2-0.1-0.3V6c0-0.1,0-0.2,0.1-0.3c0.1-0.1,0.2-0.1,0.3-0.1h7.6c0.1,0,0.2,0,0.3,0.1
				c0.1,0.1,0.1,0.2,0.1,0.3v1.7c0,0.1,0,0.2-0.1,0.3c-0.1,0.1-0.2,0.1-0.3,0.1h-5V10h4.7c0.1,0,0.2,0,0.3,0.1
				c0.1,0.1,0.1,0.2,0.1,0.3v1.7c0,0.1,0,0.2-0.1,0.3c-0.1,0.1-0.2,0.1-0.3,0.1h-4.7v1.8H99.9z"/>
			<path class="st0" d="M104.4,9.9c0,0.1,0,0.3,0,0.6c0,0.3,0,0.5,0,0.8c0,0.3,0,0.5,0,0.8c0,0.3,0,0.5,0,0.6c0,0.3,0.1,0.5,0.1,0.7
				s0.2,0.4,0.4,0.6c0.2,0.2,0.4,0.3,0.6,0.4s0.6,0.2,0.9,0.2c0.4,0,0.7,0,0.9-0.1c0.2-0.1,0.4-0.2,0.6-0.3c0.2-0.1,0.3-0.3,0.4-0.4
				c0.1-0.2,0.1-0.3,0.2-0.4c0.1-0.2,0.1-0.3,0.2-0.4c0.1-0.1,0.2-0.1,0.4-0.1h2.1c0.1,0,0.2,0,0.3,0.1c0.1,0.1,0.1,0.2,0.1,0.3
				c0,0.6-0.1,1.1-0.4,1.6c-0.3,0.5-0.6,0.9-1.1,1.3s-1,0.6-1.6,0.9c-0.6,0.2-1.3,0.3-2,0.3c-0.8,0-1.5-0.1-2.1-0.4
				c-0.6-0.2-1.1-0.6-1.6-1c-0.4-0.4-0.8-0.9-1-1.4c-0.2-0.5-0.4-1.1-0.4-1.7c0-0.4,0-0.9,0-1.4c0-0.5,0-1,0-1.5
				c0-0.6,0.2-1.2,0.4-1.7c0.2-0.5,0.6-1,1-1.4c0.4-0.4,1-0.7,1.6-1c0.6-0.2,1.3-0.4,2.1-0.4c0.7,0,1.4,0.1,2,0.3s1.2,0.5,1.6,0.9
				c0.5,0.4,0.8,0.8,1.1,1.3c0.3,0.5,0.4,1,0.4,1.6c0,0.1,0,0.2-0.1,0.3c-0.1,0.1-0.2,0.1-0.3,0.1H109c-0.2,0-0.3,0-0.4-0.1
				c-0.1-0.1-0.1-0.2-0.2-0.4c0-0.1-0.1-0.3-0.2-0.4c-0.1-0.2-0.2-0.3-0.4-0.4c-0.2-0.1-0.3-0.2-0.6-0.3c-0.2-0.1-0.5-0.1-0.9-0.1
				c-0.4,0-0.7,0.1-0.9,0.2c-0.3,0.1-0.5,0.2-0.6,0.4c-0.2,0.2-0.3,0.4-0.4,0.6C104.5,9.4,104.4,9.7,104.4,9.9z"/>
			<path class="st0" d="M122.2,5.6c0.1,0,0.2,0,0.3,0.1c0.1,0.1,0.1,0.2,0.1,0.3v6.5c0,0.8-0.1,1.4-0.4,2c-0.2,0.6-0.6,1.1-1,1.5
				c-0.4,0.4-1,0.7-1.6,0.9c-0.6,0.2-1.3,0.3-2,0.3c-0.7,0-1.4-0.1-2-0.3c-0.6-0.2-1.1-0.5-1.6-0.9c-0.4-0.4-0.8-0.9-1-1.5
				c-0.2-0.6-0.4-1.2-0.4-2V6c0-0.1,0-0.2,0.1-0.3c0.1-0.1,0.2-0.1,0.3-0.1h2.1c0.1,0,0.2,0,0.3,0.1c0.1,0.1,0.1,0.2,0.1,0.3v6.5
				c0,0.7,0.2,1.2,0.5,1.5c0.3,0.4,0.8,0.6,1.5,0.6c0.7,0,1.1-0.2,1.5-0.6c0.3-0.4,0.5-0.9,0.5-1.5V6c0-0.1,0-0.2,0.1-0.3
				c0.1-0.1,0.2-0.1,0.3-0.1H122.2z"/>
			<path class="st0" d="M129.3,5.6c0.7,0,1.4,0.1,1.9,0.2c0.6,0.2,1,0.4,1.4,0.7c0.4,0.3,0.7,0.7,0.9,1.2c0.2,0.5,0.3,1,0.3,1.7
				c0,0.8-0.2,1.5-0.5,2c-0.3,0.5-0.8,1-1.4,1.2l2,3.9c0,0.1,0,0.1,0,0.2c0,0.1,0,0.2-0.1,0.3c-0.1,0.1-0.2,0.1-0.3,0.1h-2.2
				c-0.2,0-0.4,0-0.5-0.1c-0.1-0.1-0.2-0.2-0.2-0.3l-1.8-3.5h-1.5v3.5c0,0.1,0,0.2-0.1,0.3c-0.1,0.1-0.2,0.1-0.3,0.1h-2.1
				c-0.1,0-0.2,0-0.3-0.1c-0.1-0.1-0.1-0.2-0.1-0.3V6c0-0.1,0-0.2,0.1-0.3c0.1-0.1,0.2-0.1,0.3-0.1H129.3z M127.4,10.5h1.8
				c0.5,0,0.8-0.1,1.1-0.3c0.3-0.2,0.4-0.5,0.4-0.9c0-0.5-0.2-0.8-0.4-0.9c-0.3-0.2-0.7-0.3-1.1-0.3h-1.8V10.5z"/>
			<path class="st0" d="M143.6,14.4c0.1,0,0.2,0,0.3,0.1c0.1,0.1,0.1,0.2,0.1,0.3v1.7c0,0.1,0,0.2-0.1,0.3c-0.1,0.1-0.2,0.1-0.3,0.1
				h-7.8c-0.1,0-0.2,0-0.3-0.1c-0.1-0.1-0.1-0.2-0.1-0.3V6c0-0.1,0-0.2,0.1-0.3c0.1-0.1,0.2-0.1,0.3-0.1h7.6c0.1,0,0.2,0,0.3,0.1
				c0.1,0.1,0.1,0.2,0.1,0.3v1.7c0,0.1,0,0.2-0.1,0.3c-0.1,0.1-0.2,0.1-0.3,0.1h-5V10h4.7c0.1,0,0.2,0,0.3,0.1
				c0.1,0.1,0.1,0.2,0.1,0.3v1.7c0,0.1,0,0.2-0.1,0.3c-0.1,0.1-0.2,0.1-0.3,0.1h-4.7v1.8H143.6z"/>
		</g>
		<g>
			<path class="st0" d="M37.8,27.1c0,0.1,0,0.3,0,0.6c0,0.3,0,0.5,0,0.8c0,0.3,0,0.5,0,0.8c0,0.3,0,0.5,0,0.6c0,0.3,0.1,0.5,0.1,0.7
				c0.1,0.2,0.2,0.4,0.4,0.6s0.4,0.3,0.6,0.4c0.3,0.1,0.6,0.2,0.9,0.2c0.4,0,0.7,0,0.9-0.1c0.2-0.1,0.4-0.2,0.6-0.3
				c0.2-0.1,0.3-0.3,0.4-0.4c0.1-0.2,0.1-0.3,0.2-0.4c0.1-0.2,0.1-0.3,0.2-0.4c0.1-0.1,0.2-0.1,0.4-0.1h2.1c0.1,0,0.2,0,0.3,0.1
				c0.1,0.1,0.1,0.2,0.1,0.3c0,0.6-0.1,1.1-0.4,1.6c-0.3,0.5-0.6,0.9-1.1,1.3s-1,0.6-1.6,0.9c-0.6,0.2-1.3,0.3-2,0.3
				c-0.8,0-1.5-0.1-2.1-0.4c-0.6-0.2-1.1-0.6-1.6-1c-0.4-0.4-0.8-0.9-1-1.4c-0.2-0.5-0.4-1.1-0.4-1.7c0-0.4,0-0.9,0-1.4
				c0-0.5,0-1,0-1.5c0-0.6,0.2-1.2,0.4-1.7c0.2-0.5,0.6-1,1-1.4c0.4-0.4,1-0.7,1.6-1s1.3-0.4,2.1-0.4c0.7,0,1.4,0.1,2,0.3
				c0.6,0.2,1.2,0.5,1.6,0.9c0.5,0.4,0.8,0.8,1.1,1.3c0.3,0.5,0.4,1,0.4,1.6c0,0.1,0,0.2-0.1,0.3c-0.1,0.1-0.2,0.1-0.3,0.1h-2.1
				c-0.2,0-0.3,0-0.4-0.1c-0.1-0.1-0.1-0.2-0.2-0.4c0-0.1-0.1-0.3-0.2-0.4c-0.1-0.2-0.2-0.3-0.4-0.4c-0.2-0.1-0.3-0.2-0.6-0.3
				c-0.2-0.1-0.5-0.1-0.9-0.1c-0.4,0-0.7,0.1-0.9,0.2c-0.3,0.1-0.5,0.2-0.6,0.4s-0.3,0.4-0.4,0.6S37.8,26.8,37.8,27.1z"/>
			<path class="st0" d="M55.5,22.7c0.1,0,0.2,0,0.3,0.1c0.1,0.1,0.1,0.2,0.1,0.3v10.6c0,0.1,0,0.2-0.1,0.3c-0.1,0.1-0.2,0.1-0.3,0.1
				h-2.1c-0.1,0-0.2,0-0.3-0.1c-0.1-0.1-0.1-0.2-0.1-0.3v-4h-3.6v4c0,0.1,0,0.2-0.1,0.3c-0.1,0.1-0.2,0.1-0.3,0.1h-2.1
				c-0.1,0-0.2,0-0.3-0.1c-0.1-0.1-0.1-0.2-0.1-0.3V23.2c0-0.1,0-0.2,0.1-0.3c0.1-0.1,0.2-0.1,0.3-0.1h2.1c0.1,0,0.2,0,0.3,0.1
				c0.1,0.1,0.1,0.2,0.1,0.3v3.9h3.6v-3.9c0-0.1,0-0.2,0.1-0.3c0.1-0.1,0.2-0.1,0.3-0.1H55.5z"/>
			<path class="st0" d="M66,31.6c0.1,0,0.2,0,0.3,0.1c0.1,0.1,0.1,0.2,0.1,0.3v1.7c0,0.1,0,0.2-0.1,0.3c-0.1,0.1-0.2,0.1-0.3,0.1
				h-7.8c-0.1,0-0.2,0-0.3-0.1c-0.1-0.1-0.1-0.2-0.1-0.3V23.2c0-0.1,0-0.2,0.1-0.3c0.1-0.1,0.2-0.1,0.3-0.1h7.6c0.1,0,0.2,0,0.3,0.1
				c0.1,0.1,0.1,0.2,0.1,0.3v1.7c0,0.1,0,0.2-0.1,0.3c-0.1,0.1-0.2,0.1-0.3,0.1h-5v1.8h4.7c0.1,0,0.2,0,0.3,0.1
				c0.1,0.1,0.1,0.2,0.1,0.3v1.7c0,0.1,0,0.2-0.1,0.3c-0.1,0.1-0.2,0.1-0.3,0.1h-4.7v1.8H66z"/>
			<path class="st0" d="M70.4,27.1c0,0.1,0,0.3,0,0.6c0,0.3,0,0.5,0,0.8c0,0.3,0,0.5,0,0.8c0,0.3,0,0.5,0,0.6c0,0.3,0.1,0.5,0.1,0.7
				c0.1,0.2,0.2,0.4,0.4,0.6c0.2,0.2,0.4,0.3,0.6,0.4c0.3,0.1,0.6,0.2,0.9,0.2c0.4,0,0.7,0,0.9-0.1c0.2-0.1,0.4-0.2,0.6-0.3
				c0.2-0.1,0.3-0.3,0.4-0.4c0.1-0.2,0.1-0.3,0.2-0.4c0.1-0.2,0.1-0.3,0.2-0.4c0.1-0.1,0.2-0.1,0.4-0.1h2.1c0.1,0,0.2,0,0.3,0.1
				c0.1,0.1,0.1,0.2,0.1,0.3c0,0.6-0.1,1.1-0.4,1.6c-0.3,0.5-0.6,0.9-1.1,1.3s-1,0.6-1.6,0.9c-0.6,0.2-1.3,0.3-2,0.3
				c-0.8,0-1.5-0.1-2.1-0.4c-0.6-0.2-1.1-0.6-1.6-1c-0.4-0.4-0.8-0.9-1-1.4c-0.2-0.5-0.4-1.1-0.4-1.7c0-0.4,0-0.9,0-1.4
				c0-0.5,0-1,0-1.5c0-0.6,0.2-1.2,0.4-1.7c0.2-0.5,0.6-1,1-1.4c0.4-0.4,1-0.7,1.6-1c0.6-0.2,1.3-0.4,2.1-0.4c0.7,0,1.4,0.1,2,0.3
				c0.6,0.2,1.2,0.5,1.6,0.9c0.5,0.4,0.8,0.8,1.1,1.3c0.3,0.5,0.4,1,0.4,1.6c0,0.1,0,0.2-0.1,0.3c-0.1,0.1-0.2,0.1-0.3,0.1h-2.1
				c-0.2,0-0.3,0-0.4-0.1c-0.1-0.1-0.1-0.2-0.2-0.4c0-0.1-0.1-0.3-0.2-0.4c-0.1-0.2-0.2-0.3-0.4-0.4c-0.2-0.1-0.3-0.2-0.6-0.3
				c-0.2-0.1-0.5-0.1-0.9-0.1c-0.4,0-0.7,0.1-0.9,0.2c-0.3,0.1-0.5,0.2-0.6,0.4c-0.2,0.2-0.3,0.4-0.4,0.6S70.4,26.8,70.4,27.1z"/>
			<path class="st0" d="M88.5,33.7c0,0,0,0.1,0,0.2c0,0.1,0,0.2-0.1,0.3c-0.1,0.1-0.2,0.1-0.3,0.1h-2.6c-0.2,0-0.3,0-0.4-0.1
				c-0.1-0.1-0.2-0.2-0.3-0.3l-3.1-3.9v3.8c0,0.1,0,0.2-0.1,0.3c-0.1,0.1-0.2,0.1-0.3,0.1h-2.1c-0.1,0-0.2,0-0.3-0.1
				c-0.1-0.1-0.1-0.2-0.1-0.3V23.2c0-0.1,0-0.2,0.1-0.3c0.1-0.1,0.2-0.1,0.3-0.1h2.1c0.1,0,0.2,0,0.3,0.1c0.1,0.1,0.1,0.2,0.1,0.3
				v3.5l2.9-3.5c0.1-0.1,0.1-0.1,0.2-0.2c0.1-0.1,0.2-0.1,0.4-0.1h2.6c0.1,0,0.2,0,0.3,0.1c0.1,0.1,0.1,0.2,0.1,0.3
				c0,0.1,0,0.1,0,0.2l-4,4.9L88.5,33.7z"/>
			<path class="st0" d="M88.4,27c0-0.6,0.2-1.2,0.4-1.7c0.2-0.5,0.6-1,1-1.4c0.4-0.4,1-0.7,1.6-0.9c0.6-0.2,1.3-0.4,2.1-0.4
				c0.8,0,1.5,0.1,2.1,0.4s1.1,0.5,1.6,0.9c0.4,0.4,0.8,0.9,1,1.4c0.2,0.5,0.4,1.1,0.4,1.7c0,0.5,0,1,0,1.5c0,0.5,0,1,0,1.4
				c0,0.6-0.2,1.2-0.4,1.7c-0.2,0.5-0.6,1-1,1.4s-1,0.7-1.6,0.9s-1.3,0.3-2.1,0.3c-0.8,0-1.5-0.1-2.1-0.3c-0.6-0.2-1.1-0.5-1.6-0.9
				s-0.8-0.9-1-1.4c-0.2-0.5-0.4-1.1-0.4-1.7c0-0.4,0-0.9,0-1.4C88.4,28,88.4,27.5,88.4,27z M95.6,29.8c0-0.2,0-0.4,0-0.7
				c0-0.2,0-0.5,0-0.7c0-0.3,0-0.5,0-0.7c0-0.2,0-0.4,0-0.6c0-0.3-0.1-0.5-0.2-0.8c-0.1-0.2-0.2-0.4-0.4-0.6
				c-0.2-0.2-0.4-0.3-0.6-0.4s-0.5-0.1-0.9-0.1c-0.3,0-0.6,0-0.9,0.1c-0.3,0.1-0.5,0.2-0.6,0.4c-0.2,0.2-0.3,0.4-0.4,0.6
				c-0.1,0.2-0.2,0.5-0.2,0.8c0,0.2,0,0.4,0,0.6c0,0.2,0,0.5,0,0.7c0,0.3,0,0.5,0,0.7c0,0.2,0,0.5,0,0.7c0,0.5,0.2,1,0.6,1.4
				c0.3,0.4,0.8,0.5,1.5,0.5c0.7,0,1.2-0.2,1.5-0.5C95.3,30.8,95.5,30.4,95.6,29.8z"/>
			<path class="st0" d="M109.5,22.7c0.1,0,0.2,0,0.3,0.1c0.1,0.1,0.1,0.2,0.1,0.3v6.5c0,0.8-0.1,1.4-0.4,2c-0.2,0.6-0.6,1.1-1,1.5
				c-0.4,0.4-1,0.7-1.6,0.9c-0.6,0.2-1.3,0.3-2,0.3c-0.7,0-1.4-0.1-2-0.3c-0.6-0.2-1.1-0.5-1.6-0.9c-0.4-0.4-0.8-0.9-1-1.5
				c-0.2-0.6-0.4-1.2-0.4-2v-6.5c0-0.1,0-0.2,0.1-0.3c0.1-0.1,0.2-0.1,0.3-0.1h2.1c0.1,0,0.2,0,0.3,0.1c0.1,0.1,0.1,0.2,0.1,0.3v6.5
				c0,0.7,0.2,1.2,0.5,1.5c0.3,0.4,0.8,0.6,1.5,0.6c0.7,0,1.1-0.2,1.5-0.6c0.3-0.4,0.5-0.9,0.5-1.5v-6.5c0-0.1,0-0.2,0.1-0.3
				c0.1-0.1,0.2-0.1,0.3-0.1H109.5z"/>
			<path class="st0" d="M120.1,22.7c0.1,0,0.2,0,0.3,0.1c0.1,0.1,0.1,0.2,0.1,0.3v1.7c0,0.1,0,0.2-0.1,0.3c-0.1,0.1-0.2,0.1-0.3,0.1
				h-2.9v8.4c0,0.1,0,0.2-0.1,0.3c-0.1,0.1-0.2,0.1-0.3,0.1h-2.1c-0.1,0-0.2,0-0.3-0.1c-0.1-0.1-0.1-0.2-0.1-0.3v-8.4h-2.9
				c-0.1,0-0.2,0-0.3-0.1c-0.1-0.1-0.1-0.2-0.1-0.3v-1.7c0-0.1,0-0.2,0.1-0.3c0.1-0.1,0.2-0.1,0.3-0.1H120.1z"/>
		</g>
		<g>
			<path class="st0" d="M27.3,18.8c0,3.2,0,6.4,0,9.6c-0.1,0.3-0.1,0.6-0.2,1c-0.9,4.4-4.6,7.4-9,7.4c-1.9,0-3.9,0-5.8,0
				c-0.5,0-1,0-1.5-0.1C6.4,36,3.1,32.2,3,27.8c0-2.9,0-5.8,0-8.6c0-1.5,1.2-2.8,2.7-2.9c0.3,0,0.3-0.1,0.3-0.4c0-1.1,0-2.3,0-3.4
				c0-4.2,2.8-7.8,6.8-8.8c0.5-0.1,1.1-0.2,1.7-0.3c0.4,0,0.8,0,1.2,0c0.4,0.1,0.8,0.1,1.2,0.2c3.9,0.7,7.1,4.3,7.3,8.3
				c0.1,1.4,0,2.7,0,4.1c0,0.2,0,0.3,0.3,0.3c1.2,0.1,2.3,1,2.6,2.1C27.2,18.5,27.2,18.7,27.3,18.8z M15.1,16.2c1.9,0,3.8,0,5.7,0
				c0.3,0,0.4-0.1,0.4-0.4c0-1.1,0-2.2,0-3.4c0-0.8-0.1-1.5-0.4-2.2c-1-2.7-3.8-4.4-6.7-3.9c-2.8,0.5-5,3-5,5.9c0,1.2,0,2.4,0,3.6
				c0,0.3,0.1,0.3,0.3,0.3C11.3,16.2,13.2,16.2,15.1,16.2z M13.6,28.2c0,0.3,0,0.6,0,0.9c0,0.9,0.7,1.5,1.5,1.5
				c0.8,0,1.5-0.7,1.5-1.5c0-0.6,0-1.2,0-1.7c0-0.5,0.2-1,0.6-1.3c0.6-0.5,0.9-1.2,0.9-2c0.1-1.4-0.8-2.7-2.1-3.1
				c-1.3-0.4-2.8,0.1-3.5,1.3C11.8,23.4,12,25,13,25.9c0.5,0.5,0.7,1,0.7,1.6C13.6,27.8,13.6,28,13.6,28.2z"/>
		</g>
	</g>
</g>
</svg>
