<?xml version="1.0" encoding="utf-8"?>
<!-- Generator: Adobe Illustrator 24.3.0, SVG Export Plug-In . SVG Version: 6.00 Build 0)  -->
<svg version="1.1" id="Layer_1" xmlns="http://www.w3.org/2000/svg" xmlns:xlink="http://www.w3.org/1999/xlink" x="0px" y="0px"
	 viewBox="0 0 365.9 216.2" style="enable-background:new 0 0 365.9 216.2;" xml:space="preserve">
<style type="text/css">
	.st0{fill:#273376;}
</style>
<g>
	<path class="st0" d="M83.3,91.3c0-26.8,0-53.7,0-80.5C83.3,2.6,85.9,0,94,0c53.7,0,107.3,0,161,0c8.3,0,10.9,2.7,10.9,11.1
		c0,11.5,0.2,23-0.1,34.5c-0.1,3.6,1.2,4.5,4.6,4.5c17-0.1,34,0.1,51-0.1c5.2-0.1,8.7,1.8,11.6,6.2c10,15.3,20.2,30.6,30.4,45.7
		c1.8,2.8,2.6,5.6,2.6,8.9c-0.1,20.7,0,41.3-0.1,62c0,7.2-2.7,9.9-9.9,9.9c-3.7,0-7.3,0.1-11,0c-2.9-0.1-3.8,0.8-4.3,3.8
		c-3.7,23.6-26.4,36.4-47.2,26.3c-10.4-5.1-16.8-13.5-18.1-25.2c-0.4-3.7-1.7-5.1-5.6-5c-21.8,0.2-43.7,0.1-65.5,0
		c-3.6,0-5.2,0.7-5.5,4.9c-1.5,16.1-15.8,28.4-32.6,28.4c-16.8,0-31.1-12.2-32.6-28.4c-0.4-4-1.8-5-5.5-4.9
		c-11.8,0.2-23.7,0.1-35.5,0.1c-6.8,0-9.3-2.6-9.3-9.4C83.3,145.9,83.3,118.6,83.3,91.3z M99,91.1c0,23.5,0.1,47-0.1,70.5
		c0,4.1,1.3,5.5,5.4,5.4c9.7-0.2,19.3-0.2,29,0c3,0.1,4.8-1,6.6-3.4c13.5-18.1,39-18.1,52.5,0c1.8,2.4,3.6,3.4,6.6,3.4
		c15.3-0.1,30.7-0.2,46,0c4.2,0.1,5.1-1.6,5.1-5.3c-0.1-46.8-0.1-93.7,0-140.5c0-4.2-1.5-5.4-5.5-5.3c-46.7,0.1-93.3,0.1-140,0
		c-4.3,0-5.7,1.2-5.7,5.7C99.1,44.7,99,67.9,99,91.1z M308,115.9C308,115.9,308,115.9,308,115.9c-12.5,0-25,0-37.5,0
		c-2.6,0-4.8-0.1-4.8,3.8c0.2,14.5,0.1,29,0.1,43.4c0,1.3-0.3,2.7,1.2,3.5c3.2,1.7,12.2-0.3,14.4-3.3c12.7-16.8,38.1-18.1,50.7-2
		c3.6,4.6,7.2,5.8,12.5,5.7c4.3,0,5.4-1.6,5.3-5.6c-0.2-13.5-0.2-27,0-40.5c0-3.8-1.1-5.3-5.1-5.2C332.7,116,320.3,115.9,308,115.9z
		 M303.8,100c11.3,0,22.6,0,33.9,0c1.2,0,2.8,0.7,3.6-0.8c0.6-1.2-0.6-2.1-1.2-3.1c-6.1-9.1-12.2-18.2-18.2-27.4
		c-1.2-1.9-2.7-2.7-4.9-2.7c-15.8,0-31.6,0-47.4,0c-2.7,0-3.8,0.9-3.8,3.8c0.1,8.8,0.2,17.6,0,26.5c-0.1,3.2,1.2,3.9,4.1,3.9
		C281.2,99.9,292.5,100,303.8,100z M165.9,200c9.5,0.1,17.4-7.6,17.4-16.9c0-9-7.8-16.8-16.9-17c-9.2-0.2-17.4,7.8-17.4,17
		C149,192.2,156.8,199.9,165.9,200z M307.6,200c9.4,0.2,17.2-7.4,17.3-16.9c0.1-8.9-7.7-16.8-16.8-17c-9.1-0.2-17,7.4-17.1,16.5
		C290.8,192.3,298,199.8,307.6,200z"/>
	<path class="st0" d="M24.2,99.5c-5.1,0-10.3,0.1-15.4,0c-5.5-0.1-8.7-3.1-8.7-8c0-4.8,2.8-7.7,8.3-7.7c10.8-0.1,21.6-0.1,32.4,0
		c5.3,0.1,8.2,3.1,8.2,7.9c0,4.5-3.3,7.8-8.4,7.9C35.2,99.6,29.7,99.5,24.2,99.5z"/>
	<path class="st0" d="M24.5,65.9c-5.3,0-10.7,0.1-16,0c-5.7-0.1-8.4-2.7-8.5-7.6c-0.1-4.6,3.1-8.1,8.2-8.2c11-0.2,22-0.2,33,0
		c4.7,0.1,7.7,3.5,7.7,8.1c0,4.5-2.5,7.4-7.4,7.6C35.9,66,30.2,65.8,24.5,65.9C24.5,65.9,24.5,65.9,24.5,65.9z"/>
	<path class="st0" d="M24.8,132.6c-5.5,0-11,0.1-16.4,0c-5.3-0.1-8.4-3.1-8.4-7.8c0.1-4.8,3.1-7.8,8.3-7.9c10.8-0.1,21.6-0.1,32.4,0
		c5.3,0,8.3,3,8.3,7.8c0,4.9-2.9,7.7-8.2,7.8C35.4,132.7,30.1,132.6,24.8,132.6z"/>
</g>
</svg>
