<?xml version="1.0" encoding="utf-8"?>
<!-- Generator: Adobe Illustrator 24.3.0, SVG Export Plug-In . SVG Version: 6.00 Build 0)  -->
<svg version="1.1" id="Layer_1" xmlns="http://www.w3.org/2000/svg" xmlns:xlink="http://www.w3.org/1999/xlink" x="0px" y="0px"
	 viewBox="0 0 201.2 201.2" style="enable-background:new 0 0 201.2 201.2;" xml:space="preserve">
<style type="text/css">
	.st0{fill:#273376;}
</style>
<g>
	<path class="st0" d="M100.4,201.2C45,201.2,0,156,0,100.4C0,44.9,45.1,0,100.7,0c55.5,0,100.5,45.1,100.4,100.7
		C201.1,156.2,156.1,201.2,100.4,201.2z M100.5,11.9c-48.6,0-88.7,40.3-88.6,88.9c0.1,48.4,40.1,88.4,88.5,88.5
		c48.6,0.1,88.8-40,88.8-88.6C189.3,52,149.1,11.9,100.5,11.9z"/>
	<path class="st0" d="M106.5,64.3c0,7.5,0,14.9,0,22.4c0,4.4,3.5,7.9,8,7.9c8.1,0,16.3,0,24.4,0c5,0,7.4,2,7.4,6
		c0,3.9-2.4,5.9-7.5,5.9c-8.1,0-16.3,0-24.4,0c-2.1,0-3.6,0.5-5.1,2.1c-5,5.2-12.5,5.2-17.3,0.3c-4.8-4.9-4.8-12.3,0.6-17.3
		c1.9-1.8,2-3.5,2-5.7c0-14.4,0-28.9,0-43.3c0-5.4,2-7.9,6.1-7.8c4,0.1,5.8,2.5,5.9,8C106.6,50.1,106.5,57.2,106.5,64.3z"/>
</g>
</svg>
