<?xml version="1.0" encoding="UTF-8"?>
<svg width="40px" height="40px" viewBox="0 0 40 40" version="1.1" xmlns="http://www.w3.org/2000/svg" xmlns:xlink="http://www.w3.org/1999/xlink">
    <title>003-user</title>
    <g id="Page-1" stroke="none" stroke-width="1" fill="none" fill-rule="evenodd">
        <g id="4" transform="translate(-194.000000, -1066.000000)" fill="#00237E" fill-rule="nonzero">
            <g id="Group-2" transform="translate(166.000000, 730.000000)">
                <g id="003-user" transform="translate(28.000000, 336.000000)">
                    <path d="M34.3802088,6.142881 C30.6126096,2.2102714 25.399666,-0.00910229645 19.9534864,0.000884792482 C8.9473904,-0.0129436326 0.0138622129,8.89803758 -1.5800471e-05,19.9042171 C-0.00684759916,25.3463883 2.21227557,30.554572 6.14196242,34.319499 C6.15340292,34.3308559 6.1576618,34.3479749 6.16901879,34.3579958 C6.28442589,34.4691441 6.40985386,34.5632568 6.52676409,34.6701461 C6.84743215,34.9551566 7.16810021,35.2501879 7.50588727,35.525261 C7.6868476,35.6678079 7.87498956,35.8102714 8.06029228,35.9413779 C8.37954071,36.1793737 8.69878914,36.4173695 9.03223382,36.6369102 C9.25887265,36.7794572 9.4926096,36.9219207 9.72484342,37.0644676 C10.0326514,37.2497704 10.3391232,37.4364092 10.656952,37.6060125 C10.9263466,37.7485595 11.2013361,37.8710647 11.4749896,38.0007516 C11.7742797,38.1432985 12.0693111,38.285762 12.3756994,38.4140292 C12.6820877,38.5422965 12.9899791,38.6420877 13.3006263,38.7532359 C13.6112735,38.8643841 13.8792484,38.9670146 14.177119,39.0582046 C14.5134864,39.1594154 14.8583716,39.2377453 15.2004175,39.3218372 C15.485428,39.3916493 15.7619207,39.4714823 16.0555324,39.5285177 C16.4488518,39.6069311 16.8479332,39.656785 17.2470146,39.7109812 C17.4936117,39.7452192 17.7344468,39.7936534 17.9837996,39.8178706 C18.6365762,39.8820042 19.2949478,39.9176618 19.9590814,39.9176618 C20.623215,39.9176618 21.2816701,39.8820042 21.9343633,39.8178706 C22.1837996,39.7936534 22.4246347,39.7452192 22.6711482,39.7109812 C23.0702296,39.656785 23.4692276,39.6069311 23.8626305,39.5285177 C24.1476409,39.4714823 24.4327349,39.3859708 24.7177453,39.3218372 C25.0597912,39.2377453 25.4046764,39.1593319 25.7410438,39.0582046 C26.0389144,38.9670146 26.3267641,38.8558664 26.6175365,38.7532359 C26.908309,38.6506054 27.2389144,38.5394572 27.5424635,38.4140292 C27.8460125,38.2886013 28.1438831,38.1417954 28.4431733,38.0007516 C28.7168267,37.8710647 28.9918998,37.748476 29.2612109,37.6060125 C29.5790397,37.4364092 29.885428,37.2496868 30.1933194,37.0644676 C30.4256367,36.9219207 30.6593737,36.7922338 30.885929,36.6369102 C31.2194572,36.417453 31.5387056,36.1794572 31.8578706,35.9413779 C32.0431733,35.7988309 32.2312317,35.6705637 32.4122756,35.525261 C32.7500626,35.2544468 33.0707307,34.9665971 33.3913987,34.6701461 C33.5082255,34.5632568 33.6336534,34.4692276 33.7491441,34.3579958 C33.760501,34.3480585 33.7648434,34.3309395 33.7762004,34.319499 C41.7239248,26.7054697 41.994238,14.0903549 34.3802088,6.142881 Z M31.176952,32.8273069 C30.9175783,33.0553653 30.6496033,33.2719833 30.3788727,33.4815031 C30.2192902,33.6040919 30.0596242,33.7251775 29.8956994,33.8420877 C29.6377453,34.02881 29.3755324,34.2055115 29.108977,34.3751148 C28.9151566,34.4991232 28.7170772,34.6187891 28.5174948,34.7356994 C28.2666388,34.8782463 28.011524,35.0207098 27.7535699,35.1632568 C27.5255115,35.2800835 27.2931942,35.3898956 27.0595407,35.4982046 C26.8258873,35.6065136 26.5678497,35.7219207 26.3155741,35.8231315 C26.0632985,35.9243424 25.7954071,36.0197912 25.531691,36.108142 C25.2908559,36.1908142 25.0500209,36.2763257 24.806263,36.348977 C24.5212526,36.4344885 24.223382,36.5043006 23.9283507,36.5756159 C23.697453,36.6297286 23.4694781,36.691023 23.2357411,36.7367015 C22.8979541,36.8022547 22.5530689,36.8478497 22.2067641,36.8948643 C22.0101044,36.920501 21.8148643,36.9561587 21.6167015,36.9761169 C21.0693946,37.02881 20.5149896,37.0602088 19.9549061,37.0602088 C19.3948225,37.0602088 18.8404175,37.0288935 18.2931106,36.9761169 C18.0950313,36.9561587 17.8997912,36.920501 17.703048,36.8948643 C17.3567432,36.8478497 17.011858,36.8022547 16.674071,36.7367015 C16.440334,36.6911065 16.2122756,36.6298121 15.9814614,36.5756159 C15.6864301,36.5043841 15.3928184,36.4330689 15.1035491,36.348977 C14.8598747,36.2763257 14.6189562,36.1908142 14.3781211,36.108142 C14.1144885,36.016952 13.8507724,35.9242589 13.594238,35.8231315 C13.3377035,35.7219207 13.0954489,35.6107724 12.8502714,35.4982046 C12.6050939,35.3856367 12.3842171,35.280167 12.1562422,35.1632568 C11.8982881,35.0293111 11.6431733,34.8881837 11.3923173,34.7356994 C11.1928184,34.6188727 10.9946555,34.4991232 10.8008351,34.3751148 C10.5343633,34.2055115 10.2720668,34.02881 10.0141127,33.8420877 C9.85018789,33.725261 9.69060543,33.6040919 9.53093946,33.4815031 C9.26012526,33.2719833 8.99223382,33.0539457 8.73286013,32.8273069 C8.67014614,32.7802923 8.61311065,32.7204175 8.55189979,32.6662213 C8.61561587,27.8180376 11.7301879,23.537119 16.3235073,21.9843841 C18.6202088,23.0769102 21.2867641,23.0769102 23.5834656,21.9843841 C28.1767015,23.537119 31.2912735,27.8179541 31.3550731,32.6662213 C31.2951983,32.7204175 31.2381628,32.7746138 31.176952,32.8273069 Z M14.9837161,11.4278914 C16.5268476,8.68350731 20.0025052,7.7097286 22.7468894,9.25286013 C25.4912735,10.7959916 26.4650522,14.2716493 24.9219207,17.0160334 C24.4099374,17.9265971 23.6575365,18.6789979 22.7468894,19.1910647 C22.7397912,19.1910647 22.73119,19.1910647 22.7226722,19.1995825 C22.3447182,19.4099374 21.9453027,19.5791232 21.53119,19.7041336 C21.457119,19.7255115 21.388643,19.7539875 21.3103132,19.7725261 C21.1677662,19.8096033 21.0181211,19.8352401 20.8713152,19.8608768 C20.5949061,19.9092276 20.3152401,19.937286 20.034739,19.9449687 L19.8722338,19.9449687 C19.5917328,19.937286 19.3120668,19.9092276 19.0356576,19.8608768 C18.8931106,19.8352401 18.7420459,19.8096033 18.5967432,19.7725261 C18.5211691,19.7539875 18.4541962,19.7255115 18.3758664,19.7041336 C17.9617537,19.5791232 17.5623382,19.4100209 17.1843841,19.1995825 L17.1587474,19.1910647 C14.4143633,17.6479332 13.4405846,14.1722756 14.9837161,11.4278914 Z M33.8833403,29.840167 L33.8833403,29.840167 C32.9687683,25.5743633 30.1597495,21.9579123 26.2528601,20.0163674 C29.4465971,16.5373695 29.2152818,11.1280167 25.7362839,7.93427975 C22.257286,4.7405428 16.8479332,4.97185804 13.6541962,8.45085595 C10.6517745,11.7215031 10.6517745,16.7458038 13.6541962,20.0163674 C9.74730689,21.9579958 6.9382881,25.5743633 6.02371608,29.840167 C0.558663883,22.1422129 2.36876827,11.4714823 10.0667223,6.00643006 C17.7646764,0.541377871 28.4354071,2.35148225 33.9004593,10.0494363 C35.9548225,12.943215 37.05762,16.4046764 37.0558685,19.9535699 C37.0558685,23.4993737 35.9465553,26.9563257 33.8833403,29.840167 Z" id="Shape"></path>
                </g>
            </g>
        </g>
    </g>
</svg>