<?xml version="1.0" encoding="utf-8"?>
<!-- Generator: Adobe Illustrator 24.2.1, SVG Export Plug-In . SVG Version: 6.00 Build 0)  -->
<svg version="1.1" id="Layer_1" xmlns="http://www.w3.org/2000/svg" xmlns:xlink="http://www.w3.org/1999/xlink" x="0px" y="0px"
	 viewBox="0 0 14 14" style="enable-background:new 0 0 14 14;" xml:space="preserve">
<style type="text/css">
	.st0{fill:#4BAD00;}
</style>
<g>
	<path class="st0" d="M0,7c0-1.4,0-2.7,0-4.1C0,1.2,1.2,0,2.8,0c2.8,0,5.5,0,8.3,0C12.8,0,14,1.2,14,2.9c0,2.8,0,5.6,0,8.4
		c0,1.6-1.2,2.8-2.8,2.8c-2.8,0-5.6,0-8.4,0C1.2,14,0,12.8,0,11.1C0,9.8,0,8.4,0,7z M12.6,5.4c-0.2,0.1-0.3,0.2-0.4,0.3
		c-1.4,1.4-2.9,2.9-4.3,4.3c-0.6,0.6-1.1,0.6-1.7,0C5.4,9.3,4.7,8.7,4.1,8C3.7,7.6,3.6,7.2,3.9,6.9C4.2,6.5,4.6,6.6,5,7
		c0.5,0.5,1,1,1.5,1.5c0.2,0.3,0.4,0.3,0.7,0c1.7-1.7,3.4-3.3,5.1-5c0.1-0.1,0.2-0.2,0.2-0.3c0.3-0.9-0.4-1.9-1.3-1.9
		c-2.8,0-5.7,0-8.5,0C1.9,1.4,1.4,2,1.4,2.8c0,2.8,0,5.6,0,8.4c0,0.8,0.5,1.4,1.4,1.4c2.8,0,5.6,0,8.4,0c0.8,0,1.4-0.6,1.4-1.4
		C12.6,9.3,12.6,7.4,12.6,5.4z"/>
</g>
</svg>
