<svg width="24" height="24" viewBox="0 0 24 24" fill="none" xmlns="http://www.w3.org/2000/svg">
<path fill-rule="evenodd" clip-rule="evenodd" d="M8.35589 22.52C8.66986 22.52 8.92383 22.5487 9.1556 22.6106C9.62042 22.7349 10.031 23.0137 10.4658 23.3087C11.0126 23.6797 11.4845 24 12.0001 24C12.5154 24 12.9871 23.6798 13.5334 23.309C13.9693 23.0135 14.3802 22.7349 14.8432 22.6109C15.3288 22.4813 15.8345 22.5165 16.3697 22.5536C16.9655 22.5951 17.5786 22.6384 18.0013 22.3938C18.4316 22.1447 18.6778 21.6378 18.9628 21.0507C19.1973 20.5677 19.4179 20.1134 19.7657 19.7658C20.1141 19.4173 20.568 19.1971 21.0482 18.9641C21.6365 18.6785 22.1446 18.4319 22.3938 18.0011C22.6377 17.5795 22.599 17.0222 22.5542 16.3767C22.5167 15.8372 22.4813 15.3276 22.6111 14.8431C22.7343 14.3811 23.0124 13.9712 23.3067 13.5371C23.6787 12.9886 24 12.5152 24 11.9999C24 11.4857 23.6805 11.0144 23.3105 10.4684C23.0141 10.0312 22.7347 9.61947 22.611 9.15637C22.4809 8.67107 22.5167 8.16312 22.5542 7.6256C22.5953 7.03256 22.6377 6.42048 22.394 5.99906C22.1447 5.56827 21.6378 5.32208 21.0505 5.0371C20.5671 4.80188 20.1124 4.58078 19.7657 4.23407C19.4177 3.88592 19.1973 3.43177 18.9639 2.95107C18.6785 2.36308 18.4321 1.85527 18.0011 1.60577C17.5806 1.36261 17.0236 1.40083 16.3796 1.44554C15.8368 1.48289 15.3275 1.51823 14.8441 1.389C14.3813 1.26555 13.9709 0.9872 13.5363 0.692555C12.9883 0.32075 12.5154 0 12.0001 0C11.4858 0 11.0145 0.319452 10.4684 0.689382C10.0315 0.985758 9.61984 1.26483 9.15646 1.38886C8.67231 1.51808 8.16552 1.48318 7.62887 1.44597C7.00612 1.40328 6.419 1.36304 5.99874 1.60591C5.56838 1.85498 5.3222 2.36193 5.03722 2.9492C4.80199 3.43263 4.5809 3.88751 4.23419 4.23407C3.88748 4.58107 3.43434 4.8013 2.95466 5.03436C2.36451 5.32079 1.85541 5.56798 1.60619 5.99863C1.36203 6.42048 1.40457 7.03213 1.44582 7.62358C1.48317 8.16369 1.51836 8.67236 1.38928 9.15565C1.26496 9.62034 0.986185 10.0309 0.691108 10.4658C0.320171 11.0125 0 11.4844 0 11.9999C0 12.514 0.319306 12.9855 0.689377 13.5314C0.985752 13.9683 1.26525 14.3802 1.38914 14.8435C1.51851 15.3276 1.48332 15.8357 1.44582 16.3737C1.40096 17.0215 1.36231 17.5798 1.60576 18.0005C1.85497 18.4314 2.36162 18.6773 2.94803 18.9622C3.43131 19.1967 3.88647 19.4176 4.23434 19.7656C4.58162 20.1129 4.80185 20.5664 5.03505 21.0465C5.32119 21.6363 5.5678 22.1444 5.99888 22.3938C6.42001 22.638 7.03006 22.5951 7.61978 22.5543C7.86453 22.5373 8.11374 22.52 8.35589 22.52Z" fill="black"/>
<path d="M8.60713 10.4312C8.57001 10.3879 8.57619 10.3198 8.61331 10.2765L8.92882 9.97339C8.9845 9.9239 9.04018 9.9239 9.08967 9.97339C9.10823 9.99814 9.47323 10.3075 9.85061 10.3075C10.1847 10.3075 10.5064 10.0662 10.5064 9.72593C10.5064 9.40424 10.2094 9.11347 9.65264 9.11347H9.3062C9.23815 9.11347 9.18865 9.06398 9.18865 8.98974V8.6C9.18865 8.51957 9.23196 8.47627 9.3062 8.47627H9.65264C10.1599 8.47627 10.4198 8.22262 10.4198 7.90711C10.4198 7.56686 10.1352 7.33796 9.81967 7.33796C9.49798 7.33796 9.30001 7.51118 9.19484 7.63491C9.15154 7.6844 9.08348 7.69059 9.02781 7.64109L8.72467 7.35652C8.67518 7.31321 8.68136 7.23897 8.72467 7.19567C8.72467 7.19567 9.19484 6.65126 9.88773 6.65126C10.6054 6.65126 11.2054 7.0905 11.2054 7.78338C11.2054 8.25974 10.8466 8.61856 10.5682 8.74847V8.76703C10.859 8.89076 11.3168 9.22483 11.3168 9.77543C11.3168 10.4745 10.7476 10.9818 9.89391 10.9818C9.1206 10.9818 8.74323 10.592 8.60713 10.4312ZM13.553 10.9818C12.5631 10.9818 11.994 10.1714 11.994 8.81652C11.994 7.46169 12.5631 6.65126 13.553 6.65126C14.5428 6.65126 15.112 7.46169 15.112 8.81652C15.112 10.1714 14.5428 10.9818 13.553 10.9818ZM13.553 10.2518C14.0293 10.2518 14.3015 9.73831 14.3015 8.81652C14.3015 7.90093 14.0293 7.38126 13.553 7.38126C13.0766 7.38126 12.8044 7.90093 12.8044 8.81652C12.8044 9.73831 13.0766 10.2518 13.553 10.2518ZM8.01175 15.8344V12.8559C8.01175 12.8109 8.04774 12.7704 8.09274 12.7704H9.15906C10.0274 12.7704 10.7383 13.4768 10.7383 14.3407C10.7383 15.2135 10.0274 15.9199 9.15906 15.9199H8.09274C8.04774 15.9199 8.01175 15.8794 8.01175 15.8344ZM8.59215 15.371H9.10507C9.68997 15.371 10.1174 14.9301 10.1174 14.3407C10.1174 13.7558 9.68997 13.3149 9.10507 13.3149H8.59215V15.371ZM10.9742 15.9199C10.9067 15.9199 10.8707 15.8614 10.8977 15.8029L12.2969 12.7749C12.3104 12.748 12.3329 12.7255 12.3734 12.7255H12.4184C12.4634 12.7255 12.4814 12.748 12.4949 12.7749L13.8807 15.8029C13.9077 15.8614 13.8717 15.9199 13.8042 15.9199H13.4127C13.3453 15.9199 13.3138 15.8929 13.2823 15.8299L13.0618 15.344H11.7165L11.4961 15.8299C11.4781 15.8749 11.4376 15.9199 11.3656 15.9199H10.9742ZM11.937 14.8446H12.8413L12.3914 13.8548H12.3779L11.937 14.8446ZM14.6605 15.8344V14.4037L13.6347 12.9009C13.5987 12.8424 13.6347 12.7704 13.7067 12.7704H14.1656C14.2016 12.7704 14.2241 12.7929 14.2376 12.8109L14.9575 13.8458L15.6773 12.8109C15.6908 12.7929 15.7133 12.7704 15.7493 12.7704H16.2128C16.2847 12.7704 16.3207 12.8424 16.2847 12.9009L15.2454 14.3992V15.8344C15.2454 15.8794 15.2049 15.9199 15.1599 15.9199H14.746C14.6965 15.9199 14.6605 15.8794 14.6605 15.8344Z" fill="white"/>
<ellipse cx="11.9297" cy="11.9919" rx="8.60157" ry="8.64525" stroke="#FFFEF2" stroke-width="0.605"/>
</svg>
