<svg width="40" height="40" viewBox="0 0 40 40" fill="none" xmlns="http://www.w3.org/2000/svg">
<path d="M8.63286 34.0009C8.63286 32.7839 7.64573 31.7959 6.42971 31.7959C5.21369 31.7959 4.22656 32.7839 4.22656 34.0009C4.22656 35.2179 5.21369 36.2059 6.42971 36.2059C7.64573 36.2059 8.63286 35.2179 8.63286 34.0009Z" fill="black"/>
<path d="M36.0637 26.0131L32.697 25.521L32.689 25.3719C32.4853 22.1886 30.9198 20.7013 29.47 19.5532L29.2783 19.4004L30.133 18.804C30.784 18.3492 31.399 17.9205 31.8144 17.6409C31.9941 17.5217 32.1099 17.3427 32.1458 17.1415C32.1818 16.9402 32.1299 16.7351 32.0021 16.5674C31.8743 16.3997 31.6826 16.2916 31.4669 16.258C31.2512 16.2245 31.0316 16.2729 30.8519 16.3922C30.4365 16.6718 29.8454 17.0818 29.2144 17.5254L29.1425 17.5776C28.7951 17.8199 28.4396 18.0696 28.0922 18.3119L27.9644 18.4014L27.8446 18.3045C27.3453 17.8982 26.7063 17.339 26.2111 16.5935C25.6719 15.7883 25.2686 14.7483 24.8412 13.6524C24.4618 12.6758 24.0345 11.5687 23.4474 10.5623L23.3675 10.4281L25.9675 8.41147C26.1352 8.28101 26.2391 8.09463 26.263 7.88961C26.283 7.68459 26.2151 7.48703 26.0753 7.32675C25.9355 7.17019 25.7358 7.07327 25.5162 7.05091C25.2965 7.03227 25.0849 7.09564 24.9131 7.2261L22.437 9.14953L22.3092 9.01161C20.9952 7.61377 19.258 6.93535 17.0015 6.93535H16.7459L16.2507 3.9011C16.1828 3.48362 15.7634 3.19286 15.3121 3.25623C15.0965 3.28605 14.9047 3.39415 14.773 3.56189C14.6412 3.72964 14.5892 3.93092 14.6212 4.13221L15.1124 7.13664L14.9327 7.17764C11.6059 7.93061 8.81825 10.1262 7.46835 13.0523L7.38848 13.2238L7.20477 13.1492C6.23428 12.7616 5.12801 12.3292 4.38916 12.0496C4.18548 11.9713 3.96183 11.975 3.75814 12.0533C3.55446 12.1316 3.3987 12.2807 3.31484 12.4745C3.1431 12.8659 3.34679 13.317 3.77013 13.4735C4.53293 13.7605 5.71908 14.2265 6.72551 14.6291L6.87728 14.6924L6.83734 14.8453C6.61768 15.7287 6.50586 16.6531 6.50586 17.6037C6.50586 18.9791 6.74548 20.3882 7.22074 21.7935L7.26867 21.9388L4.29331 23.4522C3.89393 23.6535 3.74616 24.1232 3.96582 24.496C4.17749 24.8538 4.69668 24.9992 5.08407 24.8016L7.86773 23.3851L7.95559 23.5678C8.7863 25.2787 9.92053 26.8555 11.3263 28.2608C12.6003 29.5319 14.0341 30.5905 15.5837 31.4106L15.7394 31.4926L14.4255 34.3629C14.2458 34.7505 14.4415 35.2053 14.8608 35.373C15.2722 35.537 15.7674 35.3469 15.9431 34.9667L17.2251 32.1673L17.4088 32.2381C19.246 32.9389 21.159 33.2968 23.088 33.2968C23.7509 33.2968 24.4139 33.2558 25.0609 33.1775L25.2366 33.1551L26.0474 36.1707C26.1552 36.5733 26.6185 36.8305 27.0458 36.7299C27.2575 36.6814 27.4372 36.5547 27.553 36.3795C27.6688 36.2043 27.6968 35.9955 27.6449 35.798L26.8501 32.8457L27.0338 32.7935C29.2863 32.1748 32.0819 30.7136 32.6131 27.2618L32.6411 27.0754L35.8041 27.5377C36.2554 27.6048 36.6748 27.314 36.7427 26.8965C36.8146 26.479 36.507 26.0839 36.0557 26.0168L36.0637 26.0131ZM25.8157 31.4852H25.7878C25.7438 31.4926 25.6959 31.4963 25.648 31.5075L25.5961 31.5262C24.5098 31.7237 23.5592 31.7535 23.088 31.7535C21.0751 31.7535 19.1022 31.3211 17.2211 30.4713L17.1772 30.4489C17.1772 30.4489 17.1453 30.4303 17.1293 30.4228C11.9134 28.0073 8.15528 22.6173 8.15528 17.5999C8.15528 16.545 8.30705 15.5386 8.60258 14.6142C8.64652 14.521 8.67048 14.4501 8.68645 14.3793C10.0004 10.6778 13.471 8.9296 16.043 8.54939C16.1029 8.54939 16.1388 8.54566 16.1748 8.53821L16.2347 8.5233C16.5262 8.48602 16.7778 8.47111 17.0015 8.47111C19.0343 8.47111 20.4721 9.13835 21.5384 10.566C21.5863 10.6555 21.6223 10.7077 21.6622 10.7524L21.6942 10.7859C22.3611 11.7626 22.8364 12.9889 23.2957 14.1706C23.731 15.2963 24.1823 16.4593 24.8173 17.4061C25.5441 18.4946 26.4747 19.2513 27.2894 19.8738C27.3773 19.9632 27.4492 20.0154 27.5251 20.0564L27.7088 20.1906C29.5858 21.6071 31.0675 22.7291 31.0675 26.0839C31.0675 29.6773 28.216 31.0043 25.8197 31.4889L25.8157 31.4852Z" fill="black"/>
<path d="M20.4323 16.5469C20.4323 14.4043 18.687 12.6567 16.5384 12.6567C14.3897 12.6567 12.6484 14.4003 12.6484 16.5469C12.6484 18.6935 14.3937 20.437 16.5384 20.437C18.683 20.437 20.4323 18.6935 20.4323 16.5469ZM16.5384 18.7892C15.3003 18.7892 14.2939 17.7838 14.2939 16.5469C14.2939 15.31 15.3003 14.3046 16.5384 14.3046C17.7764 14.3046 18.7829 15.31 18.7829 16.5469C18.7829 17.7838 17.7764 18.7892 16.5384 18.7892Z" fill="black"/>
<path d="M20.4324 25.9624C20.4324 24.9431 19.6057 24.1157 18.5873 24.1157C17.5689 24.1157 16.7422 24.9431 16.7422 25.9624C16.7422 26.9817 17.5689 27.8091 18.5873 27.8091C19.6057 27.8091 20.4324 26.9817 20.4324 25.9624Z" fill="black"/>
<path d="M25.748 26.3103C26.4847 26.3103 27.0819 25.7122 27.0819 24.9745C27.0819 24.2367 26.4847 23.6387 25.748 23.6387C25.0113 23.6387 24.4141 24.2367 24.4141 24.9745C24.4141 25.7122 25.0113 26.3103 25.748 26.3103Z" fill="black"/>
<path d="M32.4756 12.4156C33.3552 12.4156 34.0683 11.7015 34.0683 10.8206C34.0683 9.93969 33.3552 9.22559 32.4756 9.22559C31.5959 9.22559 30.8828 9.93969 30.8828 10.8206C30.8828 11.7015 31.5959 12.4156 32.4756 12.4156Z" fill="black"/>
<path d="M32.5029 5.29054C32.9835 5.29054 33.373 4.90043 33.373 4.4192C33.373 3.93797 32.9835 3.54785 32.5029 3.54785C32.0224 3.54785 31.6328 3.93797 31.6328 4.4192C31.6328 4.90043 32.0224 5.29054 32.5029 5.29054Z" fill="black"/>
</svg>
