<svg width="40" height="40" viewBox="0 0 40 40" fill="none" xmlns="http://www.w3.org/2000/svg">
<path d="M16.8199 11.9057C16.9891 12.1956 16.8924 12.5641 16.6085 12.7333C16.5118 12.7877 16.4031 12.8179 16.3004 12.8179C16.095 12.8179 15.8957 12.7152 15.7809 12.5218C15.6601 12.3165 15.2674 12.105 14.7539 12.105C14.2404 12.105 13.8478 12.3165 13.7209 12.5218C13.5517 12.8118 13.1832 12.9024 12.8933 12.7333C12.6033 12.5641 12.5127 12.1896 12.6818 11.9057C13.0503 11.2834 13.8417 10.8968 14.7479 10.8968C15.654 10.8968 16.4514 11.2834 16.8199 11.9057ZM19.8525 17.2036C19.9673 17.3849 20.1606 17.4815 20.366 17.4815C20.4747 17.4815 20.5895 17.4513 20.6862 17.3849C20.9701 17.2036 21.0486 16.8351 20.8734 16.5512C20.5774 16.086 19.9613 15.7961 19.2605 15.7961C18.5597 15.7961 17.9436 16.086 17.6475 16.5512C17.4663 16.8351 17.5509 17.2036 17.8348 17.3849C18.1187 17.5661 18.4872 17.4815 18.6685 17.1976C18.7108 17.1311 18.9282 17.0043 19.2605 17.0043C19.5928 17.0043 19.8102 17.1311 19.8525 17.1976V17.2036ZM21.9065 12.7333C22.0031 12.7877 22.1119 12.8179 22.2146 12.8179C22.4199 12.8179 22.6193 12.7152 22.7341 12.5218C22.8549 12.3165 23.2476 12.105 23.7671 12.105C24.2866 12.105 24.6732 12.3165 24.8001 12.5218C24.9692 12.8118 25.3377 12.9024 25.6277 12.7333C25.9116 12.5641 26.0083 12.1896 25.8392 11.9057C25.4706 11.2834 24.6793 10.8968 23.7731 10.8968C22.867 10.8968 22.0756 11.2834 21.7011 11.9057C21.5319 12.1956 21.6225 12.5641 21.9125 12.7333H21.9065ZM16.6145 13.6878C16.3246 13.5186 15.9561 13.6153 15.7869 13.8992C15.6661 14.1046 15.2734 14.316 14.7599 14.316C14.2465 14.316 13.8538 14.1046 13.7269 13.8992C13.5578 13.6092 13.1832 13.5186 12.8993 13.6878C12.6094 13.8569 12.5187 14.2315 12.6879 14.5154C13.0564 15.1376 13.8478 15.5242 14.7539 15.5242C15.6601 15.5242 16.4575 15.1376 16.826 14.5154C16.9951 14.2254 16.9045 13.8569 16.6145 13.6878ZM23.7671 15.5242C24.6732 15.5242 25.4646 15.1376 25.8331 14.5154C26.0023 14.2254 25.9116 13.8569 25.6217 13.6878C25.3377 13.5186 24.9632 13.6092 24.7941 13.8992C24.6732 14.1046 24.2806 14.316 23.761 14.316C23.2415 14.316 22.8549 14.1046 22.728 13.8992C22.5589 13.6092 22.1843 13.5186 21.9004 13.6878C21.6104 13.8569 21.5198 14.2315 21.689 14.5154C22.0575 15.1376 22.8489 15.5242 23.761 15.5242H23.7671ZM24.5585 16.5754C24.927 17.0164 26.1291 18.5206 26.1291 19.4569C26.1291 20.5805 25.2169 21.4927 24.0933 21.4927C22.9697 21.4927 22.0575 20.5805 22.0575 19.4569C22.0575 18.5206 23.2596 17.0103 23.6281 16.5754C23.7429 16.4364 23.9121 16.3579 24.0933 16.3579C24.2745 16.3579 24.4376 16.4364 24.5524 16.5754H24.5585ZM24.9209 19.4569C24.9209 19.2274 24.5705 18.5931 24.0933 17.9406C23.6221 18.5931 23.2657 19.2213 23.2657 19.4569C23.2657 19.916 23.6342 20.2845 24.0933 20.2845C24.5524 20.2845 24.9209 19.916 24.9209 19.4569ZM37.9876 29.2373V37.3806C37.9876 37.7128 37.7158 37.9847 37.3835 37.9847H1.13144C0.799189 37.9847 0.527344 37.7128 0.527344 37.3806V29.2373C0.527344 28.0231 1.15561 26.8994 2.1705 26.2651L1.82012 25.2865C1.65097 24.8092 1.67513 24.2958 1.89261 23.8366C2.11009 23.3775 2.49067 23.0332 2.96791 22.864L7.84904 21.1182C8.82768 20.7678 9.91506 21.2813 10.2715 22.266L10.501 22.9003C10.8877 22.8036 11.2682 22.707 11.6609 22.6224C11.2199 22.0908 10.8454 21.4988 10.5252 20.8826C10.3681 20.9188 10.2111 20.949 10.0419 20.949C9.20223 20.949 8.48335 20.4416 8.17525 19.7167C6.99726 19.0522 6.24213 17.7896 6.24213 16.4183C6.24213 15.047 7.00934 13.7663 8.18734 13.1078L7.83696 11.6459C7.19057 8.94557 7.80071 6.14859 9.5224 3.96779C11.226 1.7749 13.8055 0.524414 16.5843 0.524414H21.9246C23.4046 0.524414 24.8243 0.892915 26.0929 1.55138C26.9567 0.886874 28.0139 0.524414 29.1255 0.524414C31.8802 0.524414 34.1214 2.76563 34.1214 5.52032C34.1214 7.59843 32.8165 9.45906 30.9015 10.1779C30.8653 10.6673 30.8049 11.1505 30.6901 11.6338L30.3397 13.0897C31.5177 13.7482 32.2909 15.0228 32.2909 16.4002C32.2909 18.4964 30.5813 20.2 28.4851 20.2C28.4368 20.2 28.3824 20.1879 28.3341 20.1818C27.9716 21.0517 27.4823 21.8673 26.8782 22.6043C27.2648 22.6889 27.6454 22.7795 28.026 22.8822L28.2556 22.2479C28.6059 21.2632 29.6933 20.7497 30.678 21.1001L35.5591 22.8459C36.0364 23.0151 36.417 23.3594 36.6344 23.8185C36.8519 24.2776 36.8761 24.7911 36.7069 25.2684L36.3565 26.247C37.3714 26.8934 37.9997 28.011 37.9997 29.2192L37.9876 29.2373ZM28.5818 24.924C28.5214 25.0992 28.5274 25.2804 28.6059 25.4496C28.6845 25.6127 28.8234 25.7396 28.9926 25.8L29.6389 26.0295L30.2612 24.2958C30.3759 23.9816 30.7203 23.8185 31.0344 23.9333C31.3485 24.0481 31.5117 24.3924 31.3969 24.7066L30.7747 26.4403L32.0856 26.9115L32.7078 25.1777C32.8226 24.8636 33.1669 24.7005 33.481 24.8153C33.7952 24.9301 33.9583 25.2744 33.8435 25.5885L33.2213 27.3223L33.8676 27.5519C34.0368 27.6123 34.2241 27.6062 34.3932 27.5277C34.5563 27.4492 34.6832 27.3102 34.7436 27.1411L35.5531 24.8817C35.6135 24.7066 35.6075 24.5253 35.5289 24.3562C35.4504 24.1931 35.3114 24.0662 35.1423 24.0058L30.2612 22.2599C29.9047 22.1331 29.5121 22.3204 29.3852 22.6768L28.5757 24.9301L28.5818 24.924ZM29.4215 13.9959C29.3127 13.9536 29.1979 13.9234 29.0892 13.8992V16.4062C29.0892 17.2882 28.9624 18.1521 28.7388 18.9797C30.0497 18.8468 31.0827 17.7534 31.0827 16.4123C31.0827 15.349 30.4182 14.3825 29.4215 13.9959ZM27.2225 2.25818C27.881 2.73542 28.4851 3.29723 29.0046 3.9557C30.1343 5.38742 30.7747 7.08494 30.9076 8.84288C32.1158 8.20253 32.9192 6.93392 32.9192 5.52032C32.9192 3.43014 31.2217 1.73261 29.1315 1.73261C28.4489 1.73261 27.7964 1.91989 27.2286 2.25818H27.2225ZM8.99683 11.3559L9.31701 12.6789C9.44991 12.6547 9.58281 12.6306 9.72175 12.6185C11.2562 10.6612 12.9295 9.23554 14.8264 8.2569C14.8264 8.19649 14.8083 8.14212 14.8083 8.08171C14.8083 7.14535 16.0104 5.6351 16.3789 5.20015C16.6085 4.92831 17.0737 4.92831 17.3032 5.20015C17.5449 5.48408 18.1308 6.22712 18.5175 6.96412C19.9975 6.64999 21.5984 6.51105 23.3986 6.55334C23.5738 6.55334 23.7369 6.63791 23.8456 6.77081L28.7811 12.6366C28.9201 12.6487 29.059 12.6487 29.1919 12.6729L29.5121 11.3559C30.0739 9.01807 29.5423 6.59562 28.0502 4.70479C26.558 2.81395 24.3289 1.73261 21.9246 1.73261H16.5843C14.18 1.73261 11.9448 2.81395 10.4588 4.70479C8.97267 6.58958 8.44106 9.01807 9.00287 11.3559H8.99683ZM16.8441 6.57146C16.3729 7.22389 16.0165 7.85215 16.0165 8.08775C16.0165 8.54083 16.385 8.91537 16.8441 8.91537C17.3032 8.91537 17.6717 8.54687 17.6717 8.08775C17.6717 7.85819 17.3213 7.22389 16.8441 6.57146ZM8.16317 18.1943C8.45918 17.4453 9.08141 16.6237 9.42574 16.1887V13.8932C9.317 13.9173 9.20827 13.9475 9.10557 13.9898C8.09068 14.3825 7.43825 15.3309 7.43825 16.4062C7.43825 17.0828 7.7101 17.7171 8.16317 18.1943ZM10.0298 19.7288C10.4829 19.7288 10.8575 19.3603 10.8575 18.9011C10.8575 18.6716 10.5071 18.0373 10.0298 17.3849C9.55864 18.0373 9.20223 18.6655 9.20223 18.9011C9.20223 19.3542 9.57073 19.7288 10.0298 19.7288ZM13.0201 22.3385C15.0982 21.9639 17.2066 21.7585 19.2545 21.7585C21.3024 21.7585 23.4167 21.9579 25.4948 22.3385C27.0232 20.7255 27.875 18.6293 27.875 16.4002V13.434L23.1026 7.76154C21.55 7.74341 20.1606 7.86423 18.8799 8.124C18.8557 9.2295 17.9556 10.1175 16.8501 10.1175C16.2219 10.1175 15.6721 9.82756 15.2976 9.38052C13.582 10.2867 12.0536 11.6157 10.64 13.428V16.2008C11.1051 16.7747 12.0717 18.0675 12.0717 18.9132C12.0717 19.4267 11.8723 19.8979 11.5522 20.2543C11.9388 21.0215 12.4402 21.7344 13.0262 22.3445L13.0201 22.3385ZM2.95583 24.8697L3.76532 27.129C3.82573 27.3042 3.95259 27.4371 4.1157 27.5156C4.27881 27.5942 4.46608 27.6002 4.64127 27.5398L5.28765 27.3102L4.66543 25.5765C4.55065 25.2623 4.7198 24.918 5.02789 24.8032C5.34202 24.6884 5.68636 24.8515 5.80114 25.1657L6.41732 26.8994L7.72822 26.4282L7.11204 24.6945C6.99726 24.3803 7.16641 24.036 7.4745 23.9212C7.78863 23.8064 8.13297 23.9695 8.24775 24.2837L8.86393 26.0174L9.51032 25.7879C9.68551 25.7275 9.82445 25.6006 9.89694 25.4375C9.97547 25.2744 9.98756 25.0871 9.92111 24.9119L9.11161 22.6526C9.00891 22.3747 8.74915 22.1995 8.46522 22.1995C8.38669 22.1995 8.30816 22.2116 8.23566 22.2418L3.35453 23.9877C3.17934 24.0481 3.04644 24.1749 2.96791 24.338C2.88938 24.5012 2.88334 24.6884 2.94375 24.8636L2.95583 24.8697ZM1.73554 29.2313V32.9767C6.73146 29.9501 13.0443 28.2285 19.2545 28.2285C25.4646 28.2285 31.7775 29.9501 36.7734 32.9767V29.2313C36.7734 28.5245 36.4532 27.866 35.9216 27.4371L35.8853 27.5337C35.7162 28.011 35.3719 28.3916 34.9127 28.609C34.653 28.7299 34.3811 28.7903 34.1032 28.7903C33.8858 28.7903 33.6743 28.754 33.4629 28.6755L32.2487 28.2405L29.796 27.3646L28.5818 26.9296C28.1045 26.7605 27.7239 26.4162 27.5065 25.957C27.289 25.4979 27.2648 24.9844 27.434 24.5072L27.6031 24.03C24.8665 23.3352 21.9971 22.9607 19.2484 22.9607C16.4998 22.9607 13.6303 23.3292 10.8937 24.03L11.0629 24.5072C11.232 24.9844 11.2078 25.4979 10.9904 25.957C10.7729 26.4162 10.3923 26.7605 9.91506 26.9296L8.70082 27.3646L6.24817 28.2405L5.03393 28.6755C4.8225 28.748 4.61106 28.7903 4.39359 28.7903C4.1157 28.7903 3.84385 28.7299 3.58409 28.609C3.12498 28.3916 2.78064 28.011 2.61149 27.5337L2.57524 27.431C2.04364 27.86 1.72346 28.5245 1.72346 29.2313H1.73554ZM36.7734 34.4024C31.8741 31.249 25.5069 29.4427 19.2545 29.4427C13.002 29.4427 6.6348 31.249 1.73554 34.4024V36.7704H36.7734V34.4024Z" fill="black"/>
</svg>
