<svg width="21" height="18" viewBox="0 0 21 18" fill="none" xmlns="http://www.w3.org/2000/svg">
<path fill-rule="evenodd" clip-rule="evenodd" d="M5.81001 4.51758H3.45817V7.07905H0V7.93322H3.45817V9.66681H0.619183V10.521H3.45817V12.2546H1.1683V13.1087H3.45817V16.3698H5.65682C5.77131 17.3018 6.48154 18.0003 7.32861 18.0003C8.17568 18.0003 8.88591 17.3018 9.00041 16.3698H15.8934C16.0079 17.3018 16.7181 18.0003 17.5652 18.0003C18.4123 18.0003 19.1225 17.3018 19.237 16.3698H21V10.7547C20.9526 8.21743 19.6699 6.5617 17.7012 6.5617L17.701 6.5615H15.2277V4.51758H13.0752C13.0993 4.70688 13.1117 4.90031 13.1117 5.09692C13.1117 5.19799 13.1085 5.29821 13.102 5.39746H14.4503L14.4502 15.5412H8.90892C8.67993 14.7912 8.06185 14.2211 7.306 14.2211C6.57343 14.2211 5.93208 14.7649 5.70309 15.5412H4.19141V5.39746H5.78321C5.77673 5.29821 5.77344 5.19799 5.77344 5.09692C5.77344 4.90031 5.78591 4.70688 5.81001 4.51758ZM6.38672 16.1367C6.38672 16.7058 6.79908 17.1718 7.30267 17.1718C7.80626 17.1718 8.21862 16.7058 8.21862 16.1367C8.21862 15.5676 7.80626 15.1016 7.30267 15.1016C6.79908 15.1016 6.38672 15.5676 6.38672 16.1367ZM16.6016 16.1367C16.6016 16.7058 17.0139 17.1718 17.5175 17.1718C18.0211 17.1718 18.4335 16.7058 18.4335 16.1367C18.4335 15.5676 18.0211 15.1016 17.5175 15.1016C17.0139 15.1016 16.6016 15.5676 16.6016 16.1367ZM19.1192 15.5411H20.1506L20.1497 10.7801C20.1497 8.7099 19.2105 7.41602 17.6764 7.41602H15.2031V15.5411H15.9134C16.1423 14.7647 16.7604 14.2209 17.5163 14.2209C18.2721 14.2209 18.8902 14.791 19.1192 15.5411Z" fill="black"/>
<path fill-rule="evenodd" clip-rule="evenodd" d="M5.77344 5.09692C5.77344 2.83792 7.41946 1 9.44259 1C11.4657 1 13.1118 2.83792 13.1118 5.09692C13.1118 7.35593 11.4657 9.19385 9.44259 9.19385C7.41946 9.19385 5.77344 7.35593 5.77344 5.09692ZM6.23047 5.09652C6.23047 7.07322 7.67067 8.68133 9.44098 8.68133C11.2113 8.68133 12.6515 7.07322 12.6515 5.09652C12.6515 3.11983 11.2113 1.51172 9.44098 1.51172C7.67067 1.51172 6.23047 3.11983 6.23047 5.09652Z" fill="black"/>
<path d="M9.44259 0.75C7.25617 0.75 5.52344 2.72649 5.52344 5.09692H6.02344C6.02344 2.94935 7.58274 1.25 9.44259 1.25V0.75ZM13.3618 5.09692C13.3618 2.72649 11.629 0.75 9.44259 0.75V1.25C11.3024 1.25 12.8618 2.94935 12.8618 5.09692H13.3618ZM9.44259 9.44385C11.629 9.44385 13.3618 7.46736 13.3618 5.09692H12.8618C12.8618 7.2445 11.3024 8.94385 9.44259 8.94385V9.44385ZM5.52344 5.09692C5.52344 7.46736 7.25617 9.44385 9.44259 9.44385V8.94385C7.58274 8.94385 6.02344 7.2445 6.02344 5.09692H5.52344ZM9.44098 8.43133C7.83396 8.43133 6.48047 6.96179 6.48047 5.09652H5.98047C5.98047 7.18465 7.50739 8.93133 9.44098 8.93133V8.43133ZM12.4015 5.09652C12.4015 6.96179 11.048 8.43133 9.44098 8.43133V8.93133C11.3746 8.93133 12.9015 7.18465 12.9015 5.09652H12.4015ZM9.44098 1.76172C11.048 1.76172 12.4015 3.23126 12.4015 5.09652H12.9015C12.9015 3.0084 11.3746 1.26172 9.44098 1.26172V1.76172ZM6.48047 5.09652C6.48047 3.23126 7.83396 1.76172 9.44098 1.76172V1.26172C7.50739 1.26172 5.98047 3.0084 5.98047 5.09652H6.48047Z" fill="black"/>
<path d="M9.67349 2.53613H9.21484V5.20273L10.658 6.81409L10.9822 6.45201L9.67349 4.99068V2.53613Z" fill="black" stroke="black" stroke-width="0.5"/>
</svg>
