<svg width="57" height="55" viewBox="0 0 57 55" fill="none" xmlns="http://www.w3.org/2000/svg">
<rect x="0.5" y="0.5" width="55.4224" height="54" rx="27" stroke="black"/>
<path fill-rule="evenodd" clip-rule="evenodd" d="M27.9844 13.8643C32.2307 13.8643 35.7183 17.172 36.0074 21.3461C39.6015 21.4795 42.4844 24.4445 42.4844 28.0707C42.4844 29.7874 41.8379 31.422 40.6641 32.6736C39.5709 33.8391 38.118 34.5704 36.544 34.7545L36.5328 34.7707C36.5279 34.7779 36.523 34.7851 36.5179 34.7923C35.4632 36.2652 33.5739 37.2029 30.9029 37.579C30.5144 37.6339 30.1927 37.9164 30.083 38.2987C29.8179 39.2233 29.6836 40.1798 29.6836 41.1414V42.2979C29.6836 42.6107 29.43 42.8643 29.1172 42.8643H26.8516C26.5387 42.8643 26.2852 42.6107 26.2852 42.2979V41.1416C26.2852 40.1466 26.1413 39.1583 25.8575 38.2036C25.7511 37.8454 25.4424 37.5757 25.0711 37.5161C22.4362 37.0933 20.5563 36.1665 19.4754 34.76C17.8815 34.5859 16.4089 33.8513 15.3037 32.6727C14.1304 31.4213 13.4844 29.7869 13.4844 28.0707C13.4844 24.4445 16.3671 21.4795 19.9611 21.3459C20.0348 20.2624 20.3215 19.2239 20.8182 18.2521C20.9605 17.9736 21.3017 17.8632 21.5802 18.0054C21.8588 18.1479 21.9692 18.4891 21.8269 18.7677C21.4048 19.5938 21.1592 20.4764 21.0932 21.3977C21.7094 21.4776 22.307 21.6415 22.8796 21.8895C24.2246 20.6534 26.0179 19.8974 27.9844 19.8974C29.9208 19.8974 31.7295 20.6372 33.0929 21.888C33.6644 21.6411 34.2606 21.4773 34.8757 21.3977C34.614 17.8245 31.6233 14.9971 27.9844 14.9971C26.8653 14.9971 25.7542 15.2705 24.7711 15.7878C24.4946 15.9336 24.1518 15.8272 24.0063 15.5504C23.8605 15.2736 23.9669 14.9311 24.2437 14.7853C25.3886 14.1829 26.6823 13.8643 27.9844 13.8643ZM28.9941 37.9871C29.2269 37.1751 29.9141 36.5748 30.7451 36.4578C33.084 36.1285 34.7117 35.353 35.5828 34.153C35.5961 34.1347 35.6088 34.1163 35.6215 34.0979L35.6297 34.0862C35.6585 33.9673 35.7253 33.8627 35.8171 33.7859C35.9127 33.6149 35.989 33.4463 36.049 33.2839C35.2253 33.664 34.1163 33.6786 32.7452 33.3264C29.6975 32.5429 28.5554 35.0836 28.5082 35.192C28.4169 35.4024 28.2065 35.5393 27.9775 35.5351L27.7863 35.5316C27.5558 35.5276 27.3507 35.384 27.2679 35.1687C27.2252 35.0608 26.1683 32.4794 23.0951 33.1529C21.714 33.4558 20.6073 33.4018 19.7969 32.9932C19.8883 33.2682 20.0241 33.5613 20.2212 33.8574C20.244 33.8846 20.2644 33.914 20.2816 33.9452C21.1582 35.1842 22.8294 36.0097 25.2507 36.398C26.0495 36.5261 26.7139 37.1085 26.9436 37.8813C27.2584 38.9407 27.4181 40.0378 27.4181 41.1419V41.732H28.5509V41.1419C28.5509 40.0746 28.7001 39.0132 28.9941 37.9871ZM26.5781 32.6439C26.5834 31.9994 26.712 30.0161 27.9795 27.918C29.1163 29.8484 29.3305 31.9202 29.3706 32.6364C29.1239 32.7809 28.9086 32.9391 28.7241 33.0964C28.3745 33.3944 28.1045 33.7141 27.9056 33.9918C27.7165 33.707 27.4572 33.3778 27.1175 33.067C26.9616 32.9242 26.7817 32.78 26.5781 32.6439ZM37.3522 31.5216C37.3615 31.5705 37.5144 32.4203 37.1754 33.485C39.5853 32.852 41.3515 30.6463 41.3515 28.0707C41.3515 24.9845 38.8408 22.4737 35.7545 22.4737C35.1204 22.4737 34.5064 22.5773 33.9206 22.781C34.4323 23.4311 34.8432 24.1712 35.1237 24.9831C35.2257 25.2787 35.0689 25.6013 34.7733 25.7033C34.4775 25.8058 34.1551 25.6487 34.0529 25.3529C33.7378 24.4404 33.2294 23.6342 32.584 22.9722C32.5776 22.9658 32.5714 22.9596 32.5652 22.9532C31.3832 21.7509 29.746 21.0305 27.9844 21.0305C24.4452 21.0305 21.566 23.9096 21.566 27.4488C21.566 27.7616 21.3125 28.0152 20.9996 28.0152C20.6868 28.0152 20.4332 27.7616 20.4332 27.4488C20.4332 25.6889 21.0384 24.0676 22.0517 22.7824C21.4647 22.5777 20.8494 22.4737 20.2142 22.4737C17.1279 22.4737 14.6172 24.9845 14.6172 28.0707C14.6172 30.637 16.3713 32.8367 18.7681 33.4786C18.3229 32.2524 18.54 31.2391 18.5521 31.1853C18.6134 30.9125 18.8637 30.7136 19.1424 30.7331C19.4197 30.7521 19.6405 30.9581 19.6661 31.234C19.6761 31.284 19.756 31.6243 20.1403 31.8838C20.5264 32.1444 21.3101 32.384 22.8522 32.046C23.8969 31.817 24.7629 31.8904 25.4667 32.1104C25.5477 30.955 25.9272 28.7619 27.5259 26.5591C27.6321 26.4124 27.802 26.3257 27.9833 26.3253H27.9844C28.1649 26.3253 28.3346 26.4113 28.4415 26.5571C29.9674 28.6422 30.3712 31.0145 30.4776 32.1823C31.1761 32.0026 32.0224 31.9705 33.0271 32.2287C34.5578 32.6221 35.3487 32.4106 35.743 32.1637C36.1342 31.9188 36.2253 31.5824 36.2369 31.5329C36.2718 31.2581 36.4995 31.0596 36.7771 31.0497C37.0579 31.0395 37.3 31.2468 37.3522 31.5216Z" fill="black"/>
<path d="M36.0074 21.3461L35.8677 21.3558L35.8764 21.4814L36.0022 21.4861L36.0074 21.3461ZM40.6641 32.6736L40.7663 32.7694L40.7663 32.7694L40.6641 32.6736ZM36.544 34.7545L36.5277 34.6154L36.4645 34.6228L36.4285 34.6752L36.544 34.7545ZM36.5328 34.7707L36.4174 34.6914L36.417 34.692L36.5328 34.7707ZM36.5179 34.7923L36.4042 34.7105L36.404 34.7108L36.5179 34.7923ZM30.9029 37.579L30.8834 37.4403L30.8833 37.4403L30.9029 37.579ZM30.083 38.2987L29.9484 38.2601L29.9483 38.2601L30.083 38.2987ZM25.8575 38.2036L25.7232 38.2435L25.7232 38.2435L25.8575 38.2036ZM25.0711 37.5161L25.049 37.6544L25.049 37.6544L25.0711 37.5161ZM19.4754 34.76L19.5865 34.6747L19.5501 34.6273L19.4907 34.6208L19.4754 34.76ZM15.3037 32.6727L15.2016 32.7685L15.2016 32.7685L15.3037 32.6727ZM19.9611 21.3459L19.9663 21.4858L20.0923 21.4812L20.1008 21.3554L19.9611 21.3459ZM20.8182 18.2521L20.9429 18.3159L20.9429 18.3158L20.8182 18.2521ZM21.5802 18.0054L21.644 17.8808L21.6439 17.8807L21.5802 18.0054ZM21.8269 18.7677L21.9516 18.8314L21.9516 18.8313L21.8269 18.7677ZM21.0932 21.3977L20.9536 21.3877L20.9441 21.5196L21.0752 21.5366L21.0932 21.3977ZM22.8796 21.8895L22.824 22.018L22.9074 22.0542L22.9744 21.9926L22.8796 21.8895ZM33.0929 21.888L32.9982 21.9912L33.0651 22.0525L33.1484 22.0165L33.0929 21.888ZM34.8757 21.3977L34.8937 21.5366L35.0251 21.5195L35.0154 21.3875L34.8757 21.3977ZM24.7711 15.7878L24.7059 15.6639L24.7058 15.6639L24.7711 15.7878ZM24.0063 15.5504L24.1302 15.4852L24.1302 15.4852L24.0063 15.5504ZM24.2437 14.7853L24.1785 14.6614L24.1784 14.6614L24.2437 14.7853ZM30.7451 36.4578L30.7256 36.3191L30.7256 36.3191L30.7451 36.4578ZM28.9941 37.9871L28.8595 37.9485L28.8595 37.9485L28.9941 37.9871ZM35.5828 34.153L35.4697 34.0704L35.4695 34.0707L35.5828 34.153ZM35.6215 34.0979L35.5064 34.0183L35.5064 34.0183L35.6215 34.0979ZM35.6297 34.0862L35.7449 34.1658L35.7597 34.1444L35.7658 34.1191L35.6297 34.0862ZM35.8171 33.7859L35.9069 33.8933L35.9267 33.8768L35.9393 33.8542L35.8171 33.7859ZM36.049 33.2839L36.1803 33.3324L36.2975 33.015L35.9903 33.1567L36.049 33.2839ZM32.7452 33.3264L32.7104 33.462L32.7104 33.462L32.7452 33.3264ZM28.5082 35.192L28.3798 35.1361L28.3798 35.1362L28.5082 35.192ZM27.9775 35.5351L27.9749 35.6751L27.9749 35.6751L27.9775 35.5351ZM27.7863 35.5316L27.7889 35.3916L27.7887 35.3916L27.7863 35.5316ZM27.2679 35.1687L27.3986 35.1185L27.3981 35.1172L27.2679 35.1687ZM23.0951 33.1529L23.0651 33.0161L23.0651 33.0161L23.0951 33.1529ZM19.7969 32.9932L19.8599 32.8681L19.557 32.7154L19.664 33.0373L19.7969 32.9932ZM20.2212 33.8574L20.1047 33.935L20.1089 33.9414L20.1139 33.9473L20.2212 33.8574ZM20.2816 33.9452L20.1591 34.013L20.1628 34.0198L20.1673 34.0261L20.2816 33.9452ZM25.2507 36.398L25.2729 36.2597L25.2729 36.2597L25.2507 36.398ZM26.9436 37.8813L26.8093 37.9212L26.8093 37.9212L26.9436 37.8813ZM27.4181 41.732H27.2781V41.872H27.4181V41.732ZM28.5509 41.732V41.872H28.691V41.732H28.5509ZM27.9795 27.918L28.1002 27.8469L27.9811 27.6446L27.8597 27.8456L27.9795 27.918ZM26.5781 32.6439L26.4381 32.6428L26.4375 32.7183L26.5003 32.7603L26.5781 32.6439ZM29.3706 32.6364L29.4413 32.7572L29.5151 32.714L29.5104 32.6286L29.3706 32.6364ZM28.7241 33.0964L28.6332 32.9898H28.6332L28.7241 33.0964ZM27.9056 33.9918L27.789 34.0693L27.9013 34.2383L28.0195 34.0733L27.9056 33.9918ZM27.1175 33.067L27.2121 32.9637L27.2121 32.9636L27.1175 33.067ZM37.1754 33.485L37.042 33.4425L36.9647 33.6851L37.211 33.6204L37.1754 33.485ZM37.3522 31.5216L37.2146 31.5477V31.5477L37.3522 31.5216ZM33.9206 22.781L33.8746 22.6488L33.689 22.7133L33.8105 22.8676L33.9206 22.781ZM35.1237 24.9831L35.2561 24.9375L35.2561 24.9374L35.1237 24.9831ZM34.7733 25.7033L34.7276 25.5709L34.7274 25.571L34.7733 25.7033ZM34.0529 25.3529L33.9205 25.3986L33.9205 25.3986L34.0529 25.3529ZM32.584 22.9722L32.6843 22.8744L32.683 22.8732L32.584 22.9722ZM32.5652 22.9532L32.6659 22.8559L32.665 22.855L32.5652 22.9532ZM22.0517 22.7824L22.1617 22.8691L22.2833 22.7148L22.0978 22.6501L22.0517 22.7824ZM18.7681 33.4786L18.7319 33.6139L18.9914 33.6834L18.8997 33.4308L18.7681 33.4786ZM18.5521 31.1853L18.6887 31.2162L18.6888 31.216L18.5521 31.1853ZM19.1424 30.7331L19.1327 30.8728L19.1329 30.8728L19.1424 30.7331ZM19.6661 31.234L19.5267 31.2469L19.5274 31.2542L19.5288 31.2613L19.6661 31.234ZM20.1403 31.8838L20.0619 31.9998L20.0619 31.9999L20.1403 31.8838ZM22.8522 32.046L22.8222 31.9092H22.8222L22.8522 32.046ZM25.4667 32.1104L25.425 32.244L25.594 32.2969L25.6064 32.1201L25.4667 32.1104ZM27.5259 26.5591L27.6393 26.6414L27.6394 26.6413L27.5259 26.5591ZM27.9833 26.3253V26.1852L27.9829 26.1852L27.9833 26.3253ZM28.4415 26.5571L28.5545 26.4744L28.5544 26.4744L28.4415 26.5571ZM30.4776 32.1823L30.3382 32.195L30.3531 32.3589L30.5125 32.3179L30.4776 32.1823ZM33.0271 32.2287L33.062 32.0931H33.062L33.0271 32.2287ZM35.743 32.1637L35.6687 32.045L35.6687 32.045L35.743 32.1637ZM36.2369 31.5329L36.3733 31.5646L36.3749 31.5576L36.3758 31.5506L36.2369 31.5329ZM36.7771 31.0497L36.7822 31.1896L36.7822 31.1896L36.7771 31.0497ZM36.1471 21.3365C35.8529 17.0895 32.3048 13.7242 27.9844 13.7242V14.0043C32.1565 14.0043 35.5836 17.2545 35.8677 21.3558L36.1471 21.3365ZM42.6244 28.0707C42.6244 24.3689 39.6816 21.3424 36.0126 21.2062L36.0022 21.4861C39.5213 21.6167 42.3443 24.5202 42.3443 28.0707H42.6244ZM40.7663 32.7694C41.9644 31.4918 42.6244 29.8229 42.6244 28.0707H42.3443C42.3443 29.7518 41.7114 31.3521 40.562 32.5778L40.7663 32.7694ZM36.5602 34.8936C38.1671 34.7056 39.6505 33.959 40.7663 32.7694L40.562 32.5778C39.4913 33.7193 38.0688 34.4351 36.5277 34.6154L36.5602 34.8936ZM36.6483 34.85L36.6594 34.8337L36.4285 34.6752L36.4174 34.6914L36.6483 34.85ZM36.6315 34.8741C36.638 34.8651 36.6439 34.8563 36.6487 34.8494L36.417 34.692C36.4119 34.6995 36.4081 34.7051 36.4042 34.7105L36.6315 34.8741ZM30.9224 37.7176C33.6128 37.3388 35.5458 36.3904 36.6317 34.8738L36.404 34.7108C35.3805 36.14 33.5349 37.0669 30.8834 37.4403L30.9224 37.7176ZM30.2176 38.3373C30.3123 38.0071 30.5897 37.7646 30.9225 37.7176L30.8833 37.4403C30.4391 37.5031 30.0731 37.8256 29.9484 38.2601L30.2176 38.3373ZM29.8236 41.1414C29.8236 40.1928 29.9561 39.2494 30.2176 38.3373L29.9483 38.2601C29.6797 39.1973 29.5436 40.1668 29.5436 41.1414H29.8236ZM29.8236 42.2979V41.1414H29.5436V42.2979H29.8236ZM29.1172 43.0043C29.5074 43.0043 29.8236 42.688 29.8236 42.2979H29.5436C29.5436 42.5334 29.3527 42.7242 29.1172 42.7242V43.0043ZM26.8516 43.0043H29.1172V42.7242H26.8516V43.0043ZM26.1451 42.2979C26.1451 42.688 26.4614 43.0043 26.8516 43.0043V42.7242C26.6161 42.7242 26.4252 42.5334 26.4252 42.2979H26.1451ZM26.1451 41.1416V42.2979H26.4252V41.1416H26.1451ZM25.7232 38.2435C26.0033 39.1852 26.1451 40.1601 26.1451 41.1416H26.4252C26.4252 40.1331 26.2794 39.1313 25.9917 38.1637L25.7232 38.2435ZM25.049 37.6544C25.3675 37.7055 25.6323 37.9373 25.7232 38.2435L25.9917 38.1637C25.8698 37.7534 25.5173 37.4458 25.0933 37.3779L25.049 37.6544ZM19.3644 34.8453C20.4758 36.2916 22.3961 37.2287 25.049 37.6544L25.0933 37.3779C22.4764 36.9579 20.6368 36.0414 19.5865 34.6747L19.3644 34.8453ZM15.2016 32.7685C16.3295 33.9714 17.833 34.7214 19.4602 34.8992L19.4907 34.6208C17.9301 34.4503 16.4882 33.7312 15.4059 32.5769L15.2016 32.7685ZM13.3443 28.0707C13.3443 29.8225 14.0039 31.4911 15.2016 32.7685L15.4059 32.5769C14.2569 31.3515 13.6244 29.7514 13.6244 28.0707H13.3443ZM19.9559 21.206C16.2869 21.3424 13.3443 24.3689 13.3443 28.0707H13.6244C13.6244 24.5202 16.4472 21.6167 19.9663 21.4858L19.9559 21.206ZM20.6935 18.1884C20.1882 19.177 19.8963 20.2341 19.8214 21.3364L20.1008 21.3554C20.1732 20.2908 20.4549 19.2707 20.9429 18.3159L20.6935 18.1884ZM21.6439 17.8807C21.2965 17.7033 20.871 17.841 20.6935 18.1884L20.9429 18.3158C21.05 18.1062 21.3068 18.023 21.5165 18.1302L21.6439 17.8807ZM21.9516 18.8313C22.1291 18.4839 21.9914 18.0584 21.644 17.8808L21.5164 18.1301C21.7262 18.2374 21.8093 18.4943 21.7022 18.704L21.9516 18.8313ZM21.2329 21.4077C21.2975 20.5051 21.538 19.6408 21.9516 18.8314L21.7022 18.7039C21.2715 19.5468 21.0208 20.4477 20.9536 21.3877L21.2329 21.4077ZM22.9353 21.761C22.3506 21.5078 21.7403 21.3404 21.1112 21.2588L21.0752 21.5366C21.6785 21.6148 22.2635 21.7752 22.824 22.018L22.9353 21.761ZM27.9844 19.7573C25.9813 19.7573 24.1546 20.5276 22.7849 21.7864L22.9744 21.9926C24.2947 20.7792 26.0545 20.0374 27.9844 20.0374V19.7573ZM33.1875 21.7848C31.7991 20.511 29.9568 19.7573 27.9844 19.7573V20.0374C29.8848 20.0374 31.66 20.7635 32.9982 21.9912L33.1875 21.7848ZM34.8577 21.2588C34.2297 21.3401 33.6208 21.5073 33.0373 21.7594L33.1484 22.0165C33.7079 21.7748 34.2916 21.6145 34.8937 21.5366L34.8577 21.2588ZM27.9844 15.1371C31.5493 15.1371 34.4796 17.9073 34.7361 21.4079L35.0154 21.3875C34.7483 17.7416 31.6973 14.857 27.9844 14.857V15.1371ZM24.8363 15.9118C25.7991 15.4051 26.8878 15.1371 27.9844 15.1371V14.857C26.8427 14.857 25.7092 15.1359 24.7059 15.6639L24.8363 15.9118ZM23.8823 15.6156C24.0639 15.9608 24.4913 16.0936 24.8364 15.9117L24.7058 15.6639C24.4978 15.7736 24.2398 15.6936 24.1302 15.4852L23.8823 15.6156ZM24.1784 14.6614C23.8333 14.8432 23.7005 15.2704 23.8824 15.6157L24.1302 15.4852C24.0204 15.2769 24.1005 15.019 24.3089 14.9092L24.1784 14.6614ZM27.9844 13.7242C26.6597 13.7242 25.3437 14.0483 24.1785 14.6614L24.3089 14.9093C25.4336 14.3174 26.7049 14.0043 27.9844 14.0043V13.7242ZM30.7256 36.3191C29.8393 36.4439 29.1074 37.0838 28.8595 37.9485L29.1287 38.0256C29.3464 37.2663 29.9888 36.7057 30.7646 36.5964L30.7256 36.3191ZM35.4695 34.0707C34.6309 35.226 33.0484 35.9921 30.7256 36.3191L30.7646 36.5964C33.1195 36.2649 34.7925 35.4801 35.6961 34.2352L35.4695 34.0707ZM35.5064 34.0183C35.4935 34.0369 35.4818 34.0539 35.4697 34.0704L35.6959 34.2355C35.7104 34.2156 35.7242 34.1957 35.7367 34.1776L35.5064 34.0183ZM35.5145 34.0065L35.5064 34.0183L35.7367 34.1776L35.7449 34.1658L35.5145 34.0065ZM35.7273 33.6785C35.6132 33.7739 35.5296 33.9044 35.4936 34.0532L35.7658 34.1191C35.7873 34.0303 35.8374 33.9515 35.9069 33.8933L35.7273 33.6785ZM35.9176 33.2354C35.8601 33.3911 35.7868 33.5531 35.6949 33.7176L35.9393 33.8542C36.0386 33.6767 36.1179 33.5015 36.1803 33.3324L35.9176 33.2354ZM32.7104 33.462C34.0962 33.818 35.2422 33.8104 36.1076 33.411L35.9903 33.1567C35.2083 33.5176 34.1364 33.5392 32.7801 33.1907L32.7104 33.462ZM28.6367 35.2478C28.6563 35.2026 28.9426 34.5635 29.5902 34.0331C30.2314 33.5078 31.2336 33.0824 32.7104 33.462L32.7801 33.1907C31.2091 32.7869 30.1164 33.24 29.4128 33.8164C28.7156 34.3875 28.4073 35.0729 28.3798 35.1361L28.6367 35.2478ZM27.9749 35.6751C28.2614 35.6804 28.523 35.5095 28.6367 35.2478L28.3798 35.1362C28.3107 35.2953 28.1516 35.3983 27.98 35.3951L27.9749 35.6751ZM27.7837 35.6716L27.9749 35.6751L27.9801 35.3951L27.7889 35.3916L27.7837 35.6716ZM27.1372 35.219C27.2404 35.4875 27.4962 35.6666 27.7839 35.6716L27.7887 35.3916C27.6153 35.3886 27.4609 35.2805 27.3986 35.1185L27.1372 35.219ZM23.1251 33.2897C24.6141 32.9634 25.6019 33.4248 26.2255 33.973C26.8552 34.5265 27.1199 35.1754 27.1377 35.2202L27.3981 35.1172C27.3732 35.0541 27.0881 34.3583 26.4104 33.7626C25.7265 33.1614 24.6493 32.6689 23.0651 33.0161L23.1251 33.2897ZM19.7338 33.1182C20.5852 33.5475 21.7291 33.5959 23.1251 33.2897L23.0651 33.0161C21.699 33.3157 20.6295 33.2562 19.8599 32.8681L19.7338 33.1182ZM20.3378 33.7798C20.1479 33.4946 20.0174 33.2128 19.9298 32.949L19.664 33.0373C19.7591 33.3236 19.9003 33.6281 20.1047 33.935L20.3378 33.7798ZM20.4042 33.8774C20.3824 33.8381 20.3569 33.8013 20.3286 33.7675L20.1139 33.9473C20.1311 33.9679 20.1464 33.99 20.1591 34.013L20.4042 33.8774ZM25.2729 36.2597C22.8668 35.8739 21.2407 35.0583 20.396 33.8643L20.1673 34.0261C21.0758 35.3102 22.792 36.1455 25.2286 36.5363L25.2729 36.2597ZM27.0778 37.8414C26.8327 37.0168 26.1246 36.3963 25.2729 36.2597L25.2286 36.5363C25.9743 36.6559 26.595 37.2002 26.8093 37.9212L27.0778 37.8414ZM27.5582 41.1419C27.5582 40.0243 27.3965 38.9137 27.0778 37.8414L26.8093 37.9212C27.1203 38.9676 27.2781 40.0514 27.2781 41.1419H27.5582ZM27.5582 41.732V41.1419H27.2781V41.732H27.5582ZM28.5509 41.5919H27.4181V41.872H28.5509V41.5919ZM28.4109 41.1419V41.732H28.691V41.1419H28.4109ZM28.8595 37.9485C28.5619 38.9872 28.4109 40.0615 28.4109 41.1419H28.691C28.691 40.0876 28.8383 39.0393 29.1287 38.0256L28.8595 37.9485ZM27.8597 27.8456C26.5744 29.973 26.4435 31.9841 26.4381 32.6428L26.7182 32.6451C26.7234 32.0148 26.8495 30.0593 28.0994 27.9904L27.8597 27.8456ZM29.5104 32.6286C29.4698 31.9035 29.2536 29.8055 28.1002 27.8469L27.8589 27.989C28.9791 29.8913 29.1912 31.9369 29.2307 32.6442L29.5104 32.6286ZM28.8149 33.2029C28.9938 33.0504 29.2024 32.8972 29.4413 32.7572L29.2998 32.5156C29.0453 32.6646 28.8233 32.8277 28.6332 32.9898L28.8149 33.2029ZM28.0195 34.0733C28.2132 33.8028 28.4757 33.4921 28.8149 33.2029L28.6332 32.9898C28.2732 33.2967 27.9958 33.6254 27.7918 33.9102L28.0195 34.0733ZM27.023 33.1703C27.3526 33.472 27.6048 33.792 27.789 34.0693L28.0223 33.9143C27.8281 33.6221 27.5617 33.2837 27.2121 32.9637L27.023 33.1703ZM26.5003 32.7603C26.6976 32.8922 26.8719 33.032 27.023 33.1703L27.2121 32.9636C27.0512 32.8165 26.8658 32.6678 26.6559 32.5275L26.5003 32.7603ZM37.3088 33.5275C37.6576 32.4321 37.5013 31.5564 37.4898 31.4955L37.2146 31.5477C37.2216 31.5846 37.3712 32.4085 37.042 33.4425L37.3088 33.5275ZM41.2115 28.0707C41.2115 30.5814 39.4894 32.7324 37.1398 33.3496L37.211 33.6204C39.6812 32.9716 41.4916 30.7112 41.4916 28.0707H41.2115ZM35.7545 22.6137C38.7634 22.6137 41.2115 25.0618 41.2115 28.0707H41.4916C41.4916 24.9071 38.9181 22.3337 35.7545 22.3337V22.6137ZM33.9666 22.9133C34.5375 22.7147 35.1359 22.6137 35.7545 22.6137V22.3337C35.105 22.3337 34.4754 22.4398 33.8746 22.6488L33.9666 22.9133ZM35.2561 24.9374C34.9703 24.1103 34.5518 23.3564 34.0306 22.6944L33.8105 22.8676C34.3128 23.5057 34.716 24.232 34.9914 25.0289L35.2561 24.9374ZM34.8189 25.8357C35.1877 25.7085 35.3833 25.3061 35.2561 24.9375L34.9914 25.0288C35.0681 25.2514 34.95 25.4942 34.7276 25.5709L34.8189 25.8357ZM33.9205 25.3986C34.0479 25.7674 34.45 25.9635 34.8191 25.8357L34.7274 25.571C34.5049 25.6481 34.2622 25.53 34.1852 25.3071L33.9205 25.3986ZM32.4837 23.0699C33.1151 23.7175 33.6123 24.5061 33.9205 25.3986L34.1852 25.3072C33.8633 24.3747 33.3437 23.5508 32.6842 22.8744L32.4837 23.0699ZM32.4644 23.0504C32.4716 23.0579 32.4787 23.0649 32.485 23.0712L32.683 22.8732C32.6764 22.8666 32.6711 22.8613 32.6659 22.8559L32.4644 23.0504ZM27.9844 21.1705C29.7074 21.1705 31.309 21.8751 32.4653 23.0513L32.665 22.855C31.4575 21.6266 29.7845 20.8904 27.9844 20.8904V21.1705ZM21.7061 27.4488C21.7061 23.987 24.5225 21.1705 27.9844 21.1705V20.8904C24.3679 20.8904 21.426 23.8323 21.426 27.4488H21.7061ZM20.9996 28.1552C21.3898 28.1552 21.7061 27.839 21.7061 27.4488H21.426C21.426 27.6843 21.2351 27.8752 20.9996 27.8752V28.1552ZM20.2932 27.4488C20.2932 27.839 20.6094 28.1552 20.9996 28.1552V27.8752C20.7641 27.8752 20.5733 27.6843 20.5733 27.4488H20.2932ZM21.9417 22.6956C20.9097 24.0047 20.2932 25.6563 20.2932 27.4488H20.5733C20.5733 25.7216 21.1671 24.1306 22.1617 22.8691L21.9417 22.6956ZM20.2142 22.6137C20.8339 22.6137 21.4336 22.7152 22.0056 22.9146L22.0978 22.6501C21.4958 22.4402 20.8649 22.3337 20.2142 22.3337V22.6137ZM14.7572 28.0707C14.7572 25.0618 17.2053 22.6137 20.2142 22.6137V22.3337C17.0506 22.3337 14.4771 24.9071 14.4771 28.0707H14.7572ZM18.8043 33.3433C16.4675 32.7175 14.7572 30.5724 14.7572 28.0707H14.4771C14.4771 30.7017 16.2751 32.9559 18.7319 33.6139L18.8043 33.3433ZM18.4156 31.1544C18.4005 31.221 18.1784 32.2647 18.6365 33.5264L18.8997 33.4308C18.4675 32.2401 18.6795 31.2571 18.6887 31.2162L18.4156 31.1544ZM19.1522 30.5934C18.7998 30.5687 18.4909 30.8189 18.4155 31.1546L18.6888 31.216C18.7359 31.0061 18.9276 30.8584 19.1327 30.8728L19.1522 30.5934ZM19.8056 31.221C19.7732 30.8734 19.4944 30.6168 19.152 30.5933L19.1329 30.8728C19.345 30.8873 19.5077 31.0427 19.5267 31.2469L19.8056 31.221ZM20.2187 31.7677C19.8765 31.5367 19.8095 31.237 19.8035 31.2066L19.5288 31.2613C19.5427 31.331 19.6354 31.7118 20.0619 31.9998L20.2187 31.7677ZM22.8222 31.9092C21.3014 32.2426 20.5615 31.9992 20.2186 31.7677L20.0619 31.9999C20.4912 32.2897 21.3187 32.5255 22.8822 32.1828L22.8222 31.9092ZM25.5085 31.9767C24.7807 31.7493 23.89 31.6751 22.8222 31.9092L22.8822 32.1828C23.9039 31.9588 24.7451 32.0316 25.425 32.244L25.5085 31.9767ZM27.4126 26.4769C25.7938 28.7072 25.4092 30.9282 25.327 32.1006L25.6064 32.1201C25.6862 30.9818 26.0605 28.8166 27.6393 26.6414L27.4126 26.4769ZM27.9829 26.1852C27.7571 26.1858 27.5451 26.2939 27.4125 26.477L27.6394 26.6413C27.7192 26.531 27.847 26.4656 27.9836 26.4653L27.9829 26.1852ZM27.9844 26.1852H27.9833V26.4653H27.9844V26.1852ZM28.5544 26.4744C28.4212 26.2926 28.2096 26.1852 27.9844 26.1852V26.4653C28.1202 26.4653 28.248 26.5301 28.3285 26.6399L28.5544 26.4744ZM30.6171 32.1696C30.5097 30.9905 30.102 28.589 28.5545 26.4744L28.3285 26.6398C29.8329 28.6954 30.2328 31.0384 30.3382 32.195L30.6171 32.1696ZM33.062 32.0931C32.0352 31.8292 31.1649 31.8609 30.4428 32.0466L30.5125 32.3179C31.1874 32.1443 32.0096 32.1118 32.9923 32.3644L33.062 32.0931ZM35.6687 32.045C35.3188 32.2641 34.5715 32.4811 33.062 32.0931L32.9923 32.3644C34.544 32.7632 35.3787 32.5571 35.8173 32.2824L35.6687 32.045ZM36.1004 31.5012C36.0935 31.531 36.0167 31.8271 35.6687 32.045L35.8173 32.2824C36.2517 32.0104 36.3572 31.6339 36.3733 31.5646L36.1004 31.5012ZM36.7721 30.9097C36.4294 30.922 36.142 31.169 36.0979 31.5152L36.3758 31.5506C36.4016 31.3472 36.5696 31.1972 36.7822 31.1896L36.7721 30.9097ZM37.4898 31.4955C37.4256 31.1576 37.1269 30.8969 36.7721 30.9097L36.7822 31.1896C36.989 31.1821 37.1744 31.336 37.2146 31.5477L37.4898 31.4955Z" fill="black"/>
<path d="M34.9545 26.7129C34.6504 26.7142 34.405 26.9576 34.4063 27.2568V27.2726C34.4063 27.5717 34.6527 27.8142 34.9569 27.8142C35.261 27.8142 35.5075 27.5717 35.5075 27.2726V27.2521C35.5062 26.953 35.2597 26.7127 34.9545 26.7129Z" fill="black"/>
<path d="M22.8434 17.1677C22.9888 17.1677 23.1302 17.1092 23.2329 17.0064C23.3357 16.9038 23.3942 16.7622 23.3942 16.617C23.3942 16.4721 23.3357 16.3301 23.2329 16.2277C23.1302 16.1253 22.9888 16.0664 22.8434 16.0664C22.6984 16.0664 22.5563 16.1253 22.4539 16.2277C22.3515 16.3301 22.293 16.4721 22.293 16.617C22.293 16.7618 22.3515 16.9038 22.4539 17.0064C22.5563 17.1092 22.6984 17.1677 22.8434 17.1677Z" fill="black"/>
</svg>
