<svg width="40" height="40" viewBox="0 0 40 40" fill="none" xmlns="http://www.w3.org/2000/svg">
<path d="M22.2256 23.1966C22.2256 23.1966 26.234 22.0299 25.859 20.9882C25.484 19.9466 21.5006 17.9216 21.8923 15.9799C22.284 14.0382 20.5506 14.0466 20.7006 12.8466C21.1423 9.21323 22.3673 5.26323 24.8173 2.4549C25.059 2.17156 24.8423 1.74656 24.4673 1.77156C22.0006 1.9299 19.5173 2.59656 17.159 3.86323C14.3663 5.36561 12.1099 7.54779 10.5039 10.1116M24.9923 28.3966C26.8756 29.0049 25.8256 30.2549 27.4506 31.2882C29.0756 32.3132 33.4756 32.6632 36.984 32.6466C37.3756 32.6466 37.5506 33.1382 37.2506 33.3882C35.8423 34.5882 34.234 35.5882 32.4256 36.3216C23.034 40.1382 12.2923 35.4466 8.78397 25.8382C7.83958 23.2541 7.53978 20.5553 7.80988 17.9372" stroke="black" stroke-width="1.5" stroke-miterlimit="10" stroke-linecap="round"/>
<path d="M21.8906 26.3858C21.8906 26.3858 23.6823 26.3025 25.024 25.2441C26.3656 24.1941 24.2645 24.9417 24.0645 22.875" stroke="black" stroke-width="1.5" stroke-miterlimit="10" stroke-linecap="round"/>
<path d="M19.1044 14.9346C19.1044 14.9346 14.9711 15.5512 13.7461 17.4596" stroke="black" stroke-width="1.5" stroke-miterlimit="10" stroke-linecap="round"/>
<path d="M16.1562 18.8764L18.5062 18.0264" stroke="black" stroke-width="1.5" stroke-miterlimit="10" stroke-linecap="round"/>
<path d="M6.8584 6.12109C6.8584 9.42765 2.90625 10.6712 2.90625 13.9404C2.90625 15.968 4.6752 17.6108 6.8584 17.6108C9.0416 17.6108 10.8105 15.968 10.8105 13.9404C10.8105 10.6712 6.8584 9.42765 6.8584 6.12109Z" stroke="black" stroke-width="1.5" stroke-linecap="round" stroke-linejoin="round"/>
<path d="M35.0282 13.625C35.0282 15.9232 32.2812 16.7875 32.2812 19.0597C32.2812 20.469 33.5107 21.6108 35.0282 21.6108C36.5456 21.6108 37.7751 20.469 37.7751 19.0597C37.7751 16.7875 35.0282 15.9232 35.0282 13.625Z" stroke="black" stroke-width="1.5" stroke-linecap="round" stroke-linejoin="round"/>
<path d="M29.84 7.4375C29.84 8.94429 28.0391 9.51099 28.0391 11.0007C28.0391 11.9247 28.8452 12.6733 29.84 12.6733C30.8349 12.6733 31.641 11.9247 31.641 11.0007C31.641 9.51099 29.84 8.94429 29.84 7.4375Z" stroke="black" stroke-width="1.5" stroke-linecap="round" stroke-linejoin="round"/>
</svg>
