<svg width="37" height="37" viewBox="0 0 37 37" fill="none" xmlns="http://www.w3.org/2000/svg">
<path d="M18.5 0.5C21.0312 0.5 23.2812 1.97656 24.4062 4.15625C26.7266 3.38281 29.3984 3.94531 31.2266 5.77344C33.0547 7.60156 33.6172 10.2734 32.8438 12.5938C35.0234 13.7188 36.5 15.9688 36.5 18.5C36.5 21.1016 35.0234 23.3516 32.8438 24.4766C33.6172 26.7969 33.0547 29.3984 31.2266 31.2266C29.3984 33.0547 26.7266 33.6172 24.4062 32.9141C23.2812 35.0938 21.0312 36.5 18.5 36.5C15.8984 36.5 13.6484 35.0938 12.5234 32.9141C10.2031 33.6172 7.60156 33.0547 5.77344 31.2266C3.94531 29.3984 3.38281 26.7969 4.08594 24.4766C1.90625 23.3516 0.5 21.1016 0.5 18.5C0.5 15.9688 1.90625 13.7188 4.08594 12.5938C3.38281 10.2734 3.94531 7.60156 5.77344 5.77344C7.60156 3.94531 10.2031 3.38281 12.5234 4.15625C13.6484 1.97656 15.8984 0.5 18.5 0.5ZM26.4453 15.1953L27.6406 14L25.25 11.6797L24.0547 12.875L16.25 20.6797L12.9453 17.375L11.75 16.1797L9.35938 18.5L10.5547 19.6953L15.0547 24.1953L16.25 25.3906L17.4453 24.1953L26.4453 15.1953Z" fill="#F1AD3D"/>
</svg>
