<svg width="47" height="47" viewBox="0 0 47 47" fill="none" xmlns="http://www.w3.org/2000/svg">
<g filter="url(#filter0_d_6679_2791)">
<circle cx="23.5183" cy="22.8245" r="8.69412" fill="white"/>
<path d="M23.5195 11C25.2801 11 26.845 12.027 27.6275 13.543C29.2413 13.0051 31.0997 13.3963 32.3712 14.6678C33.6427 15.9393 34.034 17.7977 33.496 19.4116C35.0121 20.194 36.0391 21.759 36.0391 23.5195C36.0391 25.329 35.0121 26.8939 33.496 27.6764C34.034 29.2903 33.6427 31.0997 32.3712 32.3712C31.0997 33.6427 29.2413 34.034 27.6275 33.5449C26.845 35.061 25.2801 36.0391 23.5195 36.0391C21.7101 36.0391 20.1451 35.061 19.3627 33.5449C17.7488 34.034 15.9393 33.6427 14.6678 32.3712C13.3963 31.0997 13.0051 29.2903 13.4941 27.6764C11.9781 26.8939 11 25.329 11 23.5195C11 21.759 11.9781 20.194 13.4941 19.4116C13.0051 17.7977 13.3963 15.9393 14.6678 14.6678C15.9393 13.3963 17.7488 13.0051 19.3627 13.543C20.1451 12.027 21.7101 11 23.5195 11ZM29.8771 20.3896L28.2144 18.7758L21.9546 25.0356L18.8247 21.9057L17.162 23.5195L21.9546 28.3122L29.8771 20.3896Z" fill="#F1AD3D"/>
</g>
<defs>
<filter id="filter0_d_6679_2791" x="0.986331" y="0.986331" width="45.0664" height="45.0664" filterUnits="userSpaceOnUse" color-interpolation-filters="sRGB">
<feFlood flood-opacity="0" result="BackgroundImageFix"/>
<feColorMatrix in="SourceAlpha" type="matrix" values="0 0 0 0 0 0 0 0 0 0 0 0 0 0 0 0 0 0 127 0" result="hardAlpha"/>
<feOffset/>
<feGaussianBlur stdDeviation="5.00683"/>
<feComposite in2="hardAlpha" operator="out"/>
<feColorMatrix type="matrix" values="0 0 0 0 0.946437 0 0 0 0 0.678815 0 0 0 0 0.239983 0 0 0 1 0"/>
<feBlend mode="normal" in2="BackgroundImageFix" result="effect1_dropShadow_6679_2791"/>
<feBlend mode="normal" in="SourceGraphic" in2="effect1_dropShadow_6679_2791" result="shape"/>
</filter>
</defs>
</svg>
