<svg width="57" height="55" viewBox="0 0 57 55" fill="none" xmlns="http://www.w3.org/2000/svg">
<rect x="0.5" y="0.5" width="55.4224" height="54" rx="27" stroke="black"/>
<path d="M28.2891 41.5762C36.2972 41.5762 42.7891 35.0843 42.7891 27.0762C42.7891 19.068 36.2972 12.5762 28.2891 12.5762C20.2809 12.5762 13.7891 19.068 13.7891 27.0762C13.7891 35.0843 20.2809 41.5762 28.2891 41.5762Z" stroke="black" stroke-width="1.25" stroke-linecap="round" stroke-linejoin="round"/>
<path d="M38.5411 16.8232L18.0352 37.3291" stroke="black" stroke-width="1.25" stroke-linecap="round" stroke-linejoin="round"/>
<path d="M32.6385 17.8923C33.1724 17.8923 33.6052 17.4595 33.6052 16.9257C33.6052 16.3918 33.1724 15.959 32.6385 15.959C32.1047 15.959 31.6719 16.3918 31.6719 16.9257C31.6719 17.4595 32.1047 17.8923 32.6385 17.8923Z" stroke="black" stroke-width="1.25" stroke-linecap="round" stroke-linejoin="round"/>
<path d="M24.9042 20.7927C25.438 20.7927 25.8708 20.3599 25.8708 19.826C25.8708 19.2922 25.438 18.8594 24.9042 18.8594C24.3703 18.8594 23.9375 19.2922 23.9375 19.826C23.9375 20.3599 24.3703 20.7927 24.9042 20.7927Z" stroke="black" stroke-width="1.25" stroke-linecap="round" stroke-linejoin="round"/>
<path d="M36.9901 27.5593C37.524 27.5593 37.9568 27.1265 37.9568 26.5926C37.9568 26.0588 37.524 25.626 36.9901 25.626C36.4562 25.626 36.0234 26.0588 36.0234 26.5926C36.0234 27.1265 36.4562 27.5593 36.9901 27.5593Z" stroke="black" stroke-width="1.25" stroke-linecap="round" stroke-linejoin="round"/>
<path d="M21.5214 25.6267C22.0552 25.6267 22.488 25.1939 22.488 24.66C22.488 24.1262 22.0552 23.6934 21.5214 23.6934C20.9875 23.6934 20.5547 24.1262 20.5547 24.66C20.5547 25.1939 20.9875 25.6267 21.5214 25.6267Z" stroke="black" stroke-width="1.25" stroke-linecap="round" stroke-linejoin="round"/>
<path d="M21.7641 21.7596C22.1645 21.7596 22.4891 21.435 22.4891 21.0346C22.4891 20.6342 22.1645 20.3096 21.7641 20.3096C21.3637 20.3096 21.0391 20.6342 21.0391 21.0346C21.0391 21.435 21.3637 21.7596 21.7641 21.7596Z" fill="black"/>
<path d="M23.456 23.2089C23.7229 23.2089 23.9393 22.9925 23.9393 22.7255C23.9393 22.4586 23.7229 22.2422 23.456 22.2422C23.1891 22.2422 22.9727 22.4586 22.9727 22.7255C22.9727 22.9925 23.1891 23.2089 23.456 23.2089Z" fill="black"/>
<path d="M36.9872 29.9764C37.2542 29.9764 37.4706 29.76 37.4706 29.4931C37.4706 29.2262 37.2542 29.0098 36.9872 29.0098C36.7203 29.0098 36.5039 29.2262 36.5039 29.4931C36.5039 29.76 36.7203 29.9764 36.9872 29.9764Z" fill="black"/>
<path d="M26.3583 36.743C26.6253 36.743 26.8417 36.5266 26.8417 36.2597C26.8417 35.9928 26.6253 35.7764 26.3583 35.7764C26.0914 35.7764 25.875 35.9928 25.875 36.2597C25.875 36.5266 26.0914 36.743 26.3583 36.743Z" fill="black"/>
<path d="M31.1865 36.743C31.4534 36.743 31.6698 36.5266 31.6698 36.2597C31.6698 35.9928 31.4534 35.7764 31.1865 35.7764C30.9195 35.7764 30.7031 35.9928 30.7031 36.2597C30.7031 36.5266 30.9195 36.743 31.1865 36.743Z" fill="black"/>
<path d="M28.7724 37.2264C29.0393 37.2264 29.2557 37.01 29.2557 36.7431C29.2557 36.4762 29.0393 36.2598 28.7724 36.2598C28.5055 36.2598 28.2891 36.4762 28.2891 36.7431C28.2891 37.01 28.5055 37.2264 28.7724 37.2264Z" fill="black"/>
<path d="M18.3841 32.8766C19.0515 32.8766 19.5924 32.3356 19.5924 31.6683C19.5924 31.001 19.0515 30.46 18.3841 30.46C17.7168 30.46 17.1758 31.001 17.1758 31.6683C17.1758 32.3356 17.7168 32.8766 18.3841 32.8766Z" stroke="black" stroke-width="1.25" stroke-linecap="round" stroke-linejoin="round"/>
<path d="M30.4701 32.3932C31.1374 32.3932 31.6784 31.8522 31.6784 31.1849C31.6784 30.5176 31.1374 29.9766 30.4701 29.9766C29.8027 29.9766 29.2617 30.5176 29.2617 31.1849C29.2617 31.8522 29.8027 32.3932 30.4701 32.3932Z" stroke="black" stroke-width="1.25" stroke-linecap="round" stroke-linejoin="round"/>
<path d="M31.9164 34.8105C32.3651 34.8105 32.7953 34.9888 33.1126 35.306C33.4298 35.6233 33.6081 36.0536 33.6081 36.5022C33.6081 36.9509 33.4298 37.3812 33.1126 37.6984C32.7953 38.0157 32.3651 38.1939 31.9164 38.1939H25.6331C25.1844 38.1939 24.7541 38.0157 24.4369 37.6984C24.1196 37.3812 23.9414 36.9509 23.9414 36.5022C23.9414 36.0536 24.1196 35.6233 24.4369 35.306C24.7541 34.9888 25.1844 34.8105 25.6331 34.8105H31.9164Z" stroke="black" stroke-width="1.25" stroke-linecap="round" stroke-linejoin="round"/>
<path d="M24.9083 16.9263C22.975 16.9263 18.625 18.8596 18.625 23.6929C18.625 27.0763 20.5583 27.5596 21.525 27.5596C23.4583 27.5596 23.9417 24.6596 24.9083 23.6929C25.875 22.7263 27.8083 21.7596 27.8083 19.8263C27.8245 19.4411 27.7605 19.0568 27.6204 18.6977C27.4804 18.3386 27.2674 18.0124 26.9948 17.7398C26.7222 17.4672 26.396 17.2542 26.0369 17.1142C25.6778 16.9741 25.2935 16.9101 24.9083 16.9263Z" stroke="black" stroke-width="1.25" stroke-linecap="round" stroke-linejoin="round"/>
<path d="M22.816 17.4197L22.4922 16.4434" stroke="black" stroke-width="1.25" stroke-linecap="round" stroke-linejoin="round"/>
<path d="M27.328 16.4434L26.4531 17.3182" stroke="black" stroke-width="1.25" stroke-linecap="round" stroke-linejoin="round"/>
<path d="M28.7753 19.8262H27.8086" stroke="black" stroke-width="1.25" stroke-linecap="round" stroke-linejoin="round"/>
<path d="M26.3593 23.6933L25.6875 23.0215" stroke="black" stroke-width="1.25" stroke-linecap="round" stroke-linejoin="round"/>
<path d="M23.9396 27.5597L23.0938 26.7139" stroke="black" stroke-width="1.25" stroke-linecap="round" stroke-linejoin="round"/>
<path d="M20.0393 27.1445L19.5898 28.0435" stroke="black" stroke-width="1.25" stroke-linecap="round" stroke-linejoin="round"/>
<path d="M18.709 24.7949L17.6602 25.1429" stroke="black" stroke-width="1.25" stroke-linecap="round" stroke-linejoin="round"/>
<path d="M19.5868 20.1452L18.625 19.8262" stroke="black" stroke-width="1.25" stroke-linecap="round" stroke-linejoin="round"/>
<path d="M36.9898 23.6934C37.9565 23.6934 39.8898 24.1767 39.8898 27.0767C39.8898 29.9767 38.4398 31.4267 36.5065 31.4267C36.2388 31.4469 35.9714 31.3841 35.7408 31.2469C35.5101 31.1096 35.3273 30.9045 35.2175 30.6596C35.0883 30.3804 35.0533 30.0668 35.1179 29.766C35.1816 29.5141 35.16 29.2483 35.0565 29.01C34.5732 28.0434 34.0898 27.56 34.0898 26.11C34.0898 24.66 35.5398 23.6934 36.9898 23.6934Z" stroke="black" stroke-width="1.25" stroke-linecap="round" stroke-linejoin="round"/>
<path d="M36.9922 23.6932V22.7266" stroke="black" stroke-width="1.25" stroke-linecap="round" stroke-linejoin="round"/>
<path d="M40.3748 24.6602L39.3984 24.984" stroke="black" stroke-width="1.25" stroke-linecap="round" stroke-linejoin="round"/>
<path d="M40.3773 29.4933L39.5508 29.2178" stroke="black" stroke-width="1.25" stroke-linecap="round" stroke-linejoin="round"/>
<path d="M37.476 32.3928L37.1328 31.3682" stroke="black" stroke-width="1.25" stroke-linecap="round" stroke-linejoin="round"/>
<path d="M35.0903 30.127L34.0898 30.4605" stroke="black" stroke-width="1.25" stroke-linecap="round" stroke-linejoin="round"/>
<path d="M34.0917 26.1104H33.125" stroke="black" stroke-width="1.25" stroke-linecap="round" stroke-linejoin="round"/>
</svg>
