<svg width="57" height="55" viewBox="0 0 57 55" fill="none" xmlns="http://www.w3.org/2000/svg">
<rect x="0.5" y="0.5" width="55.4224" height="54" rx="27" stroke="black"/>
<path d="M44.4636 40.8609H41.5224V39.9731C41.5224 39.6039 41.2231 39.3047 40.8539 39.3047C40.4847 39.3047 40.1854 39.6039 40.1854 39.9731V40.8609H28.6877V39.9731C28.6877 39.6039 28.3884 39.3047 28.0192 39.3047C27.65 39.3047 27.3507 39.6039 27.3507 39.9731V40.8609H15.853V39.9731C15.853 39.6039 15.5537 39.3047 15.1845 39.3047C14.8153 39.3047 14.516 39.6039 14.516 39.9731V40.8609H11.5747C11.2055 40.8609 10.9062 41.1602 10.9062 41.5294C10.9062 41.8986 11.2055 42.1978 11.5747 42.1978H44.4636C44.8329 42.1978 45.1321 41.8986 45.1321 41.5294C45.1321 41.1602 44.8329 40.8609 44.4636 40.8609Z" fill="black"/>
<path d="M44.4614 37.9199C44.6372 37.9199 44.8098 37.8484 44.9341 37.7241C45.0584 37.5998 45.1299 37.4272 45.1299 37.2515C45.1299 37.0757 45.0584 36.9031 44.9341 36.7788C44.8098 36.6546 44.6372 36.583 44.4614 36.583C44.2857 36.583 44.1131 36.6546 43.9888 36.7788C43.8645 36.9031 43.793 37.0757 43.793 37.2515C43.793 37.4272 43.8645 37.5998 43.9888 37.7241C44.1131 37.8484 44.2857 37.9199 44.4614 37.9199Z" fill="black"/>
<path d="M11.5747 37.9198H20.942V38.8076C20.942 39.1768 21.2412 39.476 21.6105 39.476C21.9794 39.476 22.2789 39.1768 22.2789 38.8076V37.9198H33.7767V38.8076C33.7767 39.1768 34.0759 39.476 34.4452 39.476C34.8141 39.476 35.1136 39.1768 35.1136 38.8076V37.9198H41.79C42.159 37.9198 42.4585 37.6206 42.4585 37.2513C42.4585 36.8821 42.159 36.5829 41.79 36.5829H34.9314C36.7402 35.8513 38.4299 34.8287 39.9431 33.5388V34.0895C39.9431 34.4587 40.2423 34.758 40.6116 34.758C40.9808 34.758 41.28 34.4587 41.28 34.0895V31.9907C41.28 31.6215 40.9808 31.3223 40.6116 31.3223H38.5127C38.1437 31.3223 37.8442 31.6215 37.8442 31.9907C37.8442 32.3599 38.1437 32.6592 38.5127 32.6592H38.9122C35.8552 35.1995 32.0436 36.5829 28.0192 36.5829C23.9948 36.5829 20.1832 35.1995 17.1262 32.6592H17.5257C17.8947 32.6592 18.1942 32.3599 18.1942 31.9907C18.1942 31.6215 17.8947 31.3223 17.5257 31.3223H15.4268C15.0576 31.3223 14.7583 31.6215 14.7583 31.9907V34.0895C14.7583 34.4587 15.0576 34.758 15.4268 34.758C15.796 34.758 16.0953 34.4587 16.0953 34.0895V33.5388C17.6085 34.8285 19.2982 35.851 21.107 36.5829H11.5747C11.2055 36.5829 10.9062 36.8821 10.9062 37.2513C10.9062 37.6206 11.2055 37.9198 11.5747 37.9198Z" fill="black"/>
<path d="M19.41 27.2419C19.534 27.4562 19.7586 27.5761 19.9897 27.5761C20.103 27.5761 20.2179 27.5471 20.3231 27.4863L22.5659 26.1917L22.1899 27.5949C22.0943 27.9516 22.3058 28.3182 22.6625 28.4135C22.7205 28.4292 22.7787 28.4365 22.8359 28.4365C23.131 28.4365 23.4012 28.2396 23.4811 27.9409L24.2031 25.2462L27.3528 23.4281V27.0646L25.38 29.0373C25.1192 29.2984 25.1192 29.7217 25.38 29.9828C25.6411 30.2436 26.0644 30.2436 26.3255 29.9828L27.3528 28.9553V31.5447C27.3528 31.914 27.652 32.2132 28.0213 32.2132C28.3905 32.2132 28.6897 31.914 28.6897 31.5447V28.9553L29.717 29.9828C29.8476 30.1133 30.0186 30.1783 30.1896 30.1783C30.3607 30.1783 30.532 30.1133 30.6625 29.9828C30.9234 29.7217 30.9234 29.2984 30.6625 29.0373L28.6897 27.0646V23.4281L31.8394 25.2465L32.5614 27.9411C32.6413 28.2398 32.9113 28.4367 33.2066 28.4367C33.2638 28.4367 33.3221 28.4294 33.38 28.4137C33.7367 28.3182 33.9482 27.9518 33.8527 27.5952L33.4766 26.1919L35.7194 27.4865C35.8247 27.5474 35.9396 27.5764 36.0529 27.5764C36.284 27.5764 36.5088 27.4565 36.6326 27.2419C36.8172 26.9223 36.7075 26.5134 36.3879 26.3288L34.1451 25.0342L35.5487 24.6582C35.9051 24.5626 36.1169 24.196 36.0213 23.8393C35.9257 23.4829 35.5591 23.2711 35.2027 23.3667L32.5079 24.0887L29.3582 22.2703L32.5079 20.4519L35.2027 21.1739C35.2606 21.1896 35.3186 21.1969 35.3761 21.1969C35.6711 21.1969 35.9411 21 36.0213 20.7013C36.1169 20.3446 35.9051 19.9783 35.5487 19.8827L34.1451 19.5067L36.3879 18.2118C36.7075 18.0272 36.8172 17.6186 36.6326 17.2987C36.448 16.9791 36.0393 16.8695 35.7194 17.0541L33.4766 18.3489L33.8527 16.9454C33.9482 16.589 33.7367 16.2224 33.38 16.1269C33.0231 16.0313 32.657 16.243 32.5614 16.5995L31.8394 19.2941L28.6897 21.1125V17.4758L30.6625 15.5033C30.9234 15.2422 30.9234 14.8189 30.6625 14.5578C30.4014 14.2967 29.9781 14.2967 29.717 14.5578L28.6897 15.585V12.9956C28.6897 12.6264 28.3905 12.3271 28.0213 12.3271C27.652 12.3271 27.3528 12.6264 27.3528 12.9956V15.585L26.3255 14.5578C26.0644 14.297 25.6411 14.297 25.38 14.5578C25.1192 14.8189 25.1192 15.2422 25.38 15.5033L27.3528 17.4758V21.1125L24.2031 19.2941L23.4811 16.5995C23.3856 16.2428 23.0187 16.031 22.6625 16.1269C22.3058 16.2224 22.0943 16.589 22.1899 16.9454L22.5659 18.3489L20.3231 17.0541C20.0032 16.8695 19.5946 16.9791 19.41 17.2987C19.2254 17.6183 19.335 18.0272 19.6546 18.2118L21.8974 19.5064L20.4942 19.8824C20.1375 19.978 19.9257 20.3446 20.0213 20.7013C20.1014 21 20.3714 21.1969 20.6668 21.1969C20.7239 21.1969 20.7822 21.1896 20.8401 21.1739L23.5349 20.4519L26.6843 22.2703L23.5347 24.0887L20.8399 23.3664C20.4834 23.2709 20.1168 23.4826 20.0213 23.8391C19.9257 24.1957 20.1375 24.5623 20.4939 24.6579L21.8974 25.0339L19.6546 26.3288C19.335 26.5131 19.2254 26.922 19.41 27.2419Z" fill="black"/>
</svg>
