<svg width="40" height="40" viewBox="0 0 40 40" fill="none" xmlns="http://www.w3.org/2000/svg">
<g clip-path="url(#clip0_6679_2797)">
<path d="M29.7539 14.9998V25.8331" stroke="black" stroke-width="1.5" stroke-linecap="round" stroke-linejoin="round"/>
<path d="M25.5859 21.6663C22.6193 23.183 20.5859 26.4413 20.5859 29.9997C20.5859 35.0663 24.6859 39.1663 29.7526 39.1663C34.8193 39.1663 38.9193 35.0663 38.9193 29.9997C38.9193 26.4413 36.8859 23.183 33.9193 21.6663V5.43301C33.9193 2.89134 32.2609 0.833008 29.7193 0.833008C27.1776 0.833008 25.5859 2.89134 25.5859 5.43301V21.6663Z" stroke="black" stroke-width="1.5" stroke-linecap="round" stroke-linejoin="round"/>
<path d="M29.7526 34.1663C32.0538 34.1663 33.9193 32.3009 33.9193 29.9997C33.9193 27.6985 32.0538 25.833 29.7526 25.833C27.4514 25.833 25.5859 27.6985 25.5859 29.9997C25.5859 32.3009 27.4514 34.1663 29.7526 34.1663Z" stroke="black" stroke-width="1.5" stroke-linecap="round" stroke-linejoin="round"/>
<path d="M9.99846 14.1698C11.6804 14.1698 13.0438 12.8063 13.0438 11.1244C13.0438 9.44254 11.6804 8.0791 9.99846 8.0791C8.31657 8.0791 6.95312 9.44254 6.95312 11.1244C6.95312 12.8063 8.31657 14.1698 9.99846 14.1698Z" stroke="black" stroke-width="1.5" stroke-linecap="round" stroke-linejoin="round"/>
<path d="M10 5.9476V2.75" stroke="black" stroke-width="1.5" stroke-linecap="round" stroke-linejoin="round"/>
<path d="M6.33929 7.46282L4.07812 5.20166" stroke="black" stroke-width="1.5" stroke-linecap="round" stroke-linejoin="round"/>
<path d="M4.8226 11.125H1.625" stroke="black" stroke-width="1.5" stroke-linecap="round" stroke-linejoin="round"/>
<path d="M6.33929 14.7866L4.07812 17.0478" stroke="black" stroke-width="1.5" stroke-linecap="round" stroke-linejoin="round"/>
<path d="M10 16.3015V19.4991" stroke="black" stroke-width="1.5" stroke-linecap="round" stroke-linejoin="round"/>
<path d="M13.6641 14.7866L15.9252 17.0478" stroke="black" stroke-width="1.5" stroke-linecap="round" stroke-linejoin="round"/>
<path d="M15.1758 11.125H18.3734" stroke="black" stroke-width="1.5" stroke-linecap="round" stroke-linejoin="round"/>
<path d="M13.6641 7.46282L15.9252 5.20166" stroke="black" stroke-width="1.5" stroke-linecap="round" stroke-linejoin="round"/>
<path d="M10.1891 30.3874C10.1891 30.6511 9.96347 30.8478 9.70683 30.8478C9.45019 30.8478 9.22459 30.6511 9.22459 30.3874V23.2479C9.22459 22.9841 9.45019 22.7875 9.70683 22.7875C9.96347 22.7875 10.1891 22.9841 10.1891 23.2479V30.3874Z" fill="black" stroke="black" stroke-width="0.3"/>
<path d="M9.64803 26.8131H9.70717C9.81878 26.8131 9.93354 26.7759 10.0258 26.6978C10.2268 26.5281 10.2463 26.2316 10.0618 26.0406L10.0619 26.0407L9.95386 26.1447L10.0618 26.0405L8.26782 24.1782L8.26768 24.1781C8.08936 23.9934 7.78999 23.98 7.5942 24.144L7.59381 24.1443C7.39268 24.3139 7.37316 24.6105 7.55763 24.8016L7.55756 24.8015L7.66559 24.6974L7.5577 24.8016L9.3515 26.6638L9.64803 26.8131ZM9.64803 26.8131L9.64294 26.8084M9.64803 26.8131L9.64294 26.8084M9.64294 26.8084C9.53659 26.795 9.43216 26.7477 9.35163 26.664L9.64294 26.8084Z" fill="black" stroke="black" stroke-width="0.3"/>
<path d="M10.1891 37.527C10.1891 37.7908 9.96347 37.9874 9.70683 37.9874C9.45019 37.9874 9.22459 37.7908 9.22459 37.527V30.3876C9.22459 30.1238 9.45019 29.9271 9.70683 29.9271C9.96347 29.9271 10.1891 30.1238 10.1891 30.3876V37.527Z" fill="black" stroke="black" stroke-width="0.3"/>
<path d="M8.26736 36.5974L8.26782 36.5969L10.0618 34.7346C10.0618 34.7345 10.0618 34.7345 10.0618 34.7345L10.0619 34.7344L9.95386 34.6304L8.26736 36.5974ZM8.26736 36.5974C8.18737 36.6797 8.08335 36.7276 7.97658 36.7412L7.97144 36.746M8.26736 36.5974L7.97144 36.746M7.97144 36.746H7.91227M7.97144 36.746H7.91227M7.91227 36.746C7.80064 36.746 7.68585 36.7088 7.59361 36.6306L7.91227 36.746ZM7.5576 35.9735C7.55763 35.9735 7.55767 35.9735 7.5577 35.9734L7.5576 35.9735Z" fill="black" stroke="black" stroke-width="0.3"/>
<path d="M9.96648 30.775L9.96631 30.7751L3.98648 34.4183C3.98641 34.4183 3.98635 34.4184 3.98629 34.4184C3.90562 34.4678 3.81511 34.4909 3.72696 34.4909H3.72613C3.5737 34.4909 3.41943 34.4209 3.32491 34.2855L3.32445 34.2849C3.17368 34.0665 3.24297 33.7785 3.46685 33.6417L3.46702 33.6416L9.44726 29.9982L9.44725 29.9982L9.44786 29.9978C9.66656 29.866 9.96039 29.9197 10.1083 30.131L10.1083 30.131L10.1089 30.1318C10.2596 30.3502 10.1904 30.6382 9.96648 30.775Z" fill="black" stroke="black" stroke-width="0.3"/>
<path d="M6.1369 35.1523L6.13697 35.1521L6.79644 32.5556C6.79644 32.5555 6.79645 32.5555 6.79646 32.5555C6.85911 32.3092 6.70329 32.0729 6.46515 32.0056C6.46514 32.0056 6.46513 32.0056 6.46512 32.0056C6.4651 32.0056 6.46508 32.0056 6.46505 32.0056L4.00419 31.3095L4.00411 31.3095L3.96329 31.4539C3.78803 31.4042 3.60198 31.4965 3.54883 31.6611L6.1369 35.1523ZM6.1369 35.1523C6.08154 35.3686 5.8797 35.5042 5.66849 35.5042C5.63068 35.5042 5.59445 35.4996 5.56028 35.4924L5.56028 35.4924L5.55879 35.4921C5.30675 35.4362 5.13374 35.1932 5.19917 34.9355L5.19917 34.9354L5.75047 32.7644L6.1369 35.1523Z" fill="black" stroke="black" stroke-width="0.3"/>
<path d="M9.96612 29.9985L9.96594 29.9984L3.98588 26.3551L9.96612 29.9985ZM9.96612 29.9985C10.1891 30.1348 10.2609 30.4235 10.1083 30.642L9.96612 29.9985Z" fill="black" stroke="black" stroke-width="0.3"/>
<path d="M4.00412 29.4645L4.00411 29.4645L6.46505 28.7684C6.46508 28.7684 6.46512 28.7684 6.46515 28.7684C6.70329 28.7011 6.85911 28.4648 6.79646 28.2185L4.00412 29.4645ZM4.00412 29.4645L4.00151 29.4652C3.9587 29.4765 3.91369 29.4833 3.86777 29.4833L4.00412 29.4645ZM6.13697 25.6219L6.79644 28.2184L5.20004 25.8387L5.34539 25.8016L5.2 25.8386L5.20003 25.8387C5.13452 25.5817 5.30751 25.3378 5.55962 25.2819C5.80946 25.2266 6.07273 25.3689 6.13697 25.6219C6.13697 25.6219 6.13697 25.6219 6.13697 25.6219ZM5.7513 28.0096L5.89177 27.9699L5.93261 28.1142L5.78723 28.1511L5.7513 28.0096ZM3.86694 29.4833C3.66737 29.483 3.4724 29.3623 3.40692 29.1591C3.4069 29.159 3.40688 29.1589 3.40686 29.1589L3.54966 29.1129L3.86694 29.4833ZM3.77142 28.7257L3.73058 28.5814L3.7307 28.5813L3.77142 28.7257Z" fill="black" stroke="black" stroke-width="0.3"/>
<path d="M9.26797 30.3874C9.26797 30.6511 9.49356 30.8478 9.7502 30.8478C10.0068 30.8478 10.2324 30.6511 10.2324 30.3874V23.2479C10.2324 22.9841 10.0068 22.7875 9.7502 22.7875C9.49356 22.7875 9.26797 22.9841 9.26797 23.2479V30.3874Z" fill="black" stroke="black" stroke-width="0.3"/>
<path d="M9.809 26.8131H9.74986C9.63825 26.8131 9.52349 26.7759 9.43127 26.6978C9.23024 26.5281 9.21078 26.2316 9.39524 26.0406L9.39514 26.0407L9.50317 26.1447L9.39528 26.0405L11.1892 24.1782L11.1894 24.1781C11.3677 23.9934 11.667 23.98 11.8628 24.144L11.8632 24.1443C12.0644 24.3139 12.0839 24.6105 11.8994 24.8016L11.8995 24.8015L11.7914 24.6974L11.8993 24.8016L10.1055 26.6638L9.809 26.8131ZM9.809 26.8131L9.81409 26.8084M9.809 26.8131L9.81409 26.8084M9.81409 26.8084C9.92044 26.795 10.0249 26.7477 10.1054 26.664L9.81409 26.8084Z" fill="black" stroke="black" stroke-width="0.3"/>
<path d="M9.26797 37.527C9.26797 37.7908 9.49356 37.9874 9.7502 37.9874C10.0068 37.9874 10.2324 37.7908 10.2324 37.527V30.3876C10.2324 30.1238 10.0068 29.9271 9.7502 29.9271C9.49356 29.9271 9.26797 30.1238 9.26797 30.3876V37.527Z" fill="black" stroke="black" stroke-width="0.3"/>
<path d="M11.1897 36.5974L11.1892 36.5969L9.39528 34.7346C9.39526 34.7345 9.39523 34.7345 9.3952 34.7345L9.39514 34.7344L9.50317 34.6304L11.1897 36.5974ZM11.1897 36.5974C11.2697 36.6797 11.3737 36.7276 11.4804 36.7412L11.4856 36.746M11.1897 36.5974L11.4856 36.746M11.4856 36.746H11.5448M11.4856 36.746H11.5448M11.5448 36.746C11.6564 36.746 11.7712 36.7088 11.8634 36.6306L11.5448 36.746ZM11.8994 35.9735C11.8994 35.9735 11.8994 35.9735 11.8993 35.9734L11.8994 35.9735Z" fill="black" stroke="black" stroke-width="0.3"/>
<path d="M9.49055 30.775L9.49072 30.7751L15.4706 34.4183C15.4706 34.4183 15.4707 34.4184 15.4707 34.4184C15.5514 34.4678 15.6419 34.4909 15.7301 34.4909H15.7309C15.8833 34.4909 16.0376 34.4209 16.1321 34.2855L16.1326 34.2849C16.2834 34.0665 16.2141 33.7785 15.9902 33.6417L15.99 33.6416L10.0098 29.9982L10.0098 29.9982L10.0092 29.9978C9.79048 29.866 9.49664 29.9197 9.3487 30.131L9.3487 30.131L9.34815 30.1318C9.19738 30.3502 9.26668 30.6382 9.49055 30.775Z" fill="black" stroke="black" stroke-width="0.3"/>
<path d="M13.3201 35.1523L13.3201 35.1521L12.6606 32.5556C12.6606 32.5555 12.6606 32.5555 12.6606 32.5555C12.5979 32.3092 12.7537 32.0729 12.9919 32.0056C12.9919 32.0056 12.9919 32.0056 12.9919 32.0056C12.9919 32.0056 12.992 32.0056 12.992 32.0056L15.4528 31.3095L15.4529 31.3095L15.4937 31.4539C15.669 31.4042 15.855 31.4965 15.9082 31.6611L13.3201 35.1523ZM13.3201 35.1523C13.3755 35.3686 13.5773 35.5042 13.7885 35.5042C13.8264 35.5042 13.8626 35.4996 13.8968 35.4924L13.8968 35.4924L13.8982 35.4921C14.1503 35.4362 14.3233 35.1932 14.2579 34.9355L14.2579 34.9354L13.7066 32.7644L13.3201 35.1523Z" fill="black" stroke="black" stroke-width="0.3"/>
<path d="M9.49092 29.9985L9.49109 29.9984L15.4712 26.3551L9.49092 29.9985ZM9.49092 29.9985C9.26795 30.1348 9.19617 30.4235 9.34876 30.642L9.49092 29.9985Z" fill="black" stroke="black" stroke-width="0.3"/>
<path d="M15.4529 29.4645L15.4529 29.4645L12.992 28.7684C12.9919 28.7684 12.9919 28.7684 12.9919 28.7684C12.7537 28.7011 12.5979 28.4648 12.6606 28.2185L15.4529 29.4645ZM15.4529 29.4645L15.4555 29.4652C15.4983 29.4765 15.5433 29.4833 15.5893 29.4833L15.4529 29.4645ZM13.3201 25.6219L12.6606 28.2184L14.257 25.8387L14.1116 25.8016L14.257 25.8386L14.257 25.8387C14.3225 25.5817 14.1495 25.3378 13.8974 25.2819C13.6476 25.2266 13.3843 25.3689 13.3201 25.6219C13.3201 25.6219 13.3201 25.6219 13.3201 25.6219ZM13.7057 28.0096L13.5653 27.9699L13.5244 28.1142L13.6698 28.1511L13.7057 28.0096ZM15.5901 29.4833C15.7897 29.483 15.9846 29.3623 16.0501 29.1591C16.0501 29.159 16.0501 29.1589 16.0502 29.1589L15.9074 29.1129L15.5901 29.4833ZM15.6856 28.7257L15.7264 28.5814L15.7263 28.5813L15.6856 28.7257Z" fill="black" stroke="black" stroke-width="0.3"/>
</g>
<defs>
<clipPath id="clip0_6679_2797">
<rect width="40" height="40" fill="white"/>
</clipPath>
</defs>
</svg>
