<svg width="40" height="40" viewBox="0 0 40 40" fill="none" xmlns="http://www.w3.org/2000/svg">
<g clip-path="url(#clip0_6679_2847)">
<path d="M29.8867 35.2083H23.8034C23.3833 35.2083 23.043 34.868 23.043 34.4479C23.043 34.0278 23.3833 33.6875 23.8034 33.6875H29.8867C30.3068 33.6875 30.6471 34.0278 30.6471 34.4479C30.6471 34.868 30.3068 35.2083 29.8867 35.2083Z" fill="black"/>
<path d="M16.1992 35.2083H10.1159C9.69576 35.2083 9.35547 34.868 9.35547 34.4479C9.35547 34.0278 9.69576 33.6875 10.1159 33.6875H16.1992C16.6193 33.6875 16.9596 34.0278 16.9596 34.4479C16.9596 34.868 16.6193 35.2083 16.1992 35.2083Z" fill="black"/>
<path d="M19.9987 23.8017C19.5786 23.8017 19.2383 23.4614 19.2383 23.0413V16.9579C19.2383 16.5378 19.5786 16.1975 19.9987 16.1975C20.4188 16.1975 20.7591 16.5378 20.7591 16.9579V23.0413C20.7591 23.4614 20.4188 23.8017 19.9987 23.8017Z" fill="black"/>
<path d="M19.9987 9.35417C19.5786 9.35417 19.2383 9.01388 19.2383 8.59375V2.51042C19.2383 2.09029 19.5786 1.75 19.9987 1.75C20.4188 1.75 20.7591 2.09029 20.7591 2.51042V8.59375C20.7591 9.01388 20.4188 9.35417 19.9987 9.35417Z" fill="black"/>
<path d="M19.9987 38.2504C19.5786 38.2504 19.2383 37.9101 19.2383 37.49V31.4067C19.2383 30.9865 19.5786 30.6462 19.9987 30.6462C20.4188 30.6462 20.7591 30.9865 20.7591 31.4067V37.49C20.7591 37.9101 20.4188 38.2504 19.9987 38.2504Z" fill="black"/>
<path d="M26.8424 31.026C26.4223 31.026 26.082 30.6858 26.082 30.2656V24.1823C26.082 23.7622 26.4223 23.4219 26.8424 23.4219C27.2626 23.4219 27.6029 23.7622 27.6029 24.1823V30.2656C27.6029 30.6858 27.2626 31.026 26.8424 31.026Z" fill="black"/>
<path d="M13.1549 31.026C12.7348 31.026 12.3945 30.6858 12.3945 30.2656V24.1823C12.3945 23.7622 12.7348 23.4219 13.1549 23.4219C13.5751 23.4219 13.9154 23.7622 13.9154 24.1823V30.2656C13.9154 30.6858 13.5751 31.026 13.1549 31.026Z" fill="black"/>
<path d="M29.8867 20.7608H23.8034C23.3833 20.7608 23.043 20.4205 23.043 20.0004C23.043 19.5803 23.3833 19.24 23.8034 19.24H29.8867C30.3068 19.24 30.6471 19.5803 30.6471 20.0004C30.6471 20.4205 30.3068 20.7608 29.8867 20.7608Z" fill="black"/>
<path d="M16.1992 20.7608H10.1159C9.69576 20.7608 9.35547 20.4205 9.35547 20.0004C9.35547 19.5803 9.69576 19.24 10.1159 19.24H16.1992C16.6193 19.24 16.9596 19.5803 16.9596 20.0004C16.9596 20.4205 16.6193 20.7608 16.1992 20.7608Z" fill="black"/>
<path d="M23.043 13.5365H16.9596C16.5395 13.5365 16.1992 13.1962 16.1992 12.776C16.1992 12.3559 16.5395 12.0156 16.9596 12.0156H23.043C23.4631 12.0156 23.8034 12.3559 23.8034 12.776C23.8034 13.1962 23.4631 13.5365 23.043 13.5365Z" fill="black"/>
<path d="M23.043 27.984H16.9596C16.5395 27.984 16.1992 27.6437 16.1992 27.2236C16.1992 26.8034 16.5395 26.4631 16.9596 26.4631H23.043C23.4631 26.4631 23.8034 26.8034 23.8034 27.2236C23.8034 27.6437 23.4631 27.984 23.043 27.984Z" fill="black"/>
<path d="M33.6862 23.8017C33.2661 23.8017 32.9258 23.4614 32.9258 23.0413V16.9579C32.9258 16.5378 33.2661 16.1975 33.6862 16.1975C34.1063 16.1975 34.4466 16.5378 34.4466 16.9579V23.0413C34.4466 23.4614 34.1063 23.8017 33.6862 23.8017Z" fill="black"/>
<path d="M6.3112 23.8017C5.89107 23.8017 5.55078 23.4614 5.55078 23.0413V16.9579C5.55078 16.5378 5.89107 16.1975 6.3112 16.1975C6.73133 16.1975 7.07161 16.5378 7.07161 16.9579V23.0413C7.07161 23.4614 6.73133 23.8017 6.3112 23.8017Z" fill="black"/>
<path d="M33.6862 9.35417C33.2661 9.35417 32.9258 9.01388 32.9258 8.59375V2.51042C32.9258 2.09029 33.2661 1.75 33.6862 1.75C34.1063 1.75 34.4466 2.09029 34.4466 2.51042V8.59375C34.4466 9.01388 34.1063 9.35417 33.6862 9.35417Z" fill="black"/>
<path d="M6.3112 9.35417C5.89107 9.35417 5.55078 9.01388 5.55078 8.59375V2.51042C5.55078 2.09029 5.89107 1.75 6.3112 1.75C6.73133 1.75 7.07161 2.09029 7.07161 2.51042V8.59375C7.07161 9.01388 6.73133 9.35417 6.3112 9.35417Z" fill="black"/>
<path d="M33.6862 38.2504C33.2661 38.2504 32.9258 37.9101 32.9258 37.49V31.4067C32.9258 30.9865 33.2661 30.6462 33.6862 30.6462C34.1063 30.6462 34.4466 30.9865 34.4466 31.4067V37.49C34.4466 37.9101 34.1063 38.2504 33.6862 38.2504Z" fill="black"/>
<path d="M6.3112 38.2504C5.89107 38.2504 5.55078 37.9101 5.55078 37.49V31.4067C5.55078 30.9865 5.89107 30.6462 6.3112 30.6462C6.73133 30.6462 7.07161 30.9865 7.07161 31.4067V37.49C7.07161 37.9101 6.73133 38.2504 6.3112 38.2504Z" fill="black"/>
<path d="M37.4909 13.5365H30.6471C30.227 13.5365 29.8867 13.1962 29.8867 12.776C29.8867 12.3559 30.227 12.0156 30.6471 12.0156H37.4909C37.911 12.0156 38.2513 12.3559 38.2513 12.776C38.2513 13.1962 37.911 13.5365 37.4909 13.5365Z" fill="black"/>
<path d="M9.35417 13.5365H2.51042C2.09029 13.5365 1.75 13.1962 1.75 12.776C1.75 12.3559 2.09029 12.0156 2.51042 12.0156H9.35417C9.7743 12.0156 10.1146 12.3559 10.1146 12.776C10.1146 13.1962 9.7743 13.5365 9.35417 13.5365Z" fill="black"/>
<path d="M37.4909 27.984H30.6471C30.227 27.984 29.8867 27.6437 29.8867 27.2236C29.8867 26.8034 30.227 26.4631 30.6471 26.4631H37.4909C37.911 26.4631 38.2513 26.8034 38.2513 27.2236C38.2513 27.6437 37.911 27.984 37.4909 27.984Z" fill="black"/>
<path d="M9.35417 27.984H2.51042C2.09029 27.984 1.75 27.6437 1.75 27.2236C1.75 26.8034 2.09029 26.4631 2.51042 26.4631H9.35417C9.7743 26.4631 10.1146 26.8034 10.1146 27.2236C10.1146 27.6437 9.7743 27.984 9.35417 27.984Z" fill="black"/>
<path d="M26.8424 16.5785C26.4223 16.5785 26.082 16.2382 26.082 15.8181V9.73478C26.082 9.31465 26.4223 8.97437 26.8424 8.97437C27.2626 8.97437 27.6029 9.31465 27.6029 9.73478V15.8181C27.6029 16.2382 27.2626 16.5785 26.8424 16.5785Z" fill="black"/>
<path d="M13.1549 16.5785C12.7348 16.5785 12.3945 16.2382 12.3945 15.8181V9.73478C12.3945 9.31465 12.7348 8.97437 13.1549 8.97437C13.5751 8.97437 13.9154 9.31465 13.9154 9.73478V15.8181C13.9154 16.2382 13.5751 16.5785 13.1549 16.5785Z" fill="black"/>
<path d="M29.8867 6.31209H23.8034C23.3833 6.31209 23.043 5.97181 23.043 5.55168C23.043 5.13155 23.3833 4.79126 23.8034 4.79126H29.8867C30.3068 4.79126 30.6471 5.13155 30.6471 5.55168C30.6471 5.97181 30.3068 6.31209 29.8867 6.31209Z" fill="black"/>
<path d="M16.1992 6.31209H10.1159C9.69576 6.31209 9.35547 5.97181 9.35547 5.55168C9.35547 5.13155 9.69576 4.79126 10.1159 4.79126H16.1992C16.6193 4.79126 16.9596 5.13155 16.9596 5.55168C16.9596 5.97181 16.6193 6.31209 16.1992 6.31209Z" fill="black"/>
</g>
<defs>
<clipPath id="clip0_6679_2847">
<rect width="36.5" height="36.5" fill="white" transform="translate(1.75 1.75)"/>
</clipPath>
</defs>
</svg>
