<svg id="Layer_1" data-name="Layer 1" xmlns="http://www.w3.org/2000/svg" viewBox="0 0 125.43 78.39"><title>Payment Methods</title><path d="M10.83,0H114.61a10.82,10.82,0,0,1,10.82,10.82V67.57A10.83,10.83,0,0,1,114.6,78.39H10.83A10.83,10.83,0,0,1,0,67.57V10.83A10.83,10.83,0,0,1,10.83,0Z" style="fill:#0086e6"/><path d="M81.34,25.77c.67-4.25,0-7.14-2.31-9.76-2.54-2.88-7.12-4.11-13-4.11H49a2.44,2.44,0,0,0-2.41,2L39.52,58.76A1.46,1.46,0,0,0,41,60.44H51.47L50.75,65A1.28,1.28,0,0,0,52,66.5h8.86A2.14,2.14,0,0,0,63,64.7l.08-.45,1.67-10.54.11-.59A2.13,2.13,0,0,1,67,51.33h1.32c8.58,0,15.3-3.48,17.27-13.53.82-4.2.39-7.7-1.78-10.17A8.39,8.39,0,0,0,81.34,25.77Z" style="fill:#cde9fd"/><path d="M81.34,25.77c.67-4.25,0-7.14-2.31-9.76-2.54-2.88-7.12-4.11-13-4.11H49a2.44,2.44,0,0,0-2.41,2L39.52,58.76A1.46,1.46,0,0,0,41,60.44H51.47l2.65-16.69-.09.52a2.43,2.43,0,0,1,2.4-2.05h5c9.81,0,17.49-4,19.73-15.46Q81.27,26.25,81.34,25.77Z" style="fill:#fff;fill-rule:evenodd;opacity:0.6800000071525574;isolation:isolate"/><path d="M57,25.82a2.1,2.1,0,0,1,1.19-1.58,2.18,2.18,0,0,1,.92-.21H72.4a27.61,27.61,0,0,1,4.41.32c.38.06.76.13,1.12.21s.72.18,1.06.28c.17,0,.34.1.5.15a12,12,0,0,1,1.85.78c.67-4.25,0-7.14-2.31-9.76-2.54-2.88-7.12-4.11-13-4.11H49a2.44,2.44,0,0,0-2.41,2L39.52,58.76A1.46,1.46,0,0,0,41,60.44H51.47l2.65-16.69Z" style="fill:#fff;fill-rule:evenodd"/></svg>