<svg id="Layer_1" data-name="Layer 1" xmlns="http://www.w3.org/2000/svg" viewBox="0 0 125.43 78.39"><title>Payment Methods</title><path d="M10.83,0H114.61a10.82,10.82,0,0,1,10.82,10.82V67.6A10.83,10.83,0,0,1,114.6,78.43H10.83A10.83,10.83,0,0,1,0,67.6V10.86A10.83,10.83,0,0,1,10.83,0Z" style="fill:#1a1919"/><path d="M37.22,27a6,6,0,0,0,1.37-4.25,5.85,5.85,0,0,0-3.92,2,5.57,5.57,0,0,0-1.41,4.09A4.94,4.94,0,0,0,37.22,27Z" style="fill:#fff;fill-rule:evenodd"/><path d="M38.58,29.14c-2.19-.13-4,1.25-5.09,1.25s-2.65-1.18-4.38-1.15a6.46,6.46,0,0,0-5.48,3.33c-2.35,4-.62,10.06,1.67,13.35,1.11,1.64,2.44,3.43,4.21,3.37s2.31-1.08,4.34-1.08,2.61,1.08,4.37,1,3-1.63,4.08-3.26a14.49,14.49,0,0,0,1.82-3.75,6,6,0,0,1-3.55-5.39,6,6,0,0,1,2.87-5.06A6.28,6.28,0,0,0,38.58,29.14Z" style="fill:#fff;fill-rule:evenodd"/><path d="M55,37.53h4.36c3.31,0,5.2-1.79,5.2-4.87s-1.89-4.86-5.18-4.86H55ZM60.37,24.6a7.68,7.68,0,0,1,8.06,8,7.77,7.77,0,0,1-8.18,8.08H55v8.36h-3.8V24.6Z" style="fill:#fff;fill-rule:evenodd"/><path d="M80.91,42.43V41.06l-4.22.27c-2.38.15-3.61,1-3.61,2.58s1.28,2.46,3.3,2.46C79,46.37,80.91,44.72,80.91,42.43ZM69.38,44c0-3.14,2.39-4.94,6.8-5.21l4.73-.29V37.15c0-2-1.3-3.07-3.63-3.07-1.91,0-3.31,1-3.59,2.5H70.26c.1-3.18,3.09-5.48,7.13-5.48,4.34,0,7.17,2.27,7.17,5.8V49.08H81.05V46.15H81a6.27,6.27,0,0,1-5.6,3.12C71.84,49.27,69.38,47.17,69.38,44Z" style="fill:#fff;fill-rule:evenodd"/><path d="M87.79,55.63V52.7c.24,0,.82.07,1.12.07,1.68,0,2.64-.72,3.21-2.55l.34-1.08L86,31.32h4l4.48,14.45h.09l4.48-14.45h3.87L96.25,50c-1.53,4.3-3.28,5.71-7,5.71A10.2,10.2,0,0,1,87.79,55.63Z" style="fill:#fff;fill-rule:evenodd"/></svg>