<svg id="Layer_1" data-name="Layer 1" xmlns="http://www.w3.org/2000/svg" viewBox="0 0 125.43 78.39"><title>Payment Methods</title><path d="M10.83,0H114.61a10.82,10.82,0,0,1,10.82,10.82V67.6A10.83,10.83,0,0,1,114.6,78.43H10.83A10.83,10.83,0,0,1,0,67.6V10.86A10.83,10.83,0,0,1,10.83,0Z" style="fill:#0095ff"/><path d="M38.92,40V38.73L38.32,40h-5.2l-.65-1.34V40H22.76l-1.14-2.71H19.67L18.46,40h-5V31.79l3.69-8.35h7.07l1,2.37V23.46h8.64l1.9,4,1.86-4H64.84a4.66,4.66,0,0,1,2.37.64v-.64h6.87v.9a5.58,5.58,0,0,1,3.06-.9H89.27l1.06,2.4v-2.4H98.1l1.41,2.4v-2.4h7.43V40H99.31l-1.8-2.89V40H88L86.7,37H84.84L83.59,40H77.85a7.4,7.4,0,0,1-3.75-1.17V40H62.67V36.12c0-.56-.43-.52-.43-.52h-.42V40Z" style="fill:#fff"/><path d="M33.21,43.57h15L50.4,46l2.21-2.45H64.16a5.32,5.32,0,0,1,2.11.58v-.58H76.55a5.23,5.23,0,0,1,2.4.65v-.65H92.17v.6a4.49,4.49,0,0,1,2.21-.6H103v.6a5.31,5.31,0,0,1,2.23-.6H112v15.6a3.69,3.69,0,0,1-2.72,1h-8.91v-.5a4.56,4.56,0,0,1-2.14.5H74.52v-4c0-.4-.17-.47-.52-.47h-.33v4.5h-7.4V55.7a4.9,4.9,0,0,1-2.19.45H61.42v4H52.3l-2.07-2.53L48,60.18H33.21Z" style="fill:#fff"/><polygon points="80.54 46.06 89.96 46.06 89.96 48.59 83.42 48.59 83.42 50.79 89.78 50.79 89.78 53.02 83.42 53.02 83.42 55.34 89.96 55.34 89.96 57.8 80.54 57.8 80.54 46.06" style="fill:#0095ff"/><path d="M108.17,50.63c3.54.19,3.84,1.95,3.84,3.84a3.43,3.43,0,0,1-3.7,3.38h-6V55.33H107c.8,0,2,0,2-1.12,0-.54-.2-.88-1.06-1-.37-.05-1.77-.13-2-.14-3.2-.08-3.94-1.67-3.94-3.61a3.23,3.23,0,0,1,3.43-3.4h6.06V48.6H107c-1,0-2.1-.12-2.1,1,0,.72.54.87,1.22.93C106.38,50.55,108,50.64,108.17,50.63Z" style="fill:#0095ff"/><path d="M97.31,50.63c3.55.19,3.84,1.95,3.84,3.84a3.42,3.42,0,0,1-3.69,3.38h-6V55.33h4.71c.8,0,2,0,2-1.12,0-.54-.22-.88-1.07-1-.38-.05-1.78-.13-2-.14-3.2-.08-3.94-1.67-3.94-3.61a3.23,3.23,0,0,1,3.43-3.4h6V48.6H96.18c-1,0-2.1-.12-2.1,1,0,.72.54.87,1.22.93C95.53,50.55,97.11,50.64,97.31,50.63Z" style="fill:#0095ff"/><path d="M63.14,46.08H53l-3.3,3.65-3.19-3.67H35.16V57.8h11l3.46-3.88L53,57.83h5.53v-4H62.4c1.5,0,4.23-.05,4.23-4.17A3.26,3.26,0,0,0,63.14,46.08ZM44.65,55.33H38V53h6.35V50.79H38v-2.2h7l2.8,3.2Zm11,1.37-4.14-4.9,4.14-4.59Zm6.5-5.28H58.58V48.6h3.6a1.42,1.42,0,1,1,0,2.82Z" style="fill:#0095ff"/><path d="M77.06,52.48a3.19,3.19,0,0,0,2-3.25c0-2.51-2-3.14-3.45-3.14H68.1V57.83H71V53.68h3.78c1,0,1.39,1,1.41,2l.08,2.15h2.8L79,55.41C79,53.53,78.43,52.64,77.06,52.48Zm-2.49-1.22H71V48.6h3.61A1.38,1.38,0,0,1,76.17,50C76.17,50.74,75.75,51.26,74.57,51.26Z" style="fill:#0095ff"/><rect x="69.26" y="25.79" width="2.88" height="11.75" style="fill:#0095ff"/><polygon points="45.66 25.8 55.08 25.8 55.08 28.33 48.54 28.33 48.54 30.54 54.9 30.54 54.9 32.76 48.54 32.76 48.54 35.08 55.08 35.08 55.08 37.55 45.66 37.55 45.66 25.8" style="fill:#0095ff"/><path d="M65.75,32.2a3.21,3.21,0,0,0,2-3.25c0-2.52-2-3.14-3.46-3.14h-7.5V37.55h2.88V33.4h3.78c1,0,1.39,1,1.41,2l.08,2.15h2.81l-.11-2.42C67.64,33.25,67.12,32.36,65.75,32.2ZM63.26,31H59.67V28.32h3.61a1.38,1.38,0,0,1,1.58,1.35C64.86,30.46,64.44,31,63.26,31Z" style="fill:#0095ff"/><path d="M39,25.81l-3.54,7.87L32,25.81H27.43v11.3l-5-11.3H18.58L13.45,37.55h3l1.12-2.63h5.76l1.14,2.63h5.8V28.83l3.85,8.72h2.63L40.73,29v8.57h2.88V25.81ZM18.7,32.39l1.72-4.1,1.79,4.1Z" style="fill:#0095ff"/><path d="M101.88,25.8v8.13L97,25.8H92.76v11l-4.91-11H84l-4,9.09s-1.68,0-1.85,0c-.69-.14-1.78-.63-1.79-2.71V31.3c0-2.75,1.49-2.95,3.41-2.95h1.78V25.8H77.85c-1.31,0-4.16,1-4.26,5.82-.06,3.25,1.35,5.93,4.55,5.93h3.8l1.13-2.62h5.75L90,37.55h5.69V29l5.18,8.6h3.94V25.8Zm-17.7,6.6,1.71-4.11L87.7,32.4Z" style="fill:#0095ff"/></svg>