<svg id="Layer_1" data-name="Layer 1" xmlns="http://www.w3.org/2000/svg" viewBox="0 0 125.43 78.39"><title>Payment Methods</title><path d="M10.83,0H114.61a10.82,10.82,0,0,1,10.82,10.82V67.57A10.83,10.83,0,0,1,114.6,78.39H10.83A10.83,10.83,0,0,1,0,67.57V10.83A10.83,10.83,0,0,1,10.83,0Z" style="fill:#f7931a"/><path d="M82.73,34c.84-5.6-3.43-8.61-9.25-10.61l1.89-7.59-4.62-1.15L68.91,22c-1.21-.31-2.46-.59-3.69-.87l1.85-7.43-4.61-1.15-1.89,7.57c-1-.22-2-.45-3-.69v0l-6.36-1.59L50,22.77s3.43.78,3.35.83a2.45,2.45,0,0,1,2.15,2.68l-2.15,8.64a2.68,2.68,0,0,1,.48.16L53.37,35l-3,12.1a1.69,1.69,0,0,1-2.12,1.1c0,.07-3.35-.84-3.35-.84L42.6,52.59l6,1.5,3.29.85L50,62.61l4.61,1.15,1.89-7.59c1.26.34,2.48.66,3.68,1l-1.89,7.55,4.62,1.15,1.91-7.66c7.87,1.49,13.79.89,16.28-6.22,2-5.74-.1-9-4.24-11.2C79.85,40.06,82.12,38.07,82.73,34ZM72.18,48.76C70.76,54.49,61.11,51.4,58,50.62l2.54-10.16C63.64,41.24,73.68,42.79,72.18,48.76ZM73.61,33.9c-1.3,5.21-9.33,2.56-11.93,1.91L64,26.6C66.58,27.25,75,28.46,73.61,33.9Z" style="fill:#fff"/></svg>