<svg id="Layer_1" data-name="Layer 1" xmlns="http://www.w3.org/2000/svg" viewBox="0 0 125.43 78.39"><title>Payment Methods</title><path d="M10.83,0H114.61a10.82,10.82,0,0,1,10.82,10.82V67.57A10.83,10.83,0,0,1,114.6,78.39H10.83A10.83,10.83,0,0,1,0,67.57V10.83A10.83,10.83,0,0,1,10.83,0Z" style="fill:#005697"/><path id="_92186184" data-name=" 92186184" d="M9.69,15.69v47a5.68,5.68,0,0,0,5.7,5.67h52V10h-52a5.68,5.68,0,0,0-5.7,5.66ZM80.8,38.47c0,2-1,3.42-2.66,3.42a3,3,0,0,1-2.68-3.25c0-1.9,1.08-3.31,2.68-3.31S80.8,36.79,80.8,38.47Zm-9.72,11.6h4.38v-6.9h.05a4.4,4.4,0,0,0,4,2.08c3.78,0,5.8-3.12,5.8-6.87,0-3.07-1.92-6.41-5.43-6.41a5,5,0,0,0-4.73,2.58h0V32.26h-4Zm20.24-9.14c0-1.21,1.17-1.68,2.66-1.68.66,0,1.29,0,1.85.08a2.86,2.86,0,0,1-2.71,3C92.1,42.32,91.32,41.81,91.32,40.93Zm8.85,4a15,15,0,0,1-.25-3V37.23c0-3.87-2.8-5.26-6-5.26a13,13,0,0,0-5.07.9l.08,3a8.24,8.24,0,0,1,4-1c1.58,0,2.87.47,2.9,2.2a12.51,12.51,0,0,0-2-.18c-2.34,0-6.55.47-6.55,4.34,0,2.76,2.24,4,4.75,4A4.36,4.36,0,0,0,96,43h0c0,.66.07,1.31.1,2Zm2,5.12a12.48,12.48,0,0,0,2.73.3c4,0,5-3.1,6.21-6.29l4.66-11.82h-4.39l-2.61,8.28h0L106,32.26h-4.72l5.14,13A2.23,2.23,0,0,1,104.16,47a5.13,5.13,0,0,1-1.73-.27Z" style="fill:#fff;fill-rule:evenodd"/><path id="_47303032" data-name=" 47303032" d="M20.41,38.5c0-1.73.85-3.17,2.48-3.17a2.77,2.77,0,0,1,2.8,3c0,2-1.24,3.26-2.8,3.26C21.58,41.59,20.41,40.47,20.41,38.5Zm9.52-6.24H26v2.29h0A5,5,0,0,0,21.6,32c-4,0-5.73,2.83-5.73,6.6S18,45,21.52,45a5,5,0,0,0,4.27-2.16h.05v.68c0,2.48-1.36,3.68-3.9,3.68a8.7,8.7,0,0,1-4.29-1l-.22,3.46a14.71,14.71,0,0,0,4.85.81c5.12,0,7.65-1.69,7.65-6.9ZM37.35,27H33v3.22h4.39ZM33,45h4.39V32.26H33Zm16.6-12.84A9.8,9.8,0,0,0,48.07,32a3.91,3.91,0,0,0-3.75,2.63h0V32.26h-4V45h4.38V39.6c0-2.49,1.15-4,3.19-4a4.94,4.94,0,0,1,1.49.15Zm7.55,10.07c-2,0-2.85-1.68-2.85-3.56S55.09,35,57.11,35,60,36.72,60,38.62,59.13,42.18,57.11,42.18Zm0,3.07c4.19,0,7.38-2.44,7.38-6.63S61.3,32,57.11,32s-7.38,2.43-7.38,6.65S52.92,45.25,57.11,45.25Z" style="fill:#c51e49;fill-rule:evenodd"/></svg>