<svg id="Layer_1" data-name="Layer 1" xmlns="http://www.w3.org/2000/svg" viewBox="0 0 125.43 78.39"><title>Payment Methods</title><path d="M10.83,0H114.61a10.82,10.82,0,0,1,10.82,10.82V67.57A10.83,10.83,0,0,1,114.6,78.39H10.83A10.83,10.83,0,0,1,0,67.57V10.83A10.83,10.83,0,0,1,10.83,0Z"/><path d="M36.65,28.09c-.22,0-.45,0-.67.05a10.54,10.54,0,0,0-9,9.55c-.05.61,0,.61.62.69a23,23,0,0,0,2.63-.66,10.36,10.36,0,0,0,7-9.09C37.32,28.06,37.23,28,36.65,28.09Z" style="fill:#fff"/><path d="M43.08,28H40.3c-.69,0-.76.07-.76.78V49.38c0,.57.1.68.67.68h2.72c.86,0,.94-.08.94-.92V28.8C43.86,28.15,43.75,28,43.08,28Z" style="fill:#fff"/><path d="M34.4,43.05a10.37,10.37,0,0,0-6.6-3.24c-.8,0-.81,0-.79.58,0,.23.06.44.09.67a10.49,10.49,0,0,0,9.54,9c.57,0,.67,0,.62-.55A10.55,10.55,0,0,0,34.4,43.05Z" style="fill:#fff"/><path d="M55.28,33.81a16.88,16.88,0,0,0-7.74.28.52.52,0,0,0-.43.6c0,.57,0,1.15,0,1.72,0,.82.11.86.92.81,1.65-.09,3.31-.16,5-.16a1.66,1.66,0,0,1,1.76,1.45,4.91,4.91,0,0,1,0,.86c0,1.11,0,1.12-1.1,1.11a14.72,14.72,0,0,0-4.53.48,3.85,3.85,0,0,0-3,3,7.07,7.07,0,0,0,.06,3.17A3.74,3.74,0,0,0,48.94,50a6.34,6.34,0,0,0,4.74-.34c.44-.21.86-.48,1.35-.75l0,.31c0,.72.12.81.85.81h2.59c.5,0,.67-.16.67-.65,0-3.65,0-7.3-.1-10.95A4.64,4.64,0,0,0,55.28,33.81Zm-.92,12.88a5.32,5.32,0,0,1-2.89.39A1.23,1.23,0,0,1,50.33,46a6,6,0,0,1,.1-1.74,1.36,1.36,0,0,1,1.17-1.13c1-.13,2-.15,3-.19.09,0,.26.22.27.34,0,.49,0,1,0,1.48a11,11,0,0,0,0,1.15A.69.69,0,0,1,54.36,46.69Z" style="fill:#fff"/><path d="M24.89,28c-.85,0-1.69,0-2.54,0A1.28,1.28,0,0,0,21,29.44V49.31c0,.58.08.66.67.66h2.58a1.2,1.2,0,0,0,1.36-1.35V28.75C25.58,28.17,25.46,28,24.89,28Z" style="fill:#fff"/><path d="M70.07,33.49a6.08,6.08,0,0,0-3.38,1.17l-.48.34c0-.23,0-.36,0-.5,0-.69-.14-.82-.81-.82H62.78c-.79,0-.92.13-.92.92V49.2c0,.7.16.86.83.86h2.73c.73,0,.85-.11.85-.86,0-3.54,0-7.09,0-10.63a.67.67,0,0,1,.43-.7A7.1,7.1,0,0,1,70,37c.44,0,.65-.15.64-.61,0-.79,0-1.57,0-2.35C70.69,33.65,70.5,33.47,70.07,33.49Z" style="fill:#fff"/><path d="M86.17,37a3.89,3.89,0,0,0-3.25-3.34,7.48,7.48,0,0,0-5.71,1.11c-.17.12-.35.22-.64.41,0-.34,0-.56,0-.77,0-.57-.11-.67-.68-.68H73.18c-.53,0-.69.16-.69.69V49.31c0,.59.16.75.73.75,1,0,2,0,3,0,.44,0,.64-.17.63-.63,0-1,0-2,0-3q0-3.94,0-7.89c0-.22.06-.55.21-.64a5.11,5.11,0,0,1,3.58-.87A1.52,1.52,0,0,1,82,38.36a8.19,8.19,0,0,1,.17,1.56c0,3.12,0,6.25,0,9.38,0,.68.08.76.78.76h2.67c.78,0,.87-.09.87-.84,0-3.23,0-6.44,0-9.67A13.36,13.36,0,0,0,86.17,37Z" style="fill:#fff"/><polygon points="102.33 32.68 102.68 32.68 102.68 33.71 102.83 33.71 102.83 32.68 103.18 32.68 103.18 32.56 102.33 32.56 102.33 32.68" style="fill:#fff"/><path d="M104.38,32.56h-.19l-.2.56-.13.39h0c0-.13-.07-.25-.11-.39l-.2-.56h-.19l-.08,1.15h.14l0-.49c0-.18,0-.37,0-.51h0c0,.13.08.28.13.44l.19.56h.11l.2-.57c.06-.15.11-.3.15-.43h0c0,.14,0,.34,0,.49l0,.51h.14Z" style="fill:#fff"/><path d="M101.6,37.89A4.52,4.52,0,0,0,98.42,34,9.46,9.46,0,0,0,96,33.51a20.48,20.48,0,0,0-5.78.54.67.67,0,0,0-.59.73v1.58c0,.85.12.91.94.87,1.64-.1,3.28-.17,4.92-.18a1.69,1.69,0,0,1,1.83,1.59,11.32,11.32,0,0,1,.06,1.43c0,.32-.13.41-.43.41a15.73,15.73,0,0,0-2.06,0,22.66,22.66,0,0,0-3.47.59,3.54,3.54,0,0,0-2.7,3,9.45,9.45,0,0,0-.06,2,4.33,4.33,0,0,0,4.87,4.25,7,7,0,0,0,3.75-1.26c.08-.05.17-.08.27-.13a.77.77,0,0,1,.09.13,1.64,1.64,0,0,1,0,.23c0,.7.08.74.8.74h2.48c.68,0,.76-.08.76-.74,0-3.32,0-6.64,0-10A10.27,10.27,0,0,0,101.6,37.89ZM97.48,46a.54.54,0,0,1-.38.57,5.33,5.33,0,0,1-3.07.49,1.43,1.43,0,0,1-1.21-1.63c0-1.66.39-2.41,2.4-2.56.61,0,1.22,0,1.82,0,.34,0,.45.14.44.46s0,.93,0,1.39S97.46,45.59,97.48,46Z" style="fill:#fff"/></svg>