<svg id="Layer_1" data-name="Layer 1" xmlns="http://www.w3.org/2000/svg" viewBox="0 0 125.43 78.39"><title>Payment Methods</title><path d="M10.83,0H114.61a10.82,10.82,0,0,1,10.82,10.82V67.57A10.83,10.83,0,0,1,114.6,78.39H10.83A10.83,10.83,0,0,1,0,67.57V10.83A10.83,10.83,0,0,1,10.83,0Z" style="fill:#d13239"/><path d="M46,22.2C44.64,21.12,40.74,21,40.74,21H22.49l-6,37h6l2.26-13.77h10.1v0c3.72-.09,7.15-.6,8.88-1.8A8.52,8.52,0,0,0,46,39.63,17.8,17.8,0,0,0,47.32,35c.35-2.13.81-5,1-6.92A5.89,5.89,0,0,0,46,22.2Zm-3.48,7.29s-.83,5.47-1.41,7.38-4.15,1.83-4.15,1.83H25.64l2-12.36h9.09a27.11,27.11,0,0,1,4.48.5C42.81,27.25,42.48,29.49,42.48,29.49Z" style="fill:#fff"/><path d="M59.3,45.38h0c2.9-.79,5.53-1.59,6.78-1.94,0,0,0,0,0,0l6.11-1.81s5.06-1.49,6-5.31a37.82,37.82,0,0,0,1.4-7.55h0s.17-4.15-2-6.22-6.22-2.08-6.22-2.08H62.14a10.23,10.23,0,0,0-9.21,5.81c-1.16,2.16-1.49,7.38-1.49,7.38h5.64a28.21,28.21,0,0,1,.66-3.73,4.85,4.85,0,0,1,4.48-3.82c2.9-.16,8.13,0,8.13,0s3.43-.16,3.47,2.37A21.65,21.65,0,0,1,73,34.22c-.58,1.66-3.4,2.82-6,3.4-2,.44-6.78,1.73-8.92,2.32h0l-.36.11-.67.18h0c-3.71,1.11-5.33,2.51-6.93,5.09-1.74,2.82-2.65,12.61-2.65,12.61H75l1.08-5.81H54.17a10.57,10.57,0,0,1,.62-3.5C55.05,48.05,56.11,46.28,59.3,45.38Z" style="fill:#fff"/><path d="M103.38,44,107.08,21H100.2L78.89,43.76l-1,5.89H96.72l-1.44,8.29h5.86l1.33-8.29h5.19L109,44Zm-5.69,0H85.44L100,28.83l.45-.5Z" style="fill:#fff"/></svg>