<svg id="Layer_1" data-name="Layer 1" xmlns="http://www.w3.org/2000/svg" viewBox="0 0 125.43 78.39"><title>Payment Methods</title><path d="M10.83,0H114.61a10.82,10.82,0,0,1,10.82,10.82V67.57A10.83,10.83,0,0,1,114.6,78.39H10.83A10.83,10.83,0,0,1,0,67.57V10.83A10.83,10.83,0,0,1,10.83,0Z" style="fill:#f9f9f9"/><path d="M63.09,36.29A11.21,11.21,0,1,0,51.87,25.08,11.21,11.21,0,0,0,63.09,36.29" style="fill:#00acef"/><path d="M71.36,34.15a14.76,14.76,0,0,1-19.77,1.56c-12.24,1.28-21.35,3.1-21.35,3.1v5h65V33.54s-11.13-.07-23.83.61" style="fill:#00acef"/><path d="M38,58.27v6H30.24V48.24H38v7.23h0l4.54-7.23h9.25L45,56.54l6.39,7.77H42.58l-4.57-6h0m57.23,5.37a23,23,0,0,1-6.36.89c-7.63,0-13.23-2.17-13.23-8.48,0-5.71,5.43-8.18,12.85-8.18a23.92,23.92,0,0,1,6.74.88v5.52A9.39,9.39,0,0,0,90,52.78c-2.83,0-5.66,1.39-5.66,3.42s2.82,3.42,5.66,3.42a9.91,9.91,0,0,0,5.22-1.47v5.49M60.77,55.05h3.84c1.49,0,2.07-.6,2.07-1.53s-.59-1.58-2-1.58H60.77v3.11Zm0,6h4c1.51,0,2-.63,2-1.55s-.52-1.58-2-1.58h-4V61Zm-7.71-12.8H68.65c4,0,5.38,1.57,5.38,4,0,2.75-2.45,3.94-5,4.08v0c2.59.2,5.11.5,5.11,3.74,0,2.11-1.33,4.19-5.79,4.19H53.06V48.24" style="fill:#0b325e"/></svg>