<svg id="Layer_1" data-name="Layer 1" xmlns="http://www.w3.org/2000/svg" viewBox="0 0 125.43 78.39"><title>Payment Methods</title><path d="M10.83,0H114.61a10.82,10.82,0,0,1,10.82,10.82V67.57A10.83,10.83,0,0,1,114.6,78.39H10.83A10.83,10.83,0,0,1,0,67.57V10.83A10.83,10.83,0,0,1,10.83,0Z" style="fill:#0667d0"/><path d="M20,47.46A5.79,5.79,0,0,0,22.2,47s1.41,2.21,1.44,2.22a8.32,8.32,0,0,1-4.06,1,7,7,0,0,1-7.46-7.4,7.12,7.12,0,0,1,7.46-7.42,7.65,7.65,0,0,1,3.82.95l-1.35,2.27a6.07,6.07,0,0,0-2.19-.4,4.3,4.3,0,0,0-4.54,4.6A4.39,4.39,0,0,0,20,47.46Zm10.9-12a7.07,7.07,0,0,1,7.33,7.42,7.07,7.07,0,0,1-7.34,7.4,7,7,0,0,1-7.29-7.4A7.06,7.06,0,0,1,30.9,35.42Zm0,2.72c-2.37,0-4.1,1.83-4.1,4.7s1.73,4.68,4.1,4.68S35,45.69,35,42.84,33.33,38.14,30.9,38.14Zm9.34,11.78V35.74h3.17V49.91H40.24Zm-.42-18.54a2,2,0,0,1,4,0,2,2,0,1,1-4,0Zm6.36,5.26a19,19,0,0,1,6.49-1.22c3.63,0,5.92,1.38,5.92,5.37v9.13H55.46V41.09c0-2.05-1.27-2.78-3-2.78a10.89,10.89,0,0,0-3.08.41V49.91H46.19V36.64Zm15.07-8.49h3.17v8a7.82,7.82,0,0,1,3.23-.7c4.1,0,7.17,2.62,7.17,7.17s-3,7.65-8.29,7.65a15.84,15.84,0,0,1-5.28-.93Zm3.17,19.08a7.79,7.79,0,0,0,2.21.29c2.91,0,5-1.6,5-4.86a4.18,4.18,0,0,0-4.35-4.39,5.82,5.82,0,0,0-2.85.68ZM84,40.41c0-1.53-1.16-2.24-2.73-2.24a7.89,7.89,0,0,0-4.09,1.16V36.57a9.49,9.49,0,0,1,4.6-1.15c3.11,0,5.32,1.28,5.32,4.83v9.38a20.78,20.78,0,0,1-4.87.57c-3.68,0-6.37-1.11-6.37-4.31,0-2.89,2.47-4.3,6.57-4.3H84V40.41Zm0,3.29H82.63c-2.21,0-3.65.65-3.65,2.09s1.35,2,3.26,2A10.84,10.84,0,0,0,84,47.68v-4Zm5.4,2.38a7.4,7.4,0,0,0,4.32,1.6c1.41,0,2.34-.48,2.34-1.6s-.83-1.57-2.66-2c-2.95-.67-4.19-1.85-4.19-4.32,0-2.88,2.18-4.29,5.06-4.29a7.33,7.33,0,0,1,4.07,1.09v2.91a6.54,6.54,0,0,0-4-1.43c-1.38,0-2.11.67-2.11,1.6s.6,1.4,2.23,1.85c3.24.7,4.64,1.92,4.64,4.47,0,3-2.27,4.33-5.34,4.33a8.3,8.3,0,0,1-4.38-1.15v-3Zm14.07-2.53v.06A4.34,4.34,0,0,0,108,47.52a8.06,8.06,0,0,0,4.77-1.38v2.78a8.94,8.94,0,0,1-5,1.32c-4.41,0-7.42-2.82-7.42-7.3s3-7.52,6.85-7.52c4.13,0,6.08,2.66,6.08,6.53v1.6h-9.86Zm6.88-2c-.06-2.21-1.15-3.42-3.2-3.42-1.82,0-3.16,1.28-3.58,3.42Z" style="fill:#fff;fill-rule:evenodd"/></svg>