<svg id="Layer_1" data-name="Layer 1" xmlns="http://www.w3.org/2000/svg" viewBox="0 0 125.43 78.39"><title>Payment Methods</title><path d="M10.83,0H114.61a10.82,10.82,0,0,1,10.82,10.82V67.57A10.83,10.83,0,0,1,114.6,78.39H10.83A10.83,10.83,0,0,1,0,67.57V10.83A10.83,10.83,0,0,1,10.83,0Z" style="fill:#f9f9f9"/><path id="path5689" d="M39.4,35H33.65a3.77,3.77,0,0,0-.32-1.9c-.35-.48-1.29-.71-2.83-.71a6.91,6.91,0,0,0-3,.41,1.91,1.91,0,0,0-.73,1.8,1.8,1.8,0,0,0,.65,1.65,2.73,2.73,0,0,0,1.23.32l1.16.09c2.48.17,4,.28,4.65.34a7.22,7.22,0,0,1,4.27,1.57A4.16,4.16,0,0,1,40,41.2a19.93,19.93,0,0,1,.11,2.16,11.18,11.18,0,0,1-.53,4c-.64,1.58-2.07,2.57-4.31,3a25.06,25.06,0,0,1-4.3.26,26.29,26.29,0,0,1-6.73-.58,4.38,4.38,0,0,1-3.07-2.87,12.94,12.94,0,0,1-.42-4h5.74v.48c0,1,.29,1.64.86,1.93a3.41,3.41,0,0,0,1.44.31H30.9A7.65,7.65,0,0,0,33,45.77a1.69,1.69,0,0,0,1-1,4.09,4.09,0,0,0,.13-1.1c0-1-.37-1.62-1.1-1.84a32.9,32.9,0,0,0-3.84-.36c-1.83-.14-3.11-.26-3.83-.38a5.13,5.13,0,0,1-3.76-2.17,8.67,8.67,0,0,1-.83-4.26,10.8,10.8,0,0,1,.45-3.45,3.74,3.74,0,0,1,1.43-2A7.33,7.33,0,0,1,26.37,28c1.25-.11,2.65-.17,4.18-.17a22,22,0,0,1,5.16.42c2.49.67,3.75,2.55,3.75,5.64q0,.39-.06,1.14" style="fill:#005697"/><path id="path5693" d="M64.65,50.67V27.73H76.16a12.81,12.81,0,0,1,3.61.38,5.61,5.61,0,0,1,3.81,3.64,14.29,14.29,0,0,1,.5,4.35,16.17,16.17,0,0,1-.55,5A5.2,5.2,0,0,1,79,44.6c-.27,0-1.43.08-3.44.11l-1,0H70.83v5.92Zm6.18-11.25h3.85a6.74,6.74,0,0,0,2.23-.28,1.67,1.67,0,0,0,.73-1.2,11.15,11.15,0,0,0,.12-1.8A7.24,7.24,0,0,0,77.52,34a1.85,1.85,0,0,0-1.6-1.2,10.42,10.42,0,0,0-1.19,0h-3.9Z" style="fill:#005697"/><path id="path5697" d="M97.26,46.7H89l-1.11,4H81.5l6.89-22.93H97.7l7,22.94H98.43ZM96,42.23l-2.89-9.95-2.81,9.94H96Z" style="fill:#005697"/><path id="path5701" d="M56.13,31a8.1,8.1,0,0,1,6.32,3l1.33-2.86a11.68,11.68,0,0,0-8-3.17A11.56,11.56,0,0,0,45,35h-2.6l-1.53,3.29h3.34c0,.3,0,.61,0,.92a10.38,10.38,0,0,0,0,1.12H42.56L41,43.65h4.06a11.57,11.57,0,0,0,10.66,6.89,11.7,11.7,0,0,0,6.51-2v-4a8.13,8.13,0,0,1-12.92-.92h8.49l1.53-3.29H48.07A8,8,0,0,1,48,39.13a7.27,7.27,0,0,1,0-.82H60.31L61.84,35H49.09a8.13,8.13,0,0,1,7-4.07" style="fill:#ffbe00"/></svg>