<svg id="Layer_1" data-name="Layer 1" xmlns="http://www.w3.org/2000/svg" viewBox="0 0 125.43 78.39"><title>Payment Methods</title><path d="M10.83,0H114.61a10.82,10.82,0,0,1,10.82,10.82V67.57A10.83,10.83,0,0,1,114.6,78.39H10.83A10.83,10.83,0,0,1,0,67.57V10.83A10.83,10.83,0,0,1,10.83,0Z" style="fill:#f9f9f9"/><path id="Fill-4" d="M93.88,31.78H69.21L66.7,34.61l-8.14,9.16h0L56.05,46.6H31.7l2.47-2.86,1.17-1.36,2.47-2.86H26.6a3.79,3.79,0,0,0-3.73,3.83h0v8.06a3.79,3.79,0,0,0,3.73,3.82H69.54a9.48,9.48,0,0,0,6.22-2.84L82.26,45Z" style="fill:#005697;fill-rule:evenodd"/><path id="Fill-6" d="M98.83,23.17A3.78,3.78,0,0,1,102.56,27v8.06a3.79,3.79,0,0,1-3.73,3.82H87.65L90.15,36h0l1.23-1.41,2.5-2.84H69.21L56.05,46.61H31.55L49.12,26.75l.66-.75A9.51,9.51,0,0,1,56,23.17H98.83Z" style="fill:#fbd500;fill-rule:evenodd"/></svg>