<svg id="Layer_1" data-name="Layer 1" xmlns="http://www.w3.org/2000/svg" viewBox="0 0 125.43 78.39"><title>Payment Methods</title><path d="M10.83,0H114.61a10.82,10.82,0,0,1,10.82,10.82V67.57A10.83,10.83,0,0,1,114.6,78.39H10.83A10.83,10.83,0,0,1,0,67.57V10.83A10.83,10.83,0,0,1,10.83,0Z" style="fill:#ec8131"/><path d="M71.05,19.56c-3.55,0-7,0-10.08,1.58s-5.8,4.71-7.91,11a12.23,12.23,0,0,0-.71,3.52,5.13,5.13,0,0,0,.52,2.63,7.77,7.77,0,0,0,2.19,2.5,11.33,11.33,0,0,0,3.35,1.68c.05,0,.7.18,1.49.4l2.28.67a6.7,6.7,0,0,1,1,.44,2.11,2.11,0,0,1,.84.86,1.76,1.76,0,0,1,.18.8,2.29,2.29,0,0,1-.17.94,2.51,2.51,0,0,1-1.54,1.75,11.75,11.75,0,0,1-3.91.47H35.47l-3.66,10h24.8a27.09,27.09,0,0,0,10.72-1.75c4.09-1.75,8-5.23,9.68-12.18.62-2.63.44-4.75-.58-6.42s-2.87-2.87-5.59-3.65c0,0-.61-.17-1.32-.39S68,34,67.58,33.88A2.65,2.65,0,0,1,66,32.78,2.21,2.21,0,0,1,65.81,31a2.52,2.52,0,0,1,1.28-1.54,5.29,5.29,0,0,1,2.51-.57H84c.12-.13.19-.3.31-.44a31.63,31.63,0,0,1,9.29-8.85H71.05Z" style="fill:#fff"/></svg>