<?xml version="1.0" encoding="utf-8"?>
<!-- Generator: Adobe Illustrator 24.1.1, SVG Export Plug-In . SVG Version: 6.00 Build 0)  -->
<svg version="1.1" id="Layer_1" xmlns="http://www.w3.org/2000/svg" xmlns:xlink="http://www.w3.org/1999/xlink" x="0px" y="0px"
	 viewBox="0 0 310 40" style="enable-background:new 0 0 310 40;" xml:space="preserve">
<style type="text/css">
	.st0{enable-background:new    ;}
	.st1{fill:#00237E;}
	.st2{fill:#8099CE;}
</style>
<desc>Created with Sketch.</desc>
<g class="st0">
	<path class="st1" d="M19.7,4.3C19.7,4.1,20,4,20.2,4h0.4c0.1,0,0.3,0.1,0.4,0.2l5.6,10.4l0,0l5.6-10.4c0-0.1,0.2-0.2,0.3-0.2h0.4
		c0.2,0,0.4,0.2,0.4,0.4L36,20.5c0,0.3-0.2,0.5-0.5,0.5h-2.8c-0.2,0-0.4-0.2-0.5-0.4l-1.1-7.4l0,0l-4,7.8c-0.1,0.1-0.3,0.3-0.4,0.3
		h-0.4c-0.1,0-0.3-0.1-0.4-0.3l-4.1-7.8l0,0l-1.1,7.4c0,0.2-0.2,0.4-0.5,0.4h-2.8c-0.3,0-0.5-0.2-0.5-0.5L19.7,4.3z"/>
	<path class="st1" d="M41.2,4.7c0-0.2,0.2-0.5,0.5-0.5h2.9c0.2,0,0.5,0.2,0.5,0.5v15.9c0,0.2-0.2,0.5-0.5,0.5h-2.9
		c-0.2,0-0.5-0.2-0.5-0.5V4.7z"/>
	<path class="st1" d="M51.1,4.7c0-0.2,0.2-0.5,0.5-0.5h7.2c3,0,5.2,2.3,5.2,5.2c0,2.2-1.3,4-3.6,4.8l3.3,6.1c0.2,0.3,0,0.7-0.4,0.7
		h-3.2c-0.2,0-0.3-0.1-0.4-0.2l-3.2-6.4h-1.7v6.1c0,0.2-0.2,0.5-0.5,0.5h-2.9c-0.3,0-0.5-0.2-0.5-0.5V4.7H51.1z M58.4,11.4
		c1,0,1.8-0.8,1.8-1.9s-0.8-1.8-1.8-1.8h-3.6v3.7H58.4z"/>
	<path class="st1" d="M67.4,20.4l7.5-16.2C75,4.1,75.1,4,75.3,4h0.2c0.2,0,0.3,0.1,0.4,0.3l7.5,16.2c0.1,0.3,0,0.6-0.4,0.6h-2.7
		c-0.4,0-0.6-0.1-0.8-0.6l-0.9-1.9h-6.5l-0.9,1.9c-0.1,0.3-0.4,0.6-0.9,0.6h-2.6C67.4,21,67.2,20.7,67.4,20.4z M77.2,15.2l-1.8-4
		l0,0l-1.8,4H77.2z"/>
	<path class="st1" d="M94.9,4c2.4,0,4.2,0.7,5.8,2.2c0.2,0.2,0.2,0.5,0,0.7l-1.9,1.9c-0.2,0.2-0.4,0.2-0.6,0c-1-0.9-2.1-1.2-3.2-1.2
		c-2.7,0-4.7,2.3-4.7,4.9c0,2.7,2,4.9,4.7,4.9c1.3,0,2.4-0.4,3.2-1.2c0.2-0.1,0.5-0.1,0.6,0l1.9,2c0.2,0.2,0.1,0.5,0,0.6
		c-1.6,1.6-3.7,2.3-5.8,2.3c-4.8,0-8.7-3.8-8.7-8.6C86.2,7.8,90.1,4,94.9,4z"/>
	<path class="st1" d="M105.8,4.7c0-0.2,0.2-0.5,0.5-0.5h2.9c0.2,0,0.5,0.2,0.5,0.5v12.8h5.7c0.3,0,0.5,0.2,0.5,0.5v2.6
		c0,0.2-0.2,0.5-0.5,0.5h-9c-0.3,0-0.5-0.2-0.5-0.5L105.8,4.7L105.8,4.7z"/>
	<path class="st1" d="M120.3,4.7c0-0.2,0.2-0.5,0.5-0.5h9.9c0.3,0,0.5,0.2,0.5,0.5v2.6c0,0.2-0.2,0.5-0.5,0.5H124v3h5.5
		c0.2,0,0.5,0.2,0.5,0.5v2.6c0,0.3-0.2,0.5-0.5,0.5H124v3.2h6.6c0.3,0,0.5,0.2,0.5,0.5v2.6c0,0.2-0.2,0.5-0.5,0.5h-9.9
		c-0.3,0-0.5-0.2-0.5-0.5C120.3,20.5,120.3,4.7,120.3,4.7z"/>
</g>
<g class="st0">
	<path class="st1" d="M45,32.4c0.6,0.2,1.3,0.7,1.3,1.6c0,1.2-1,1.9-2.2,1.9h-2.5c-0.1,0-0.2-0.1-0.2-0.2v-6.6
		c0-0.1,0.1-0.2,0.2-0.2H44c1.2,0,2.1,0.8,2.1,1.9C46.1,31.7,45.5,32.2,45,32.4L45,32.4L45,32.4z M43.8,31.8c0.4,0,0.7-0.3,0.7-0.7
		s-0.3-0.7-0.7-0.7H43v1.4L43.8,31.8L43.8,31.8z M43.8,34.6c0.5,0,0.8-0.2,0.8-0.7c0-0.4-0.3-0.7-0.8-0.7H43v1.4H43.8z"/>
	<path class="st1" d="M52.1,32.6l-2.2-3.3c-0.1-0.1,0-0.3,0.2-0.3h1.3c0.1,0,0.1,0,0.2,0.1l1.4,2l1.4-2c0,0,0.1-0.1,0.2-0.1h1.3
		c0.2,0,0.2,0.2,0.2,0.3l-2.2,3.3v3.2c0,0.1-0.1,0.2-0.2,0.2h-1.2c-0.1,0-0.2-0.1-0.2-0.2C52.1,35.8,52.1,32.6,52.1,32.6z"/>
	<path class="st1" d="M64.5,35.7l3.1-6.7c0-0.1,0.1-0.1,0.2-0.1h0.1c0.1,0,0.1,0,0.2,0.1l3.1,6.7c0.1,0.1,0,0.3-0.2,0.3h-1.1
		c-0.2,0-0.3-0.1-0.3-0.3L69.2,35h-2.7l-0.4,0.8c0,0.1-0.1,0.2-0.3,0.2h-1.1C64.5,36,64.4,35.9,64.5,35.7z M68.6,33.6L67.8,32l0,0
		L67,33.6H68.6z"/>
	<path class="st1" d="M75.3,29.2c0-0.1,0.1-0.2,0.2-0.2h1.2c0.1,0,0.2,0.1,0.2,0.2v5.3h2.4c0.1,0,0.2,0.1,0.2,0.2v1.1
		c0,0.1-0.1,0.2-0.2,0.2h-3.8c-0.1,0-0.2-0.1-0.2-0.2L75.3,29.2L75.3,29.2z"/>
	<path class="st1" d="M86.7,28.9c2,0,3.6,1.6,3.6,3.6s-1.6,3.6-3.6,3.6s-3.6-1.6-3.6-3.6S84.7,28.9,86.7,28.9z M86.7,34.5
		c1.1,0,2-0.9,2-2c0-1.1-0.9-2-2-2s-2,0.9-2,2C84.7,33.6,85.6,34.5,86.7,34.5z"/>
	<path class="st1" d="M94.8,29.2c0-0.1,0.1-0.2,0.2-0.2h4.1c0.1,0,0.2,0.1,0.2,0.2v1.1c0,0.1-0.1,0.2-0.2,0.2h-2.8v1.4h2.3
		c0.1,0,0.2,0.1,0.2,0.2v1.1c0,0.1-0.1,0.2-0.2,0.2h-2.3v2.4c0,0.1-0.1,0.2-0.2,0.2H95c-0.1,0-0.2-0.1-0.2-0.2V29.2z"/>
</g>
<g class="st0">
	<path class="st1" d="M104.7,30.5h-1.4c-0.1,0-0.2-0.1-0.2-0.2v-1.1c0-0.1,0.1-0.2,0.2-0.2h4.4c0.1,0,0.2,0.1,0.2,0.2v1.1
		c0,0.1-0.1,0.2-0.2,0.2h-1.4v5.3c0,0.1-0.1,0.2-0.2,0.2h-1.2c-0.1,0-0.2-0.1-0.2-0.2L104.7,30.5L104.7,30.5z"/>
</g>
<polygon id="Fill-1" class="st1" points="6.5,7 7.4,10.8 11,9.8 8.3,12.5 11,15.3 7.4,14.2 6.5,18 5.6,14.2 2,15.3 4.7,12.5 2,9.8 
	5.6,10.8 "/>
<polygon id="Fill-1-Copy" class="st1" points="139.5,7 140.4,10.8 144,9.8 141.3,12.5 144,15.3 140.4,14.2 139.5,18 138.6,14.2 
	135,15.3 137.7,12.5 135,9.8 138.6,10.8 "/>
<path class="st2" d="M179.9,16.3V8.3c0-4.6-3.8-8.3-8.3-8.3c-4.6,0-8.3,3.8-8.3,8.3v7.9c-3.1,2.4-5,6.2-5,10.3
	c0,7.4,5.9,13.3,13.3,13.3c7.4,0,13.3-5.9,13.3-13.3C184.9,22.4,182.8,18.7,179.9,16.3z M166.6,8.3c0-2.8,2.3-5,5-5c2.7,0,5,2.3,5,5
	v6c-1.6-0.7-3.2-0.9-5-0.9c-1.7,0-3.5,0.4-5,0.9V8.3z M171.6,36.7c-5.5,0-9.9-4.4-9.9-9.9s4.4-9.9,9.9-9.9s9.9,4.4,9.9,9.9
	S177.1,36.7,171.6,36.7z M174.9,26.7c0,1.9-1.5,3.4-3.4,3.4c-1.9,0-3.4-1.5-3.4-3.4c0-1.9,1.5-3.4,3.4-3.4
	C173.4,23.4,174.9,24.8,174.9,26.7z"/>
<g>
	<g>
		<path class="st2" d="M195.7,16.8l0.8-1.3c0.1-0.3,0.4-0.1,0.5-0.1c0,0,1.2,0.9,2.3,0.9c0.7,0,1.1-0.4,1.1-0.9
			c0-0.7-0.5-1.2-1.6-1.6c-1.3-0.5-3.1-1.6-3.1-3.6c0-1.6,1.2-3.2,3.8-3.2c1.6,0,3,0.8,3.5,1.2c0.1,0.1,0.1,0.4,0.1,0.5l-0.8,1.2
			c-0.1,0.1-0.4,0.3-0.5,0.3c-0.1-0.1-1.3-0.9-2.3-0.9c-0.5,0-1.1,0.4-1.1,0.8c0,0.5,0.5,1.1,1.7,1.6c1.2,0.5,3.2,1.5,3.2,3.6
			c0,1.6-1.5,3.4-3.8,3.4c-2.1,0-3.2-0.8-3.6-1.2C195.6,17.1,195.6,16.9,195.7,16.8z"/>
		<path class="st2" d="M205.3,7.3c0-0.1,0.1-0.3,0.3-0.3h6.7c0.1,0,0.3,0.1,0.3,0.3V9c0,0.1-0.1,0.3-0.3,0.3h-4.4v2h3.6
			c0.1,0,0.3,0.1,0.3,0.3v1.7c0,0.1-0.1,0.3-0.3,0.3h-3.6v2.1h4.4c0.1,0,0.3,0.1,0.3,0.3v1.7c0,0.1-0.1,0.3-0.3,0.3h-6.7
			c-0.1,0-0.3-0.1-0.3-0.3V7.3z"/>
		<path class="st2" d="M219.6,6.9c1.6,0,2.8,0.5,3.9,1.5c0.1,0.1,0.1,0.3,0,0.4l-1.2,1.3c-0.1,0.1-0.3,0.1-0.4,0
			c-0.5-0.5-1.3-0.8-2.1-0.8c-1.9,0-3.2,1.5-3.2,3.4c0,1.7,1.3,3.2,3.2,3.2c0.8,0,1.6-0.3,2.1-0.8c0.1-0.1,0.3-0.1,0.4,0l1.2,1.3
			c0.1,0.1,0.1,0.3,0,0.4c-1.1,1.1-2.4,1.6-3.9,1.6c-3.2,0-5.8-2.6-5.8-5.8S216.4,6.9,219.6,6.9z"/>
		<path class="st2" d="M225.4,7.3c0-0.1,0.1-0.3,0.3-0.3h2c0.1,0,0.3,0.1,0.3,0.3v6.6c0,1.1,0.8,2,2,2c1.2,0,2-0.9,2-2V7.3
			c0-0.1,0.1-0.3,0.3-0.3h2c0.1,0,0.3,0.1,0.3,0.3V14c0,2.4-2,4.4-4.6,4.4s-4.6-2-4.6-4.4V7.3z"/>
		<path class="st2" d="M237.1,7.3c0-0.1,0.1-0.3,0.3-0.3h4.8c1.9,0,3.5,1.6,3.5,3.5c0,1.5-0.9,2.7-2.4,3.2l2.1,4
			c0.1,0.3,0,0.4-0.3,0.4H243c-0.1,0-0.3-0.1-0.3-0.1l-2.1-4.3h-1.1v4.2c0,0.1-0.1,0.3-0.3,0.3h-1.9c-0.1,0-0.3-0.1-0.3-0.3
			L237.1,7.3L237.1,7.3z M242.1,11.8c0.7,0,1.2-0.7,1.2-1.3s-0.5-1.2-1.2-1.2h-2.4v2.6H242.1z"/>
		<path class="st2" d="M248,7.3c0-0.1,0.1-0.3,0.3-0.3h6.7c0.1,0,0.3,0.1,0.3,0.3V9c0,0.1-0.1,0.3-0.3,0.3h-4.4v2h3.6
			c0.1,0,0.3,0.1,0.3,0.3v1.7c0,0.1-0.1,0.3-0.3,0.3h-3.6v2.1h4.4c0.1,0,0.3,0.1,0.3,0.3v1.7c0,0.1-0.1,0.3-0.3,0.3h-6.7
			c-0.1,0-0.3-0.1-0.3-0.3V7.3z"/>
	</g>
	<g>
		<path class="st2" d="M201.4,21.6c1.6,0,2.8,0.5,3.9,1.5c0.1,0.1,0.1,0.3,0,0.4l-1.2,1.3c-0.1,0.1-0.3,0.1-0.4,0
			c-0.5-0.5-1.3-0.8-2.1-0.8c-1.9,0-3.2,1.5-3.2,3.4c0,1.7,1.3,3.2,3.2,3.2c0.8,0,1.6-0.3,2.1-0.8c0.1-0.1,0.3-0.1,0.4,0l1.2,1.3
			c0.1,0.1,0.1,0.3,0,0.4c-1.1,1.1-2.4,1.6-3.9,1.6c-3.2,0-5.8-2.6-5.8-5.8S198.2,21.6,201.4,21.6z"/>
		<path class="st2" d="M207.3,22c0-0.1,0.1-0.3,0.3-0.3h1.9c0.1,0,0.3,0.1,0.3,0.3v4h4.6v-4c0-0.1,0.1-0.3,0.3-0.3h1.9
			c0.1,0,0.3,0.1,0.3,0.3v10.6c0,0.1-0.1,0.3-0.3,0.3h-1.9c-0.1,0-0.3-0.1-0.3-0.3v-4.3h-4.6v4.3c0,0.1-0.1,0.3-0.3,0.3h-1.9
			c-0.1,0-0.3-0.1-0.3-0.3V22z"/>
		<path class="st2" d="M219.6,22c0-0.1,0.1-0.3,0.3-0.3h6.7c0.1,0,0.3,0.1,0.3,0.3v1.7c0,0.1-0.1,0.3-0.3,0.3h-4.4v2h3.6
			c0.1,0,0.3,0.1,0.3,0.3v1.7c0,0.1-0.1,0.3-0.3,0.3h-3.6v2.1h4.4c0.1,0,0.3,0.1,0.3,0.3v1.7c0,0.1-0.1,0.3-0.3,0.3h-6.7
			c-0.1,0-0.3-0.1-0.3-0.3V22z"/>
		<path class="st2" d="M234.2,21.6c1.6,0,2.8,0.5,3.9,1.5c0.1,0.1,0.1,0.3,0,0.4l-1.2,1.3c-0.1,0.1-0.3,0.1-0.4,0
			c-0.5-0.5-1.3-0.8-2.1-0.8c-1.9,0-3.2,1.5-3.2,3.4c0,1.7,1.3,3.2,3.2,3.2c0.8,0,1.6-0.3,2.1-0.8c0.1-0.1,0.3-0.1,0.4,0l1.2,1.3
			c0.1,0.1,0.1,0.3,0,0.4c-1.1,1.1-2.4,1.6-3.9,1.6c-3.2,0-5.8-2.6-5.8-5.8S230.9,21.6,234.2,21.6z"/>
		<path class="st2" d="M239.9,22.2c0-0.3,0.1-0.4,0.4-0.4h1.9c0.3,0,0.4,0.1,0.4,0.4v4.3l3.6-4.4c0-0.1,0.3-0.1,0.3-0.1h2
			c0.3,0,0.4,0.4,0.3,0.5l-3.8,4.7l4.2,5.4c0.1,0.3,0,0.5-0.3,0.5h-2.3c-0.1,0-0.3,0-0.3-0.1l-3.8-5.1v4.8c0,0.3-0.1,0.4-0.4,0.4
			h-1.9c-0.3,0-0.4-0.1-0.4-0.4V22.2z"/>
		<path class="st2" d="M255.5,21.6c3.2,0,5.8,2.6,5.8,5.8s-2.6,5.8-5.8,5.8c-3.2,0-5.8-2.6-5.8-5.8S252.3,21.6,255.5,21.6z
			 M255.5,30.6c1.7,0,3.2-1.5,3.2-3.2s-1.5-3.2-3.2-3.2c-1.7,0-3.2,1.5-3.2,3.2C252.4,29.1,253.8,30.6,255.5,30.6z"/>
		<path class="st2" d="M263.2,22c0-0.1,0.1-0.3,0.3-0.3h2c0.1,0,0.3,0.1,0.3,0.3v6.6c0,1.1,0.8,2,2,2c1.2,0,2-0.9,2-2V22
			c0-0.1,0.1-0.3,0.3-0.3h2c0.1,0,0.3,0.1,0.3,0.3v6.7c0,2.4-2,4.4-4.6,4.4c-2.6,0-4.6-2-4.6-4.4V22z"/>
		<path class="st2" d="M276.3,24.2H274c-0.1,0-0.3-0.1-0.3-0.3v-1.7c0-0.1,0.1-0.3,0.3-0.3h7.1c0.1,0,0.3,0.1,0.3,0.3v1.7
			c0,0.1-0.1,0.3-0.3,0.3h-2.3v8.6c0,0.1-0.1,0.3-0.3,0.3h-1.9c-0.1,0-0.3-0.1-0.3-0.3v-8.6H276.3z"/>
	</g>
</g>
</svg>
