<svg id="credit-card-white" xmlns="http://www.w3.org/2000/svg" width="224.499" height="24.26" viewBox="0 0 224.499 24.26">
  <g id="Group_3" data-name="Group 3">
    <path id="Path_70" data-name="Path 70" d="M33.282.99A4.038,4.038,0,0,1,37.3,5.006V19.144a4.038,4.038,0,0,1-4.016,4.016H5.061a4.038,4.038,0,0,1-4.016-4.016V5.061A4.038,4.038,0,0,1,5.061,1.045L33.282.99m0-.99H5.061A5.048,5.048,0,0,0,0,5.061V19.2A5.036,5.036,0,0,0,5.061,24.2H33.282a5.048,5.048,0,0,0,5.061-5.061V5.061A5.119,5.119,0,0,0,33.282,0Z" fill="#fff"/>
    <path id="Path_71" data-name="Path 71" d="M15.276,16.043a1.867,1.867,0,0,0-1.485-.55H11.7a.252.252,0,0,0-.275.22L10.6,21.049c0,.11.055.165.165.22h.99a.281.281,0,0,0,.275-.22l.22-1.43c0-.165.165-.22.275-.22h.66a2.155,2.155,0,0,0,2.365-1.87v-.11A1.717,1.717,0,0,0,15.276,16.043Zm-1.265,1.375c-.11.77-.66.77-1.21.77h-.33l.22-1.375a.176.176,0,0,1,.165-.165h.165c.385,0,.715,0,.88.22A.678.678,0,0,1,14.011,17.419Zm6,0h-.99a.146.146,0,0,0-.165.165h0v.275l-.055-.11a1.3,1.3,0,0,0-1.155-.44,2.308,2.308,0,0,0-2.255,2.035,1.937,1.937,0,0,0,.385,1.54,1.548,1.548,0,0,0,1.265.5,2.057,2.057,0,0,0,1.375-.55V21.1c0,.11.055.165.165.22h.935a.252.252,0,0,0,.275-.22l.55-3.411c.055-.055,0-.165-.055-.22-.165-.11-.22-.11-.275-.055Zm-1.43,1.925a1.055,1.055,0,0,1-1.155.935.911.911,0,0,1-.66-.275.834.834,0,0,1-.165-.715,1.126,1.126,0,0,1,1.1-.99.911.911,0,0,1,.66.275A.893.893,0,0,1,18.577,19.344Zm6.711-1.925H24.3a.286.286,0,0,0-.22.11L22.7,19.564l-.605-1.98a.365.365,0,0,0-.275-.22h-.99a.176.176,0,0,0-.165.165v.055l1.1,3.246-1.045,1.54a.136.136,0,0,0,.055.22c.055,0,.055.055.11.055h.99a.286.286,0,0,0,.22-.11l3.3-4.841c.055-.11,0-.165-.11-.22C25.343,17.419,25.288,17.419,25.288,17.419Zm4.841-1.375a1.867,1.867,0,0,0-1.485-.55h-2.09a.252.252,0,0,0-.275.22l-.825,5.336c0,.11.055.165.165.22h1.1a.146.146,0,0,0,.165-.165l.22-1.54c0-.165.165-.22.275-.22h.66A2.157,2.157,0,0,0,30.4,17.419v-.11A1.735,1.735,0,0,0,30.129,16.043Zm-1.265,1.43c-.11.77-.66.77-1.265.77h-.33l.22-1.375a.146.146,0,0,1,.165-.165h.165a1.26,1.26,0,0,1,.935.22.6.6,0,0,1,.11.55Zm5.941,0h-.99a.146.146,0,0,0-.165.165v.275l-.055-.11a1.351,1.351,0,0,0-1.155-.44A2.356,2.356,0,0,0,30.184,19.4a1.937,1.937,0,0,0,.385,1.54,1.548,1.548,0,0,0,1.265.5,2.057,2.057,0,0,0,1.375-.55v.275c0,.11.055.165.165.22h.935a.252.252,0,0,0,.275-.22l.5-3.521c0-.11-.055-.165-.165-.22H34.86v.055Zm-1.375,1.87a1.036,1.036,0,0,1-1.1.935.911.911,0,0,1-.66-.275.834.834,0,0,1-.165-.715,1.126,1.126,0,0,1,1.1-.99.845.845,0,0,1,.88.77,2.382,2.382,0,0,1-.055.275Zm3.686-3.851h-.99a.146.146,0,0,0-.165.165L35.135,21.1c0,.11.055.165.165.22h.935a.252.252,0,0,0,.275-.22l.825-5.391a.2.2,0,0,0-.22-.22Z" transform="translate(-4.769 -6.966)" fill="#fff"/>
  </g>
  <g id="Group_4" data-name="Group 4" transform="translate(46.539)">
    <path id="Path_72" data-name="Path 72" d="M117.882.99A4.038,4.038,0,0,1,121.9,5.006V19.144a4.038,4.038,0,0,1-4.016,4.016H89.661a4.038,4.038,0,0,1-4.016-4.016V5.061a4.038,4.038,0,0,1,4.016-4.016L117.882.99m0-.99H89.661A5.048,5.048,0,0,0,84.6,5.061V19.2a5.048,5.048,0,0,0,5.061,5.061h28.221a5.048,5.048,0,0,0,5.061-5.061V5.061A5.048,5.048,0,0,0,117.882,0Z" transform="translate(-84.6)" fill="#fff"/>
    <path id="Path_73" data-name="Path 73" d="M106.617,15.61,103.7,22.541h-1.925l-1.375-5.5a.644.644,0,0,0-.44-.605,9.5,9.5,0,0,0-1.76-.605v-.22h3.026a.833.833,0,0,1,.825.715l.77,4.016,1.87-4.731Zm7.371,4.676c0-1.815-2.53-1.925-2.475-2.751,0-.22.22-.5.77-.55a3.828,3.828,0,0,1,1.76.275l.33-1.485a4.338,4.338,0,0,0-1.65-.275c-1.76,0-3.026.935-3.026,2.31,0,.99.88,1.54,1.54,1.87s.935.55.935.88c0,.44-.55.66-1.045.66a3.419,3.419,0,0,1-1.815-.44l-.33,1.54a6.359,6.359,0,0,0,2.035.385c1.76-.055,2.971-.99,2.971-2.42m4.676,2.255h1.65l-1.43-6.931h-1.54a.863.863,0,0,0-.77.5l-2.7,6.436h1.87l.385-.99h2.31Zm-2.035-2.475.935-2.586.55,2.586Zm-7.481-4.456-1.485,6.931H105.9l1.485-6.931Z" transform="translate(-90.719 -6.973)" fill="#fff"/>
  </g>
  <g id="Group_5" data-name="Group 5" transform="translate(93.078)">
    <path id="Path_74" data-name="Path 74" d="M202.482.99A4.038,4.038,0,0,1,206.5,5.006V19.144a4.038,4.038,0,0,1-4.016,4.016H174.261a4.038,4.038,0,0,1-4.016-4.016V5.061a4.038,4.038,0,0,1,4.016-4.016L202.482.99m0-.99H174.261A5.048,5.048,0,0,0,169.2,5.061V19.2a5.048,5.048,0,0,0,5.061,5.061h28.221a5.048,5.048,0,0,0,5.061-5.061V5.061A5.048,5.048,0,0,0,202.482,0Z" transform="translate(-169.2)" fill="#fff"/>
    <path id="Path_75" data-name="Path 75" d="M196.275,14.119a4.791,4.791,0,1,0,0,7.922A6.024,6.024,0,0,1,196.275,14.119Z" transform="translate(-178.012 -5.977)" fill="#fff"/>
    <circle id="Ellipse_1" data-name="Ellipse 1" cx="4.786" cy="4.786" r="4.786" transform="translate(17.989 7.316)" fill="#fff"/>
  </g>
  <g id="Group_6" data-name="Group 6" transform="translate(139.617)">
    <path id="Path_76" data-name="Path 76" d="M287.081.99A4.038,4.038,0,0,1,291.1,5.006V19.144a4.038,4.038,0,0,1-4.016,4.016h-28.22a4.038,4.038,0,0,1-4.016-4.016V5.061a4.038,4.038,0,0,1,4.016-4.016L287.081.99m0-.99h-28.22A5.048,5.048,0,0,0,253.8,5.061V19.2a5.048,5.048,0,0,0,5.061,5.061h28.22a5.048,5.048,0,0,0,5.061-5.061V5.061A5.048,5.048,0,0,0,287.081,0Z" transform="translate(-253.8)" fill="#fff"/>
    <path id="Path_77" data-name="Path 77" d="M277.258,17.81a2.256,2.256,0,1,0,.11,4.511,2.256,2.256,0,0,0-.11-4.511Zm-11.827,4.4h.77V17.92h-.77Zm-1.43-3.8a1.811,1.811,0,0,0-.715-.385,2.138,2.138,0,0,0-.825-.11H260.7v4.291h1.65a4.246,4.246,0,0,0,.825-.11,5.03,5.03,0,0,0,.77-.385,1.617,1.617,0,0,0,.55-.66,1.808,1.808,0,0,0,.22-.935,2.57,2.57,0,0,0-.165-.935A2.761,2.761,0,0,0,264,18.415Zm-.275,2.31a1.483,1.483,0,0,1-.385.44,2.57,2.57,0,0,1-.55.275,2.906,2.906,0,0,1-.715.055h-.55V18.58h.715a2.679,2.679,0,0,1,.66.055,1.3,1.3,0,0,1,.55.275.856.856,0,0,1,.33.44,1.4,1.4,0,0,1,.11.66,1.523,1.523,0,0,1-.165.715Zm5.611-.77a1.954,1.954,0,0,0-.5-.22l-.5-.165c-.11-.055-.275-.11-.385-.165a.392.392,0,0,1-.165-.33.5.5,0,0,1,.055-.275l.165-.165a.417.417,0,0,1,.22-.11h.275c.165,0,.275.055.44.055a.809.809,0,0,1,.33.275l.55-.605a1.311,1.311,0,0,0-.605-.33,2.761,2.761,0,0,0-.66-.11c-.22,0-.385.055-.605.055a2.3,2.3,0,0,0-.55.22,1.285,1.285,0,0,0-.385.385,1.061,1.061,0,0,0-.165.55,1.109,1.109,0,0,0,.165.605,1.285,1.285,0,0,0,.385.385,1.954,1.954,0,0,0,.5.22l.5.165a.887.887,0,0,1,.385.22.436.436,0,0,1,.055.605l-.165.165a.42.42,0,0,1-.275.11h-.275a1.148,1.148,0,0,1-.88-.44l-.605.55a1.4,1.4,0,0,0,.66.44,2,2,0,0,0,.77.11c.22,0,.44-.055.605-.055a1.442,1.442,0,0,0,.5-.275.856.856,0,0,0,.33-.44,1.088,1.088,0,0,0,.11-.605,1.109,1.109,0,0,0-.165-.605c.22,0,.055-.11-.11-.22Zm15.843.385h2.035v-.715H285.18v-.99h2.145V17.92H284.41v4.346h3.026v-.66H285.18Zm5.171-.055a1.156,1.156,0,0,0,.77-.385,1.314,1.314,0,0,0,.275-.77,1.109,1.109,0,0,0-.165-.605,1.286,1.286,0,0,0-.385-.385.929.929,0,0,0-.55-.165,2.256,2.256,0,0,0-.605-.055h-1.54v4.291h.77V20.4h.55l.99,1.815h.935Zm-.44-.55h-.935V18.58h.99c.11,0,.165.055.275.055a.76.76,0,0,1,.22.165c.055.11.11.22.055.275a.7.7,0,0,1-.055.33c-.055.055-.165.165-.22.165a.851.851,0,0,1-.33.165ZM273.352,21.5a.817.817,0,0,1-.5.11,1.978,1.978,0,0,1-.605-.11,1.3,1.3,0,0,1-.5-.33l-.33-.5a2.762,2.762,0,0,1-.11-.66,1.413,1.413,0,0,1,.44-1.1.8.8,0,0,1,.5-.33,1.184,1.184,0,0,1,.605-.11c.165,0,.33.055.44.055a1.324,1.324,0,0,1,.44.33l.605-.44a2.468,2.468,0,0,0-.715-.55,2.207,2.207,0,0,0-.825-.165,2.57,2.57,0,0,0-.935.165,2.261,2.261,0,0,0-.715.44,2.093,2.093,0,0,0-.5.715,2.569,2.569,0,0,0-.165.935,2.281,2.281,0,0,0,.165.88,2.093,2.093,0,0,0,.5.715,1.941,1.941,0,0,0,.715.44,2.57,2.57,0,0,0,.935.165,2.794,2.794,0,0,0,.935-.165,1.787,1.787,0,0,0,.715-.55l-.66-.5A1.149,1.149,0,0,1,273.352,21.5Zm8.417-.33-1.21-3.246h-.88l1.705,4.291h.715l1.76-4.291h-.825Z" transform="translate(-256.904 -7.963)" fill="#fff"/>
  </g>
  <g id="Group_7" data-name="Group 7" transform="translate(186.156)">
    <path id="Path_78" data-name="Path 78" d="M371.681.99A4.038,4.038,0,0,1,375.7,5.006V19.144a4.038,4.038,0,0,1-4.016,4.016H343.461a4.038,4.038,0,0,1-4.016-4.016V5.061a4.038,4.038,0,0,1,4.016-4.016L371.681.99m0-.99H343.461A5.048,5.048,0,0,0,338.4,5.061V19.2a5.048,5.048,0,0,0,5.061,5.061h28.221a5.048,5.048,0,0,0,5.061-5.061V5.061A5.048,5.048,0,0,0,371.681,0Z" transform="translate(-338.4)" fill="#fff"/>
    <path id="Path_79" data-name="Path 79" d="M363.072,17.4h-.66l-1.485,3.191-1.54-3.191h-2.035v4.291L355.426,17.4H353.5l-2.2,5.061h1.485l.44-1.1h2.365l.5,1.1h2.53V18.83l1.705,3.631h1.21l1.54-3.356v3.356h1.375V17.4Zm-9.352,2.806.66-1.65.715,1.65Z" transform="translate(-344.204 -7.828)" fill="#fff"/>
    <path id="Path_80" data-name="Path 80" d="M386.977,17.4h-1.815l-1.43,1.485L382.356,17.4H376.8v5.061h5.446l1.485-1.6,1.43,1.6h1.76l-2.31-2.53Zm-6.051,4.566v-.66H378.12v-.825h2.806V19.325H378.12v-.77h2.806v-.77l1.925,2.145Z" transform="translate(-355.676 -7.828)" fill="#fff"/>
  </g>
</svg>
