<?xml version="1.0" encoding="utf-8"?>
<!-- Generator: Adobe Illustrator 16.0.0, SVG Export Plug-In . SVG Version: 6.00 Build 0)  -->
<!DOCTYPE svg PUBLIC "-//W3C//DTD SVG 1.1//EN" "http://www.w3.org/Graphics/SVG/1.1/DTD/svg11.dtd">
<svg version="1.1" id="Layer_x5F_1_x5F_1" xmlns="http://www.w3.org/2000/svg" xmlns:xlink="http://www.w3.org/1999/xlink" x="0px"
	 y="0px" width="612px" height="131px" viewBox="0 329.5 612 131" enable-background="new 0 329.5 612 131" xml:space="preserve">
<g>
	<path fill="#FFFFFF" d="M82.58,361.19c0-0.84,1.25-1.26,2.09-1.26h1.68c0.42,0,1.26,0.42,1.68,0.84l23.47,43.59l23.48-43.59
		c0-0.42,0.83-0.84,1.25-0.84h1.68c0.84,0,1.68,0.84,1.68,1.68l11.32,67.49c0,1.25-0.84,2.091-2.1,2.091h-11.74
		c-0.84,0-1.67-0.841-2.09-1.681l-4.61-31.01l-16.77,32.69c-0.42,0.42-1.26,1.26-1.68,1.26h-1.67c-0.42,0-1.26-0.42-1.68-1.26
		L91.38,398.5l-4.61,31.01c0,0.84-0.84,1.681-2.1,1.681H72.94c-1.26,0-2.1-0.841-2.1-2.091L82.58,361.19z"/>
	<path fill="#FFFFFF" d="M172.7,362.87c0-0.84,0.84-2.1,2.1-2.1h12.15c0.84,0,2.1,0.84,2.1,2.1v66.64c0,0.84-0.84,2.101-2.1,2.101
		H174.8c-0.84,0-2.1-0.841-2.1-2.101V362.87z"/>
	<path fill="#FFFFFF" d="M244.8,390.95c4.19,0,7.55-3.35,7.55-7.96c0-4.61-3.36-7.55-7.55-7.55h-15.09v15.51H244.8L244.8,390.95z
		 M214.2,362.87c0-0.84,0.84-2.1,2.1-2.1h30.18c12.57,0,21.79,9.64,21.79,21.8c0,9.22-5.44,16.76-15.09,20.121l13.84,25.569
		c0.83,1.25,0,2.931-1.68,2.931h-13.41c-0.84,0-1.26-0.421-1.68-0.841l-13.41-26.819h-7.13V429.1c0,0.83-0.84,2.091-2.1,2.091
		h-12.15c-1.26,0-2.1-0.841-2.1-2.091V362.87H214.2L214.2,362.87z"/>
	<path fill="#FFFFFF" d="M323.61,406.88l-7.551-16.77l-7.55,16.77H323.61z M282.53,428.68l31.43-67.91
		c0.42-0.42,0.84-0.84,1.68-0.84h0.841c0.84,0,1.26,0.42,1.68,1.26l31.43,67.91c0.42,1.25,0,2.511-1.67,2.511H336.6
		c-1.68,0-2.52-0.42-3.35-2.511l-3.78-7.97h-27.24l-3.77,7.97c-0.42,1.25-1.68,2.511-3.78,2.511h-10.89
		C282.53,431.19,281.69,429.93,282.53,428.68z"/>
	<path fill="#FFFFFF" d="M397.8,359.93c10.061,0,17.61,2.94,24.311,9.22c0.84,0.84,0.84,2.1,0,2.94l-7.96,7.96
		c-0.841,0.84-1.681,0.84-2.521,0c-4.189-3.77-8.8-5.03-13.41-5.03c-11.319,0-19.7,9.64-19.7,20.54c0,11.32,8.381,20.54,19.7,20.54
		c5.45,0,10.061-1.67,13.41-5.029c0.84-0.42,2.101-0.42,2.521,0l7.96,8.39c0.84,0.83,0.42,2.09,0,2.51
		c-6.7,6.71-15.511,9.641-24.311,9.641c-20.12,0-36.47-15.931-36.47-36.05C361.33,375.86,377.68,359.93,397.8,359.93z"/>
	<path fill="#FFFFFF" d="M443.49,362.87c0-0.84,0.84-2.1,2.1-2.1h12.15c0.84,0,2.1,0.84,2.1,2.1v53.649h23.891
		c1.26,0,2.1,0.841,2.1,2.101v10.89c0,0.84-0.84,2.101-2.1,2.101H446.01c-1.26,0-2.1-0.841-2.1-2.101v-66.64H443.49z"/>
	<path fill="#FFFFFF" d="M504.27,362.87c0-0.84,0.841-2.1,2.101-2.1h41.5c1.25,0,2.09,0.84,2.09,2.1v10.89c0,0.84-0.84,2.1-2.09,2.1
		h-28.09v12.58h23.06c0.83,0,2.09,0.83,2.09,2.09v10.9c0,1.261-0.84,2.101-2.09,2.101h-23.06v13.41h27.67c1.25,0,2.09,0.84,2.09,2.1
		v10.89c0,0.84-0.84,2.101-2.09,2.101h-41.5c-1.261,0-2.101-0.84-2.101-2.101C504.27,429.1,504.27,362.87,504.27,362.87z"/>
</g>
<polygon fill="#FFFFFF" points="27.25,372.51 31.02,388.44 46.11,384.24 34.79,395.56 46.11,407.3 31.02,402.69 27.25,418.62 
	23.47,402.69 8.38,407.3 19.7,395.56 8.38,384.24 23.47,388.44 "/>
<polygon fill="#FFFFFF" points="584.75,372.51 588.53,388.44 603.62,384.24 592.3,395.56 603.62,407.3 588.53,402.69 584.75,418.62 
	580.98,402.69 565.89,407.3 577.21,395.56 565.89,384.24 580.98,388.44 "/>
</svg>
