<?xml version="1.0" encoding="utf-8"?>
<!-- Generator: Adobe Illustrator 24.1.1, SVG Export Plug-In . SVG Version: 6.00 Build 0)  -->
<svg version="1.1" id="Layer_1" xmlns="http://www.w3.org/2000/svg" xmlns:xlink="http://www.w3.org/1999/xlink" x="0px" y="0px"
	 viewBox="0 0 51.6 51.6" style="enable-background:new 0 0 51.6 51.6;" xml:space="preserve">
<style type="text/css">
	.st0{fill:#CC3234;}
</style>
<path class="st0" d="M25.8,0C11.7,0,0,11.4,0,25.8c0,14,11.1,25.3,24.7,25.8c14.8,0.6,26.4-11.1,26.8-24.9C52,11.7,40,0,25.8,0z
	 M41,34.8c-2,1.9-3.9,3.9-5.9,5.9c-0.3,0.3-0.5,0.3-0.8,0c-2.6-2.6-5.2-5.2-7.8-7.9c-0.7-0.7-0.7-0.7-1.4,0
	c-2.6,2.6-5.2,5.2-7.7,7.8c-0.4,0.4-0.7,0.4-1,0c-1.9-1.9-3.8-3.8-5.7-5.7c-0.3-0.3-0.3-0.5,0-0.8c2.6-2.6,5.3-5.3,7.9-7.9
	c0.6-0.6,0.6-0.6,0-1.2c-2.6-2.6-5.3-5.3-7.9-7.9c-0.4-0.4-0.3-0.6,0-0.9c1.9-1.9,3.8-3.8,5.7-5.7c0.4-0.4,0.6-0.4,1,0
	c2.6,2.7,5.3,5.3,7.9,8c0.4,0.5,0.7,0.3,1,0c2.6-2.6,5.3-5.2,7.9-7.9c0.4-0.4,0.6-0.5,1,0c0.1,0.2,0.3,0.3,0.4,0.4l0.6,0.6
	c0.1,0.1,0.1,0.2,0.2,0.2c1.1,1.1,2.2,2.2,3.3,3.3l0,0c0,0,0,0,0,0c0.3,0.3,0.7,0.7,1,1c0.5,0.4,0.5,0.7,0,1.1
	c-2.6,2.6-5.2,5.2-7.8,7.8c-0.6,0.6-0.6,0.6,0,1.2c2.6,2.6,5.3,5.3,7.9,7.9C41.3,34.3,41.2,34.5,41,34.8z"/>
</svg>
