<svg width="21" height="20" xmlns="http://www.w3.org/2000/svg"><g fill="#012169" fill-rule="nonzero"><path d="M20.793 10.962a8.236 8.236 0 0 0-2.367-4.995 8.17 8.17 0 0 0-4.02-2.207V2.726a1.386 1.386 0 0 0 1.05-1.342C15.456.62 14.836 0 14.073 0h-2.93C10.38 0 9.76.62 9.76 1.384c0 .647.447 1.192 1.05 1.342v1.037A8.17 8.17 0 0 0 6.11 6.752a.406.406 0 0 0-.03-.002h-2.9a.407.407 0 0 0 0 .814h2.376a8.158 8.158 0 0 0-.722 1.564H.407a.407.407 0 0 0 0 .814h4.199a8.275 8.275 0 0 0-.202 1.564h-1.8a.407.407 0 0 0 0 .814h1.813c.034.527.119 1.05.254 1.564H2.035a.407.407 0 0 0 0 .814H4.93a8.173 8.173 0 0 0 1.872 2.895A8.234 8.234 0 0 0 12.608 20c1.588 0 3.156-.46 4.486-1.326a.407.407 0 0 0-.444-.682c-2.912 1.896-6.812 1.486-9.272-.975-2.888-2.888-2.888-7.586 0-10.474 2.887-2.888 7.585-2.888 10.473 0 2.457 2.458 2.87 6.354.98 9.265a.407.407 0 0 0 .682.443 8.247 8.247 0 0 0 1.28-5.289Zm-10.22-9.578a.57.57 0 0 1 .57-.57h2.93a.57.57 0 0 1 0 1.14H11.143a.57.57 0 0 1-.57-.57Zm1.05 2.24v-.857h1.97v.855a8.29 8.29 0 0 0-1.97.001Z"/><path d="M18.139 16.898a.41.41 0 0 0-.407.407.408.408 0 0 0 .694.287.41.41 0 0 0 0-.575.41.41 0 0 0-.287-.12ZM12.614 5.467a6.32 6.32 0 0 0-6.312 6.313 6.32 6.32 0 0 0 6.312 6.313 6.32 6.32 0 0 0 6.312-6.313 6.32 6.32 0 0 0-6.312-6.313Zm0 11.812a5.505 5.505 0 0 1-5.498-5.499 5.505 5.505 0 0 1 5.498-5.499 5.505 5.505 0 0 1 5.499 5.499 5.505 5.505 0 0 1-5.499 5.499Z"/><path d="m15.188 8.63-2.015 2.016a1.257 1.257 0 0 0-1.117 0l-.902-.902a.407.407 0 0 0-.576.575l.902.902a1.266 1.266 0 0 0 1.134 1.823 1.266 1.266 0 0 0 1.134-1.823l1.956-1.956.06-.06a.407.407 0 0 0-.576-.575Zm-2.574 3.6a.451.451 0 1 1 .001-.902.451.451 0 0 1 0 .903ZM16.965 11.378h-.377a.407.407 0 0 0 0 .814h.377a.407.407 0 0 0 0-.814ZM8.64 11.368h-.376a.407.407 0 0 0 0 .814h.377a.407.407 0 0 0 0-.814ZM12.62 8.213a.407.407 0 0 0 .406-.407v-.377a.407.407 0 0 0-.814 0v.377c0 .225.182.407.407.407ZM12.61 15.347a.407.407 0 0 0-.408.407v.377a.407.407 0 0 0 .814 0v-.377a.407.407 0 0 0-.407-.407ZM.407 13.884a.41.41 0 0 0-.407.407.41.41 0 0 0 .407.407.41.41 0 0 0 .407-.407.41.41 0 0 0-.407-.407Z"/></g></svg>