<svg version="1.1" id="Layer_1" xmlns="http://www.w3.org/2000/svg" x="0" y="0" viewBox="0 0 408.1 44.2" style="enable-background:new 0 0 408.1 44.2" xml:space="preserve"><style>.st0{fill:#fcfcfc}.st1{fill:#0066b2}.st3{fill:#369}.st4{fill:#036}.st5,.st6,.st7{fill-rule:evenodd;clip-rule:evenodd;fill:#fbb231}.st6,.st7{fill:#ec1c2e}.st7{fill:#fff}.st8{fill:none;stroke:#fff;stroke-width:.216;stroke-miterlimit:2.6131}.st11{fill:#001722}.st12{fill:#231f20}.st13{fill:#fff}.st14{fill:#0078a9}</style><path class="st0" d="M155 41.8c0 1.3-1.1 2.4-2.4 2.4H86.7c-1.3 0-2.4-1.1-2.4-2.4V2.4c0-1.3 1.1-2.4 2.4-2.4h65.9c1.3 0 2.4 1.1 2.4 2.4v39.4z"/><path class="st1" d="M116.9 28.7h-3.5l2.2-13.2h3.4zM110.5 15.5l-3.3 9.1-.4-2-1.2-6s-.1-1.2-1.6-1.2h-5.4l-.1.2s1.7.3 3.6 1.5l3 11.5h3.6l5.5-13.3h-3.7zM137.7 28.7h3.2l-2.8-13.3h-2.8c-1.3 0-1.6 1-1.6 1l-5.1 12.3h3.6l.7-2h4.4l.4 2zm-3.8-4.7 1.8-5 1 5h-2.8zM128.8 18.6l.5-2.8s-1.5-.6-3.1-.6c-1.7 0-5.8.7-5.8 4.4 0 3.4 4.8 3.5 4.8 5.3 0 1.8-4.3 1.5-5.7.3l-.5 3s1.5.7 3.9.7 5.9-1.2 5.9-4.5c0-3.4-4.8-3.8-4.8-5.3s3.3-1.3 4.8-.5z"/><path d="m106.8 22.6-1.2-6s-.1-1.2-1.6-1.2h-5.4l-.1.2s2.6.5 5.1 2.6c2.5 2 3.2 4.4 3.2 4.4z" style="fill:#f9a533"/><path class="st0" d="M70.7 41.8c0 1.3-1.1 2.4-2.4 2.4H2.4c-1.3 0-2.4-1.1-2.4-2.4V2.4C0 1.1 1.1 0 2.4 0h65.9c1.3 0 2.4 1.1 2.4 2.4v39.4z"/><path class="st3" d="M48.9 19.7c-.4-.2-1.1-.4-2.1-.4-.5 0-.9 0-1.4.1-.4.1-.4.1-.6.1-.4.1-.5.5-.5.5l-.1.6c-.1.4.1.4.2.3.2-.1.3-.1.7-.2.4-.1.8-.2 1.1-.1.5 0 .8.1 1.1.2.2.1.4.3.4.5v.2s-.1.1-.2.1c-.7 0-1.2.1-1.7.2-.6.1-1.1.2-1.5.4-.4.2-.8.5-1 .8-.2.3-.3.7-.3 1.2s.2.8.5 1.1c.3.3.7.4 1.2.4.3 0 .6 0 .7-.1.2 0 .4-.1.6-.2.2-.1.3-.2.5-.3.2-.1.3-.2.4-.3v.2c0 .2.1.4.3.4h1.1c.2 0 .5-.2.5-.4l.9-3.7v-.6c-.1-.4-.3-.8-.8-1zm-2 4.4c-.1.1-.3.2-.5.2-.2.1-.4.1-.6.1-.3 0-.5 0-.7-.1-.2-.1-.2-.2-.2-.4s.1-.4.2-.6c.1-.1.3-.3.5-.3.2-.1.5-.1.8-.2.3 0 .8-.1.9-.1.1 0 .1 0 .1.1s-.2.7-.2 1l-.3.3z"/><path class="st4" d="M34.2 19.4c-.3 0-.6.2-.7.5 0 0-1.7 2.9-1.9 3.2-.1.2-.2.1-.2 0s-.5-3.2-.5-3.2c-.1-.2-.3-.5-.6-.5h-1.1c-.3 0-.4.2-.4.4 0 0 .8 4.6 1 5.6.1.6 0 .7 0 .7l-1 1.8c-.2.2-.1.4.2.4h1.2c.3 0 .6-.2.7-.4l4.7-7.9s.4-.7 0-.7c-.3.1-1.4.1-1.4.1M19.4 21c-.4.3-.8.4-1.5.4h-.3c-.3 0-.4-.2-.4-.4l.4-1.5c.1-.2.3-.4.6-.4h.4c.4 0 .8.1 1 .2.2.1.3.4.3.7 0 .4-.2.7-.5 1m2.5-2.3c-.1-.3-.4-.5-.6-.7-.3-.2-.6-.3-1-.4-.4-.1-.9-.1-1.4-.1h-2.5c-.3 0-.5.2-.6.4l-1.7 7.2c-.1.2.1.4.4.4h1.2c.3 0 .5-.2.6-.4l.4-1.7c.1-.2.3-.4.6-.4h.3c1.4 0 2.6-.3 3.4-.9.8-.6 1.2-1.4 1.2-2.3-.1-.5-.1-.9-.3-1.1"/><path class="st3" d="M40.7 21c-.4.3-.8.4-1.5.4h-.3c-.3 0-.4-.2-.4-.4l.4-1.5c.1-.2.3-.4.6-.4h.4c.5 0 .8.1 1 .2.2.2.3.4.3.7 0 .4-.1.8-.5 1m2.6-2.3c-.1-.3-.4-.5-.6-.7-.3-.2-.6-.3-1-.4-.4-.1-.9-.1-1.4-.1h-2.5c-.3 0-.5.2-.6.4l-1.7 7.2c-.1.2.1.4.4.4h1.2c.2 0 .5-.2.6-.4l.4-1.7c.1-.2.3-.5.6-.4h.3c1.4 0 2.6-.3 3.4-.9.8-.6 1.2-1.4 1.2-2.3-.1-.5-.2-.8-.3-1.1"/><path class="st4" d="M27.6 19.7c-.4-.2-1.1-.4-2.1-.4-.5 0-.9 0-1.4.1-.4.1-.4.1-.6.1-.4.1-.5.5-.5.5l-.1.6c-.2.4 0 .4.1.4.2-.1.3-.1.7-.2.4-.1.8-.2 1.1-.1.5 0 .8.1 1.1.2.2.1.4.3.4.5v.2s-.1.1-.2.1c-.7 0-1.2.1-1.7.2-.6.1-1.1.2-1.5.4-.4.2-.8.5-1 .8-.2.3-.3.7-.3 1.2s.2.8.5 1.1c.3.3.7.4 1.2.4.3 0 .6 0 .7-.1.2 0 .4-.1.6-.2.2-.1.3-.2.5-.3.2-.1.3-.2.4-.3v.2c0 .2.1.4.3.4h1.1c.2 0 .5-.2.5-.4l.9-3.7v-.6c-.1-.5-.3-.9-.7-1.1zm-2.1 4.4c-.1.1-.3.2-.5.2-.2.1-.4.1-.6.1-.3 0-.5 0-.7-.1-.2-.1-.2-.2-.2-.4s.1-.4.2-.6c.1-.1.3-.3.5-.3.2-.1.5-.1.8-.2.3 0 .8-.1.9-.1.1 0 .1 0 .1.1s-.2.7-.2 1l-.3.3z"/><path class="st3" d="M53 17.6h-1.1c-.2 0-.5.2-.5.4 0 0 0 .1-.1.3l-1.4 6.6c0 .2-.1.3-.1.3 0 .2.1.4.3.4h1.1c.2 0 .5-.2.5-.4l1.6-7.1c.1-.3-.1-.5-.3-.5zM54.6 19h-.2c-.1 0-.2 0-.3-.1-.1 0-.1-.1-.1-.2V18h-.1v-.2h.1v-.3h.2v.3h.4v.2h-.4v.7l.1.1H54.6v.2zM56.5 19h-.2V18.1s0-.1-.1-.1H55.9c-.1 0-.1.1-.2.1V19h-.2V18.1s0-.1-.1-.1H55.1c-.1 0-.1.1-.2.1v.9h-.2v-1.1h.3v.1c.1 0 .1-.1.2-.1h.4c.1 0 .1.1.1.1.1-.1.1-.1.2-.1h.2c.1 0 .2 0 .3.1.1.1.1.2.1.3v.7z"/><path class="st0" d="M239.4 41.8c0 1.3-1.1 2.4-2.4 2.4h-65.9c-1.3 0-2.4-1.1-2.4-2.4V2.4c0-1.3 1.1-2.4 2.4-2.4H237c1.3 0 2.4 1.1 2.4 2.4v39.4z"/><path class="st5" d="m212.5 34.8.7-.1h.6l.7-.1.6-.1.6-.1.6-.2.6-.2.6-.2.5-.3.6-.3.5-.3.5-.3.5-.4.5-.3.5-.4.4-.5.4-.4.4-.5.4-.4.4-.5.3-.6.3-.5.3-.5.2-.6.2-.6.3-.6.1-.6.2-.6.1-.6.1-.6V20.8l-.1-.7-.1-.6-.2-.6-.1-.6-.3-.6-.2-.6-.2-.5-.3-.6-.3-.5-.3-.5-.4-.5-.4-.5-.4-.4-.4-.5-.4-.4-.5-.4-.5-.4-.5-.3-.5-.4-.5-.3-.6-.2-.5-.3-.6-.2-.6-.2-.6-.2-.6-.1-.6-.2h-.7l-.6-.1H211.9l-.7.1h-.6l-.6.2-.6.1-.6.2-.6.2-.6.2-.6.3-.5.2-.5.3-.6.4-.5.3-.4.4-.5.4-.4.4-.4.5-.4.4-.4.5-.4.5-.3.5-.3.5-.3.6-.2.5-.3.6-.2.6-.1.6-.2.6-.1.6-.1.7V23.4l.1.6.1.6.2.6.1.6.2.6.3.6.2.6.3.5.3.5.3.6.4.5.4.4.4.5.4.4.4.5.5.4.4.3.5.4.6.3.5.3.5.3.6.3.6.2.6.2.6.2.6.1.6.1.6.1h.7l.6.1z"/><path class="st6" d="m195.6 34.8.6-.1h.7l.6-.1.6-.1.6-.1.6-.2.6-.2.6-.2.6-.3.5-.3.5-.3.5-.3.5-.4.5-.3.5-.4.4-.5.4-.4.4-.5.4-.4.4-.5.3-.6.3-.5.3-.5.2-.6.3-.6.1-.6.2-.6.2-.6.1-.6.1-.6V20.8l-.1-.7-.1-.6-.2-.6-.2-.6-.1-.6-.3-.6-.2-.5-.3-.6-.3-.5-.3-.5-.4-.5-.4-.5-.4-.4-.4-.5-.4-.4-.5-.4-.5-.4-.5-.3-.5-.4-.5-.3-.5-.2-.6-.3-.6-.2-.6-.2-.6-.2-.6-.1-.6-.2h-.6l-.7-.1H194.9l-.6.1h-.7l-.6.2-.6.1-.6.2-.6.2-.6.2-.5.3-.6.2-.5.3-.5.4-.5.3-.5.4-.5.4-.4.4-.4.5-.4.4-.4.5-.4.5-.3.5-.3.5-.3.6-.2.5-.3.6-.2.6-.1.6-.2.6-.1.6-.1.7V23.4l.1.6.1.6.2.6.1.6.2.6.3.6.2.6.3.5.3.5.3.6.4.5.4.4.4.5.4.4.4.5.5.4.5.3.5.4.5.3.5.3.6.3.5.3.6.2.6.2.6.2.6.1.6.1.7.1h.6l.7.1z"/><path class="st5" d="M202.6 14.3h6.7v-.7h-6.2l-.5.7zM201.5 15.8h7.8v-.7H202l-.5.7zM200.8 17.3h8.5v-.7h-8.2l-.3.7zM200.3 18.9h9v-.7h-8.8l-.2.7zM200.6 26.2h8.7v-.6h-8.9l.2.6zM201.2 27.8h8.1v-.7h-8.4l.3.7zM202.1 29.3h7.2v-.7h-7.6l.4.7zM203.4 30.8h5.9v-.7h-6.5l.6.7zM200 20.4h9.3v-.7h-9.2l-.1.7zM205.7 24.7h3.5V24h-3.4l-.1.7zM205.9 23.2h3.3v-.7h-3.1l-.2.7zM199.7 22.5h1v.7h-.9l-.1-.7z"/><path class="st7" d="M198 21.7h-.1l-.1-.1H196.7l-.1.1h-.2v.1l-.1.1v.2l.1.1.1.1.1.1h.1l.1.1h.2l.1.1h.2l.1.1.1.1.1.1.2.1v.1l.1.2.1.1v.5l-.1.3v.1l-.1.2-.1.1-.1.2-.1.1-.1.1h-.1l-.2.1-.1.1H196.7l-.2.1H195.1l-.1-.1h-.4v-.1h-.2l.2-1 .1.1H195l.1.1h1.3v-.1h.1v-.1l.1-.1V23.7l-.1-.1-.1-.1h-.1l-.2-.1-.1-.1h-.2l-.2-.1-.1-.1-.2-.1-.1-.1-.1-.2-.1-.2V21.7l.1-.2v-.1l.1-.1.1-.2V21l.1-.1h.2l.1-.1.2-.1h.1l.2-.1H197.9l.1.1h.2l-.2 1z"/><path class="st8" d="M198 21.7h-.1l-.1-.1H196.7l-.1.1h-.2v.1l-.1.1v.2l.1.1.1.1.1.1h.1l.1.1h.2l.1.1h.2l.1.1.1.1.1.1.2.1v.1l.1.2.1.1v.5l-.1.3v.1l-.1.2-.1.1-.1.2-.1.1-.1.1h-.1l-.2.1-.1.1H196.7l-.2.1H195.1l-.1-.1h-.4v-.1h-.2l.2-1 .1.1H195l.1.1h1.3v-.1h.1v-.1l.1-.1V23.7l-.1-.1-.1-.1h-.1l-.2-.1-.1-.1h-.2l-.2-.1-.1-.1-.2-.1-.1-.1-.1-.2-.1-.2V21.7l.1-.2v-.1l.1-.1.1-.2V21l.1-.1h.2l.1-.1.2-.1h.1l.2-.1H197.9l.1.1h.2l-.2 1"/><path class="st7" d="M199 19.6h1.2l-.2 1.1h.8l-.2.9h-.8l-.4 2.4v.1l.1.1.1.1h.2l.1.1h.1l.1-.1H200.4l-.2.8h-.1v.1h-.5v.1h-.4l-.2-.1h-.4l-.1-.1h-.1V25h-.1v-.1h-.1v-.6l.8-4.7z"/><path class="st8" d="M199 19.6h1.2l-.2 1.1h.8l-.2.9h-.8l-.4 2.4v.1l.1.1.1.1h.2l.1.1h.1l.1-.1H200.4l-.2.8h-.1v.1h-.5v.1h-.4l-.2-.1h-.4l-.1-.1h-.1V25h-.1v-.1h-.1v-.6l.8-4.7"/><path class="st8" d="M201.7 23.3v.4h.1v.1l.1.1v.1h.1l.1.1.1.1h.1l.1.1h1.2l.1-.1H204l.1-.1.1-.1h.1l-.2 1v.1h-.2l-.1.1h-.4l-.1.1h-.8l-.2-.1h-.4l-.2-.1-.2-.1-.2-.1-.2-.1-.1-.2-.2-.1-.1-.2-.1-.3-.1-.2V22.4l.1-.2.1-.2v-.2l.1-.2.2-.1.1-.2.2-.2.1-.1.3-.2.2-.1h.3l.3-.1H203.4l.1.1.2.1h.2l.1.1.2.2.1.1.1.2.1.2v.2l.1.2v.7l-.1.3v.3h-3.1l.1-.9h1.9V22l-.1-.1v-.1l-.1-.1h-.1v-.1H202.8l-.1-.1-.1.1h-.2l-.1.1h-.1v.1h-.1v.1l-.1.1-.1.1V22.4l-.2.9"/><path class="st7" d="M211.9 20.9h-.2v-.1h-.2v-.1h-.5l-.1-.1h-.5l-.1.1h-.2l-.2.1h-.1l-.1.1-.1.1-.1.1-.1.1-.1.2-.1.2-.1.2-.1.2-.1.3v.9l.1.1v.1l.1.2v.1l.1.1.1.1h.2l.1.1.1.1h.5l.1.1h.2l.1-.1H210.9l.1-.1h.1l.1-.1h.1l.1-.1-.2 1.1v.1h-.1l-.1.1h-.1l-.1.1h-.5l-.1.1h-.4l-.3-.1h-.4l-.2-.1-.2-.1-.1-.1-.2-.1-.2-.2-.2-.1-.1-.2-.1-.2-.1-.3-.1-.2v-.3l-.1-.3v-.4l.1-.3v-.2l.1-.2V21.6l.1-.1.1-.2v-.1l.1-.2v-.1l.1-.1.1-.1v-.1l.1-.1.1-.2h.1l.1-.1.1-.1.1-.1.1-.1h.1l.1-.1.1-.1h.1l.2-.1h.2l.2-.1H211.4l.1.1H211.8l.1.1h.2v.1l-.2 1.1z"/><path class="st8" d="M211.9 20.9h-.2v-.1h-.2v-.1h-.5l-.1-.1h-.5l-.1.1h-.2l-.2.1h-.1l-.1.1-.1.1-.1.1-.1.1-.1.2-.1.2-.1.2-.1.2-.1.3v.9l.1.1v.1l.1.2v.1l.1.1.1.1h.2l.1.1.1.1h.5l.1.1h.2l.1-.1H210.9l.1-.1h.1l.1-.1h.1l.1-.1-.2 1.1v.1h-.1l-.1.1h-.1l-.1.1h-.5l-.1.1h-.4l-.3-.1h-.4l-.2-.1-.2-.1-.1-.1-.2-.1-.2-.2-.2-.1-.1-.2-.1-.2-.1-.3-.1-.2v-.3l-.1-.3v-.4l.1-.3v-.2l.1-.2V21.6l.1-.1.1-.2v-.1l.1-.2v-.1l.1-.1.1-.1v-.1l.1-.1.1-.2h.1l.1-.1.1-.1.1-.1.1-.1h.1l.1-.1.1-.1h.1l.2-.1h.2l.2-.1H211.4l.1.1H211.8l.1.1h.2v.1l-.2 1.1"/><path class="st7" d="M222.4 25.3h-1.2l.1-.5v-.1.1l-.1.1-.1.1h-.1v.1h-.1l-.1.1h-.2v.1h-1l-.2-.1-.1-.1-.2-.1-.1-.2-.1-.1-.1-.2-.1-.2-.1-.2v-.2l-.1-.2V23l.1-.2v-.3l.1-.2.1-.2.1-.2.1-.2.1-.2.2-.1.1-.2.2-.1.1-.1.2-.1.2-.1h.1l.2-.1h.7l.1.1h.2l.1.1.1.1h.1v.1h.1v.1h.1v.2l.3-1.7h1.2l-1 5.6z"/><path class="st8" d="M222.4 25.3h-1.2l.1-.5v-.1.1l-.1.1-.1.1h-.1v.1h-.1l-.1.1h-.2v.1h-1l-.2-.1-.1-.1-.2-.1-.1-.2-.1-.1-.1-.2-.1-.2-.1-.2v-.2l-.1-.2V23l.1-.2v-.3l.1-.2.1-.2.1-.2.1-.2.1-.2.2-.1.1-.2.2-.1.1-.1.2-.1.2-.1h.1l.2-.1h.7l.1.1h.2l.1.1.1.1h.1v.1h.1v.1h.1v.2l.3-1.7h1.2l-1 5.6"/><path class="st5" d="M220.5 24.2H220.8l.1-.1h.1l.1-.1.1-.1.1-.1.1-.1v-.1l.1-.1v-.1l.1-.1v-1.1l-.1-.1V22h-.1v-.1l-.1-.1-.1-.1h-.4l-.1.1h-.1l-.1.1h-.1l-.1.1v.1l-.1.1-.1.1v.1l-.1.1v.2l-.1.2v.7l.1.2.1.2.1.1.1.1h.2z"/><path class="st7" d="m194.2 24.3-.1 1H193v-.5l.1-.1-.1.1-.1.1-.1.1-.1.1h-.1l-.2.1h-.2l-.1.1h-.9l-.1-.1h-.2l-.1-.1-.1-.1-.1-.1-.1-.1v-.1l-.1-.1V24.3l-.1-.1V23.9l.1-.2v-.1l.1-.2v-.1l.1-.1.1-.2.1-.1.1-.1.1-.1h.2l.1-.1.1-.1h.2l.1-.1h.7l.1-.1h.7l.1.1v-.1l.1-.1V22l-.1-.1v-.1h-.1l-.1-.1h-.1l-.1-.1H192l-.1.1h-.5l-.1.1h-.2l-.1.1.3-1.1h.2l.1-.1h.4l.2-.1h1.2l.1.1H193.8l.1.1h.1l.1.1.2.1.1.1.1.1.1.1v.1l.1.2v.5l-.5 2.2z"/><path class="st8" d="m194.2 24.3-.1 1H193v-.5l.1-.1-.1.1-.1.1-.1.1-.1.1h-.1l-.2.1h-.2l-.1.1h-.9l-.1-.1h-.2l-.1-.1-.1-.1-.1-.1-.1-.1v-.1l-.1-.1V24.3l-.1-.1V23.9l.1-.2v-.1l.1-.2v-.1l.1-.1.1-.2.1-.1.1-.1.1-.1h.2l.1-.1.1-.1h.2l.1-.1h.7l.1-.1h.7l.1.1v-.1l.1-.1V22l-.1-.1v-.1h-.1l-.1-.1h-.1l-.1-.1H192l-.1.1h-.5l-.1.1h-.2l-.1.1.3-1.1h.2l.1-.1h.4l.2-.1h1.2l.1.1H193.8l.1.1h.1l.1.1.2.1.1.1.1.1.1.1v.1l.1.2v.5l-.5 2.2"/><path class="st6" d="M193.2 23.2v-.1h-.5l-.1.1H192.3l-.1.1h-.2v.1h-.1v.1h-.1v.1h-.1v.6h.1v.1h.7l.1-.1h.1l.1-.1h.1V24h.1v-.1l.1-.1v-.2l.1-.2v-.2z"/><path class="st7" d="M185.2 25.3h-1.1l.9-5.7h2.1l.2 3.4 1.4-3.4h2.1l-1 5.7h-1.2l.7-4.2-1.7 4.2h-1.4V24l-.1-.8v-.8l-.1-.6v-.7h-.1l-.7 4.2z"/><path class="st8" d="M185.2 25.3h-1.1l.9-5.7h2.1l.2 3.4 1.4-3.4h2.1l-1 5.7h-1.2l.7-4.2-1.7 4.2h-1.4V24l-.1-.8v-.8l-.1-.6v-.7h-.1l-.7 4.2"/><path class="st7" d="m215.5 24.3-.2 1h-1.1v-.5l-.1.1-.1.1h-.1v.1h-.2l-.1.1h-.2l-.1.1H212.4l-.1-.1h-.1l-.1-.1-.1-.1h-.1l-.1-.1v-.1l-.1-.1v-.1l-.1-.1v-.9l.1-.2.1-.1v-.1l.1-.2.1-.1.1-.1.2-.1h.1l.1-.1.2-.1h.1l.1-.1H213.7v-.1h.7l.1.1h.1v-.5l-.1-.1h-.1v-.1h-.1l-.1-.1h-.9l-.2.1h-.5l-.1.1h-.2v.1l.3-1.1h.2l.1-.1h.4l.1-.1H214.6l.1.1H215l.1.1h.1l.2.1.1.1.1.1.1.1.1.1v.1l.1.2v.5l-.4 2.2z"/><path class="st7" d="m215.3 25.3.2-1h-.1l-.2 1 .1-.1v.1z"/><path class="st7" d="M214.2 25.3h1.1v-.1h-1.1v.1zM214.2 24.8v-.1V25.3v-.6.1zM212.6 25.3h.1l.1.1h.1l.2-.1H213.4l.1-.1h.1l.2-.1h.1l.1-.1.1-.1.1-.1v-.1l-.1.1v.1h-.1l-.1.1h-.1l-.1.1h-.1l-.1.1h-.1l-.1.1h-.7zM211.5 24l.1.1v.5l.1.1v.1l.1.1.1.1.1.1h.1l.1.1h.1l.1.1h.2l-.2-.1h-.1l-.1-.1h-.1l-.1-.1-.1-.1h-.1v-.1l-.1-.1v-.2l-.1-.1V24h-.1zM213.1 22.4h-.2l-.1.1h-.2l-.1.1h-.1l-.2.1-.1.1-.1.1-.1.1-.1.1-.1.2v.1l-.1.2V23.9l-.1.1h.1V23.7l.1-.1v-.2l.1-.1.1-.1.1-.1.1-.2h.1l.1-.1.1-.1.1-.1h.2l.1-.1h.1l.2-.1zM214 22.3h-.5l-.1.1H213.1 214v-.1zM214.5 22.4l.1-.1h-.6v.1h.6-.1z"/><path class="st7" d="M214.6 22.1v.1l-.1.1v.1h.1V22.1zM214.1 21.7h.2l.1.1h.1v.1l.1.1v.1-.2l-.1-.1v-.1h-.1l-.1-.1h-.2v.1zM212.2 21.9h.1l.1-.1h.2l.2-.1h.6l.2-.1h.4l.1.1v-.1H213l-.1.1h-.4l-.1.1h-.2l.1.1h-.1z"/><path class="st7" d="M212.6 20.8h-.1l-.3 1.1h.1l.3-1.1v.1-.1h-.1.1zM214.5 20.6h-1.3l-.1.1h-.4l-.1.1v.1l.1-.1h.2l.1-.1h1.5v-.1zM215.9 22.1v-.7l-.1-.1-.1-.1-.1-.1-.1-.1-.1-.1-.1-.1h-.2l-.1-.1h-.2l-.1-.1h-.2v.1H214.8l.2.1h.1l.1.1h.2l.1.1.1.1.1.1.1.1v.1l.1.2v.5zM215.5 24.3l.4-2.2-.5 2.2h.1z"/><path class="st5" d="M214.4 23.2v-.1h-.5l-.1.1h-.4v.1h-.1l-.1.1h-.1v.1l-.1.1-.1.1v.4l.1.1.1.1H213.7l.1-.1h.1l.1-.1h.1V24h.1v-.1h.1v-.2h.1v-.5z"/><path class="st7" d="M223.2 24.7v-.1l.1-.1v-.1l.1-.1.1-.1.1-.1h.5l.1.1v.1l.1.1.1.1v.2h-.1v-.2l-.1-.1v-.1h-.1l-.1-.1h-.4l-.1.1-.1.1v.2l-.1.1h-.1z"/><path class="st7" d="M223.6 24.7v-.3h.4v.1h.1v.1h-.1v.1h-.2.1l.1-.1v-.1H223.7v.2h-.1zM223.2 24.7v.1l.1.1v.1l.1.1.1.1.1.1h.5l.1-.1v-.1l.1-.1.1-.1v-.2h-.1v.2l-.1.1v.1h-.1l-.1.1h-.4l-.1-.1-.1-.1v-.2l-.1-.1h-.1z"/><path class="st7" d="M223.6 24.7v.2h.1v-.2h.1l.1.2h.1l-.1-.2h.1-.4z"/><path class="st8" d="M223.2 24.7v-.2l.1-.1.1-.1.1-.1.1-.1h.4l.1.1.1.1.1.1.1.1v.4l-.1.1-.1.1-.1.1-.1.1h-.4l-.1-.1-.1-.1-.1-.1-.1-.1v-.2m.5.2h-.1v-.5H223.9l.1.2h-.1l-.1-.2h-.1v.5m.1-.2h.1-.1v.2m0 .3H224.1l.1-.1.1-.1v-.6l-.1-.1-.1-.1h-.6l-.1.1-.1.1v.6l.1.1.1.1H223.8"/><path class="st7" d="M215.8 25.3h1.2l.4-2.5v-.1l.1-.1v-.1l.1-.1v-.1l.1-.1v-.1l.1-.1h.1l.1-.1.1-.1H218.4l.1-.1H218.8l.2-1.1h-.1l-.2.1H218.4l-.1.1-.1.1h-.1l-.1.1v.1h-.1l-.1.1v.1l-.1.1-.1.1.2-.8h-1.2l-.8 4.6z"/><path class="st8" d="M215.8 25.3h1.2l.4-2.5v-.1l.1-.1v-.1l.1-.1v-.1l.1-.1v-.1l.1-.1h.1l.1-.1.1-.1H218.4l.1-.1H218.8l.2-1.1h-.1l-.2.1H218.4l-.1.1-.1.1h-.1l-.1.1v.1h-.1l-.1.1v.1l-.1.1-.1.1.2-.8h-1.2l-.8 4.6"/><path class="st7" d="M204.4 25.3h1.3l.4-2.5v-.2l.1-.1v-.1l.1-.1v-.1h.1v-.1l.1-.1h.1l.1-.1H207l.1-.1H207.4v-.1l.1-.1v-.2l.1-.1v-.2l.1-.1v-.1l.1-.1v-.1h.1-.1v-.1H207.5l-.1.1H207.1l-.1.1h-.1l-.1.1-.1.1-.1.1-.1.1-.1.1v.1l-.1.1.2-.8h-1.3l-.8 4.6z"/><path class="st8" d="M204.4 25.3h1.3l.4-2.5v-.2l.1-.1v-.1l.1-.1v-.1h.1v-.1l.1-.1h.1l.1-.1H207l.1-.1H207.4v-.1l.1-.1v-.2l.1-.1v-.2l.1-.1v-.1l.1-.1v-.1h.1-.1v-.1H207.5l-.1.1H207.1l-.1.1h-.1l-.1.1-.1.1-.1.1-.1.1-.1.1v.1l-.1.1.2-.8h-1.3l-.8 4.6"/><path class="st5" d="M223.2 29.8v-.1l.1-.1v-.1l.1-.1h.1l.1-.1h.5l.1.1.1.1.1.1v.2h-.1v-.1l-.1-.1v-.1h-.1l-.1-.1h-.4l-.1.1-.1.1v.2h-.2z"/><path class="st5" d="M223.6 29.8v-.2h.4v.1h.1v.1h-.1v-.1H223.7v.1h-.1zM223.2 29.9v-.1h.2l-.1.1h-.1z"/><path class="st5" d="M223.6 29.9v-.1h.5-.1v.1h-.4zM224.3 29.9v-.1h.1v.1h-.1zM223.2 29.9v.1l.1.1v.1l.1.1.1.1h.1l.1.1h.2l.2-.1h.1v-.1l.1-.1.1-.1v-.2h-.1v.2h-.1v.1l-.1.1h-.1l-.1.1h-.2l-.1-.1h-.1v-.1l-.1-.1V30l-.1-.1h-.1z"/><path class="st5" d="M223.6 29.9v.2h.1v-.2h.1l.1.2h.1l-.1-.2h.1-.4z"/><path class="st7" d="M204.6 22v-.3l-.1-.2-.1-.2-.1-.2-.1-.1-.1-.1-.2-.1-.2-.1-.2-.1h-1.1l-.3.1-.3.1-.2.1-.2.1-.2.1-.2.2-.1.2-.1.2-.1.2-.1.2-.1.2V24l.1.3.1.2.1.2.1.2.2.1.2.1.2.1.2.1.2.1.2.1H204.3l.2-1.1-.1.1-.1.1-.1.1H202.1l-.1-.1V24l-.1-.1-.1-.1-.1-.1V23h2.8v-.3l.1-.4V22zm-1.2.4h-1.6v-.7l.1-.1.1-.1.1-.1H203.5l.1.1v.7l-.2.2z"/><path class="st0" d="M323.7 41.8c0 1.3-1.1 2.4-2.4 2.4h-65.9c-1.3 0-2.4-1.1-2.4-2.4V2.4c0-1.3 1.1-2.4 2.4-2.4h65.9c1.3 0 2.4 1.1 2.4 2.4v39.4z"/><path d="M272.5 44.2h48.9c1.3 0 2.4-1.1 2.4-2.4V25.3c-4.8 2.9-22.4 13.2-51.3 18.9z" style="fill:#f58220"/><radialGradient id="SVGID_1_" cx="282.843" cy="-464.002" r="3.482" gradientTransform="translate(6.416 486.083)" gradientUnits="userSpaceOnUse"><stop offset=".006" style="stop-color:#ffeee0"/><stop offset=".11" style="stop-color:#fee9d7"/><stop offset=".279" style="stop-color:#fddbbf"/><stop offset=".493" style="stop-color:#fbc597"/><stop offset=".744" style="stop-color:#f8a560"/><stop offset="1" style="stop-color:#f48120"/></radialGradient><path d="M289.3 18.6c-1.9 0-3.5 1.5-3.5 3.4 0 2 1.5 3.5 3.5 3.5s3.5-1.5 3.5-3.4-1.6-3.5-3.5-3.5z" style="fill:url(#SVGID_1_)"/><path class="st11" d="M269.2 18.8h-1.9v6.6h1.9c1 0 1.7-.2 2.4-.8.8-.6 1.2-1.6 1.2-2.5 0-2-1.5-3.3-3.6-3.3zm1.6 4.9c-.4.4-.9.5-1.8.5h-.3v-4.4h.3c.8 0 1.3.1 1.8.5.4.4.7 1 .7 1.6 0 .8-.3 1.4-.7 1.8zM273.4 18.8h1.3v6.6h-1.3zM277.8 21.3c-.8-.3-1-.5-1-.8 0-.4.4-.7 1-.7.4 0 .7.2 1 .5l.7-.9c-.6-.5-1.2-.7-1.9-.7-1.2 0-2.1.8-2.1 1.9 0 .9.4 1.4 1.6 1.8.5.2.8.3.9.4.3.2.4.4.4.7 0 .5-.4.9-1 .9s-1.1-.3-1.4-.9l-.8.8c.6.9 1.3 1.3 2.3 1.3 1.3 0 2.3-.9 2.3-2.2-.1-1.1-.5-1.6-2-2.1zM280.1 22.1c0 1.9 1.5 3.5 3.5 3.5.6 0 1-.1 1.6-.4v-1.5c-.5.5-1 .7-1.6.7-1.3 0-2.2-.9-2.2-2.3 0-1.3 1-2.3 2.2-2.3.6 0 1.1.2 1.6.7V19c-.6-.3-1-.4-1.6-.4-1.9 0-3.5 1.6-3.5 3.5zM295.7 23.2l-1.8-4.4h-1.4l2.8 6.7h.7l2.9-6.7h-1.4zM299.5 25.4h3.6v-1.1h-2.3v-1.8h2.2v-1.1h-2.2v-1.5h2.3v-1.1h-3.6zM308.2 20.7c0-1.2-.9-2-2.3-2H304v6.6h1.3v-2.7h.2l1.8 2.7h1.6l-2.1-2.8c.9-.1 1.4-.8 1.4-1.8zm-2.6 1.1h-.4v-2h.4c.8 0 1.2.3 1.2 1 .1.6-.3 1-1.2 1z"/><path class="st12" d="M309.1 19.3c0-.1-.1-.2-.2-.2h-.2v.6h.1v-.2l.2.2h.2l-.2-.2c.1-.1.1-.2.1-.2zm-.2 0v-.2c.1 0 .1 0 .1.1s0 .1-.1.1z"/><path class="st12" d="M308.9 18.9c-.3 0-.5.2-.5.5s.2.5.5.5.5-.2.5-.5-.2-.5-.5-.5zm0 .9c-.2 0-.4-.2-.4-.4s.2-.4.4-.4.4.2.4.4-.1.4-.4.4z"/><path class="st0" d="M408.1 41.8c0 1.3-1.1 2.4-2.4 2.4h-65.9c-1.3 0-2.4-1.1-2.4-2.4V2.4c0-1.3 1.1-2.4 2.4-2.4h65.9c1.3 0 2.4 1.1 2.4 2.4v39.4z"/><path class="st13" d="M359.4 21.1v-.7l-.3.7h-2.9l-.4-.8v.8h-5.5l-.6-1.5h-1.1l-.7 1.5H345v-4.6l2.1-4.7h4l.6 1.3v-1.3h4.9l1.1 2.2 1-2.3H374s.8 0 1.3.4v-.4h3.9v.5s.7-.5 1.7-.5h6.8l.6 1.4v-1.4h4.4l.8 1.4v-1.4h4.2V21h-4.3l-1-1.6V21H387l-.8-1.7h-1l-.7 1.7h-3.2s-1.2 0-2.1-.7v.7h-6.4v-2.2c0-.3-.2-.3-.2-.3h-.2V21h-13zM356.1 23.1h8.5l1.2 1.4 1.2-1.4h6.5s.6 0 1.2.3v-.3h5.8c.7 0 1.4.4 1.4.4v-.4h7.4v.3s.5-.3 1.2-.3h4.8v.3s.6-.3 1.3-.3h3.8v8.8s-.5.6-1.5.6h-5v-.3s-.5.3-1.2.3h-13.3v-2.3c0-.2-.1-.3-.3-.3h-.2v2.5h-4.2v-2.5s-.5.2-1.2.2H372v2.3h-5.1l-1.2-1.4-1.2 1.4h-8.3v-9.3z"/><path class="st14" d="M382.8 24.5h5.3v1.4h-3.7v1.2h3.6v1.3h-3.6v1.3h3.7v1.4h-5.3zM398.4 27c2 .1 2.2 1.1 2.2 2.2 0 1.2-1 1.9-2.1 1.9H395v-1.4h2.7c.5 0 1.1 0 1.1-.6 0-.3-.1-.5-.6-.5-.2 0-1-.1-1.1-.1-1.8 0-2.2-.9-2.2-2 0-1.2.9-1.9 1.9-1.9h3.4V26h-2.5c-.6 0-1.2-.1-1.2.6 0 .4.3.5.7.5.2-.1 1 0 1.2-.1zM392.2 27c2 .1 2.2 1.1 2.2 2.2 0 1.2-1 1.9-2.1 1.9h-3.4v-1.4h2.7c.5 0 1.1 0 1.1-.6 0-.3-.1-.5-.6-.5-.2 0-1-.1-1.1-.1-1.8 0-2.2-.9-2.2-2 0-1.2.9-1.9 1.9-1.9h3.4V26h-2.5c-.6 0-1.2-.1-1.2.6 0 .4.3.5.7.5.1-.1 1 0 1.1-.1zM373 24.5h-5.7l-1.9 2.1-1.8-2.1h-6.4v6.6h6.2l1.9-2.2 1.9 2.2h3.1v-2.2h2.2c.8 0 2.4 0 2.4-2.3.1-1.7-1.1-2.1-1.9-2.1zm-10.4 5.2h-3.7v-1.3h3.6v-1.3h-3.6v-1.2h3.9l1.6 1.8-1.8 2zm6.2.8-2.3-2.8 2.3-2.6v5.4zm3.7-3h-2v-1.6h2c.7 0 .9.4.9.8s-.3.8-.9.8zM380.8 28.1c.9-.4 1.1-1 1.1-1.8 0-1.4-1.2-1.8-1.9-1.8h-4.2v6.6h1.6v-2.3h2.1c.6 0 .8.6.8 1.1v1.2h1.6l-.1-1.4c.1-1-.2-1.5-1-1.6zm-1.4-.7h-2v-1.5h2c.7 0 .9.4.9.8s-.2.7-.9.7zM376.4 13.1h1.6v6.6h-1.6zM363.2 13.1h5.3v1.4h-3.7v1.2h3.6V17h-3.6v1.3h3.7v1.4h-5.3zM374.5 16.7c.9-.4 1.1-1 1.1-1.8 0-1.4-1.2-1.8-1.9-1.8h-4.2v6.6h1.6v-2.3h2.1c.6 0 .8.6.8 1.1v1.2h1.6l-.1-1.4c0-1-.3-1.5-1-1.6zm-1.4-.7h-2v-1.5h2c.7 0 .9.4.9.8s-.3.7-.9.7zM359.4 13.1l-2 4.4-2-4.4h-2.5v6.4l-2.8-6.4H348l-2.9 6.6h1.7l.6-1.5h3.2l.6 1.5h3.3v-4.9l2.2 4.9h1.5l2.2-4.8v4.8h1.6v-6.6h-2.6zM348 16.8l1-2.3 1 2.3h-2zM394.8 13.1v4.6l-2.7-4.6h-2.4v6.2l-2.8-6.2h-2.1l-2.2 5.1h-1c-.4-.1-1-.4-1-1.5v-.5c0-1.6.8-1.7 1.9-1.7h1v-1.4h-2.1c-.7 0-2.3.6-2.4 3.3 0 1.8.8 3.3 2.6 3.3h2.1l.6-1.5h3.2l.6 1.5h3.2v-4.8l2.9 4.8h2.2v-6.6h-1.6zm-9.9 3.7 1-2.3 1 2.3h-2z"/></svg>