<svg width="25" height="24" xmlns="http://www.w3.org/2000/svg"><path d="M12.005 23.97c6.63 0 12.004-5.365 12.004-11.985C24.01 5.366 18.635 0 12.005 0S0 5.366 0 11.985c0 6.62 5.375 11.986 12.005 11.986Z" fill="#9FC700" fill-rule="evenodd"/><path d="m17.337 10.192-5.968 5.805a.72.72 0 0 1-.503.203.72.72 0 0 1-.503-.203l-3.69-3.59a.682.682 0 0 1 0-.978l.732-.713a.726.726 0 0 1 1.006 0l2.455 2.388L15.598 8.5a.721.721 0 0 1 1.006 0l.733.713a.679.679 0 0 1 0 .979Z" fill="#FFF" fill-rule="evenodd"/></svg>