<svg width="38" height="38" xmlns="http://www.w3.org/2000/svg"><path d="M18.9 37.4c10.217 0 18.5-8.283 18.5-18.5S29.117.4 18.9.4.4 8.683.4 18.9s8.283 18.5 18.5 18.5Z" fill="#FFF" fill-rule="evenodd"/><path d="m27.117 16.131-9.197 8.961a1.108 1.108 0 0 1-.775.313c-.28 0-.562-.104-.776-.313l-5.686-5.54a1.054 1.054 0 0 1-.321-.755c0-.284.115-.555.32-.756l1.13-1.1a1.117 1.117 0 0 1 1.55 0l3.783 3.685 7.293-7.105c.205-.2.484-.313.775-.313.29 0 .57.112.775.313l1.13 1.1a1.049 1.049 0 0 1 0 1.51Z" fill="#72AE4A"/></svg>