<svg width="16" height="16" xmlns="http://www.w3.org/2000/svg"><path d="M8 16A8 8 0 1 0 8 0a8 8 0 0 0 0 16Z" fill="#77C44F" fill-rule="evenodd"/><path d="m11.538 6.16-.733-.686a.517.517 0 0 0-.366-.14.517.517 0 0 0-.367.14l-3.537 3.31-1.584-1.486a.517.517 0 0 0-.367-.14.517.517 0 0 0-.367.14l-.733.685a.452.452 0 0 0-.15.343c0 .134.05.249.15.343l1.952 1.824.733.685c.1.094.223.14.366.14a.518.518 0 0 0 .367-.14l.733-.685 3.903-3.648c.1-.094.151-.208.151-.343a.452.452 0 0 0-.15-.342Z" fill="#FFF" fill-rule="evenodd"/></svg>