<svg width="33" height="30" xmlns="http://www.w3.org/2000/svg"><path d="M14.512 0c.938 0 1.846.273 2.627.79l1.692 1.119.123.089a1.829 1.829 0 0 1 .392 2.477l-.1.146.122.13.102.118c.577.73.53 1.78-.139 2.444l-2.787 2.768-.122.111c-.335.28-.753.432-1.196.432h-3.753l.003.226.006.232.012.237.019.25.043.425.064.511.172 1.22.086.647.038.3.062.566.025.268.04.517c.015.254.026.502.031.752l.01.466.361-.3.24-.19a7.425 7.425 0 0 1 4.512-1.527c1.042 0 2.072.229 3.05.666l.194.087.099-.187.134-.246a8.808 8.808 0 0 1 7.673-4.473l.24.004.197.01C31.122 11.25 33 13.278 33 15.697v8.073l-.005.206a4.617 4.617 0 0 1-3.176 4.177l-.489.162-.597.192A33.21 33.21 0 0 1 18.879 30h-1.008l-.555-.005a33.287 33.287 0 0 1-15.84-4.319c-1.164-.66-1.726-1.994-1.37-3.241l.053-.203c.152-.628.228-1.43.228-2.389l.003-.182c.042-1.306.521-3.176 1.43-5.573l.272-.7.294-.727.157-.374.33-.77.173-.396c1.465-3.313 3.55-6.325 6.2-8.956A7.424 7.424 0 0 1 14.512 0Zm0 .935a6.487 6.487 0 0 0-4.601 1.893c-2.568 2.55-4.587 5.467-6.003 8.67l-.166.378-.316.738-.15.359-.284.699-.134.34-.25.658c-.041.108-.08.214-.118.32l-.219.617c-.621 1.812-.942 3.245-.942 4.236l-.004.341c-.019 1.005-.125 1.848-.314 2.506-.238.835.147 1.728.931 2.173a32.33 32.33 0 0 0 15.929 4.2h1.008l.648-.006a32.275 32.275 0 0 0 9.505-1.629l.488-.163.18-.064a3.679 3.679 0 0 0 2.357-3.43v-8.073l-.004-.185c-.094-1.899-1.622-3.453-3.493-3.503l-.21-.003-.268.005a7.876 7.876 0 0 0-6.731 4.248l-.09.174.393.275c.296.217.55.43.78.655a.465.465 0 0 1 .003.662.472.472 0 0 1-.665.003 6.483 6.483 0 0 0-4.575-1.869l-.245.005a6.49 6.49 0 0 0-5.08 2.746l-.118.174-.044.048c-.588 1.379-1.72 2.29-2.763 2.548a.468.468 0 0 1-.23-.907c.342-.09.812-.317 1.264-.734.733-.675 1.17-1.651 1.17-2.965l-.004-.36a14.09 14.09 0 0 0-.013-.358l-.023-.367-.033-.386-.044-.416-.055-.458-.068-.51-.142-1.002-.074-.55-.061-.506-.048-.462a17.143 17.143 0 0 1-.018-.216l-.026-.404c-.065-1.349.147-2.044.747-2.64a.472.472 0 0 1 .666 0 .466.466 0 0 1 0 .663c-.06.06-.096.11-.165.226l-.218.358h3.654l.121-.008a.931.931 0 0 0 .532-.26l2.787-2.768.073-.082a.905.905 0 0 0 .02-1.081l-.154-.221-1.716 1.704-.115.105c-.59.5-1.43.606-2.134.258a1.916 1.916 0 0 1-1.053-1.421 1.906 1.906 0 0 1 .546-1.68l.64-.637.066-.054a.473.473 0 0 1 .6.054.467.467 0 0 1 0 .663l-.64.635-.081.09a.984.984 0 0 0-.201.778 1.011 1.011 0 0 0 1.707.546l2.226-2.21.078-.088a.915.915 0 0 0-.218-1.321l-1.693-1.12-.213-.131a3.8 3.8 0 0 0-1.892-.503Z" fill="#00206D" fill-rule="evenodd"/></svg>