<svg width="229" height="26" xmlns="http://www.w3.org/2000/svg"><defs><radialGradient gradientUnits="objectBoundingBox" cx="49.42%" cy="50.451%" fx="49.42%" fy="50.451%" r="49.737%" gradientTransform="matrix(1 0 0 .9602 0 .02)" id="a"><stop offset=".562%" stop-color="#FFEEE0"/><stop offset="10.96%" stop-color="#FEE9D7"/><stop offset="27.93%" stop-color="#FDDBBF"/><stop offset="49.35%" stop-color="#FBC597"/><stop offset="74.4%" stop-color="#F8A560"/><stop offset="100%" stop-color="#F48120"/></radialGradient></defs><path d="M86.344 24.588c0 .765-.613 1.412-1.338 1.412H48.264c-.724 0-1.338-.647-1.338-1.412V1.412C46.926.647 47.54 0 48.264 0h36.742c.725 0 1.338.647 1.338 1.412v23.176Z" fill="#FCFCFC" fill-rule="evenodd"/><g fill="#0066B2"><path d="M65.102 16.882h-1.951l1.226-7.764h1.896l-1.171 7.764ZM61.534 9.118l-1.84 5.353-.223-1.177-.67-3.53s-.055-.705-.891-.705h-3.011l-.056.117s.948.177 2.007.883l1.673 6.765h2.007L63.597 9h-2.063v.118Z" fill-rule="evenodd"/><path d="M76.699 16.882h1.784L76.922 9.06H75.36c-.725 0-.892.588-.892.588l-2.844 7.235h2.007l.39-1.176h2.454l.223 1.176Zm-2.119-2.764 1.004-2.942.557 2.942h-1.56Z"/><path d="m71.737 10.941.279-1.647s-.837-.353-1.729-.353c-.948 0-3.234.412-3.234 2.588 0 2 2.677 2.06 2.677 3.118 0 1.059-2.398.882-3.178.177l-.28 1.764s.837.412 2.175.412c1.338 0 3.29-.706 3.29-2.647 0-2-2.676-2.235-2.676-3.118 0-.882 1.84-.764 2.676-.294Z" fill-rule="evenodd"/></g><path d="m59.47 13.294-.668-3.53s-.056-.705-.892-.705h-3.011l-.056.117s1.45.295 2.844 1.53c1.394 1.176 1.784 2.588 1.784 2.588Z" fill="#F9A533" fill-rule="evenodd"/><path d="M39.418 24.588c0 .765-.613 1.412-1.338 1.412H1.338C.613 26 0 25.353 0 24.588V1.412C0 .647.613 0 1.338 0H38.08c.725 0 1.338.647 1.338 1.412v23.176Z" fill="#FCFCFC" fill-rule="evenodd"/><path d="M27.264 11.588c-.223-.117-.614-.235-1.171-.235-.279 0-.502 0-.78.059-.224.059-.224.059-.335.059-.223.058-.279.294-.279.294l-.056.353c-.056.235.056.235.112.176.111-.059.167-.059.39-.118.223-.058.446-.117.613-.058.28 0 .446.058.614.117.111.06.223.177.223.294v.118s-.056.059-.112.059c-.39 0-.669.059-.948.118-.334.058-.613.117-.836.235-.223.117-.446.294-.558.47-.111.177-.167.412-.167.706s.112.47.279.647c.167.177.39.236.669.236.167 0 .335 0 .39-.06.112 0 .223-.058.335-.117.111-.059.167-.117.279-.176a.775.775 0 0 0 .223-.177v.118c0 .118.055.235.167.235h.613c.112 0 .279-.117.279-.235l.502-2.177v-.353c-.056-.235-.168-.47-.446-.588Zm-1.115 2.588a.415.415 0 0 1-.28.118c-.11.059-.222.059-.334.059-.167 0-.278 0-.39-.059-.111-.059-.111-.118-.111-.235 0-.118.055-.235.111-.353.056-.059.167-.177.279-.177.111-.058.279-.058.446-.117.167 0 .446-.06.502-.06.055 0 .055 0 .055.06 0 .059-.111.412-.111.588l-.167.176Z" fill="#369"/><path d="M19.068 11.412a.421.421 0 0 0-.39.294s-.948 1.706-1.06 1.882c-.056.118-.111.06-.111 0 0-.059-.279-1.882-.279-1.882-.056-.118-.167-.294-.335-.294h-.613c-.167 0-.223.117-.223.235 0 0 .446 2.706.558 3.294.055.353 0 .412 0 .412l-.558 1.059c-.111.117-.056.235.112.235h.669a.466.466 0 0 0 .39-.235l2.62-4.647s.223-.412 0-.412c-.167.059-.78.059-.78.059" fill="#036" fill-rule="evenodd"/><path d="M10.816 12.353c-.223.176-.446.235-.836.235h-.167c-.168 0-.223-.117-.223-.235l.223-.882c.055-.118.167-.236.334-.236h.223c.223 0 .446.06.558.118.111.059.167.235.167.412 0 .235-.111.411-.279.588M12.21 11c-.056-.176-.223-.294-.334-.412-.168-.117-.335-.176-.558-.235-.223-.059-.502-.059-.78-.059H9.143c-.168 0-.28.118-.335.235l-.948 4.236c-.055.117.056.235.223.235h.67c.167 0 .278-.118.334-.235l.223-1c.056-.118.167-.236.334-.236h.168c.78 0 1.45-.176 1.895-.529.446-.353.67-.824.67-1.353-.056-.294-.056-.53-.168-.647" fill="#036"/><path d="M22.692 12.353c-.223.176-.446.235-.836.235h-.168c-.167 0-.223-.117-.223-.235l.223-.882c.056-.118.168-.236.335-.236h.223c.279 0 .446.06.557.118a.548.548 0 0 1 .168.412c0 .235-.056.47-.28.588M24.142 11c-.055-.176-.223-.294-.334-.412-.167-.117-.335-.176-.558-.235-.223-.059-.501-.059-.78-.059h-1.394c-.167 0-.279.118-.335.235l-.947 4.236c-.056.117.055.235.223.235h.669c.111 0 .278-.118.334-.235l.223-1c.056-.118.168-.294.335-.236h.167c.78 0 1.45-.176 1.896-.529.446-.353.669-.824.669-1.353-.056-.294-.112-.47-.168-.647" fill="#369"/><path d="M15.388 11.588c-.223-.117-.613-.235-1.17-.235-.28 0-.503 0-.781.059-.223.059-.223.059-.335.059-.223.058-.279.294-.279.294l-.055.353c-.112.235 0 .235.055.235.112-.059.168-.059.39-.118.224-.059.447-.117.614-.059.279 0 .446.06.613.118.112.059.223.177.223.294v.118s-.055.059-.111.059c-.39 0-.67.059-.948.117-.335.06-.613.118-.836.236-.223.117-.446.294-.558.47-.111.177-.167.412-.167.706s.111.47.279.647c.167.177.39.235.669.235.167 0 .334 0 .39-.058.111 0 .223-.06.334-.118.112-.059.168-.118.28-.176.11-.06.167-.118.222-.177v.118c0 .117.056.235.168.235h.613c.111 0 .279-.118.279-.235l.501-2.177v-.353c-.055-.294-.167-.53-.39-.647Zm-1.17 2.588a.415.415 0 0 1-.28.118c-.111.059-.223.059-.334.059-.167 0-.279 0-.39-.059-.112-.059-.112-.118-.112-.235 0-.118.056-.235.112-.353.055-.059.167-.177.278-.177.112-.058.28-.058.446-.117.168 0 .447-.06.502-.06.056 0 .056 0 .056.06 0 .059-.111.412-.111.588l-.168.176Z" fill="#036"/><path d="M29.55 10.353h-.614c-.111 0-.278.118-.278.235 0 0 0 .06-.056.177l-.78 3.882c0 .118-.057.177-.057.177 0 .117.056.235.168.235h.613c.112 0 .279-.118.279-.235l.892-4.177c.056-.176-.056-.294-.167-.294Z" fill="#369" fill-rule="evenodd"/><g fill="#369" fill-rule="evenodd"><path d="M30.442 11.257h-.112c-.056 0-.111 0-.167-.064-.056 0-.056-.064-.056-.129v-.449h-.056v-.128h.056v-.193h.112v.193h.223v.128h-.223v.449l.055.065h.168v.128ZM31.501 11.257h-.112V10.68s0-.064-.055-.064h-.168c-.055 0-.055.064-.111.064v.579h-.112v-.579s0-.064-.055-.064h-.168c-.055 0-.055.064-.111.064v.578h-.112v-.706h.168v.064c.055 0 .055-.064.111-.064H31c.056 0 .056.064.056.064.056-.064.056-.064.111-.064h.112c.056 0 .111 0 .167.064.056.064.056.129.056.193v.45Z"/></g><g fill-rule="evenodd"><path d="M134.209 24.588c0 .765-.613 1.412-1.338 1.412H96.129c-.725 0-1.338-.647-1.338-1.412V1.412c0-.765.613-1.412 1.338-1.412h36.742c.725 0 1.338.647 1.338 1.412v23.176Z" fill="#FCFCFC"/><path d="m119.666 20.222.362-.01.358-.026.35-.046.349-.064.339-.08.334-.098.326-.114.32-.13.313-.146.303-.158.294-.175.286-.188.275-.202.265-.214.256-.227.244-.241.235-.251.22-.263.208-.273.197-.283.182-.295.17-.302.155-.311.142-.322.125-.329.112-.336.095-.344.078-.348.061-.358.045-.36.026-.369.01-.372-.01-.37-.026-.366-.045-.36-.061-.354-.078-.348-.095-.341-.112-.337-.125-.326-.142-.32-.154-.311-.17-.3-.183-.295-.197-.282-.208-.27-.22-.264-.235-.25-.244-.24-.256-.226-.265-.214-.275-.203-.286-.187-.294-.173-.303-.158-.313-.147-.32-.129-.326-.114-.334-.098-.339-.08-.348-.063-.35-.047-.359-.026-.362-.01-.36.01-.358.026-.35.047-.346.063-.339.08-.334.098-.324.114-.32.13-.31.146-.301.158-.294.173-.284.187-.275.203-.265.214-.253.227-.244.238-.232.251-.22.263-.21.27-.193.283-.183.295-.168.3-.156.312-.14.319-.126.326-.108.337-.095.34-.078.35-.062.352-.045.36-.026.366-.01.37.01.373.026.368.045.36.062.359.078.348.095.344.108.336.126.329.14.322.156.311.168.302.183.295.194.283.208.273.22.263.233.25.244.242.253.227.265.214.275.202.284.188.294.175.3.158.311.147.32.129.324.114.334.098.339.08.346.064.35.046.358.026.36.01" fill="#F1AD3D"/><path d="m110.272 20.222.36-.01.358-.026.35-.046.346-.064.34-.08.333-.098.325-.114.32-.13.31-.146.3-.158.294-.175.284-.188.275-.202.265-.214.254-.227.244-.241.232-.251.22-.263.209-.273.194-.283.182-.295.168-.302.157-.311.14-.322.125-.329.109-.336.095-.344.078-.348.061-.358.045-.36.027-.369.009-.372-.01-.37-.026-.366-.045-.36-.061-.354-.078-.348-.095-.341-.109-.337-.126-.326-.14-.32-.156-.311-.168-.3-.182-.295-.194-.282-.209-.27-.22-.264-.232-.25-.244-.24-.254-.226-.265-.214-.275-.203-.284-.187-.294-.173-.3-.158-.31-.147-.32-.129-.325-.114-.334-.098-.339-.08-.345-.063-.35-.047-.359-.026-.36-.01-.362.01-.358.026-.35.047-.348.063-.339.08-.334.098-.327.114-.32.13-.312.146-.304.158-.293.173-.287.187-.275.203-.265.214-.256.227-.244.238-.234.251-.22.263-.209.27-.196.283-.183.295-.17.3-.154.312-.142.319-.126.326-.111.337-.095.34-.078.35-.062.352-.045.36-.026.366-.01.37.01.373.026.368.045.36.062.359.078.348.095.344.111.336.126.329.142.322.154.311.17.302.183.295.196.283.209.273.22.263.234.25.244.242.256.227.265.214.275.202.287.188.293.175.304.158.312.147.32.129.327.114.334.098.339.08.348.064.35.046.358.026.362.01" fill="#D82332"/><path d="M114.147 8.548h3.73v-.392h-3.408l-.322.392M113.588 9.42h4.29v-.392h-4.065l-.225.392M113.172 10.29h4.706v-.393h-4.54l-.166.393M112.885 11.162h4.993v-.392h-4.875l-.118.392M113.05 15.377h4.84v-.393h-4.958l.119.393M113.408 16.249h4.482v-.393h-4.66l.178.393M113.91 17.119h3.98v-.393h-4.219l.24.393M114.602 17.99h3.288v-.394h-3.622l.334.395M112.717 12.032h5.16v-.393h-5.087l-.073.393M115.862 14.507h1.968v-.392h-1.897l-.07.392M116.019 13.637h1.811v-.395h-1.74l-.071.395M112.586 13.242h.512v.395h-.488l-.024-.395" fill="#F1AD3D"/><path d="m111.632 12.767-.033-.002-.033-.005-.031-.005-.031-.005-.028-.005-.031-.004-.031-.005-.033-.005-.033-.005-.038-.003-.043-.002-.045-.002h-.05l-.054.002-.062.005-.068.005-.048.007-.045.007-.04.015-.035.015-.034.017-.03.02-.045.045-.015.027-.012.027-.004.03v.029l.007.031.01.032.018.032.024.031.047.046.057.037.066.032.072.027.075.024.078.027.079.029.075.032.072.041.066.051.06.061.049.076.038.092.023.11.01.131-.01.154-.016.114-.029.1-.038.093-.047.08-.054.07-.062.062-.066.053-.074.047-.076.036-.078.032-.08.024-.083.02-.08.014-.079.008-.078.005-.073.002h-.102l-.095-.002h-.083l-.078-.003-.071-.002-.064-.005-.057-.005-.054-.007-.05-.005-.045-.01-.045-.007-.04-.013-.04-.01-.038-.014-.038-.014-.04-.015.106-.538.021.004.026.008.033.01.04.01.043.009.048.01.052.012.057.01.059.01.061.009.064.008.067.007.068.002.07.003h.068l.069-.003.068-.014.055-.02.042-.027.033-.034.024-.034.02-.039.011-.039.01-.036.004-.071-.021-.06-.04-.05-.06-.041-.07-.037-.084-.036-.092-.034-.092-.04-.095-.043-.09-.051-.083-.064-.076-.075-.059-.093-.043-.11-.021-.131.002-.156.012-.095.017-.09.024-.083.028-.078.038-.073.043-.063.05-.061.058-.054.07-.046.075-.04.085-.036.095-.026.107-.022.116-.017.127-.01.14-.003h.088l.08.003.074.002.066.003.06.005.054.005.047.004.043.005.04.005.033.007.031.005.028.005.024.005.021.002.022.005.019.003-.121.55M112.193 11.615h.656l-.097.59h.396l-.085.55-.417-.012-.228 1.36-.002.048.012.042.024.031.03.027.043.017.047.015.052.01.057.004.052-.002.048-.005.042-.007.038-.01.031-.01.021-.007.015-.005.004-.002-.083.453-.016.012-.017.01-.016.01-.017.01-.017.006-.018.008-.022.007-.021.007-.024.008-.024.005-.028.004-.028.005-.031.005-.036.005-.038.005-.04.005h-.18l-.095-.008-.082-.01-.076-.014-.064-.017-.055-.022-.045-.024-.04-.03-.03-.031-.024-.034-.017-.042-.012-.041-.007-.046-.002-.052v-.053l.007-.056.007-.061.452-2.658" fill="#FFFFFE"/><path d="m113.671 13.674-.007.041-.002.044.005.046.01.046.016.047.019.044.026.046.028.041.033.042.036.036.038.037.042.03.043.026.047.022.048.017.047.01.062.01.059.007.061.007.062.005.061.002h.064l.062-.002.064-.005.064-.01.064-.012.066-.015.064-.022.067-.026.068-.03.066-.038.07-.042-.096.6-.037.019-.038.02-.038.014-.036.015-.035.012-.038.012-.038.01-.04.007-.043.007-.047.005-.05.005-.055.005-.061.002h-.064l-.074.003h-.078l-.116-.003-.118-.012-.119-.017-.118-.03-.116-.036-.111-.046-.107-.06-.1-.071-.092-.083-.08-.1-.069-.112-.057-.13-.04-.143-.026-.163-.007-.18.012-.2.009-.078.014-.09.02-.096.025-.102.036-.105.042-.104.055-.108.066-.102.076-.097.092-.093.104-.083.119-.073.137-.06.154-.045.17-.029.193-.01.092.003.097.01.097.017.097.024.095.037.093.043.085.059.078.068.071.083.06.097.047.113.033.129.019.146.002.165-.016.186-.036.204-.012.149h-1.727l.11-.48h1.037l.005-.061-.003-.058-.005-.054-.009-.049-.017-.046-.016-.042-.024-.036-.024-.034-.028-.03-.03-.024-.036-.022-.036-.02-.038-.014-.038-.01-.04-.007-.043-.005-.045.003-.042.007-.04.01-.04.014-.041.02-.035.022-.036.027-.03.029-.032.034-.028.036-.026.04-.021.04-.022.045-.016.049-.014.048-.01.051-.095.505M119.32 12.35l-.03-.016-.031-.015-.033-.017-.036-.017-.035-.015-.04-.014-.041-.015-.043-.014-.045-.013-.045-.01-.05-.01-.05-.006-.054-.005-.054-.005h-.175l-.062.005-.064.007-.066.012-.067.02-.066.026-.066.035-.067.043-.063.054-.062.063-.06.078-.056.09-.052.108-.05.121-.045.137-.038.156-.014.087-.01.086-.004.085.002.083.007.083.017.078.021.073.026.073.036.066.042.063.05.056.057.051.064.044.073.037.08.031.09.022.032.007.035.008.043.005.047.005.052.004h.114l.06-.004.06-.008.062-.012.06-.017.059-.02.059-.026.054-.032.05-.039.048-.044-.107.65-.014.013-.014.014-.02.018-.02.014-.027.02-.033.017-.038.017-.042.014-.055.017-.062.013-.07.01-.084.009-.092.005-.106.002-.121-.002-.133-.007-.109-.013-.109-.024-.109-.036-.109-.05-.104-.058-.1-.073-.094-.085-.088-.097-.078-.11-.066-.122-.057-.136-.043-.149-.028-.163-.01-.173.005-.19.026-.202.02-.1.02-.098.024-.095.024-.09.026-.085.03-.085.032-.08.032-.076.036-.076.036-.07.04-.069.042-.063.043-.061.048-.058.047-.054.05-.051.054-.049.055-.046.056-.042.06-.039.064-.036.064-.032.066-.03.069-.026.073-.024.073-.02.076-.017.08-.014.081-.013.086-.01.085-.004.09-.003.076.003.073.005.071.007.071.01.067.01.063.014.062.012.057.015.054.014.048.015.045.015.038.014.033.013.028.01.022.01.014.004-.119.675M125.152 14.814h-.656l.047-.27v-.025l-.038.049-.04.044-.04.039-.043.034-.043.031-.042.027-.043.022-.045.022-.045.017-.09.025-.047.007-.048.007-.045.005-.047.002h-.047l-.124-.01-.113-.026-.105-.042-.094-.056-.086-.07-.075-.083-.067-.09-.056-.103-.048-.11-.038-.114-.026-.12-.019-.123-.007-.125.003-.126.011-.125.022-.124.035-.143.043-.137.05-.124.059-.117.061-.11.071-.097.074-.088.078-.08.083-.071.088-.06.09-.054.09-.042.094-.034.095-.022.095-.015.097-.004.069.002.066.007.061.013.057.017.055.019.047.022.048.027.042.027.038.029.036.032.03.031.029.032.024.032.02.031.02.03.014.029.166-.958h.644l-.535 3.187" fill="#FFFFFE"/><path d="m124.079 14.224.066-.005.062-.014.057-.017.054-.027.05-.03.047-.036.045-.041.04-.044.036-.049.033-.054.03-.055.027-.06.024-.06.019-.063.016-.066.012-.066.012-.068.007-.07v-.066l-.002-.069-.007-.063-.01-.06-.017-.06-.019-.055-.023-.05-.029-.045-.03-.04-.036-.034-.04-.029-.043-.02-.045-.011-.05-.005-.064.005-.059.01-.054.019-.055.024-.047.032-.047.039-.04.041-.041.047-.036.053-.033.056-.03.059-.027.063-.023.066-.02.066-.018.07-.014.07-.012.108.005.117.016.12.03.114.048.1.062.08.078.054.095.02" fill="#F1AD3D"/><path d="m109.533 14.273-.094.54h-.597l.016-.1.012-.09.01-.067.01-.037-.034.039-.038.039-.045.036-.05.035-.057.034-.059.029-.061.03-.064.024-.069.021-.069.018-.068.014-.071.01-.069.005-.069.002-.066-.007-.064-.01-.083-.022-.076-.024-.066-.032-.06-.036-.051-.04-.048-.043-.038-.046-.033-.05-.028-.05-.024-.054-.019-.054-.014-.053-.01-.056-.007-.056-.004-.054v-.053l.007-.095.014-.09.024-.086.03-.083.038-.078.043-.07.05-.068.057-.061.059-.057.066-.05.069-.047.07-.039.077-.034.078-.027.08-.022.083-.014h.005l.012-.003.016-.002.026-.003.029-.005.033-.002.035-.005.04-.005.041-.005.04-.004.043-.003.038-.005.038-.002.035-.003.034-.002h.08l.057.002.052.003h.052l.043.002.033.003.024.002h.007l.004-.017.015-.044.011-.05.005-.047-.01-.054-.02-.049-.029-.043-.038-.037-.045-.032-.05-.021-.057-.015-.061-.005-.066-.002-.072-.003h-.073l-.076.003-.078.004-.076.008-.075.007-.074.01-.07.01-.07.012-.061.012-.057.012-.052.015-.043.014-.033.017-.026.015.168-.587.052-.022.052-.02.057-.017.057-.012.057-.012.061-.01.062-.01.064-.004.066-.005.069-.003.071-.002h.227l.083.002.083.003.067.005.07.012.074.017.076.022.073.029.071.034.071.042.067.046.059.053.052.059.047.066.036.073.024.078.014.083v.092l-.014.098-.24 1.286" fill="#FFFFFE"/><path d="m108.963 13.637-.003-.012-.01-.012-.014-.008-.023-.005-.026-.004-.031-.003h-.071l-.038.003-.04.004-.038.005-.038.005-.036.005-.033.008-.028.007-.026.007-.017.005-.019.007-.026.01-.026.012-.03.015-.031.017-.034.017-.03.02-.034.024-.03.024-.029.03-.026.029-.023.031-.017.034-.014.04-.007.038-.003.083.012.066.024.049.03.036.036.025.04.014.038.008.038.002.071-.002.064-.008.062-.01.054-.014.048-.017.045-.022.04-.022.035-.027.031-.024.029-.03.023-.026.02-.03.016-.029.014-.029.012-.027.007-.027.019-.07.016-.08.015-.079.012-.063" fill="#D82332"/><path d="M104.55 14.814h-.644l.537-3.199h1.12l.107 1.898.775-1.898h1.17l-.55 3.199h-.644l.407-2.39h-.026l-.964 2.39h-.727l-.005-.1-.016-.266-.021-.377-.048-.87-.021-.383-.017-.277-.004-.117h-.036l-.393 2.39M121.289 14.273l-.097.54h-.595l.005-.1.002-.087v-.066l.005-.029-.031.037-.035.036-.043.034-.048.035-.05.031-.056.03-.06.029-.058.024-.064.02-.067.019-.066.012-.066.01-.07.005-.065.002-.064-.007-.064-.01-.086-.022-.075-.024-.067-.032-.061-.036-.052-.04-.045-.043-.038-.046-.033-.05-.029-.05-.021-.054-.02-.054-.011-.053-.01-.056-.007-.056-.004-.054v-.053l.004-.095.015-.09.02-.086.032-.083.035-.078.045-.07.05-.068.055-.061.061-.057.064-.05.069-.047.073-.039.074-.034.078-.027.078-.022.08-.014h.005l.012-.003.017-.002.023-.003.031-.005.033-.002.036-.005.038-.005.04-.005.042-.004.04-.003.041-.005.038-.002.033-.003.033-.002h.083l.057.002.054.003h.053l.045.002.038.003.02.002h.01l.005-.017.007-.044.007-.05.005-.047-.01-.054-.018-.049-.031-.043-.036-.037-.042-.032-.05-.021-.052-.015-.057-.005-.066-.002-.071-.003h-.074l-.076.003-.078.004-.076.008-.075.007-.074.01-.07.01-.07.012-.061.012-.057.012-.052.015-.043.014-.033.017-.026.015.166-.587.052-.022.054-.02.055-.017.057-.012.059-.012.06-.01.06-.01.065-.004.066-.005.069-.003.068-.002h.223l.08.002.081.003.066.005.072.012.073.017.076.022.073.029.073.034.072.042.066.046.06.053.054.059.047.066.036.073.026.078.016.083v.092l-.012.098-.248 1.286" fill="#FFFFFE"/><path d="m121.192 14.83.014-.014.097-.54-.029-.005-.097.54.015-.014v.034l.011-.002.003-.013-.014.015" fill="#FFFFFE"/><path d="m120.583 14.814.014.017h.595v-.034h-.595l.014.017h-.028l-.003.017h.017l-.014-.017" fill="#FFFFFE"/><path d="m120.62 14.54-.02-.018-.01.038-.003.066v.088l-.004.1h.028l.005-.1.005-.088-.003-.066v-.02l-.02-.018.023.019" fill="#FFFFFE"/><path d="m119.7 14.853.066.01.064.007.066-.003.069-.005.068-.01.067-.011.066-.02.066-.02.06-.024.06-.029.058-.03.05-.033.05-.034.042-.035.038-.039.03-.036-.023-.02-.03.037-.034.034-.043.034-.045.034-.05.03-.056.029-.057.029-.06.024-.06.02-.067.02-.067.012-.063.01-.07.004-.065.003-.064-.008-.062-.01-.005.03" fill="#FFFFFE"/><path d="m119.126 14.115.003.053.004.054.007.058.01.056.012.054.019.056.021.056.03.051.034.051.038.047.047.046.055.039.061.039.069.031.078.025.085.022.005-.03-.085-.021-.074-.025-.064-.031-.061-.034-.05-.04-.043-.041-.037-.046-.034-.046-.026-.052-.021-.05-.019-.052-.012-.054-.01-.055-.006-.054-.005-.054.002-.053h-.033M119.976 13.18l-.082.014-.081.022-.078.026-.076.034-.073.04-.071.048-.064.051-.062.059-.057.06-.05.07-.047.072-.035.08-.031.083-.022.088-.014.093-.007.095h.033l.003-.095.014-.088.021-.083.031-.083.035-.075.043-.068.05-.069.052-.06.062-.054.063-.051.067-.044.073-.04.071-.033.078-.027.076-.022.078-.015v-.029" fill="#FFFFFE"/><path d="M120.464 13.128h-.026l-.033.005-.033.002-.038.003-.04.004-.04.003-.043.005-.04.005-.038.005-.036.004-.033.003-.03.005-.024.002-.02.003-.009.002h-.005v.03h.005l.014-.003.015-.003.023-.002.031-.005.033-.002.036-.005.038-.005.04-.005.042-.005.04-.002.041-.005.038-.003.033-.002h.06v-.034" fill="#FFFFFE"/><path d="m120.784 13.155.014-.013h-.01l-.02-.002-.038-.002-.045-.005h-.107l-.057-.005h-.057v.034h.114l.054.005h.098l.038.002.02.003h.01l.014-.012-.014.012.012.002.002-.014-.028-.005" fill="#FFFFFE"/><path d="M120.808 12.999h-.003l-.002.046-.007.049-.007.044-.005.017.028.005.005-.018.007-.043.008-.054.007-.046h-.031M120.526 12.758v.002l.054.003.05.014.047.022.04.03.034.033.028.042.02.044.009.05h.028l-.01-.055-.018-.054-.033-.046-.038-.04-.045-.033-.052-.022-.055-.015-.06-.007v.032" fill="#FFFFFE"/><path d="m119.51 12.875.023.014.024-.012.031-.017.04-.015.052-.014.057-.012.062-.013.068-.012.07-.01.073-.01.075-.007.076-.007.078-.005h.22l.067.003v-.03l-.066-.002-.071-.005h-.074l-.076.005-.078.005-.076.007-.075.007-.074.01-.073.01-.069.012-.061.012-.057.012-.052.015-.046.015-.035.017-.028.017.023.014-.028-.004" fill="#FFFFFE"/><path d="m119.685 12.275-.01.012-.165.588.028.004.166-.587-.01.012-.009-.029-.007.003-.002.01.01-.013" fill="#FFFFFE"/><path d="m120.74 12.163-.081-.005-.081-.002h-.223l-.068.005-.069.002-.066.005-.064.005-.064.01-.06.01-.059.012-.056.012-.057.017-.055.02-.052.021.01.03.052-.022.054-.02.052-.017.057-.012.06-.012.058-.01.06-.01.064-.005.066-.005.069-.002h.291l.08.002h.081v-.029" fill="#FFFFFE"/><path d="m121.551 12.989.012-.1v-.092l-.016-.086-.026-.08-.038-.076-.048-.068-.056-.06-.06-.054-.068-.047-.071-.043-.076-.035-.074-.029-.078-.022-.073-.017-.074-.012-.066-.005v.03l.066.004.07.012.073.018.073.021.073.03.071.034.071.039.064.046.06.054.052.056.047.063.033.07.026.076.017.08v.093l-.012.095.028.005M121.303 14.276l.248-1.287-.028-.005-.249 1.287.029.005" fill="#FFFFFE"/><path d="m120.715 13.637-.004-.014-.01-.013-.016-.007-.024-.007-.026-.003-.03-.002h-.036l-.036.002-.038.005-.038.005-.038.005-.035.005-.036.007-.03.005-.031.007-.024.005-.017.003-.018.007-.024.007-.026.01-.031.015-.028.014-.034.017-.061.044-.031.027-.026.027-.026.031-.021.034-.017.037-.014.039-.007.041-.003.083.012.066.02.049.028.036.035.025.04.014.04.008.04.002.072-.002.066-.008.062-.012.054-.017.052-.02.045-.021.043-.025.038-.029.033-.027.028-.032.027-.029.02-.031.017-.03.012-.029.01-.03.007-.026.01-.068.011-.07.01-.069.004-.06" fill="#F1AD3D"/><path d="m125.595 14.48.004-.056.02-.066.032-.058.04-.051.05-.042.057-.029.062-.02.066-.007.067.007.061.02.057.03.05.04.04.052.033.058.02.066.004.056h-.071l-.003-.044-.014-.053-.023-.05-.031-.04-.038-.035-.045-.024-.052-.017-.055-.005-.054.005-.052.017-.045.024-.038.034-.031.042-.024.049-.014.053-.005.044h-.068" fill="#FFFFFE"/><path d="M125.808 14.48v-.146h.13l.029.002.026.005.019.008.016.01.012.014.01.014.004.018.003.017-.003.021-.005.017-.007.015-.004.005h-.1l.01-.002.016-.003.014-.005.012-.005.01-.007.005-.007.004-.012v-.017l-.002-.013-.005-.01-.007-.004-.007-.005-.012-.003-.012-.002h-.097v.095h-.06M125.595 14.48l-.003.015.007.07.02.066.032.059.04.048.05.042.057.031.062.02.066.007.067-.007.061-.02.057-.031.05-.042.04-.048.033-.059.02-.066.006-.07-.002-.015h-.071l.002.015-.005.058-.014.054-.023.046-.031.041-.038.035-.045.026-.052.017-.055.005-.054-.005-.052-.017-.045-.026-.038-.035-.031-.041-.024-.046-.014-.054-.005-.058v-.015h-.068" fill="#FFFFFE"/><path d="M125.808 14.48v.149h.06v-.122h.058l.071.122h.048l-.071-.122h.016l.017-.005.014-.005.012-.01.005-.007h-.1l-.012.002h-.059v-.002h-.06M121.466 14.814h.668l.24-1.387.009-.053.014-.054.014-.053.02-.054.023-.053.028-.052.031-.048.038-.047.043-.041.047-.039.055-.037.061-.029.069-.024.076-.02.083-.014.092-.005h.06l.106-.626-.067.005-.064.007-.059.012-.057.017-.052.02-.05.024-.047.027-.045.03-.042.033-.04.034-.077.078-.035.042-.036.046-.035.044-.033.049.07-.441h-.665l-.443 2.609M115.194 14.814h.68l.227-1.387.01-.053.024-.102.016-.05.02-.048.023-.046.028-.044.033-.041.038-.037.043-.036.052-.03.057-.026.066-.022.074-.02.08-.012.092-.007h.008l.01.002.01.002h.013l.012.003.01.002.006.003h.003l.01-.04.009-.043.011-.054.017-.063.017-.068.042-.137.02-.046.023-.046.024-.046.023-.042.022-.036.016-.03.012-.017.005-.007h-.003l-.01-.002-.011-.003-.017-.002h-.016l-.02-.003-.016-.002h-.016l-.074.005-.066.007-.062.012-.056.015-.055.02-.05.024-.045.024-.042.03-.04.03-.038.037-.036.037-.036.041-.035.042-.033.046-.036.049-.035.049.085-.441h-.68l-.443 2.609" fill="#FFFFFE"/><path d="M125.6 17.377v-.01l.018-.063.033-.056.04-.05.05-.038.057-.03.062-.016.066-.008.067.008.061.017.057.029.05.039.04.049.033.056.02.063v.01h-.07l-.014-.051-.023-.047-.031-.041-.038-.034-.045-.027-.052-.017-.055-.005-.054.005-.052.017-.045.027-.038.034-.031.041-.024.047-.014.05h-.069" fill="#F1AD3D"/><path d="M125.808 17.377v-.086h.159l.026.005.019.005.016.01.012.012.01.015.004.017.003.022h-.048v-.012l-.002-.013-.005-.01-.007-.004-.007-.005-.012-.003-.012-.002h-.097v.049h-.06M125.592 17.43l.007-.053h.069v.002l-.005.051h-.07" fill="#F1AD3D"/><path d="M125.808 17.43v-.053h.06v.048h.058l.022-.004.016-.003.014-.005.012-.005.01-.007.005-.007.004-.012v-.005h.048l-.003.017-.005.014-.007.013-.01.01h-.224M126.19 17.43l-.006-.05v-.003h.07l.006.053h-.07" fill="#F1AD3D"/><path d="M125.592 17.43v.008l.007.07.02.066.032.058.04.052.05.041.057.03.062.019.066.007.067-.007.061-.02.057-.029.05-.041.04-.052.033-.058.02-.066.006-.07v-.008h-.07v.008l-.006.058-.014.054-.023.046-.031.041-.038.035-.045.026-.052.017-.055.005-.054-.005-.052-.017-.045-.026-.038-.035-.031-.041-.024-.046-.014-.054-.005-.058v-.008h-.07" fill="#F1AD3D"/><path d="M125.808 17.43v.142h.06v-.122h.058l.071.122h.048l-.071-.122h.016l.017-.005.014-.005.012-.01h-.225" fill="#F1AD3D"/></g><path d="M182.018 24.588c0 .765-.612 1.412-1.336 1.412h-36.69c-.724 0-1.336-.647-1.336-1.412V1.412c0-.765.612-1.412 1.336-1.412h36.69c.724 0 1.336.647 1.336 1.412v23.176Z" fill="#FCFCFC" fill-rule="evenodd"/><path d="M153.512 26h27.226c.723 0 1.336-.647 1.336-1.412v-9.706C179.4 16.588 169.603 22.647 153.512 26Z" fill="#F58220" fill-rule="evenodd"/><path d="M1.949 0C.89 0 0 .882 0 2c0 1.176.835 2.059 1.949 2.059 1.113 0 1.948-.883 1.948-2C3.897.94 3.007 0 1.95 0Z" transform="translate(160.917 10.941)" fill="url(#a)" fill-rule="evenodd"/><path d="M151.675 11.059h-1.058v3.882h1.058c.557 0 .947-.117 1.336-.47.446-.353.668-.942.668-1.471 0-1.176-.835-1.941-2.004-1.941Zm.89 2.882c-.222.235-.5.294-1.001.294h-.167v-2.588h.167c.445 0 .724.059 1.002.294.223.235.39.588.39.941 0 .47-.167.824-.39 1.06Z" fill="#001722"/><path d="M154.013 11.059h.724v3.882h-.724V11.06ZM156.463 12.53c-.445-.177-.557-.295-.557-.471 0-.235.223-.412.557-.412.223 0 .39.118.557.294l.39-.53c-.334-.293-.668-.411-1.058-.411-.668 0-1.17.47-1.17 1.118 0 .53.223.823.891 1.058.279.118.446.177.502.236.167.117.222.235.222.412 0 .294-.222.529-.557.529-.334 0-.612-.177-.779-.53l-.445.471c.334.53.723.765 1.28.765.724 0 1.28-.53 1.28-1.294-.055-.647-.278-.941-1.113-1.236ZM157.744 13c0 1.118.835 2.059 1.948 2.059.334 0 .557-.059.891-.235v-.883c-.278.294-.557.412-.89.412-.724 0-1.225-.53-1.225-1.353 0-.765.556-1.353 1.224-1.353.334 0 .613.118.891.412v-.883c-.334-.176-.557-.235-.89-.235-1.058 0-1.95.941-1.95 2.059ZM166.43 13.647l-1.003-2.588h-.78l1.56 3.941h.39l1.614-3.941h-.78l-1.002 2.588ZM168.545 14.941h2.004v-.647h-1.28v-1.059h1.224v-.647h-1.225v-.882h1.281v-.647h-2.004v3.882Z" fill="#001722" fill-rule="evenodd"/><path d="M173.388 12.176c0-.705-.5-1.176-1.28-1.176h-1.058v3.882h.724v-1.588h.111l1.002 1.588h.891l-1.169-1.647c.501-.059.78-.47.78-1.059Zm-1.447.648h-.223v-1.177h.223c.445 0 .668.177.668.588.056.353-.167.589-.668.589Z" fill="#001722"/><path d="M173.949 11.382c0-.073-.07-.147-.141-.147h-.141v.441h.07v-.147l.141.147h.141l-.14-.147c.07-.073.07-.147.07-.147Zm-.141 0v-.147c.07 0 .07 0 .07.074 0 .073 0 .073-.07.073Z" fill="#231F20"/><path d="M173.852 11.118c-.211 0-.352.147-.352.367s.14.368.352.368c.211 0 .352-.147.352-.368 0-.22-.14-.367-.352-.367Zm0 .661c-.14 0-.282-.147-.282-.294s.141-.294.282-.294c.14 0 .282.147.282.294s-.07.294-.282.294Z" fill="#231F20"/><path d="M229 24.588c0 .765-.613 1.412-1.338 1.412H190.92c-.725 0-1.338-.647-1.338-1.412V1.412c0-.765.613-1.412 1.338-1.412h36.742c.725 0 1.338.647 1.338 1.412v23.176Z" fill="#FCFCFC" fill-rule="evenodd"/><path d="M201.848 12.412V12l-.167.412h-1.617l-.223-.47v.47h-3.067l-.334-.883h-.614l-.39.883h-1.617V9.706l1.171-2.765h2.23l.335.765V6.94h2.732l.613 1.294.558-1.353h8.53s.446 0 .725.236v-.236h2.174v.294s.39-.294.948-.294h3.791l.335.824v-.824h2.453l.446.824v-.824h2.342v5.47h-2.398l-.557-.94v.94h-3.011l-.446-1h-.558l-.39 1h-1.784s-.67 0-1.17-.41v.41h-3.57V11.06c0-.177-.11-.177-.11-.177h-.112v1.47h-7.248v.06ZM200.008 13.588h4.739l.67.824.668-.824h3.624s.335 0 .67.177v-.177h3.233c.39 0 .78.236.78.236v-.236h4.126v.177s.28-.177.67-.177h2.675v.177s.335-.177.725-.177h2.119v5.177s-.279.353-.836.353h-2.788v-.177s-.279.177-.67.177H213v-1.353c0-.118-.056-.177-.168-.177h-.111v1.47h-2.342v-1.47s-.279.118-.669.118h-.836v1.353h-2.844l-.669-.824-.669.824h-4.627v-5.47h-.056Z" fill="#FFF" fill-rule="evenodd"/><path d="M214.894 14.412h2.955v.823h-2.063v.706h2.007v.765h-2.007v.765h2.063v.823h-2.955v-3.882ZM223.592 15.882c1.115.06 1.226.647 1.226 1.294 0 .706-.557 1.118-1.17 1.118h-1.952v-.823h1.506c.278 0 .613 0 .613-.353 0-.177-.056-.294-.335-.294-.111 0-.557-.06-.613-.06-1.004 0-1.227-.529-1.227-1.176 0-.706.502-1.117 1.06-1.117h1.895v.823h-1.393c-.335 0-.67-.059-.67.353 0 .235.168.294.39.294.112-.059.558 0 .67-.059ZM220.135 15.882c1.115.06 1.227.647 1.227 1.294 0 .706-.558 1.118-1.171 1.118h-1.896v-.823h1.506c.278 0 .613 0 .613-.353 0-.177-.056-.294-.335-.294-.111 0-.557-.06-.613-.06-1.003 0-1.227-.529-1.227-1.176 0-.706.502-1.117 1.06-1.117h1.895v.823h-1.393c-.335 0-.67-.059-.67.353 0 .235.168.294.39.294.057-.059.558 0 .614-.059Z" fill="#0078A9" fill-rule="evenodd"/><path d="M209.43 14.412h-3.178l-1.059 1.235-1.004-1.235h-3.568v3.882h3.457l1.06-1.294 1.059 1.294h1.728V17h1.227c.446 0 1.338 0 1.338-1.353.055-1-.614-1.235-1.06-1.235Zm-5.798 3.059h-2.063v-.765h2.007v-.765h-2.007v-.706h2.174l.893 1.06-1.004 1.176Zm3.457.47-1.283-1.647 1.283-1.53v3.177Zm2.063-1.765h-1.115v-.94h1.115c.39 0 .501.235.501.47s-.167.47-.501.47ZM213.78 16.53c.501-.236.612-.589.612-1.06 0-.823-.669-1.058-1.059-1.058h-2.342v3.882h.893v-1.353h1.17c.335 0 .446.353.446.647v.706h.892l-.055-.823c.055-.589-.112-.883-.558-.942Zm-.781-.412h-1.115v-.883h1.115c.39 0 .501.236.501.47 0 .236-.111.413-.501.413Z" fill="#0078A9"/><path d="M211.326 7.706h.892v3.882h-.892V7.706ZM203.966 7.706h2.955v.823h-2.062v.706h2.007V10h-2.007v.765h2.062v.823h-2.955V7.706Z" fill="#0078A9" fill-rule="evenodd"/><path d="M210.267 9.824c.501-.236.613-.589.613-1.06 0-.823-.67-1.058-1.06-1.058h-2.341v3.882h.892v-1.353h1.17c.335 0 .447.353.447.647v.706h.892l-.056-.823c0-.589-.167-.883-.557-.941Zm-.78-.412h-1.116v-.883h1.115c.39 0 .502.236.502.471s-.167.412-.502.412ZM201.848 7.706l-1.115 2.588-1.115-2.588h-1.394v3.765l-1.561-3.765h-1.171l-1.617 3.882h.948l.334-.882h1.784l.335.882h1.84V8.706l1.226 2.882h.837l1.226-2.823v2.823h.892V7.706h-1.45Zm-6.356 2.176.557-1.353.558 1.353h-1.115ZM221.585 7.706v2.706l-1.506-2.706h-1.338v3.647l-1.56-3.647h-1.172l-1.226 3h-.558c-.223-.059-.557-.235-.557-.882v-.295c0-.94.446-1 1.059-1h.558v-.823h-1.171c-.39 0-1.283.353-1.338 1.941 0 1.059.446 1.941 1.45 1.941h1.17l.335-.882h1.784l.334.882h1.784V8.765l1.617 2.823h1.227V7.706h-.892Zm-5.52 2.176.558-1.353.557 1.353h-1.115Z" fill="#0078A9"/></svg>