<svg width="112" height="112" xmlns="http://www.w3.org/2000/svg"><path d="M55.893 110.893c30.375 0 55-24.625 55-55 0-30.376-24.625-55-55-55-30.376 0-55 24.624-55 55 0 30.375 24.624 55 55 55Z" fill="#FFF" fill-rule="evenodd"/><g fill="none" stroke="#012169" stroke-width="1.785" stroke-linecap="round" stroke-linejoin="round"><path d="M86.893 48.22c0 14.883-31.483 41.673-31.483 41.673S23.893 63.799 23.893 48.22c0-10.123 8.226-18.328 18.374-18.328 5.143 0 9.79 2.107 13.126 5.501a18.34 18.34 0 0 1 13.124-5.501c10.15 0 18.376 8.205 18.376 18.328Z"/><path d="M61.193 84.558c-.08-.091-.158-.183-.233-.275-4.169-5.11-1.086-12.818 5.431-13.89.11-.019.223-.036.334-.054 2.024-.318 4.1-1.754 5.67-3.108 1.581-1.364 1.84-3.713.62-5.405-.884-1.224-1.335-2.667-1.932-4.052-3.492-8.101-7.679-2.272-14.837-11.102-5.223-6.442-.852-11.278-.852-11.278s6.685 7.126 5.311 15.351c-3.805 1.75-5.672 4.9-6.108 8.676 0 0-14.843-11.926-26.8-.686"/></g></svg>