<svg data-name="Group 22" xmlns="http://www.w3.org/2000/svg" width="165" height="20"><defs><clipPath id="a"><path data-name="Clip 17" d="M4.39 4.183 0 3l3.277 3L0 9l4.39-1.18L5.5 12l1.111-4.18L11 9 7.725 6 11 3 6.611 4.183 5.5 0Z" fill="none"/></clipPath></defs><g data-name="Group 15" fill="#012169"><path data-name="Fill 1" d="M20.326.417A.47.47 0 0 1 20.827 0h.446a.509.509 0 0 1 .474.278l6.132 13.111h.084L34.1.278A.481.481 0 0 1 34.569 0h.446a.47.47 0 0 1 .5.417l3.289 18.667a.483.483 0 0 1-.5.639h-2.536a.6.6 0 0 1-.53-.417L33.594 8.778h-.084l-4.878 10.916a.474.474 0 0 1-.474.306h-.5a.5.5 0 0 1-.474-.306L22.249 8.778h-.084l-1.616 10.527a.539.539 0 0 1-.5.417h-2.511a.509.509 0 0 1-.53-.639Z"/><path data-name="Fill 3" d="M45.134.806a.547.547 0 0 1 .53-.528h2.592a.547.547 0 0 1 .53.528v18.389a.547.547 0 0 1-.53.528h-2.592a.547.547 0 0 1-.53-.528Z"/><path data-name="Fill 5" d="M69.973 19.722h-2.929a.475.475 0 0 1-.446-.25l-3.707-7.361h-3.095v7.084a.549.549 0 0 1-.529.527h-2.565a.529.529 0 0 1-.529-.527V.805a.529.529 0 0 1 .529-.527h7.971A6.032 6.032 0 0 1 70.75 6.25a6.125 6.125 0 0 1-4.126 5.611l3.819 7.056a.568.568 0 0 1 0 .558.534.534 0 0 1-.47.247ZM59.824 3.612v5.527h4.549a2.835 2.835 0 0 0 2.759-2.833 2.764 2.764 0 0 0-2.759-2.694Z"/><path data-name="Fill 7" d="M92.912 19.723h-2.425a.8.8 0 0 1-.808-.556l-1.366-3h-8.335l-1.366 3a.847.847 0 0 1-.808.556h-2.425a.525.525 0 0 1-.458-.223.508.508 0 0 1-.016-.5L83.574.305A.5.5 0 0 1 84.049 0h.278a.472.472 0 0 1 .474.305L93.385 19a.509.509 0 0 1-.017.5.524.524 0 0 1-.456.223ZM84.076 6.972l-2.727 6.111h5.6L84.16 6.972h-.084Z"/><path data-name="Fill 9" d="M106.965 0a9.452 9.452 0 0 1 6.746 2.583.515.515 0 0 1 .028.778l-1.7 1.75a.447.447 0 0 1-.7 0 6.608 6.608 0 0 0-4.293-1.639 6.308 6.308 0 0 0-6.214 6.472 6.3 6.3 0 0 0 6.244 6.417 6.7 6.7 0 0 0 4.265-1.583.515.515 0 0 1 .7 0l1.728 1.778a.528.528 0 0 1-.028.75A9.585 9.585 0 0 1 106.965 20a10 10 0 1 1 0-20"/><path data-name="Fill 11" d="M119.871.806a.528.528 0 0 1 .53-.528h2.564a.547.547 0 0 1 .53.528v15.583h7.108a.528.528 0 0 1 .529.528v2.278a.528.528 0 0 1-.529.528h-10.202a.528.528 0 0 1-.53-.528Z"/><path data-name="Fill 13" d="M136.596.806a.528.528 0 0 1 .53-.528h11.344a.528.528 0 0 1 .53.528v2.278a.528.528 0 0 1-.53.528h-8.25v4.555h6.885a.547.547 0 0 1 .53.528v2.306a.528.528 0 0 1-.53.528h-6.885v4.861h8.251a.528.528 0 0 1 .53.528v2.278a.528.528 0 0 1-.53.528h-11.345a.528.528 0 0 1-.53-.529Z"/></g><g data-name="Group 18"><path data-name="Clip 17" d="M4.39 8.183 0 7l3.277 3L0 13l4.39-1.18L5.5 16l1.111-4.18L11 13l-3.275-3L11 7 6.611 8.183 5.5 4Z" fill="none"/><g data-name="Group 18" clip-path="url(#a)" transform="translate(0 4)"><path data-name="Fill 16" d="M-6.111 17.454h23.222V-5.455H-6.111Z" fill="#012169"/></g></g><g data-name="Group 21"><path data-name="Clip 20" d="M158.39 8.183 154 7l3.277 3L154 13l4.39-1.18L159.5 16l1.111-4.18L165 13l-3.275-3L165 7l-4.389 1.183L159.5 4Z" fill="none"/><g data-name="Group 21" clip-path="url(#a)" transform="translate(154 4)"><path data-name="Fill 19" d="M-6.111 17.454h23.222V-5.455H-6.111Z" fill="#012169"/></g></g></svg>