<?xml version="1.0" encoding="UTF-8"?>
<svg width="146px" height="32px" viewBox="0 0 146 32" version="1.1" xmlns="http://www.w3.org/2000/svg" xmlns:xlink="http://www.w3.org/1999/xlink">
    <title>logo</title>
    <defs>
        <polygon id="path-1" points="3.67584307 3.89057971 -1.0658141e-14 2.79086957 2.7453665 5.57971014 -1.0658141e-14 8.3726087 3.67584307 7.27289855 4.60734326 11.1604348 5.5367962 7.27289855 9.21263926 8.3726087 6.47034364 5.57971014 9.21263926 2.79086957 5.5367962 3.89057971 4.60734326 1.42108547e-14"></polygon>
        <polygon id="path-3" points="139.819202 3.89057971 136.142336 2.79086957 138.886679 5.57971014 136.142336 8.3726087 139.819202 7.27289855 140.749679 11.1604348 141.680156 7.27289855 145.354975 8.3726087 142.611656 5.57971014 145.354975 2.79086957 141.680156 3.89057971 140.749679 1.42108547e-14"></polygon>
    </defs>
    <g id="Update" stroke="none" stroke-width="1" fill="none" fill-rule="evenodd">
        <g id="atc_d-copy-2" transform="translate(-647.000000, -72.000000)">
            <g id="01_logo_menu" transform="translate(0.000000, 57.000000)">
                <g id="logo" transform="translate(647.000000, 15.000000)">
                    <g id="Group-4">
                        <g id="Group-15" transform="translate(15.354399, -0.000000)" fill="#00207D">
                            <path d="M3.0578797,1.3372029 C3.08142311,1.14242029 3.22984896,0.971985507 3.50008638,0.971985507 L3.89213536,0.971985507 C4.08969529,0.971985507 4.2360739,1.06937681 4.31079864,1.21546377 L9.715547,12.7086522 L9.78924812,12.7086522 L15.1939965,1.21546377 C15.2687212,1.06937681 15.3915564,0.971985507 15.6126598,0.971985507 L16.0047087,0.971985507 C16.2759698,0.971985507 16.423372,1.14242029 16.4479391,1.3372029 L19.3468495,17.6999565 C19.4205507,18.0408261 19.2240143,18.260971 18.9046429,18.260971 L16.6690424,18.260971 C16.4479391,18.260971 16.2514027,18.0651739 16.2022687,17.8947391 L14.7528134,8.66691304 L14.6791123,8.66691304 L10.378857,18.2356087 C10.329723,18.3816957 10.1823207,18.5044493 9.96121738,18.5044493 L9.5190107,18.5044493 C9.29893098,18.5044493 9.17609579,18.3816957 9.10137105,18.2356087 L4.75300532,8.66691304 L4.67930421,8.66691304 L3.25339237,17.8947391 C3.22984896,18.0651739 3.03331266,18.260971 2.81220932,18.260971 L0.601175893,18.260971 C0.280780772,18.260971 0.0852680945,18.0408261 0.134402171,17.6999565 L3.0578797,1.3372029 Z" id="Fill-1"></path>
                            <path d="M24.9219294,1.67847826 C24.9219294,1.435 25.1430327,1.21586957 25.3887031,1.21586957 L27.6734376,1.21586957 C27.919108,1.21586957 28.141235,1.435 28.141235,1.67847826 L28.141235,17.7977536 C28.141235,18.0412319 27.919108,18.2613768 27.6734376,18.2613768 L25.3887031,18.2613768 C25.1430327,18.2613768 24.9219294,18.0412319 24.9219294,17.7977536 L24.9219294,1.67847826 Z" id="Fill-3"></path>
                            <path d="M41.8737998,8.98302899 C43.1758528,8.98302899 44.3059366,7.86302899 44.3059366,6.49955072 C44.3059366,5.20911594 43.1758528,4.13781159 41.8737998,4.13781159 L37.8693726,4.13781159 L37.8693726,8.98302899 L41.8737998,8.98302899 Z M34.650067,1.67868116 C34.650067,1.4352029 34.8476269,1.21607246 35.1168407,1.21607246 L42.1440372,1.21607246 C45.0931054,1.21607246 47.4996515,3.55346377 47.4996515,6.45085507 C47.4996515,8.69085507 46.0010622,10.516942 43.8637299,11.3691159 L47.2294141,17.5534638 C47.4013833,17.871 47.2294141,18.2615797 46.8117744,18.2615797 L44.2322354,18.2615797 C44.0111321,18.2615797 43.8882969,18.1378116 43.8391628,18.0414348 L40.5717468,11.5892609 L37.8437819,11.5892609 L37.8437819,17.796942 C37.8437819,18.0414348 37.6237022,18.2615797 37.3770082,18.2615797 L35.1168407,18.2615797 C34.8476269,18.2615797 34.650067,18.0414348 34.650067,17.796942 L34.650067,1.67868116 Z" id="Fill-5"></path>
                            <path d="M61.7724864,12.4416377 L59.3168062,7.08410145 L59.2420815,7.08410145 L56.8345118,12.4416377 L61.7724864,12.4416377 Z M51.1585024,17.6267101 L58.7998748,1.2396087 C58.8735759,1.09352174 58.9964111,0.971782609 59.2175145,0.971782609 L59.4631848,0.971782609 C59.7088552,0.971782609 59.8071234,1.09352174 59.8808245,1.2396087 L67.4484958,17.6267101 C67.5948744,17.9442464 67.3993618,18.2607681 67.0308562,18.2607681 L64.8935239,18.2607681 C64.5239947,18.2607681 64.353049,18.1146812 64.1810798,17.7738116 L62.9772949,15.1442464 L55.6307269,15.1442464 L54.4259184,17.7738116 C54.3286739,18.0172899 54.1075706,18.2607681 53.7144979,18.2607681 L51.576142,18.2607681 C51.2086601,18.2607681 51.0111001,17.9442464 51.1585024,17.6267101 L51.1585024,17.6267101 Z" id="Fill-7"></path>
                            <path d="M79.4161237,0.972086957 C81.8984182,0.972086957 83.6918119,1.75121739 85.3623705,3.23643478 C85.5824502,3.43121739 85.5824502,3.7233913 85.3869376,3.91817391 L83.8873246,5.45310145 C83.7153553,5.64686957 83.4707086,5.64686957 83.2741723,5.45310145 C82.2423567,4.55121739 80.8655789,4.01556522 79.4898248,4.01556522 C76.3452439,4.01556522 74.0113753,6.62078261 74.0113753,9.68962319 C74.0113753,12.7331014 76.3687873,15.3149855 79.5143918,15.3149855 C80.9884141,15.3149855 82.2423567,14.753971 83.2741723,13.9261449 C83.4707086,13.7557101 83.740946,13.7810725 83.8873246,13.9261449 L85.410481,15.4854203 C85.6080409,15.6558551 85.5589068,15.9723768 85.3869376,16.1428116 C83.7153553,17.7497681 81.6036137,18.5045507 79.4161237,18.5045507 C74.5027161,18.5045507 70.5463993,14.6332464 70.5463993,9.76266667 C70.5463993,4.89208696 74.5027161,0.972086957 79.4161237,0.972086957" id="Fill-9"></path>
                            <path d="M90.7899458,1.67847826 C90.7899458,1.435 90.9864821,1.21586957 91.2567195,1.21586957 L93.516887,1.21586957 C93.7625574,1.21586957 93.9836607,1.435 93.9836607,1.67847826 L93.9836607,15.3386232 L100.249279,15.3386232 C100.519516,15.3386232 100.716053,15.5587681 100.716053,15.8022464 L100.716053,17.7977536 C100.716053,18.0412319 100.519516,18.2613768 100.249279,18.2613768 L91.2567195,18.2613768 C90.9864821,18.2613768 90.7899458,18.0412319 90.7899458,17.7977536 L90.7899458,1.67847826 Z" id="Fill-11"></path>
                            <path d="M105.529554,1.67847826 C105.529554,1.435 105.726091,1.21586957 105.996328,1.21586957 L115.996136,1.21586957 C116.266374,1.21586957 116.46291,1.435 116.46291,1.67847826 L116.46291,3.675 C116.46291,3.91847826 116.266374,4.1376087 115.996136,4.1376087 L108.723269,4.1376087 L108.723269,8.13065217 L114.792351,8.13065217 C115.038022,8.13065217 115.259125,8.34978261 115.259125,8.59326087 L115.259125,10.6141304 C115.259125,10.882971 115.038022,11.0767391 114.792351,11.0767391 L108.723269,11.0767391 L108.723269,15.3386232 L115.996136,15.3386232 C116.266374,15.3386232 116.46291,15.5587681 116.46291,15.8022464 L116.46291,17.7977536 C116.46291,18.0412319 116.266374,18.2613768 115.996136,18.2613768 L105.996328,18.2613768 C105.726091,18.2613768 105.529554,18.0412319 105.529554,17.7977536 L105.529554,1.67847826 Z" id="Fill-13"></path>
                        </g>
                        <g id="Group-18" transform="translate(-0.000000, 4.043478)">
                            <g id="Clip-20" transform="translate(0.000000, 0.013478)">
                                <mask id="mask-2" fill="white">
                                    <use xlink:href="#path-1"></use>
                                </mask>
                                <use id="Mask" fill="#00207D" xlink:href="#path-1"></use>
                                <mask id="mask-4" fill="white">
                                    <use xlink:href="#path-3"></use>
                                </mask>
                                <use fill="#00207D" xlink:href="#path-3"></use>
                            </g>
                        </g>
                        <g id="Group-21" transform="translate(136.142336, 4.043478)"></g>
                    </g>
                    <polygon id="Fill-22" fill="#00207D" points="61.4222463 31.6168037 59.7844437 31.6168037 59.7844437 27.9970935 57.8610494 31.6168037 57.0841168 31.6168037 55.1504862 27.9768037 55.1504862 31.6168037 53.5126837 31.6168037 53.5126837 24.8237602 55.1709587 24.8237602 57.4730949 29.1333254 59.7752311 24.8237602 61.4222463 24.8237602"></polygon>
                    <path d="M68.3137099,26.7098037 L67.4436273,28.9396588 L69.1930051,28.9396588 L68.3137099,26.7098037 Z M70.2371042,31.6169051 L69.7559998,30.379224 L66.87142,30.379224 L66.3903155,31.6169051 L64.5795201,31.6169051 L67.4436273,24.8238617 L69.1725326,24.8238617 L72.0376634,31.6169051 L70.2371042,31.6169051 Z" id="Fill-25" fill="#00207D"></path>
                    <path d="M77.8432639,30.1663834 C79.1217735,30.1663834 79.9611473,29.3963834 79.9611473,28.2195718 C79.9611473,27.0437747 79.1217735,26.2727602 77.8432639,26.2727602 L76.8820786,26.2727602 L76.8820786,30.1663834 L77.8432639,30.1663834 Z M77.9046815,24.8230501 C80.1658727,24.8230501 81.6593439,26.2027602 81.6593439,28.2195718 C81.6593439,30.2373979 80.1658727,31.617108 77.9046815,31.617108 L75.1930947,31.617108 L75.1930947,24.8230501 L77.9046815,24.8230501 Z" id="Fill-28" fill="#00207D"></path>
                    <polygon id="Fill-31" fill="#00207D" points="90.5146351 31.6168037 85.1733516 31.6168037 85.1733516 24.8237602 90.4839263 24.8237602 90.4839263 26.2633254 86.8623354 26.2633254 86.8623354 27.5405718 90.1870746 27.5405718 90.1870746 28.8989776 86.8623354 28.8989776 86.8623354 30.1772385 90.5146351 30.1772385"></polygon>
                </g>
            </g>
        </g>
    </g>
</svg>