<?xml version="1.0" encoding="UTF-8"?>
<svg width="13px" height="14px" viewBox="0 0 13 14" version="1.1" xmlns="http://www.w3.org/2000/svg" xmlns:xlink="http://www.w3.org/1999/xlink">
    <title>noun-reload-1455873@1x</title>
    <g id="Update" stroke="none" stroke-width="1" fill="none" fill-rule="evenodd">
        <g id="atc_d-copy-2" transform="translate(-799.000000, -546.000000)" fill="#012169" fill-rule="nonzero">
            <g id="Group-11" transform="translate(774.500000, 344.000000)">
                <g id="noun-reload-1455873" transform="translate(25.375000, 202.874978)">
                    <path d="M4.15967861,0.181216408 C4.32261668,-0.0300320559 4.60894957,-0.0589541368 4.82013972,0.106905357 L4.82013972,0.106905357 L5.92531237,0.978168979 C6.01857803,1.04879256 6.08756557,1.1626502 6.11323226,1.30473802 L6.11323226,1.30473802 L6.11323226,1.33955453 C6.11323226,1.43012085 6.0749119,1.5396932 6.01940477,1.62353858 L6.01940477,1.62353858 L5.1523219,2.74350097 C5.05997123,2.86010629 4.92035139,2.93052656 4.7775744,2.93052656 C4.66435861,2.93052656 4.55493886,2.8980876 4.49285932,2.83407839 C4.283978,2.67003541 4.25550339,2.38300465 4.41918767,2.17079295 L4.41918767,2.17079295 L4.578,1.96302189 L4.48591477,1.98572957 C2.51283125,2.49219629 1.05893746,4.2627224 0.964203527,6.35741287 L0.964203527,6.35741287 L0.959286276,6.5752228 C0.959286276,9.17662421 3.06552502,11.3019334 5.64246238,11.3019334 C8.21939973,11.3019334 10.3256385,9.17662421 10.3256385,6.5752228 C10.3256385,5.78427516 10.1365266,5.02100011 9.76788008,4.34451557 C9.6499056,4.10643025 9.72892355,3.82375602 9.96195846,3.70617519 C10.1990509,3.58655562 10.4807365,3.66672955 10.5963238,3.9000209 C11.0255641,4.73061576 11.25,5.64125464 11.25,6.57523838 C11.25,9.69816609 8.72105695,12.2500219 5.62500503,12.2500219 C2.5290034,12.2501464 0,9.6982259 0,6.57522343 C0,3.94866559 1.79382851,1.69550207 4.26567708,1.06786703 L4.26567708,1.06786703 L4.455,1.02302189 L4.23332961,0.844528623 C4.04765733,0.698712636 4.00452862,0.455721123 4.11221191,0.254461346 L4.11221191,0.254461346 Z" id="Combined-Shape"></path>
                </g>
            </g>
        </g>
    </g>
</svg>