<?xml version="1.0" encoding="UTF-8"?>
<svg width="20px" height="18px" viewBox="0 0 20 18" version="1.1" xmlns="http://www.w3.org/2000/svg" xmlns:xlink="http://www.w3.org/1999/xlink">
    <title>alert</title>
    <g id="landing-page-update" stroke="none" stroke-width="1" fill="none" fill-rule="evenodd">
        <g id="01_desktop" transform="translate(-792.000000, -4822.000000)" fill="#000000" fill-rule="nonzero" stroke="#FFFFFF" stroke-width="0.5">
            <g id="alert" transform="translate(793.000000, 4823.000000)">
                <path d="M17.7592189,13.3161128 L10.5563674,0.894562501 C10.2352997,0.341042468 9.64205128,0 9.00006846,0 C8.35808564,0 7.76500166,0.341046462 7.44376956,0.894562501 L0.240918054,13.3161128 C-0.0803060179,13.8699523 -0.0803060179,14.551598 0.240918054,15.1054375 C0.561985681,15.659277 1.15523413,16 1.79721695,16 L16.20292,16 C16.8447423,16 17.4381472,15.6591093 17.7592189,15.1054375 C18.0802865,14.551598 18.0802865,13.8696728 17.7590622,13.3161128 L17.7592189,13.3161128 Z M1.79749775,14.2108351 L9.00034925,1.78888537 L16.2032008,14.2104357 L1.79749775,14.2104357 L1.79749775,14.2108351 Z" id="Shape"></path>
                <path d="M8.063865,6.0638954 L8.063865,9.66943794 C8.063865,10.1465899 8.46693224,10.5333333 8.963865,10.5333333 C9.46095849,10.5333333 9.863865,10.1464356 9.863865,9.66943794 L9.863865,6.0638954 C9.863865,5.58674342 9.46079776,5.2 8.963865,5.2 C8.46677151,5.2 8.063865,5.58674342 8.063865,6.0638954 Z" id="Path"></path>
                <path d="M9.867465,12.4444444 C9.867465,12.935401 9.46455849,13.3333333 8.967465,13.3333333 C8.47037151,13.3333333 8.067465,12.935401 8.067465,12.4444444 C8.067465,11.9534879 8.47037151,11.5555556 8.967465,11.5555556 C9.46455849,11.5555556 9.867465,11.9534879 9.867465,12.4444444" id="Path"></path>
            </g>
        </g>
    </g>
</svg>