<?xml version="1.0" encoding="UTF-8"?>
<svg width="13px" height="10px" viewBox="0 0 13 10" version="1.1" xmlns="http://www.w3.org/2000/svg" xmlns:xlink="http://www.w3.org/1999/xlink">
    <title>002-correct-symbol</title>
    <g id="Page-1" stroke="none" stroke-width="1" fill="none" fill-rule="evenodd">
        <g id="4" transform="translate(-848.000000, -687.000000)" fill="#54AF3C" fill-rule="nonzero">
            <g id="002-correct-symbol" transform="translate(848.000000, 687.985494)">
                <path d="M12.3370314,1.24238306 L11.2346625,0.212092176 C11.0835084,0.0707150818 10.8996762,0 10.6835917,0 C10.4673084,0 10.2834762,0.0707150818 10.1323221,0.212092176 L4.81484321,5.18939908 L2.43172437,2.95451061 C2.28039991,2.81308045 2.09668124,2.74244497 1.88059673,2.74244497 C1.66437027,2.74244497 1.48065159,2.81308045 1.32932713,2.95451061 L0.226958291,3.98482803 C0.0756338363,4.12623165 0,4.29799103 0,4.50005307 C0,4.70195591 0.0756338363,4.87387448 0.226958291,5.01525158 L3.16120477,7.75759041 L4.26365878,8.78788129 C4.41489807,8.92936452 4.59867353,9 4.81484321,9 C5.03092771,9 5.21470317,8.92917878 5.36602763,8.78788129 L6.46845325,7.75759041 L12.3370314,2.27275354 C12.4882139,2.13132338 12.5639898,1.95959054 12.5639898,1.7575285 C12.5639898,1.55557259 12.4882139,1.38381322 12.3370314,1.24238306 Z" id="Path"></path>
            </g>
        </g>
    </g>
</svg>