<?xml version="1.0" encoding="UTF-8"?><svg version="1.1" width="28px" height="20px" viewBox="0 0 28.0 20.0" xmlns="http://www.w3.org/2000/svg" xmlns:xlink="http://www.w3.org/1999/xlink"><defs><clipPath id="i0"><path d="M24.7016766,0 C25.364331,0 25.9997553,0.259484942 26.4683087,0.720938027 C26.9368566,1.18264386 27.2,1.80869126 27.2,2.46160693 L27.2,17.5386128 C27.2,18.1913087 26.9366443,18.8173946 26.4680909,19.279062 C25.9994984,19.7407239 25.3641131,20 24.7014588,20 L2.49832336,20 C1.83566904,20 1.20024471,19.7407293 0.731691276,19.279062 C0.263143418,18.8173561 0,18.1913087 0,17.5386128 L0,2.46160693 C0,1.80869126 0.263137842,1.1826054 0.731691276,0.720938027 C1.20028374,0.259490437 1.83566904,0 2.49832336,0 Z M8.76284089,9.68922906 L1.58645569,18.3755405 C1.8218951,18.6255859 2.15214043,18.7683157 2.49849066,18.7693888 L24.7018439,18.7693888 C25.0445245,18.765087 25.3732084,18.6281521 25.6104267,18.3845464 L18.2405373,9.89548877 L15.4050036,12.8155598 C14.9338459,13.2997712 14.2825119,13.5736408 13.6015667,13.5736408 C12.9206214,13.5736408 12.2692985,13.2997657 11.7981297,12.8155598 L8.76284089,9.68922906 Z M25.8666612,2.03039577 L19.1057245,8.99362084 L25.9508662,16.8832246 L25.950961,2.46115638 C25.9492211,2.31370502 25.9206834,2.16797345 25.8666612,2.03039577 Z M1.33365666,2.03084632 C1.27963553,2.168424 1.25109951,2.31415557 1.24935686,2.46160693 L1.24945166,16.8276309 L7.8916091,8.78472959 Z M24.7017324,1.23094083 L2.49840143,1.23094083 C2.43240367,1.23201391 2.36661782,1.23802384 2.30148441,1.24939917 L12.7005233,11.9538536 C12.9361858,12.1955253 13.2614624,12.3320315 13.601461,12.3320315 C13.9414596,12.3320315 14.2669203,12.1955253 14.5023988,11.9538536 L24.8986494,1.24939917 C24.8335216,1.23802384 24.7677357,1.23201397 24.7017324,1.23094083 Z"></path></clipPath></defs><g transform=""><g clip-path="url(#i0)"><polygon points="0,0 27.2,0 27.2,20 0,20 0,0" stroke="none" fill="#FFFFFF"></polygon></g></g></svg>