<?xml version="1.0" encoding="UTF-8"?><svg version="1.1" width="71px" height="12px" viewBox="0 0 71.0 12.0" xmlns="http://www.w3.org/2000/svg" xmlns:xlink="http://www.w3.org/1999/xlink"><defs><clipPath id="i0"><path d="M1440,0 L1440,17716 L0,17716 L0,0 L1440,0 Z"></path></clipPath><clipPath id="i1"><path d="M6.15222558,0 L8.06402973,3.88425917 L12.3013782,4.54004318 L9.22682997,7.59829698 L10.0103584,11.9995964 L6.15224965,9.93765007 L2.29101181,11.9995964 L3.07767734,7.59829698 L0,4.54004318 L4.23729231,3.88425917 L6.15222558,0 Z"></path></clipPath><clipPath id="i2"><path d="M6.15066063,0 L8.06197848,3.88425917 L12.2982491,4.54004318 L9.22448294,7.59829698 L10.007812,11.9995964 L6.1506847,9.93765007 L2.29042905,11.9995964 L3.07689447,7.59829698 L0,4.54004318 L4.23621447,3.88425917 L6.15066063,0 Z"></path></clipPath><clipPath id="i3"><path d="M6.15065662,0 L8.06197322,3.88425917 L12.2982411,4.54004318 L9.22447692,7.59829698 L10.0078055,11.9995964 L6.15068068,9.93765007 L2.29042755,11.9995964 L3.07689246,7.59829698 L0,4.54004318 L4.23621171,3.88425917 L6.15065662,0 Z"></path></clipPath><clipPath id="i4"><path d="M6.15066063,0 L8.06197848,3.88425917 L12.2982491,4.54004318 L9.22448294,7.59829698 L10.007812,11.9995964 L6.1506847,9.93765007 L2.29042905,11.9995964 L3.07689447,7.59829698 L0,4.54004318 L4.23621447,3.88425917 L6.15066063,0 Z"></path></clipPath><clipPath id="i5"><path d="M6.15219749,0 L8.06399292,3.88425917 L12.301322,4.54004318 L9.22678785,7.59829698 L10.0103127,11.9995964 L6.15222156,9.93765007 L2.29100135,11.9995964 L3.07766329,7.59829698 L0,4.54004318 L4.23727297,3.88425917 L6.15219749,0 Z"></path></clipPath></defs><g transform="translate(-471.0 -12932.0)"><g clip-path="url(#i0)"><g transform="translate(0.0 12392.0)"><g transform="translate(471.0 540.0)"><g transform="translate(5.053735208093713e-13 0.0004035593935753923)"><g transform=""><g clip-path="url(#i1)"><polygon points="0,0 12.3013782,0 12.3013782,11.9995964 0,11.9995964 0,0" stroke="none" fill="#000000"></polygon></g></g></g><g transform="translate(14.677036377423423 0.0004035593935753923)"><g transform=""><g clip-path="url(#i2)"><polygon points="0,0 12.2982491,0 12.2982491,11.9995964 0,11.9995964 0,0" stroke="none" fill="#000000"></polygon></g></g></g><g transform="translate(29.350943647822813 0.0004035593935753923)"><g transform=""><g clip-path="url(#i3)"><polygon points="0,0 12.2982411,0 12.2982411,11.9995964 0,11.9995964 0,0" stroke="none" fill="#000000"></polygon></g></g></g><g transform="translate(44.024850918222086 0.0004035593935753923)"><g transform=""><g clip-path="url(#i4)"><polygon points="0,0 12.2982491,0 12.2982491,11.9995964 0,11.9995964 0,0" stroke="none" fill="#000000"></polygon></g></g></g><g transform="translate(58.698677955108195 -5.702105454474804e-13)"><g transform=""><g clip-path="url(#i5)"><polygon points="0,0 12.301322,0 12.301322,11.9995964 0,11.9995964 0,0" stroke="none" fill="#000000"></polygon></g></g></g></g></g></g></g></svg>