<?xml version="1.0" encoding="UTF-8"?><svg version="1.1" width="161px" height="35px" viewBox="0 0 161.0 35.0" xmlns="http://www.w3.org/2000/svg" xmlns:xlink="http://www.w3.org/1999/xlink"><defs><clipPath id="i0"><path d="M4.14805796,0 C4.36570296,0 4.52696325,0.111230526 4.60928493,0.278076314 L10.5635109,13.404437 L10.6447049,13.404437 L16.5989308,0.278076314 C16.6812525,0.111230526 16.8165758,0 17.0601578,0 L17.4920647,0 C17.7909037,0 17.9532917,0.19465342 17.9803563,0.417114471 L21.1739866,19.1050014 C21.2551806,19.4943082 21.0386633,19.7457356 20.6868227,19.7457356 L18.2239383,19.7457356 C17.9803563,19.7457356 17.763839,19.5221159 17.7097097,19.3274625 L16.1128946,8.78837017 L16.0317006,8.78837017 L11.2942568,19.7167693 C11.2401275,19.8836151 11.0777395,20.0238119 10.8341575,20.0238119 L10.3469936,20.0238119 C10.1045393,20.0238119 9.96921598,19.8836151 9.88689429,19.7167693 L5.09644887,8.78837017 L5.01525488,8.78837017 L3.44437671,19.3274625 C3.41843974,19.5221159 3.20192244,19.7457356 2.95834047,19.7457356 L0.522520762,19.7457356 C0.169552444,19.7457356 -0.0458371692,19.4943082 0.00829215753,19.1050014 L3.2289871,0.417114471 C3.25492407,0.19465342 3.41843974,0 3.71615104,0 L4.14805796,0 Z"></path></clipPath><clipPath id="i1"><path d="M3.0312423,0 C3.30188893,0 3.5465986,0.250268682 3.5465986,0.528344996 L3.5465986,18.9381556 C3.5465986,19.2162319 3.30188893,19.4676593 3.0312423,19.4676593 L0.514228604,19.4676593 C0.24358197,19.4676593 0,19.2162319 0,18.9381556 L0,0.528344996 C0,0.250268682 0.24358197,0 0.514228604,0 L3.0312423,0 Z"></path></clipPath><clipPath id="i2"><path d="M8.25585003,0 C11.5047373,0 14.1559466,2.66953261 14.1559466,5.97864075 C14.1559466,8.53694283 12.5050022,10.6225152 10.1503765,11.5957823 L13.8582353,18.6589207 C14.047688,19.0215785 13.8582353,19.4676593 13.3981361,19.4676593 L10.5563464,19.4676593 C10.3127644,19.4676593 10.1774411,19.3263038 10.1233118,19.2162319 L6.52371157,11.8472096 L3.51840624,11.8472096 L3.51840624,18.936997 C3.51840624,19.2162319 3.27595196,19.4676593 3.00417764,19.4676593 L0.514228604,19.4676593 C0.217645001,19.4676593 0,19.2162319 0,18.936997 L0,0.528344996 C0,0.250268682 0.217645001,0 0.514228604,0 L8.25585003,0 Z M7.95813873,3.33691577 L3.5465986,3.33691577 L3.5465986,8.87063441 L7.95813873,8.87063441 C9.39256589,8.87063441 10.6375404,7.59148337 10.6375404,6.03425601 C10.6375404,4.56045155 9.39256589,3.33691577 7.95813873,3.33691577 Z"></path></clipPath><clipPath id="i3"><path d="M9.20307769,0 C9.47372432,0 9.58198297,0.139038157 9.66317697,0.305883945 L18.000221,19.0215785 C18.1614813,19.3842364 17.9460917,19.7457356 17.5401217,19.7457356 L15.185496,19.7457356 C14.7783983,19.7457356 14.5900734,19.5788898 14.4006208,19.189583 L13.0744522,16.1863588 L4.9809902,16.1863588 L3.653694,19.189583 C3.54656304,19.4676593 3.30298107,19.7457356 2.86994646,19.7457356 L0.514193048,19.7457356 C0.109350791,19.7457356 -0.10829421,19.3842364 0.0540937702,19.0215785 L8.47233178,0.305883945 C8.55352577,0.139038157 8.68884908,0 8.93243105,0 L9.20307769,0 Z M9.0418174,6.98087413 L8.95949572,6.98087413 L6.30715871,13.0997117 L11.747156,13.0997117 L9.0418174,6.98087413 Z"></path></clipPath><clipPath id="i4"><path d="M9.77147118,0 C12.5061299,0 14.4818503,0.889844204 16.3222474,2.58610972 C16.5647017,2.80857077 16.5647017,3.14226235 16.3493121,3.3647234 L14.6972399,5.11776283 C14.5077873,5.33906523 14.2382683,5.33906523 14.021751,5.11776283 C12.8850352,4.08772181 11.3682863,3.47595392 9.85266517,3.47595392 C6.38838825,3.47595392 3.81724523,6.45137048 3.81724523,9.95629069 C3.81724523,13.4322446 6.41432522,16.3810122 9.87972983,16.3810122 C11.5036096,16.3810122 12.8850352,15.740278 14.021751,14.7948185 C14.2382683,14.6001651 14.5359796,14.6291314 14.6972399,14.7948185 L16.375249,16.5756656 C16.592894,16.770319 16.5387647,17.1318182 16.3493121,17.3264717 C14.5077873,19.1617753 12.1813539,20.0238119 9.77147118,20.0238119 C4.3585385,20.0238119 0,15.6023985 0,10.0397136 C0,4.47702865 4.3585385,0 9.77147118,0 Z"></path></clipPath><clipPath id="i5"><path d="M3.00417764,0 C3.27482427,0 3.51840624,0.250268682 3.51840624,0.528344996 L3.51840624,16.1295849 L10.4210231,16.1295849 C10.7187344,16.1295849 10.9352517,16.3810122 10.9352517,16.6590885 L10.9352517,18.9381556 C10.9352517,19.2162319 10.7187344,19.4676593 10.4210231,19.4676593 L0.514228604,19.4676593 C0.216517307,19.4676593 0,19.2162319 0,18.9381556 L0,0.528344996 C0,0.250268682 0.216517307,0 0.514228604,0 L3.00417764,0 Z"></path></clipPath><clipPath id="i6"><path d="M11.5306743,0 C11.8283856,0 12.0449029,0.250268682 12.0449029,0.528344996 L12.0449029,2.80857077 C12.0449029,3.08664708 11.8283856,3.33691577 11.5306743,3.33691577 L3.51840624,3.33691577 L3.51840624,7.89736731 L10.2045058,7.89736731 C10.4751524,7.89736731 10.7187344,8.14763599 10.7187344,8.42571231 L10.7187344,10.7337457 C10.7187344,11.0407883 10.4751524,11.2620907 10.2045058,11.2620907 L3.51840624,11.2620907 L3.51840624,16.1295849 L11.5306743,16.1295849 C11.8283856,16.1295849 12.0449029,16.3810122 12.0449029,16.6590885 L12.0449029,18.9381556 C12.0449029,19.2162319 11.8283856,19.4676593 11.5306743,19.4676593 L0.514228604,19.4676593 C0.216517307,19.4676593 0,19.2162319 0,18.9381556 L0,0.528344996 C0,0.250268682 0.216517307,0 0.514228604,0 L11.5306743,0 Z"></path></clipPath><clipPath id="i7"><path d="M5.07575208,0 L6.09969851,4.44342776 L10.1492488,3.18744975 L7.12815572,6.37258219 L10.1492488,9.56234924 L6.09969851,8.30637122 L5.07575208,12.746323 L4.04955026,8.30637122 L0,9.56234924 L3.02447613,6.37258219 L0,3.18744975 L4.04955026,4.44342776 L5.07575208,0 Z"></path></clipPath><clipPath id="i8"><path d="M5.07575208,0 L6.1008262,4.44342776 L10.1492488,3.18744975 L7.12702802,6.37258219 L10.1492488,9.56234924 L6.1008262,8.30637122 L5.07575208,12.746323 L4.05067795,8.30637122 L0,9.56234924 L3.02334844,6.37258219 L0,3.18744975 L4.05067795,4.44342776 L5.07575208,0 Z"></path></clipPath><clipPath id="i9"><path d="M1.82686478,0 L4.36304928,4.92195075 L6.89923377,0 L8.71369391,0 L8.71369391,7.75832916 L6.90938302,7.75832916 L6.90938302,3.62426129 L4.79044542,7.75832916 L3.93452544,7.75832916 L1.80431089,3.60108826 L1.80431089,7.75832916 L0,7.75832916 L0,0 L1.82686478,0 Z"></path></clipPath><clipPath id="i10"><path d="M5.05996436,0 L8.21638072,7.75832916 L6.23276644,7.75832916 L5.70275011,6.34477456 L2.52490755,6.34477456 L1.99489123,7.75832916 L0,7.75832916 L3.15528867,0 L5.05996436,0 Z M4.11382883,2.15393278 L3.15528867,4.70064835 L5.08251824,4.70064835 L4.11382883,2.15393278 Z"></path></clipPath><clipPath id="i11"><path d="M2.98726222,0 C5.47833895,0 7.12364494,1.57576578 7.12364494,3.87916458 C7.12364494,6.18372203 5.47833895,7.75948781 2.98726222,7.75948781 L0,7.75948781 L0,0 L2.98726222,0 Z M2.91960056,1.65571272 L1.86069561,1.65571272 L1.86069561,6.10261644 L2.91960056,6.10261644 C4.32809075,6.10261644 5.25280008,5.22320009 5.25280008,3.87916458 C5.25280008,2.53628771 4.32809075,1.65571272 2.91960056,1.65571272 Z"></path></clipPath><clipPath id="i12"><path d="M5.85047807,0 L5.85047807,1.64412621 L1.86069561,1.64412621 L1.86069561,3.1028682 L5.52344672,3.1028682 L5.52344672,4.6543023 L1.86069561,4.6543023 L1.86069561,6.11420295 L5.8843089,6.11420295 L5.8843089,7.75832916 L0,7.75832916 L0,0 L5.85047807,0 Z"></path></clipPath></defs><g transform="translate(17.055188718557474 0.0)"><g transform="translate(0.0 0.0002317302614756045)"><g clip-path="url(#i0)"><polygon points="3.33066907e-16,0 21.1910311,0 21.1910311,20.0238119 3.33066907e-16,20.0238119 3.33066907e-16,0" stroke="none" fill="#FFFFFF"></polygon></g></g><g transform="translate(27.31586089299526 0.278771504589713)"><g clip-path="url(#i1)"><polygon points="0,0 3.5465986,0 3.5465986,19.4676593 0,19.4676593 0,0" stroke="none" fill="#FFFFFF"></polygon></g></g><g transform="translate(38.03301651438234 0.2790032348511886)"><g clip-path="url(#i2)"><polygon points="0,0 14.1559466,0 14.1559466,19.4676593 0,19.4676593 0,0" stroke="none" fill="#FFFFFF"></polygon></g></g><g transform="translate(56.16569991999131 0.0)"><g clip-path="url(#i3)"><polygon points="0,0 18.0539906,0 18.0539906,19.7457356 0,19.7457356 0,0" stroke="none" fill="#FFFFFF"></polygon></g></g><g transform="translate(77.57877495326102 0.0003475953917586594)"><g clip-path="url(#i4)"><polygon points="0,0 16.5164026,0 16.5164026,20.0238119 0,20.0238119 0,0" stroke="none" fill="#FFFFFF"></polygon></g></g><g transform="translate(99.8803958879871 0.278771504589713)"><g clip-path="url(#i5)"><polygon points="0,0 10.9352517,0 10.9352517,19.4676593 0,19.4676593 0,0" stroke="none" fill="#FFFFFF"></polygon></g></g><g transform="translate(116.118517300376 0.278771504589713)"><g clip-path="url(#i6)"><polygon points="0,0 12.0449029,0 12.0449029,19.4676593 0,19.4676593 0,0" stroke="none" fill="#FFFFFF"></polygon></g></g></g><g transform="translate(0.0 3.5235744913043163)"><g clip-path="url(#i7)"><polygon points="0,0 10.1492488,0 10.1492488,12.746323 0,12.746323 0,0" stroke="none" fill="#FFFFFF"></polygon></g><g transform="translate(149.98334290637 0.0)"><g clip-path="url(#i8)"><polygon points="0,0 10.1492488,0 10.1492488,12.746323 0,12.746323 0,0" stroke="none" fill="#FFFFFF"></polygon></g></g></g><g transform="translate(58.953088597001624 27.241323249441393)"><g clip-path="url(#i9)"><polygon points="0,0 8.71369391,0 8.71369391,7.75832916 0,7.75832916 0,0" stroke="none" fill="#FFFFFF"></polygon></g></g><g transform="translate(71.14504283381393 27.241439114572586)"><g clip-path="url(#i10)"><polygon points="0,0 8.21638072,0 8.21638072,7.75832916 0,7.75832916 0,0" stroke="none" fill="#FFFFFF"></polygon></g></g><g transform="translate(82.83765403126017 27.240512193525774)"><g clip-path="url(#i11)"><polygon points="0,0 7.12364494,0 7.12364494,7.75948781 0,7.75948781 0,0" stroke="none" fill="#FFFFFF"></polygon></g></g><g transform="translate(93.83256076059479 27.241323249441386)"><g clip-path="url(#i12)"><polygon points="0,0 5.8843089,0 5.8843089,7.75832916 0,7.75832916 0,0" stroke="none" fill="#FFFFFF"></polygon></g></g></svg>