<?xml version="1.0" encoding="UTF-8"?><svg version="1.1" width="130px" height="30px" viewBox="0 0 130.0 30.0" xmlns="http://www.w3.org/2000/svg" xmlns:xlink="http://www.w3.org/1999/xlink"><defs><clipPath id="i0"><path d="M1440,0 L1440,17716 L0,17716 L0,0 L1440,0 Z"></path></clipPath><clipPath id="i1"><path d="M61.8654986,23.9547251 L64.4277367,30 L62.8175747,30 L62.3867659,28.8985066 L59.8075669,28.8985066 L59.3767581,30 L57.7575502,30 L60.3197883,23.9547251 L61.8654986,23.9547251 Z M69.6750103,23.953825 C71.6978894,23.953825 73.0332835,25.181332 73.0332835,26.9758999 C73.0332835,28.7715929 71.6978894,29.9990999 69.6750103,29.9990999 L67.2495908,29.9990999 L67.2495908,23.953825 Z M80.9255648,23.9545001 L80.9255648,25.2348878 L77.6871491,25.2348878 L77.6871491,26.372385 L80.6598428,26.372385 L80.6598428,27.5807649 L77.6871491,27.5807649 L77.6871491,28.7182622 L80.9538331,28.7182622 L80.9538331,29.999775 L76.1764916,29.999775 L76.1764916,23.9545001 L80.9255648,23.9545001 Z M49.342984,23.9537125 L51.4020465,27.7892498 L53.4611089,23.9537125 L54.9344524,23.9537125 L54.9344524,29.9989874 L53.469024,29.9989874 L53.469024,26.7777661 L51.7491811,29.9989874 L51.0537811,29.9989874 L49.3248923,26.7597642 L49.3248923,29.9989874 L47.859464,29.9989874 L47.859464,23.9537125 L49.342984,23.9537125 Z M69.6207352,25.2432136 L68.7602483,25.2432136 L68.7602483,28.7085862 L69.6207352,28.7085862 C70.763905,28.7085862 71.5147108,28.0233875 71.5147108,26.9758999 C71.5147108,25.9295374 70.763905,25.2432136 69.6207352,25.2432136 Z M61.096601,25.6322805 L60.3197883,27.6169938 L61.8835903,27.6169938 L61.096601,25.6322805 Z M17.2135813,2.72774323 C17.3911062,2.72774323 17.5211403,2.81437755 17.5878535,2.94489158 L22.4217316,13.172241 L22.4873141,13.172241 L27.3223229,2.94489158 C27.3879053,2.81437755 27.4987171,2.72774323 27.6965951,2.72774323 L28.0459912,2.72774323 C28.2890985,2.72774323 28.4202634,2.87963456 28.442878,3.05290319 L31.0356459,17.6142185 C31.1023591,17.9180012 30.9259649,18.1137722 30.6398898,18.1137722 L28.6407561,18.1137722 C28.442878,18.1137722 28.2676146,17.9393785 28.2235161,17.7874872 L26.9265668,9.57522934 L26.8621151,9.57522934 L23.0153658,18.0912698 C22.9712672,18.2206587 22.8389716,18.3309206 22.6410936,18.3309206 L22.2464682,18.3309206 C22.0497209,18.3309206 21.9389092,18.2206587 21.872196,18.0912698 L17.9836096,9.57522934 L17.9168964,9.57522934 L16.6414311,17.7874872 C16.6210779,17.9393785 16.4458145,18.1137722 16.2479364,18.1137722 L14.2702866,18.1137722 C13.9842115,18.1137722 13.8089481,17.9180012 13.8530466,17.6142185 L16.4672984,3.05290319 C16.4887823,2.87963456 16.6210779,2.72774323 16.8630545,2.72774323 Z M84.7598761,2.72808077 C86.9795024,2.72808077 88.5840108,3.42115527 90.0777074,4.74317239 C90.2744547,4.91644102 90.2744547,5.17634396 90.100322,5.34961258 L88.7581434,6.71550942 C88.6043639,6.88765292 88.3861327,6.88765292 88.2097386,6.71550942 C87.2870615,5.91329818 86.0556946,5.4362469 84.8243278,5.4362469 C82.012198,5.4362469 79.9248672,7.75512118 79.9248672,10.4857897 C79.9248672,13.1939559 82.0348126,15.492578 84.8469424,15.492578 C86.1653756,15.492578 87.2870615,14.9930243 88.2097386,14.25607 C88.3861327,14.1041787 88.6281093,14.1266811 88.7581434,14.25607 L90.1206752,15.6433442 C90.2970693,15.7952355 90.2529708,16.0776408 90.100322,16.2284071 C88.6043639,17.6584358 86.7149112,18.330133 84.7598761,18.330133 C80.3647219,18.330133 76.8266623,14.8850126 76.8266623,10.5510467 C76.8266623,6.21595572 80.3647219,2.72808077 84.7598761,2.72808077 Z M51.4253395,2.94545414 C54.0622059,2.94545414 56.2139884,5.02467765 56.2139884,7.60345487 C56.2139884,9.5971692 54.8740713,11.2218438 52.9620039,11.9801754 L55.9720118,17.4842671 C56.126922,17.7666724 55.9720118,18.1143348 55.5988703,18.1143348 L53.2921776,18.1143348 C53.0942995,18.1143348 52.9846186,18.0040729 52.94052,17.9185637 L50.0187093,12.1759464 L47.5785902,12.1759464 L47.5785902,17.7002903 C47.5785902,17.9185637 47.3818429,18.1143348 47.1613502,18.1143348 L45.1396019,18.1143348 C44.898756,18.1143348 44.7223619,17.9185637 44.7223619,17.7002903 L44.7223619,3.3572484 C44.7223619,3.14010006 44.898756,2.94545414 45.1396019,2.94545414 Z M97.3702485,2.94534162 C97.5896105,2.94534162 97.7886193,3.13998755 97.7886193,3.35601077 L97.7886193,15.5129426 L103.391395,15.5129426 C103.633372,15.5129426 103.808635,15.7087137 103.808635,15.925862 L103.808635,17.7013029 C103.808635,17.9184512 103.633372,18.1142223 103.391395,18.1142223 L95.3496309,18.1142223 C95.1076544,18.1142223 94.9323909,17.9184512 94.9323909,17.7013029 L94.9323909,3.35601077 C94.9323909,3.13998755 95.1076544,2.94534162 95.3496309,2.94534162 Z M117.474772,2.94489158 C117.716748,2.94489158 117.892012,3.1395375 117.892012,3.35668584 L117.892012,5.13325182 C117.892012,5.35040017 117.716748,5.54504609 117.474772,5.54504609 L110.970803,5.54504609 L110.970803,9.09817805 L116.398315,9.09817805 C116.617677,9.09817805 116.815555,9.2939491 116.815555,9.50997232 L116.815555,11.3090407 C116.815555,11.5475664 116.617677,11.7197099 116.398315,11.7197099 L110.970803,11.7197099 L110.970803,15.5124926 L117.474772,15.5124926 C117.716748,15.5124926 117.892012,15.7093888 117.892012,15.925412 L117.892012,17.7008528 C117.892012,17.9180012 117.716748,18.1137722 117.474772,18.1137722 L108.531814,18.1137722 C108.289838,18.1137722 108.114574,17.9180012 108.114574,17.7008528 L108.114574,3.35668584 C108.114574,3.1395375 108.289838,2.94489158 108.531814,2.94489158 Z M66.9141027,2.72785574 C67.1334646,2.72785574 67.2227924,2.83586736 67.2872441,2.96638139 L74.056935,17.549074 C74.1869691,17.8314794 74.0117057,18.1138847 73.681532,18.1138847 L71.7705954,18.1138847 C71.4404217,18.1138847 71.287773,17.9833707 71.1339934,17.6807132 L70.0564061,15.3404616 L63.4868548,15.3404616 L62.4092675,17.6807132 C62.3222011,17.8967364 62.1243231,18.1138847 61.7726655,18.1138847 L59.8605982,18.1138847 C59.5315552,18.1138847 59.3551611,17.8314794 59.4874567,17.549074 L66.3215992,2.96638139 C66.3860509,2.83586736 66.4968627,2.72785574 66.6947407,2.72785574 Z M38.4825319,2.94489158 C38.7018939,2.94489158 38.9009027,3.1395375 38.9009027,3.35668584 L38.9009027,17.7008528 C38.9009027,17.9180012 38.7018939,18.1137722 38.4825319,18.1137722 L36.4392997,18.1137722 C36.2199378,18.1137722 36.0220597,17.9180012 36.0220597,17.7008528 L36.0220597,3.35668584 C36.0220597,3.1395375 36.2199378,2.94489158 36.4392997,2.94489158 Z M4.12151713,5.47360091 L4.95260494,8.93559808 L8.23964206,7.95674285 L5.78708496,10.4387597 L8.23964206,12.9241518 L4.95260494,11.9452966 L4.12151713,15.4050435 L3.28703712,11.9452966 L0,12.9241518 L2.4559493,10.4387597 L0,7.95674285 L3.28703712,8.93559808 L4.12151713,5.47360091 Z M125.880744,5.47371342 L126.714094,8.93571059 L130,7.95685536 L127.546312,10.4388722 L130,12.9242644 L126.714094,11.9454091 L125.880744,15.4051561 L125.048526,11.9454091 L121.760358,12.9242644 L124.215177,10.4388722 L121.760358,7.95685536 L125.048526,8.93571059 L125.880744,5.47371342 Z M66.7829378,8.16669042 L66.7162246,8.16669042 L64.5633114,12.934953 L68.9788188,12.934953 L66.7829378,8.16669042 Z M51.1833629,5.54560865 L47.6012048,5.54560865 L47.6012048,9.85707214 L51.1833629,9.85707214 C52.3468859,9.85707214 53.3588908,8.86021497 53.3588908,7.64733459 C53.3588908,6.4985861 52.3468859,5.54560865 51.1833629,5.54560865 Z M120.470758,0 C121.223826,0 121.80276,0.576061927 121.80276,1.29388909 C121.80276,2.02746795 121.223826,2.60352988 120.470758,2.60352988 C119.725606,2.60352988 119.130841,2.02746795 119.130841,1.29388909 C119.130841,0.576061927 119.725606,0 120.470758,0 Z M120.470758,0.261028061 C119.891824,0.261028061 119.463276,0.725703013 119.463276,1.29388909 C119.463276,1.86995102 119.891824,2.32675013 120.478674,2.32675013 C121.049693,2.32675013 121.470325,1.86995102 121.470325,1.30176494 C121.470325,0.725703013 121.049693,0.261028061 120.470758,0.261028061 Z M120.462843,0.6390687 C120.708212,0.6390687 120.819024,0.678447933 120.914005,0.73357886 C120.986372,0.788709786 121.041778,0.892220914 121.041778,1.01823446 C121.041778,1.1599997 120.929835,1.27026155 120.771533,1.31751663 L120.771533,1.33326833 C120.899306,1.38052341 120.969411,1.47503357 121.008987,1.64942731 C121.049693,1.84632348 121.073438,1.92508195 121.103968,1.97233703 L120.779448,1.97233703 C120.739873,1.92508195 120.717258,1.80694425 120.676552,1.65730316 C120.652806,1.5144128 120.573655,1.45140603 120.407437,1.45140603 L120.263835,1.45140603 L120.263835,1.97233703 L119.964191,1.97233703 L119.964191,0.678447933 C120.081787,0.654820393 120.249135,0.6390687 120.462843,0.6390687 Z M120.437967,0.85171656 C120.359947,0.85171656 120.30341,0.859592406 120.27288,0.868593374 L120.27288,1.23875817 L120.415353,1.23875817 C120.58157,1.23875817 120.717258,1.18362724 120.717258,1.04973785 C120.717258,0.931600147 120.629061,0.85171656 120.437967,0.85171656 Z"></path></clipPath></defs><g transform="translate(-652.0 -64.0)"><g clip-path="url(#i0)"><g transform="translate(-35.0 39.0)"><g transform="translate(687.0 25.0)"><g clip-path="url(#i1)"><polygon points="0,0 130,0 130,30 0,30 0,0" stroke="none" fill="#000000"></polygon></g></g></g></g></g></svg>