<?xml version="1.0" encoding="UTF-8"?><svg version="1.1" width="20px" height="18px" viewBox="0 0 20.0 18.0" xmlns="http://www.w3.org/2000/svg" xmlns:xlink="http://www.w3.org/1999/xlink"><defs><clipPath id="i0"><path d="M9.00006846,0 C9.64205128,0 10.2352997,0.341042468 10.5563674,0.894562501 L17.7590622,13.3161128 C18.0802865,13.8696728 18.0802865,14.551598 17.7592189,15.1054375 C17.4381472,15.6591093 16.8447423,16 16.20292,16 L1.79721695,16 C1.15523413,16 0.561985681,15.659277 0.240918054,15.1054375 C-0.0803060179,14.551598 -0.0803060179,13.8699523 0.240918054,13.3161128 L7.44376956,0.894562501 C7.76500166,0.341046462 8.35808564,0 9.00006846,0 Z M9.00034925,1.78888537 L1.79749775,14.2104357 L16.2032008,14.2104357 L9.00034925,1.78888537 Z"></path></clipPath><clipPath id="i1"><path d="M0.9,0 C1.39693276,0 1.8,0.386743421 1.8,0.863895398 L1.8,4.46943794 C1.8,4.94643563 1.39709349,5.33333333 0.9,5.33333333 C0.403067238,5.33333333 0,4.94658991 0,4.46943794 L0,0.863895398 C0,0.386743421 0.40290651,0 0.9,0 Z"></path></clipPath><clipPath id="i2"><path d="M0.9,0 C1.39709349,0 1.8,0.397932355 1.8,0.888888889 C1.8,1.37984542 1.39709349,1.77777778 0.9,1.77777778 C0.40290651,1.77777778 0,1.37984542 0,0.888888889 C0,0.397932355 0.40290651,0 0.9,0 Z"></path></clipPath></defs><g transform="translate(1.0 1.0)"><g clip-path="url(#i0)"><polygon points="0,0 18,0 18,16 0,16 0,0" stroke="none" fill="#000000"></polygon></g><path d="M17.7592189,13.3161128 L10.5563674,0.894562501 C10.2352997,0.341042468 9.64205128,0 9.00006846,0 C8.35808564,0 7.76500166,0.341046462 7.44376956,0.894562501 L0.240918054,13.3161128 C-0.0803060179,13.8699523 -0.0803060179,14.551598 0.240918054,15.1054375 C0.561985681,15.659277 1.15523413,16 1.79721695,16 L16.20292,16 C16.8447423,16 17.4381472,15.6591093 17.7592189,15.1054375 C18.0802865,14.551598 18.0802865,13.8696728 17.7590622,13.3161128 L17.7592189,13.3161128 Z M1.79749775,14.2108351 L9.00034925,1.78888537 L16.2032008,14.2104357 L1.79749775,14.2104357 L1.79749775,14.2108351 Z" stroke="#FFF69A" stroke-width="0.5" fill="none" stroke-miterlimit="10"></path><g transform="translate(8.063864999999353 5.200000000000323)"><g clip-path="url(#i1)"><polygon points="0,0 1.8,0 1.8,5.33333333 0,5.33333333 0,0" stroke="none" fill="#000000"></polygon></g><path d="M0,0.863895398 L0,4.46943794 C0,4.94658991 0.403067238,5.33333333 0.9,5.33333333 C1.39709349,5.33333333 1.8,4.94643563 1.8,4.46943794 L1.8,0.863895398 C1.8,0.386743421 1.39693276,0 0.9,0 C0.40290651,0 0,0.386743421 0,0.863895398 Z" stroke="#FFF69A" stroke-width="0.5" fill="none" stroke-miterlimit="10"></path></g><g transform="translate(8.067465000000087 11.55555555555556)"><g clip-path="url(#i2)"><polygon points="0,0 1.8,0 1.8,1.77777778 0,1.77777778 0,0" stroke="none" fill="#000000"></polygon></g><path d="M1.8,0.888888889 C1.8,1.37984542 1.39709349,1.77777778 0.9,1.77777778 C0.40290651,1.77777778 0,1.37984542 0,0.888888889 C0,0.397932355 0.40290651,0 0.9,0 C1.39709349,0 1.8,0.397932355 1.8,0.888888889" stroke="#FFF69A" stroke-width="0.5" fill="none" stroke-miterlimit="10"></path></g></g></svg>