<?xml version="1.0" encoding="UTF-8"?>
<svg width="21px" height="18px" viewBox="0 0 21 18" version="1.1" xmlns="http://www.w3.org/2000/svg" xmlns:xlink="http://www.w3.org/1999/xlink">
    <title>truck</title>
    <g id="landing-page-update" stroke="none" stroke-width="1" fill="none" fill-rule="evenodd">
        <g id="01_desktop" transform="translate(-986.000000, -4821.000000)" fill="#000000">
            <g id="truck" transform="translate(986.000000, 4822.000000)">
                <path d="M15.2276792,3.51724138 L15.2276792,5.56115948 L17.7009749,5.56115948 C19.6699023,5.5613665 20.9525927,7.21709439 21,9.75431759 L21,9.75431759 L21,15.3695028 L19.2369783,15.3695028 C19.1224844,16.3015112 18.4122563,17 17.5651852,17 C16.7181141,17 16.007886,16.3015112 15.8933921,15.3695028 L15.8933921,15.3695028 L9.00040577,15.3695028 C8.88591194,16.3015112 8.17568383,17 7.3286127,17 C6.48154157,17 5.77131346,16.3015112 5.65681964,15.3695028 L5.65681964,15.3695028 L3.45817178,15.3695028 L3.45817178,12.1084049 L1.16829501,12.1084049 L1.16829501,11.2542363 L3.45817178,11.2542363 L3.45817178,9.52064267 L0.619182616,9.52064267 L0.619182616,8.66647412 L3.45817178,8.66647412 L3.45817178,6.93288046 L0,6.93288046 L0,6.07871192 L3.45817178,6.07871192 L3.45817178,3.51724138 L5.81167605,3.51675452 C5.78750545,3.70631952 5.775,3.9000219 5.775,4.09692342 C5.775,4.19786924 5.77828683,4.29797422 5.78474728,4.39711195 L4.18987893,4.39671824 L4.18987893,14.5404873 L5.70156383,14.5404873 C5.93055148,13.7641586 6.5719001,13.2203145 7.3044774,13.2203145 C8.06031985,13.2203145 8.67840333,13.7904503 8.90739098,14.5404873 L8.90739098,14.5404873 L14.4487548,14.5404873 L14.4487548,4.39671824 L13.1035656,4.39711195 C13.110026,4.29797422 13.1133128,4.19786924 13.1133128,4.09692342 C13.1133128,3.9000219 13.1008074,3.70631952 13.0766368,3.51675452 L15.2276792,3.51724138 Z M7.3044774,14.1007747 C6.80088775,14.1007747 6.38852679,14.566779 6.38852679,15.1358796 C6.38852679,15.7049803 6.80088775,16.1709845 7.3044774,16.1709845 C7.80806705,16.1709845 8.22042802,15.7049803 8.22042802,15.1358796 C8.22042802,14.566779 7.80806705,14.1007747 7.3044774,14.1007747 Z M17.5175558,14.1007747 C17.0139661,14.1007747 16.6016051,14.566779 16.6016051,15.1358796 C16.6016051,15.7049803 17.0139661,16.1709845 17.5175558,16.1709845 C18.0211454,16.1709845 18.4335064,15.7049803 18.4335064,15.1358796 C18.4335064,14.566779 18.0211454,14.1007747 17.5175558,14.1007747 Z M17.6768854,6.41543153 L15.2035897,6.41543153 L15.2035897,14.5404873 L15.9138178,14.5404873 C16.1428055,13.7641586 16.760889,13.2203145 17.5167314,13.2203145 C18.2725739,13.2203145 18.8906573,13.7904503 19.119645,14.5404873 L19.119645,14.5404873 L20.1510741,14.5404873 L20.150181,9.7795224 C20.150181,7.70931263 19.2109195,6.41543153 17.6768854,6.41543153 L17.6768854,6.41543153 Z" id="Combined-Shape"></path>
                <g id="clock" transform="translate(5.775000, 0.000000)" fill-rule="nonzero" stroke="#000000" stroke-width="0.5">
                    <path d="M3.66915642,0 C1.64601926,0 0,1.8379197 0,4.09692342 C0,6.35592715 1.64601926,8.19384685 3.66915642,8.19384685 C5.69229358,8.19384685 7.33831284,6.35592715 7.33831284,4.09692342 C7.33831284,1.8379197 5.69229358,0 3.66915642,0 Z M3.66915642,7.68172911 C1.89884932,7.68172911 0.458646622,6.073621 0.458646622,4.09692342 C0.458646622,2.12022585 1.89884932,0.512117738 3.66915642,0.512117738 C5.43946351,0.512117738 6.87966622,2.12022585 6.87966622,4.09692342 C6.87966622,6.073621 5.43946351,7.68172911 3.66915642,7.68172911 Z" id="Shape"></path>
                    <polygon id="Path" points="3.89847973 1.53635322 3.43983311 1.53635322 3.43983311 4.20294765 4.88294932 5.81430895 5.20722669 5.45222585 3.89847973 3.99089919"></polygon>
                </g>
            </g>
        </g>
    </g>
</svg>