<svg xmlns="http://www.w3.org/2000/svg" xmlns:xlink="http://www.w3.org/1999/xlink" version="1.1" id="Layer_1" x="0px" y="0px" viewBox="0 0 51.6 51.6" style="enable-background:new 0 0 51.6 51.6;" xml:space="preserve">
<style type="text/css">
	.st0{fill:#1BAE4B;}
</style>
<g>
	<g>
		<path class="st0" d="M0,25.8C0,11.4,11.7,0,25.8,0C40,0,52,11.7,51.5,26.6c-0.4,13.8-12.1,25.5-26.8,24.9C11.1,51,0,39.8,0,25.8z     M43.1,20.5c0-0.7-0.2-1.2-0.6-1.6c-1-1-2.1-2.1-3.1-3.1c-0.3-0.3-0.5-0.5-0.9-0.5c-0.9-0.2-1.7,0-2.4,0.6    c-4.9,4.9-9.8,9.8-14.7,14.7c-0.2,0.2-0.3,0.2-0.5,0c-2.1-2.2-4.3-4.3-6.4-6.5c-0.9-0.9-2.3-0.9-3.2,0c-1,1-2.1,2-3.1,3.1    c-0.9,0.9-0.9,2.3,0,3.2c3.8,3.8,7.6,7.6,11.4,11.4c0.2,0.2,0.4,0.4,0.7,0.5c0.9,0.4,1.8,0.2,2.6-0.6c3.8-3.8,7.6-7.6,11.5-11.5    c2.7-2.7,5.4-5.4,8-8C42.8,21.6,43.1,21.1,43.1,20.5z"/>
	</g>
</g>
</svg>