<?xml version="1.0" encoding="UTF-8"?>
<svg width="17px" height="15px" viewBox="0 0 17 15" version="1.1" xmlns="http://www.w3.org/2000/svg" xmlns:xlink="http://www.w3.org/1999/xlink">
    <title>rtc-logo</title>
    <g id="Page-1" stroke="none" stroke-width="1" fill="none" fill-rule="evenodd">
        <g id="8" transform="translate(-167.000000, -2238.000000)" fill="#575757" fill-rule="nonzero">
            <g id="rtc-logo" transform="translate(167.000000, 2238.000368)">
                <g id="Group_276" transform="translate(11.988401, 0.000000)">
                    <path d="M2.4953514,0 L3.8883514,0 C3.98655976,0 4.07952934,0.0442975059 4.14142229,0.120548058 C4.20331523,0.196798611 4.22753533,0.296888128 4.2073514,0.393 C4.0423514,1.206 3.5073514,3 2.0513514,3 L1.6383514,3 C1.49253121,2.99959813 1.3647135,2.90240767 1.3253514,2.762 C1.08593104,1.93915152 0.662211652,1.18165479 0.0863513978,0.547 C-0.00132891756,0.451918561 -0.0245074011,0.313994468 0.0272768669,0.195475662 C0.0790611349,0.0769568561 0.196013661,0.000260023311 0.325351398,0 L2.4953514,0 Z" id="Path_438"></path>
                </g>
                <g id="Group_274" transform="translate(0.000000, 0.032000)">
                    <path d="M13.9917527,14.151 C13.4123365,14.1564161 12.8338194,14.1041586 12.2647527,13.995 C10.2534297,13.6259833 8.40655355,12.6408662 6.97975272,11.176 C5.78908606,9.976 4.59375272,8.78066667 3.39375272,7.59 C3.33533197,7.53808106 3.27389134,7.48966317 3.20975272,7.445 C3.27825922,7.39415353 3.36517406,7.37487953 3.44875272,7.392 C4.71775272,7.392 5.98775272,7.392 7.25675272,7.392 C8.26474025,7.40080128 9.16100064,6.75221845 9.46775272,5.792 C9.67517532,5.10489166 9.54234196,4.36005212 9.11018551,3.78700517 C8.67802907,3.21395821 7.99840942,2.88147095 7.28075272,2.892 C5.84475272,2.886 4.40775272,2.892 2.97175272,2.892 C1.49428487,2.93982089 0.222002224,1.85794789 0.031752722,0.392 C-0.032247278,0.001 -0.032247278,0 0.350752722,0 C2.70275272,0 5.05441939,0 7.40575272,0 C9.73256125,0.0334366884 11.7450367,1.62973847 12.3072194,3.8878586 C12.8694021,6.14597874 11.8402811,8.49951791 9.80075272,9.62 C9.62575272,9.72 9.66475272,9.765 9.77775272,9.877 C11.1364194,11.2296667 12.4934194,12.5843333 13.8487527,13.941 C13.9094355,13.993406 13.9739484,14.0412056 14.0417527,14.084 L13.9917527,14.151 Z" id="Path_437"></path>
                </g>
            </g>
        </g>
    </g>
</svg>