<?xml version="1.0" encoding="utf-8"?>
<!-- Generator: Adobe Illustrator 25.0.0, SVG Export Plug-In . SVG Version: 6.00 Build 0)  -->
<svg version="1.1" id="Layer_1" xmlns="http://www.w3.org/2000/svg" xmlns:xlink="http://www.w3.org/1999/xlink" x="0px" y="0px"
	 viewBox="0 0 225 146" style="enable-background:new 0 0 225 146;" xml:space="preserve">
<style type="text/css">
	.st0{fill:#FFFFFF;}
</style>
<g>
	<path class="st0" d="M0,23.5c1.8-4.2,2.9-8.7,5.9-12.4c6.2-7.7,14.2-11,24-10.9c25.8,0.1,51.6,0,77.4,0c27.6,0,55.3,0.5,82.9-0.2
		c16.8-0.4,29.6,4.4,34.9,24.5c0,32.3,0,64.7,0,97c-1.5,3.5-1.9,7.3-4,10.6c-6,9.3-14.4,13.8-25.4,13.7c-30.1-0.1-60.2,0-90.4,0
		c-23.5,0-46.9-0.4-70.4,0.1c-16.1,0.4-28.6-3.6-34.8-23.5C0,89.5,0,56.5,0,23.5z M112,135.2c27.3,0,54.6,0,81.9,0
		c13.2,0,20.1-6.9,20.1-19.9c0-28.3,0-56.6,0-84.9c0-12.2-6.8-19.4-19-19.4c-55-0.1-109.9-0.1-164.9,0c-12.2,0-19,7.2-19,19.4
		c0,28,0,56,0,83.9c0,14.5,6.4,20.9,21,21C58.7,135.2,85.3,135.2,112,135.2z"/>
	<path class="st0" d="M149.9,28.4c4.8-0.7,9,4.8,13.4,4.6c4.2-0.2,8.3-4.7,13.7-4.6c8.7,0.1,15.9,5,18.7,13
		c2.7,7.9,0.1,16.6-6.6,21.8c-6.6,5.1-15.7,5.5-22.7,0.6c-2.3-1.6-3.7-2.1-6.2-0.1c-6.7,5.1-16.1,4.7-22.7-0.3
		c-6.6-5-9.4-14.1-6.8-21.9C133.4,33.3,140.4,28.3,149.9,28.4z M185.9,47.7c-0.1-4.6-4-8.4-8.7-8.4c-4.9,0-8.5,3.7-8.5,8.5
		c0.1,4.7,3.9,8.6,8.5,8.6C181.7,56.3,185.9,52.1,185.9,47.7z M148.9,39.3c-4.7,0.1-8.6,4.1-8.5,8.6c0.2,4.6,4.4,8.6,8.8,8.5
		c4.5-0.1,8.7-4.5,8.5-8.8C157.6,42.9,153.6,39.2,148.9,39.3z"/>
	<path class="st0" d="M51,28.4c2.7,0,5.3,0,8,0c8.6,0.2,13.8,5.4,14,14.1C73,46,73,49.5,73,53c-0.1,8.2-5.3,13.9-13.5,14.3
		c-5.8,0.3-11.7,0.3-17.5,0c-8.2-0.4-13.5-5.8-13.8-14.1c-0.2-3.7-0.1-7.3,0-11c0.3-8.5,5.7-13.7,14.3-13.9
		C45.3,28.3,48.1,28.4,51,28.4z M50.6,56.4c13.1,0,11.3,1.2,11.4-11.4c0-0.7,0-1.3,0-2c0.2-2.8-1.3-3.9-3.9-3.9
		c-4.6,0-9.3,0.1-13.9-0.1C40.2,39,39,40.7,39,44.5C39.2,57.6,37.8,56.5,50.6,56.4z"/>
	<path class="st0" d="M44.5,117.7c-3.6,0-7.3,0-10.9,0c-3.3,0-5-2-5.3-4.9c-0.3-3,1.4-5.5,4.5-5.6c8.1-0.3,16.2-0.3,24.3,0
		c3.1,0.1,4.8,2.6,4.6,5.5c-0.2,2.8-2,4.9-5.2,4.9C52.5,117.7,48.5,117.6,44.5,117.7z"/>
	<path class="st0" d="M89.7,117.7c-3.6,0-7.3,0-10.9,0c-3.5,0-5.3-2.1-5.5-5.2c-0.2-3,1.8-5.3,4.8-5.3c7.9-0.2,15.9-0.2,23.8,0
		c3,0.1,4.9,2.5,4.7,5.4c-0.1,3.1-2.1,5.1-5.5,5.1C97.3,117.7,93.5,117.7,89.7,117.7z"/>
	<path class="st0" d="M135,117.7c-3.6,0-7.3,0-10.9,0c-3.7,0-5.7-2-5.8-5.4c-0.1-3.2,2.2-5.2,5.4-5.3c7.5-0.2,14.9-0.2,22.4,0
		c3.5,0.1,5.8,2.3,5.6,5.7c-0.2,3.4-2.6,5.1-6.2,5C142,117.6,138.5,117.7,135,117.7z"/>
	<path class="st0" d="M180,117.7c-3.6,0-7.3,0-10.9,0c-3.7,0-5.7-2-5.8-5.4c-0.1-3.2,2.2-5.2,5.4-5.3c7.5-0.2,14.9-0.2,22.4,0
		c3.5,0.1,5.8,2.3,5.5,5.7c-0.2,3.4-2.6,5.1-6.2,5C187,117.6,183.5,117.7,180,117.7z"/>
</g>
</svg>
