<?xml version="1.0" encoding="utf-8"?>
<!-- Generator: Adobe Illustrator 16.0.0, SVG Export Plug-In . SVG Version: 6.00 Build 0)  -->
<!DOCTYPE svg PUBLIC "-//W3C//DTD SVG 1.1//EN" "http://www.w3.org/Graphics/SVG/1.1/DTD/svg11.dtd">
<svg version="1.1" id="Layer_1" xmlns="http://www.w3.org/2000/svg" xmlns:xlink="http://www.w3.org/1999/xlink" x="0px" y="0px"
	 width="237.884px" height="50.153px" viewBox="-56.191 -11.846 237.884 50.153"
	 enable-background="new -56.191 -11.846 237.884 50.153" xml:space="preserve">
<g id="footer_logo" transform="translate(0 -0.215)">
	<g id="Group_4">
		<g id="Group_15" transform="translate(19.193)">
			<path id="Fill_1" fill="#FFFFFF" d="M-41.916-9.523c0.038-0.35,0.348-0.608,0.701-0.58h0.623c0.276-0.013,0.535,0.135,0.663,0.38
				l8.576,18.236h0.118l8.576-18.236c0.122-0.251,0.385-0.403,0.663-0.38h0.622c0.351-0.027,0.663,0.229,0.702,0.58l4.602,25.962
				c0.122,0.351-0.069,0.734-0.42,0.855c-0.089,0.03-0.186,0.042-0.282,0.031h-3.547c-0.342-0.024-0.634-0.254-0.74-0.582
				l-2.301-14.637h-0.116l-6.823,15.183c-0.104,0.271-0.372,0.445-0.662,0.427h-0.703c-0.287,0.005-0.548-0.164-0.662-0.427
				l-6.899-15.183h-0.117l-2.264,14.64c-0.075,0.332-0.36,0.568-0.699,0.582h-3.507c-0.391,0.029-0.732-0.265-0.762-0.656
				c-0.006-0.078,0.002-0.156,0.021-0.232L-41.916-9.523z"/>
			<path id="Fill_3" fill="#FFFFFF" d="M-7.226-8.982c0.015-0.401,0.339-0.722,0.74-0.733h3.625c0.402,0.01,0.728,0.331,0.742,0.733
				v25.577c-0.013,0.402-0.339,0.724-0.742,0.734h-3.625c-0.403-0.012-0.726-0.334-0.74-0.734V-8.982z"/>
			<path id="Fill_5" fill="#FFFFFF" d="M27.503,17.329h-4.09c-0.257,0.017-0.501-0.122-0.623-0.346l-5.189-10.24h-4.324v9.853
				c-0.018,0.399-0.34,0.72-0.742,0.733H8.949c-0.407,0-0.738-0.328-0.74-0.733V-8.981c0.002-0.406,0.334-0.735,0.74-0.735h11.15
				c4.64-0.051,8.445,3.666,8.505,8.307c-0.11,3.549-2.41,6.658-5.77,7.803l5.34,9.812c0.135,0.242,0.135,0.535,0,0.777
				C28.03,17.212,27.774,17.345,27.503,17.329z M13.318-5.08v7.687h6.355c2.14-0.051,3.849-1.795,3.859-3.935
				c-0.056-2.091-1.769-3.756-3.859-3.752H13.318z"/>
			<path id="Fill_7" fill="#FFFFFF" d="M59.586,17.329h-3.388c-0.509,0.032-0.978-0.288-1.131-0.774l-1.904-4.172H41.5l-1.913,4.172
				c-0.175,0.471-0.626,0.781-1.129,0.77h-3.393c-0.253,0.012-0.492-0.109-0.635-0.317c-0.126-0.209-0.134-0.47-0.023-0.688
				L46.527-9.677c0.113-0.266,0.375-0.434,0.662-0.425h0.39c0.29-0.021,0.559,0.152,0.663,0.425L60.25,16.322
				c0.111,0.221,0.103,0.48-0.024,0.689C60.081,17.224,59.839,17.342,59.586,17.329z M47.229-0.405L43.409,8.1h7.835l-3.897-8.504
				H47.229L47.229-0.405z"/>
			<path id="Fill_9" fill="#FFFFFF" d="M79.238-10.102c3.495-0.094,6.888,1.196,9.436,3.592c0.308,0.247,0.354,0.698,0.108,1.007
				c-0.021,0.026-0.045,0.051-0.07,0.074l-2.38,2.435c-0.226,0.269-0.625,0.304-0.893,0.08c-0.028-0.025-0.055-0.049-0.079-0.08
				c-1.666-1.453-3.794-2.263-6.004-2.285c-4.856,0.055-8.751,4.037-8.697,8.895c0,0.04,0.002,0.079,0.003,0.117
				c-0.078,4.852,3.792,8.85,8.644,8.926c0.029,0.001,0.06,0.001,0.089,0.001c2.185-0.02,4.292-0.798,5.966-2.204
				c0.274-0.249,0.696-0.249,0.972,0l2.412,2.475c0.278,0.292,0.267,0.753-0.024,1.032c-0.004,0.004-0.01,0.008-0.014,0.011
				c-2.545,2.443-5.948,3.79-9.475,3.748c-7.684-0.001-13.911-6.232-13.91-13.915C65.323-3.878,71.555-10.104,79.238-10.102"/>
			<path id="Fill_11" fill="#FFFFFF" d="M97.285-8.982c0.001-0.406,0.331-0.735,0.738-0.733h0.001h3.587
				c0.401,0.011,0.725,0.332,0.74,0.733v21.674h9.94c0.407-0.001,0.739,0.328,0.74,0.735c0,0,0,0,0,0.001v3.166
				c-0.001,0.406-0.332,0.735-0.738,0.734h-0.002H98.025c-0.408,0.002-0.738-0.328-0.739-0.733c0-0.001,0-0.001,0-0.001V-8.982z"/>
			<path id="Fill_13" fill="#FFFFFF" d="M120.673-8.982c0-0.406,0.332-0.735,0.738-0.733c0.002,0,0.002,0,0.002,0h15.866
				c0.405-0.003,0.738,0.326,0.739,0.732v0.001v3.174c-0.001,0.406-0.333,0.735-0.738,0.733c0,0,0,0-0.001,0H125.74v6.331h9.629
				c0.4,0.01,0.724,0.332,0.74,0.731v3.207c-0.002,0.407-0.333,0.735-0.739,0.733c0,0,0,0-0.001,0h-9.629v6.762h11.539
				c0.406-0.001,0.738,0.327,0.739,0.735c0,0,0,0,0,0.001v3.164c0,0.407-0.331,0.737-0.738,0.735c0,0,0,0-0.001,0h-15.866
				c-0.407,0.003-0.74-0.327-0.74-0.734l0,0V-8.982L120.673-8.982z"/>
		</g>
		<g id="Group_18" transform="translate(0 4.054)">
			<g id="Clip_20-2" transform="translate(0 0.017)">
				<path id="Mask-2" fill="#FFFFFF" d="M-46.106-3.106l-5.833-1.745l4.357,4.425l-4.357,4.433l5.833-1.745l1.477,6.166l1.475-6.166
					l5.833,1.745l-4.353-4.433l4.353-4.425l-5.833,1.745l-1.475-6.173L-46.106-3.106z"/>
				<path id="Clip_20-4" fill="#FFFFFF" d="M169.915-3.106l-5.839-1.745l4.354,4.425l-4.354,4.432l5.839-1.746l1.476,6.166
					l1.472-6.166l5.831,1.746l-4.353-4.432l4.353-4.425l-5.831,1.745l-1.477-6.173L169.915-3.106z"/>
			</g>
		</g>
	</g>
	<path id="Fill_22" fill="#FFFFFF" d="M45.519,38.521h-2.598V32.78l-3.045,5.742h-1.24l-3.068-5.776v5.775h-2.598V27.742H35.6
		l3.653,6.841l3.653-6.841h2.613V38.521z"/>
	<path id="Fill_25" fill="#FFFFFF" d="M53.4,38.522h-2.872l4.544-10.78h2.742l4.547,10.777h-2.857l-0.762-1.963h-4.578l-0.762,1.963
		L53.4,38.522z M56.447,30.735l-1.375,3.538h2.777L56.447,30.735z"/>
	<path id="Fill_28" fill="#FFFFFF" d="M71.669,38.521h-4.301v-10.78h4.301c3.569,0,5.958,2.167,5.958,5.389
		C77.628,36.353,75.238,38.521,71.669,38.521z M70.048,30.042v6.178h1.522c1.664,0.185,3.16-1.015,3.346-2.677
		c0.016-0.137,0.022-0.275,0.019-0.414c0.042-1.671-1.278-3.062-2.95-3.104c-0.137-0.004-0.274,0.003-0.409,0.019L70.048,30.042
		L70.048,30.042z"/>
	<path id="Fill_31" fill="#FFFFFF" d="M91.68,38.521h-8.477V27.742h8.426v2.288h-5.745v2.03h5.274v2.158h-5.274v2.03h5.795V38.521z"
		/>
</g>
</svg>
