<?xml version="1.0" encoding="utf-8"?>
<!-- Generator: Adobe Illustrator 24.3.0, SVG Export Plug-In . SVG Version: 6.00 Build 0)  -->
<svg version="1.1" id="Layer_1" xmlns="http://www.w3.org/2000/svg" xmlns:xlink="http://www.w3.org/1999/xlink" x="0px" y="0px"
	 viewBox="0 0 179.9 164.4" style="enable-background:new 0 0 179.9 164.4;" xml:space="preserve">
<style type="text/css">
	.st0{fill:#273376;}
</style>
<g>
	<path class="st0" d="M104.8,119.4c-19.2,0-38.3,0-57.5,0c-6.1,0-7.2-1.1-7.2-7.3c0-21.7,0-43.4,0-65.2c0-6.1,1.1-7.1,7.4-7.1
		c3.8,0,8.2,1.1,11.4-0.4c3.5-1.6,2.5-6.7,3.8-10.1C70,10.3,87.9-1.2,109,0.1c18.9,1.1,35.8,15.9,40,35.4c0.7,3.4,2,4.8,5.6,4.4
		c3.1-0.3,6.3,0,9.5-0.1c4.2-0.1,6,2,6,6.1c-0.1,22.4-0.1,44.8,0,67.2c0,4.8-2.2,6.4-6.8,6.4C143.8,119.3,124.3,119.4,104.8,119.4z
		 M105,109.5c17,0,34,0,51,0c2.3,0,4.1,0.3,4.1-3.2C160,88.4,160,70.5,160,52.6c0-1,0.4-2.2-1.2-2.8c-4.4-1.7-8.8,0.5-9.8,5
		c-5.7,25-32,40.4-56.5,32.9c-17.2-5.2-28-16.8-31.6-34.4c-1.2-5.7-5.2-3.1-8.1-3.5c-3.8-0.6-2.7,2.5-2.7,4.3
		C50,71.1,50.1,88,49.9,104.9c0,3.7,0.8,4.8,4.6,4.7C71.4,109.4,88.2,109.5,105,109.5z M105.2,10C86.3,9.8,70.1,25.8,70,44.7
		C70,63.3,85.7,79.3,104.5,79.6c18.9,0.3,35.2-15.5,35.5-34.5C140.3,26.3,124.2,10.1,105.2,10z"/>
	<path class="st0" d="M133.2,139.6c-20.4,0-40.3,0-60.8,0c4.1,8.5,4.3,16.3-3.9,22.2c-5.1,3.7-12.7,3.3-17.7-0.7
		c-5.9-4.6-6.8-10.8-3-21.6c-5.9,0-11.7,0-17.5,0c-10,0-10.2-0.2-10.2-10.4c0-25.7-0.1-51.4,0.1-77.1c0-3.6-1-6.2-3.7-8.6
		C11.7,39,7.3,34.2,2.7,29.7c-2.6-2.5-3.9-5.2-1-8.2c3-3,5.7-1.4,8.2,1c5.9,5.8,11.8,11.7,17.8,17.5c2.2,2.1,2.4,4.5,2.4,7.2
		c0,25.7,0.1,51.4-0.1,77.1c0,4.2,1.2,5.1,5.2,5.1c45.2-0.2,90.3-0.1,135.5-0.1c1.3,0,2.7,0,4,0c3.4,0,5.4,1.7,5.3,5.1
		c-0.1,3.2-2.1,4.7-5.2,4.8c-5.7,0-11.3,0-17.6,0c4.4,9.1,4.4,17.2-4.6,23.1c-5.2,3.4-12.4,2.4-17.1-1.8
		C129.9,155.7,129.1,149.2,133.2,139.6z M65,149.2c-0.5-2.8-2-4.8-4.9-4.8c-3.1-0.1-5,1.9-5,4.9c0,2.8,1.9,4.7,4.7,4.8
		C62.9,154.2,64.5,152.1,65,149.2z M145.3,144.3c-2.9,0.3-4.8,1.8-5.1,4.5c-0.3,3.1,1.7,5.1,4.7,5.3c2.8,0.2,4.8-1.7,5.1-4.4
		C150.2,146.6,148.1,145,145.3,144.3z"/>
	<path class="st0" d="M100.2,64.6c-1.8,0.2-3.2-0.7-4.4-1.9c-4.5-4.6-9.1-9.2-13.7-13.8c-2.5-2.5-3-5.2-0.3-7.8
		c2.6-2.4,5.2-1.5,7.5,0.7c0.6,0.6,1.1,1.2,1.8,1.7c3.1,2.6,5.4,8,9.1,7.7c3.1-0.2,5.9-4.8,8.7-7.5c4.1-3.9,8.1-7.9,12.1-11.9
		c2.5-2.5,5.3-3.1,7.8-0.4c2.4,2.5,1.6,5.2-0.7,7.4c-7.9,7.8-15.7,15.7-23.6,23.5C103.3,63.8,102,64.8,100.2,64.6z"/>
</g>
</svg>
