<?xml version="1.0" encoding="utf-8"?>
<!-- Generator: Adobe Illustrator 24.2.3, SVG Export Plug-In . SVG Version: 6.00 Build 0)  -->
<svg version="1.1" id="Layer_1" xmlns="http://www.w3.org/2000/svg" xmlns:xlink="http://www.w3.org/1999/xlink" x="0px" y="0px"
	 viewBox="0 0 278.1 69.2" style="enable-background:new 0 0 278.1 69.2;" xml:space="preserve">
<style type="text/css">
	.st0{fill:#009CDE;}
	.st1{fill:#012169;}
	.st2{fill:#003087;}
</style>
<desc>Created with Sketch.</desc>
<g>
	<path class="st0" d="M50.1,17.7c0.7-5.4,0-9-2.9-12.3C44.1,1.8,38.6,0,31.7,0H11.3c-1.2,0-2.6,1.3-2.9,2.6L0,59.5
		c0,1,0.7,2.3,1.9,2.3h12.5l-0.7,5.6c-0.2,1,0.5,1.8,1.4,1.8h10.6c1.2,0,2.4-0.8,2.6-2.1v-0.8l2.2-13.3v-0.5
		c0.2-1.3,1.4-2.3,2.6-2.3h1.4c10.3,0,18.2-4.4,20.6-17.2c1.2-5.4,0.7-9.7-2.2-12.8C52.3,19.2,51.1,18.5,50.1,17.7L50.1,17.7"/>
	<path class="st1" d="M50.1,17.7c0.7-5.4,0-9-2.9-12.3C44.1,1.8,38.6,0,31.7,0H11.3c-1.2,0-2.6,1.3-2.9,2.6L0,59.5
		c0,1,0.7,2.3,1.9,2.3h12.5l3.4-21.3l-0.2,0.8c0.2-1.5,1.4-2.6,2.9-2.6h6c11.8,0,20.9-5.1,23.8-19.5C49.9,18.5,50.1,18.2,50.1,17.7"
		/>
	<path class="st2" d="M20.9,17.7c0.2-0.8,0.7-1.5,1.4-2.1c0.5,0,0.7-0.3,1.2-0.3h15.8c1.9,0,3.8,0.3,5.3,0.5c0.5,0,1,0,1.4,0.3
		c0.5,0.3,1,0.3,1.2,0.5c0.2,0,0.5,0,0.7,0c0.7,0.3,1.4,0.8,2.2,1c0.7-5.4,0-9-2.9-12.6C44.4,1.5,38.9,0,31.9,0H11.3
		c-1.2,0-2.6,1-2.9,2.6L0,59.5c0,1,0.7,2.3,1.9,2.3h12.5l3.4-21.3L20.9,17.7z"/>
	<g>
		<path class="st2" d="M106,12.1H90.7c-1,0-2,0.8-2.2,1.8L82.5,53c-0.2,0.8,0.4,1.4,1.2,1.4h7.2c1,0,2-0.8,2.2-1.8L94.6,42
			c0.2-1,1-1.8,2.2-1.8h4.9c10,0,15.8-4.9,17.4-14.5c0.6-4.1,0-7.4-2-9.8C115,13.5,111,12.1,106,12.1z M107.7,26.4
			c-0.8,5.5-5.1,5.5-9,5.5h-2.3l1.6-10.2c0-0.6,0.6-1,1.2-1h1c2.7,0,5.3,0,6.6,1.6C107.7,23.1,108.1,24.4,107.7,26.4z"/>
		<path class="st2" d="M151.3,26.2h-7.2c-0.6,0-1.2,0.4-1.2,1l-0.4,2l-0.6-0.8c-1.6-2.3-5.1-3.1-8.6-3.1c-8,0-14.9,6.1-16.2,14.7
			c-0.8,4.3,0.2,8.4,2.7,11.1c2.2,2.5,5.5,3.7,9.2,3.7c6.5,0,10.2-4.1,10.2-4.1l-0.4,2c-0.2,0.8,0.4,1.6,1.2,1.6h6.6
			c1,0,2-0.8,2.2-1.8l3.9-25C152.9,27,152.1,26.2,151.3,26.2z M141.4,40.3c-0.8,4.1-3.9,7-8.2,7c-2.2,0-3.7-0.6-4.9-2
			c-1.2-1.4-1.6-3.1-1.2-5.1c0.6-4.1,4.1-7,8.2-7c2.2,0,3.7,0.8,4.9,2C141.2,36.6,141.6,38.3,141.4,40.3z"/>
		<path class="st2" d="M190.2,26.2H183c-0.8,0-1.4,0.4-1.8,1L171.1,42l-4.3-14.3c-0.2-1-1.2-1.6-2-1.6h-7.2c-0.8,0-1.6,0.8-1.2,1.8
			l8,23.7l-7.6,10.6c-0.6,0.8,0,2,1,2h7.2c0.8,0,1.4-0.4,1.8-1l24.4-35.2C191.8,27.4,191.2,26.2,190.2,26.2z"/>
		<path class="st0" d="M214.5,12.1h-15.3c-1,0-2,0.8-2.2,1.8L191,52.8c-0.2,0.8,0.4,1.4,1.2,1.4h7.8c0.8,0,1.4-0.6,1.4-1.2l1.8-11.1
			c0.2-1,1-1.8,2.2-1.8h4.9c10,0,15.8-4.9,17.4-14.5c0.6-4.1,0-7.4-2-9.8C223.3,13.5,219.6,12.1,214.5,12.1z M216.3,26.4
			c-0.8,5.5-5.1,5.5-9,5.5h-2.3l1.6-10.2c0-0.6,0.6-1,1.2-1h1c2.7,0,5.3,0,6.6,1.6C216.3,23.1,216.5,24.4,216.3,26.4z"/>
		<path class="st0" d="M259.9,26.2h-7.2c-0.6,0-1.2,0.4-1.2,1l-0.4,2l-0.6-0.8c-1.6-2.3-5.1-3.1-8.6-3.1c-8,0-14.9,6.1-16.2,14.7
			c-0.8,4.3,0.2,8.4,2.7,11.1c2.2,2.5,5.5,3.7,9.2,3.7c6.5,0,10.2-4.1,10.2-4.1l-0.4,2c-0.2,0.8,0.4,1.6,1.2,1.6h6.6
			c1,0,2-0.8,2.2-1.8l3.9-25C261.2,27,260.7,26.2,259.9,26.2z M249.7,40.3c-0.8,4.1-3.9,7-8.2,7c-2.2,0-3.7-0.6-4.9-2
			c-1.2-1.4-1.6-3.1-1.2-5.1c0.6-4.1,4.1-7,8.2-7c2.2,0,3.7,0.8,4.9,2C249.7,36.6,250.1,38.3,249.7,40.3z"/>
		<path class="st0" d="M268.5,13.1l-6.3,39.7c-0.2,0.8,0.4,1.4,1.2,1.4h6.3c1,0,2-0.8,2.2-1.8l6.3-38.9c0.2-0.8-0.4-1.4-1.2-1.4h-7
			C269.1,12.1,268.7,12.5,268.5,13.1z"/>
	</g>
</g>
</svg>
