<?xml version="1.0" encoding="utf-8"?>
<!-- Generator: Adobe Illustrator 24.2.3, SVG Export Plug-In . SVG Version: 6.00 Build 0)  -->
<svg version="1.1" id="Layer_1" xmlns="http://www.w3.org/2000/svg" xmlns:xlink="http://www.w3.org/1999/xlink" x="0px" y="0px"
	 viewBox="0 0 708.9 69.2" style="enable-background:new 0 0 708.9 69.2;" xml:space="preserve">
<style type="text/css">
	.st0{filter:url(#Adobe_OpacityMaskFilter);}
	.st1{fill-rule:evenodd;clip-rule:evenodd;fill:#FFFFFF;}
	.st2{mask:url(#mask-4_1_);fill-rule:evenodd;clip-rule:evenodd;fill:#1D73EC;}
	.st3{filter:url(#Adobe_OpacityMaskFilter_1_);}
	.st4{mask:url(#mask-6_1_);fill-rule:evenodd;clip-rule:evenodd;}
</style>
<desc>Created with Sketch.</desc>
<g id="Group-Copy" transform="translate(0.000000, 38.000000)">
	<g id="Group-7" transform="translate(0.161905, 0.844753)">
		<g id="Group-3_1_" transform="translate(0.000000, 0.597595)">
			<g id="Clip-2">
			</g>
			<defs>
				<filter id="Adobe_OpacityMaskFilter" filterUnits="userSpaceOnUse" x="0" y="-26.1" width="50.7" height="55.8">
					<feColorMatrix  type="matrix" values="1 0 0 0 0  0 1 0 0 0  0 0 1 0 0  0 0 0 1 0"/>
				</filter>
			</defs>
			<mask maskUnits="userSpaceOnUse" x="0" y="-26.1" width="50.7" height="55.8" id="mask-4_1_">
				<g class="st0">
					<polygon id="path-3_1_" class="st1" points="0,-26.1 50.7,-26.1 50.7,29.8 0,29.8 					"/>
				</g>
			</mask>
			<path id="Fill-1" class="st2" d="M50.4,15.3L45.6,9c-0.2-0.3-0.6-0.5-1-0.5H20.2C13.6,7.8,8.5,2.2,8.5-4.5
				c0-7.2,5.8-13.1,13-13.1c0.3,0,0.6,0,0.9,0c2.9,0.2,5.7,1.4,7.8,3.4c2.4,2.2,3.3,5.2,3.6,8.4l0,0.2v7c0,0.7,0.5,1.2,1.2,1.2h6.4
				c0.7,0,1.2-0.6,1.2-1.2v0c0-4.8,0-7.2,0-7.3c-0.7-11.4-10.1-20.4-21.4-20.4C9.6-26.1,0-16.4,0-4.4C0,6.8,8.3,16.1,19.4,17.1
				c0.1,0,0.4,0,2,0.1l10.8,0h1.7v2.3v2.7l0,1.8c0,0.4,0.2,0.8,0.5,1l6.5,4.5c0.6,0.4,1.3,0.2,1.7-0.3c0.1-0.2,0.2-0.4,0.2-0.7
				l0-8.9l0-2.4h2.3h4.2c0.7,0,1.2-0.6,1.2-1.2C50.7,15.7,50.6,15.5,50.4,15.3"/>
		</g>
		<g id="Group-6" transform="translate(55.378017, 0.597595)">
			<g id="Clip-5">
			</g>
			<defs>
				<filter id="Adobe_OpacityMaskFilter_1_" filterUnits="userSpaceOnUse" x="0.1" y="-26.7" width="240.1" height="44.3">
					<feColorMatrix  type="matrix" values="1 0 0 0 0  0 1 0 0 0  0 0 1 0 0  0 0 0 1 0"/>
				</filter>
			</defs>
			<mask maskUnits="userSpaceOnUse" x="0.1" y="-26.7" width="240.1" height="44.3" id="mask-6_1_">
				<g class="st3">
					<polygon id="path-5_1_" class="st1" points="0.1,-26.7 240.2,-26.7 240.2,17.6 0.1,17.6 					"/>
				</g>
			</mask>
			<path id="Fill-4" class="st4" d="M216.9,15.8V-3.8l-13.4-20.5c-0.5-0.8,0-1.8,1-1.8h7.9c0.5,0,0.8,0.3,1,0.6l8.4,12.6l8.4-12.6
				c0.2-0.2,0.4-0.6,1-0.6h7.9c1,0,1.5,1,1,1.8L226.4-3.8v19.6c0,0.6-0.5,1.2-1.2,1.2H218C217.4,17,216.9,16.4,216.9,15.8
				L216.9,15.8z M180.2,2.2h9.2l-4.6-10.1h-0.1L180.2,2.2z M165.5,17c-0.9,0-1.4-0.8-1-1.6l19-41.4c0.2-0.4,0.6-0.7,1-0.7h0.6
				c0.4,0,0.9,0.3,1,0.7l19,41.4c0.4,0.8-0.1,1.6-1,1.6h-6.7c-1.1,0-1.6-0.4-2.1-1.5l-2.2-4.9h-16.5l-2.2,4.9
				c-0.3,0.7-1,1.5-2.2,1.5H165.5z M144.6-7.6h6.1c2.6,0,4.4-2.1,4.4-4.9c0-2.6-1.8-4.5-4.4-4.5h-6.1V-7.6z M135.1,15.8v-40.7
				c0-0.6,0.5-1.2,1.2-1.2h14.7c8,0,13.6,6.1,13.6,13.6c0,7.6-5.6,13.8-13.6,13.8h-6.4v14.4c0,0.6-0.5,1.2-1.2,1.2h-7.2
				C135.6,17,135.1,16.4,135.1,15.8L135.1,15.8z M97.7,7.9h6.4c6.9,0,11.3-5.5,11.3-12.5c0-6.9-4.4-12.4-11.3-12.4h-6.4V7.9z
				 M88.2,15.8v-40.7c0-0.6,0.5-1.2,1.1-1.2h14.8c11.7,0,21.3,9.7,21.3,21.5c0,11.9-9.6,21.6-21.3,21.6H89.3
				C88.7,17,88.2,16.4,88.2,15.8L88.2,15.8z M56,2.2h9.2L60.6-7.9h-0.1L56,2.2z M41.3,17c-0.9,0-1.4-0.8-1-1.6l19-41.4
				c0.2-0.4,0.6-0.7,1-0.7h0.6c0.4,0,0.9,0.3,1,0.7l19,41.4c0.4,0.8-0.1,1.6-1,1.6h-6.7c-1.1,0-1.6-0.4-2.1-1.5l-2.2-4.9H52.3
				l-2.2,4.9c-0.3,0.7-1,1.5-2.2,1.5H41.3z M0.1,1.2c0,9.3,7.7,16.4,17.3,16.4c9.6,0,17.4-7,17.4-16.4v-26.1c0-0.6-0.5-1.2-1.2-1.2
				h-7.5c-0.7,0-1.2,0.6-1.2,1.2V0.7c0,4.5-3.2,7-7.6,7c-4.3,0-7.5-2.5-7.5-7v-25.6c0-0.6-0.5-1.2-1.2-1.2H1.3
				c-0.6,0-1.2,0.6-1.2,1.2V1.2z"/>
		</g>
	</g>
</g>
<g>
	<path d="M357.1,38.8h-4V48h-4.8V23.9h8.9c5.8,0,8.7,3.3,8.7,7.5C365.8,35,363.3,38.8,357.1,38.8z M356.9,34.9
		c2.7,0,3.9-1.3,3.9-3.5c0-2.2-1.2-3.5-3.9-3.5h-3.8v7H356.9z"/>
	<path d="M376.7,28.6c3.1,0,5.2,1.4,6.3,3v-2.7h4.9V48H383v-2.8c-1.1,1.7-3.3,3.1-6.3,3.1c-4.8,0-8.7-4-8.7-9.9
		C368,32.4,371.8,28.6,376.7,28.6z M377.9,32.8c-2.6,0-5,1.9-5,5.6c0,3.6,2.4,5.7,5,5.7c2.7,0,5.1-2,5.1-5.6
		C383,34.8,380.6,32.8,377.9,32.8z"/>
	<path d="M405.7,28.9h5.1L399,57h-5.1l4.1-9.5l-7.7-18.6h5.4l4.9,13.4L405.7,28.9z"/>
	<path d="M421.1,23.8c0-1.6,1.2-2.8,3-2.8c1.7,0,3,1.2,3,2.8c0,1.6-1.3,2.8-3,2.8C422.4,26.6,421.1,25.4,421.1,23.8z M421.7,28.9
		h4.8V48h-4.8V28.9z"/>
	<path d="M444.6,37.4c0-3.1-1.7-4.7-4.2-4.7c-2.6,0-4.3,1.7-4.3,4.7V48h-4.8V28.9h4.8v2.4c1.2-1.6,3.3-2.7,5.8-2.7
		c4.5,0,7.6,2.9,7.6,8.2V48h-4.8V37.4z"/>
	<path d="M473.6,43.1h-12.1v-3.8l11.3-16.1h5.6v15.7h3v4.2h-3V48h-4.8V43.1z M473.9,38.9V28.3l-7.1,10.6H473.9z"/>
	<path d="M493.3,23.9h4.8V48h-4.8V23.9z"/>
	<path d="M516.2,37.4c0-3.1-1.7-4.7-4.2-4.7c-2.6,0-4.3,1.7-4.3,4.7V48h-4.8V28.9h4.8v2.4c1.2-1.6,3.3-2.7,5.8-2.7
		c4.5,0,7.6,2.9,7.6,8.2V48h-4.8V37.4z"/>
	<path d="M533,48.3c-4.8,0-8.1-2.8-8.3-6.3h4.9c0.2,1.4,1.5,2.6,3.5,2.6c1.9,0,2.9-0.9,2.9-2c0-3.4-10.8-1.2-10.8-8.2
		c0-3.2,2.8-5.7,7.6-5.7c4.6,0,7.4,2.5,7.7,6.3h-4.6c-0.1-1.5-1.3-2.5-3.2-2.5c-1.8,0-2.7,0.7-2.7,1.8c0,3.5,10.6,1.3,10.7,8.3
		C540.5,45.8,537.6,48.3,533,48.3z"/>
	<path d="M545.2,32.9h-2.3v-4h2.3v-4.7h4.9v4.7h4.3v4h-4.3v9.2c0,1.3,0.5,1.8,2,1.8h2.2V48h-3c-3.7,0-6.1-1.6-6.1-5.9V32.9z"/>
	<path d="M565.3,28.6c3.1,0,5.2,1.4,6.3,3v-2.7h4.9V48h-4.9v-2.8c-1.1,1.7-3.3,3.1-6.3,3.1c-4.8,0-8.7-4-8.7-9.9
		C556.6,32.4,560.5,28.6,565.3,28.6z M566.6,32.8c-2.6,0-5,1.9-5,5.6c0,3.6,2.4,5.7,5,5.7c2.7,0,5.1-2,5.1-5.6
		C571.6,34.8,569.2,32.8,566.6,32.8z"/>
	<path d="M581.2,22.5h4.8V48h-4.8V22.5z"/>
	<path d="M590.8,22.5h4.8V48h-4.8V22.5z"/>
	<path d="M627.1,37.4c0-3-1.7-4.6-4.2-4.6c-2.6,0-4.3,1.6-4.3,4.6V48h-4.8V37.4c0-3-1.7-4.6-4.2-4.6c-2.6,0-4.3,1.6-4.3,4.6V48h-4.8
		V28.9h4.8v2.3c1.2-1.6,3.2-2.6,5.6-2.6c3,0,5.4,1.3,6.7,3.7c1.2-2.2,3.8-3.7,6.6-3.7c4.6,0,7.8,2.9,7.8,8.2V48h-4.8V37.4z"/>
	<path d="M644.9,48.3c-5.6,0-9.6-3.9-9.6-9.9c0-6,3.9-9.9,9.6-9.9c5.5,0,9.4,3.8,9.4,9.5c0,0.6,0,1.2-0.1,1.9h-14
		c0.2,2.8,2.2,4.4,4.6,4.4c2.1,0,3.2-1,3.8-2.3h5.2C652.8,45.5,649.6,48.3,644.9,48.3z M640.2,36.7h9.1c-0.1-2.5-2.1-4.1-4.6-4.1
		C642.5,32.5,640.6,34,640.2,36.7z"/>
	<path d="M671.2,37.4c0-3.1-1.7-4.7-4.2-4.7c-2.6,0-4.3,1.7-4.3,4.7V48h-4.8V28.9h4.8v2.4c1.2-1.6,3.3-2.7,5.8-2.7
		c4.5,0,7.6,2.9,7.6,8.2V48h-4.8V37.4z"/>
	<path d="M681.4,32.9h-2.3v-4h2.3v-4.7h4.9v4.7h4.3v4h-4.3v9.2c0,1.3,0.5,1.8,2,1.8h2.2V48h-3c-3.7,0-6.1-1.6-6.1-5.9V32.9z"/>
	<path d="M701.3,48.3c-4.8,0-8.1-2.8-8.3-6.3h4.9c0.2,1.4,1.5,2.6,3.5,2.6c1.9,0,2.9-0.9,2.9-2c0-3.4-10.8-1.2-10.8-8.2
		c0-3.2,2.8-5.7,7.6-5.7c4.6,0,7.4,2.5,7.7,6.3h-4.6c-0.1-1.5-1.3-2.5-3.2-2.5c-1.8,0-2.7,0.7-2.7,1.8c0,3.5,10.6,1.3,10.7,8.3
		C708.9,45.8,706,48.3,701.3,48.3z"/>
</g>
<circle cx="322" cy="38.3" r="3.4"/>
</svg>
