<?xml version="1.0" encoding="utf-8"?>
<!-- Generator: Adobe Illustrator 24.0.2, SVG Export Plug-In . SVG Version: 6.00 Build 0)  -->
<svg version="1.1" id="Layer_1" xmlns="http://www.w3.org/2000/svg" xmlns:xlink="http://www.w3.org/1999/xlink" x="0px" y="0px"
	 viewBox="0 0 124.2 68" style="enable-background:new 0 0 124.2 68;" xml:space="preserve">
<style type="text/css">
	.st0{fill-rule:evenodd;clip-rule:evenodd;fill:#AD262A;}
	.st1{fill-rule:evenodd;clip-rule:evenodd;fill:#4C4F4F;}
	.st2{fill-rule:evenodd;clip-rule:evenodd;fill:#5E1D1B;}
	.st3{fill:#FFFFFF;}
	.st4{fill:#C5C7C9;}
	.st5{fill:#231F20;}
	.st6{fill:#A6A8AB;}
	.st7{fill:#FFC10E;}
	.st8{fill:#A30046;}
</style>
<g>
	<path class="st3" d="M22.7,10.1c-10.6,0-19.3,8.7-19.3,19.3c0,10.6,8.7,19.3,19.3,19.3h80.4c10.6,0,19.3-8.7,19.3-19.3
		c0-10.6-8.7-19.3-19.3-19.3H22.7z"/>
	<path class="st4" d="M103.1,50.3H22.7c-11.5,0-20.9-9.4-20.9-20.9S11.2,8.5,22.7,8.5h80.4c11.5,0,20.9,9.4,20.9,20.9
		S114.7,50.3,103.1,50.3 M22.7,10.1c-10.6,0-19.3,8.7-19.3,19.3c0,10.6,8.7,19.3,19.3,19.3h80.4c10.6,0,19.3-8.7,19.3-19.3
		c0-10.6-8.7-19.3-19.3-19.3H22.7z"/>
	<path class="st5" d="M93.5,17.7c-3.1,0-5.7,2.5-5.7,5.7c0,3.1,2.5,5.7,5.7,5.7c3.1,0,5.7-2.5,5.7-5.7
		C99.2,20.2,96.6,17.7,93.5,17.7 M93.5,26.2c-1.6,0-2.9-1.3-2.9-2.9c0-1.6,1.3-2.9,2.9-2.9c1.6,0,2.9,1.3,2.9,2.9
		C96.4,24.9,95.1,26.2,93.5,26.2"/>
	<path class="st5" d="M67.6,17.7c-3.1,0-5.7,2.5-5.7,5.7c0,3.1,2.5,5.7,5.7,5.7c3.1,0,5.7-2.5,5.7-5.7
		C73.2,20.2,70.7,17.7,67.6,17.7 M67.6,26.2c-1.6,0-2.9-1.3-2.9-2.9c0-1.6,1.3-2.9,2.9-2.9c1.6,0,2.9,1.3,2.9,2.9
		C70.5,24.9,69.2,26.2,67.6,26.2"/>
	<path class="st5" d="M87.5,26.4c-0.4,0.1-0.9,0.2-1.1,0.2c-1,0-1.2-0.3-1.2-1.3v-5.2h2.3v-2.2h-2.3v-3.1h-2.6L82,17.9h-1.8v0h-0.1
		c-1.5,0-2.6,0.9-3.3,2.3l-0.9-2.3H74v10.8h3.2v-4.7c0-2.4,1.4-3.9,3.1-3.9H82v5.4c0,2.5,1.3,3.5,3.4,3.5c1.1,0,1.9-0.2,2.4-0.4
		L87.5,26.4z"/>
	<polyline class="st5" points="103,21.4 103,28.8 99.9,28.8 99.9,17.9 101.8,17.9 102.4,19.6 	"/>
	<path class="st5" d="M102.4,19.6c0.9-1.1,2.2-1.9,3.7-1.9c2.6,0,3.6,2.1,3.6,4v7.1h-3.2v-7c0-0.9-0.8-1.4-1.6-1.4
		c-0.9,0-1.5,0.5-2,1.1"/>
	<polygon class="st5" points="49.5,14 53,14 57.9,23.3 57.9,14 60.9,14 60.9,28.8 57.6,28.8 52.4,18.6 52.4,28.8 49.5,28.8 	"/>
	<polygon class="st6" points="119.2,8.5 119.2,9 118.4,9 118.4,11.6 117.8,11.6 117.8,9 117.1,9 117.1,8.5 	"/>
	<polygon class="st6" points="119.6,11.6 119.6,8.5 120.5,8.5 121,10.5 121.6,8.5 122.4,8.5 122.4,11.6 121.9,11.6 121.9,9.1 
		121.9,9.1 121.2,11.6 120.8,11.6 120.2,9.1 120.1,9.1 120.1,11.6 	"/>
	<path class="st6" d="M48.6,41.9l0.7-1.1c0.6,0.4,1.5,0.9,2.6,0.9c1.1,0,1.7-0.5,1.7-1.3c0-1-0.8-1.2-2.2-1.7
		c-1.2-0.4-2.4-1-2.4-2.8c0-1.6,1.3-2.5,3-2.5c1.1,0,2,0.2,2.7,0.6l-0.6,1.2c-0.6-0.3-1.3-0.5-2.1-0.5c-1,0-1.5,0.4-1.5,1.1
		c0,0.9,0.7,1.1,1.9,1.5c1.3,0.4,2.8,1,2.8,3c0,1.6-1.2,2.7-3.2,2.7C50.4,42.9,49.3,42.4,48.6,41.9"/>
	<polygon class="st6" points="58,33.4 63.6,33.4 63.6,34.7 59.6,34.7 59.6,37.3 62.7,37.3 62.7,38.5 59.6,38.5 59.6,41.5 63.8,41.5 
		63.8,42.8 58,42.8 	"/>
	<path class="st6" d="M66.1,38.1c0-2.7,1.3-4.8,3.9-4.8c1.2,0,2.1,0.4,2.8,1.1l-0.9,1.1c-0.6-0.5-1-0.8-1.8-0.8
		c-1.5,0-2.2,1.3-2.2,3.6c0,2.2,0.7,3.3,2.3,3.3c0.8,0,1.4-0.4,1.9-1l0.9,1c-0.7,0.8-1.5,1.3-2.9,1.3C67.4,42.9,66.1,40.9,66.1,38.1
		"/>
	<path class="st6" d="M75.5,39.2v-5.8h1.6v6.1c0,1.3,0.3,2.1,1.7,2.1c1.3,0,1.7-0.8,1.7-2.1v-6.1h1.6v5.8c0,2.3-0.9,3.7-3.3,3.7
		C76.4,42.9,75.5,41.5,75.5,39.2"/>
	<path class="st6" d="M91.9,42.8h-1.7l-1.8-4h-1.5v4h-1.6v-9.4h3.1c1.9,0,3.4,0.7,3.4,2.7c0,1.4-0.8,2.1-1.8,2.4L91.9,42.8z
		 M88.3,37.6c1.2,0,1.8-0.4,1.8-1.5c0-1-0.6-1.4-1.7-1.4h-1.5v2.9H88.3z"/>
	<polygon class="st6" points="94.6,33.4 100.2,33.4 100.2,34.7 96.2,34.7 96.2,37.3 99.4,37.3 99.4,38.5 96.2,38.5 96.2,41.5 
		100.5,41.5 100.5,42.8 94.6,42.8 	"/>
	<path class="st6" d="M103.1,33.4h2.3c3.1,0,4.5,1.7,4.5,4.7c0,3.1-1.5,4.7-4.5,4.7h-2.4V33.4z M105.4,41.5c2.2,0,2.9-1,2.9-3.4
		c0-2.1-0.6-3.4-2.7-3.4h-0.9v6.8H105.4z"/>
	<path class="st7" d="M22.6,52C10.2,52,0,41.8,0,29.4C0,16.9,10.2,6.8,22.6,6.8c12.5,0,22.6,10.1,22.6,22.6
		C45.2,41.8,35.1,52,22.6,52 M22.6,13.9c-4.1,0-8,1.6-10.9,4.5c-2.9,2.9-4.5,6.8-4.5,10.9c0,4.1,1.6,8,4.5,10.9
		c2.9,2.9,6.8,4.5,10.9,4.5c4.1,0,8-1.6,10.9-4.5c2.9-2.9,4.5-6.8,4.5-10.9c0-4.1-1.6-8-4.5-10.9C30.6,15.6,26.8,13.9,22.6,13.9"/>
	<rect x="47.2" y="3.3" class="st7" width="1.8" height="1.8"/>
	<rect x="47.2" y="-0.2" class="st7" width="1.8" height="1.8"/>
	<rect x="42.3" y="5.1" class="st7" width="1.6" height="1.7"/>
	<rect x="39" y="8.4" class="st5" width="1.7" height="1.6"/>
	<rect x="43.9" y="6.8" class="st5" width="1.8" height="1.7"/>
	<rect x="37.4" y="6.9" class="st5" width="1.7" height="1.6"/>
	<rect x="42.3" y="8.4" class="st5" width="1.6" height="1.6"/>
	<rect x="45.5" y="1.6" class="st5" width="1.7" height="1.7"/>
	<rect x="42.3" y="3.3" class="st5" width="3.2" height="1.7"/>
	<rect x="40.7" y="5.1" class="st5" width="1.6" height="3.4"/>
	<path class="st5" d="M40.7,10.1v1.7H39v-1.7h-2.8v1.2h-1.5v1.5h1.6v1.6h-1.6v-1.6H33v2.6h-1.7V17h-1.1v1.7h-1.2
		c-1.4,2-4.8,8.3-5.8,10.9c-3.7-5.2-6.6-7.2-8.8-7.9c-1.2-0.4-2.7,1-0.7,3.1c4.7,5.1,6.1,9.4,7.5,12.8c0.7,1.8,4.1,2.1,4.8,0.2
		c1.4-3.8,3.5-8.2,6-11.7v-1.8h1.3v-1.7h1.4v-1.9h1.7v-1.9h-1.7V17h1.7v1.7h1.6l0-1.7h1.3v-2h1.5v-1.4h1.4v-3.5H40.7z"/>
	<path class="st6" d="M8.8,59.7h1.2v0.9c0.4-0.6,1-1,1.8-1c1.3,0,2.5,1,2.5,2.8v0c0,1.8-1.2,2.8-2.5,2.8c-0.9,0-1.5-0.4-1.8-1v2.5
		H8.8V59.7z M13.1,62.4L13.1,62.4c0-1.1-0.7-1.7-1.5-1.7c-0.8,0-1.6,0.7-1.6,1.7v0c0,1,0.7,1.7,1.6,1.7
		C12.4,64.2,13.1,63.5,13.1,62.4"/>
	<path class="st6" d="M15.4,62.4L15.4,62.4c0-1.6,1.2-2.8,2.9-2.8s2.9,1.3,2.9,2.8v0c0,1.5-1.2,2.8-2.9,2.8
		C16.6,65.2,15.4,64,15.4,62.4 M19.9,62.4L19.9,62.4c0-1-0.7-1.8-1.7-1.8c-1,0-1.6,0.8-1.6,1.7v0c0,0.9,0.7,1.7,1.6,1.7
		C19.3,64.2,19.9,63.4,19.9,62.4"/>
	<polygon class="st6" points="21.8,59.7 23,59.7 24.1,63.4 25.3,59.7 26.4,59.7 27.6,63.4 28.7,59.7 29.9,59.7 28.1,65.2 27,65.2 
		25.8,61.5 24.6,65.2 23.5,65.2 	"/>
	<path class="st6" d="M30.5,62.4L30.5,62.4c0-1.6,1.1-2.8,2.6-2.8c1.7,0,2.6,1.3,2.6,2.9c0,0.1,0,0.2,0,0.3h-4
		c0.1,0.9,0.8,1.4,1.6,1.4c0.6,0,1-0.2,1.5-0.6l0.7,0.6c-0.5,0.6-1.2,1-2.2,1C31.7,65.2,30.5,64.1,30.5,62.4 M34.5,62
		c-0.1-0.8-0.6-1.4-1.4-1.4c-0.8,0-1.3,0.6-1.4,1.4H34.5z"/>
	<path class="st6" d="M37,59.7h1.2v1.2c0.3-0.8,1-1.4,1.9-1.3v1.3h-0.1c-1.1,0-1.8,0.7-1.8,2.1v2.1H37V59.7z"/>
	<path class="st6" d="M40.9,62.4L40.9,62.4c0-1.6,1.1-2.8,2.6-2.8c1.7,0,2.6,1.3,2.6,2.9c0,0.1,0,0.2,0,0.3h-4
		c0.1,0.9,0.8,1.4,1.6,1.4c0.6,0,1-0.2,1.5-0.6l0.7,0.6c-0.5,0.6-1.2,1-2.2,1C42.1,65.2,40.9,64.1,40.9,62.4 M44.9,62
		c-0.1-0.8-0.6-1.4-1.4-1.4c-0.8,0-1.3,0.6-1.4,1.4H44.9z"/>
	<path class="st6" d="M47.1,62.4L47.1,62.4c0-1.8,1.2-2.8,2.5-2.8c0.9,0,1.5,0.4,1.8,1v-2.9h1.2v7.5h-1.2v-0.9c-0.4,0.6-1,1-1.8,1
		C48.4,65.2,47.1,64.2,47.1,62.4 M51.5,62.4L51.5,62.4c0-1.1-0.7-1.7-1.6-1.7c-0.8,0-1.6,0.7-1.6,1.7v0c0,1,0.7,1.7,1.6,1.7
		C50.8,64.2,51.5,63.5,51.5,62.4"/>
	<path class="st6" d="M58.6,64.3v0.8h-1.2v-7.5h1.2v3c0.4-0.6,1-1,1.8-1c1.3,0,2.5,1,2.5,2.8v0c0,1.8-1.2,2.8-2.5,2.8
		C59.5,65.2,58.9,64.8,58.6,64.3 M61.7,62.4L61.7,62.4c0-1.1-0.7-1.7-1.5-1.7c-0.8,0-1.6,0.7-1.6,1.7v0c0,1,0.7,1.7,1.6,1.7
		C61,64.2,61.7,63.5,61.7,62.4"/>
	<path class="st6" d="M63.8,66.5l0.4-0.9c0.2,0.1,0.5,0.2,0.7,0.2c0.3,0,0.6-0.2,0.8-0.6l-2.2-5.4h1.3l1.5,4l1.4-4H69l-2.1,5.6
		c-0.4,1.1-0.9,1.5-1.8,1.5C64.5,66.8,64.1,66.7,63.8,66.5"/>
	<polygon class="st8" points="72.6,58 74,58 76.2,63.5 78.3,58 79.7,58 76.7,65.2 75.6,65.2 	"/>
	<path class="st8" d="M79.9,62.4L79.9,62.4c0-1.6,1.1-2.8,2.6-2.8c1.7,0,2.6,1.3,2.6,2.9c0,0.1,0,0.2,0,0.3h-4
		c0.1,0.9,0.8,1.4,1.6,1.4c0.6,0,1-0.2,1.5-0.6l0.7,0.6c-0.5,0.6-1.2,1-2.2,1C81.1,65.2,79.9,64.1,79.9,62.4 M83.9,62
		c-0.1-0.8-0.6-1.4-1.4-1.4c-0.8,0-1.3,0.6-1.4,1.4H83.9z"/>
	<path class="st8" d="M86.4,59.7h1.2v1.2c0.3-0.8,1-1.4,1.9-1.3v1.3h-0.1c-1.1,0-1.8,0.7-1.8,2.1v2.1h-1.2V59.7z"/>
	<path class="st8" d="M90.6,57.7h1.3v1.2h-1.3V57.7z M90.6,59.7h1.2v5.4h-1.2V59.7z"/>
	<path class="st8" d="M93.2,64.1l0.8-0.9c0.7,0.6,1.4,0.9,2.3,0.9c0.8,0,1.3-0.4,1.3-0.9v0c0-0.5-0.3-0.8-1.6-1.1
		c-1.5-0.4-2.4-0.8-2.4-2.1v0c0-1.2,1-2.1,2.4-2.1c1,0,1.9,0.3,2.6,0.9l-0.7,0.9c-0.6-0.5-1.3-0.7-1.9-0.7c-0.7,0-1.2,0.4-1.2,0.8v0
		c0,0.6,0.3,0.8,1.7,1.1c1.5,0.4,2.3,0.9,2.3,2.1v0c0,1.3-1.1,2.1-2.6,2.1C95,65.2,94,64.8,93.2,64.1"/>
	<path class="st8" d="M100.1,57.7h1.3v1.2h-1.3V57.7z M100.1,59.7h1.2v5.4h-1.2V59.7z"/>
	<path class="st8" d="M102.9,66.1l0.5-0.9c0.6,0.4,1.2,0.6,1.9,0.6c1.1,0,1.7-0.6,1.7-1.7v-0.4c-0.4,0.6-1,1-1.9,1
		c-1.3,0-2.5-0.9-2.5-2.5v0c0-1.6,1.2-2.5,2.5-2.5c0.9,0,1.5,0.4,1.9,0.9v-0.8h1.2V64c0,0.9-0.2,1.6-0.7,2c-0.5,0.5-1.2,0.7-2.2,0.7
		C104.4,66.8,103.6,66.5,102.9,66.1 M107,62.2L107,62.2c0-0.9-0.7-1.5-1.6-1.5c-0.9,0-1.5,0.6-1.5,1.5v0c0,0.9,0.7,1.5,1.5,1.5
		C106.3,63.6,107,63,107,62.2"/>
	<path class="st8" d="M109.8,59.7h1.2v0.8c0.3-0.5,0.8-1,1.7-1c1.2,0,1.9,0.8,1.9,2.1v3.4h-1.2v-3.1c0-0.8-0.4-1.3-1.2-1.3
		c-0.7,0-1.2,0.5-1.2,1.3v3h-1.2V59.7z"/>
</g>
</svg>
