<?xml version="1.0" encoding="utf-8"?>
<!-- Generator: Adobe Illustrator 24.3.0, SVG Export Plug-In . SVG Version: 6.00 Build 0)  -->
<svg version="1.1" id="Layer_1" xmlns="http://www.w3.org/2000/svg" xmlns:xlink="http://www.w3.org/1999/xlink" x="0px" y="0px"
	 viewBox="0 0 61.5 34.6" style="enable-background:new 0 0 61.5 34.6;" xml:space="preserve">
<g>
	<g>
		<path d="M22.8,34.6c-3.1,0-5.7-2.6-5.7-5.7s2.6-5.7,5.7-5.7c3.2,0,5.7,2.6,5.7,5.7S25.9,34.6,22.8,34.6z M22.8,24.7
			c-2.3,0-4.2,1.9-4.2,4.2s1.9,4.2,4.2,4.2c2.3,0,4.2-1.9,4.2-4.2S25.1,24.7,22.8,24.7z"/>
	</g>
	<g>
		<path d="M52.1,34.6c-3.1,0-5.7-2.6-5.7-5.7s2.6-5.7,5.7-5.7c3.2,0,5.7,2.6,5.7,5.7S55.2,34.6,52.1,34.6z M52.1,24.7
			c-2.3,0-4.2,1.9-4.2,4.2s1.9,4.2,4.2,4.2c2.3,0,4.2-1.9,4.2-4.2S54.4,24.7,52.1,24.7z"/>
	</g>
	<g>
		<polygon points="44.2,30.5 27.6,30.5 27.6,29 42.7,29 42.7,1.5 10.9,1.5 10.9,29 17.9,29 17.9,30.5 9.4,30.5 9.4,0 44.2,0 		"/>
	</g>
	<g>
		<rect x="43.4" y="28.4" width="3.7" height="1.5"/>
	</g>
	<g>
		<polygon points="61.5,29.9 57.1,29.9 57.1,28.4 60,28.4 60,17.6 52.9,6.8 43.4,6.8 43.4,5.3 53.7,5.3 61.5,17.1 		"/>
	</g>
	<g>
		<path d="M57,15.1H45.1V8.7h7.1L57,15.1z M46.6,13.6H54l-2.5-3.3h-4.9V13.6z"/>
	</g>
	<g>
		<rect x="43.4" y="16.9" width="17.3" height="1.5"/>
	</g>
	<g>
		<rect y="5.3" width="18.2" height="1.5"/>
	</g>
	<g>
		<rect x="1.3" y="10.5" width="3.7" height="1.5"/>
	</g>
	<g>
		<rect x="8.1" y="10.5" width="18.7" height="1.5"/>
	</g>
	<g>
		<rect x="10.1" y="16.2" width="10.1" height="1.5"/>
	</g>
	<g>
		<rect x="5" y="16.2" width="3" height="1.5"/>
	</g>
	<g>
		<rect x="0.4" y="16.2" width="2.1" height="1.5"/>
	</g>
</g>
</svg>
