<?xml version="1.0" encoding="UTF-8"?>
<svg width="53px" height="53px" viewBox="0 0 53 53" version="1.1" xmlns="http://www.w3.org/2000/svg" xmlns:xlink="http://www.w3.org/1999/xlink">
    <title>Group 15</title>
    <g id="Page-1" stroke="none" stroke-width="1" fill="none" fill-rule="evenodd">
        <g id="4" transform="translate(-161.000000, -161.000000)">
            <g id="Group-15" transform="translate(161.000000, 161.000000)">
                <circle id="Oval-Copy-6" fill="#77C44F" cx="26.5" cy="26.5" r="26.5"></circle>
                <g id="002-correct-symbol" transform="translate(11.041667, 17.666667)" fill="#000" fill-rule="nonzero">
                    <path d="M27.1784106,2.73696287 L24.7498982,0.467237868 C24.4169066,0.155784926 24.0119252,0 23.5358922,0 C23.0594215,0 22.6544401,0.155784926 22.3214484,0.467237868 L10.6070724,11.4322169 L5.35707507,6.50877022 C5.02370815,6.19720037 4.61897694,6.04159081 4.14294399,6.04159081 C3.66659831,6.04159081 3.2618671,6.19720037 2.92850018,6.50877022 L0.499987836,8.77855368 C0.166620915,9.09006507 0,9.46845 0,9.91359154 C0,10.3583824 0.166620915,10.737118 0.499987836,11.048571 L6.96411629,17.0899279 L9.39281627,19.3596529 C9.72599555,19.6713397 10.1308519,19.8269493 10.6070724,19.8269493 C11.0831054,19.8269493 11.4879617,19.6709305 11.8213286,19.3596529 L14.249966,17.0899279 L27.1784106,5.00686324 C27.5114648,4.69529338 27.6783987,4.31696691 27.6783987,3.87182537 C27.6783987,3.42691765 27.5114648,3.04853272 27.1784106,2.73696287 Z" id="Path"></path>
                </g>
            </g>
        </g>
    </g>
</svg>