<?xml version="1.0" encoding="utf-8"?>
<!-- Generator: Adobe Illustrator 24.3.0, SVG Export Plug-In . SVG Version: 6.00 Build 0)  -->
<svg version="1.1" id="Layer_1" xmlns="http://www.w3.org/2000/svg" xmlns:xlink="http://www.w3.org/1999/xlink" x="0px" y="0px"
	 viewBox="0 0 800.1 684.3" style="enable-background:new 0 0 800.1 684.3;" xml:space="preserve">
<style type="text/css">
	.st0{fill:#FFFFFF;}
</style>
<g>
	<path class="st0" d="M506.5,50.6c81,0,162,0,243,0c5.7,0,11.3,0.2,16.9,1.4c20.4,4.6,33.1,20,33.7,40.9c0.4,14.8-2.9,28.9-9,42.2
		c-33.3,73.4-65.1,147.5-99,220.6c-5.3,11.3-11.2,22.3-17.6,33.1c-10.1,16.9-25,25.4-44.1,27c-24.9,2-50,0.8-74.9,0.9
		c-90,0.2-180,0-270,0c-2.3,0-4.7,0.1-7,0c-2.7-0.2-3.1,0.9-2.3,3.2c5.1,13.9,11.8,26.9,22.9,37c10,9,21.8,13.1,35.2,13
		c62-0.1,124,0,186,0c34,0,68-0.1,102,0.1c13.7,0,22.2,11.5,17.8,23.5c-2.6,7.1-9,11.3-17.7,11.3c-34,0-68,0-102,0
		c-59.8,0-119.7-0.6-179.5,0.2c-40.7,0.6-68.7-18-88-52.4c-9.1-16.2-13.4-33.9-18.2-51.6c-16.7-61.3-35-122.2-53-183.2
		c-15-51.1-30.1-102.2-45.2-153.2c-5-17-21.7-29.6-39.6-29.6c-26.5-0.1-53,0-79.5-0.1c-7.2,0-12.5-3.5-15.6-9.9
		c-3.2-6.7-2.1-13,2.5-18.7C7.8,2,12.6,0.1,18,0.1c33.3,0.2,66.7-0.7,100,0.6c7.7,0.3,15.2,1.6,22.5,4.1c14.7,5.1,24.5,15,28.7,30.1
		c32,113.9,64.2,227.8,95.1,342c0.9,3.3,2,4.9,5.9,4.9c116.5-0.2,233-0.2,349.5-0.1c12.7,0,21.6-4.3,28-15.8
		c13-23.3,23.5-47.8,34.4-72.1c25.8-57.2,51.3-114.6,76.8-171.9c3.7-8.4,6.3-17.2,6.2-26.6c-0.1-7.2-1.9-9.4-9.1-9.6
		c-11.7-0.3-23.3-0.1-35-0.1c-154.5,0-309-0.1-463.4-0.1c-10.4,0-17.7-5.3-19.5-13.7c-2.4-11.4,5.7-21.1,17.8-21.1
		c33.7-0.1,67.3,0,101,0C406.8,50.7,456.7,50.7,506.5,50.6C506.5,50.7,506.5,50.6,506.5,50.6z"/>
	<path class="st0" d="M620.3,684.3c-44.9,0.1-81.3-36.2-81.4-81.3c-0.1-44.9,36.2-81.1,81.5-81.2c44.4-0.1,80.8,36.4,80.8,81.3
		C701.3,647.8,665,684.2,620.3,684.3z M620.1,650.9c26.9-0.2,48.1-21.6,47.9-48.4c-0.2-25.8-21.8-47.1-47.8-47.1
		c-26.5,0.1-48.1,21.6-48,48C572.3,629.4,594.1,651.1,620.1,650.9z"/>
	<path class="st0" d="M405.4,603c0,44.9-36.6,81.5-81.4,81.3c-44.8-0.2-81-36.4-81.1-81.2c-0.1-44.9,36.5-81.4,81.4-81.3
		C369.1,521.9,405.4,558.3,405.4,603z M324.1,650.9c26.3,0,47.8-21.4,47.9-47.6c0.1-26.5-21.5-48-48-47.9
		c-26.3,0.1-47.8,21.7-47.7,47.8C276.4,629.4,297.9,650.9,324.1,650.9z"/>
</g>
</svg>
