<svg xmlns="http://www.w3.org/2000/svg" width="30" height="31" viewBox="0 0 30 31">
  <g id="Group_1" data-name="Group 1" transform="translate(-1087 -416)">
    <g id="Group_33_Copy_3" data-name="Group 33 Copy 3" transform="translate(1087 416)">
      <path id="Rectangle_3_Copy_5" data-name="Rectangle 3 Copy 5" d="M0,0H-26.544A3.456,3.456,0,0,0-30,3.456V31Z" transform="translate(30)" fill="#012169"/>
    </g>
    <g id="_010-secure" data-name="010-secure" transform="translate(1092 422)">
      <path id="Path" d="M9.812,1.678,4.426,6.82a.664.664,0,0,1-.908,0L.188,3.641a.594.594,0,0,1,0-.867l.661-.631a.664.664,0,0,1,.908,0L3.972,4.257,8.243.18a.664.664,0,0,1,.908,0l.661.631A.594.594,0,0,1,9.812,1.678Z" fill="#fff"/>
    </g>
  </g>
</svg>
