<?xml version="1.0" encoding="utf-8"?>
<!-- Generator: Adobe Illustrator 27.1.0, SVG Export Plug-In . SVG Version: 6.00 Build 0)  -->
<svg version="1.1" id="Layer_1" xmlns="http://www.w3.org/2000/svg" xmlns:xlink="http://www.w3.org/1999/xlink" x="0px" y="0px"
	 viewBox="0 0 146 40" style="enable-background:new 0 0 146 40;" xml:space="preserve">
<style type="text/css">
	.st0{fill-rule:evenodd;clip-rule:evenodd;fill:#00237E;}
</style>
<g id="Page-1">
	<g id="_x31_" transform="translate(-230.000000, -105.000000)">
		<g id="Group-33-Copy-2" transform="translate(230.000000, 105.000000)">
			<path id="Combined-Shape" class="st0" d="M31.9,7.4c0-0.2-0.2-0.4-0.4-0.4h-0.4c-0.2,0-0.3,0.1-0.4,0.3l-5.4,11.9h-0.1L19.8,7.3
				C19.7,7.1,19.5,7,19.3,7h-0.4c-0.3,0-0.4,0.2-0.4,0.4l-2.9,16.9c0,0.4,0.1,0.6,0.5,0.6h2.2c0.2,0,0.4-0.2,0.4-0.4l1.4-9.5h0.1
				l4.4,9.9c0.1,0.2,0.2,0.3,0.4,0.3h0.4c0.2,0,0.4-0.1,0.4-0.3l4.3-9.9h0.1l1.5,9.5c0,0.2,0.2,0.4,0.5,0.4h2.2
				c0.3,0,0.5-0.2,0.4-0.6L31.9,7.4z M43.2,7.3h-2.3c-0.2,0-0.5,0.2-0.5,0.5v16.7c0,0.3,0.2,0.5,0.5,0.5h2.3c0.2,0,0.5-0.2,0.5-0.5
				V7.8C43.7,7.5,43.5,7.3,43.2,7.3 M57.5,15.3h-4v-5h4c1.3,0,2.4,1.1,2.4,2.4C59.9,14.2,58.8,15.3,57.5,15.3 M63.1,12.7
				c0-3-2.4-5.4-5.4-5.4h-7.1c-0.3,0-0.5,0.2-0.5,0.5v16.7c0,0.3,0.2,0.5,0.5,0.5H53c0.2,0,0.5-0.2,0.5-0.5V18h2.7l3.3,6.7
				c0,0.1,0.2,0.2,0.4,0.2h2.6c0.4,0,0.6-0.4,0.4-0.7l-3.4-6.4C61.6,16.9,63.1,15,63.1,12.7 M72.5,18.9l2.4-5.5H75l2.5,5.5H72.5z
				 M75.6,7.3C75.5,7.2,75.4,7,75.1,7h-0.2c-0.2,0-0.3,0.1-0.4,0.3l-7.7,16.9c-0.1,0.3,0,0.7,0.4,0.7h2.1c0.4,0,0.6-0.3,0.7-0.5
				l1.2-2.7h7.4l1.2,2.7c0.2,0.4,0.3,0.5,0.7,0.5h2.1c0.4,0,0.6-0.3,0.4-0.7L75.6,7.3z M99.7,20.4c-0.1-0.2-0.4-0.2-0.6,0
				c-1,0.9-2.3,1.4-3.8,1.4c-3.2,0-5.5-2.7-5.5-5.8c0-3.2,2.3-5.9,5.5-5.9c1.4,0,2.8,0.6,3.8,1.5c0.2,0.2,0.4,0.2,0.6,0l1.5-1.6
				c0.2-0.2,0.2-0.5,0-0.7c-1.7-1.5-3.5-2.3-6-2.3c-4.9,0-8.9,4.1-8.9,9.1c0,5,4,9,8.9,9c2.2,0,4.3-0.8,6-2.4c0.2-0.2,0.2-0.5,0-0.7
				L99.7,20.4z M116.1,21.9h-6.3V7.8c0-0.3-0.2-0.5-0.5-0.5h-2.3c-0.3,0-0.5,0.2-0.5,0.5v16.7c0,0.3,0.2,0.5,0.5,0.5h9
				c0.3,0,0.5-0.2,0.5-0.5v-2.1C116.6,22.1,116.4,21.9,116.1,21.9 M131.9,7.3h-10c-0.3,0-0.5,0.2-0.5,0.5v16.7
				c0,0.3,0.2,0.5,0.5,0.5h10c0.3,0,0.5-0.2,0.5-0.5v-2.1c0-0.3-0.2-0.5-0.5-0.5h-7.3v-4.4h6.1c0.2,0,0.5-0.2,0.5-0.5v-2.1
				c0-0.3-0.2-0.5-0.5-0.5h-6.1v-4.1h7.3c0.3,0,0.5-0.2,0.5-0.5V7.8C132.4,7.5,132.2,7.3,131.9,7.3 M5.6,14.2l-0.9-4l-0.9,4L0,13.1
				L2.8,16L0,18.9l3.7-1.1l0.9,4l0.9-4l3.7,1.1L6.5,16l2.8-2.9L5.6,14.2z M146,13.1l-3.7,1.1l-0.9-4l-0.9,4l-3.7-1.1l2.8,2.9
				l-2.8,2.9l3.7-1.1l0.9,4l0.9-4l3.7,1.1l-2.8-2.9L146,13.1z M57.7,36.1l-2.3-4.5h-1.7v7h1.6v-3.8l1.9,3.8h0.8L60,35v3.7h1.6v-7H60
				L57.7,36.1z M67.7,35.9l0.9-2.3l0.9,2.3H67.7z M67.7,31.7l-2.9,7h1.8l0.5-1.3h2.9l0.5,1.3h1.8l-2.9-7H67.7z M78.2,37.2h-1v-4h1
				c1.3,0,2.1,0.8,2.1,2C80.3,36.4,79.5,37.2,78.2,37.2 M78.3,31.7h-2.7v7h2.7c2.3,0,3.8-1.4,3.8-3.5C82,33.1,80.5,31.7,78.3,31.7
				 M87.2,35.9h3.3v-1.4h-3.3v-1.3h3.6v-1.5h-5.3v7h5.4v-1.5h-3.7V35.9z M135.1,5.3h0.2c0.2,0,0.3-0.1,0.3-0.2
				c0-0.1-0.1-0.2-0.3-0.2c-0.1,0-0.2,0-0.2,0V5.3z M135.1,6.2h-0.3V4.7c0.1,0,0.3,0,0.6,0c0.3,0,0.4,0,0.5,0.1
				c0.1,0.1,0.1,0.2,0.1,0.3c0,0.2-0.1,0.3-0.3,0.3v0c0.1,0.1,0.2,0.2,0.3,0.4c0,0.2,0.1,0.3,0.1,0.4h-0.4c0-0.1-0.1-0.2-0.1-0.4
				c0-0.2-0.1-0.2-0.3-0.2h-0.2V6.2z M134.2,5.4c0,0.7,0.5,1.2,1.1,1.2c0.6,0,1.1-0.5,1.1-1.2c0-0.7-0.5-1.2-1.1-1.2
				S134.2,4.7,134.2,5.4L134.2,5.4z M136.8,5.4c0,0.9-0.7,1.5-1.5,1.5c-0.8,0-1.5-0.7-1.5-1.5c0-0.8,0.7-1.5,1.5-1.5
				C136.1,3.9,136.8,4.5,136.8,5.4L136.8,5.4z"/>
		</g>
	</g>
</g>
</svg>
