<?xml version="1.0" encoding="utf-8"?>
<svg width="22px" height="18px" viewBox="0 0 22 18" version="1.1" xmlns:xlink="http://www.w3.org/1999/xlink" xmlns="http://www.w3.org/2000/svg">
  <g id="Group-4-Copy" transform="translate(0.25 0.25)">
    <path d="M5.81161 0.0010297L3.45817 0.0010297L3.45817 2.5625L0 2.5625L0 3.41667L3.45817 3.41667L3.45817 5.15026L0.619183 5.15026L0.619183 6.00443L3.45817 6.00443L3.45817 7.73802L1.1683 7.73802L1.1683 8.59219L3.45817 8.59219L3.45817 11.8533L5.65682 11.8533C5.77131 12.7853 6.48154 13.4838 7.32861 13.4838C8.17568 13.4838 8.88591 12.7853 9.00041 11.8533L15.8934 11.8533C16.0079 12.7853 16.7181 13.4838 17.5652 13.4838C18.4123 13.4838 19.1225 12.7853 19.237 11.8533L21 11.8533L21 6.23811C20.9526 3.70088 19.6699 2.04515 17.7012 2.04515L17.701 2.04495L15.2277 2.04495L15.2277 0.0010297L13.0767 0.0010297C13.1008 0.190439 13.1133 0.383979 13.1133 0.580712C13.1133 0.681524 13.11 0.781497 13.1036 0.880507L14.4488 0.880507L14.4487 11.0243L8.90739 11.0243C8.6784 10.2742 8.06032 9.7041 7.30448 9.7041C6.5719 9.7041 5.93055 10.2479 5.70156 11.0243L4.18988 11.0243L4.18988 0.880507L5.78472 0.880507C5.77828 0.781497 5.775 0.681524 5.775 0.580712C5.775 0.383979 5.78748 0.190439 5.81161 0.0010297ZM19.1196 11.0243L20.1511 11.0243L20.1502 6.26331C20.1502 4.1931 19.2109 2.89922 17.6769 2.89922L15.2036 2.89922L15.2036 11.0243L15.9138 11.0243C16.1428 10.2479 16.7609 9.7041 17.5167 9.7041C18.2726 9.7041 18.8907 10.2742 19.1196 11.0243ZM6.38853 11.6197C6.38853 12.1888 6.80089 12.6548 7.30448 12.6548C7.80807 12.6548 8.22043 12.1888 8.22043 11.6197C8.22043 11.0506 7.80807 10.5846 7.30448 10.5846C6.80089 10.5846 6.38853 11.0506 6.38853 11.6197ZM16.6016 11.6197C16.6016 12.1888 17.014 12.6548 17.5176 12.6548C18.0211 12.6548 18.4335 12.1888 18.4335 11.6197C18.4335 11.0506 18.0211 10.5846 17.5176 10.5846C17.014 10.5846 16.6016 11.0506 16.6016 11.6197Z" transform="translate(0 3.5161133)" id="Combined-Shape" fill="#00237E" fill-rule="evenodd" stroke="none" />
    <g id="clock" transform="translate(5.7750244 0)">
      <path d="M3.66916 0C1.64602 0 0 1.83792 0 4.09692C0 6.35593 1.64602 8.19385 3.66916 8.19385C5.69229 8.19385 7.33831 6.35593 7.33831 4.09692C7.33831 1.83792 5.69229 0 3.66916 0ZM3.66916 7.68173C1.89885 7.68173 0.458647 6.07362 0.458647 4.09692C0.458647 2.12023 1.89885 0.512118 3.66916 0.512118C5.43946 0.512118 6.87967 2.12023 6.87967 4.09692C6.87967 6.07362 5.43946 7.68173 3.66916 7.68173Z" id="Shape" fill="#00237E" stroke="#00237E" stroke-width="0.5" />
      <path d="M0.458647 0L0 0L0 2.66659L1.44312 4.27796L1.76739 3.91587L0.458647 2.45455L0.458647 0Z" transform="translate(3.4398193 1.536377)" id="Path" fill="#00237E" stroke="#00237E" stroke-width="0.5" />
    </g>
  </g>
</svg>