<?xml version="1.0"?>
<svg xmlns="http://www.w3.org/2000/svg" height="512px" viewBox="0 0 60 60" width="512px"><g><g id="Page-1" fill="none" fill-rule="evenodd"><g id="022---Cotton-Fabric" fill="rgb(0,0,0)" fill-rule="nonzero" transform="translate(0 -1)"><path id="Shape" d="m28.927 5.041c-4.8901068.4385481-9.2526684 3.25159657-11.67 7.525-.1881746.3089396-.194835.6954191-.0174171 1.0106592.1774178.31524.5112511.5100889.8729873.5095374.3617362-.0005514.6949739-.1964171.8714298-.5121966 2.08631-3.70538215 5.8595003-6.14969473 10.094-6.539.3607114-.02113683.6819654-.23521848.8403343-.55999343s.1292178-.70972342-.0762532-1.0069458c-.2054709-.29722239-.5553002-.46048479-.9150811-.42706077z" data-original="#000000" class="active-path" data-old_color="#000000" fill="#00237E"/><path id="Shape" d="m58 17c-.0071635-6.0721626-4.9278374-10.9928365-11-11-1.280201.00112777-2.5499896.23002833-3.75.676-3.4538881-3.62559066-8.2425804-5.67750025-13.25-5.67750025s-9.7961119 2.05190959-13.25 5.67750025c-1.2000104-.44597167-2.469799-.67487223-3.75-.676-3.96006536-.00359342-7.61583382 2.12359238-9.56948668 5.5682072-1.95365285 3.4446148-1.90303983 7.6739174.13248668 11.0707928-4.23950914 6.1109647-4.73273872 14.0713176-1.28004115 20.6588974 3.45269758 6.5875798 10.27948495 10.7113484 17.71704115 10.7021026 1.2758617-.0008438 2.5485839-.1264414 3.8-.375 2.446.607 3.2.975 3.2 6.375 0 .5522847.4477153 1 1 1s1-.4477153 1-1c0-6.542-1.368-7.495-4.986-8.382-3.1322612-.6578696-6.0216828-2.1688547-8.349-4.366-6.311-5.608-6.381-13.96-6-17.868 2.9895397 3.2172475 6.843565 5.5039692 11.1 6.586 7.256 1.816 8.235 7.1 8.235 12.03 0 .5522847.4477153 1 1 1s1-.4477153 1-1c0-4.93.979-10.214 8.243-12.03 4.256435-1.0820308 8.1104603-3.3687525 11.1-6.586.378 3.908.308 12.26-6 17.868-2.3273172 2.1971453-5.2167388 3.7081304-8.349 4.366-3.626.887-4.994 1.84-4.994 8.382 0 .5522847.4477153 1 1 1s1-.4477153 1-1c0-5.4.754-5.768 3.2-6.375 1.2514161.2485586 2.5241383.3741562 3.8.375 7.4375562.0092458 14.2643436-4.1145228 17.7170411-10.7021026 3.4526976-6.5875798 2.959468-14.5479327-1.2800411-20.6588974 1.0245784-1.7023524 1.5650039-3.6521028 1.563-5.639zm-16.941 34.946c1.6677728-.8621357 3.2161334-1.937853 4.606-3.2 9.335-8.297 6.435-21.416 6.31-21.971-.0895087-.3892224-.4020261-.6878624-.7949101-.7596121s-.7907852.0971515-1.0120899.4296121c-2.832934 3.7497578-6.8569307 6.4245467-11.411 7.585-5.12 1.28-7.59 4.154-8.757 7.309-1.167-3.155-3.637-6.029-8.757-7.309-4.5504694-1.1697371-8.5720522-3.8430395-11.412-7.586-.22164772-.3317889-.61932274-.5000588-1.01179868-.4281267-.39247595.0719322-.704627.3702976-.79420132.7591267-.125.555-3.025 13.674 6.31 21.973 1.3898666 1.262147 2.9382272 2.3378643 4.606 3.2-7.6718249-.4498355-14.21063785-5.72355-16.27491124-13.1261189-2.06427339-7.4025688.80193645-15.2989591 7.13391124-19.6538811.3115417-.1947237.4912213-.5445984.4679778-.9112525-.0232436-.3666542-.245667-.691038-.5793043-.8448615-.33363734-.1538234-.72475617-.1123132-1.0186735.108114-1.39778211.9635723-2.66672277 2.1017878-3.776 3.387-1.54324484-3.1651646-1.09272176-6.9403971 1.15201706-9.653517 2.24473881-2.71311984 5.86880814-3.86267309 9.26698294-2.939483-.8010864 1.02744535-1.5010063 2.1299028-2.09 3.292-.2205381.4881099-.0173259 1.0633136.4608859 1.3045639.4782118.2412504 1.0615946.0628715 1.3231141-.4045639.7155489-1.4173058 1.6149777-2.73400232 2.675-3.916.022-.019.037-.044.058-.065 3.1049153-3.5155655 7.5696162-5.52908012 12.26-5.52908012s9.1550847 2.01351462 12.26 5.52908012c.02.021.036.046.058.065 1.0600223 1.18199768 1.9594511 2.4986942 2.675 3.916.2615195.4674354.8449023.6458143 1.3231141.4045639.4782118-.2412503.681424-.816454.4608859-1.3045639-.5889937-1.1620972-1.2889136-2.26455465-2.09-3.292.7538016-.20610022 1.5315342-.31168087 2.313-.314 3.1006964-.00100067 5.9835515 1.59417878 7.629748 4.221793 1.6461966 2.6276142 1.8238785 5.9175807.470252 8.707207-.6405965-.75439-1.3361642-1.4603193-2.081-2.112-.4212323-.3340753-1.0312217-.2753078-1.3809275.133041-.3497059.4083488-.3139582 1.020119.0809275 1.384959 1.0139366.8701849 1.9281962 1.85018 2.726 2.922 3.9520018 5.3035767 4.6725254 12.3489053 1.8758984 18.3426622-2.7966269 5.9937569-8.6586489 9.9677356-15.2618984 10.3463378z" data-original="#000000" class="active-path" data-old_color="#000000" fill="#00237E"/></g></g></g> </svg>
