<?xml version="1.0" encoding="UTF-8"?>
<svg width="33px" height="30px" viewBox="0 0 33 30" version="1.1" xmlns="http://www.w3.org/2000/svg" xmlns:xlink="http://www.w3.org/1999/xlink">
    <title>Combined Shape 2</title>
    <g id="Update" stroke="none" stroke-width="1" fill="none" fill-rule="evenodd">
        <g id="atc_d" transform="translate(-1090.000000, -288.000000)" fill="#00206D">
            <g id="Combined-Shape-2" transform="translate(1090.000000, 288.000000)">
                <path d="M14.5122909,0 C15.4501302,0 16.3578387,0.272873152 17.1391446,0.789532161 L17.1391446,0.789532161 L18.8306073,1.90896525 L18.9535749,1.99767769 C19.3493105,2.30818925 19.6015668,2.76355297 19.6528261,3.26830452 C19.6952214,3.69311107 19.5862183,4.11638665 19.3453716,4.47433298 L19.3453716,4.47433298 L19.2465834,4.62115201 L19.3676136,4.75060886 L19.4696662,4.86915939 C20.0472891,5.59898077 20.0004786,6.64905739 19.3313829,7.31345431 L19.3313829,7.31345431 L16.5439883,10.0812744 L16.4223355,10.1920776 C16.087228,10.471702 15.6689647,10.6235194 15.2262213,10.6235194 L15.2262213,10.6235194 L11.4733767,10.6235194 L11.4761091,10.8500743 L11.4817774,11.0820304 L11.4937063,11.3187364 L11.5127045,11.5698083 L11.5562252,11.9943871 L11.6202002,12.5053789 L11.7917548,13.7257927 L11.8784287,14.3715623 C11.8914838,14.4740623 11.903853,14.5741922 11.9155503,14.6722424 L11.9155503,14.6722424 L11.9777831,15.2379149 C11.9868487,15.3288097 11.9952704,15.4182064 12.0030623,15.5063957 L12.0030623,15.5063957 L12.0423663,16.0233681 C12.058351,16.2769354 12.0689185,16.5248688 12.0744471,16.7750174 L12.0744471,16.7750174 L12.0847375,17.2406253 L12.4454211,16.9418583 L12.6848839,16.7515059 C13.9798234,15.7641189 15.5551868,15.2238806 17.1971948,15.2238806 C18.2394597,15.2238806 19.2689975,15.4529304 20.2462952,15.8903216 L20.2462952,15.8903216 L20.4410292,15.9774752 L20.5397991,15.7897812 L20.674163,15.5438847 C22.2370322,12.7874582 25.1520511,11.0712806 28.3467731,11.0712806 L28.3467731,11.0712806 L28.5879255,11.0747368 L28.7838415,11.0842083 C31.1223931,11.2499956 33,13.2787885 33,15.697609 L33,15.697609 L33,23.7714325 L32.9954641,23.9765908 C32.9110445,25.8830653 31.6552957,27.5464484 29.8187123,28.1535428 L29.8187123,28.1535428 L29.3302397,28.3163839 L28.7328991,28.5078073 C25.5396034,29.4982107 22.2283117,30 18.8790922,30 L18.8790922,30 L17.8708298,30 L17.3155712,29.9953373 C11.7655848,29.902137 6.29975298,28.4133828 1.47517628,25.676081 C0.312080761,25.0162377 -0.2501429,23.6824882 0.106046392,22.4345095 L0.106046392,22.4345095 L0.159367614,22.2316459 C0.310942953,21.603677 0.387003153,20.8019307 0.387003153,19.8432503 L0.387003153,19.8432503 L0.389982074,19.6605253 C0.431681039,18.3545926 0.911032248,16.485223 1.8201866,14.0881082 L1.8201866,14.0881082 L2.09163352,13.3888887 L2.38643042,12.6611333 C2.4375068,12.537473 2.48955441,12.4126314 2.54257239,12.2866124 L2.54257239,12.2866124 L2.87231795,11.5164002 L3.04591137,11.1207549 C4.51118457,7.80840117 6.59627775,4.7960465 9.2455688,2.16536006 C10.6521134,0.768692871 12.5217379,0 14.5122909,0 Z M14.5122909,0.935279038 C12.7736133,0.935279038 11.139948,1.60739451 9.9110054,2.82770684 C7.34348885,5.37807004 5.32382293,8.29459429 3.90812908,11.4978512 C3.85190268,11.6249826 3.79655862,11.7510748 3.74210053,11.8761173 L3.74210053,11.8761173 L3.42601308,12.6136877 C3.37511354,12.7344877 3.3251073,12.8542163 3.27599799,12.9728628 L3.27599799,12.9728628 L2.99213463,13.6716694 C2.94662769,13.7859441 2.90202499,13.8991151 2.85833019,14.0111716 L2.85833019,14.0111716 L2.6070853,14.6700504 C2.56703667,14.7776058 2.52790325,14.8840252 2.48968867,14.9892978 L2.48968867,14.9892978 L2.27145662,15.607085 C1.65001428,17.4186437 1.3286452,18.8516487 1.3286452,19.8432503 L1.3286452,19.8432503 L1.32542868,20.1842541 C1.30614423,21.1892697 1.20027741,22.0315405 1.01138632,22.689915 C0.773345083,23.524625 1.15815725,24.4180328 1.94245658,24.8633368 C6.78471739,27.6112872 12.2930809,29.0638511 17.8708298,29.0638511 L17.8708298,29.0638511 L18.8790922,29.0638511 L19.5266784,29.0574043 C22.762013,28.992955 25.9566683,28.4455724 29.0324259,27.4283414 L29.0324259,27.4283414 L29.520106,27.2654723 L29.6997683,27.2009891 C31.1174331,26.651178 32.057482,25.295527 32.057482,23.7714325 L32.057482,23.7714325 L32.057482,15.697609 L32.0529301,15.5128309 C31.9592372,13.6141571 30.4309103,12.0596595 28.5595452,12.0101189 L28.5595452,12.0101189 L28.3496533,12.0074476 L28.0816741,12.0119486 C25.2318377,12.107788 22.6674908,13.7277732 21.350796,16.2596433 L21.350796,16.2596433 L21.2601305,16.4339838 L21.6535081,16.709463 C21.9503174,16.9260132 22.2046716,17.1382697 22.4336928,17.3644467 C22.6192857,17.5463832 22.6203845,17.8422629 22.436868,18.0262599 C22.2543297,18.2098622 21.9557757,18.2109535 21.7716849,18.029331 C20.5468963,16.8239539 18.9217458,16.1600295 17.1971948,16.1600295 L17.1971948,16.1600295 L16.9518143,16.1645554 C14.9134909,16.2398355 13.045039,17.2504195 11.8728602,18.911427 L11.8728602,18.911427 L11.7543076,19.0853731 L11.7097813,19.133499 C11.121959,20.5115761 9.99000365,21.4232263 8.94748452,21.6814833 C8.90943021,21.69093 8.87094587,21.6956697 8.8332591,21.6956697 C8.61942986,21.6956697 8.43001406,21.5506978 8.37827066,21.3417139 C8.3147264,21.0916635 8.46634732,20.8388599 8.716959,20.7739933 C9.05931176,20.6841968 9.52883977,20.4569704 9.98123848,20.0401146 C10.7143985,19.3645557 11.1511466,18.3890481 11.1511466,17.0754302 L11.1511466,17.0754302 L11.1469376,16.7146743 C11.1440932,16.5954773 11.1397689,16.4767229 11.1338497,16.3565731 L11.1338497,16.3565731 L11.1111917,15.9901006 L11.0782725,15.6042304 L11.0344008,15.1879362 L10.9788856,14.7301919 L10.9110356,14.2199712 L10.768931,13.2179989 L10.6947266,12.6671991 L10.6335834,12.1620486 L10.5860772,11.6996709 C10.5793279,11.6260125 10.5731707,11.5540165 10.5676178,11.4836229 L10.5676178,11.4836229 L10.5416465,11.0800108 C10.4767944,9.73131403 10.6889687,9.03642671 11.2892494,8.44036146 C11.473367,8.25753679 11.7705683,8.25753679 11.954686,8.44036146 C12.1391149,8.62349528 12.1391149,8.91957443 11.954686,9.10270824 C11.8945044,9.16246719 11.8592871,9.21368464 11.7897758,9.32899344 L11.7897758,9.32899344 L11.5724065,9.68737048 L15.2262213,9.68737048 L15.347029,9.67934789 C15.5466266,9.65279454 15.7352003,9.56127241 15.8785518,9.41892766 L15.8785518,9.41892766 L18.6659463,6.65110753 L18.7388338,6.56941686 C18.984436,6.25785578 18.9918174,5.82092903 18.759253,5.48795846 L18.759253,5.48795846 L18.6049204,5.26699509 L16.8891277,6.97073868 L16.7743845,7.07608522 C16.1835589,7.57659728 15.3445784,7.68247039 14.639516,7.33387953 C14.0716841,7.05156678 13.6892473,6.53519657 13.5869642,5.91252641 C13.4847867,5.28971818 13.6835362,4.67810856 14.1327072,4.23209187 L14.1327072,4.23209187 L14.7738214,3.59634961 L14.8389389,3.54215971 C15.0222041,3.41571577 15.2757452,3.43376832 15.4393672,3.5962413 C15.6230058,3.77917893 15.6230058,4.07565046 15.4391103,4.25884353 L15.4391103,4.25884353 L14.7982529,4.89433035 L14.7175841,4.9847489 C14.5436663,5.20435592 14.4707757,5.48175448 14.5169769,5.76189545 C14.5698355,6.08240388 14.7684271,6.35043569 15.0609895,6.49568961 C15.4486741,6.68873202 15.9178145,6.61324176 16.2239848,6.30809972 L16.2239848,6.30809972 L18.4495772,4.09813703 L18.5275396,4.00986155 C18.6710054,3.82519944 18.7388305,3.59426013 18.7150462,3.36005523 C18.687251,3.08635561 18.5394927,2.84120598 18.3093698,2.68848527 L18.3093698,2.68848527 L16.6166752,1.56881651 L16.4043765,1.4379663 C15.8287535,1.10847998 15.1795052,0.935279038 14.5122909,0.935279038 Z" id="Combined-Shape"></path>
            </g>
        </g>
    </g>
</svg>