<?xml version="1.0" encoding="utf-8"?>
<!-- Generator: Adobe Illustrator 23.0.5, SVG Export Plug-In . SVG Version: 6.00 Build 0)  -->
<svg version="1.1" id="Layer_x5F_1_x5F_1" xmlns="http://www.w3.org/2000/svg" xmlns:xlink="http://www.w3.org/1999/xlink" x="0px"
	 y="0px" viewBox="0 0 612 161.8" style="enable-background:new 0 0 612 161.8;" xml:space="preserve">
<style type="text/css">
	.st0{fill-rule:evenodd;clip-rule:evenodd;fill:#00217E;}
</style>
<g id="Page-1">
	<g id="_x31_" transform="translate(-230.000000, -105.000000)">
		<g id="Group-33-Copy-2" transform="translate(230.000000, 105.000000)">
			<path id="Combined-Shape" class="st0" d="M143,19.3c-0.1-0.8-0.7-1.5-1.8-1.5h-1.6c-0.9,0-1.4,0.4-1.7,1l-21.9,48h-0.3l-21.9-48
				c-0.3-0.6-0.9-1-1.7-1h-1.6c-1.1,0-1.7,0.7-1.8,1.5L76.8,87.6c-0.2,1.4,0.6,2.3,1.9,2.3h9c0.9,0,1.7-0.8,1.8-1.5l5.8-38.5h0.3
				l17.6,39.9c0.3,0.6,0.8,1.1,1.7,1.1h1.8c0.9,0,1.5-0.5,1.7-1.1l17.4-39.9h0.3l5.9,38.5c0.2,0.7,1,1.5,1.9,1.5h9.1
				c1.3,0,2.1-0.9,1.8-2.3L143,19.3z M188.5,18.8h-9.3c-1,0-1.9,0.9-1.9,1.9V88c0,1,0.9,1.9,1.9,1.9h9.3c1,0,1.9-0.9,1.9-1.9V20.7
				C190.4,19.7,189.5,18.8,188.5,18.8 M246.1,51.2h-16.2V31h16.2c5.3,0,9.9,4.5,9.9,9.9C256,46.5,251.4,51.2,246.1,51.2 M268.9,40.6
				c0-12.1-9.8-21.8-21.7-21.8h-28.5c-1.1,0-1.9,0.9-1.9,1.9V88c0,1,0.8,1.9,1.9,1.9h9.2c1,0,1.9-0.9,1.9-1.9V62.1h11.1L254.1,89
				c0.2,0.4,0.7,0.9,1.6,0.9h10.5c1.7,0,2.4-1.6,1.7-3l-13.7-25.8C262.9,57.6,268.9,50,268.9,40.6 M306.8,65.7l9.8-22.4h0.3l10,22.4
				H306.8z M319.2,18.9c-0.3-0.6-0.7-1.1-1.7-1.1h-1c-0.9,0-1.4,0.5-1.7,1.1l-31,68.4c-0.6,1.3,0.2,2.6,1.7,2.6h8.7
				c1.6,0,2.5-1,2.9-2l4.9-11h29.8l4.9,11c0.7,1.4,1.4,2,2.9,2h8.7c1.5,0,2.3-1.3,1.7-2.6L319.2,18.9z M416.6,71.9
				c-0.6-0.6-1.7-0.7-2.5,0c-4.2,3.5-9.3,5.8-15.3,5.8c-12.8,0-22.3-10.8-22.3-23.5c0-12.8,9.5-23.7,22.2-23.7
				c5.6,0,11.2,2.2,15.4,6c0.8,0.8,1.8,0.8,2.5,0l6.1-6.4c0.8-0.8,0.8-2-0.1-2.8c-6.8-6.2-14.1-9.5-24.1-9.5
				c-19.9,0-36,16.4-36,36.7s16,36.5,36,36.5c8.9,0,17.4-3.2,24.2-9.9c0.7-0.7,0.9-2,0.1-2.7L416.6,71.9z M482.9,77.7h-25.4v-57
				c0-1-0.9-1.9-1.9-1.9h-9.2c-1.1,0-1.9,0.9-1.9,1.9V88c0,1,0.8,1.9,1.9,1.9h36.5c1.1,0,1.9-0.9,1.9-1.9v-8.3
				C484.8,78.7,484,77.7,482.9,77.7 M546.8,18.8h-40.6c-1.1,0-1.9,0.9-1.9,1.9V88c0,1,0.8,1.9,1.9,1.9h40.6c1.1,0,1.9-0.9,1.9-1.9
				v-8.3c0-1-0.8-1.9-1.9-1.9h-29.5V60h24.6c1,0,1.9-0.8,1.9-1.9v-8.4c0-1-0.9-1.9-1.9-1.9h-24.6V31h29.5c1.1,0,1.9-0.9,1.9-1.9
				v-8.3C548.7,19.7,547.9,18.8,546.8,18.8 M36.4,46.9l-3.8-16.2l-3.8,16.2L14,42.3l11.1,11.6L14,65.6L28.9,61l3.8,16.2L36.4,61
				l14.9,4.6L40.2,53.9l11.1-11.6L36.4,46.9z M603.6,42.3l-14.9,4.6l-3.8-16.2l-3.8,16.2l-14.9-4.6l11.1,11.6l-11.1,11.7l14.9-4.6
				l3.8,16.2l3.8-16.2l14.9,4.6l-11.1-11.7L603.6,42.3z M247.1,135.3l-9.3-18H231v28.4h6.6v-15.2l7.8,15.2h3.2l7.8-15.1v15.1h6.6
				v-28.4h-6.7L247.1,135.3z M287.6,134.5l3.5-9.3l3.6,9.3H287.6z M287.6,117.3L276,145.7h7.3l2-5.2H297l2,5.2h7.3l-11.6-28.4
				C294.7,117.3,287.6,117.3,287.6,117.3z M329.7,139.6h-3.9v-16.3h3.9c5.2,0,8.6,3.2,8.6,8.1C338.3,136.4,334.9,139.6,329.7,139.6
				 M330,117.3h-11v28.4h11c9.2,0,15.2-5.8,15.2-14.2C345.2,123.1,339.2,117.3,330,117.3 M366.3,134.4h13.5v-5.7h-13.5v-5.3H381v-6
				h-21.5v28.4h21.7v-6h-14.8v-5.4H366.3z M559.5,10.8h0.6c0.8,0,1.4-0.3,1.4-0.9c0-0.6-0.4-0.9-1.3-0.9c-0.4,0-0.6,0-0.7,0.1V10.8z
				 M559.5,14.2h-1.4v-6c0.5-0.1,1.3-0.2,2.3-0.2c1.1,0,1.6,0.2,2,0.4c0.3,0.3,0.6,0.7,0.6,1.3c0,0.7-0.5,1.2-1.2,1.4v0.1
				c0.6,0.2,0.9,0.7,1.1,1.5c0.2,0.9,0.3,1.3,0.4,1.5h-1.5c-0.2-0.2-0.3-0.8-0.5-1.5c-0.1-0.7-0.5-1-1.2-1h-0.7v2.5H559.5z
				 M555.8,11.1c0,2.7,1.9,4.8,4.6,4.8c2.6,0,4.5-2.1,4.5-4.8s-1.9-4.9-4.5-4.9C557.8,6.2,555.8,8.4,555.8,11.1L555.8,11.1z
				 M566.4,11.1c0,3.4-2.6,6.1-6,6.1s-6.1-2.7-6.1-6.1S557,5,560.4,5C563.8,5,566.4,7.7,566.4,11.1L566.4,11.1z"/>
		</g>
	</g>
</g>
</svg>
