<?xml version="1.0" encoding="utf-8"?>
<!-- Generator: Adobe Illustrator 24.0.2, SVG Export Plug-In . SVG Version: 6.00 Build 0)  -->
<svg version="1.1" id="Layer_1" xmlns="http://www.w3.org/2000/svg" xmlns:xlink="http://www.w3.org/1999/xlink" x="0px" y="0px"
	 viewBox="0 0 195 68" style="enable-background:new 0 0 195 68;" xml:space="preserve">
<style type="text/css">
	.st0{fill-rule:evenodd;clip-rule:evenodd;fill:#AD262A;}
	.st1{fill-rule:evenodd;clip-rule:evenodd;fill:#4C4F4F;}
	.st2{fill-rule:evenodd;clip-rule:evenodd;fill:#5E1D1B;}
	.st3{fill:#FFFFFF;}
	.st4{fill:#C5C7C9;}
	.st5{fill:#231F20;}
	.st6{fill:#A6A8AB;}
	.st7{fill:#FFC10E;}
	.st8{fill:#A30046;}
</style>
<g>
	<path class="st0" d="M111,22.1l-4-2.4l-0.3,0.5c-0.9,1.4-2.1,2.2-3.7,2.2c-2.6,0-4.6-2-4.6-4.6c0-2.6,2-4.6,4.6-4.6
		c1.6,0,2.7,0.7,3.7,2.2l0.3,0.5l4-2.4l-0.3-0.5c-1.9-2.8-4.4-4.1-7.6-4.1c-6.1,0-9.4,4.6-9.4,9s3.3,9,9.4,9c3.1,0,6-1.6,7.7-4.1
		L111,22.1 M122.1,12.2l2.2,5.6l-4.5,0L122.1,12.2L122.1,12.2z M110.8,26.7l5.5,0l1.6-4.1l8.3,0l1.6,4.1l5.5,0l-9.9-24l-4.9,0
		l1.3,3.2L110.8,26.7L110.8,26.7z M135.7,26.7l4.8,0l0-10.8l3.2,0l0-4.5l-3.2,0l0-2.1c0-0.9,0.6-1.9,1.7-1.9c0.6,0,1,0.1,1.4,0.3
		l0.5,0.2l2-4.4l-0.6-0.2c-0.9-0.4-2.1-0.5-3-0.5c-2.2,0-4,0.7-5.2,2.1c-1.1,1.2-1.7,2.8-1.7,4.7l0,1.9h-2.1l0,4.5l2.1,0L135.7,26.7
		 M70.9,2.6v24.1l5.2,0l0-13.8l5.1,3.8l5.1-3.8v13.8l5.2,0l0-24.1l-10.3,7.9L70.9,2.6 M150.3,15.5c0.6-1.6,2-2.6,3.8-2.6
		c1.8,0,3.2,0.9,3.9,2.6L150.3,15.5L150.3,15.5z M154.5,8.7c-6.1,0-9.4,4.6-9.4,9c0,4.4,3.3,9,9.4,9h0c2.8,0,5.4-1.3,7.4-3.6L158,21
		c-1,1-2.2,1.6-3.6,1.6c-2,0-3.7-1.3-4.2-3.1l13.1,0l0-1.2C163.4,11.7,158.2,8.7,154.5,8.7L154.5,8.7z M170.1,15.5
		c0.6-1.6,2-2.6,3.7-2.6c1.8,0,3.2,0.9,3.9,2.6C177.7,15.5,170.1,15.5,170.1,15.5z M174.3,8.8c-6.1,0-9.4,4.6-9.4,9
		c0,4.4,3.3,9,9.4,9h0c2.8,0,5.4-1.3,7.4-3.6l-3.9-2.2c-1,1-2.2,1.6-3.6,1.6c-2,0-3.7-1.3-4.2-3.1l13.1,0v-1.2
		C183.1,11.7,178,8.8,174.3,8.8L174.3,8.8z"/>
	<path class="st1" d="M185.9,34h3.2v0.6h-1.3V38h-0.7v-3.4h-1.2V34 M189.5,34h1l1.1,3.1h0l1.1-3.1h1v4h-0.7v-3.1h0l-1.1,3.1h-0.6
		l-1.1-3.1h0v3.1h-0.7V34 M85.8,50.5c0,2.1-0.7,3.7-2.2,4.9c-1.5,1.2-3.5,1.8-6.2,1.8c-2.4,0-4.6-0.5-6.4-1.4v-4.5
		c1.5,0.7,2.8,1.2,3.9,1.5c1.1,0.3,2,0.4,2.9,0.4c1.1,0,1.9-0.2,2.4-0.6c0.6-0.4,0.8-1,0.8-1.8c0-0.4-0.1-0.8-0.4-1.2
		c-0.2-0.3-0.6-0.7-1.1-1c-0.5-0.3-1.5-0.8-2.9-1.5c-1.4-0.7-2.4-1.3-3.1-1.9c-0.7-0.6-1.2-1.3-1.7-2.1c-0.4-0.8-0.6-1.7-0.6-2.8
		c0-2,0.7-3.6,2-4.8c1.4-1.2,3.2-1.7,5.7-1.7c1.2,0,2.3,0.1,3.4,0.4c1.2,0.3,2.3,0.7,3.4,1.2L84.2,39c-1.2-0.5-2.2-0.8-3-1
		c-0.8-0.2-1.6-0.3-2.3-0.3c-0.9,0-1.6,0.2-2.1,0.6S76,39.3,76,40c0,0.4,0.1,0.8,0.3,1.1c0.2,0.3,0.5,0.6,0.9,0.9
		c0.4,0.3,1.4,0.8,3.1,1.6c2.1,1,3.6,2,4.4,3.1C85.4,47.7,85.8,49,85.8,50.5 M102.6,56.8H89.5V34h13.1v4h-8.3v5h7.7v4h-7.7v5.9h8.3
		V56.8 M116.1,37.7c-1.8,0-3.2,0.7-4.2,2.1c-1,1.4-1.5,3.3-1.5,5.7c0,5.1,1.9,7.6,5.7,7.6c1.6,0,3.5-0.4,5.8-1.2V56
		c-1.9,0.8-3.9,1.2-6.3,1.2c-3.3,0-5.8-1-7.6-3s-2.6-4.9-2.6-8.7c0-2.4,0.4-4.5,1.3-6.2c0.9-1.8,2.1-3.2,3.7-4.1
		c1.6-1,3.5-1.4,5.7-1.4c2.2,0,4.4,0.5,6.7,1.6l-1.6,3.9c-0.8-0.4-1.7-0.8-2.6-1.1C117.9,37.8,117,37.7,116.1,37.7 M144.5,34v14.8
		c0,1.7-0.4,3.2-1.1,4.4c-0.8,1.3-1.8,2.2-3.3,2.9c-1.4,0.7-3.1,1-5,1c-2.9,0-5.2-0.8-6.8-2.3c-1.6-1.5-2.4-3.6-2.4-6.2V34h4.8v14
		c0,1.8,0.4,3,1.1,3.9c0.7,0.8,1.9,1.2,3.5,1.2c1.6,0,2.7-0.4,3.4-1.2c0.7-0.8,1.1-2.1,1.1-3.9V34H144.5 M154,44.1h1.6
		c1.5,0,2.6-0.3,3.4-0.8c0.7-0.5,1.1-1.3,1.1-2.4c0-1.1-0.4-1.9-1.1-2.3c-0.7-0.5-1.9-0.7-3.4-0.7H154L154,44.1L154,44.1z M154,48.1
		v8.8h-4.8V34h6.6c3.1,0,5.4,0.6,6.9,1.7c1.5,1.1,2.2,2.8,2.2,5.1c0,1.3-0.4,2.5-1.1,3.6c-0.7,1-1.8,1.9-3.1,2.5
		c3.4,5.1,5.6,8.4,6.7,9.9h-5.3l-5.4-8.8L154,48.1L154,48.1z M182.9,56.8h-13.1V34h13.1v4h-8.3v5h7.7v4h-7.7v5.9h8.3V56.8"/>
	<path class="st0" d="M13.2,46.7V19.5l17.1,7.9V14.3L1.3,0.8v53.5l29,13.5V54.6L13.2,46.7"/>
	<path class="st2" d="M47.4,46.7V19.5l-17.1,7.9V14.3l29-13.5v53.5l-29,13.5V54.6L47.4,46.7"/>
</g>
</svg>
