<?xml version="1.0" encoding="utf-8"?>
<svg width="9px" height="13px" viewBox="0 0 9 13" version="1.1" xmlns:xlink="http://www.w3.org/1999/xlink" xmlns="http://www.w3.org/2000/svg">
  <g id="hourglass">
    <path d="M0.262868 0C0.117765 0 0 0.11375 0 0.253906C0 0.394063 0.117765 0.507813 0.262868 0.507813C0.407971 0.507813 0.525735 0.394063 0.525735 0.253906C0.525735 0.11375 0.407971 0 0.262868 0Z" transform="translate(4.2058825 8.607422)" id="Path" fill="#012169" stroke="none" />
    <path d="M7.88603 11.5019L7.88603 10.1309C7.88603 8.70665 6.94344 7.39479 5.59374 6.94065C5.38937 6.87197 5.25735 6.69901 5.25735 6.5C5.25735 6.29944 5.39341 6.12673 5.59382 6.05932C6.96486 5.598 7.88603 4.34657 7.88603 2.94531L7.88603 1.49807C8.48019 1.38206 8.9375 0.873539 8.9375 0.253906C8.9375 0.113699 8.81979 0 8.67463 0L0.262868 0C0.117712 0 0 0.113699 0 0.253906C0 0.866988 0.452264 1.37993 1.05147 1.49789L1.05147 2.94531C1.05147 4.34657 1.97264 5.598 3.34376 6.05935C3.54813 6.12803 3.68015 6.30099 3.68015 6.5C3.68015 6.70056 3.54409 6.87327 3.34368 6.94068C1.99406 7.39479 1.05147 8.70665 1.05147 10.1309L1.05147 11.5021C0.452264 11.6201 0 12.133 0 12.7461C0 12.8863 0.117712 13 0.262868 13L8.67463 13C8.81979 13 8.9375 12.8863 8.9375 12.7461C8.9375 12.4072 8.80076 12.0884 8.55243 11.8485C8.36731 11.6697 8.13675 11.5509 7.88603 11.5019ZM0.570791 0.505273L8.36705 0.505273C8.25678 0.806889 7.96497 1.01563 7.62316 1.01563L1.31434 1.01563C0.971638 1.01563 0.679276 0.800846 0.570791 0.505273ZM1.57721 10.1309C1.57721 8.91909 2.37475 7.80447 3.51662 7.42023C3.92693 7.28218 4.20588 6.91836 4.20588 6.5C4.20588 6.08814 3.92887 5.71835 3.51664 5.57977C2.35658 5.18944 1.57721 4.13075 1.57721 2.94531L1.57721 1.52344L7.36029 1.52344L7.36029 2.94531C7.36029 4.13075 6.58092 5.18944 5.42088 5.57977C5.01057 5.71782 4.73162 6.08164 4.73162 6.5C4.73162 6.91186 5.00863 7.28165 5.42086 7.42023C6.56275 7.80447 7.36029 8.91909 7.36029 10.1309L7.36029 11.4766L6.81816 11.4766C6.70076 10.5743 5.95306 10.2444 5.24789 10.007C5.02592 9.93261 4.82081 9.80837 4.65478 9.64778C4.60547 9.60009 4.53854 9.57328 4.46878 9.57328C4.39901 9.57328 4.33209 9.60009 4.28277 9.64778C4.11459 9.81046 3.91507 9.93137 3.68966 10.0071C2.98463 10.2444 2.23679 10.5742 2.1194 11.4766L1.57721 11.4766L1.57721 10.1309ZM6.28624 11.4766L2.65123 11.4766C2.74931 10.9611 3.16758 10.7205 3.8625 10.4867C4.08084 10.4133 4.28685 10.304 4.46872 10.166C4.65086 10.3042 4.85698 10.4135 5.07516 10.4867C5.77 10.7206 6.18819 10.9612 6.28624 11.4766ZM0.570791 12.4922C0.679276 12.1966 0.971638 11.9844 1.31434 11.9844L7.62316 11.9844C7.83367 11.9844 8.03166 12.0636 8.18068 12.2076C8.26532 12.2893 8.32836 12.3864 8.36702 12.4922L0.570791 12.4922Z" id="Shape" fill="#012169" stroke="none" />
    <path d="M4.60694 0.0379076C4.52945 -0.00832873 4.43266 -0.0125182 4.3512 0.0267865C3.73816 0.322892 3.05163 0.479374 2.36581 0.479374C1.67999 0.479374 0.993456 0.322892 0.380422 0.0268119C0.298959 -0.0125436 0.202198 -0.00835412 0.124678 0.037933C0.0471585 0.0842201 0 0.165902 0 0.253906C0 1.22347 0.637507 2.08947 1.58667 2.40899C1.80863 2.48341 2.01375 2.60764 2.17978 2.76824C2.22909 2.81592 2.29602 2.84273 2.36578 2.84273C2.43555 2.84273 2.50247 2.81592 2.55179 2.76824C2.71997 2.60556 2.91949 2.48465 3.1449 2.40888C3.61067 2.2522 4.0081 1.96399 4.29418 1.57536C4.58036 1.18663 4.73162 0.729701 4.73162 0.253906C4.73162 0.165902 4.68443 0.0841693 4.60694 0.0379076ZM3.86576 1.28108C3.64324 1.58333 3.33416 1.80748 2.97206 1.92931C2.75372 2.00271 2.54771 2.11202 2.36584 2.25002C2.18369 2.11179 1.97758 2.00251 1.7594 1.92933C1.1589 1.72722 0.718785 1.24373 0.575706 0.664472C1.1451 0.876458 1.75572 0.987187 2.36584 0.987187C2.97606 0.987187 3.58683 0.876382 4.15631 0.66432C4.10213 0.884228 4.00429 1.09291 3.86576 1.28108Z" transform="translate(2.1029413 2.691407)" id="Shape" fill="#012169" stroke="none" />
    <path d="M0.262868 0C0.117712 0 0 0.113699 0 0.253906L0 0.837891C0 0.978098 0.117712 1.0918 0.262868 1.0918C0.408023 1.0918 0.525735 0.978098 0.525735 0.837891L0.525735 0.253906C0.525735 0.113699 0.408023 0 0.262868 0Z" transform="translate(4.2058825 7.0078125)" id="Path" fill="#012169" stroke="none" />
  </g>
</svg>