<?xml version="1.0" encoding="UTF-8"?>
<svg width="28px" height="36px" viewBox="0 0 28 36" version="1.1" xmlns="http://www.w3.org/2000/svg" xmlns:xlink="http://www.w3.org/1999/xlink">
    <title>tax</title>
    <g id="Page-1" stroke="none" stroke-width="1" fill="none" fill-rule="evenodd">
        <g id="5" transform="translate(-860.000000, -585.000000)" fill="#0D7EBB" fill-rule="nonzero">
            <g id="tax" transform="translate(860.000000, 585.000000)">
                <path d="M16.5477692,0 C17.2976559,0 17.9811092,0.25129752 18.5370393,0.728414281 L18.6999315,0.878298409 L27.1093885,9.16714593 C27.6435151,9.69444223 27.9467707,10.3550665 27.993604,11.0874079 L28,11.2888693 L28,33.000239 C28,34.5949051 26.7307136,35.9034623 25.1351451,35.9948967 L24.9565649,36 L3.04343513,36 C1.42543754,36 0.0979350346,34.7483345 0.00517719948,33.1761929 L0,33.000239 L0,3.00002173 C0,1.40510424 1.2695324,0.09653803 2.86488128,0.00510334878 L3.04343513,0 L16.5477692,0 Z M16.5430076,1.76428918 L3.04396419,1.76428918 C2.35294173,1.76428918 1.79081225,2.31890858 1.79081225,3.00008692 L1.79081225,33.0003042 C1.79081225,33.6812088 2.35294173,34.2353197 3.04396419,34.2353197 L24.9570939,34.2353197 C25.6481164,34.2353197 26.2107749,33.6809545 26.2107749,33.0003042 L26.2107749,11.2940192 L17.4381162,11.2940192 C16.9441829,11.2940192 16.5430076,10.899062 16.5430076,10.4116791 L16.5430076,1.76428918 Z M18.3335554,3.01234255 L18.3335554,9.52901296 L24.9445287,9.52901296 L18.3335554,3.01234255 Z" id="Combined-Shape"></path>
                <path d="M17.6299676,21.8454646 C19.3111977,21.8454646 20.6726092,23.1869346 20.6726092,24.8447041 C20.6726092,26.5024736 19.3117268,27.844465 17.6299676,27.844465 C15.9476794,27.844465 14.586797,26.5024736 14.586797,24.8447041 C14.586797,23.1869346 15.9482085,21.8454646 17.6299676,21.8454646 Z M17.6299676,23.6101449 C16.9376622,23.6101449 16.3770802,24.1624957 16.3770802,24.8447041 C16.3770802,25.5271341 16.937358,26.0797195 17.6299676,26.0797195 C18.3220681,26.0797195 18.8823921,25.526932 18.8823921,24.8447041 C18.8823921,24.1624762 18.3217837,23.6101449 17.6299676,23.6101449 Z" id="Combined-Shape"></path>
                <path d="M10.3708921,14.6898717 C12.0526512,14.6898717 13.4135336,16.0313417 13.4135336,17.6891112 C13.4135336,19.3471414 12.0529158,20.6883506 10.3708921,20.6883506 C8.68913295,20.6883506 7.32772149,19.3471414 7.32772149,17.6891112 C7.32772149,16.0313417 8.68913295,14.6898717 10.3708921,14.6898717 Z M10.3708921,16.454552 C9.67832873,16.454552 9.11800468,17.0069028 9.11800468,17.6891112 C9.11800468,18.3717954 9.67854697,18.9241266 10.3708921,18.9241266 C11.0629925,18.9241266 11.6233166,18.3713391 11.6233166,17.6891112 C11.6233166,17.0068833 11.0629727,16.454552 10.3708921,16.454552 Z" id="Combined-Shape"></path>
                <path d="M8.98236614,24.9655654 C8.63310517,25.3098443 8.63310517,25.8687663 8.98236614,26.2133581 C9.15725454,26.386006 9.38639836,26.4715672 9.61527764,26.4715672 C9.84415692,26.4715672 10.0733007,26.3862602 10.2481891,26.2133581 L19.5676346,17.0268508 C19.9171601,16.6823112 19.9171601,16.1233893 19.5676346,15.7787975 C19.2183736,15.4345186 18.6513635,15.4345186 18.3017851,15.7787975 L8.98236614,24.9655654 Z" id="Path"></path>
            </g>
        </g>
    </g>
</svg>