<svg width="17" height="17" viewBox="0 0 17 17" fill="none" xmlns="http://www.w3.org/2000/svg">
<path d="M8.5 17C13.1944 17 17 13.1944 17 8.5C17 3.80558 13.1944 0 8.5 0C3.80558 0 0 3.80558 0 8.5C0 13.1944 3.80558 17 8.5 17Z" fill="#5D6E81"/>
<path d="M8.721 5.807C9.084 5.807 9.37 5.521 9.37 5.169C9.37 4.806 9.084 4.52 8.721 4.52C8.369 4.52 8.094 4.806 8.094 5.169C8.094 5.521 8.369 5.807 8.721 5.807ZM8.215 11.791C8.215 11.901 8.314 12 8.424 12H9.051C9.161 12 9.26 11.901 9.26 11.791V7.809C9.26 7.699 9.161 7.6 9.051 7.6H8.424C8.314 7.6 8.215 7.699 8.215 7.809V11.791Z" fill="white"/>
</svg>
