<?xml version="1.0" encoding="utf-8"?>
<!-- Generator: Adobe Illustrator 24.3.0, SVG Export Plug-In . SVG Version: 6.00 Build 0)  -->
<svg version="1.1" id="Layer_1" xmlns="http://www.w3.org/2000/svg" xmlns:xlink="http://www.w3.org/1999/xlink" x="0px" y="0px"
	 viewBox="0 0 52 52" style="enable-background:new 0 0 52 52;" xml:space="preserve">
<g>
	<g>
		<path d="M26,52C11.7,52,0,40.4,0,26S11.7,0,26,0s26,11.7,26,26S40.4,52,26,52z M26,1.5C12.5,1.5,1.5,12.5,1.5,26
			s11,24.5,24.5,24.5s24.5-11,24.5-24.5S39.5,1.5,26,1.5z"/>
	</g>
	<g>
		<g>
			<path d="M18.2,36.3l1.6-2.3c1.7,1.5,3.8,2.7,6.3,2.7c3,0,4.5-1.6,4.5-4.2c0-6.6-11.3-5.1-11.3-13c0-4.1,3-6.8,7.2-6.8
				c3.2,0,5.2,1.4,6.8,3.1l-1.8,2c-1.5-1.5-2.7-2.3-4.9-2.3c-2.5,0-4.1,1.6-4.1,3.9c0,5.9,11.3,4.3,11.3,13c0,4.3-3.1,7.2-7.8,7.2
				C23.1,39.4,20.1,38,18.2,36.3z M25.1,8.6h2.4v5.2h-2.4V8.6z M25.1,38.2h2.4v5.1h-2.4V38.2z"/>
		</g>
	</g>
</g>
<g>
	<g>
		<path d="M-101,80.6c-3.1,0-5.7-2.6-5.7-5.7s2.6-5.7,5.7-5.7c3.2,0,5.7,2.6,5.7,5.7S-97.8,80.6-101,80.6z M-101,70.7
			c-2.3,0-4.2,1.9-4.2,4.2s1.9,4.2,4.2,4.2c2.3,0,4.2-1.9,4.2-4.2S-98.6,70.7-101,70.7z"/>
	</g>
	<g>
		<path d="M-71.6,80.6c-3.1,0-5.7-2.6-5.7-5.7s2.6-5.7,5.7-5.7c3.2,0,5.7,2.6,5.7,5.7S-68.5,80.6-71.6,80.6z M-71.6,70.7
			c-2.3,0-4.2,1.9-4.2,4.2s1.9,4.2,4.2,4.2c2.3,0,4.2-1.9,4.2-4.2S-69.3,70.7-71.6,70.7z"/>
	</g>
	<g>
		<polygon points="-79.5,76.5 -96.1,76.5 -96.1,75 -81,75 -81,47.5 -112.8,47.5 -112.8,75 -105.8,75 -105.8,76.5 -114.3,76.5 
			-114.3,46 -79.5,46 		"/>
	</g>
	<g>
		<rect x="-80.3" y="74.5" width="3.7" height="1.5"/>
	</g>
	<g>
		<polygon points="-62.2,76 -66.6,76 -66.6,74.5 -63.7,74.5 -63.7,63.6 -70.9,52.8 -80.3,52.8 -80.3,51.3 -70,51.3 -62.2,63.1 		"/>
	</g>
	<g>
		<path d="M-66.7,61.1h-11.9v-6.3h7.1L-66.7,61.1z M-77.1,59.6h7.4l-2.5-3.3h-4.9V59.6z"/>
	</g>
	<g>
		<rect x="-80.3" y="62.9" width="17.3" height="1.5"/>
	</g>
	<g>
		<rect x="-123.7" y="51.3" width="18.2" height="1.5"/>
	</g>
	<g>
		<rect x="-122.4" y="56.5" width="3.7" height="1.5"/>
	</g>
	<g>
		<rect x="-115.6" y="56.5" width="18.7" height="1.5"/>
	</g>
	<g>
		<rect x="-113.6" y="62.2" width="10.1" height="1.5"/>
	</g>
	<g>
		<rect x="-118.7" y="62.2" width="3" height="1.5"/>
	</g>
	<g>
		<rect x="-123.3" y="62.2" width="2.1" height="1.5"/>
	</g>
</g>
</svg>
