<?xml version="1.0" encoding="utf-8"?>
<!-- Generator: Adobe Illustrator 24.2.1, SVG Export Plug-In . SVG Version: 6.00 Build 0)  -->
<svg version="1.1" id="Layer_1" xmlns="http://www.w3.org/2000/svg" xmlns:xlink="http://www.w3.org/1999/xlink" x="0px" y="0px"
	 viewBox="0 0 133.7 24" style="enable-background:new 0 0 133.7 24;" xml:space="preserve">
<style type="text/css">
	.st0{fill:#FEC600;}
</style>
<g>
	<polygon class="st0" points="0,9.3 5.9,15.1 4.8,24 12.4,19.9 19.9,24 18.5,14.8 24.3,9.3 16.4,7.5 12.1,0 7.5,8.1 	"/>
	<polygon class="st0" points="54,9.3 59.9,15.1 58.8,24 66.4,19.9 73.9,24 72.5,14.8 78.3,9.3 70.4,7.5 66.1,0 61.5,8.1 	"/>
	<polygon class="st0" points="27,9.3 32.9,15.1 31.8,24 39.4,19.9 46.9,24 45.5,14.8 51.3,9.3 43.4,7.5 39.1,0 34.5,8.1 	"/>
	<polygon class="st0" points="81.6,9.3 87.5,15.1 86.4,24 94,19.9 101.5,24 100.1,14.8 105.9,9.3 98,7.5 93.7,0 89.1,8.1 	"/>
	<polygon class="st0" points="109.4,9.3 115.3,15.1 114.2,24 121.8,19.9 129.3,24 127.9,14.8 133.7,9.3 125.8,7.5 121.5,0 
		116.9,8.1 	"/>
</g>
</svg>
