<?xml version="1.0" encoding="utf-8"?>
<svg width="28px" height="28px" viewBox="0 0 28 28" version="1.1" xmlns:xlink="http://www.w3.org/1999/xlink" xmlns="http://www.w3.org/2000/svg">
  <g id="002-shopping-cart-1" transform="translate(0.125 0.125)">
    <path d="M24.8625 10.125C24.525 10.0125 24.3 10.2375 24.1875 10.575L23.7375 12.4875L7.31252 14.625L5.28752 4.49998L12.9375 4.49998C13.275 4.49998 13.5001 4.27496 13.5001 3.93746C13.5001 3.59996 13.275 3.37495 12.9375 3.37495L5.0625 3.37495L4.49998 0.449982C4.49998 0.224965 4.16248 0 3.93746 0L0.562465 0C0.225018 0 0 0.225018 0 0.562465C0 0.899965 0.225018 1.12498 0.562518 1.12498L3.48754 1.12498L6.18754 14.85C6.52504 16.65 8.21254 18 10.0125 18L22.95 18C23.2875 18 23.5125 17.775 23.5125 17.4375C23.5125 17.1 23.2875 16.8749 22.95 16.8749L10.125 16.8749C9.22498 16.8749 8.32502 16.425 7.87498 15.6374L24.3 13.3875C24.525 13.3875 24.75 13.1624 24.75 12.9375L25.3125 10.6875C25.425 10.575 25.2 10.2375 24.8625 10.125Z" transform="translate(0 2.2500176)" id="Path" fill="#012169" stroke="#012169" stroke-width="0.25" />
    <path d="M2.81248 0C1.23746 0 0 1.23752 0 2.81248C0 4.38745 1.23752 5.62502 2.81248 5.62502C4.3875 5.62502 5.62496 4.3875 5.62496 2.81254C5.62496 1.23757 4.3875 0 2.81248 0ZM2.81248 4.50004C1.91246 4.50004 1.12498 3.7125 1.12498 2.81254C1.12498 1.91257 1.91246 1.12504 2.81248 1.12504C3.7125 1.12504 4.49998 1.91257 4.49998 2.81254C4.49998 3.7125 3.7125 4.50004 2.81248 4.50004Z" transform="translate(6.75 21.374983)" id="Shape" fill="#012169" stroke="#012169" stroke-width="0.25" />
    <path d="M5.0625 2.25002L3.375 2.25002L3.375 0.562518C3.375 0.225018 3.14998 0 2.81248 0C2.47503 0 2.25002 0.225018 2.25002 0.562518L2.25002 2.25002L0.562518 2.25002C0.225018 2.25002 0 2.47503 0 2.81254C0 3.15003 0.225018 3.37505 0.562518 3.37505L2.25002 3.37505L2.25002 5.06255C2.25002 5.40005 2.47503 5.62507 2.81254 5.62507C3.15003 5.62507 3.37505 5.40005 3.37505 5.06255L3.37505 3.37505L5.06255 3.37505C5.40005 3.37505 5.62507 3.15003 5.62507 2.81254C5.62502 2.47503 5.4 2.25002 5.0625 2.25002Z" transform="translate(17.999983 3.375)" id="Path" fill="#012169" stroke="#012169" stroke-width="0.25" />
    <path d="M2.81248 0C1.23746 0 0 1.23752 0 2.81248C0 4.38745 1.23746 5.62502 2.81248 5.62502C4.38745 5.62502 5.62496 4.3875 5.62496 2.81254C5.62496 1.23757 4.38745 0 2.81248 0ZM2.81248 4.50004C1.91246 4.50004 1.12498 3.7125 1.12498 2.81254C1.12498 1.91257 1.91246 1.12504 2.81248 1.12504C3.7125 1.12504 4.49998 1.91257 4.49998 2.81254C4.49998 3.7125 3.71245 4.50004 2.81248 4.50004Z" transform="translate(18.000034 21.374983)" id="Shape" fill="#012169" stroke="#012169" stroke-width="0.25" />
    <path d="M6.18748 0C2.81248 0 0 2.81248 0 6.18748C0 9.56248 2.81248 12.375 6.18748 12.375C9.56248 12.375 12.375 9.56248 12.375 6.18748C12.375 2.81248 9.56248 0 6.18748 0ZM6.18748 11.25C3.375 11.25 1.12498 8.99997 1.12498 6.18748C1.12498 3.375 3.375 1.12498 6.18748 1.12498C8.99997 1.12498 11.25 3.375 11.25 6.18748C11.25 9.00002 8.99997 11.25 6.18748 11.25Z" transform="translate(14.625035 0)" id="Shape" fill="#012169" stroke="#012169" stroke-width="0.25" />
  </g>
</svg>