<?xml version="1.0" encoding="utf-8"?>
<svg width="28px" height="28px" viewBox="0 0 28 28" version="1.1" xmlns:xlink="http://www.w3.org/1999/xlink" xmlns="http://www.w3.org/2000/svg">
  <g id="013-back-in-time">
    <path d="M25.0125 5.35592L25.8776 5.35592C26.1794 5.35592 26.4241 5.11118 26.4241 4.8094C26.4241 4.50761 26.1794 4.26288 25.8776 4.26288L23.8008 4.26288C23.4991 4.26288 23.2543 4.50761 23.2543 4.8094L23.2543 6.88616C23.2543 7.18795 23.4991 7.43268 23.8008 7.43268C24.1026 7.43268 24.3474 7.18795 24.3474 6.88616L24.3474 6.28483C26.0056 8.50483 26.907 11.1984 26.907 14C26.907 21.117 21.117 26.907 14 26.907C6.88305 26.907 1.09303 21.117 1.09303 14C1.09303 6.88305 6.88305 1.09303 14 1.09303C14.5264 1.09303 15.0561 1.125 15.5746 1.18802C15.8738 1.2242 16.1467 1.01111 16.1831 0.711455C16.2196 0.411855 16.0062 0.139362 15.7066 0.102964C15.1444 0.0346491 14.5703 0 14 0C10.2605 0 6.74472 1.45625 4.10051 4.10051C1.45625 6.74472 0 10.2605 0 14C0 17.7395 1.45625 21.2553 4.10051 23.8995C6.74472 26.5438 10.2605 28 14 28C17.7395 28 21.2553 26.5438 23.8995 23.8995C26.5438 21.2553 28 17.7395 28 14C28 10.8444 26.9458 7.81491 25.0125 5.35592Z" id="XMLID_1030_" fill="#012169" stroke="none" />
    <path d="M2.36606 4.69094C2.111 4.52949 1.77342 4.60546 1.61192 4.86036C0.364278 6.83087 -0.188031 9.20068 0.0567533 11.5333C0.305145 13.9004 1.37058 16.1327 3.0568 17.819C5.09175 19.854 7.76482 20.8715 10.4379 20.8715C13.1111 20.8715 15.7841 19.854 17.8191 17.819C21.889 13.7491 21.889 7.1267 17.8191 3.0568C16.1354 1.3732 13.9068 0.308148 11.5435 0.0578431C9.21527 -0.188909 6.84804 0.359083 4.87834 1.6006C4.62295 1.76155 4.54649 2.09903 4.70739 2.35436C4.86834 2.60975 5.20581 2.6862 5.46114 2.52531C9.17407 0.185127 13.9379 0.721423 17.0461 3.82968C20.6899 7.47347 20.6899 13.4023 17.0461 17.0461C13.4024 20.6899 7.47347 20.6899 3.82974 17.0461C0.764437 13.9808 0.220107 9.10187 2.53548 5.44513C2.69686 5.19007 2.62106 4.85243 2.36606 4.69094Z" transform="translate(3.562114 3.562172)" id="XMLID_1029_" fill="#012169" stroke="none" />
    <path d="M0.546516 1.09303L1.22048 1.09303C1.52227 1.09303 1.767 0.848303 1.767 0.546516C1.767 0.24473 1.52227 0 1.22048 0L0.546516 0C0.24473 0 0 0.24473 0 0.546516C0 0.848303 0.244675 1.09303 0.546516 1.09303Z" transform="translate(20.55825 13.4623375)" id="XMLID_1028_" fill="#012169" stroke="none" />
    <path d="M0 0.546516C0 0.848303 0.24473 1.09303 0.546516 1.09303L1.22048 1.09303C1.52227 1.09303 1.767 0.848303 1.767 0.546516C1.767 0.24473 1.52227 0 1.22048 0L0.546516 0C0.24473 1.55329e-15 0 0.244675 0 0.546516Z" transform="translate(5.6747527 13.44463)" id="XMLID_1004_" fill="#012169" stroke="none" />
    <path d="M1.09303 1.22048L1.09303 0.546516C1.09303 0.24473 0.848303 0 0.546516 0C0.24473 0 0 0.24473 0 0.546516L0 1.22048C0 1.52227 0.24473 1.767 0.546516 1.767C0.848303 1.767 1.09303 1.52227 1.09303 1.22048Z" transform="translate(13.4623375 5.6747527)" id="XMLID_1001_" fill="#012169" stroke="none" />
    <path d="M0 0.546516L0 1.22048C0 1.52227 0.24473 1.767 0.546516 1.767C0.848303 1.767 1.09303 1.52227 1.09303 1.22048L1.09303 0.546516C1.09303 0.24473 0.848303 0 0.546516 0C0.24473 0 0 0.244675 0 0.546516Z" transform="translate(13.44463 20.55825)" id="XMLID_1415_" fill="#012169" stroke="none" />
    <path d="M0.932999 2.04506C0.71953 1.8317 0.373585 1.8317 0.160061 2.04506C-0.0533537 2.25848 -0.0533537 2.60453 0.160061 2.818L2.01226 4.6702C1.87033 4.93471 1.78961 5.23677 1.78961 5.55736C1.78961 6.59552 2.6342 7.44011 3.67236 7.44011C4.71052 7.44011 5.55511 6.59552 5.55511 5.55736C5.55511 5.23677 5.47433 4.93471 5.33246 4.6702L9.0697 0.932958C9.28311 0.719543 9.28311 0.373489 9.0697 0.16002C8.85623 -0.05334 8.51028 -0.05334 8.29676 0.16002L4.55952 3.89726C4.295 3.75533 3.99294 3.67461 3.67236 3.67461C3.35177 3.67461 3.04971 3.75539 2.7852 3.89726L0.932999 2.04506ZM4.46207 5.55736C4.46207 5.99283 4.10782 6.34708 3.67236 6.34708C3.23689 6.34708 2.88264 5.99283 2.88264 5.55736C2.88264 5.1219 3.23689 4.76764 3.67236 4.76764C4.10782 4.76764 4.46207 5.1219 4.46207 5.55736Z" transform="translate(10.327642 8.442639)" id="XMLID_996_" fill="#012169" stroke="none" />
    <path d="M0.932903 0.932903C1.0351 0.831251 1.09352 0.69025 1.09352 0.546516C1.09352 0.402783 1.0351 0.262328 0.932903 0.160129C0.831251 0.0585319 0.690742 0 0.546516 0C0.402783 0 0.261781 0.0584772 0.160129 0.160129C0.0585319 0.261781 0 0.402783 0 0.546516C0 0.690797 0.0584772 0.831251 0.160129 0.932903C0.261781 1.0345 0.402783 1.09303 0.546516 1.09303C0.690742 1.09303 0.831251 1.0345 0.932903 0.932903Z" transform="translate(6.458621 6.458621)" id="XMLID_980_" fill="#012169" stroke="none" />
    <path d="M0.546516 1.09303C0.690851 1.09303 0.831853 1.03505 0.93345 0.932903C1.0351 0.831251 1.09363 0.690742 1.09363 0.546516C1.09363 0.402783 1.03516 0.261781 0.93345 0.160129C0.831853 0.0585319 0.690851 0 0.546516 0C0.402783 0 0.261781 0.0584772 0.160184 0.160129C0.0585319 0.261781 0 0.402783 0 0.546516C0 0.690797 0.0584773 0.831251 0.160184 0.932903C0.261781 1.03505 0.402783 1.09303 0.546516 1.09303Z" transform="translate(17.239202 0.53984886)" id="XMLID_979_" fill="#012169" stroke="none" />
  </g>
</svg>