<svg id="icon_laundry" xmlns="http://www.w3.org/2000/svg" width="55" height="54.154" viewBox="0 0 55 54.154">
  <ellipse id="Oval_3_Copy_2" data-name="Oval 3 Copy 2" cx="27.5" cy="27.077" rx="27.5" ry="27.077" transform="translate(0 0)" fill="#fff"/>
  <path id="Fill_1" data-name="Fill 1" d="M23.053,18.615a.654.654,0,0,1-.081-.007.706.706,0,0,0-.088-.007H5.45a.656.656,0,0,1-.434-.154l-.058-.038a.365.365,0,0,1-.19-.215l-3.1-9.865H.654a.738.738,0,0,1,0-1.467H28.115a.738.738,0,0,1,0,1.467H26.883L23.789,18.2a.6.6,0,0,1-.619.407h-.044A.2.2,0,0,1,23.053,18.615ZM5.558,16.253l.331,1.174H8.083V16.253Zm14.827,0h0v1.174h2.28L23,16.253Zm-5.4,0h0v1.174h3.9V16.253Zm-5.4,0h0v1.174h4.2V16.253Zm10.8-2.641v1.467h3.008l.4-1.467Zm-5.4,0v1.467h3.9V13.612Zm-5.4,0v1.467h4.2V13.612Zm-4.82,0,.4,1.467H8.083V13.612ZM20.386,10.97v1.468h3.805l.463-1.468Zm-5.4,0v1.468h3.9V10.97Zm-5.4,0v1.468h4.2V10.97Zm-5.683,0,.464,1.468H8.083V10.97H3.9ZM20.386,8.329V9.8h4.667l.464-1.468Zm-5.4,0V9.8h3.9V8.329Zm-5.4,0V9.8h4.2V8.329Zm-6.545,0L3.5,9.8H8.083V8.329ZM13.875,6.394a.647.647,0,0,1-.653-.64A4.533,4.533,0,0,0,8.645,1.278,4.533,4.533,0,0,0,4.067,5.755a.654.654,0,0,1-1.308,0A5.827,5.827,0,0,1,8.643,0,5.9,5.9,0,0,1,13.6,2.65,5.693,5.693,0,0,1,17.026,1.5h.093a5.157,5.157,0,0,1,3.529,1.431,3.248,3.248,0,0,1,1.726-.493,3.178,3.178,0,0,1,3.208,3.139.654.654,0,0,1-1.308,0,1.9,1.9,0,0,0-3.805,0,.654.654,0,0,1-1.308,0,3.083,3.083,0,0,1,.547-1.753,3.847,3.847,0,0,0-2.616-1.046h-.07a4.426,4.426,0,0,0-2.838,1.045,5.6,5.6,0,0,1,.34,1.928.619.619,0,0,1-.181.446A.654.654,0,0,1,13.875,6.394Z" transform="translate(13.538 17.769)" fill="#00237e"/>
</svg>
