<?xml version="1.0" encoding="utf-8"?>
<!-- Generator: Adobe Illustrator 24.3.0, SVG Export Plug-In . SVG Version: 6.00 Build 0)  -->
<svg version="1.1" id="Layer_1" xmlns="http://www.w3.org/2000/svg" xmlns:xlink="http://www.w3.org/1999/xlink" x="0px" y="0px"
	 viewBox="0 0 146 40" style="enable-background:new 0 0 146 40;" xml:space="preserve">
<style type="text/css">
	.st0{enable-background:new    ;}
	.st1{fill:#00237E;}
</style>
<desc>Created with Sketch.</desc>
<g class="st0">
	<path class="st1" d="M19.7,4.3C19.7,4.1,20,4,20.2,4h0.4c0.1,0,0.3,0.1,0.4,0.2l5.6,10.4h0l5.6-10.4C32.2,4.1,32.4,4,32.5,4h0.4
		c0.2,0,0.4,0.2,0.4,0.4l2.7,16.1c0,0.3-0.2,0.5-0.5,0.5h-2.8c-0.2,0-0.4-0.2-0.5-0.4l-1.1-7.4h0l-4,7.8c-0.1,0.1-0.3,0.3-0.4,0.3
		h-0.4c-0.1,0-0.3-0.1-0.4-0.3l-4.1-7.8h0l-1.1,7.4c0,0.2-0.2,0.4-0.5,0.4h-2.8c-0.3,0-0.5-0.2-0.5-0.5L19.7,4.3z"/>
	<path class="st1" d="M41.2,4.7c0-0.2,0.2-0.5,0.5-0.5h2.9c0.2,0,0.5,0.2,0.5,0.5v15.9c0,0.2-0.2,0.5-0.5,0.5h-2.9
		c-0.2,0-0.5-0.2-0.5-0.5V4.7z"/>
	<path class="st1" d="M51.1,4.7c0-0.2,0.2-0.5,0.5-0.5h7.2c3,0,5.2,2.3,5.2,5.2c0,2.2-1.3,4-3.6,4.8l3.3,6.1c0.2,0.3,0,0.7-0.4,0.7
		h-3.2c-0.2,0-0.3-0.1-0.4-0.2l-3.2-6.4h-1.7v6.1c0,0.2-0.2,0.5-0.5,0.5h-2.9c-0.3,0-0.5-0.2-0.5-0.5V4.7z M58.4,11.4
		c1,0,1.8-0.8,1.8-1.9s-0.8-1.8-1.8-1.8h-3.6v3.7H58.4z"/>
	<path class="st1" d="M67.4,20.4l7.5-16.2C75,4.1,75.1,4,75.3,4h0.2c0.2,0,0.3,0.1,0.4,0.3l7.5,16.2c0.1,0.3,0,0.6-0.4,0.6h-2.7
		c-0.4,0-0.6-0.1-0.8-0.6l-0.9-1.9h-6.5l-0.9,1.9c-0.1,0.3-0.4,0.6-0.9,0.6h-2.6C67.4,21,67.2,20.7,67.4,20.4z M77.2,15.2l-1.8-4h0
		l-1.8,4H77.2z"/>
	<path class="st1" d="M94.9,4c2.4,0,4.2,0.7,5.8,2.2c0.2,0.2,0.2,0.5,0,0.7l-1.9,1.9c-0.2,0.2-0.4,0.2-0.6,0c-1-0.9-2.1-1.2-3.2-1.2
		c-2.7,0-4.7,2.3-4.7,4.9c0,2.7,2,4.9,4.7,4.9c1.3,0,2.4-0.4,3.2-1.2c0.2-0.1,0.5-0.1,0.6,0l1.9,2c0.2,0.2,0.1,0.5,0,0.6
		c-1.6,1.6-3.7,2.3-5.8,2.3c-4.8,0-8.7-3.8-8.7-8.6C86.2,7.8,90.1,4,94.9,4z"/>
	<path class="st1" d="M105.8,4.7c0-0.2,0.2-0.5,0.5-0.5h2.9c0.2,0,0.5,0.2,0.5,0.5v12.8h5.7c0.3,0,0.5,0.2,0.5,0.5v2.6
		c0,0.2-0.2,0.5-0.5,0.5h-9c-0.3,0-0.5-0.2-0.5-0.5V4.7z"/>
	<path class="st1" d="M120.3,4.7c0-0.2,0.2-0.5,0.5-0.5h9.9c0.3,0,0.5,0.2,0.5,0.5v2.6c0,0.2-0.2,0.5-0.5,0.5H124v3h5.5
		c0.2,0,0.5,0.2,0.5,0.5v2.6c0,0.3-0.2,0.5-0.5,0.5H124v3.2h6.6c0.3,0,0.5,0.2,0.5,0.5v2.6c0,0.2-0.2,0.5-0.5,0.5h-9.9
		c-0.3,0-0.5-0.2-0.5-0.5C120.3,20.5,120.3,4.7,120.3,4.7z"/>
</g>
<g class="st0">
	<path class="st1" d="M45,32.4c0.6,0.2,1.3,0.7,1.3,1.6c0,1.2-1,1.9-2.2,1.9h-2.5c-0.1,0-0.2-0.1-0.2-0.2v-6.6
		c0-0.1,0.1-0.2,0.2-0.2H44c1.2,0,2.1,0.8,2.1,1.9C46.1,31.7,45.5,32.2,45,32.4L45,32.4L45,32.4z M43.8,31.8c0.4,0,0.7-0.3,0.7-0.7
		s-0.3-0.7-0.7-0.7H43v1.4L43.8,31.8L43.8,31.8z M43.8,34.6c0.5,0,0.8-0.2,0.8-0.7c0-0.4-0.3-0.7-0.8-0.7H43v1.4H43.8z"/>
	<path class="st1" d="M52.1,32.6l-2.2-3.3c-0.1-0.1,0-0.3,0.2-0.3h1.3c0.1,0,0.1,0,0.2,0.1l1.4,2l1.4-2c0,0,0.1-0.1,0.2-0.1h1.3
		c0.2,0,0.2,0.2,0.2,0.3l-2.2,3.3v3.2c0,0.1-0.1,0.2-0.2,0.2h-1.2c-0.1,0-0.2-0.1-0.2-0.2C52.1,35.8,52.1,32.6,52.1,32.6z"/>
	<path class="st1" d="M64.5,35.7l3.1-6.7c0-0.1,0.1-0.1,0.2-0.1h0.1c0.1,0,0.1,0,0.2,0.1l3.1,6.7c0.1,0.1,0,0.3-0.2,0.3h-1.1
		c-0.2,0-0.3-0.1-0.3-0.3L69.2,35h-2.7l-0.4,0.8C66.1,35.9,66,36,65.8,36h-1.1C64.5,36,64.4,35.9,64.5,35.7z M68.6,33.6L67.8,32h0
		l-0.8,1.6H68.6z"/>
	<path class="st1" d="M75.3,29.2c0-0.1,0.1-0.2,0.2-0.2h1.2c0.1,0,0.2,0.1,0.2,0.2v5.3h2.4c0.1,0,0.2,0.1,0.2,0.2v1.1
		c0,0.1-0.1,0.2-0.2,0.2h-3.8c-0.1,0-0.2-0.1-0.2-0.2L75.3,29.2L75.3,29.2z"/>
	<path class="st1" d="M86.7,28.9c2,0,3.6,1.6,3.6,3.6c0,2-1.6,3.6-3.6,3.6c-2,0-3.6-1.6-3.6-3.6S84.7,28.9,86.7,28.9z M86.7,34.5
		c1.1,0,2-0.9,2-2c0-1.1-0.9-2-2-2c-1.1,0-2,0.9-2,2C84.7,33.6,85.6,34.5,86.7,34.5z"/>
	<path class="st1" d="M94.8,29.2c0-0.1,0.1-0.2,0.2-0.2h4.1c0.1,0,0.2,0.1,0.2,0.2v1.1c0,0.1-0.1,0.2-0.2,0.2h-2.8v1.4h2.3
		c0.1,0,0.2,0.1,0.2,0.2v1.1c0,0.1-0.1,0.2-0.2,0.2h-2.3v2.4c0,0.1-0.1,0.2-0.2,0.2H95c-0.1,0-0.2-0.1-0.2-0.2V29.2z"/>
</g>
<g class="st0">
	<path class="st1" d="M104.7,30.5h-1.4c-0.1,0-0.2-0.1-0.2-0.2v-1.1c0-0.1,0.1-0.2,0.2-0.2h4.4c0.1,0,0.2,0.1,0.2,0.2v1.1
		c0,0.1-0.1,0.2-0.2,0.2h-1.4v5.3c0,0.1-0.1,0.2-0.2,0.2h-1.2c-0.1,0-0.2-0.1-0.2-0.2L104.7,30.5L104.7,30.5z"/>
</g>
<polygon id="Fill-1" class="st1" points="6.5,7 7.4,10.8 11,9.7 8.3,12.5 11,15.3 7.4,14.2 6.5,18 5.6,14.2 2,15.3 4.7,12.5 2,9.7 
	5.6,10.8 "/>
<polygon id="Fill-1-Copy" class="st1" points="139.5,7 140.4,10.8 144,9.7 141.3,12.5 144,15.3 140.4,14.2 139.5,18 138.6,14.2 
	135,15.3 137.7,12.5 135,9.7 138.6,10.8 "/>
</svg>
