<?xml version="1.0" encoding="utf-8"?>
<svg width="39px" height="24px" viewBox="0 0 39 24" version="1.1" xmlns:xlink="http://www.w3.org/1999/xlink" xmlns="http://www.w3.org/2000/svg">
  <g id="Group-7-Copy">
    <path d="M36.2699 10.1744L35.26 6.24437C35.5361 6.18731 35.7433 5.949 35.7433 5.66348L35.7433 5.02982C35.7433 3.65402 34.5927 2.53477 33.1786 2.53477L28.5784 2.53477L28.5784 1.22774C28.5784 0.550734 28.0123 0 27.3164 0L3.86741 0C3.1715 0 2.60539 0.550734 2.60539 1.22774L2.60539 12.0001C2.60539 12.3282 2.87877 12.5942 3.21606 12.5942C3.55327 12.5942 3.82673 12.3282 3.82673 12.0001L3.82673 1.22774C3.82673 1.20588 3.84494 1.18817 3.86741 1.18817L27.3163 1.18817C27.3387 1.18817 27.357 1.20588 27.357 1.22774L27.357 12.0003C27.357 12.3283 27.6303 12.5943 27.9676 12.5943C28.3048 12.5943 28.5783 12.3284 28.5783 12.0003L28.5783 11.3268L35.7818 11.3268C35.7824 11.3268 35.7829 11.327 35.7834 11.327C35.784 11.327 35.7845 11.3269 35.7851 11.3269C36.6715 11.3275 37.4242 11.8935 37.6827 12.6734L35.7839 12.6734C35.4467 12.6734 35.1732 12.9394 35.1732 13.2675L35.1732 14.5348C35.1732 15.5612 36.0315 16.3962 37.0866 16.3962L37.7787 16.3962L37.7787 19.01L36.1819 19.01C35.6574 17.5367 34.2177 16.4753 32.5271 16.4753C30.8364 16.4753 29.3966 17.5367 28.8722 19.01L28.5781 19.01L28.5781 14.5347C28.5781 14.2067 28.3048 13.9406 27.9675 13.9406C27.6303 13.9406 27.3568 14.2066 27.3568 14.5347L27.3568 19.0099L14.6873 19.0099C14.1627 17.5365 12.723 16.4752 11.0324 16.4752C9.34174 16.4752 7.90193 17.5365 7.37749 19.0099L3.86741 19.0099C3.84494 19.0099 3.82673 18.9922 3.82673 18.9703L3.82673 17.6634L6.47287 17.6634C6.81008 17.6634 7.08354 17.3974 7.08354 17.0693C7.08354 16.7412 6.81016 16.4752 6.47287 16.4752L0.610671 16.4752C0.273458 16.4752 0 16.7412 0 17.0693C0 17.3974 0.273381 17.6634 0.610671 17.6634L2.60546 17.6634L2.60546 18.9703C2.60546 19.6473 3.17157 20.1981 3.86748 20.1981L7.16604 20.1981C7.16588 20.2113 7.16497 20.2244 7.16497 20.2376C7.16497 22.3122 8.89994 24 11.0324 24C13.1648 24 14.8998 22.3122 14.8998 20.2376C14.8998 20.2243 14.8989 20.2113 14.8987 20.1981L28.6607 20.1981C28.6606 20.2113 28.6596 20.2244 28.6596 20.2376C28.6596 22.3122 30.3946 24 32.5271 24C34.6595 24 36.3945 22.3122 36.3945 20.2376C36.3945 20.2243 36.3935 20.2113 36.3934 20.1981L38.3893 20.1981C38.7265 20.1981 39 19.9321 39 19.604L39 13.2673C39.0001 11.7029 37.8135 10.403 36.2699 10.1744ZM28.5784 3.72287L33.1786 3.72287C33.9193 3.72287 34.522 4.30917 34.522 5.02982L34.522 5.06939L28.5784 5.06939L28.5784 3.72287ZM28.5784 10.1387L28.5784 6.25749L34.0045 6.25749L35.0019 10.1387L28.5784 10.1387ZM11.0324 22.8121C9.5733 22.8121 8.38624 21.6573 8.38624 20.2378C8.38624 18.8183 9.5733 17.6635 11.0324 17.6635C12.4915 17.6635 13.6785 18.8183 13.6785 20.2378C13.6785 21.6573 12.4915 22.8121 11.0324 22.8121ZM32.5272 22.8121C31.0681 22.8121 29.8811 21.6573 29.8811 20.2378C29.8811 18.8183 31.0681 17.6635 32.5272 17.6635C33.9863 17.6635 35.1733 18.8183 35.1733 20.2378C35.1733 21.6573 33.9863 22.8121 32.5272 22.8121ZM37.7788 15.208L37.0867 15.208C36.7051 15.208 36.3946 14.906 36.3946 14.5347L36.3946 13.8614L37.7787 13.8614L37.7787 15.208L37.7788 15.208Z" id="Shape" fill="#012169" stroke="none" />
    <path d="M1.26202 0C0.56611 0 0 0.550734 0 1.22774C0 1.90475 0.56611 2.45548 1.26202 2.45548C1.95793 2.45548 2.52404 1.90475 2.52404 1.22774C2.52404 0.550734 1.95793 0 1.26202 0Z" transform="translate(9.770357 19.010044)" id="Path" fill="#012169" stroke="none" />
    <path d="M1.26202 0C0.56611 0 0 0.550734 0 1.22774C0 1.90475 0.56611 2.45548 1.26202 2.45548C1.95793 2.45548 2.52404 1.90475 2.52404 1.22774C2.52404 0.550734 1.95793 0 1.26202 0Z" transform="translate(31.265188 19.010044)" id="Path" fill="#012169" stroke="none" />
    <path d="M9.72968 0L0.610671 0C0.273458 0 0 0.265956 0 0.594085C0 0.922213 0.273381 1.18817 0.610671 1.18817L9.72968 1.18817C10.0669 1.18817 10.3404 0.922213 10.3404 0.594085C10.3404 0.265956 10.067 0 9.72968 0Z" transform="translate(15.632556 16.47542)" id="Path" fill="#012169" stroke="none" />
    <path d="M8.42699 0L0.610671 0C0.273458 0 0 0.265956 0 0.594085C0 0.922213 0.273381 1.18817 0.610671 1.18817L8.42699 1.18817C8.7642 1.18817 9.03766 0.922213 9.03766 0.594085C9.03766 0.265956 8.7642 0 8.42699 0Z" transform="translate(1.302694 13.940723)" id="Path" fill="#012169" stroke="none" />
    <path d="M10.1614 0.173948C9.92302 -0.057995 9.5363 -0.057995 9.29788 0.174022L3.86742 5.45691L1.04243 2.70865C0.803939 2.47663 0.417289 2.47663 0.178871 2.70865C-0.0596236 2.94066 -0.0596236 3.31674 0.178871 3.54875L3.43568 6.71711C3.55489 6.83315 3.7112 6.8911 3.86742 6.8911C4.02365 6.8911 4.18004 6.83315 4.29917 6.71711L10.1614 1.01413C10.3999 0.782038 10.3999 0.405965 10.1614 0.173948Z" transform="translate(11.073108 5.7030225)" id="Path" fill="#012169" stroke="none" />
  </g>
</svg>