<?xml version="1.0"?>
<svg xmlns="http://www.w3.org/2000/svg" xmlns:xlink="http://www.w3.org/1999/xlink" xmlns:svgjs="http://svgjs.com/svgjs" version="1.1" width="512" height="512" x="0" y="0" viewBox="0 0 512 512" style="enable-background:new 0 0 512 512" xml:space="preserve" class=""><g><g xmlns="http://www.w3.org/2000/svg"><path d="m106 391c-8.284 0-15 6.716-15 15 0 24.813 20.187 45 45 45 8.284 0 15-6.716 15-15s-6.716-15-15-15c-8.271 0-15-6.729-15-15 0-8.284-6.716-15-15-15z" fill="#00237e" data-original="#000000" style="" class=""/><path d="m76 361c8.284 0 15-6.716 15-15 0-8.271 6.729-15 15-15 8.284 0 15-6.716 15-15s-6.716-15-15-15c-24.813 0-45 20.187-45 45 0 8.284 6.716 15 15 15z" fill="#00237e" data-original="#000000" style="" class=""/><path d="m226 391c-24.813 0-45 20.187-45 45 0 8.284 6.716 15 15 15s15-6.716 15-15c0-8.271 6.729-15 15-15 8.284 0 15-6.716 15-15s-6.716-15-15-15z" fill="#00237e" data-original="#000000" style="" class=""/><path d="m166 512c91.218 0 166-74.795 166-166 0-80.786-111.968-273.062-153.289-338.964-2.742-4.378-7.545-7.036-12.711-7.036s-9.969 2.658-12.711 7.036c-41.704 66.513-153.289 258.067-153.289 338.964 0 91.218 74.797 166 166 166zm.001-468.34c47.188 78.142 135.999 238.403 135.999 302.34 0 74.991-61.01 136-136 136s-136-61.009-136-136c0-63.916 88.814-224.195 136.001-302.34z" fill="#00237e" data-original="#000000" style="" class=""/><path d="m407 0c-57.897 0-105 47.103-105 105s47.103 105 105 105 105-47.103 105-105-47.103-105-105-105zm0 180c-41.355 0-75-33.645-75-75s33.645-75 75-75 75 33.645 75 75-33.645 75-75 75z" fill="#00237e" data-original="#000000" style="" class=""/><path d="m447.606 64.394c-5.857-5.858-15.355-5.858-21.213 0l-19.393 19.393-19.394-19.394c-5.857-5.858-15.355-5.858-21.213 0s-5.858 15.355 0 21.213l19.394 19.394-19.394 19.394c-5.858 5.858-5.858 15.355 0 21.213 5.857 5.858 15.355 5.859 21.213 0l19.394-19.394 19.394 19.394c5.857 5.858 15.355 5.859 21.213 0 5.858-5.858 5.858-15.355 0-21.213l-19.394-19.394 19.394-19.394c5.858-5.857 5.858-15.355-.001-21.212z" fill="#00237e" data-original="#000000" style="" class=""/><path d="m166 301c24.813 0 45-20.187 45-45 0-8.284-6.716-15-15-15s-15 6.716-15 15c0 8.271-6.729 15-15 15-8.284 0-15 6.716-15 15s6.716 15 15 15z" fill="#00237e" data-original="#000000" style="" class=""/><path d="m226 361c24.813 0 45-20.187 45-45 0-8.284-6.716-15-15-15s-15 6.716-15 15c0 8.271-6.729 15-15 15-8.284 0-15 6.716-15 15s6.716 15 15 15z" fill="#00237e" data-original="#000000" style="" class=""/><circle cx="166" cy="346" r="15" fill="#00237e" data-original="#000000" style="" class=""/><path d="m106 271c8.284 0 15-6.716 15-15s-6.716-16-15-16-15 7.716-15 16 6.716 15 15 15z" fill="#00237e" data-original="#000000" style="" class=""/></g></g></svg>
