<?xml version="1.0"?>
<svg xmlns="http://www.w3.org/2000/svg" xmlns:xlink="http://www.w3.org/1999/xlink" xmlns:svgjs="http://svgjs.com/svgjs" version="1.1" width="512" height="512" x="0" y="0" viewBox="0 0 510 510" style="enable-background:new 0 0 512 512" xml:space="preserve" class=""><g><g xmlns="http://www.w3.org/2000/svg"><path d="m435.313 74.688c-48.164-48.164-112.2-74.688-180.313-74.688s-132.149 26.524-180.312 74.688c-48.164 48.163-74.688 112.199-74.688 180.312s26.524 132.149 74.688 180.313c48.163 48.163 112.199 74.687 180.312 74.687s132.149-26.524 180.313-74.688 74.687-112.199 74.687-180.312-26.524-132.149-74.687-180.312zm-153.612 265.291c-25.812 21.616-50.113 34.384-74.291 39.032-27.95 5.376-56.656-1.719-73.126-18.071-16.809-16.687-19.109-44.784-4.924-60.128 7.191-7.778 18.039-12.994 29.523-18.516 5.358-2.576 10.898-5.239 16.31-8.281 12.839-7.217 24.55-16.655 34.594-27.782l105.399 60.808c-10.046 11.639-21.235 22.68-33.485 32.938zm-54.196-118.159c8.172-14.229 13.885-29.855 16.633-45.665 2.345-13.49 7.332-33.788 12.326-46.481 9.116-23.175 25.524-29.683 47.419-29.683 4.15 0 8.501.234 13.033.633 32.371 2.847 46.476 29.446 52.003 45.049 5.116 14.443 5.472 31.962 1.086 53.556-5.907 29.091-18.358 57.578-36.33 83.843zm156.206-112.946c-11.596-16.858-27.226-28.704-45.629-34.477l4.82-26.51c26.081 11.112 49.644 27.018 69.593 46.595zm-9.845 165.843 42.89 7.589 5.227-29.541-34.973-6.188c4.374-11.012 7.936-22.21 10.641-33.521l35.896 3.494 2.906-29.859-33.906-3.3c1.438-17.792-.327-33.545-5.346-47.721l35.925-17.963c29.371 38.017 46.874 85.646 46.874 137.293 0 35.575-8.312 69.24-23.076 99.177l-97.215-56.086c5.132-7.631 9.866-15.43 14.157-23.374zm-118.866-244.717c20.491 0 40.344 2.769 59.222 7.925l-5.844 32.143c-11.467-.325-25.233.557-38.201 5.471-3.204 1.214-6.25 2.648-9.163 4.262l-25.407-25.407-21.213 21.213 24.261 24.261c-3.963 5.531-7.346 11.8-10.109 18.824-2.498 6.349-4.897 13.975-7.033 21.759l-35.942-14.377-11.142 27.854 40.325 16.13c-.056.317-.119.651-.173.961-2.15 12.368-6.635 24.622-13.058 35.813l-133.42-76.975c40.425-60.177 109.112-99.857 186.897-99.857zm-201.924 125.823 129.975 74.986c-6.795 6.701-14.389 12.463-22.557 17.054-3.446 1.937-7.061 3.744-10.84 5.578l-29.048-29.048-21.213 21.213 22.571 22.571c-5.202 3.456-10.157 7.428-14.633 12.27-3.313 3.583-6.162 7.507-8.552 11.694l-30.527-6.784-6.508 29.285 28.448 6.322c-.272 3.827-.261 7.734.067 11.701.834 10.103 3.694 20.044 8.208 29.097l-29.037 20.326c-24.857-36.186-39.43-79.964-39.43-127.088 0-35.575 8.312-69.24 23.076-99.177zm201.924 324.177c-66.165 0-125.745-28.712-166.951-74.325l28.689-20.082c15.38 13.6 35.994 22.067 58.389 24.495v34.912h30v-35.26c2.647-.342 5.298-.758 7.947-1.267 10.318-1.984 20.565-5.118 30.814-9.429l15.827 36.687 27.547-11.883-16.691-38.688c10.048-6.228 20.157-13.609 30.392-22.181 1.068-.894 2.117-1.802 3.17-2.707l25.931 28.842 22.309-20.059-26.405-29.368c5.463-5.654 10.674-11.463 15.62-17.415l100.308 57.87c-40.425 60.178-109.111 99.858-186.896 99.858z" fill="#00237e" data-original="#000000" style="" class=""/><path d="m180 315h30v30h-30z" fill="#00237e" data-original="#000000" style="" class=""/><path d="m295 150h30v30h-30z" fill="#00237e" data-original="#000000" style="" class=""/></g></g></svg>
