<?xml version="1.0" encoding="utf-8"?>
<svg width="27px" height="27px" viewBox="0 0 27 27" version="1.1" xmlns:xlink="http://www.w3.org/1999/xlink" xmlns="http://www.w3.org/2000/svg">
  <g id="checkmark" transform="translate(0.625 0.625)">
    <path d="M12.5 25C19.4036 25 25 19.4036 25 12.5C25 5.59644 19.4036 0 12.5 0C5.59644 0 0 5.59644 0 12.5C0 19.4036 5.59644 25 12.5 25Z" id="Oval" fill="#012169" fill-rule="evenodd" stroke="none" />
    <g id="010-secure" transform="translate(6.730769 8.653846)">
      <path d="M11.3215 1.97551L5.10697 8.03033C4.96237 8.17122 4.77272 8.24176 4.58317 8.24176C4.39363 8.24176 4.20398 8.17131 4.05938 8.03033L0.217005 4.28669C0.0780308 4.15139 0 3.96777 0 3.77636C0 3.58495 0.0781296 3.40133 0.217005 3.26602L0.979929 2.5227C1.26924 2.24093 1.73831 2.24083 2.02752 2.5227L4.58317 5.01269L9.51097 0.211428C9.64984 0.0760256 9.8383 0 10.0348 0C10.2312 0 10.4197 0.0760256 10.5586 0.211428L11.3215 0.954747C11.6108 1.23662 11.6108 1.69364 11.3215 1.97551Z" id="Path" fill="#FFFFFF" stroke="none" />
    </g>
  </g>
</svg>