<svg id="five-stars" xmlns="http://www.w3.org/2000/svg" width="107" height="19.27" viewBox="0 0 107 19.27">
  <path id="Path_342" data-name="Path 342" d="M16.1,19.267,9.945,14.978l-6.3,4.079,2.179-7.179L0,7.149,7.5,7l2.7-7,2.458,7.089,7.493.4-5.982,4.528Z" fill="#ffc400"/>
  <path id="Path_343" data-name="Path 343" d="M76.1,166.82a14.086,14.086,0,0,1-8.937,10.165l-.54,1.779,6.3-4.077,6.157,4.292-1.941-7.249,5.984-4.528Z" transform="translate(-62.971 -159.709)" fill="#ffc400"/>
  <path id="Path_344" data-name="Path 344" d="M150.35,19.267l-6.155-4.289-6.3,4.079,2.177-7.179L134.25,7.149l7.5-.147,2.7-7,2.458,7.089,7.491.4-5.982,4.528Z" transform="translate(-112.538)" fill="#ffc400"/>
  <path id="Path_345" data-name="Path 345" d="M210.356,166.82a14.083,14.083,0,0,1-8.937,10.165l-.539,1.779,6.295-4.077,6.157,4.292-1.941-7.249,5.984-4.528Z" transform="translate(-175.517 -159.709)" fill="#ffc400"/>
  <path id="Path_346" data-name="Path 346" d="M284.6,19.267l-6.155-4.289-6.3,4.079,2.177-7.179L268.5,7.149,276,7l2.7-7,2.458,7.089,7.491.4-5.981,4.528Z" transform="translate(-225.075)" fill="#ffc400"/>
  <path id="Path_347" data-name="Path 347" d="M344.606,166.82a14.084,14.084,0,0,1-8.936,10.165l-.54,1.779,6.3-4.077,6.156,4.292-1.941-7.249,5.984-4.528Z" transform="translate(-288.055 -159.709)" fill="#ffc400"/>
  <path id="Path_348" data-name="Path 348" d="M418.85,19.267l-6.155-4.289-6.3,4.079,2.177-7.179L402.75,7.149l7.5-.147,2.7-7,2.458,7.089,7.491.4-5.981,4.528Z" transform="translate(-337.613)" fill="#ffc400"/>
  <path id="Path_349" data-name="Path 349" d="M478.877,166.82a14.089,14.089,0,0,1-8.937,10.165l-.54,1.779,6.3-4.077,6.152,4.292-1.941-7.249,5.984-4.528Z" transform="translate(-400.609 -159.709)" fill="#ffc400"/>
  <path id="Path_350" data-name="Path 350" d="M553.11,19.267l-6.155-4.289-6.3,4.079,2.177-7.179L537.01,7.149l7.5-.147,2.7-7,2.458,7.089,7.493.4-5.982,4.528Z" transform="translate(-450.159)" fill="#ffc400"/>
  <path id="Path_351" data-name="Path 351" d="M613.107,166.82a14.089,14.089,0,0,1-8.937,10.165l-.54,1.779,6.3-4.077,6.156,4.292-1.941-7.249,5.984-4.528Z" transform="translate(-513.13 -159.709)" fill="#ffc400"/>
</svg>
