<?xml version="1.0" encoding="utf-8"?>
<!-- Generator: Adobe Illustrator 24.1.1, SVG Export Plug-In . SVG Version: 6.00 Build 0)  -->
<svg version="1.1"
	 id="svg5230" xmlns:cc="http://creativecommons.org/ns#" xmlns:dc="http://purl.org/dc/elements/1.1/" xmlns:rdf="http://www.w3.org/1999/02/22-rdf-syntax-ns#" xmlns:svg="http://www.w3.org/2000/svg"
	 xmlns="http://www.w3.org/2000/svg" xmlns:xlink="http://www.w3.org/1999/xlink" x="0px" y="0px" viewBox="0 0 1234.3 363.7"
	 style="enable-background:new 0 0 1234.3 363.7;" xml:space="preserve">
<style type="text/css">
	.st0{fill:#00237E;}
	.st1{fill-rule:evenodd;clip-rule:evenodd;fill:#00237E;}
</style>
<g id="XMLID_1_">
	<path id="XMLID_3_" class="st0" d="M529.6,87c0,11.6,0.2,13.1,6.5,13.8l3.5,0.4c0.7,0.4,0.4,2.4-0.2,2.8c-6.3-0.2-10-0.2-14.4-0.2
		s-8.3,0.2-15.3,0.2c-0.7-0.2-0.9-2.2,0-2.8l3.9-0.4c6.3-0.7,6.8-2.2,6.8-13.8V37.8c0-3.5,0-3.5-3.3-3.5h-5.9
		c-4.8,0-10.7,0.2-13.5,2.8c-2.6,2.4-3.7,4.8-5,7.6c-0.9,0.7-2.4,0.2-2.8-0.9c1.7-5,3.5-12,4.1-16.4c0.4-0.2,1.7-0.2,2.2,0
		c0.7,3.5,4.4,3.5,9.4,3.5h44.5c5.9,0,7-0.2,8.5-3.1c0.7-0.2,1.7-0.2,2,0.4c-1.3,4.6-2,13.3-1.7,16.8c-0.4,0.9-2.4,0.9-2.8,0.2
		c-0.4-2.8-1.1-6.8-2.8-8.1c-2.6-2-6.8-2.8-12.7-2.8h-7.9c-3.3,0-3.3,0.2-3.3,3.7L529.6,87L529.6,87z"/>
	<path id="XMLID_4_" class="st0" d="M599.9,68c-5.2,0-5.5,0.2-5.5,3.5V87c0,11.6,0.7,13.1,6.8,13.8l3.3,0.4c0.7,0.4,0.4,2.4-0.2,2.8
		c-5.9-0.2-9.6-0.4-14-0.4c-4.8,0-8.5,0.2-12.7,0.4c-0.7-0.4-0.9-2.2-0.2-2.8l2-0.4c6.1-1.1,6.3-2.2,6.3-13.8V47.5
		c0-11.6-0.9-13.3-6.5-13.8l-2.8-0.2c-0.7-0.4-0.4-2.4,0.2-2.8c5.5,0.2,9.2,0.4,13.8,0.4c4.4,0,8.1-0.2,12.7-0.4
		c0.7,0.4,0.9,2.4,0.2,2.8l-2.2,0.2c-6.3,0.7-6.5,2.4-6.5,13.8v12.7c0,3.5,0.2,3.5,5.5,3.5h31.4c5.2,0,5.5-0.2,5.5-3.5V47.5
		c0-11.6-0.2-13.1-6.8-13.8l-2.2-0.2c-0.7-0.4-0.4-2.4,0.2-2.8c5,0.2,8.7,0.4,13.3,0.4c4.4,0,8.1-0.2,12.9-0.4
		c0.7,0.4,0.9,2.4,0.2,2.8l-2.4,0.2c-6.3,0.7-6.5,2.4-6.5,13.8V87c0,11.6,0.2,12.9,6.5,13.8l2.6,0.4c0.7,0.4,0.4,2.4-0.2,2.8
		c-5.2-0.2-8.9-0.4-13.3-0.4c-4.6,0-8.5,0.2-13.3,0.4c-0.7-0.4-0.9-2.2-0.2-2.8l2.2-0.4c6.8-1.1,6.8-2.2,6.8-13.8V71.5
		c0-3.3-0.2-3.5-5.5-3.5H599.9z"/>
	<path id="XMLID_5_" class="st0" d="M682.6,47.2c0-11.4-0.2-13.1-6.8-13.8l-1.7-0.2c-0.7-0.4-0.4-2.4,0.2-2.8
		c4.8,0.2,8.5,0.4,12.9,0.4h20.7c7,0,13.5,0,14.8-0.4c0.7,2,1.3,9.8,1.7,14.6c-0.4,0.7-2.2,0.9-2.8,0.2c-1.7-5.2-2.6-8.9-8.3-10.5
		c-2.4-0.4-5.9-0.7-10.7-0.7h-7.9c-3.3,0-3.3,0.2-3.3,4.4v22c0,3.1,0.4,3.1,3.7,3.1h6.3c4.6,0,8.1-0.2,9.4-0.7
		c1.3-0.4,2.2-1.1,2.6-3.9l0.9-4.6c0.4-0.7,2.4-0.7,2.8,0.2c0,2.6-0.4,7-0.4,11.1c0,3.9,0.4,8.1,0.4,10.5c-0.4,0.9-2.4,0.9-2.8,0.2
		l-1.1-4.4c-0.4-2-1.3-3.7-3.5-4.1c-1.5-0.4-4.1-0.7-8.5-0.7h-6.3c-3.3,0-3.7,0.2-3.7,3.1v15.5c0,5.9,0.4,9.6,2.2,11.4
		c1.3,1.3,3.7,2.6,13.3,2.6c8.5,0,11.6-0.4,14.2-1.7c2-1.1,5-5,7.9-10.7c0.9-0.4,2.4-0.2,2.8,0.9c-0.9,3.9-3.5,12.2-5,15.3
		c-9.8-0.2-19.6-0.4-29.5-0.4h-9.8c-4.8,0-8.5,0.2-15.1,0.4c-0.7-0.4-0.9-2.2-0.2-2.8l3.7-0.4c6.3-0.4,6.8-2.2,6.8-13.8L682.6,47.2
		L682.6,47.2z"/>
	<path id="XMLID_6_" class="st0" d="M237.6,183.4c-5.2,0-5.5,0.2-5.5,3.5v15.5c0,11.6,0.4,13.1,6.8,13.8l3.3,0.2
		c0.7,0.4,0.4,2.4-0.2,2.8c-5.9-0.2-9.6-0.4-14-0.4c-4.8,0-8.5,0.2-12.7,0.4c-0.7-0.4-0.9-2.2-0.2-2.8l2-0.2
		c6.1-1.1,6.3-2.2,6.3-13.8v-39.5c0-11.6-0.9-13.3-6.5-13.8L214,149c-0.7-0.4-0.4-2.4,0.2-2.8c5.5,0.2,9.2,0.2,13.8,0.2
		c4.4,0,8.1-0.2,12.7-0.2c0.7,0.2,0.9,2.4,0.2,2.8l-2.2,0.2c-6.3,0.7-6.5,2.4-6.5,13.8v12.7c0,3.5,0.2,3.5,5.5,3.5H269
		c5.2,0,5.5-0.2,5.5-3.5v-12.7c0-11.6-0.2-13.1-6.8-13.8l-2.2-0.2c-0.7-0.4-0.4-2.4,0.2-2.8c5,0.2,8.7,0.2,13.3,0.2
		c4.4,0,8.1-0.2,12.9-0.2c0.7,0.2,0.9,2.4,0.2,2.8l-2.4,0.2c-6.3,0.7-6.5,2.4-6.5,13.8v39.5c0,11.6,0.2,12.9,6.5,13.8l2.6,0.2
		c0.7,0.4,0.4,2.4-0.2,2.8c-5.2-0.2-8.9-0.4-13.3-0.4c-4.6,0-8.5,0.2-13.3,0.4c-0.7-0.4-0.9-2.2-0.2-2.8l2.2-0.2
		c6.8-1.1,6.8-2.2,6.8-13.8v-15.5c0-3.3-0.2-3.5-5.5-3.5L237.6,183.4L237.6,183.4z"/>
	<path id="XMLID_7_" class="st0" d="M372.5,173.8c0-6.8-0.2-19.4-2.2-22.7c-0.9-1.3-2.8-2.2-5.5-2.4l-2.8-0.2
		c-0.7-0.9-0.4-2.2,0.2-2.6c4.1,0.2,8.3,0.4,12.4,0.4c4.6,0,7.6-0.2,11.6-0.4c0.9,0.7,0.9,2,0.2,2.6l-2.6,0.2
		c-2.8,0.2-4.8,1.3-5.5,2.6c-1.5,3.7-1.5,16.4-1.5,22.5v12.4c0,9.6-1.5,19.6-7.6,26.2c-4.8,5.2-12.9,8.1-21,8.1
		c-7.6,0-15.3-1.5-20.5-6.1c-5.9-4.8-8.5-12.9-8.5-26v-26c0-11.4-0.2-13.3-6.5-13.8l-2.8-0.2c-0.7-0.4-0.4-2.4,0.2-2.6
		c5.5,0.2,9.2,0.4,13.5,0.4c4.6,0,8.1-0.2,13.5-0.4c0.7,0.4,0.9,2.2,0.2,2.6l-2.6,0.2c-6.3,0.7-6.5,2.4-6.5,13.8v23.8
		c0,17.7,5.5,29.5,22.3,29.5c15.9,0,22-12.4,22-29.2V173.8L372.5,173.8z"/>
	<path id="XMLID_8_" class="st0" d="M420.5,177.3c0,3.1,0.4,3.1,3.7,3.1h7.4c4.6,0,8.1-0.2,9.4-0.7c1.3-0.4,2.2-1.1,2.8-3.9l1.1-4.4
		c0.4-0.7,2.4-0.7,2.8,0c0,2.6-0.4,7-0.4,11.1c0,3.9,0.4,8.1,0.4,10.7c-0.4,0.7-2.2,0.7-2.8,0l-1.1-4.4c-0.7-2-1.5-3.5-3.5-4.1
		c-1.5-0.4-4.4-0.7-8.5-0.7h-7.4c-3.3,0-3.7,0.2-3.7,3.1v15.3c0,11.6,0.2,13.1,6.8,13.8l3.7,0.4c0.7,0.4,0.4,2.4-0.2,2.8
		c-6.5-0.2-10.3-0.4-14.6-0.4c-4.8,0-8.5,0.2-13.8,0.4c-0.7-0.4-0.9-2.2-0.2-2.8l2.8-0.4c6.3-0.9,6.5-2.2,6.5-13.8v-39.5
		c0-11.6-0.2-13.1-6.5-13.8l-1.7-0.2c-0.7-0.4-0.4-2.4,0.2-2.8c4.6,0.2,8.3,0.2,12.7,0.2h20.3c7,0,13.3,0,14.8-0.2
		c0,5,0,10.3,0.4,14.6c-0.4,0.7-2,1.1-2.6,0.2c-0.9-5-2.2-8.9-7.6-10.5c-2.4-0.7-6.1-0.7-10.7-0.7h-6.8c-3.3,0-3.3,0.2-3.3,4.4
		L420.5,177.3L420.5,177.3z"/>
	<path id="XMLID_9_" class="st0" d="M486.6,177.3c0,3.1,0.4,3.1,3.7,3.1h7.4c4.6,0,8.1-0.2,9.4-0.7c1.3-0.4,2.2-1.1,2.8-3.9l1.1-4.4
		c0.4-0.7,2.4-0.7,2.8,0c0,2.6-0.4,7-0.4,11.1c0,3.9,0.4,8.1,0.4,10.7c-0.4,0.7-2.2,0.7-2.8,0l-1.1-4.4c-0.7-2-1.5-3.5-3.5-4.1
		c-1.5-0.4-4.4-0.7-8.5-0.7h-7.4c-3.3,0-3.7,0.2-3.7,3.1v15.3c0,11.6,0.2,13.1,6.8,13.8l3.7,0.4c0.7,0.4,0.4,2.4-0.2,2.8
		c-6.5-0.2-10.3-0.4-14.6-0.4c-4.8,0-8.5,0.2-13.8,0.4c-0.7-0.4-0.9-2.2-0.2-2.8l2.8-0.4c6.3-0.9,6.5-2.2,6.5-13.8v-39.5
		c0-11.6-0.2-13.1-6.5-13.8l-1.7-0.2c-0.7-0.4-0.4-2.4,0.2-2.8c4.6,0.2,8.3,0.2,12.7,0.2h20.3c7,0,13.3,0,14.8-0.2
		c0,5,0,10.3,0.4,14.6c-0.4,0.7-2,1.1-2.6,0.2c-0.9-5-2.2-8.9-7.6-10.5c-2.4-0.7-6.1-0.7-10.7-0.7h-6.8c-3.3,0-3.3,0.2-3.3,4.4v23.1
		H486.6z"/>
	<path id="XMLID_10_" class="st0" d="M544.2,163.1c0-11.6-0.2-13.5-6.8-14.2l-2.8-0.2c-0.7-0.4-0.4-2.4,0.2-2.8
		c5.5,0.2,9.2,0.4,13.8,0.4c4.4,0,8.1,0,13.5-0.4c0.7,0.4,0.9,2.4,0.2,2.8l-2.8,0.2c-6.5,0.7-6.8,2.4-6.8,14.2v39.1
		c0,11.6,0.2,13.1,6.8,14l2.8,0.2c0.7,0.4,0.4,2.4-0.2,2.8c-5.5-0.2-9.2-0.2-13.5-0.2c-4.6,0-8.3,0-13.8,0.2
		c-0.7-0.2-0.9-2.2-0.2-2.8l2.8-0.2c6.5-0.9,6.8-2.4,6.8-14V163.1z"/>
	<path id="XMLID_11_" class="st0" d="M649.7,200.2c0,3.3,0,16.4,0.4,19.2c-0.2,0.7-0.9,1.3-2.2,1.3c-1.3-2-4.6-5.7-14.2-16.6
		l-25.5-29c-3.1-3.5-10.5-12.4-12.7-14.8h-0.2c-0.4,1.3-0.7,3.9-0.7,7.2v24c0,5.2,0.2,19.4,2,22.7c0.7,1.3,2.8,2,5.7,2.2l3.5,0.4
		c0.7,0.9,0.7,2.2-0.2,2.8c-5-0.2-8.7-0.4-12.9-0.4c-4.6,0-7.6,0.2-11.4,0.4c-0.9-0.4-0.9-2.2-0.2-2.8l3.1-0.4
		c2.6-0.4,4.4-1.1,4.8-2.2c1.5-3.9,1.5-17.5,1.5-22.7v-31.9c0-3.1-0.2-5.5-2.4-7.9c-1.5-1.5-4.1-2.4-6.8-2.6l-2-0.2
		c-0.7-0.7-0.7-2.4,0.2-2.8c4.6,0.4,10.5,0.4,12.4,0.4c1.7,0,3.7-0.2,5-0.4c2.2,5.7,15.3,20.1,18.8,24.2l10.7,12
		c7.6,8.5,12.9,14.6,18.1,19.9h0.2c0.4-0.7,0.4-2.4,0.4-4.6v-23.6c0-5.2-0.2-19.4-2.2-22.7c-0.7-1.1-2.4-1.7-6.8-2.2l-2-0.2
		c-0.9-0.7-0.7-2.4,0.2-2.8c5,0.2,8.7,0.4,12.9,0.4c4.8,0,7.6-0.2,11.4-0.4c0.9,0.4,0.9,2.2,0.2,2.8l-1.5,0
		c-3.5,0.7-5.7,1.5-6.1,2.4c-2,3.9-1.7,17.7-1.7,22.7L649.7,200.2L649.7,200.2z"/>
	<path id="XMLID_12_" class="st0" d="M738.9,207.7c0,4.4,0.7,7,2.6,7.9c0.2,0.2,0.2,1.1-0.2,1.3c-1.3,0-3.3,0.4-5.5,1.1
		c-5.9,1.5-13.8,2.8-19.6,2.8c-13.1,0-25.1-3.7-33.6-12.2c-6.5-6.5-10-15.3-10-24.9c0-9.4,3.1-18.8,9.8-26
		c7.4-7.6,18.3-12.9,34.9-12.9c6.3,0,12,1.3,14,1.7c2.2,0.4,5.5,1.3,6.8,1.1c0,3.7,0.7,9.4,1.7,15.9c-0.4,0.9-2.4,1.1-3.1,0.4
		c-3.1-11.8-11.4-15.7-22.5-15.7c-21.4,0-30.8,15.3-30.8,31.7c0,21.2,10.9,37.8,33,37.8c6.8,0,10.9-1.5,12-3.3
		c0.4-0.9,1.1-2.8,1.1-6.3v-4.4c0-9.2-0.4-9.8-7.2-10.7l-4.8-0.4c-0.9-0.4-0.9-2.4,0-2.8c3.3,0.2,9.2,0.2,15.7,0.2
		c4.4,0,8.1,0,11.6-0.2c0.9,0.4,0.9,2.2,0.2,2.8l-1.7,0.2c-4.6,0.7-4.8,3.7-4.8,9.2L738.9,207.7L738.9,207.7z"/>
	<path id="XMLID_13_" class="st0" d="M797,202.4c0,11.6,0.2,13.1,6.5,13.8l3.5,0.4c0.7,0.4,0.4,2.4-0.2,2.8
		c-6.3-0.2-10-0.4-14.4-0.4c-4.4,0-8.3,0.2-15.3,0.4c-0.7-0.4-0.9-2.2,0-2.8l3.9-0.4c6.3-0.4,6.8-2.2,6.8-13.8v-49.1
		c0-3.5,0-3.5-3.3-3.5h-6.1c-4.8,0-10.7,0.2-13.5,2.8c-2.6,2.4-3.7,4.8-5,7.6c-0.9,0.7-2.4,0.2-2.8-0.9c1.7-5,3.5-12,4.1-16.4
		c0.4-0.2,1.7-0.4,2.2,0c0.7,3.5,4.4,3.5,9.4,3.5h44.5c5.9,0,7-0.2,8.5-3.1c0.7-0.2,1.7-0.2,2,0.4c-1.3,4.6-2,13.3-1.7,16.8
		c-0.4,0.9-2.4,0.9-2.8,0.2c-0.4-2.8-1.1-6.8-2.8-8.1c-2.6-2-6.8-2.8-12.7-2.8h-7.9c-3.3,0-3.3,0.2-3.3,3.7L797,202.4L797,202.4z"/>
	<path id="XMLID_16_" class="st0" d="M839.6,183.4c0-22,16.6-38.9,39.1-38.9c25.3,0,38.2,18.3,38.2,37.8c0,22.3-17,38.4-38.2,38.4
		C854.2,220.8,839.6,203.1,839.6,183.4 M905.9,185.6c0-18.1-8.1-37.8-29-37.8c-11.4,0-26.2,7.9-26.2,31.9c0,16.4,7.9,37.3,29.7,37.3
		C893.3,217.3,905.9,207.4,905.9,185.6"/>
	<path id="XMLID_17_" class="st0" d="M1000.2,200.2c0,3.3,0,16.4,0.2,19.2c-0.2,0.7-0.9,1.3-2.2,1.3c-1.3-2-4.6-5.7-14-16.6
		l-25.3-29c-3.1-3.5-10.5-12.4-12.7-14.8h-0.2c-0.4,1.3-0.7,3.9-0.7,7.2v24c0,5.2,0.2,19.4,2,22.7c0.7,1.3,2.8,2,5.7,2.2l3.5,0.4
		c0.7,0.9,0.4,2.2-0.2,2.8c-5-0.2-8.7-0.4-12.9-0.4c-4.6,0-7.6,0.2-11.4,0.4c-0.9-0.4-0.9-2.2-0.2-2.8l3.1-0.4
		c2.6-0.4,4.4-1.1,4.8-2.2c1.5-3.9,1.5-17.5,1.5-22.7v-31.9c0-3.1,0-5.5-2.4-7.9c-1.5-1.5-4.1-2.4-6.8-2.6l-2-0.2
		c-0.7-0.7-0.7-2.4,0.2-2.8c4.6,0.4,10.5,0.4,12.4,0.4c1.7,0,3.7-0.2,5-0.4c2.2,5.7,15.3,20.1,18.8,24.2l10.7,12
		c7.6,8.5,12.9,14.6,18.1,19.9h0.2c0.4-0.7,0.4-2.4,0.4-4.6v-23.6c0-5.2,0-19.4-2.2-22.7c-0.7-1.1-2.4-1.7-6.8-2.2l-2-0.2
		c-0.9-0.7-0.7-2.4,0.2-2.8c5,0.2,8.7,0.4,12.9,0.4c4.8,0,7.6-0.2,11.4-0.4c0.9,0.4,0.9,2.2,0.2,2.8l-1.5,0.2
		c-3.5,0.7-5.7,1.5-6.1,2.4c-2,3.9-1.7,17.7-1.7,22.7L1000.2,200.2L1000.2,200.2z"/>
	<path id="XMLID_18_" class="st0" d="M486,317.9c0,11.6,0.2,12.9,7.2,13.8l3.1,0.4c0.7,0.7,0.4,2.4-0.2,2.8
		c-6.3-0.2-9.8-0.4-14.4-0.4c-4.6,0-8.5,0.2-13.3,0.4c-0.7-0.4-0.9-2.2-0.2-2.8l2.4-0.4c6.3-0.9,6.5-2.2,6.5-13.8v-40.6
		c0-9.4-0.2-11.1-5.2-11.8l-3.9-0.4c-0.9-0.7-0.7-2.4,0.2-2.8c5.9-0.9,12.7-0.9,21.8-0.9c9.2,0,15.9,1.3,21.2,4.4
		c5,3.3,8.7,8.9,8.7,16.6c0,10-6.3,15.3-10.9,17.5c-4.8,2.4-10.7,3.3-15.3,3.3c-0.9-0.4-0.9-2-0.2-2.2c11.8-2.2,16.2-8.9,16.2-18.6
		c0-10.7-6.3-17.7-17.7-17.7c-5.9,0-5.9,0.4-5.9,3.9L486,317.9L486,317.9z"/>
	<path id="XMLID_21_" class="st0" d="M535.5,298.9c0-22,16.6-38.9,39.1-38.9c25.3,0,38.2,18.3,38.2,37.8c0,22.3-17,38.4-38.2,38.4
		C550.1,336.2,535.5,318.8,535.5,298.9 M601.9,301.3c0-18.1-8.1-37.8-29-37.8c-11.4,0-26.2,7.9-26.2,31.9c0,16.4,7.9,37.3,29.7,37.3
		C589.2,332.7,601.9,322.9,601.9,301.3"/>
	<path id="XMLID_22_" class="st0" d="M649,336.2c-9.2,0-15.1-2.8-17.2-4.1c-1.3-2.4-2.8-10.3-3.1-15.5c0.7-0.9,2.2-1.1,2.6-0.2
		c1.7,5.7,6.1,16.4,19,16.4c9.2,0,13.8-6.1,13.8-12.7c0-4.8-1.1-10.3-8.9-15.5l-10.5-6.8c-5.5-3.7-11.8-9.8-11.8-19
		c0-10.5,8.1-19,22.5-19c3.5,0,7.4,0.7,10.3,1.5c1.5,0.4,3.1,0.7,3.9,0.7c1.1,2.6,2,8.7,2,13.3c-0.4,0.7-2.2,1.1-2.8,0.4
		c-1.5-5.2-4.4-12.4-15.1-12.4s-13.1,7.2-13.1,12.2c0,6.3,5.2,10.9,9.4,13.5l8.7,5.5c7,4.4,13.8,10.7,13.8,21.2
		C672.4,327.9,663.4,336.2,649,336.2"/>
	<path id="XMLID_23_" class="st0" d="M727.2,317.9c0,11.6,0.2,13.1,6.5,13.8l3.5,0.4c0.7,0.4,0.4,2.4-0.2,2.8
		c-6.3-0.2-10-0.4-14.4-0.4c-4.4,0-8.3,0.2-15.3,0.4c-0.7-0.4-0.9-2.2,0-2.8l3.9-0.4c6.3-0.4,6.8-2.2,6.8-13.8v-49.1
		c0-3.5,0-3.5-3.3-3.5h-6.1c-4.8,0-10.7,0.2-13.5,2.8c-2.6,2.4-3.7,4.8-5,7.6c-0.9,0.7-2.4,0.2-2.8-0.9c1.7-5,3.5-12,4.1-16.4
		c0.4-0.2,1.7-0.4,2.2,0c0.7,3.5,4.4,3.5,9.4,3.5h44.5c5.9,0,7-0.2,8.5-3.1c0.4-0.2,1.7-0.2,2,0.2c-1.3,4.6-2,13.3-1.7,16.8
		c-0.4,0.9-2.4,0.9-2.8,0.2c-0.2-2.8-1.1-6.8-2.8-8.1c-2.6-2-6.8-2.8-12.7-2.8H730c-3.3,0-3.3,0.2-3.3,3.7v48.9H727.2z"/>
</g>
</svg>
