<?xml version="1.0" encoding="UTF-8"?>
<svg width="14px" height="18px" viewBox="0 0 14 18" version="1.1" xmlns="http://www.w3.org/2000/svg" xmlns:xlink="http://www.w3.org/1999/xlink">
    <title>locker</title>
    <g id="Page-1" stroke="none" stroke-width="1" fill="none" fill-rule="evenodd">
        <g id="8" transform="translate(-317.000000, -2019.000000)" fill="#000000" fill-rule="nonzero">
            <g id="Group" transform="translate(164.000000, 2018.000000)">
                <g id="locker" transform="translate(153.000000, 1.000000)">
                    <path d="M11.9411765,6.609375 L10.7046127,6.609375 L10.7046127,3.71847656 C10.7046127,1.66809375 9.04214706,0 6.99873039,0 C4.95531373,0 3.29284804,1.66809375 3.29284804,3.71847656 L3.29284804,6.609375 L2.05882353,6.609375 C0.923588235,6.609375 0,7.55564062 0,8.71875 L0,15.890625 C0,17.0537344 0.923588235,18 2.05882353,18 L11.9411765,18 C13.0764118,18 14,17.0537344 14,15.890625 L14,8.71875 C14,7.55564062 13.0764118,6.609375 11.9411765,6.609375 Z M4.66539706,3.71847656 C4.66539706,2.4435 5.71213725,1.40625 6.99873039,1.40625 C8.28532353,1.40625 9.33206373,2.4435 9.33206373,3.71847656 L9.33206373,6.609375 L4.66539706,6.609375 L4.66539706,3.71847656 Z M12.627451,15.890625 C12.627451,16.2783281 12.3195882,16.59375 11.9411765,16.59375 L2.05882353,16.59375 C1.68041176,16.59375 1.37254902,16.2783281 1.37254902,15.890625 L1.37254902,8.71875 C1.37254902,8.33104688 1.68041176,8.015625 2.05882353,8.015625 L11.9411765,8.015625 C12.3195882,8.015625 12.627451,8.33104688 12.627451,8.71875 L12.627451,15.890625 Z" id="Shape"></path>
                    <path d="M7,10.0546875 C6.29879902,10.0546875 5.73039216,10.6370508 5.73039216,11.3554688 C5.73039216,11.8141875 5.96235294,12.2171484 6.31245588,12.4487578 L6.31245588,13.9921875 C6.31245588,14.3804883 6.61970098,14.6953125 6.99873039,14.6953125 C7.37772549,14.6953125 7.6850049,14.3804883 7.6850049,13.9921875 L7.6850049,12.4504102 C8.03651471,12.219082 8.26960784,11.8153125 8.26960784,11.3554688 C8.26960784,10.6370508 7.70120098,10.0546875 7,10.0546875 Z" id="Path"></path>
                </g>
            </g>
        </g>
    </g>
</svg>