<?xml version="1.0" encoding="utf-8"?>
<svg width="25px" height="25px" viewBox="0 0 25 25" version="1.1" xmlns:xlink="http://www.w3.org/1999/xlink" xmlns="http://www.w3.org/2000/svg">
  <defs>
    <linearGradient x1="0.5" y1="0" x2="0.5" y2="1" id="gradient_1">
      <stop offset="0" stop-color="#4873D2" />
      <stop offset="1" stop-color="#012169" />
    </linearGradient>
  </defs>
  <g id="Group-39" transform="translate(0.30249023 0.30249023)">
    <path d="M8.35589 22.52C8.66986 22.52 8.92383 22.5487 9.1556 22.6106C9.62042 22.7349 10.031 23.0137 10.4658 23.3087C11.0126 23.6797 11.4845 24 12.0001 24C12.5154 24 12.9871 23.6798 13.5334 23.309C13.9693 23.0135 14.3802 22.7349 14.8432 22.6109C15.3288 22.4813 15.8345 22.5165 16.3697 22.5536C16.9655 22.5951 17.5786 22.6384 18.0013 22.3938C18.4316 22.1447 18.6778 21.6378 18.9628 21.0507C19.1973 20.5677 19.4179 20.1134 19.7657 19.7658C20.1141 19.4173 20.568 19.1971 21.0482 18.9641C21.6365 18.6785 22.1446 18.4319 22.3938 18.0011C22.6377 17.5795 22.599 17.0222 22.5542 16.3767C22.5167 15.8372 22.4813 15.3276 22.6111 14.8431C22.7343 14.3811 23.0124 13.9712 23.3067 13.5371C23.6787 12.9886 24 12.5152 24 11.9999C24 11.4857 23.6805 11.0144 23.3105 10.4684C23.0141 10.0312 22.7347 9.61947 22.611 9.15637C22.4809 8.67107 22.5167 8.16311 22.5542 7.6256C22.5953 7.03256 22.6377 6.42048 22.394 5.99906C22.1447 5.56827 21.6378 5.32208 21.0505 5.0371C20.5671 4.80187 20.1124 4.58078 19.7657 4.23407C19.4177 3.88592 19.1973 3.43176 18.9639 2.95107C18.6785 2.36308 18.4321 1.85527 18.0011 1.60577C17.5806 1.36261 17.0236 1.40083 16.3796 1.44554C15.8368 1.48289 15.3275 1.51823 14.8441 1.389C14.3813 1.26555 13.9709 0.9872 13.5363 0.692555C12.9883 0.32075 12.5154 0 12.0001 0C11.4858 0 11.0145 0.319452 10.4684 0.689382C10.0315 0.985758 9.61984 1.26483 9.15646 1.38886C8.67231 1.51808 8.16552 1.48318 7.62887 1.44597C7.00612 1.40328 6.419 1.36304 5.99874 1.60591C5.56838 1.85498 5.3222 2.36193 5.03722 2.9492C4.80199 3.43263 4.5809 3.88751 4.23419 4.23407C3.88748 4.58107 3.43434 4.8013 2.95466 5.03436C2.36451 5.32079 1.85541 5.56798 1.60619 5.99863C1.36203 6.42048 1.40457 7.03213 1.44582 7.62358C1.48317 8.16369 1.51836 8.67236 1.38928 9.15565C1.26496 9.62034 0.986185 10.0309 0.691108 10.4658C0.320171 11.0125 0 11.4844 0 11.9999C0 12.514 0.319306 12.9855 0.689378 13.5313C0.985752 13.9683 1.26525 14.3802 1.38914 14.8435C1.51851 15.3276 1.48332 15.8357 1.44582 16.3737C1.40097 17.0215 1.36231 17.5798 1.60576 18.0005C1.85497 18.4314 2.36162 18.6773 2.94803 18.9622C3.43131 19.1967 3.88647 19.4176 4.23434 19.7656C4.58162 20.1129 4.80185 20.5664 5.03505 21.0465C5.32119 21.6363 5.5678 22.1444 5.99888 22.3938C6.42001 22.638 7.03006 22.5951 7.61978 22.5543C7.86453 22.5373 8.11374 22.52 8.35589 22.52" id="Fill-1" fill="url(#gradient_1)" fill-rule="evenodd" stroke="none" />
    <g id="30-DAY" transform="translate(1.4041837 6.9196243)">
      <g id="30" fill="#FFFFFF">
        <path d="M7.84045 4.41137Q8.17987 4.56076 8.61485 4.56076Q9.05204 4.56076 9.39475 4.3938Q9.73747 4.22683 9.93629 3.93574Q10.1351 3.64465 10.1351 3.27777Q10.1351 2.84938 9.89565 2.55829Q9.65618 2.2672 9.22999 2.1969L9.22999 2.16175Q9.5705 2.05849 9.76932 1.79047Q9.96814 1.52245 9.96814 1.14239Q9.96814 0.823837 9.80777 0.549225Q9.6474 0.274612 9.34862 0.106549Q9.04984 -0.0615129 8.63243 -0.0615134Q8.24358 -0.0615129 7.91954 0.0878758Q7.59549 0.237265 7.39557 0.504188Q7.19566 0.771111 7.18248 1.12481L7.70973 1.12481Q7.72072 0.900729 7.85033 0.741453Q7.97995 0.582178 8.18536 0.497597Q8.39077 0.413017 8.62364 0.413017Q8.99711 0.413017 9.219 0.620624Q9.44089 0.828231 9.44089 1.16875Q9.44089 1.52465 9.18824 1.73775Q8.9356 1.95085 8.53576 1.95085L8.17547 1.95085L8.17547 2.43416L8.53576 2.43416Q9.04764 2.43416 9.32335 2.66923Q9.59906 2.9043 9.59906 3.27777Q9.59906 3.63587 9.31896 3.85666Q9.03885 4.07744 8.60607 4.07744Q8.21502 4.07744 7.93931 3.88851Q7.6636 3.69958 7.63943 3.37444L7.08581 3.37444Q7.10339 3.72814 7.30221 3.99506Q7.50103 4.26198 7.84045 4.41137ZM11.3445 3.95661Q11.7542 4.56076 12.499 4.56076Q13.2437 4.56076 13.6534 3.95661Q14.0632 3.35247 14.0632 2.24962Q14.0632 1.15557 13.6501 0.547028Q13.2371 -0.0615129 12.499 -0.0615134Q11.7608 -0.0615129 11.3478 0.547028Q10.9348 1.15557 10.9348 2.24962Q10.9348 3.35247 11.3445 3.95661ZM13.2635 3.60291Q12.9911 4.07744 12.499 4.07744Q12.0091 4.07744 11.7355 3.60291Q11.462 3.12838 11.462 2.24962Q11.462 1.37306 11.7366 0.893039Q12.0113 0.413017 12.499 0.413017Q12.9867 0.413017 13.2613 0.893039Q13.5359 1.37306 13.5359 2.24962Q13.5359 3.12838 13.2635 3.60291Z" />
      </g>
      <g id="DAY" fill="#FFFFFF">
        <path d="M7.30311 8.38496L6.29333 8.38496L6.29333 5.11278L7.34784 5.11278Q7.82397 5.11278 8.16269 5.30851Q8.50141 5.50423 8.68196 5.86931Q8.8625 6.2344 8.8625 6.74248Q8.8625 7.25376 8.68036 7.62204Q8.49822 7.99032 8.14991 8.18764Q7.8016 8.38496 7.30311 8.38496ZM9.66138 8.38496L9.24596 8.38496L10.4475 5.11278L10.8565 5.11278L12.058 8.38496L11.6426 8.38496L11.3134 7.45827L9.99051 7.45827L9.66138 8.38496ZM12.7418 5.11278L12.2881 5.11278L13.4704 7.03647L13.4704 8.38496L13.8666 8.38496L13.8666 7.03647L15.049 5.11278L14.5952 5.11278L13.6877 6.64023L13.6493 6.64023L12.7418 5.11278ZM6.68957 8.03346L7.27754 8.03346Q7.88628 8.03346 8.18266 7.68755Q8.47904 7.34163 8.47904 6.74248Q8.47904 6.14812 8.18826 5.8062Q7.89747 5.46429 7.32228 5.46429L6.68957 5.46429L6.68957 8.03346ZM10.1151 7.10677L11.1888 7.10677L10.6648 5.63045L10.6392 5.63045L10.1151 7.10677Z" />
      </g>
    </g>
    <path d="M8.60157 17.2905C13.3521 17.2905 17.2031 13.4199 17.2031 8.64525C17.2031 3.87061 13.3521 0 8.60157 0C3.85105 0 0 3.87061 0 8.64525C0 13.4199 3.85105 17.2905 8.60157 17.2905Z" transform="translate(3.3296406 3.346548)" id="Oval" fill="none" fill-rule="evenodd" stroke="#FFFFFF" stroke-width="0.605" />
  </g>
</svg>