<?xml version="1.0" encoding="utf-8"?>
<svg width="64px" height="36px" viewBox="0 0 64 36" version="1.1" xmlns:xlink="http://www.w3.org/1999/xlink" xmlns="http://www.w3.org/2000/svg">
  <path d="M53.9458 5.45742L46.4082 5.45742L46.4082 -5.68434e-14L10.5392 -5.68434e-14L10.5392 6.83932L0 6.83932L0 9.12002L10.5392 9.12002L10.5392 13.7488L1.88703 13.7488L1.88703 16.0295L10.5392 16.0295L10.5392 20.6584L3.56052 20.6584L3.56052 22.9391L10.5392 22.9391L10.5392 31.6464L17.2398 31.6464C17.5888 34.135 19.7533 36 22.3348 36C24.9164 36 27.0809 34.135 27.4298 31.6464L48.437 31.6464C48.7859 34.135 50.9504 36 53.532 36C56.1135 36 58.278 34.135 58.627 31.6464L64 31.6464L64 16.6535C63.8555 9.87889 59.9464 5.45797 53.9465 5.45797L53.9458 5.45742ZM22.2613 33.7865C20.7265 33.7865 19.4698 32.5422 19.4698 31.0227C19.4698 29.5031 20.7265 28.2588 22.2613 28.2588C23.796 28.2588 25.0527 29.5031 25.0527 31.0227C25.0527 32.5422 23.796 33.7865 22.2613 33.7865ZM44.034 29.4329L27.1463 29.4329C26.4485 27.4303 24.5648 25.9079 22.2613 25.9079C20.0286 25.9079 18.0741 27.3601 17.3762 29.4329L12.7692 29.4329L12.7692 2.34827L44.0343 2.34827L44.034 29.4329ZM53.3868 33.7865C51.8521 33.7865 50.5954 32.5422 50.5954 31.0227C50.5954 29.5031 51.8521 28.2588 53.3868 28.2588C54.9216 28.2588 56.1783 29.5031 56.1783 31.0227C56.1783 32.5422 54.9216 33.7865 53.3868 33.7865ZM61.4807 29.4329L58.2694 29.4329C57.5715 27.4303 55.6878 25.908 53.3843 25.908C51.0808 25.908 49.1971 27.3601 48.4993 29.4329L46.3348 29.4329L46.3348 7.73839L53.8724 7.73839C58.5476 7.73839 61.4101 11.1932 61.4101 16.7208L61.4128 29.4329L61.4807 29.4329Z" transform="matrix(-1 0 0 1 64 0)" id="Page-1-Copy-5" fill="#5CE0CF" fill-rule="evenodd" stroke="none" />
</svg>