<?xml version="1.0" encoding="UTF-8"?>
<svg width="81px" height="81px" viewBox="0 0 81 81" version="1.1" xmlns="http://www.w3.org/2000/svg" xmlns:xlink="http://www.w3.org/1999/xlink">
    <title>cart_icon</title>
    <g id="Page-1" stroke="none" stroke-width="1" fill="none" fill-rule="evenodd">
        <g id="cart_icon" transform="translate(1.000000, 1.000000)">
            <circle id="Oval" stroke="#000000" stroke-width="2" fill="#FFC72E" cx="39.5" cy="39.5" r="39.5"></circle>
            <g id="shopping-bag" transform="translate(23.041667, 18.750000)" fill-rule="nonzero">
                <path d="M31.3927469,9.2578125 L26.7489063,9.2578125 C26.1435291,4.05199023 21.7598216,0 16.4583333,0 C11.1568451,0 6.77313754,4.05199023 6.16776042,9.2578125 L1.52391975,9.2578125 C0.682258873,9.2578125 0,9.94859961 0,10.8007812 L0,37.9570312 C0,38.8092129 0.682258873,39.5 1.52391975,39.5 L31.3927469,39.5 C32.2344078,39.5 32.9166667,38.8092129 32.9166667,37.9570312 L32.9166667,10.8007812 C32.9166667,9.94859961 32.2344078,9.2578125 31.3927469,9.2578125 Z M16.4583333,3.0859375 C20.0764236,3.0859375 23.088832,5.7595166 23.6709693,9.2578125 L9.24569734,9.2578125 C9.82783468,5.7595166 12.8402431,3.0859375 16.4583333,3.0859375 Z M29.8688272,36.4140625 L3.04783951,36.4140625 L3.04783951,12.34375 L6.09567901,12.34375 L6.09567901,16.9726562 C6.09567901,17.8248379 6.77793789,18.515625 7.61959877,18.515625 C8.46125965,18.515625 9.14351852,17.8248379 9.14351852,16.9726562 L9.14351852,12.34375 L23.7731481,12.34375 L23.7731481,16.9726562 C23.7731481,17.8248379 24.455407,18.515625 25.2970679,18.515625 C26.1387288,18.515625 26.8209877,17.8248379 26.8209877,16.9726562 L26.8209877,12.34375 L29.8688272,12.34375 L29.8688272,36.4140625 Z" id="Shape" fill="#000000"></path>
                <path d="M29.8688272,36.4140625 L3.04783951,36.4140625 L3.04783951,12.34375 L6.09567901,12.34375 L6.09567901,16.9726562 C6.09567901,17.8248379 6.77793789,18.515625 7.61959877,18.515625 C8.46125965,18.515625 9.14351852,17.8248379 9.14351852,16.9726562 L9.14351852,12.34375 L23.7731481,12.34375 L23.7731481,16.9726562 C23.7731481,17.8248379 24.455407,18.515625 25.2970679,18.515625 C26.1387288,18.515625 26.8209877,17.8248379 26.8209877,16.9726562 L26.8209877,12.34375 L29.8688272,12.34375 L29.8688272,36.4140625 Z" id="Path-Copy-2" fill="#FFFEF2"></path>
            </g>
        </g>
    </g>
</svg>