<?xml version="1.0" encoding="UTF-8"?>
<svg width="13px" height="13px" viewBox="0 0 13 13" version="1.1" xmlns="http://www.w3.org/2000/svg" xmlns:xlink="http://www.w3.org/1999/xlink">
    <title>check testimonials copy</title>
    <g id="Page-1" stroke="none" stroke-width="1" fill="none" fill-rule="evenodd">
        <g id="8" transform="translate(-894.000000, -825.000000)">
            <g id="check-testimonials" transform="translate(894.000000, 825.000000)">
                <circle id="Oval-Copy-6" fill="#77C44F" cx="6.5" cy="6.5" r="6.5"></circle>
                <g id="002-correct-symbol" transform="translate(2.708333, 4.333333)" fill="#FFFFFF" fill-rule="nonzero">
                    <path d="M6.6664026,0.671330515 L6.07072976,0.114605515 C5.98905256,0.0382113971 5.8897175,0 5.7729547,0 C5.65608451,0 5.55674946,0.0382113971 5.47507226,0.114605515 L2.60173475,2.80412868 L1.31399955,1.59649081 C1.2322303,1.52006801 1.13295661,1.48189963 1.01619381,1.48189963 C0.899354303,1.48189963 0.80008061,1.52006801 0.718311365,1.59649081 L0.122638526,2.15323015 C0.040869281,2.2296386 0,2.32245 0,2.43163566 C0,2.54073529 0.040869281,2.63363272 0.122638526,2.71002684 L1.70817947,4.19186912 L2.30389833,4.74859412 C2.38562155,4.82504559 2.48492593,4.86321397 2.60173475,4.86321397 C2.71849755,4.86321397 2.81780192,4.82494522 2.89957117,4.74859412 L3.49527469,4.19186912 L6.6664026,1.22809853 C6.74809513,1.15167574 6.78904119,1.05887868 6.78904119,0.949693015 C6.78904119,0.840564706 6.74809513,0.747753309 6.6664026,0.671330515 Z" id="Path"></path>
                </g>
            </g>
        </g>
    </g>
</svg>