<?xml version="1.0" encoding="UTF-8"?>
<svg width="42px" height="52px" viewBox="0 0 42 52" version="1.1" xmlns="http://www.w3.org/2000/svg" xmlns:xlink="http://www.w3.org/1999/xlink">
    <title>002-packing</title>
    <g id="Page-1" stroke="none" stroke-width="1" fill="none" fill-rule="evenodd">
        <g id="4" transform="translate(-193.000000, -914.000000)" fill="#00237E" fill-rule="nonzero">
            <g id="Group-2" transform="translate(166.000000, 730.000000)">
                <g id="002-packing" transform="translate(27.000000, 184.000000)">
                    <path d="M40.9729091,17.9393659 L30.6224545,13.9442439 C32.1096581,9.73293472 30.6654604,5.04753745 27.0623755,2.3943124 C23.4592906,-0.258912649 18.5407094,-0.258912649 14.9376245,2.3943124 C11.3345396,5.04753745 9.8903419,9.73293472 11.3775455,13.9442439 L1.02709091,17.9393659 C0.59947281,18.1055997 0.318181738,18.5162541 0.318181738,18.9736585 L0.318181738,42.8987317 C0.318181738,43.356843 0.600414488,43.7679531 1.029,43.9336585 L20.5971818,51.4926829 C20.7256824,51.5421408 20.862248,51.5675122 21,51.5675122 C21.13634,51.5647344 21.2709805,51.536782 21.3970909,51.4850732 L21.4028182,51.4926829 L40.9729091,43.9336585 C41.4007439,43.7673407 41.6822541,43.3563677 41.6818187,42.8987317 L41.6818187,18.9736585 C41.6818187,18.5162541 41.4005272,18.1055997 40.9729091,17.9393659 L40.9729091,17.9393659 Z M37.4888182,18.9736585 L33.8761818,20.3687805 L27.8892727,18.0731707 C28.5713301,17.447789 29.1651617,16.7331515 29.6545455,15.9487805 L37.4888182,18.9736585 Z M25.6989091,19.6116098 L30.7898182,21.562878 L27.9153636,22.6726341 L22.6424545,20.6199024 C23.7086889,20.4482887 24.7405307,20.1078948 25.6989091,19.6116098 Z M29.1639091,24.57 L32.9038182,23.1254146 L32.9038182,27.7489756 L32.2782727,27.3424878 C31.8267145,27.0495729 31.2295256,27.1205907 30.8598182,27.5111707 L29.1639091,29.3045366 L29.1639091,24.57 Z M21,2.652 C25.4037178,2.652 28.9736364,6.20947986 28.9736364,10.5978537 C28.9736364,14.9862275 25.4037178,18.5437073 21,18.5437073 C16.5962822,18.5437073 13.0263636,14.9862275 13.0263636,10.5978537 C13.0312735,6.2115081 16.5983176,2.65689275 21,2.652 L21,2.652 Z M12.9818182,16.856878 L11.4914545,16.2766341 L12.3448182,15.946878 C12.5403462,16.262167 12.7529958,16.5665872 12.9818182,16.8587805 L12.9818182,16.856878 Z M8.41972727,17.463122 L24.8404545,23.8597561 L21,25.3430244 L4.51118182,18.9736585 L8.41972727,17.463122 Z M2.54545455,42.1383902 L2.54545455,20.5945366 L19.8863636,27.2936585 L19.8863636,48.8375122 L2.54545455,42.1383902 Z M22.1136364,48.8375122 L22.1136364,27.2936585 L26.9366364,25.4292683 L26.9366364,32.101122 C26.9368448,32.5559498 27.215532,32.9646074 27.6398182,33.1322439 C27.7703466,33.1843189 27.9096724,33.2110106 28.0502727,33.210878 C28.3572155,33.2109931 28.6505801,33.0847856 28.861,32.8620976 L31.8423636,29.7084878 L33.4097273,30.723122 C33.7519169,30.9435415 34.1875855,30.9601371 34.545662,30.7663923 C34.9037386,30.5726474 35.1270496,30.1994969 35.1279091,29.7934634 L35.1279091,22.264878 L39.4545455,20.5945366 L39.4545455,42.1383902 L22.1136364,48.8375122 Z" id="Shape"></path>
                    <path d="M19.0164545,13.8637073 C19.4412194,14.2219287 20.0661372,14.2127229 20.4800909,13.8421463 L25.8809091,9.00487805 C26.1925668,8.74407037 26.3366388,8.33461823 26.256669,7.9369691 C26.1766993,7.53931998 25.8854251,7.21680964 25.4969848,7.09581664 C25.1085446,6.97482364 24.6848073,7.07461921 24.3918182,7.35609756 L19.7132727,11.5471707 L17.5827273,9.75253659 C17.1130091,9.35677745 16.4102793,9.41540632 16.0131364,9.88348784 C15.6159935,10.3515694 15.6748273,11.0518506 16.1445455,11.4476098 L19.0164545,13.8637073 Z" id="Path"></path>
                </g>
            </g>
        </g>
    </g>
</svg>